600 0 1 0           
37 SolidWorks(2001067)-Sat-Convertor-2.0 13 ACIS 6.0.2 NT 24 Mon Mar 17 10:49:53 2014 
1 9.9999999999999995e-007 1e-010 
-0 body $1 $2 $-1 $-1 #
-1 rgb_color-st-attrib $-1 $-1 $-1 $0 0.94117647058823528 0.67450980392156867 0.11764705882352941 #
-2 lump $-1 $-1 $3 $0 #
-3 shell $-1 $-1 $-1 $4 $-1 $2 #
-4 face $-1 $5 $6 $3 $-1 $7 forward single #
-5 face $-1 $8 $9 $3 $-1 $10 forward single #
-6 loop $-1 $-1 $11 $4 #
-7 plane-surface $-1 -1.5646576387564612 136.78778105685993 10.667999999999999 0.99503719020998915 0.099503719020999026 0 -99.503719020999029 995.03719020998915 0 forward_v I I I I #
-8 face $-1 $12 $13 $3 $-1 $14 forward single #
-9 loop $-1 $-1 $15 $5 #
-10 plane-surface $-1 12.303742361243549 -1.8962189431400156 10.667999999999999 -1.8379755076386104e-017 1 0 -1000 -1.8379755076386105e-014 0 forward_v I I I I #
-11 coedge $-1 $16 $17 $18 $19 reversed $6 $-1 #
-12 face $-1 $20 $21 $3 $-1 $22 forward single #
-13 loop $-1 $-1 $23 $8 #
-14 plane-surface $-1 262.1278812662656 136.78778105685996 10.667999999999999 1.0525734148900603e-016 -1 0 1000 1.0525734148900603e-013 0 forward_v I I I I #
-15 coedge $-1 $24 $25 $26 $27 reversed $9 $-1 #
-16 coedge $-1 $28 $11 $29 $30 reversed $6 $-1 #
-17 coedge $-1 $11 $28 $24 $31 forward $6 $-1 #
-18 coedge $-1 $26 $32 $11 $19 forward $33 $-1 #
-19 edge $-1 $34 -2.2094263978589047e-020 $35 0.13937569506395286 $18 $36 forward 7 unknown #
-20 face $-1 $37 $38 $3 $-1 $39 forward single #
-21 loop $-1 $40 $41 $12 #
-22 plane-surface $-1 252.85681808179527 -6.9762189431400063 11.937999999999999 0 0 1 1000 0 0 forward_v I I I I #
-23 coedge $-1 $42 $29 $32 $43 reversed $13 $-1 #
-24 coedge $-1 $44 $15 $17 $31 reversed $9 $-1 #
-25 coedge $-1 $15 $44 $45 $46 forward $9 $-1 #
-26 coedge $-1 $47 $18 $15 $27 forward $33 $-1 #
-27 edge $-1 $35 0 $48 0.23595573890502231 $26 $49 forward 7 unknown #
-28 coedge $-1 $17 $16 $50 $51 forward $6 $-1 #
-29 coedge $-1 $23 $52 $16 $30 forward $13 $-1 #
-30 edge $-1 $53 -0.0012699999999999996 $34 0.010667999999999999 $29 $54 forward 7 unknown #
-31 edge $-1 $55 -0.0012699999999999996 $35 0.010667999999999999 $17 $56 forward 7 unknown #
-32 coedge $-1 $18 $47 $23 $43 forward $33 $-1 #
-33 loop $-1 $-1 $18 $20 #
-34 vertex $-1 $19 $57 #
-35 vertex $-1 $19 $58 #
-36 straight-curve $-1 -1.5646576387564612 136.78778105685993 0 99.503719020999029 -995.03719020998915 0 I I #
-37 face $-1 $59 $60 $3 $-1 $61 forward single #
-38 loop $-1 $33 $62 $20 #
-39 plane-surface $-1 249.40881547014817 -3.1662189431400045 0 0 0 -1 -1000 0 0 forward_v I I I I #
-40 loop $-1 $-1 $63 $12 #
-41 coedge $-1 $64 $65 $66 $67 forward $21 $-1 #
-42 coedge $-1 $52 $23 $68 $69 reversed $13 $-1 #
-43 edge $-1 $70 0 $34 0.26369253890502203 $32 $71 forward 7 unknown #
-44 coedge $-1 $25 $24 $72 $73 forward $9 $-1 #
-45 coedge $-1 $74 $75 $25 $46 reversed $60 $-1 #
-46 edge $-1 $76 -0.0012699999999999996 $48 0.010667999999999999 $25 $77 forward 7 unknown #
-47 coedge $-1 $32 $26 $75 $78 forward $33 $-1 #
-48 vertex $-1 $27 $79 #
-49 straight-curve $-1 12.303742361243549 -1.8962189431400156 0 1000 1.8379755076386105e-014 0 I I #
-50 coedge $-1 $80 $72 $28 $51 reversed $40 $-1 #
-51 edge $-1 $53 0 $55 0.13937569506395286 $28 $81 forward 7 unknown #
-52 coedge $-1 $29 $42 $80 $82 forward $13 $-1 #
-53 vertex $-1 $30 $83 #
-54 straight-curve $-1 -1.5646576387564612 136.78778105685993 10.667999999999999 -0 -0 -1000 I I #
-55 vertex $-1 $73 $84 #
-56 straight-curve $-1 12.303742361243549 -1.8962189431400156 10.667999999999999 -0 -0 -1000 I I #
-57 point $-1 -1.5646576387564615 136.78778105685993 0 #
-58 point $-1 12.303742361243549 -1.8962189431400156 0 #
-59 face $-1 $85 $86 $3 $-1 $87 forward single #
-60 loop $-1 $-1 $75 $37 #
-61 plane-surface $-1 248.25948126626585 -1.8962189431400112 10.667999999999999 -0.99503719020998938 0.099503719020997375 0 -99.503719020997394 -995.03719020998949 0 forward_v I I I I #
-62 coedge $-1 $88 $89 $90 $91 reversed $38 $-1 #
-63 coedge $-1 $72 $80 $74 $92 reversed $40 $-1 #
-64 coedge $-1 $93 $41 $94 $95 forward $21 $-1 #
-65 coedge $-1 $41 $96 $97 $98 forward $21 $-1 #
-66 coedge $-1 $99 $100 $41 $67 reversed $101 $-1 #
-67 edge $-1 $102 0.0070166710194117174 $103 0.26790254151666915 $41 $104 forward 7 unknown #
-68 coedge $-1 $75 $74 $42 $69 forward $60 $-1 #
-69 edge $-1 $105 -0.0012699999999999996 $70 0.010667999999999999 $68 $106 forward 7 unknown #
-70 vertex $-1 $69 $107 #
-71 straight-curve $-1 262.1278812662656 136.78778105685996 0 -1000 -1.0525734148900602e-013 0 I I #
-72 coedge $-1 $50 $63 $44 $73 reversed $40 $-1 #
-73 edge $-1 $55 0 $76 0.23595573890502231 $44 $108 forward 7 unknown #
-74 coedge $-1 $68 $45 $63 $92 forward $60 $-1 #
-75 coedge $-1 $45 $68 $47 $78 reversed $60 $-1 #
-76 vertex $-1 $73 $109 #
-77 straight-curve $-1 248.25948126626585 -1.8962189431400112 10.667999999999999 -0 -0 -1000 I I #
-78 edge $-1 $48 0 $70 0.13937569506395286 $47 $110 forward 7 unknown #
-79 point $-1 248.25948126626585 -1.8962189431400112 0 #
-80 coedge $-1 $63 $50 $52 $82 reversed $40 $-1 #
-81 straight-curve $-1 -1.5646576387564612 136.78778105685993 11.937999999999999 99.503719020999029 -995.03719020998915 0 I I #
-82 edge $-1 $105 0 $53 0.26369253890502203 $52 $111 forward 7 unknown #
-83 point $-1 -1.5646576387564612 136.78778105685993 11.937999999999999 #
-84 point $-1 12.303742361243549 -1.8962189431400156 11.937999999999999 #
-85 face $-1 $112 $113 $3 $-1 $114 reversed single #
-86 loop $-1 $-1 $97 $59 #
-87 cone-surface $-1 260.72454706238329 135.51778105685997 11.937999999999999 0 0 -1 -6.3500000000000227 0 0 1 I I 0 1 1000 forward I I I I #
-88 coedge $-1 $115 $62 $116 $117 reversed $38 $-1 #
-89 coedge $-1 $62 $115 $118 $119 reversed $38 $-1 #
-90 coedge $-1 $120 $121 $62 $91 forward $122 $-1 #
-91 edge $-1 $123 0 $124 0.14192836347171758 $90 $125 forward 7 unknown #
-92 edge $-1 $76 0 $105 0.13937569506395286 $74 $126 forward 7 unknown #
-93 coedge $-1 $127 $64 $128 $129 forward $21 $-1 #
-94 coedge $-1 $130 $131 $64 $95 reversed $132 $-1 #
-95 edge $-1 $103 1.5707963267948992 $133 3.1415926535897931 $64 $134 forward 7 unknown #
-96 coedge $-1 $65 $135 $136 $137 forward $21 $-1 #
-97 coedge $-1 $138 $139 $65 $98 reversed $86 $-1 #
-98 edge $-1 $140 0 $102 1.5707963267948966 $65 $141 forward 7 unknown #
-99 coedge $-1 $142 $66 $139 $143 forward $101 $-1 #
-100 coedge $-1 $66 $142 $130 $144 forward $101 $-1 #
-101 loop $-1 $-1 $142 $145 #
-102 vertex $-1 $98 $146 #
-103 vertex $-1 $95 $147 #
-104 straight-curve $-1 267.74121808179501 141.86778105685997 11.937999999999999 -1000 -1.009590248698469e-013 0 I I #
-105 vertex $-1 $69 $148 #
-106 straight-curve $-1 262.1278812662656 136.78778105685996 10.667999999999999 -0 -0 -1000 I I #
-107 point $-1 262.1278812662656 136.78778105685996 0 #
-108 straight-curve $-1 12.303742361243549 -1.8962189431400156 11.937999999999999 1000 1.8379755076386105e-014 0 I I #
-109 point $-1 248.25948126626585 -1.8962189431400112 11.937999999999999 #
-110 straight-curve $-1 248.25948126626585 -1.8962189431400112 0 99.50371902099738 995.03719020998938 0 I I #
-111 straight-curve $-1 262.1278812662656 136.78778105685996 11.937999999999999 -1000 -1.0525734148900602e-013 0 I I #
-112 face $-1 $149 $150 $3 $-1 $151 forward single #
-113 loop $-1 $-1 $152 $85 #
-114 plane-surface $-1 252.85681808179527 -6.9762189431400117 11.937999999999999 -0.99503719020998938 0.099503719020997236 0 -99.503719020997238 -995.03719020998938 0 forward_v I I I I #
-115 coedge $-1 $89 $88 $153 $154 reversed $38 $-1 #
-116 coedge $-1 $155 $156 $88 $117 forward $157 $-1 #
-117 edge $-1 $158 0 $123 0.23825440731278705 $116 $159 forward 7 unknown #
-118 coedge $-1 $160 $161 $89 $119 forward $162 $-1 #
-119 edge $-1 $124 0 $163 0.2664992073127867 $118 $164 forward 7 unknown #
-120 coedge $-1 $165 $90 $161 $166 reversed $122 $-1 #
-121 coedge $-1 $90 $165 $155 $167 forward $122 $-1 #
-122 loop $-1 $-1 $90 $168 #
-123 vertex $-1 $91 $169 #
-124 vertex $-1 $166 $170 #
-125 straight-curve $-1 249.40881547014823 -3.1662189431400045 0 99.50371902099667 995.03719020998938 0 I I #
-126 straight-curve $-1 248.25948126626585 -1.8962189431400112 11.937999999999999 99.50371902099738 995.03719020998938 0 I I #
-127 coedge $-1 $171 $93 $172 $173 forward $21 $-1 #
-128 coedge $-1 $174 $175 $93 $129 reversed $150 $-1 #
-129 edge $-1 $133 -3.1415926535897931 $176 -3.0419240010986339 $93 $177 forward 7 unknown #
-130 coedge $-1 $178 $94 $100 $144 reversed $132 $-1 #
-131 coedge $-1 $94 $178 $174 $179 reversed $132 $-1 #
-132 loop $-1 $-1 $131 $180 #
-133 vertex $-1 $95 $181 #
-134 ellipse-curve $-1 -0.16132343487411099 135.51778105685995 11.937999999999999 0 0 1 6.3499999999999996 0 0 1 I I #
-135 coedge $-1 $96 $182 $152 $183 forward $21 $-1 #
-136 coedge $-1 $184 $185 $96 $137 reversed $186 $-1 #
-137 edge $-1 $187 -0.099668652491168241 $140 0 $96 $188 forward 7 unknown #
-138 coedge $-1 $189 $97 $185 $190 forward $86 $-1 #
-139 coedge $-1 $97 $189 $99 $143 reversed $86 $-1 #
-140 vertex $-1 $98 $191 #
-141 ellipse-curve $-1 260.72454706238329 135.51778105685997 11.937999999999999 0 0 1 6.3500000000000227 0 0 1 I I #
-142 coedge $-1 $100 $99 $192 $193 forward $101 $-1 #
-143 edge $-1 $102 0 $194 0.0012699999999999996 $99 $195 forward 7 unknown #
-144 edge $-1 $196 -0.0012699999999999996 $103 0 $100 $197 forward 7 unknown #
-145 face $-1 $198 $101 $3 $-1 $199 reversed single #
-146 point $-1 260.72454706238329 141.86778105685997 11.937999999999999 #
-147 point $-1 -0.1613234348741277 141.86778105685994 11.937999999999999 #
-148 point $-1 262.1278812662656 136.78778105685996 11.937999999999999 #
-149 face $-1 $200 $201 $3 $-1 $202 forward single #
-150 loop $-1 $-1 $128 $112 #
-151 cone-surface $-1 -0.16132343487411099 135.51778105685995 11.937999999999999 0 0 -1 -6.3499999999999996 0 0 1 I I 0 1 1000 forward I I I I #
-152 coedge $-1 $203 $204 $135 $183 reversed $113 $-1 #
-153 coedge $-1 $205 $206 $115 $154 forward $207 $-1 #
-154 edge $-1 $163 0 $158 0.14192836347171756 $153 $208 forward 7 unknown #
-155 coedge $-1 $209 $116 $121 $167 reversed $157 $-1 #
-156 coedge $-1 $116 $209 $205 $210 forward $157 $-1 #
-157 loop $-1 $-1 $116 $211 #
-158 vertex $-1 $210 $212 #
-159 straight-curve $-1 11.154408157361202 -3.1662189431400045 0 1000 0 0 I I #
-160 coedge $-1 $213 $118 $206 $214 reversed $162 $-1 #
-161 coedge $-1 $118 $213 $120 $166 forward $162 $-1 #
-162 loop $-1 $-1 $118 $215 #
-163 vertex $-1 $119 $216 #
-164 straight-curve $-1 263.53121547014791 138.05778105685994 0 -1000 0 0 I I #
-165 coedge $-1 $121 $120 $217 $218 reversed $122 $-1 #
-166 edge $-1 $219 -0 $124 0.010667999999999999 $161 $220 forward 7 unknown #
-167 edge $-1 $221 -0 $123 0.010667999999999999 $121 $222 forward 7 unknown #
-168 face $-1 $215 $122 $3 $-1 $223 reversed single #
-169 point $-1 249.40881547014823 -3.1662189431400045 0 #
-170 point $-1 263.53121547014791 138.05778105685994 0 #
-171 coedge $-1 $224 $127 $225 $226 forward $21 $-1 #
-172 coedge $-1 $227 $228 $127 $173 reversed $229 $-1 #
-173 edge $-1 $176 0.0070166710194117408 $230 0.1438396976755999 $127 $231 forward 7 unknown #
-174 coedge $-1 $232 $128 $131 $179 forward $150 $-1 #
-175 coedge $-1 $128 $232 $227 $233 reversed $150 $-1 #
-176 vertex $-1 $173 $234 #
-177 ellipse-curve $-1 -0.16132343487411099 135.51778105685995 11.937999999999999 0 0 1 6.3499999999999996 0 0 1 I I #
-178 coedge $-1 $131 $130 $235 $236 reversed $132 $-1 #
-179 edge $-1 $133 0 $237 0.0012699999999999996 $174 $238 forward 7 unknown #
-180 face $-1 $239 $132 $3 $-1 $240 forward single #
-181 point $-1 -6.5113234348741109 135.51778105685995 11.937999999999999 #
-182 coedge $-1 $135 $224 $241 $242 forward $21 $-1 #
-183 edge $-1 $243 0.0057466710194117674 $187 0.1425696976755999 $135 $244 forward 7 unknown #
-184 coedge $-1 $245 $136 $204 $246 reversed $186 $-1 #
-185 coedge $-1 $136 $245 $138 $190 reversed $186 $-1 #
-186 loop $-1 $-1 $185 $200 #
-187 vertex $-1 $246 $247 #
-188 ellipse-curve $-1 260.72454706238329 135.51778105685997 11.937999999999999 0 0 1 6.3500000000000227 0 0 1 I I #
-189 coedge $-1 $139 $138 $248 $249 reversed $86 $-1 #
-190 edge $-1 $140 0 $250 0.0012699999999999996 $138 $251 forward 7 unknown #
-191 point $-1 267.07454706238332 135.51778105685997 11.937999999999999 #
-192 coedge $-1 $248 $235 $142 $193 reversed $252 $-1 #
-193 edge $-1 $194 0.0070166710194117174 $196 0.26790254151666915 $142 $253 forward 7 unknown #
-194 vertex $-1 $143 $254 #
-195 straight-curve $-1 260.72454706238329 141.86778105685997 11.937999999999999 0 0 -1000 I I #
-196 vertex $-1 $144 $255 #
-197 straight-curve $-1 -0.1613234348741277 141.86778105685994 11.937999999999999 0 0 1000 I I #
-198 face $-1 $180 $229 $3 $-1 $256 reversed single #
-199 plane-surface $-1 267.74121808179501 141.86778105685997 11.937999999999999 1.0095902486984688e-016 -1 0 1000 1.0095902486984689e-013 0 forward_v I I I I #
-200 face $-1 $257 $186 $3 $-1 $258 forward single #
-201 loop $-1 $-1 $225 $149 #
-202 cone-surface $-1 13.453076565125901 -0.62621894314001603 11.937999999999999 0 0 -1 -6.3499999999999996 0 0 1 I I 0 1 1000 forward I I I I #
-203 coedge $-1 $259 $152 $260 $261 forward $113 $-1 #
-204 coedge $-1 $152 $259 $184 $246 forward $113 $-1 #
-205 coedge $-1 $262 $153 $156 $210 reversed $207 $-1 #
-206 coedge $-1 $153 $262 $160 $214 forward $207 $-1 #
-207 loop $-1 $-1 $153 $263 #
-208 straight-curve $-1 -2.9679918426388139 138.05778105685994 0 99.503719020999057 -995.03719020998915 0 I I #
-209 coedge $-1 $156 $155 $264 $265 reversed $157 $-1 #
-210 edge $-1 $266 -0 $158 0.010667999999999999 $156 $267 forward 7 unknown #
-211 face $-1 $268 $157 $3 $-1 $269 reversed single #
-212 point $-1 11.154408157361202 -3.1662189431400045 0 #
-213 coedge $-1 $161 $160 $270 $271 reversed $162 $-1 #
-214 edge $-1 $272 -0 $163 0.010667999999999999 $206 $273 forward 7 unknown #
-215 face $-1 $211 $162 $3 $-1 $274 reversed single #
-216 point $-1 -2.9679918426388139 138.05778105685994 0 #
-217 coedge $-1 $270 $264 $165 $218 forward $275 $-1 #
-218 edge $-1 $221 0 $219 0.14192836347171758 $217 $276 forward 7 unknown #
-219 vertex $-1 $166 $277 #
-220 straight-curve $-1 263.53121547014791 138.05778105685994 10.667999999999999 -0 -0 -1000 I I #
-221 vertex $-1 $265 $278 #
-222 straight-curve $-1 249.40881547014823 -3.1662189431400045 10.667999999999999 -0 -0 -1000 I I #
-223 plane-surface $-1 249.40881547014823 -3.1662189431400045 10.667999999999999 -0.99503719020998949 0.099503719020996667 0 -99.50371902099667 -995.03719020998949 0 forward_v I I I I #
-224 coedge $-1 $182 $171 $279 $280 forward $21 $-1 #
-225 coedge $-1 $281 $282 $171 $226 reversed $201 $-1 #
-226 edge $-1 $230 -3.041924001098641 $283 -1.5707963267948966 $171 $284 forward 7 unknown #
-227 coedge $-1 $285 $172 $175 $233 forward $229 $-1 #
-228 coedge $-1 $172 $285 $281 $286 forward $229 $-1 #
-229 loop $-1 $-1 $172 $198 #
-230 vertex $-1 $286 $287 #
-231 straight-curve $-1 -7.1779944542858747 141.86778105685994 11.937999999999999 99.503719020999057 -995.03719020998926 0 I I #
-232 coedge $-1 $175 $174 $288 $289 reversed $150 $-1 #
-233 edge $-1 $176 0 $290 0.0012699999999999996 $227 $291 forward 7 unknown #
-234 point $-1 -6.4798095927075412 134.88593244107662 11.937999999999999 #
-235 coedge $-1 $192 $288 $178 $236 forward $252 $-1 #
-236 edge $-1 $237 -3.1415926535897931 $196 -1.5707963267948992 $235 $292 forward 7 unknown #
-237 vertex $-1 $179 $293 #
-238 straight-curve $-1 -6.5113234348741109 135.51778105685995 11.937999999999999 0 0 -1000 I I #
-239 face $-1 $263 $294 $3 $-1 $295 forward single #
-240 cone-surface $-1 -0.16132343487411099 135.51778105685995 11.937999999999999 0 0 -1 -6.3499999999999996 0 0 1 I I 0 1 1000 forward I I I I #
-241 coedge $-1 $296 $260 $182 $242 reversed $294 $-1 #
-242 edge $-1 $297 -1.5707963267948966 $243 -0.099668652491161427 $182 $298 forward 7 unknown #
-243 vertex $-1 $242 $299 #
-244 straight-curve $-1 252.85681808179527 -6.9762189431400117 11.937999999999999 99.503719020997238 995.03719020998938 0 I I #
-245 coedge $-1 $185 $184 $300 $301 reversed $186 $-1 #
-246 edge $-1 $302 -0.0012699999999999996 $187 0 $204 $303 forward 7 unknown #
-247 point $-1 267.04303322021673 134.88593244107659 11.937999999999999 #
-248 coedge $-1 $300 $192 $189 $249 forward $252 $-1 #
-249 edge $-1 $194 -1.5707963267948966 $250 0 $248 $304 forward 7 unknown #
-250 vertex $-1 $190 $305 #
-251 straight-curve $-1 267.07454706238332 135.51778105685997 11.937999999999999 0 0 -1000 I I #
-252 loop $-1 $275 $306 $268 #
-253 straight-curve $-1 267.74121808179501 141.86778105685997 10.667999999999999 -1000 -1.009590248698469e-013 0 I I #
-254 point $-1 260.72454706238329 141.86778105685997 10.667999999999999 #
-255 point $-1 -0.1613234348741277 141.86778105685994 10.667999999999999 #
-256 plane-surface $-1 -7.1779944542858747 141.86778105685994 11.937999999999999 0.99503719020998926 0.099503719020999054 0 -99.503719020999057 995.03719020998926 0 forward_v I I I I #
-257 face $-1 $145 $307 $3 $-1 $308 reversed single #
-258 cone-surface $-1 260.72454706238329 135.51778105685997 11.937999999999999 0 0 -1 -6.3500000000000227 0 0 1 I I 0 1 1000 forward I I I I #
-259 coedge $-1 $204 $203 $309 $310 forward $113 $-1 #
-260 coedge $-1 $241 $311 $203 $261 reversed $294 $-1 #
-261 edge $-1 $243 0 $312 0.0012699999999999996 $203 $313 forward 7 unknown #
-262 coedge $-1 $206 $205 $314 $315 reversed $207 $-1 #
-263 face $-1 $168 $207 $3 $-1 $316 reversed single #
-264 coedge $-1 $217 $314 $209 $265 forward $275 $-1 #
-265 edge $-1 $266 0 $221 0.23825440731278705 $264 $317 forward 7 unknown #
-266 vertex $-1 $265 $318 #
-267 straight-curve $-1 11.154408157361202 -3.1662189431400045 10.667999999999999 -0 -0 -1000 I I #
-268 face $-1 $-1 $252 $3 $-1 $319 reversed single #
-269 plane-surface $-1 11.154408157361202 -3.1662189431400045 10.667999999999999 0 1 0 0 0 1000 forward_v I I I I #
-270 coedge $-1 $314 $217 $213 $271 forward $275 $-1 #
-271 edge $-1 $219 0 $272 0.2664992073127867 $270 $320 forward 7 unknown #
-272 vertex $-1 $271 $321 #
-273 straight-curve $-1 -2.9679918426388139 138.05778105685994 10.667999999999999 -0 -0 -1000 I I #
-274 plane-surface $-1 263.53121547014791 138.05778105685994 10.667999999999999 0 -1 0 0 0 -1000 forward_v I I I I #
-275 loop $-1 $-1 $217 $268 #
-276 straight-curve $-1 249.40881547014823 -3.1662189431400045 10.667999999999999 99.50371902099667 995.03719020998938 0 I I #
-277 point $-1 263.53121547014791 138.05778105685994 10.667999999999999 #
-278 point $-1 249.40881547014823 -3.1662189431400045 10.667999999999999 #
-279 coedge $-1 $322 $323 $224 $280 reversed $307 $-1 #
-280 edge $-1 $283 0.0057466710194117622 $297 0.23940374151666935 $224 $324 forward 7 unknown #
-281 coedge $-1 $325 $225 $228 $286 reversed $201 $-1 #
-282 coedge $-1 $225 $325 $322 $326 reversed $201 $-1 #
-283 vertex $-1 $280 $327 #
-284 ellipse-curve $-1 13.453076565125901 -0.62621894314001603 11.937999999999999 0 0 1 6.3499999999999996 0 0 1 I I #
-285 coedge $-1 $228 $227 $306 $328 forward $229 $-1 #
-286 edge $-1 $329 -0.0012699999999999996 $230 0 $228 $330 forward 7 unknown #
-287 point $-1 7.1345904072924666 -1.2580675589232981 11.937999999999999 #
-288 coedge $-1 $235 $306 $232 $289 forward $252 $-1 #
-289 edge $-1 $290 3.0419240010986339 $237 3.1415926535897931 $288 $331 forward 7 unknown #
-290 vertex $-1 $328 $332 #
-291 straight-curve $-1 -6.4798095927075403 134.88593244107662 11.937999999999999 0 0 -1000 I I #
-292 ellipse-curve $-1 -0.16132343487411099 135.51778105685995 10.667999999999999 -0 -0 -1 6.3499999999999996 0 0 1 I I #
-293 point $-1 -6.5113234348741109 135.51778105685995 10.667999999999999 #
-294 loop $-1 $-1 $241 $239 #
-295 cone-surface $-1 247.1101470623835 -0.62621894314001181 11.937999999999999 0 0 -1 -6.3499999999999943 0 0 1 I I 0 1 1000 forward I I I I #
-296 coedge $-1 $311 $241 $323 $333 reversed $294 $-1 #
-297 vertex $-1 $242 $334 #
-298 ellipse-curve $-1 247.1101470623835 -0.62621894314001181 11.937999999999999 0 0 1 6.3499999999999943 0 0 1 I I #
-299 point $-1 253.42863322021691 -1.2580675589233485 11.937999999999999 #
-300 coedge $-1 $309 $248 $245 $301 forward $252 $-1 #
-301 edge $-1 $250 0 $302 0.099668652491168241 $300 $335 forward 7 unknown #
-302 vertex $-1 $246 $336 #
-303 straight-curve $-1 267.04303322021673 134.88593244107665 11.937999999999999 0 0 1000 I I #
-304 ellipse-curve $-1 260.72454706238329 135.51778105685997 10.667999999999999 -0 -0 -1 6.3500000000000227 0 0 1 I I #
-305 point $-1 267.07454706238332 135.51778105685997 10.667999999999999 #
-306 coedge $-1 $288 $337 $285 $328 reversed $252 $-1 #
-307 loop $-1 $-1 $279 $257 #
-308 plane-surface $-1 7.7064055457141389 -6.9762189431400161 11.937999999999999 -1.7690399314762436e-017 1 0 -1000 -1.7690399314762436e-014 0 forward_v I I I I #
-309 coedge $-1 $338 $300 $259 $310 reversed $252 $-1 #
-310 edge $-1 $312 0.0057466710194117674 $302 0.1425696976755999 $259 $339 forward 7 unknown #
-311 coedge $-1 $260 $296 $338 $340 reversed $294 $-1 #
-312 vertex $-1 $340 $341 #
-313 straight-curve $-1 253.42863322021691 -1.2580675589233441 11.937999999999999 0 0 -1000 I I #
-314 coedge $-1 $264 $270 $262 $315 forward $275 $-1 #
-315 edge $-1 $272 0 $266 0.14192836347171756 $314 $342 forward 7 unknown #
-316 plane-surface $-1 -2.9679918426388139 138.05778105685994 10.667999999999999 0.99503719020998915 0.099503719020999068 0 -99.503719020999071 995.03719020998915 0 forward_v I I I I #
-317 straight-curve $-1 11.154408157361202 -3.1662189431400045 10.667999999999999 1000 0 0 I I #
-318 point $-1 11.154408157361202 -3.1662189431400045 10.667999999999999 #
-319 plane-surface $-1 252.85681808179527 -6.9762189431400063 10.667999999999999 0 0 1 1000 0 0 forward_v I I I I #
-320 straight-curve $-1 263.53121547014791 138.05778105685994 10.667999999999999 -1000 0 0 I I #
-321 point $-1 -2.9679918426388139 138.05778105685994 10.667999999999999 #
-322 coedge $-1 $343 $279 $282 $326 forward $307 $-1 #
-323 coedge $-1 $279 $343 $296 $333 forward $307 $-1 #
-324 straight-curve $-1 7.7064055457141389 -6.9762189431400161 11.937999999999999 1000 1.7690399314762436e-014 0 I I #
-325 coedge $-1 $282 $281 $337 $344 reversed $201 $-1 #
-326 edge $-1 $283 0 $345 0.0012699999999999996 $322 $346 forward 7 unknown #
-327 point $-1 13.453076565125901 -6.9762189431400161 11.937999999999999 #
-328 edge $-1 $290 0.0070166710194117408 $329 0.1438396976755999 $285 $347 forward 7 unknown #
-329 vertex $-1 $328 $348 #
-330 straight-curve $-1 7.134590407292472 -1.2580675589233536 11.937999999999999 0 0 1000 I I #
-331 ellipse-curve $-1 -0.16132343487411099 135.51778105685995 10.667999999999999 -0 -0 -1 6.3499999999999996 0 0 1 I I #
-332 point $-1 -6.4798095927075412 134.88593244107662 10.667999999999999 #
-333 edge $-1 $349 -0.0012699999999999996 $297 0 $323 $350 forward 7 unknown #
-334 point $-1 247.1101470623835 -6.9762189431400117 11.937999999999999 #
-335 ellipse-curve $-1 260.72454706238329 135.51778105685997 10.667999999999999 -0 -0 -1 6.3500000000000227 0 0 1 I I #
-336 point $-1 267.04303322021673 134.88593244107659 10.667999999999999 #
-337 coedge $-1 $306 $351 $325 $344 forward $252 $-1 #
-338 coedge $-1 $351 $309 $311 $340 forward $252 $-1 #
-339 straight-curve $-1 252.85681808179527 -6.9762189431400117 10.667999999999999 99.503719020997238 995.03719020998938 0 I I #
-340 edge $-1 $312 0.099668652491160539 $349 1.5707963267948957 $338 $352 forward 7 unknown #
-341 point $-1 253.42863322021691 -1.2580675589233485 10.667999999999999 #
-342 straight-curve $-1 -2.9679918426388139 138.05778105685994 10.667999999999999 99.503719020999057 -995.03719020998915 0 I I #
-343 coedge $-1 $323 $322 $351 $353 forward $307 $-1 #
-344 edge $-1 $345 1.5707963267948966 $329 3.041924001098641 $337 $354 forward 7 unknown #
-345 vertex $-1 $353 $355 #
-346 straight-curve $-1 13.453076565125901 -6.9762189431400161 11.937999999999999 0 0 -1000 I I #
-347 straight-curve $-1 -7.1779944542858747 141.86778105685994 10.667999999999999 99.503719020999057 -995.03719020998926 0 I I #
-348 point $-1 7.1345904072924666 -1.2580675589232981 10.667999999999999 #
-349 vertex $-1 $340 $356 #
-350 straight-curve $-1 247.1101470623835 -6.9762189431400117 11.937999999999999 0 0 1000 I I #
-351 coedge $-1 $337 $338 $343 $353 reversed $252 $-1 #
-352 ellipse-curve $-1 247.1101470623835 -0.62621894314001181 10.667999999999999 -0 -0 -1 6.3499999999999943 -5.6378512969246231e-015 0 1 I I #
-353 edge $-1 $345 0.0057466710194117622 $349 0.23940374151666935 $343 $357 forward 7 unknown #
-354 ellipse-curve $-1 13.453076565125901 -0.62621894314001603 10.667999999999999 -0 -0 -1 6.3499999999999996 0 0 1 I I #
-355 point $-1 13.453076565125901 -6.9762189431400161 10.667999999999999 #
-356 point $-1 247.1101470623835 -6.9762189431400117 10.667999999999999 #
-357 straight-curve $-1 7.7064055457141389 -6.9762189431400161 10.667999999999999 1000 1.7690399314762436e-014 0 I I #
End-of-ACIS-data 