  0
SECTION
  2
HEADER
  9
$ACADVER
  1
AC1015
  9
$ACADMAINTVER
 70
     6
  9
$DWGCODEPAGE
  3
ANSI_1252
  9
$INSBASE
 10
0.0
 20
0.0
 30
0.0
  9
$EXTMIN
 10
-1.775262756376024
 20
-1.775262756376024
 30
-0.0015258207003583
  9
$EXTMAX
 10
5.655657442536293
 20
3.8
 30
0.0000000349246037
  9
$LIMMIN
 10
0.0
 20
0.0
  9
$LIMMAX
 10
5.0
 20
5.0
  9
$ORTHOMODE
 70
     1
  9
$REGENMODE
 70
     1
  9
$FILLMODE
 70
     1
  9
$QTEXTMODE
 70
     0
  9
$MIRRTEXT
 70
     1
  9
$LTSCALE
 40
2.419999999999999
  9
$ATTMODE
 70
     1
  9
$TEXTSIZE
 40
0.1
  9
$TRACEWID
 40
0.05
  9
$TEXTSTYLE
  7
STANDARD
  9
$CLAYER
  8
0
  9
$CELTYPE
  6
BYLAYER
  9
$CECOLOR
 62
   256
  9
$CELTSCALE
 40
1.0
  9
$DISPSILH
 70
     0
  9
$DIMSCALE
 40
1.0
  9
$DIMASZ
 40
0.1875
  9
$DIMEXO
 40
0.275
  9
$DIMDLI
 40
1.671999999999996
  9
$DIMRND
 40
0.0
  9
$DIMDLE
 40
0.0
  9
$DIMEXE
 40
0.792
  9
$DIMTP
 40
0.0
  9
$DIMTM
 40
0.0
  9
$DIMTXT
 40
0.7
  9
$DIMCEN
 40
0.396
  9
$DIMTSZ
 40
0.0
  9
$DIMTOL
 70
     0
  9
$DIMLIM
 70
     0
  9
$DIMTIH
 70
     1
  9
$DIMTOH
 70
     1
  9
$DIMSE1
 70
     0
  9
$DIMSE2
 70
     0
  9
$DIMTAD
 70
     0
  9
$DIMZIN
 70
     0
  9
$DIMBLK
  1

  9
$DIMASO
 70
     1
  9
$DIMSHO
 70
     1
  9
$DIMPOST
  1

  9
$DIMAPOST
  1

  9
$DIMALT
 70
     0
  9
$DIMALTD
 70
     2
  9
$DIMALTF
 40
25.4
  9
$DIMLFAC
 40
1.0
  9
$DIMTOFL
 70
     0
  9
$DIMTVP
 40
0.0
  9
$DIMTIX
 70
     0
  9
$DIMSOXD
 70
     0
  9
$DIMSAH
 70
     0
  9
$DIMBLK1
  1

  9
$DIMBLK2
  1

  9
$DIMSTYLE
  2
STANDARD
  9
$DIMCLRD
 70
     0
  9
$DIMCLRE
 70
     0
  9
$DIMCLRT
 70
     0
  9
$DIMTFAC
 40
1.0
  9
$DIMGAP
 40
0.09
  9
$DIMJUST
 70
     0
  9
$DIMSD1
 70
     0
  9
$DIMSD2
 70
     0
  9
$DIMTOLJ
 70
     1
  9
$DIMTZIN
 70
     0
  9
$DIMALTZ
 70
     0
  9
$DIMALTTZ
 70
     0
  9
$DIMUPT
 70
     0
  9
$DIMDEC
 70
     4
  9
$DIMTDEC
 70
     4
  9
$DIMALTU
 70
     2
  9
$DIMALTTD
 70
     2
  9
$DIMTXSTY
  7
STANDARD
  9
$DIMAUNIT
 70
     0
  9
$DIMADEC
 70
     0
  9
$DIMALTRND
 40
0.0
  9
$DIMAZIN
 70
     0
  9
$DIMDSEP
 70
    46
  9
$DIMATFIT
 70
     3
  9
$DIMFRAC
 70
     0
  9
$DIMLDRBLK
  1

  9
$DIMLUNIT
 70
     2
  9
$DIMLWD
 70
    -2
  9
$DIMLWE
 70
    -2
  9
$DIMTMOVE
 70
     0
  9
$LUNITS
 70
     2
  9
$LUPREC
 70
     4
  9
$SKETCHINC
 40
0.1
  9
$FILLETRAD
 40
0.0
  9
$AUNITS
 70
     0
  9
$AUPREC
 70
     0
  9
$MENU
  1
.
  9
$ELEVATION
 40
0.0
  9
$PELEVATION
 40
0.0
  9
$THICKNESS
 40
0.0
  9
$LIMCHECK
 70
     0
  9
$CHAMFERA
 40
0.0
  9
$CHAMFERB
 40
0.0
  9
$CHAMFERC
 40
0.0
  9
$CHAMFERD
 40
0.0
  9
$SKPOLY
 70
     0
  9
$TDCREATE
 40
2456720.902400753
  9
$TDUCREATE
 40
2456721.110734085
  9
$TDUPDATE
 40
2456729.362362453
  9
$TDUUPDATE
 40
2456729.570695787
  9
$TDINDWG
 40
0.6286680093
  9
$TDUSRTIMER
 40
0.6286678819
  9
$USRTIMER
 70
     1
  9
$ANGBASE
 50
0.0
  9
$ANGDIR
 70
     0
  9
$PDMODE
 70
     0
  9
$PDSIZE
 40
0.0
  9
$PLINEWID
 40
0.0
  9
$SPLFRAME
 70
     0
  9
$SPLINETYPE
 70
     6
  9
$SPLINESEGS
 70
     8
  9
$HANDSEED
  5
68D
  9
$SURFTAB1
 70
     6
  9
$SURFTAB2
 70
     6
  9
$SURFTYPE
 70
     6
  9
$SURFU
 70
     6
  9
$SURFV
 70
     6
  9
$UCSBASE
  2

  9
$UCSNAME
  2

  9
$UCSORG
 10
0.0
 20
0.0
 30
0.0
  9
$UCSXDIR
 10
1.0
 20
0.0
 30
0.0
  9
$UCSYDIR
 10
0.0
 20
1.0
 30
0.0
  9
$UCSORTHOREF
  2

  9
$UCSORTHOVIEW
 70
     0
  9
$UCSORGTOP
 10
0.0
 20
0.0
 30
0.0
  9
$UCSORGBOTTOM
 10
0.0
 20
0.0
 30
0.0
  9
$UCSORGLEFT
 10
0.0
 20
0.0
 30
0.0
  9
$UCSORGRIGHT
 10
0.0
 20
0.0
 30
0.0
  9
$UCSORGFRONT
 10
0.0
 20
0.0
 30
0.0
  9
$UCSORGBACK
 10
0.0
 20
0.0
 30
0.0
  9
$PUCSBASE
  2

  9
$PUCSNAME
  2

  9
$PUCSORG
 10
0.0
 20
0.0
 30
0.0
  9
$PUCSXDIR
 10
1.0
 20
0.0
 30
0.0
  9
$PUCSYDIR
 10
0.0
 20
1.0
 30
0.0
  9
$PUCSORTHOREF
  2

  9
$PUCSORTHOVIEW
 70
     0
  9
$PUCSORGTOP
 10
0.0
 20
0.0
 30
0.0
  9
$PUCSORGBOTTOM
 10
0.0
 20
0.0
 30
0.0
  9
$PUCSORGLEFT
 10
0.0
 20
0.0
 30
0.0
  9
$PUCSORGRIGHT
 10
0.0
 20
0.0
 30
0.0
  9
$PUCSORGFRONT
 10
0.0
 20
0.0
 30
0.0
  9
$PUCSORGBACK
 10
0.0
 20
0.0
 30
0.0
  9
$USERI1
 70
     0
  9
$USERI2
 70
     0
  9
$USERI3
 70
     0
  9
$USERI4
 70
     0
  9
$USERI5
 70
     0
  9
$USERR1
 40
0.0
  9
$USERR2
 40
0.0
  9
$USERR3
 40
0.0
  9
$USERR4
 40
0.0
  9
$USERR5
 40
0.0
  9
$WORLDVIEW
 70
     1
  9
$SHADEDGE
 70
     3
  9
$SHADEDIF
 70
    70
  9
$TILEMODE
 70
     1
  9
$MAXACTVP
 70
    64
  9
$PINSBASE
 10
0.0
 20
0.0
 30
0.0
  9
$PLIMCHECK
 70
     0
  9
$PEXTMIN
 10
1.000000000000000E+20
 20
1.000000000000000E+20
 30
1.000000000000000E+20
  9
$PEXTMAX
 10
-1.000000000000000E+20
 20
-1.000000000000000E+20
 30
-1.000000000000000E+20
  9
$PLIMMIN
 10
0.0
 20
0.0
  9
$PLIMMAX
 10
12.0
 20
9.0
  9
$UNITMODE
 70
     0
  9
$VISRETAIN
 70
     1
  9
$PLINEGEN
 70
     0
  9
$PSLTSCALE
 70
     1
  9
$TREEDEPTH
 70
  3020
  9
$CMLSTYLE
  2
STANDARD
  9
$CMLJUST
 70
     0
  9
$CMLSCALE
 40
1.0
  9
$PROXYGRAPHICS
 70
     1
  9
$MEASUREMENT
 70
     0
  9
$CELWEIGHT
370
    -1
  9
$ENDCAPS
280
     0
  9
$JOINSTYLE
280
     0
  9
$LWDISPLAY
290
     0
  9
$INSUNITS
 70
     0
  9
$HYPERLINKBASE
  1

  9
$STYLESHEET
  1

  9
$XEDIT
290
     1
  9
$CEPSNTYPE
380
     0
  9
$PSTYLEMODE
290
     1
  9
$FINGERPRINTGUID
  2
{A9A21903-B313-4053-BB4A-907512A12DE5}
  9
$VERSIONGUID
  2
{C414DDE4-E265-4D1F-80AD-38CF151E5052}
  9
$EXTNAMES
290
     1
  9
$PSVPSCALE
 40
0.0
  9
$OLESTARTUP
290
     0
  0
ENDSEC
  0
SECTION
  2
CLASSES
  0
CLASS
  1
ACDBDICTIONARYWDFLT
  2
AcDbDictionaryWithDefault
  3
AutoCAD 2000
 90
        0
280
     0
281
     0
  0
CLASS
  1
ACDBPLACEHOLDER
  2
AcDbPlaceHolder
  3
AutoCAD 2000
 90
        0
280
     0
281
     0
  0
CLASS
  1
LAYOUT
  2
AcDbLayout
  3
AutoCAD 2000
 90
        0
280
     0
281
     0
  0
ENDSEC
  0
SECTION
  2
TABLES
  0
TABLE
  2
VPORT
  5
8
330
0
100
AcDbSymbolTable
 70
     2
  0
VPORT
  5
68C
330
8
100
AcDbSymbolTableRecord
100
AcDbViewportTableRecord
  2
*Active
 70
     0
 10
0.0
 20
0.0
 11
1.0
 21
1.0
 12
3.311519351085081
 22
2.174500262732541
 13
0.0
 23
0.0
 14
0.1
 24
0.1
 15
0.0
 25
0.0
 16
0.0
 26
0.0
 36
1.0
 17
0.0
 27
0.0
 37
0.0
 40
4.18244905068153
 41
2.306666666666666
 42
50.0
 43
0.0
 44
0.0
 50
0.0
 51
0.0
 71
     0
 72
   500
 73
     1
 74
     0
 75
     0
 76
     1
 77
     0
 78
     0
281
     0
 65
     1
110
0.0
120
0.0
130
0.0
111
1.0
121
0.0
131
0.0
112
0.0
122
1.0
132
0.0
 79
     0
146
0.0
  0
ENDTAB
  0
TABLE
  2
LTYPE
  5
5
330
0
100
AcDbSymbolTable
 70
     4
  0
LTYPE
  5
14
330
5
100
AcDbSymbolTableRecord
100
AcDbLinetypeTableRecord
  2
BYBLOCK
 70
     0
  3

 72
    65
 73
     0
 40
0.0
  0
LTYPE
  5
15
330
5
100
AcDbSymbolTableRecord
100
AcDbLinetypeTableRecord
  2
BYLAYER
 70
     0
  3

 72
    65
 73
     0
 40
0.0
  0
LTYPE
  5
16
330
5
100
AcDbSymbolTableRecord
100
AcDbLinetypeTableRecord
  2
CONTINUOUS
 70
     0
  3
Solid line
 72
    65
 73
     0
 40
0.0
  0
LTYPE
  5
1F5
330
5
100
AcDbSymbolTableRecord
100
AcDbLinetypeTableRecord
  2
CENTER
 70
     0
  3
____ _ ____ _ ____ _ ____ _ ____ _ ____ _ ____
 72
    65
 73
     4
 40
0.6
 49
0.375
 74
     0
 49
-0.075
 74
     0
 49
0.075
 74
     0
 49
-0.075
 74
     0
  0
LTYPE
  5
1F6
330
5
100
AcDbSymbolTableRecord
100
AcDbLinetypeTableRecord
  2
HIDDEN
 70
     0
  3
- - - - - - - - - - - - - - - - - - - -
 72
    65
 73
     2
 40
0.2
 49
0.1
 74
     0
 49
-0.1
 74
     0
  0
LTYPE
  5
1F7
330
5
100
AcDbSymbolTableRecord
100
AcDbLinetypeTableRecord
  2
PHANTOM
 70
     0
  3
_____ _ _ _____ _ _ _____ _ _ _____
 72
    65
 73
     6
 40
0.8
 49
0.45
 74
     0
 49
-0.05
 74
     0
 49
0.1
 74
     0
 49
-0.05
 74
     0
 49
0.1
 74
     0
 49
-0.05
 74
     0
  0
ENDTAB
  0
TABLE
  2
LAYER
  5
2
330
0
100
AcDbSymbolTable
 70
     4
  0
LAYER
  5
10
330
2
100
AcDbSymbolTableRecord
100
AcDbLayerTableRecord
  2
0
 70
     0
 62
     7
  6
CONTINUOUS
370
    -3
390
28B
  0
LAYER
  5
296
330
2
100
AcDbSymbolTableRecord
100
AcDbLayerTableRecord
  2
outline
 70
     0
 62
     3
  6
CONTINUOUS
370
    -3
390
28B
  0
LAYER
  5
297
330
2
100
AcDbSymbolTableRecord
100
AcDbLayerTableRecord
  2
holes
 70
     0
 62
     1
  6
CONTINUOUS
370
    -3
390
28B
  0
LAYER
  5
67B
330
2
100
AcDbSymbolTableRecord
100
AcDbLayerTableRecord
  2
etch
 70
     0
 62
     4
  6
CONTINUOUS
370
    -3
390
28B
  0
ENDTAB
  0
TABLE
  2
STYLE
  5
3
330
0
100
AcDbSymbolTable
 70
     1
  0
STYLE
  5
11
330
3
100
AcDbSymbolTableRecord
100
AcDbTextStyleTableRecord
  2
STANDARD
 70
     0
 40
0.0
 41
0.8
 50
0.0
 71
     0
 42
0.1
  3
txt
  4

  0
ENDTAB
  0
TABLE
  2
VIEW
  5
6
330
0
100
AcDbSymbolTable
 70
     0
  0
ENDTAB
  0
TABLE
  2
UCS
  5
7
330
0
100
AcDbSymbolTable
 70
     0
  0
ENDTAB
  0
TABLE
  2
APPID
  5
9
330
0
100
AcDbSymbolTable
 70
     1
  0
APPID
  5
208
330
9
100
AcDbSymbolTableRecord
100
AcDbRegAppTableRecord
  2
ACAD
 70
     0
  0
ENDTAB
  0
TABLE
  2
DIMSTYLE
  5
A
330
0
100
AcDbSymbolTable
 70
     1
100
AcDbDimStyleTable
 71
     0
  0
DIMSTYLE
105
209
330
A
100
AcDbSymbolTableRecord
100
AcDbDimStyleTableRecord
  2
STANDARD
 70
     0
 41
0.1875
 47
0.01
 48
0.01
 78
     4
140
0.7
271
     2
272
     2
284
     4
340
11
  0
ENDTAB
  0
TABLE
  2
BLOCK_RECORD
  5
1
330
0
100
AcDbSymbolTable
 70
     0
  0
BLOCK_RECORD
  5
1B
330
1
100
AcDbSymbolTableRecord
100
AcDbBlockTableRecord
  2
*MODEL_SPACE
340
28E
  0
BLOCK_RECORD
  5
1C
330
1
100
AcDbSymbolTableRecord
100
AcDbBlockTableRecord
  2
*PAPER_SPACE
340
28F
  0
ENDTAB
  0
ENDSEC
  0
SECTION
  2
BLOCKS
  0
BLOCK
  5
1E
330
1B
100
AcDbEntity
  8
0
100
AcDbBlockBegin
  2
*MODEL_SPACE
 70
     0
 10
0.0
 20
0.0
 30
0.0
  3
*MODEL_SPACE
  1

  0
ENDBLK
  5
1F
330
1B
100
AcDbEntity
  8
0
100
AcDbBlockEnd
  0
BLOCK
  5
20
330
1C
100
AcDbEntity
 67
     1
  8
0
100
AcDbBlockBegin
  2
*PAPER_SPACE
 70
     0
 10
0.0
 20
0.0
 30
0.0
  3
*PAPER_SPACE
  1

  0
ENDBLK
  5
21
330
1C
100
AcDbEntity
 67
     1
  8
0
100
AcDbBlockEnd
  0
ENDSEC
  0
SECTION
  2
ENTITIES
  0
CIRCLE
  5
298
330
1B
100
AcDbEntity
  8
holes
100
AcDbCircle
 10
1.9
 20
1.9
 30
0.0
 40
0.125
  0
LWPOLYLINE
  5
66B
330
1B
100
AcDbEntity
  8
0
  6
Continuous
100
AcDbPolyline
 90
      980
 70
     1
 43
0.0
 10
1.321871146167888
 20
3.576624370015596
 42
-0.3202231353338198
 10
1.335239057636803
 20
3.572667795552311
 10
1.346915775250027
 20
3.557722278492447
 10
1.359992802350911
 20
3.561971262172468
 10
1.373069829408026
 20
3.566220245838194
 10
1.373731737938817
 20
3.585174825512863
 42
-0.3202231353338201
 10
1.38222098938977
 20
3.596233222812089
 42
-0.0022745356542214
 10
1.397674751376533
 20
3.600873773787694
 42
-0.3202231353338197
 10
1.410851691206057
 20
3.596321434251426
 10
1.421846123054235
 20
3.580867092377976
 10
1.435100612390952
 20
3.584525099011797
 10
1.448355101683303
 20
3.588183105633296
 10
1.449866737717718
 20
3.607088902893555
 42
-0.3202231353338202
 10
1.458843574176129
 20
3.617755296296396
 42
-0.0022745356542214
 10
1.474489972785136
 20
3.621697844136144
 42
-0.3202231353338197
 10
1.487449404372066
 20
3.616558907332875
 10
1.497739409132629
 20
3.600626863633673
 10
1.511144667927611
 20
3.603686526482745
 10
1.524549926677712
 20
3.606746189321499
 10
1.526908245981952
 20
3.625565130407701
 42
-0.3202231353338201
 10
1.536354589293847
 20
3.635818039217345
 42
-0.0022745356542214
 10
1.55216211476057
 20
3.639054644154577
 42
-0.3202231353338196
 10
1.564877939534367
 20
3.633339459219128
 10
1.57444279450714
 20
3.616961798709906
 10
1.587971826353167
 20
3.619416956020442
 10
1.601500858153903
 20
3.621872113322679
 10
1.604701111386731
 20
3.640566299391951
 42
-0.3202231353338202
 10
1.61459793787383
 20
3.650385075614542
 42
-0.0022745356542214
 10
1.630534755945678
 20
3.652909219557644
 42
-0.32022313533382
 10
1.642981365927509
 20
3.646629296111887
 10
1.651801808767496
 20
3.629839001221326
 10
1.665427367994921
 20
3.631684708633239
 10
1.679052927176721
 20
3.633530416038899
 10
1.683088669454038
 20
3.652062199488355
 42
-0.3202231353338202
 10
1.693416048224886
 20
3.661427069415301
 42
-0.0022745356542214
 10
1.709450064271179
 20
3.663233669074289
 42
-0.32022313533382
 10
1.721602393644962
 20
3.656401654048293
 10
1.729660661154133
 20
3.639232538195804
 10
1.743355307699987
 20
3.640465078700001
 10
1.757049954199987
 20
3.641697619199999
 10
1.761913058073924
 20
3.660029679484045
 42
-0.3202231353338201
 10
1.772650191162075
 20
3.668921783513601
 42
-0.0022745356542215
 10
1.788749114808349
 20
3.670007200637191
 42
-0.32022313533382
 10
1.80058269039999
 20
3.662636852799996
 10
1.8078625543
 20
3.645123492299999
 10
1.821598708968659
 20
3.64574038372393
 10
1.835334863591326
 20
3.64635727514573
 10
1.841015535417883
 20
3.664452693934629
 42
-0.3202231353338202
 10
1.85214079966622
 20
3.672854124552666
 42
-0.0022745356542215
 10
1.868272209822732
 20
3.673216173255225
 42
-0.32022313533382
 10
1.879763200385836
 20
3.665322335506511
 10
1.886249999999608
 20
3.647499999936324
 10
1.900000000003624
 20
3.647499999942767
 10
1.91374999996159
 20
3.647499999949135
 10
1.9202367996237
 20
3.665322335477631
 42
-0.3202231353338202
 10
1.93172779023061
 20
3.673216173320975
 42
-0.0022745356542214
 10
1.947859200384119
 20
3.672854124484591
 42
-0.3202231353338199
 10
1.958984464592939
 20
3.664452693963055
 10
1.964665136369335
 20
3.646357275134674
 10
1.978401291038574
 20
3.645740383723611
 10
1.992137445661813
 20
3.645123492314541
 10
1.999417309608239
 20
3.662636852770721
 42
-0.3202231353338202
 10
2.011250885247889
 20
3.670007200700484
 42
-0.0022745356542214
 10
2.027349808885159
 20
3.668921783443336
 42
-0.3202231353338198
 10
2.038086941938157
 20
3.660029679511956
 10
2.042950045760218
 20
3.641697619190717
 10
2.056644692307225
 20
3.640465078699353
 10
2.070339338808365
 20
3.639232538212042
 10
2.078397606361942
 20
3.656401654018678
 42
-0.3202231353338202
 10
2.090549935787839
 20
3.663233669134994
 42
-0.0022745356542214
 10
2.106583951819148
 20
3.661427069342981
 42
-0.3202231353338198
 10
2.116911330559286
 20
3.652062199515699
 10
2.120947072783108
 20
3.633530416031414
 10
2.134572632012261
 20
3.631684708632262
 10
2.148198191195773
 20
3.629839001239224
 10
2.157018634078062
 20
3.646629296081984
 42
-0.3202231353338202
 10
2.169465244116006
 20
3.652909219615639
 42
-0.0022745356542214
 10
2.185402062166915
 20
3.650385075540326
 42
-0.3202231353338198
 10
2.195298888627807
 20
3.640566299418664
 10
2.198499141805635
 20
3.621872113317004
 10
2.21202817365396
 20
3.61941695601914
 10
2.225557205456971
 20
3.616961798729436
 10
2.235122060469864
 20
3.633339459189008
 42
-0.3202231353338202
 10
2.247837885303662
 20
3.639054644209738
 42
-0.0022745356542214
 10
2.26364541074353
 20
3.635818039141371
 42
-0.3202231353338197
 10
2.273091754033773
 20
3.625565130433733
 10
2.275450073281609
 20
3.606746189317642
 10
2.288855332079455
 20
3.603686526481136
 10
2.302260590832391
 20
3.600626863654801
 10
2.312550595630801
 20
3.616558907302595
 42
-0.3202231353338202
 10
2.325510027281497
 20
3.621697844188377
 42
-0.0022745356542214
 10
2.341156425857799
 20
3.617755296218819
 42
-0.3202231353338201
 10
2.350133262299151
 20
3.607088902918861
 10
2.351644898275884
 20
3.588183105631271
 10
2.364899387616029
 20
3.584525099009871
 10
2.378153876911772
 20
3.580867092400654
 10
2.389148308795453
 20
3.596321434221051
 42
-0.3202231353338202
 10
2.402325248692377
 20
3.600873773836888
 42
-0.0022745356542214
 10
2.417779010640638
 20
3.596233222733071
 42
-0.32022313533382
 10
2.426268262079174
 20
3.585174825537388
 10
2.426930170551115
 20
3.566220245837997
 10
2.440007197655978
 20
3.561971262170229
 10
2.453084224717029
 20
3.557722278516623
 10
2.464760942363332
 20
3.572667795521895
 42
-0.3202231353338202
 10
2.478128853903152
 20
3.576624370061649
 42
-0.0022745356542214
 10
2.493358857403441
 20
3.571295161275921
 42
-0.32022313533382
 10
2.501343427616538
 20
3.559867030324776
 10
2.501154275588112
 20
3.540901840214581
 10
2.514027505065426
 20
3.53607043638808
 10
2.526900734499611
 20
3.531239032577696
 10
2.539236222553176
 20
3.545645626485595
 42
-0.3202231353338202
 10
2.552768184541088
 20
3.548998467934686
 42
-0.0022745356542214
 10
2.567743758393204
 20
3.542991333784311
 42
-0.32022313533382
 10
2.575207567519046
 20
3.531216483812558
 10
2.574167735917266
 20
3.512278876660501
 10
2.586811242796068
 20
3.506874782479607
 10
2.599454749632505
 20
3.501470688316744
 10
2.612424166062018
 20
3.515309346164394
 42
-0.3202231353338202
 10
2.626092926927454
 20
3.51805170234635
 42
-0.0022745356542214
 10
2.640783912318644
 20
3.511378740400065
 42
-0.32022313533382
 10
2.647711929238964
 20
3.499280884388524
 10
2.6458235121463
 20
3.480408998015145
 10
2.658211834086364
 20
3.474443096606341
 10
2.670600155984917
 20
3.468477195217451
 10
2.6841773821117
 20
3.481720047789634
 42
-0.3202231353338202
 10
2.697955414789346
 20
3.483846395964069
 42
-0.0022745356542214
 10
2.712332226030147
 20
3.476521044679183
 42
-0.32022313533382
 10
2.718710498640869
 20
3.464124546099834
 10
2.715977299078018
 20
3.445356385972767
 10
2.728085487647631
 20
3.438840691867534
 10
2.740193676176664
 20
3.432324997784059
 10
2.754351369274198
 20
3.444945375738091
 42
-0.3202231353338202
 10
2.768210926639854
 20
3.446451433722751
 42
-0.0022745356542214
 10
2.782244610745737
 20
3.438488445381873
 42
-0.32022313533382
 10
2.788060294054657
 20
3.425818269133107
 10
2.784487816321801
 20
3.407191631829129
 10
2.796291487240575
 20
3.400139266768272
 10
2.808095158119785
 20
3.393086901730969
 10
2.82280480647831
 20
3.405059389305203
 42
-0.3202231353338202
 10
2.836717977227915
 20
3.40594212409975
 42
-0.0022745356542214
 10
2.850380272226724
 20
3.397357535101655
 42
-0.32022313533382
 10
2.855621654221613
 20
3.384439197232256
 10
2.851217092813479
 20
3.365991594320016
 10
2.862692475059043
 20
3.358416760828218
 10
2.874167857266142
 20
3.350841927361721
 10
2.889399837611462
 20
3.362142413559509
 42
-0.3202231353338202
 10
2.903338602470716
 20
3.362400047453539
 42
-0.0022745356542214
 10
2.916601994318542
 20
3.353211146018013
 42
-0.32022313533382
 10
2.921258519553616
 20
3.340070662341249
 10
2.916030744670701
 20
3.321839244837958
 10
2.927154728350386
 20
3.313757197621788
 10
2.938278711992778
 20
3.305675150432625
 10
2.954002349143588
 20
3.316280877578668
 42
-0.3202231353338202
 10
2.967938637295086
 20
3.315912891731797
 42
-0.0022745356542214
 10
2.980776415285868
 20
3.306138183083455
 42
-0.32022313533382
 10
2.984838706138999
 20
3.29280201678467
 10
2.978798245824196
 20
3.274823500338899
 10
2.989548428715286
 20
3.266250515565877
 10
3.000298611570327
 20
3.257677530821508
 10
3.016482240213948
 20
3.267567140392772
 42
-0.3202231353338202
 10
3.030387985828026
 20
3.266574275879529
 42
-0.0022745356542214
 10
3.042774296385383
 20
3.256233444980738
 42
-0.32022313533382
 10
3.046234171943416
 20
3.242728453324045
 10
3.03939319087991
 20
3.225039044275284
 10
3.04974792354472
 20
3.215992386795825
 10
3.060102656174804
 20
3.206945729346609
 10
3.076713684636909
 20
3.216099304985546
 42
-0.3202231353338202
 10
3.090560883392511
 20
3.214483561302932
 42
-0.0022745356542214
 10
3.102470782135386
 20
3.203597433210943
 42
-0.32022313533382
 10
3.105321274669391
 20
3.189950813452264
 10
3.097693549682636
 20
3.172586135916182
 10
3.10763197906761
 20
3.163084024494496
 10
3.11757040841926
 20
3.15358191310458
 10
3.134575384299159
 20
3.16198102072804
 42
-0.3202231353338202
 10
3.148336149780817
 20
3.159745651768799
 42
-0.0022745356542214
 10
3.159745651758134
 20
3.148336149696829
 42
-0.32022313533382
 10
3.161981020755503
 20
3.13457538431223
 10
3.153581913068504
 20
3.11757040843845
 10
3.163084024499501
 20
3.107631979062376
 10
3.172586135898626
 20
3.097693549719531
 10
3.189950813437975
 20
3.105321274642539
 42
-0.3202231353338202
 10
3.203597433295326
 20
3.102470782142266
 42
-0.0022745356542214
 10
3.214483561288508
 20
3.090560883309083
 42
-0.32022313533382
 10
3.216099305013569
 20
3.076713684648732
 10
3.206945729311433
 20
3.060102656195598
 10
3.215992386800591
 20
3.049747923539263
 10
3.225039044259401
 20
3.039393190917559
 10
3.242728453308574
 20
3.046234171917232
 42
-0.3202231353338201
 10
3.256233445065344
 20
3.042774296388474
 42
-0.0022745356542214
 10
3.266574275861378
 20
3.030387985745326
 42
-0.32022313533382
 10
3.26756714042129
 20
3.0164822402245
 10
3.257677530787299
 20
3.000298611592674
 10
3.266250515570393
 20
2.989548428709619
 10
3.27482350032472
 20
2.978798245862521
 10
3.292802016768034
 20
2.984838706113544
 42
-0.3202231353338202
 10
3.306138183168118
 20
2.980776415285168
 42
-0.0022745356542214
 10
3.315912891709956
 20
2.967938637213288
 42
-0.32022313533382
 10
3.316280877607636
 20
2.954002349152853
 10
3.305675150399456
 20
2.938278712016641
 10
3.313757197626044
 20
2.927154728344527
 10
3.321839244825513
 20
2.916030744709621
 10
3.340070662323478
 20
2.921258519528924
 42
-0.3202231353338201
 10
3.353211146102556
 20
2.916601994314041
 42
-0.0022745356542214
 10
3.362400047428041
 20
2.903338602389981
 42
-0.32022313533382
 10
3.362142413588861
 20
2.889399837619412
 10
3.350841927329652
 20
2.874167857291466
 10
3.358416760832204
 20
2.862692475052997
 10
3.365991594309333
 20
2.851217092852918
 10
3.384439197213401
 20
2.855621654197749
 42
-0.3202231353338202
 10
3.397357535185913
 20
2.850380272218428
 42
-0.0022745356542214
 10
3.405942124070656
 20
2.836717977148401
 42
-0.32022313533382
 10
3.405059389334881
 20
2.82280480648494
 10
3.393086901700068
 20
2.808095158146523
 10
3.400139266771985
 20
2.796291487234358
 10
3.407191631820224
 20
2.784487816361684
 10
3.425818269113201
 20
2.788060294031664
 42
-0.3202231353338202
 10
3.438488445465671
 20
2.782244610733679
 42
-0.0022745356542214
 10
3.446451433690123
 20
2.768210926561734
 42
-0.32022313533382
 10
3.444945375768037
 20
2.754351369279495
 10
3.432324997754389
 20
2.740193676204766
 10
3.438840691870966
 20
2.728085487641253
 10
3.445356385965658
 20
2.715977299118256
 10
3.464124546078919
 20
2.718710498618788
 42
-0.3202231353338202
 10
3.476521044762354
 20
2.712332226014341
 42
-0.0022745356542214
 10
3.483846395927964
 20
2.697955414712764
 42
-0.32022313533382
 10
3.48172004781979
 20
2.684177382115647
 10
3.468477195189071
 20
2.670600156014314
 10
3.474443096609481
 20
2.658211834079838
 10
3.480408998009855
 20
2.645823512186814
 10
3.499280884366643
 20
2.647711929217847
 42
-0.3202231353338202
 10
3.511378740482451
 20
2.640783912299115
 42
-0.0022745356542214
 10
3.518051702306854
 20
2.626092926852566
 42
-0.32022313533382
 10
3.5153093461947
 20
2.612424166064608
 10
3.501470688289716
 20
2.599454749663147
 10
3.506874782482454
 20
2.586811242789407
 10
3.512278876657033
 20
2.57416773595798
 10
3.53121648378975
 20
2.575207567498927
 42
-0.3202231353338202
 10
3.542991333865734
 20
2.567743758369994
 42
-0.0022745356542214
 10
3.548998467891861
 20
2.552768184468042
 42
-0.32022313533382
 10
3.545645626515981
 20
2.539236222554395
 10
3.531239032552069
 20
2.526900734531432
 10
3.536070436390625
 20
2.514027505058651
 10
3.540901840212941
 20
2.501154275628943
 10
3.559867030301083
 20
2.501343427597467
 42
-0.3202231353338201
 10
3.57129516135622
 20
2.493358857376618
 42
-0.0022745356542214
 10
3.576624370015596
 20
2.478128853832112
 42
-0.32022313533382
 10
3.572667795552307
 20
2.464760942363197
 10
3.557722278492447
 20
2.453084224749974
 10
3.561971262172468
 20
2.440007197649089
 10
3.566220245838194
 20
2.426930170591978
 10
3.585174825512863
 20
2.426268262061187
 42
-0.3202231353338202
 10
3.596233222812089
 20
2.417779010610227
 42
-0.0022745356542214
 10
3.600873773787694
 20
2.402325248623468
 42
-0.32022313533382
 10
3.596321434251426
 20
2.389148308793944
 10
3.58086709237798
 20
2.378153876945768
 10
3.584525099011797
 20
2.364899387609048
 10
3.588183105633296
 20
2.351644898316694
 10
3.607088902893555
 20
2.350133262282283
 42
-0.3202231353338202
 10
3.617755296296396
 20
2.341156425823874
 42
-0.0022745356542214
 10
3.621697844136144
 20
2.325510027214866
 42
-0.32022313533382
 10
3.616558907332875
 20
2.312550595627931
 10
3.600626863633673
 20
2.302260590867371
 10
3.603686526482745
 20
2.288855332072389
 10
3.606746189321499
 20
2.275450073322288
 10
3.625565130407701
 20
2.273091754018052
 42
-0.3202231353338202
 10
3.635818039217345
 20
2.263645410706155
 42
-0.0022745356542214
 10
3.639054644154575
 20
2.247837885239436
 42
-0.32022313533382
 10
3.633339459219128
 20
2.235122060465633
 10
3.616961798709903
 20
2.22555720549286
 10
3.619416956020439
 20
2.212028173646837
 10
3.621872113322679
 20
2.198499141846101
 10
3.640566299391946
 20
2.195298888613272
 42
-0.3202231353338202
 10
3.650385075614542
 20
2.185402062126174
 42
-0.0022745356542214
 10
3.65290921955764
 20
2.169465244054324
 42
-0.32022313533382
 10
3.646629296111887
 20
2.157018634072495
 10
3.629839001221326
 20
2.148198191232504
 10
3.631684708633234
 20
2.13457263200508
 10
3.633530416038899
 20
2.120947072823279
 10
3.652062199488361
 20
2.116911330545969
 42
-0.3202231353338202
 10
3.661427069415301
 20
2.106583951775119
 42
-0.0022745356542214
 10
3.663233669074293
 20
2.090549935728822
 42
-0.32022313533382
 10
3.656401654048293
 20
2.078397606355041
 10
3.639232538195804
 20
2.070339338845867
 10
3.640465078725205
 20
2.05664469231983
 10
3.641697619199999
 20
2.042950045800014
 10
3.660029679500001
 20
2.038086941900003
 42
-0.3202231353338202
 10
3.668921783499096
 20
2.027349808838329
 42
-0.0022745356542214
 10
3.670007200700651
 20
2.011250885245241
 42
-0.32022313533382
 10
3.662636852721752
 20
1.999417309554347
 10
3.645123492299999
 20
1.992137445700001
 10
3.645740383749997
 20
1.978401291050007
 10
3.64635727514573
 20
1.964665136408671
 10
3.664452693949394
 20
1.958984464555358
 42
-0.3202231353338202
 10
3.672854124538196
 20
1.947859200334838
 42
-0.0022745356542214
 10
3.673216173321021
 20
1.931727790227954
 42
-0.32022313533382
 10
3.665322335426291
 20
1.920236799572057
 10
3.647499999936324
 20
1.913750000000389
 10
3.647499999969641
 20
1.900000000013859
 10
3.647499999949138
 20
1.886250000038414
 10
3.665322335491184
 20
1.879763200348902
 42
-0.32022313533382
 10
3.673216173306565
 20
1.868272209771097
 42
-0.0022745356542214
 10
3.672854124552598
 20
1.852140799663567
 42
-0.32022313533382
 10
3.664452693881033
 20
1.8410155353686
 10
3.646357275134674
 20
1.835334863630661
 10
3.64574038375124
 20
1.82159870897768
 10
3.645123492314537
 20
1.807862554338191
 10
3.662636852783029
 20
1.800582690363788
 42
-0.32022313533382
 10
3.670007200686162
 20
1.788749114754465
 42
-0.0022745356542214
 10
3.668921783513413
 20
1.772650191159426
 42
-0.32022313533382
 10
3.660029679428289
 20
1.761913058027096
 10
3.641697619190717
 20
1.757049954239784
 10
3.640465078727684
 20
1.743355307707778
 10
3.63923253821204
 20
1.729660661191632
 10
3.656401654029716
 20
1.721602393609549
 42
-0.32022313533382
 10
3.663233669120794
 20
1.709450064215145
 42
-0.0022745356542214
 10
3.661427069414992
 20
1.693416048222248
 42
-0.32022313533382
 10
3.652062199430558
 20
1.68308866940975
 10
3.633530416031414
 20
1.679052927216888
 10
3.631684708661245
 20
1.665427368001458
 10
3.629839001239227
 20
1.651801808804228
 10
3.646629296091744
 20
1.64298136589297
 42
-0.32022313533382
 10
3.652909219601588
 20
1.630534755887618
 42
-0.0022745356542216
 10
3.650385075614119
 20
1.614597937871208
 42
-0.32022313533382
 10
3.640566299332223
 20
1.604701111345088
 10
3.621872113317004
 20
1.601500858194368
 10
3.619416956048711
 20
1.587971826358439
 10
3.616961798729436
 20
1.57444279454303
 10
3.633339459197452
 20
1.564877939500759
 42
-0.32022313533382
 10
3.639054644195868
 20
1.552162114700588
 42
-0.0022745356542214
 10
3.635818039216801
 20
1.536354589291248
 42
-0.32022313533382
 10
3.62556513034616
 20
1.526908245943028
 10
3.606746189317644
 20
1.524549926718391
 10
3.60368652651122
 20
1.511144667931608
 10
3.600626863654796
 20
1.497739409167609
 10
3.616558907309711
 20
1.487449404339477
 42
-0.32022313533382
 10
3.621697844174705
 20
1.474489972723374
 42
-0.0022745356542214
 10
3.617755296295731
 20
1.458843574173565
 42
-0.32022313533382
 10
3.607088902830329
 20
1.449866737681605
 10
3.588183105631268
 20
1.44835510172412
 10
3.584525099040425
 20
1.43510061239367
 10
3.580867092400654
 20
1.421846123088228
 10
3.596321434226828
 20
1.410851691174533
 42
-0.32022313533382
 10
3.600873773823452
 20
1.397674751313095
 42
-0.0022745356542216
 10
3.596233222811319
 20
1.382220989387233
 42
-0.32022313533382
 10
3.585174825448087
 20
1.373731737905567
 10
3.566220245837997
 20
1.373069829448885
 10
3.561971262201192
 20
1.359992802352343
 10
3.557722278516623
 20
1.346915775282971
 10
3.572667795526323
 20
1.33523905760642
 42
-0.32022313533382
 10
3.576624370048465
 20
1.321871146102912
 42
-0.0022745356542214
 10
3.571295161355334
 20
1.306641142620888
 42
-0.32022313533382
 10
3.559867030234874
 20
1.298656572372225
 10
3.540901840214581
 20
1.298845724411889
 10
3.536070436419388
 20
1.285972494941495
 10
3.531239032577696
 20
1.27309926550039
 10
3.545645626488655
 20
1.260763777416413
 42
-0.3202231353338202
 10
3.548998467921789
 20
1.24723181546557
 42
-0.0022745356542216
 10
3.542991333864735
 20
1.23225624162754
 42
-0.32022313533382
 10
3.531216483722248
 20
1.224792432473764
 10
3.512278876660504
 20
1.225832264082735
 10
3.506874782511191
 20
1.213188757209442
 10
3.501470688316744
 20
1.200545250367495
 10
3.51530934616609
 20
1.187575833907457
 42
-0.3202231353338202
 10
3.518051702333769
 20
1.173907073079776
 42
-0.0022745356542214
 10
3.511378740481341
 20
1.159216087698469
 42
-0.32022313533382
 10
3.499280884297979
 20
1.152288070757906
 10
3.480408998015145
 20
1.154176487853705
 10
3.474443096638134
 20
1.141788165917722
 10
3.468477195217451
 20
1.129399844015085
 10
3.481720047789954
 20
1.115822617857729
 42
-0.32022313533382
 10
3.483846395951819
 20
1.102044585218439
 42
-0.0022745356542214
 10
3.47652104476114
 20
1.0876677739833
 42
-0.32022313533382
 10
3.464124546009243
 20
1.081289501360066
 10
3.445356385972763
 20
1.084022700921983
 10
3.438840691899479
 20
1.07191451235502
 10
3.432324997784059
 20
1.059806323823333
 10
3.444945375737044
 20
1.045648630695249
 42
-0.32022313533382
 10
3.44645143371087
 20
1.031789073368468
 42
-0.0022745356542216
 10
3.438488445464353
 20
1.017755389264016
 42
-0.32022313533382
 10
3.425818269042649
 20
1.01193970595034
 10
3.407191631829134
 20
1.015512183678199
 10
3.400139266800311
 20
1.003708512760646
 10
3.393086901730965
 20
0.9919048418802173
 10
3.405059389302783
 20
0.9771951934912198
 42
-0.32022313533382
 10
3.405942124088247
 20
0.9632820227809451
 42
-0.0022745356542216
 10
3.397357535184488
 20
0.9496197277793324
 42
-0.32022313533382
 10
3.384439197142109
 20
0.9443783457874403
 10
3.365991594320016
 20
0.9487829071865235
 10
3.358416760860274
 20
0.9373075249407424
 10
3.350841927361721
 20
0.9258321427338607
 10
3.36214241355573
 20
0.9106001623582098
 42
-0.32022313533382
 10
3.362400047442451
 20
0.8966613975386408
 42
-0.0022745356542216
 10
3.35321114610104
 20
0.8833980056837869
 42
-0.32022313533382
 10
3.3400706622516
 20
0.8787414804594721
 10
3.321839244837958
 20
0.8839692553293009
 10
3.313757197653808
 20
0.8728452716479598
 10
3.305675150432625
 20
0.8617212880072221
 10
3.316280877573526
 20
0.8459976508262819
 42
-0.3202231353338202
 10
3.315912891721138
 20
0.832061362714762
 42
-0.0022745356542214
 10
3.306138183166501
 20
0.8192235847127301
 42
-0.32022313533382
 10
3.292802016695696
 20
0.815161293878091
 10
3.274823500338894
 20
0.8212017541758042
 10
3.266250515597784
 20
0.8104515712816279
 10
3.257677530821508
 20
0.7997013884296721
 10
3.267567140386281
 20
0.783517759756181
 42
-0.3202231353338202
 10
3.266574275869321
 20
0.7696120141822892
 42
-0.0022745356542214
 10
3.256233445063636
 20
0.7572257036094899
 42
-0.32022313533382
 10
3.242728453235935
 20
0.7537658280776593
 10
3.225039044275283
 20
0.7606068091200903
 10
3.215992386827562
 20
0.7502520764507649
 10
3.206945729346609
 20
0.739897343825196
 10
3.216099304977726
 20
0.7232863153335419
 42
-0.32022313533382
 10
3.214483561293198
 20
0.7094391166182543
 42
-0.0022745356542216
 10
3.203597433293526
 20
0.6975292178557801
 42
-0.32022313533382
 10
3.189950813365181
 20
0.6946787253556179
 10
3.172586135916182
 20
0.702306450317365
 10
3.163084024526002
 20
0.692368020926451
 10
3.15358191310458
 20
0.6824295915807452
 10
3.161981020718903
 20
0.6654246156716709
 42
-0.3202231353338202
 10
3.159745651759555
 20
0.651663850230375
 42
-0.0022745356542216
 10
3.148336149778928
 20
0.6402543482293349
 42
-0.32022313533382
 10
3.134575384226361
 20
0.6380189792733861
 10
3.11757040843845
 20
0.6464180869314981
 10
3.10763197909358
 20
0.6369159754931561
 10
3.097693549719531
 20
0.6274138641013733
 10
3.105321274632098
 20
0.610049186533295
 42
-0.32022313533382
 10
3.102470782133541
 20
0.5964025667162693
 42
-0.0022745356542216
 10
3.090560883390543
 20
0.585516438695286
 42
-0.32022313533382
 10
3.076713684564245
 20
0.58390069501914
 10
3.060102656195593
 20
0.5930542706885701
 10
3.049747923570111
 20
0.584007613190671
 10
3.039393190917559
 20
0.574960955740596
 10
3.046234171905514
 20
0.557271546663198
 42
-0.3202231353338202
 10
3.042774296380278
 20
0.5437665549466259
 42
-0.0022745356542214
 10
3.03038798582598
 20
0.53342572411878
 42
-0.32022313533382
 10
3.016482240141564
 20
0.5324328596151728
 10
3.000298611592674
 20
0.5423224692127024
 10
2.989548428740042
 20
0.5337494844194942
 10
2.978798245862519
 20
0.525176499675276
 10
2.984838706100569
 20
0.5071979832042871
 42
-0.3202231353338202
 10
2.980776415277509
 20
0.493861816844205
 42
-0.0022745356542214
 10
2.967938637292964
 20
0.4840871082665969
 42
-0.32022313533382
 10
2.954002349071635
 20
0.4837191224325092
 10
2.938278712016641
 20
0.4943248496005431
 10
2.927154728374463
 20
0.4862428023624858
 10
2.916030744709621
 20
0.4781607551744881
 10
2.921258519514728
 20
0.459929337649451
 42
-0.32022313533382
 10
2.916601994306946
 20
0.4467888539101033
 42
-0.0022745356542214
 10
2.903338602468528
 20
0.437599952544967
 42
-0.32022313533382
 10
2.889399837540081
 20
0.4378575864548893
 10
2.874167857291466
 20
0.4491580726703502
 10
2.862692475082388
 20
0.4415832391549993
 10
2.851217092852918
 20
0.4340084056906701
 10
2.855621654182352
 20
0.4155608027601963
 42
-0.3202231353338205
 10
2.850380272211906
 20
0.4026424648270604
 42
-0.0022745356542214
 10
2.836717977225659
 20
0.3940578758988593
 42
-0.32022313533382
 10
2.822804806407651
 20
0.3949406107123883
 10
2.808095158146523
 20
0.406913098299934
 10
2.796291487263145
 20
0.3998607332139108
 10
2.784487816361681
 20
0.3928083681797745
 10
2.788060294015088
 20
0.3741817308611111
 42
-0.3202231353338205
 10
2.782244610727746
 20
0.3615115545475771
 42
-0.0022745356542214
 10
2.768210926637542
 20
0.3535485662759532
 42
-0.32022313533382
 10
2.754351369204402
 20
0.355054624282652
 10
2.740193676204763
 20
0.367675002245611
 10
2.728085487669384
 20
0.3611593081136553
 10
2.715977299118256
 20
0.3546436140343403
 10
2.718710498601085
 20
0.3358754538961641
 42
-0.3202231353338205
 10
2.712332226009009
 20
0.323478955251141
 42
-0.0022745356542214
 10
2.69795541478698
 20
0.3161536040347381
 42
-0.3202231353338201
 10
2.684177382042909
 20
0.3182799522342152
 10
2.670600156014314
 20
0.3315228048109282
 10
2.658211834107247
 20
0.3255569033738892
 10
2.645823512186814
 20
0.3195910019901491
 10
2.647711929199039
 20
0.3007191156092612
 42
-0.3202231353338205
 10
2.640783912294393
 20
0.2886212595312709
 42
-0.0022745356542214
 10
2.626092926925031
 20
0.2819482976525651
 42
-0.32022313533382
 10
2.61242416599436
 20
0.2846906538625169
 10
2.599454749663147
 20
0.2985293117102861
 10
2.586811242816042
 20
0.2931252174997032
 10
2.574167735957976
 20
0.2877211233429679
 10
2.57520756747906
 20
0.2687835161870222
 42
-0.3202231353338205
 10
2.567743758365894
 20
0.2570086661481892
 42
-0.0022745356542214
 10
2.552768184538616
 20
0.2510015320643408
 42
-0.32022313533382
 10
2.539236222486783
 20
0.2543543735443283
 10
2.526900734531432
 20
0.268760967447931
 10
2.514027505084451
 20
0.2639295635903551
 10
2.501154275628943
 20
0.259098159787057
 10
2.501343427576577
 20
0.2401329696766008
 42
-0.3202231353338205
 10
2.493358857373144
 20
0.2287048386578742
 42
-0.0022745356542214
 10
2.478128853900651
 20
0.2233756299374871
 42
-0.32022313533382
 10
2.464760942298364
 20
0.2273322045109702
 10
2.453084224749974
 20
0.2422777215075551
 10
2.440007197674019
 20
0.2380287378073751
 10
2.426930170591978
 20
0.23377975416181
 10
2.426268262039318
 20
0.2148251744657834
 42
-0.3202231353338205
 10
2.417779010607395
 20
0.203766777202144
 42
-0.0022745356542214
 10
2.402325248689829
 20
0.199126226162355
 42
-0.3202231353338198
 10
2.389148308732013
 20
0.2036785658146968
 10
2.378153876945768
 20
0.2191329076220212
 10
2.364899387633047
 20
0.2154749009669489
 10
2.351644898316694
 20
0.2118168943667071
 10
2.35013326225947
 20
0.1929110970860921
 42
-0.3202231353338205
 10
2.341156425821678
 20
0.1822447037179533
 42
-0.0022745356542214
 10
2.325510027278918
 20
0.1783021558109852
 42
-0.3202231353338201
 10
2.312550595569034
 20
0.1834410927359613
 10
2.302260590867371
 20
0.1993731363663293
 10
2.288855332095417
 20
0.1963134734949441
 10
2.275450073322291
 20
0.1932538106785
 10
2.273091753994352
 20
0.1744348695729871
 42
-0.3202231353338205
 10
2.26364541070461
 20
0.1641819607970849
 42
-0.0022745356542214
 10
2.247837885301051
 20
0.1609453557897333
 42
-0.32022313533382
 10
2.23512206040988
 20
0.1666605408522801
 10
2.22555720549286
 20
0.183038201290095
 10
2.212028173668829
 20
0.1805830439562412
 10
2.198499141846101
 20
0.1781278866773192
 10
2.195298888588732
 20
0.159433700589825
 42
-0.3202231353338205
 10
2.185402062125275
 20
0.149614924399944
 42
-0.0022745356542214
 10
2.169465244113383
 20
0.14709078038396
 42
-0.32022313533382
 10
2.157018634020005
 20
0.1533707039619569
 10
2.148198191232504
 20
0.1701609987786763
 10
2.134572632026012
 20
0.1683152913424821
 10
2.120947072823275
 20
0.1664695839611061
 10
2.116911330520631
 20
0.1479378004945351
 42
-0.3202231353338202
 10
2.106583951774871
 20
0.138572930599216
 42
-0.0022745356542214
 10
2.0905499357852
 20
0.1367663308647271
 42
-0.3202231353338198
 10
2.078397606305911
 20
0.14359834602783
 10
2.070339338845864
 20
0.1607674618041985
 10
2.056644692319826
 20
0.159534921274804
 10
2.042950045800014
 20
0.1583023807999981
 10
2.038086941900003
 20
0.1399703204999969
 42
-0.3202231353338205
 10
2.02734980883833
 20
0.1310782165009019
 42
-0.0022745356542214
 10
2.011250885245239
 20
0.129992799299347
 42
-0.3202231353338201
 10
1.999417309554349
 20
0.1373631472782461
 10
1.992137445700001
 20
0.154876507699998
 10
1.978401291050007
 20
0.1542596162500009
 10
1.964665136408674
 20
0.1536427248542713
 10
1.958984464555358
 20
0.135547306050604
 42
-0.3202231353338205
 10
1.947859200334834
 20
0.127145875461804
 42
-0.0022745356542214
 10
1.931727790227953
 20
0.1267838266789753
 42
-0.32022313533382
 10
1.920236799572059
 20
0.1346776645737042
 10
1.913750000000389
 20
0.1525000000636742
 10
1.900000000013859
 20
0.1525000000303609
 10
1.886250000038412
 20
0.1525000000508669
 10
1.879763200348908
 20
0.134677664508817
 42
-0.3202231353338205
 10
1.868272209771096
 20
0.1267838266934411
 42
-0.0022745356542214
 10
1.852140799663564
 20
0.1271458754474073
 42
-0.32022313533382
 10
1.841015535368596
 20
0.1355473061189769
 10
1.835334863630665
 20
0.1536427248653282
 10
1.821598708977682
 20
0.154259616248765
 10
1.807862554338188
 20
0.1548765076854641
 10
1.800582690363786
 20
0.1373631472169732
 42
-0.3202231353338205
 10
1.788749114754457
 20
0.129992799313841
 42
-0.0022745356542214
 10
1.772650191159426
 20
0.1310782164865871
 42
-0.32022313533382
 10
1.761913058027096
 20
0.1399703205717142
 10
1.757049954239782
 20
0.1583023808092851
 10
1.743355307707777
 20
0.1595349212723169
 10
1.729660661191632
 20
0.1607674617879622
 10
1.721602393609553
 20
0.143598345970285
 42
-0.3202231353338205
 10
1.709450064215147
 20
0.1367663308792108
 42
-0.0022745356542214
 10
1.693416048222245
 20
0.1385729305850134
 42
-0.3202231353338198
 10
1.683088669409754
 20
0.1479378005694467
 10
1.67905292721689
 20
0.1664695839685883
 10
1.665427368001456
 20
0.16831529133876
 10
1.651801808804229
 20
0.170160998760781
 10
1.642981365892968
 20
0.153370703908265
 42
-0.3202231353338205
 10
1.630534755887616
 20
0.1470907803984262
 42
-0.0022745356542214
 10
1.61459793787121
 20
0.1496149243858931
 42
-0.32022313533382
 10
1.604701111345092
 20
0.1594337006677933
 10
1.601500858194365
 20
0.178127886683
 10
1.587971826358437
 20
0.180583043951297
 10
1.574442794543026
 20
0.183038201270562
 10
1.564877939500759
 20
0.166660540802545
 42
-0.3202231353338202
 10
1.552162114700591
 20
0.160945355804132
 42
-0.0022745356542214
 10
1.536354589291246
 20
0.1641819607831991
 42
-0.3202231353338197
 10
1.526908245943028
 20
0.1744348696538402
 10
1.524549926718388
 20
0.1932538106823531
 10
1.511144667931607
 20
0.1963134734887783
 10
1.497739409167607
 20
0.1993731363452009
 10
1.487449404339475
 20
0.1834410926902869
 42
-0.3202231353338202
 10
1.474489972723372
 20
0.1783021558252942
 42
-0.0022745356542214
 10
1.45884357417356
 20
0.1822447037042649
 42
-0.32022313533382
 10
1.449866737681601
 20
0.1929110971696643
 10
1.448355101724118
 20
0.2118168943687299
 10
1.435100612393668
 20
0.2154749009595771
 10
1.421846123088228
 20
0.2191329075993508
 10
1.410851691174533
 20
0.203678565773177
 42
-0.3202231353338202
 10
1.397674751313101
 20
0.1991262261765611
 42
-0.0022745356542214
 10
1.382220989387235
 20
0.203766777188693
 42
-0.3202231353338196
 10
1.37373173790557
 20
0.2148251745519291
 10
1.373069829448885
 20
0.2337797541620032
 10
1.359992802352343
 20
0.2380287377988135
 10
1.346915775282969
 20
0.2422777214833791
 10
1.335239057606417
 20
0.2273322044736754
 42
-0.3202231353338205
 10
1.321871146102914
 20
0.223375629951531
 42
-0.0022745356542214
 10
1.306641142620885
 20
0.2287048386446652
 42
-0.32022313533382
 10
1.298656572372225
 20
0.2401329697651219
 10
1.298845724411889
 20
0.2590981597854163
 10
1.285972494941495
 20
0.2639295635806143
 10
1.27309926550039
 20
0.2687609674223093
 10
1.260763777416413
 20
0.2543543735113503
 42
-0.3202231353338202
 10
1.24723181546557
 20
0.251001532078216
 42
-0.0022745356542216
 10
1.23225624162754
 20
0.2570086661352684
 42
-0.32022313533382
 10
1.224792432473764
 20
0.2687835162777583
 10
1.225832264082735
 20
0.2877211233395012
 10
1.213188757209442
 20
0.293125217488817
 10
1.200545250367497
 20
0.2985293116832533
 10
1.187575833907457
 20
0.2846906538339118
 42
-0.3202231353338202
 10
1.173907073079769
 20
0.2819482976662291
 42
-0.0022745356542214
 10
1.159216087698468
 20
0.2886212595186541
 42
-0.32022313533382
 10
1.152288070757899
 20
0.300719115702017
 10
1.154176487853704
 20
0.3195910019848533
 10
1.141788165917724
 20
0.325556903361863
 10
1.129399844015085
 20
0.331522804782554
 10
1.115822617857729
 20
0.318279952210047
 42
-0.3202231353338202
 10
1.102044585218435
 20
0.3161536040481832
 42
-0.0022745356542214
 10
1.087667773983297
 20
0.323478955238861
 42
-0.32022313533382
 10
1.081289501360061
 20
0.3358754539907591
 10
1.084022700921981
 20
0.354643614027238
 10
1.071914512355022
 20
0.3611593081005249
 10
1.059806323823334
 20
0.367675002215939
 10
1.045648630695249
 20
0.355054624262958
 42
-0.3202231353338202
 10
1.031789073368468
 20
0.3535485662891293
 42
-0.0022745356542214
 10
1.017755389264021
 20
0.3615115545356422
 42
-0.32022313533382
 10
1.011939705950342
 20
0.374181730957347
 10
1.015512183678199
 20
0.3928083681708683
 10
1.003708512760646
 20
0.3998607331996911
 10
0.9919048418802173
 20
0.406913098269029
 10
0.9771951934912198
 20
0.3949406106972111
 42
-0.3202231353338202
 10
0.9632820227809432
 20
0.3940578759117532
 42
-0.0022745356542214
 10
0.9496197277793307
 20
0.40264246481551
 42
-0.32022313533382
 10
0.9443783457874388
 20
0.4155608028578895
 10
0.9487829071865235
 20
0.4340084056799823
 10
0.9373075249407424
 20
0.4415832391397244
 10
0.9258321427338607
 20
0.449158072638276
 10
0.9106001623582098
 20
0.437857586444266
 42
-0.3202231353338202
 10
0.896661397538643
 20
0.4375999525575536
 42
-0.0022745356542214
 10
0.8833980056837901
 20
0.4467888538989583
 42
-0.32022313533382
 10
0.8787414804594741
 20
0.4599293377484001
 10
0.8839692553293009
 20
0.4781607551620401
 10
0.8728452716479598
 20
0.486242802346189
 10
0.8617212880072221
 20
0.4943248495673732
 10
0.8459976508262819
 20
0.4837191224264709
 42
-0.3202231353338202
 10
0.832061362714762
 20
0.4840871082788602
 42
-0.0022745356542214
 10
0.8192235847127278
 20
0.4938618168334971
 42
-0.32022313533382
 10
0.8151612938780942
 20
0.5071979833043009
 10
0.8212017541758042
 20
0.5251764996610992
 10
0.8104515712816279
 20
0.5337494844022141
 10
0.7997013884296721
 20
0.542322469178493
 10
0.7835177597561822
 20
0.5324328596137199
 42
-0.3202231353338202
 10
0.769612014182291
 20
0.5334257241306761
 42
-0.0022745356542214
 10
0.7572257036094953
 20
0.543766554936357
 42
-0.32022313533382
 10
0.7537658280776593
 20
0.5572715467640629
 10
0.7606068091200903
 20
0.574960955724719
 10
0.7502520764507649
 20
0.584007613172438
 10
0.739897343825196
 20
0.5930542706533961
 10
0.7232863153335419
 20
0.5839006950222791
 42
-0.3202231353338202
 10
0.7094391166182549
 20
0.5855164387068132
 42
-0.0022745356542214
 10
0.6975292178557843
 20
0.5964025667064871
 42
-0.32022313533382
 10
0.6946787253556179
 20
0.6100491866348278
 10
0.702306450317365
 20
0.6274138640838231
 10
0.692368020926451
 20
0.636915975474003
 10
0.6824295915807452
 20
0.6464180868954223
 10
0.6654246156716709
 20
0.6380189792810992
 42
-0.3202231353338202
 10
0.651663850230377
 20
0.6402543482404481
 42
-0.0022745356542214
 10
0.640254348229338
 20
0.6516638502210711
 42
-0.32022313533382
 10
0.6380189792733892
 20
0.665424615773644
 10
0.6464180869314981
 20
0.68242959156155
 10
0.6369159754931561
 20
0.6923680209064211
 10
0.6274138641013733
 20
0.7023064502804743
 10
0.610049186533295
 20
0.6946787253679072
 42
-0.3202231353338202
 10
0.5964025667162693
 20
0.6975292178664671
 42
-0.0022745356542214
 10
0.5855164386952882
 20
0.7094391166094591
 42
-0.32022313533382
 10
0.58390069501914
 20
0.723286315435762
 10
0.5930542706885701
 20
0.7398973438044109
 10
0.584007613190671
 20
0.7502520764298941
 10
0.5749609557405941
 20
0.7606068090824391
 10
0.5572715466631961
 20
0.7537658280944858
 42
-0.3202231353338202
 10
0.5437665549466279
 20
0.7572257036197291
 42
-0.0022745356542214
 10
0.5334257241187829
 20
0.7696120141740229
 42
-0.32022313533382
 10
0.532432859615177
 20
0.7835177598584379
 10
0.5423224692126999
 20
0.799701388407324
 10
0.533749484419492
 20
0.8104515712599559
 10
0.5251764996752781
 20
0.8212017541374759
 10
0.5071979832042883
 20
0.8151612938994251
 42
-0.3202231353338202
 10
0.4938618168442143
 20
0.8192235847224889
 42
-0.0022745356542214
 10
0.4840871082666102
 20
0.8320613627070331
 42
-0.32022313533382
 10
0.483719122432516
 20
0.8459976509283649
 10
0.4943248496005458
 20
0.8617212879833569
 10
0.4862428023624891
 20
0.872845271625535
 10
0.4781607551744881
 20
0.8839692552903809
 10
0.459929337649451
 20
0.878741480485274
 42
-0.3202231353338202
 10
0.4467888539101008
 20
0.8833980056930609
 42
-0.0022745356542214
 10
0.437599952544967
 20
0.8966613975314748
 42
-0.32022313533382
 10
0.437857586454892
 20
0.910600162459924
 10
0.4491580726703502
 20
0.9258321427085352
 10
0.4415832391549993
 20
0.9373075249176128
 10
0.4340084056906701
 20
0.9487829071470791
 10
0.4155608027601963
 20
0.9443783458176454
 42
-0.3202231353338202
 10
0.4026424648270633
 20
0.9496197277880936
 42
-0.0022745356542214
 10
0.3940578758988593
 20
0.963282022774346
 42
-0.32022313533382
 10
0.39494061071239
 20
0.9771951935923551
 10
0.4069130982999364
 20
0.9919048418534742
 10
0.3998607332139108
 20
1.003708512736852
 10
0.3928083681797758
 20
1.015512183638316
 10
0.3741817308611102
 20
1.01193970598491
 42
-0.3202231353338202
 10
0.3615115545475735
 20
1.017755389272251
 42
-0.0022745356542214
 10
0.3535485662759501
 20
1.031789073362452
 42
-0.32022313533382
 10
0.3550546242826511
 20
1.045648630795592
 10
0.3676750022456132
 20
1.059806323795234
 10
0.3611593081136541
 20
1.071914512330617
 10
0.3546436140343403
 20
1.084022700881741
 10
0.3358754538961661
 20
1.081289501398915
 42
-0.3202231353338202
 10
0.3234789552511452
 20
1.087667773990992
 42
-0.0022745356542214
 10
0.3161536040347435
 20
1.10204458521302
 42
-0.32022313533382
 10
0.3182799522342183
 20
1.115822617957095
 10
0.33152280481093
 20
1.129399843985686
 10
0.325556903373891
 20
1.141788165892754
 10
0.31959100199015
 20
1.154176487813194
 10
0.3007191156092659
 20
1.152288070800965
 42
-0.3202231353338202
 10
0.2886212595312658
 20
1.159216087705614
 42
-0.0022745356542214
 10
0.2819482976525582
 20
1.173907073074977
 42
-0.32022313533382
 10
0.2846906538625134
 20
1.187575834005647
 10
0.298529311710287
 20
1.200545250336857
 10
0.2931252174997032
 20
1.213188757183962
 10
0.2877211233429679
 20
1.225832264042017
 10
0.2687835161870242
 20
1.224792432520933
 42
-0.3202231353338202
 10
0.2570086661481892
 20
1.232256241634099
 42
-0.0022745356542214
 10
0.2510015320643442
 20
1.247231815461378
 42
-0.32022313533382
 10
0.2543543735443319
 20
1.260763777513206
 10
0.268760967447933
 20
1.273099265468561
 10
0.2639295635903551
 20
1.285972494915546
 10
0.259098159787061
 20
1.298845724371061
 10
0.2401329696766008
 20
1.298656572423427
 42
-0.3202231353338202
 10
0.2287048386578718
 20
1.306641142626864
 42
-0.0022745356542214
 10
0.2233756299374871
 20
1.321871146099356
 42
-0.32022313533382
 10
0.2273322045109702
 20
1.335239057701644
 10
0.2422777215075584
 20
1.346915775250027
 10
0.238028737807379
 20
1.359992802325985
 10
0.23377975416181
 20
1.373069829408026
 10
0.2148251744657834
 20
1.373731737960687
 42
-0.3202231353338202
 10
0.203766777202144
 20
1.382220989392609
 42
-0.0022745356542214
 10
0.1991262261623609
 20
1.397674751310171
 42
-0.32022313533382
 10
0.2036785658146991
 20
1.410851691267988
 10
0.2191329076220234
 20
1.421846123054235
 10
0.2154749009669489
 20
1.435100612366957
 10
0.2118168943667091
 20
1.448355101683313
 10
0.1929110970860941
 20
1.449866737740533
 42
-0.3202231353338202
 10
0.1822447037179591
 20
1.458843574178326
 42
-0.0022745356542214
 10
0.178302155810996
 20
1.474489972721086
 42
-0.32022313533382
 10
0.1834410927359693
 20
1.48744940443097
 10
0.1993731363663293
 20
1.497739409132636
 10
0.1963134734949461
 20
1.51114466790459
 10
0.1932538106785022
 20
1.524549926677705
 10
0.1744348695729891
 20
1.526908246005641
 42
-0.3202231353338202
 10
0.1641819607970849
 20
1.53635458929539
 42
-0.0022745356542214
 10
0.1609453557897351
 20
1.552162114698943
 42
-0.32022313533382
 10
0.1666605408522821
 20
1.564877939590113
 10
0.183038201290097
 20
1.574442794507137
 10
0.1805830439562412
 20
1.587971826331165
 10
0.178127886677321
 20
1.601500858153903
 10
0.159433700589825
 20
1.604701111411271
 42
-0.3202231353338202
 10
0.149614924399942
 20
1.614597937874732
 42
-0.0022745356542214
 10
0.1470907803839618
 20
1.630534755886623
 42
-0.32022313533382
 10
0.1533707039619551
 20
1.642981365980008
 10
0.1701609987786783
 20
1.6518018087675
 10
0.1683152913424821
 20
1.665427367973992
 10
0.1664695839611019
 20
1.679052927176721
 10
0.1479378004945313
 20
1.683088669479369
 42
-0.3202231353338202
 10
0.138572930599208
 20
1.693416048225133
 42
-0.0022745356542214
 10
0.1367663308647189
 20
1.709450064214797
 42
-0.32022313533382
 10
0.1435983460278249
 20
1.721602393694089
 10
0.1607674618041943
 20
1.729660661154137
 10
0.1595349212748
 20
1.74335530768017
 10
0.1583023807999981
 20
1.757049954199983
 10
0.1399703204999969
 20
1.761913058099994
 42
-0.3202231353338202
 10
0.1310782165009041
 20
1.772650191161672
 42
-0.0022745356542214
 10
0.1299927992993492
 20
1.788749114754756
 42
-0.32022313533382
 10
0.1373631472782481
 20
1.800582690445653
 10
0.154876507699998
 20
1.807862554299996
 10
0.1542596162500009
 20
1.82159870894999
 10
0.1536427248542713
 20
1.835334863591326
 10
0.1355473060506071
 20
1.841015535444642
 42
-0.3202231353338202
 10
0.127145875461802
 20
1.852140799665163
 42
-0.0022745356542214
 10
0.1267838266789753
 20
1.868272209772042
 42
-0.32022313533382
 10
0.134677664573702
 20
1.879763200427939
 10
0.1525000000636742
 20
1.886249999999611
 10
0.1525000000303609
 20
1.899999999986141
 10
0.1525000000508603
 20
1.913749999961586
 10
0.1346776645088134
 20
1.920236799651091
 42
-0.3202231353338202
 10
0.126783826693436
 20
1.931727790228903
 42
-0.0022745356542214
 10
0.1271458754474008
 20
1.947859200336429
 42
-0.32022313533382
 10
0.135547306118972
 20
1.958984464631401
 10
0.1536427248653202
 20
1.964665136369332
 10
0.1542596162487581
 20
1.978401291022313
 10
0.154876507685457
 20
1.992137445661813
 10
0.137363147216966
 20
1.999417309636216
 42
-0.3202231353338202
 10
0.1299927993138321
 20
2.01125088524555
 42
-0.0022745356542214
 10
0.1310782164865802
 20
2.027349808840581
 42
-0.3202231353338199
 10
0.1399703205717053
 20
2.038086941972915
 10
0.1583023808092782
 20
2.04295004576022
 10
0.15953492127231
 20
2.056644692292225
 10
0.1607674617879622
 20
2.070339338808365
 10
0.143598345970285
 20
2.078397606390448
 42
-0.3202231353338202
 10
0.1367663308792133
 20
2.090549935784858
 42
-0.0022745356542214
 10
0.1385729305850134
 20
2.106583951777756
 42
-0.3202231353338198
 10
0.1479378005694467
 20
2.11691133059025
 10
0.166469583968591
 20
2.120947072783108
 10
0.16831529133876
 20
2.134572631998543
 10
0.1701609987607741
 20
2.148198191195773
 10
0.1533707039082612
 20
2.157018634107034
 42
-0.3202231353338202
 10
0.1470907803984189
 20
2.169465244112386
 42
-0.0022745356542214
 10
0.1496149243858859
 20
2.1854020621288
 42
-0.3202231353338198
 10
0.1594337006677844
 20
2.195298888654919
 10
0.1781278866829934
 20
2.198499141805639
 10
0.1805830439512901
 20
2.212028173641565
 10
0.1830382012705691
 20
2.225557205456971
 10
0.1666605408025561
 20
2.235122060499238
 42
-0.3202231353338202
 10
0.1609453558041391
 20
2.247837885299409
 42
-0.0022745356542214
 10
0.1641819607832033
 20
2.263645410708752
 42
-0.3202231353338198
 10
0.1744348696538449
 20
2.273091754056972
 10
0.1932538106823604
 20
2.275450073281613
 10
0.1963134734887852
 20
2.288855332068392
 10
0.1993731363452042
 20
2.302260590832395
 10
0.1834410926902869
 20
2.312550595660527
 42
-0.3202231353338202
 10
0.1783021558252942
 20
2.325510027276623
 42
-0.0022745356542214
 10
0.1822447037042649
 20
2.341156425826435
 42
-0.3202231353338201
 10
0.1929110971696681
 20
2.350133262318396
 10
0.2118168943687299
 20
2.351644898275884
 10
0.2154749009595771
 20
2.364899387606334
 10
0.2191329075993508
 20
2.378153876911772
 10
0.2036785657731798
 20
2.38914830882547
 42
-0.3202231353338202
 10
0.1991262261765571
 20
2.402325248686901
 42
-0.0022745356542214
 10
0.203766777188693
 20
2.41777901061277
 42
-0.3202231353338201
 10
0.2148251745519251
 20
2.426268262094433
 10
0.2337797541620032
 20
2.426930170551115
 10
0.2380287377988135
 20
2.440007197647661
 10
0.2422777214833859
 20
2.453084224717029
 10
0.2273322044736818
 20
2.464760942393583
 42
-0.3202231353338202
 10
0.2233756299515383
 20
2.478128853897081
 42
-0.0022745356542214
 10
0.2287048386446701
 20
2.493358857379105
 42
-0.32022313533382
 10
0.2401329697651293
 20
2.501343427627768
 10
0.2590981597854232
 20
2.501154275588112
 10
0.2639295635806209
 20
2.514027505058505
 10
0.2687609674223019
 20
2.526900734499611
 10
0.2543543735113432
 20
2.539236222583588
 42
-0.3202231353338202
 10
0.251001532078216
 20
2.552768184534438
 42
-0.0022745356542214
 10
0.2570086661352684
 20
2.567743758372468
 42
-0.32022313533382
 10
0.268783516277755
 20
2.575207567526243
 10
0.2877211233394969
 20
2.574167735917266
 10
0.2931252174888101
 20
2.586811242790558
 10
0.2985293116832601
 20
2.599454749632502
 10
0.2846906538339151
 20
2.612424166092539
 42
-0.3202231353338202
 10
0.2819482976662431
 20
2.626092926920224
 42
-0.0022745356542214
 10
0.2886212595186661
 20
2.640783912301527
 42
-0.32022313533382
 10
0.3007191157020292
 20
2.647711929242094
 10
0.3195910019848602
 20
2.645823512146292
 10
0.3255569033618673
 20
2.658211834082275
 10
0.3315228047825511
 20
2.670600155984912
 10
0.318279952210047
 20
2.684177382142271
 42
-0.3202231353338203
 10
0.3161536040481885
 20
2.697955414781562
 42
-0.0022745356542214
 10
0.3234789552388684
 20
2.712332226016704
 42
-0.3202231353338199
 10
0.335875453990766
 20
2.718710498639938
 10
0.354643614027238
 20
2.715977299078018
 10
0.3611593081005211
 20
2.728085487644977
 10
0.3676750022159461
 20
2.740193676176664
 10
0.3550546242629611
 20
2.754351369304748
 42
-0.3202231353338201
 10
0.3535485662891411
 20
2.76821092663153
 42
-0.0022745356542214
 10
0.3615115545356562
 20
2.782244610735978
 42
-0.3202231353338198
 10
0.3741817309573601
 20
2.788060294049659
 10
0.3928083681708709
 20
2.784487816321798
 10
0.3998607331996944
 20
2.796291487239353
 10
0.4069130982690359
 20
2.808095158119782
 10
0.394940610697218
 20
2.822804806508779
 42
-0.3202231353338202
 10
0.3940578759117601
 20
2.836717977219054
 42
-0.0022745356542214
 10
0.4026424648155152
 20
2.850380272220667
 42
-0.3202231353338198
 10
0.4155608028578964
 20
2.855621654212557
 10
0.4340084056799894
 20
2.851217092813476
 10
0.441583239139731
 20
2.862692475059257
 10
0.4491580726382832
 20
2.874167857266142
 10
0.4378575864442736
 20
2.889399837641791
 42
-0.3202231353338202
 10
0.4375999525575633
 20
2.903338602461359
 42
-0.0022745356542214
 10
0.4467888538989682
 20
2.916601994316214
 42
-0.3202231353338201
 10
0.459929337748411
 20
2.921258519540531
 10
0.478160755162047
 20
2.916030744670701
 10
0.4862428023461968
 20
2.927154728352041
 10
0.4943248495673799
 20
2.938278711992778
 10
0.483719122426478
 20
2.954002349173718
 42
-0.3202231353338203
 10
0.4840871082788608
 20
2.967938637285238
 42
-0.0022745356542214
 10
0.4938618168334991
 20
2.980776415287272
 42
-0.3202231353338201
 10
0.5071979833043009
 20
2.984838706121907
 10
0.5251764996611059
 20
2.978798245824199
 10
0.5337494844022209
 20
2.989548428718374
 10
0.542322469178493
 20
3.000298611570327
 10
0.5324328596137199
 20
3.016482240243819
 42
-0.3202231353338201
 10
0.5334257241306779
 20
3.030387985817709
 42
-0.0022745356542214
 10
0.5437665549363632
 20
3.042774296390502
 42
-0.3202231353338201
 10
0.5572715467640638
 20
3.04623417192234
 10
0.574960955724719
 20
3.03939319087991
 10
0.584007613172438
 20
3.049747923549239
 10
0.5930542706533891
 20
3.060102656174804
 10
0.5839006950222722
 20
3.076713684666459
 42
-0.3202231353338202
 10
0.5855164387068001
 20
3.09056088338175
 42
-0.0022745356542214
 10
0.5964025667064742
 20
3.102470782144221
 42
-0.32022313533382
 10
0.6100491866348171
 20
3.105321274644386
 10
0.627413864083816
 20
3.097693549682636
 10
0.6369159754739959
 20
3.107631979073549
 10
0.6464180868954223
 20
3.11757040841926
 10
0.6380189792810992
 20
3.134575384328334
 42
-0.3202231353338202
 10
0.640254348240441
 20
3.148336149769631
 42
-0.0022745356542214
 10
0.6516638502210671
 20
3.159745651770667
 42
-0.32022313533382
 10
0.6654246157736372
 20
3.161981020726619
 10
0.68242959156155
 20
3.153581913068504
 10
0.6923680209064211
 20
3.163084024506849
 10
0.7023064502804658
 20
3.172586135898626
 10
0.694678725367896
 20
3.189950813466707
 42
-0.3202231353338202
 10
0.6975292178664631
 20
3.203597433283738
 42
-0.0022745356542214
 10
0.7094391166094551
 20
3.214483561304719
 42
-0.32022313533382
 10
0.72328631543576
 20
3.216099304980866
 10
0.7398973438044
 20
3.206945729311433
 10
0.750252076429887
 20
3.21599238680933
 10
0.7606068090824422
 20
3.225039044259401
 10
0.7537658280944858
 20
3.242728453336804
 42
-0.3202231353338203
 10
0.7572257036197309
 20
3.256233445053381
 42
-0.0022745356542214
 10
0.7696120141740272
 20
3.266574275881224
 42
-0.3202231353338199
 10
0.7835177598584421
 20
3.267567140384832
 10
0.799701388407328
 20
3.257677530787299
 10
0.8104515712599599
 20
3.266250515580506
 10
0.8212017541374859
 20
3.27482350032472
 10
0.815161293899435
 20
3.292802016795713
 42
-0.3202231353338202
 10
0.8192235847224978
 20
3.306138183155797
 42
-0.0022745356542214
 10
0.832061362707042
 20
3.315912891733401
 42
-0.3202231353338198
 10
0.845997650928372
 20
3.316280877567491
 10
0.861721287983364
 20
3.305675150399456
 10
0.8728452716255429
 20
3.313757197637512
 10
0.8839692552903809
 20
3.321839244825513
 10
0.878741480485274
 20
3.340070662350549
 42
-0.3202231353338202
 10
0.883398005693057
 20
3.353211146089899
 42
-0.0022745356542214
 10
0.89666139753147
 20
3.362400047455033
 42
-0.3202231353338198
 10
0.9106001624599203
 20
3.362142413545109
 10
0.9258321427085352
 20
3.350841927329652
 10
0.9373075249176128
 20
3.358416760845001
 10
0.9487829071470864
 20
3.365991594309333
 10
0.9443783458176527
 20
3.384439197239804
 42
-0.3202231353338202
 10
0.9496197277881005
 20
3.397357535172945
 42
-0.0022745356542214
 10
0.9632820227743511
 20
3.405942124101149
 42
-0.3202231353338201
 10
0.977195193592364
 20
3.405059389287616
 10
0.9919048418534815
 20
3.393086901700068
 10
1.003708512736859
 20
3.400139266786089
 10
1.015512183638323
 20
3.407191631820224
 10
1.011939705984913
 20
3.425818269138892
 42
-0.3202231353338203
 10
1.017755389272258
 20
3.438488445452426
 42
-0.0022745356542214
 10
1.031789073362463
 20
3.446451433724052
 42
-0.3202231353338201
 10
1.045648630795604
 20
3.444945375717354
 10
1.059806323795241
 20
3.432324997754387
 10
1.07191451233062
 20
3.438840691886345
 10
1.084022700881749
 20
3.445356385965658
 10
1.081289501398923
 20
3.464124546103834
 42
-0.3202231353338202
 10
1.087667773991001
 20
3.476521044748859
 42
-0.0022745356542214
 10
1.102044585213031
 20
3.48384639596526
 42
-0.32022313533382
 10
1.115822617957102
 20
3.481720047765785
 10
1.129399843985689
 20
3.468477195189071
 10
1.141788165892761
 20
3.474443096626109
 10
1.154176487813183
 20
3.480408998009855
 10
1.152288070800958
 20
3.499280884390732
 42
-0.3202231353338202
 10
1.159216087705603
 20
3.51137874046873
 42
-0.0022745356542214
 10
1.17390707307497
 20
3.51805170234744
 42
-0.3202231353338199
 10
1.187575834005642
 20
3.515309346137487
 10
1.20054525033685
 20
3.501470688289711
 10
1.213188757183955
 20
3.506874782500299
 10
1.225832264042024
 20
3.512278876657033
 10
1.22479243252094
 20
3.531216483812981
 42
-0.3202231353338203
 10
1.232256241634106
 20
3.542991333851814
 42
-0.0022745356542214
 10
1.247231815461385
 20
3.548998467935663
 42
-0.3202231353338198
 10
1.260763777513215
 20
3.545645626455674
 10
1.273099265468568
 20
3.531239032552069
 10
1.285972494915549
 20
3.536070436409646
 10
1.298845724371057
 20
3.540901840212944
 10
1.298656572423423
 20
3.559867030323401
 42
-0.3202231353338202
 10
1.306641142626857
 20
3.57129516134213
 42
-0.0022745356542214
  0
CIRCLE
  5
670
330
1B
100
AcDbEntity
  8
holes
100
AcDbCircle
 10
2.4
 20
1.9
 30
0.0
 40
0.06
  0
CIRCLE
  5
671
330
1B
100
AcDbEntity
  8
holes
100
AcDbCircle
 10
2.9
 20
1.9
 30
0.0
 40
0.06
  0
CIRCLE
  5
673
330
1B
100
AcDbEntity
  8
holes
100
AcDbCircle
 10
1.900000000000002
 20
2.9
 30
0.0
 40
0.06
  0
CIRCLE
  5
674
330
1B
100
AcDbEntity
  8
holes
100
AcDbCircle
 10
1.900000000000002
 20
2.4
 30
0.0
 40
0.06
  0
CIRCLE
  5
675
330
1B
100
AcDbEntity
  8
holes
100
AcDbCircle
 10
0.9
 20
1.899999999999997
 30
0.0
 40
0.06
  0
CIRCLE
  5
676
330
1B
100
AcDbEntity
  8
holes
100
AcDbCircle
 10
1.399999999999998
 20
1.899999999999997
 30
0.0
 40
0.06
  0
CIRCLE
  5
677
330
1B
100
AcDbEntity
  8
holes
100
AcDbCircle
 10
1.900000000000002
 20
0.899999999999998
 30
0.0
 40
0.06
  0
CIRCLE
  5
678
330
1B
100
AcDbEntity
  8
holes
100
AcDbCircle
 10
1.900000000000002
 20
1.399999999999997
 30
0.0
 40
0.06
  0
CIRCLE
  5
688
330
1B
100
AcDbEntity
  8
0
100
AcDbCircle
 10
1.9
 20
1.9
 30
0.0
 40
1.9
  0
CIRCLE
  5
689
330
1B
100
AcDbEntity
  8
outline
100
AcDbCircle
 10
1.9
 20
1.9
 30
0.0
 40
1.74715750917233
  0
TEXT
  5
68B
330
1B
100
AcDbEntity
  8
0
100
AcDbText
 10
3.748990775869621
 20
0.4620329137347028
 30
0.0
 40
0.1
  1
SPACER FOR 6.3mm wide belt
 41
0.8
100
AcDbText
  0
ENDSEC
  0
SECTION
  2
OBJECTS
  0
DICTIONARY
  5
283
330
0
100
AcDbDictionary
281
     1
  3
ACAD_GROUP
350
284
  3
ACAD_MLINESTYLE
350
285
  3
ACAD_PLOTSTYLENAME
350
28A
  3
ACAD_LAYOUT
350
28C
  3
ACAD_PLOTSETTINGS
350
28D
  0
DICTIONARY
  5
284
102
{ACAD_REACTORS
330
283
102
}
330
283
100
AcDbDictionary
281
     1
  0
DICTIONARY
  5
285
102
{ACAD_REACTORS
330
283
102
}
330
283
100
AcDbDictionary
281
     1
  3
STANDARD
350
286
  0
ACDBDICTIONARYWDFLT
  5
28A
102
{ACAD_REACTORS
330
283
102
}
330
283
100
AcDbDictionary
281
     1
  3
Normal
350
28B
100
AcDbDictionaryWithDefault
340
28B
  0
DICTIONARY
  5
28C
102
{ACAD_REACTORS
330
283
102
}
330
283
100
AcDbDictionary
281
     1
  3
Model
350
28E
  3
Layout1
350
28F
  0
DICTIONARY
  5
28D
102
{ACAD_REACTORS
330
283
102
}
330
283
100
AcDbDictionary
281
     1
  0
MLINESTYLE
  5
286
102
{ACAD_REACTORS
330
285
102
}
330
285
100
AcDbMlineStyle
  2
STANDARD
 70
     0
  3

 62
   256
 51
90.0
 52
90.0
 71
     2
 49
0.5
 62
   256
  6
BYLAYER
 49
-0.5
 62
   256
  6
BYLAYER
  0
ACDBPLACEHOLDER
  5
28B
102
{ACAD_REACTORS
330
28A
102
}
330
28A
  0
LAYOUT
  5
28E
102
{ACAD_REACTORS
330
28C
102
}
330
28C
100
AcDbPlotSettings
  1

  2

  4

  6

 40
0.0
 41
0.0
 42
0.0
 43
0.0
 44
0.0
 45
0.0
 46
0.0
 47
0.0
 48
0.0
 49
0.0
140
0.0
141
0.0
142
1.0
143
1.0
 70
  1712
 72
     0
 73
     0
 74
     0
  7

 75
     0
147
1.0
148
0.0
149
0.0
100
AcDbLayout
  1
Model
 70
     1
 71
     0
 10
0.0
 20
0.0
 11
12.0
 21
9.0
 12
0.0
 22
0.0
 32
0.0
 14
0.0
 24
0.0
 34
0.0
 15
0.0
 25
0.0
 35
0.0
146
0.0
 13
0.0
 23
0.0
 33
0.0
 16
1.0
 26
0.0
 36
0.0
 17
0.0
 27
1.0
 37
0.0
 76
     0
330
1B
  0
LAYOUT
  5
28F
102
{ACAD_REACTORS
330
28C
102
}
330
28C
100
AcDbPlotSettings
  1

  2

  4

  6

 40
0.0
 41
0.0
 42
0.0
 43
0.0
 44
0.0
 45
0.0
 46
0.0
 47
0.0
 48
0.0
 49
0.0
140
0.0
141
0.0
142
1.0
143
1.0
 70
   688
 72
     0
 73
     0
 74
     5
  7

 75
    16
147
1.0
148
0.0
149
0.0
100
AcDbLayout
  1
Layout1
 70
     1
 71
     1
 10
0.0
 20
0.0
 11
12.0
 21
9.0
 12
0.0
 22
0.0
 32
0.0
 14
1.000000000000000E+20
 24
1.000000000000000E+20
 34
1.000000000000000E+20
 15
-1.000000000000000E+20
 25
-1.000000000000000E+20
 35
-1.000000000000000E+20
146
0.0
 13
0.0
 23
0.0
 33
0.0
 16
1.0
 26
0.0
 36
0.0
 17
0.0
 27
1.0
 37
0.0
 76
     0
330
1C
  0
ENDSEC
  0
EOF
