  0
SECTION
  2
HEADER
  9
$ACADVER
  1
AC1015
  9
$ACADMAINTVER
 70
     6
  9
$DWGCODEPAGE
  3
ANSI_1252
  9
$INSBASE
 10
0.0
 20
0.0
 30
0.0
  9
$EXTMIN
 10
0.2105553594171269
 20
0.1148261440947542
 30
0.0
  9
$EXTMAX
 10
1.988925500063898
 20
1.894099588826412
 30
0.0
  9
$LIMMIN
 10
0.0
 20
0.0
  9
$LIMMAX
 10
10.0
 20
10.0
  9
$ORTHOMODE
 70
     0
  9
$REGENMODE
 70
     1
  9
$FILLMODE
 70
     1
  9
$QTEXTMODE
 70
     0
  9
$MIRRTEXT
 70
     1
  9
$LTSCALE
 40
61.468
  9
$ATTMODE
 70
     1
  9
$TEXTSIZE
 40
0.2
  9
$TRACEWID
 40
0.05
  9
$TEXTSTYLE
  7
STANDARD
  9
$CLAYER
  8
0
  9
$CELTYPE
  6
BYLAYER
  9
$CECOLOR
 62
   256
  9
$CELTSCALE
 40
1.0
  9
$DISPSILH
 70
     0
  9
$DIMSCALE
 40
1.0
  9
$DIMASZ
 40
0.1875
  9
$DIMEXO
 40
6.985
  9
$DIMDLI
 40
42.46879999999999
  9
$DIMRND
 40
0.0
  9
$DIMDLE
 40
0.0
  9
$DIMEXE
 40
20.1168
  9
$DIMTP
 40
0.0
  9
$DIMTM
 40
0.0
  9
$DIMTXT
 40
18.0
  9
$DIMCEN
 40
10.0584
  9
$DIMTSZ
 40
0.0
  9
$DIMTOL
 70
     0
  9
$DIMLIM
 70
     0
  9
$DIMTIH
 70
     1
  9
$DIMTOH
 70
     1
  9
$DIMSE1
 70
     0
  9
$DIMSE2
 70
     0
  9
$DIMTAD
 70
     0
  9
$DIMZIN
 70
     0
  9
$DIMBLK
  1

  9
$DIMASO
 70
     1
  9
$DIMSHO
 70
     1
  9
$DIMPOST
  1

  9
$DIMAPOST
  1

  9
$DIMALT
 70
     0
  9
$DIMALTD
 70
     2
  9
$DIMALTF
 40
25.4
  9
$DIMLFAC
 40
1.0
  9
$DIMTOFL
 70
     0
  9
$DIMTVP
 40
0.0
  9
$DIMTIX
 70
     0
  9
$DIMSOXD
 70
     0
  9
$DIMSAH
 70
     0
  9
$DIMBLK1
  1

  9
$DIMBLK2
  1

  9
$DIMSTYLE
  2
STANDARD
  9
$DIMCLRD
 70
     0
  9
$DIMCLRE
 70
     0
  9
$DIMCLRT
 70
     0
  9
$DIMTFAC
 40
1.0
  9
$DIMGAP
 40
0.09
  9
$DIMJUST
 70
     0
  9
$DIMSD1
 70
     0
  9
$DIMSD2
 70
     0
  9
$DIMTOLJ
 70
     1
  9
$DIMTZIN
 70
     0
  9
$DIMALTZ
 70
     0
  9
$DIMALTTZ
 70
     0
  9
$DIMUPT
 70
     0
  9
$DIMDEC
 70
     4
  9
$DIMTDEC
 70
     4
  9
$DIMALTU
 70
     2
  9
$DIMALTTD
 70
     2
  9
$DIMTXSTY
  7
STANDARD
  9
$DIMAUNIT
 70
     0
  9
$DIMADEC
 70
     0
  9
$DIMALTRND
 40
0.0
  9
$DIMAZIN
 70
     0
  9
$DIMDSEP
 70
    46
  9
$DIMATFIT
 70
     3
  9
$DIMFRAC
 70
     0
  9
$DIMLDRBLK
  1

  9
$DIMLUNIT
 70
     2
  9
$DIMLWD
 70
    -2
  9
$DIMLWE
 70
    -2
  9
$DIMTMOVE
 70
     0
  9
$LUNITS
 70
     2
  9
$LUPREC
 70
     4
  9
$SKETCHINC
 40
0.1
  9
$FILLETRAD
 40
0.0
  9
$AUNITS
 70
     0
  9
$AUPREC
 70
     0
  9
$MENU
  1
.
  9
$ELEVATION
 40
0.0
  9
$PELEVATION
 40
0.0
  9
$THICKNESS
 40
0.0
  9
$LIMCHECK
 70
     0
  9
$CHAMFERA
 40
0.0
  9
$CHAMFERB
 40
0.0
  9
$CHAMFERC
 40
0.0
  9
$CHAMFERD
 40
0.0
  9
$SKPOLY
 70
     0
  9
$TDCREATE
 40
2456711.751293298
  9
$TDUCREATE
 40
2456712.001293298
  9
$TDUPDATE
 40
2456711.763459189
  9
$TDUUPDATE
 40
2456712.013459190
  9
$TDINDWG
 40
0.0121659375
  9
$TDUSRTIMER
 40
0.0121659375
  9
$USRTIMER
 70
     1
  9
$ANGBASE
 50
0.0
  9
$ANGDIR
 70
     0
  9
$PDMODE
 70
     0
  9
$PDSIZE
 40
0.0
  9
$PLINEWID
 40
0.0
  9
$SPLFRAME
 70
     0
  9
$SPLINETYPE
 70
     6
  9
$SPLINESEGS
 70
     8
  9
$HANDSEED
  5
43F
  9
$SURFTAB1
 70
     6
  9
$SURFTAB2
 70
     6
  9
$SURFTYPE
 70
     6
  9
$SURFU
 70
     6
  9
$SURFV
 70
     6
  9
$UCSBASE
  2

  9
$UCSNAME
  2

  9
$UCSORG
 10
0.0
 20
0.0
 30
0.0
  9
$UCSXDIR
 10
1.0
 20
0.0
 30
0.0
  9
$UCSYDIR
 10
0.0
 20
1.0
 30
0.0
  9
$UCSORTHOREF
  2

  9
$UCSORTHOVIEW
 70
     0
  9
$UCSORGTOP
 10
0.0
 20
0.0
 30
0.0
  9
$UCSORGBOTTOM
 10
0.0
 20
0.0
 30
0.0
  9
$UCSORGLEFT
 10
0.0
 20
0.0
 30
0.0
  9
$UCSORGRIGHT
 10
0.0
 20
0.0
 30
0.0
  9
$UCSORGFRONT
 10
0.0
 20
0.0
 30
0.0
  9
$UCSORGBACK
 10
0.0
 20
0.0
 30
0.0
  9
$PUCSBASE
  2

  9
$PUCSNAME
  2

  9
$PUCSORG
 10
0.0
 20
0.0
 30
0.0
  9
$PUCSXDIR
 10
1.0
 20
0.0
 30
0.0
  9
$PUCSYDIR
 10
0.0
 20
1.0
 30
0.0
  9
$PUCSORTHOREF
  2

  9
$PUCSORTHOVIEW
 70
     0
  9
$PUCSORGTOP
 10
0.0
 20
0.0
 30
0.0
  9
$PUCSORGBOTTOM
 10
0.0
 20
0.0
 30
0.0
  9
$PUCSORGLEFT
 10
0.0
 20
0.0
 30
0.0
  9
$PUCSORGRIGHT
 10
0.0
 20
0.0
 30
0.0
  9
$PUCSORGFRONT
 10
0.0
 20
0.0
 30
0.0
  9
$PUCSORGBACK
 10
0.0
 20
0.0
 30
0.0
  9
$USERI1
 70
     0
  9
$USERI2
 70
     0
  9
$USERI3
 70
     0
  9
$USERI4
 70
     0
  9
$USERI5
 70
     0
  9
$USERR1
 40
0.0
  9
$USERR2
 40
0.0
  9
$USERR3
 40
0.0
  9
$USERR4
 40
0.0
  9
$USERR5
 40
0.0
  9
$WORLDVIEW
 70
     1
  9
$SHADEDGE
 70
     3
  9
$SHADEDIF
 70
    70
  9
$TILEMODE
 70
     1
  9
$MAXACTVP
 70
    64
  9
$PINSBASE
 10
0.0
 20
0.0
 30
0.0
  9
$PLIMCHECK
 70
     0
  9
$PEXTMIN
 10
1.000000000000000E+20
 20
1.000000000000000E+20
 30
1.000000000000000E+20
  9
$PEXTMAX
 10
-1.000000000000000E+20
 20
-1.000000000000000E+20
 30
-1.000000000000000E+20
  9
$PLIMMIN
 10
0.0
 20
0.0
  9
$PLIMMAX
 10
12.0
 20
9.0
  9
$UNITMODE
 70
     0
  9
$VISRETAIN
 70
     1
  9
$PLINEGEN
 70
     0
  9
$PSLTSCALE
 70
     1
  9
$TREEDEPTH
 70
  3020
  9
$CMLSTYLE
  2
STANDARD
  9
$CMLJUST
 70
     0
  9
$CMLSCALE
 40
1.0
  9
$PROXYGRAPHICS
 70
     1
  9
$MEASUREMENT
 70
     1
  9
$CELWEIGHT
370
    -1
  9
$ENDCAPS
280
     0
  9
$JOINSTYLE
280
     0
  9
$LWDISPLAY
290
     0
  9
$INSUNITS
 70
     0
  9
$HYPERLINKBASE
  1

  9
$STYLESHEET
  1

  9
$XEDIT
290
     1
  9
$CEPSNTYPE
380
     0
  9
$PSTYLEMODE
290
     1
  9
$FINGERPRINTGUID
  2
{BEE18B41-5008-4C67-98C1-A82FBAA9AE6C}
  9
$VERSIONGUID
  2
{A2CE24E5-B9B1-45A6-ADC7-38B138C527A2}
  9
$EXTNAMES
290
     1
  9
$PSVPSCALE
 40
0.0
  9
$OLESTARTUP
290
     0
  0
ENDSEC
  0
SECTION
  2
CLASSES
  0
CLASS
  1
ACDBDICTIONARYWDFLT
  2
AcDbDictionaryWithDefault
  3
AutoCAD 2000
 90
        0
280
     0
281
     0
  0
CLASS
  1
ACDBPLACEHOLDER
  2
AcDbPlaceHolder
  3
AutoCAD 2000
 90
        0
280
     0
281
     0
  0
CLASS
  1
LAYOUT
  2
AcDbLayout
  3
AutoCAD 2000
 90
        0
280
     0
281
     0
  0
ENDSEC
  0
SECTION
  2
TABLES
  0
TABLE
  2
VPORT
  5
8
330
0
100
AcDbSymbolTable
 70
     3
  0
VPORT
  5
43E
330
8
100
AcDbSymbolTableRecord
100
AcDbViewportTableRecord
  2
*Active
 70
     0
 10
0.0
 20
0.0
 11
1.0
 21
1.0
 12
1.262110576502259
 22
0.8288255047392114
 13
0.0
 23
0.0
 14
1.0
 24
1.0
 15
0.0
 25
0.0
 16
0.0
 26
0.0
 36
1.0
 17
0.0
 27
0.0
 37
0.0
 40
2.505300843844844
 41
1.326027397260274
 42
50.0
 43
0.0
 44
0.0
 50
0.0
 51
0.0
 71
     0
 72
   500
 73
     1
 74
     0
 75
     0
 76
     1
 77
     0
 78
     0
281
     0
 65
     1
110
0.0
120
0.0
130
0.0
111
1.0
121
0.0
131
0.0
112
0.0
122
1.0
132
0.0
 79
     0
146
0.0
  0
ENDTAB
  0
TABLE
  2
LTYPE
  5
5
330
0
100
AcDbSymbolTable
 70
     6
  0
LTYPE
  5
14
330
5
100
AcDbSymbolTableRecord
100
AcDbLinetypeTableRecord
  2
BYBLOCK
 70
     0
  3

 72
    65
 73
     0
 40
0.0
  0
LTYPE
  5
15
330
5
100
AcDbSymbolTableRecord
100
AcDbLinetypeTableRecord
  2
BYLAYER
 70
     0
  3

 72
    65
 73
     0
 40
0.0
  0
LTYPE
  5
16
330
5
100
AcDbSymbolTableRecord
100
AcDbLinetypeTableRecord
  2
CONTINUOUS
 70
     0
  3
Solid line
 72
    65
 73
     0
 40
0.0
  0
LTYPE
  5
1F5
330
5
100
AcDbSymbolTableRecord
100
AcDbLinetypeTableRecord
  2
CENTER
 70
     0
  3
____ _ ____ _ ____ _ ____ _ ____ _ ____ _ ____
 72
    65
 73
     4
 40
0.6
 49
0.375
 74
     0
 49
-0.075
 74
     0
 49
0.075
 74
     0
 49
-0.075
 74
     0
  0
LTYPE
  5
1F6
330
5
100
AcDbSymbolTableRecord
100
AcDbLinetypeTableRecord
  2
HIDDEN
 70
     0
  3
- - - - - - - - - - - - - - - - - - - -
 72
    65
 73
     2
 40
0.2
 49
0.1
 74
     0
 49
-0.1
 74
     0
  0
LTYPE
  5
1F7
330
5
100
AcDbSymbolTableRecord
100
AcDbLinetypeTableRecord
  2
PHANTOM
 70
     0
  3
_____ _ _ _____ _ _ _____ _ _ _____
 72
    65
 73
     6
 40
0.8
 49
0.45
 74
     0
 49
-0.05
 74
     0
 49
0.1
 74
     0
 49
-0.05
 74
     0
 49
0.1
 74
     0
 49
-0.05
 74
     0
  0
ENDTAB
  0
TABLE
  2
LAYER
  5
2
330
0
100
AcDbSymbolTable
 70
    17
  0
LAYER
  5
10
330
2
100
AcDbSymbolTableRecord
100
AcDbLayerTableRecord
  2
0
 70
     0
 62
     7
  6
CONTINUOUS
370
    -3
390
28E
  0
LAYER
  5
43B
330
2
100
AcDbSymbolTableRecord
100
AcDbLayerTableRecord
  2
holes
 70
     0
 62
     1
  6
CONTINUOUS
370
    -3
390
28E
  0
LAYER
  5
43C
330
2
100
AcDbSymbolTableRecord
100
AcDbLayerTableRecord
  2
outline
 70
     0
 62
     3
  6
CONTINUOUS
370
    -3
390
28E
  0
ENDTAB
  0
TABLE
  2
STYLE
  5
3
330
0
100
AcDbSymbolTable
 70
     1
  0
STYLE
  5
11
330
3
100
AcDbSymbolTableRecord
100
AcDbTextStyleTableRecord
  2
STANDARD
 70
     0
 40
0.0
 41
0.8
 50
0.0
 71
     0
 42
0.2
  3
txt
  4

  0
ENDTAB
  0
TABLE
  2
VIEW
  5
6
330
0
100
AcDbSymbolTable
 70
     0
  0
ENDTAB
  0
TABLE
  2
UCS
  5
7
330
0
100
AcDbSymbolTable
 70
     0
  0
ENDTAB
  0
TABLE
  2
APPID
  5
9
330
0
100
AcDbSymbolTable
 70
     1
  0
APPID
  5
208
330
9
100
AcDbSymbolTableRecord
100
AcDbRegAppTableRecord
  2
ACAD
 70
     0
  0
ENDTAB
  0
TABLE
  2
DIMSTYLE
  5
A
330
0
100
AcDbSymbolTable
 70
     1
100
AcDbDimStyleTable
 71
     0
  0
DIMSTYLE
105
209
330
A
100
AcDbSymbolTableRecord
100
AcDbDimStyleTableRecord
  2
STANDARD
 70
     0
 41
0.1875
 47
0.01
 48
0.01
 78
     8
140
18.0
271
     2
272
     2
284
     8
340
11
  0
ENDTAB
  0
TABLE
  2
BLOCK_RECORD
  5
1
330
0
100
AcDbSymbolTable
 70
     0
  0
BLOCK_RECORD
  5
1B
330
1
100
AcDbSymbolTableRecord
100
AcDbBlockTableRecord
  2
*MODEL_SPACE
340
291
  0
BLOCK_RECORD
  5
1C
330
1
100
AcDbSymbolTableRecord
100
AcDbBlockTableRecord
  2
*PAPER_SPACE
340
292
  0
ENDTAB
  0
ENDSEC
  0
SECTION
  2
BLOCKS
  0
BLOCK
  5
1E
330
1B
100
AcDbEntity
  8
0
100
AcDbBlockBegin
  2
*MODEL_SPACE
 70
     0
 10
0.0
 20
0.0
 30
0.0
  3
*MODEL_SPACE
  1

  0
ENDBLK
  5
1F
330
1B
100
AcDbEntity
  8
0
100
AcDbBlockEnd
  0
BLOCK
  5
20
330
1C
100
AcDbEntity
 67
     1
  8
0
100
AcDbBlockBegin
  2
*PAPER_SPACE
 70
     0
 10
0.0
 20
0.0
 30
0.0
  3
*PAPER_SPACE
  1

  0
ENDBLK
  5
21
330
1C
100
AcDbEntity
 67
     1
  8
0
100
AcDbBlockEnd
  0
ENDSEC
  0
SECTION
  2
ENTITIES
  0
CIRCLE
  5
432
330
1B
100
AcDbEntity
  8
holes
100
AcDbCircle
 10
1.099740429742213
 20
1.004466531987976
 30
0.0
 40
0.125
  0
CIRCLE
  5
435
330
1B
100
AcDbEntity
  8
holes
100
AcDbCircle
 10
1.474740429742213
 20
1.004466531987976
 30
0.0
 40
0.06
  0
CIRCLE
  5
436
330
1B
100
AcDbEntity
  8
holes
100
AcDbCircle
 10
1.099740429742213
 20
1.379466531987976
 30
0.0
 40
0.06
  0
CIRCLE
  5
437
330
1B
100
AcDbEntity
  8
holes
100
AcDbCircle
 10
0.7247404297422137
 20
1.004466531987976
 30
0.0
 40
0.06
  0
CIRCLE
  5
438
330
1B
100
AcDbEntity
  8
holes
100
AcDbCircle
 10
1.099740429742213
 20
0.6294665319879761
 30
0.0
 40
0.06
  0
LWPOLYLINE
  5
439
330
1B
100
AcDbEntity
  8
0
  6
Continuous
100
AcDbPolyline
 90
      420
 70
     1
 43
0.0
 10
1.980548341197479
 20
1.051912350743073
 42
0.3252068830520546
 10
1.971782896256208
 20
1.062693193823854
 10
1.953424974783096
 20
1.067563158093683
 10
1.950972250566508
 20
1.094815156121072
 10
1.968165586990789
 20
1.102884791517205
 42
0.3252068830520545
 10
1.974865173762392
 20
1.115057512645638
 42
0.0044672027414247
 10
1.972749457095851
 20
1.130676360284265
 42
0.3252068830520546
 10
1.963052911934454
 20
1.140628074434381
 10
1.944332353826638
 20
1.143832842266608
 10
1.939446653287038
 20
1.170755271260226
 10
1.955847417851583
 20
1.180333619469632
 42
0.3252068830520565
 10
1.961428879748588
 20
1.193057883128826
 10
1.95792161762851
 20
1.208424202500228
 42
0.3252068830520546
 10
1.947372043127565
 20
1.217466662368767
 10
1.928439575307592
 20
1.218980430854209
 10
1.921160235233386
 20
1.245356527241881
 10
1.936636378628094
 20
1.256366469040866
 42
0.3252068830520545
 10
1.941054777000061
 20
1.269539826941706
 42
0.0044672027414247
 10
1.936184207835832
 20
1.284529897477128
 42
0.3252068830520546
 10
1.924866542969319
 20
1.292590298493351
 10
1.905874598537433
 20
1.292400879661457
 10
1.896260227893954
 20
1.318018278627956
 10
1.910687145311296
 20
1.33037116843376
 42
0.3252068830520547
 10
1.913906905811586
 20
1.34388755644624
 10
1.907712244565232
 20
1.358380686910216
 42
0.3252068830520547
 10
1.895717612511159
 20
1.365394131464249
 10
1.876819103437686
 20
1.363503050402556
 10
1.864947111485317
 20
1.388155495710282
 10
1.878208645869225
 20
1.401751875323064
 42
0.3252068830520545
 10
1.880203844880771
 20
1.415502467436187
 42
0.0044672027414247
 10
1.872734967319146
 20
1.4293819676653
 42
0.3252068830520546
 10
1.860159941806859
 20
1.435291987626197
 10
1.841507027773747
 20
1.431714470208913
 10
1.82747300080959
 20
1.455203474867445
 10
1.839462378083272
 20
1.469933874227635
 42
0.3252068830520545
 10
1.840216951435309
 20
1.483807958761019
 10
1.831533992572111
 20
1.496962079179468
 42
0.3252068830520546
 10
1.818479820308347
 20
1.50172109054035
 10
1.800222683612748
 20
1.496485940832826
 10
1.784139615371863
 20
1.518622385184318
 10
1.794760304118245
 20
1.534368203783017
 42
0.3252068830520545
 10
1.79426817643149
 20
1.548254074763864
 42
0.0044672027414247
 10
1.78444104634272
 20
1.560576906129227
 42
0.3252068830520546
 10
1.771012831851379
 20
1.564146592130466
 10
1.753298468221728
 20
1.55729596048118
 10
1.73529585011077
 20
1.5779016148952
 10
1.744462338790324
 20
1.594536076654119
 42
0.3252068830520545
 10
1.742727472385702
 20
1.608321933215869
 10
1.731835293347895
 20
1.619714259335292
 42
0.3252068830520547
 10
1.718141152712
 20
1.622065878962153
 10
1.701112187789696
 20
1.613654922627901
 10
1.681334966306753
 20
1.632563882487772
 10
1.688973451740569
 20
1.649953056506916
 42
0.3252068830520545
 10
1.686009814744284
 20
1.663527903036847
 42
0.0044672027414247
 10
1.674140284175212
 20
1.673897999599102
 42
0.3252068830520547
 10
1.660290474567343
 20
1.675012618995467
 10
1.644084015563642
 20
1.665109058052095
 10
1.622691425264569
 20
1.68216907953435
 10
1.628740406861613
 20
1.700172958404191
 42
0.3252068830520545
 10
1.624571860734032
 20
1.713427498221374
 10
1.611820545118003
 20
1.722691871306665
 42
0.3252068830520547
 10
1.597926577057592
 20
1.722560516209782
 10
1.582673108852659
 20
1.711244088305942
 10
1.559837390298874
 20
1.726317814145954
 10
1.564248165213314
 20
1.744791441224698
 42
0.3252068830520545
 10
1.558908272639051
 20
1.757618956566819
 42
0.0044672027414247
 10
1.545377838068446
 20
1.765703014889911
 42
0.3252068830520547
 10
1.531551577620511
 20
1.764326742896891
 10
1.517373912169858
 20
1.751688561256834
 10
1.49327892513676
 20
1.764654626679853
 10
1.496015980405648
 20
1.783449263180099
 42
0.3252068830520545
 10
1.489547735057545
 20
1.795746474437123
 10
1.47534712063901
 20
1.80258512991455
 42
0.3252068830520547
 10
1.461699888719547
 20
1.799975021954818
 10
1.448712176250683
 20
1.7861168417854
 10
1.423551919409668
 20
1.79687085165435
 10
1.424593217869784
 20
1.815835174218246
 42
0.3252068830520545
 10
1.417048698258556
 20
1.827503071474939
 42
0.0044672027414247
 10
1.402292238986399
 20
1.833041263272786
 42
0.3252068830520547
 10
1.388933915085477
 20
1.829218334404629
 10
1.377240725020875
 20
1.814251733624537
 10
1.351217773962419
 20
1.822707102977105
 10
1.350554931694757
 20
1.841688422026358
 42
0.3252068830520543
 10
1.341994881853707
 20
1.852633062235234
 10
1.326801388064383
 20
1.856826200090903
 42
0.3252068830520547
 10
1.313839525548729
 20
1.851821230285754
 10
1.303535004581016
 20
1.835866711163951
 10
1.276858880809566
 20
1.841955362336229
 10
1.274497234626071
 20
1.860800851454168
 42
0.3252068830520545
 10
1.264990575045839
 20
1.870934114807237
 42
0.0044672027414247
 10
1.249482375814789
 20
1.873748438038614
 42
0.3252068830520547
 10
1.237021335982314
 20
1.867601724374665
 10
1.228188450053632
 20
1.850787743318157
 10
1.201073934028592
 20
1.854460654072187
 10
1.197032498520256
 20
1.873018580458314
 42
0.3252068830520546
 10
1.186655771231373
 20
1.882258879877465
 10
1.170957729462905
 20
1.883671729210565
 42
0.3252068830520547
 10
1.159097841277375
 20
1.876432761407631
 10
1.151807707593301
 20
1.858894694705448
 10
1.124473109458616
 20
1.860122292922611
 10
1.118784423883013
 20
1.878243239068229
 42
0.3252068830520546
 10
1.10762117619479
 20
1.886516177095817
 42
0.0044672027414247
 10
1.091859683288326
 20
1.886516177096435
 42
0.3252068830520546
 10
1.080696435597497
 20
1.878243239071384
 10
1.0750077500262
 20
1.860122292924216
 10
1.047673151889521
 20
1.858894694705988
 10
1.040383018203044
 20
1.876432761405439
 42
0.3252068830520547
 10
1.028523130019404
 20
1.883671729208572
 10
1.012825088250606
 20
1.882258879879049
 42
0.3252068830520546
 10
1.002448360959833
 20
1.87301858045976
 10
0.9984069254543488
 20
1.85446065407137
 10
0.9712924094314612
 20
1.850787743316647
 10
0.9624595234988166
 20
1.86760172437086
 42
0.3252068830520543
 10
0.9499984836684465
 20
1.873748438037772
 42
0.0044672027414247
 10
0.9344902844371762
 20
1.87093411480761
 42
0.3252068830520546
 10
0.9249836248539349
 20
1.860800851456577
 10
0.9226219786749556
 20
1.841955362337877
 10
0.8959458549017327
 20
1.835866711164197
 10
0.8856413339321385
 20
1.851821230282883
 42
0.3252068830520546
 10
0.8726794714183139
 20
1.856826200088566
 10
0.8574859776280288
 20
1.852633062236353
 42
0.3252068830520547
 10
0.8489259277851353
 20
1.841688422026997
 10
0.8482630855206885
 20
1.822707102976035
 10
0.8222401344644758
 20
1.814251733623173
 10
0.8105469443963837
 20
1.829218334400302
 42
0.3252068830520546
 10
0.7971886204969981
 20
1.833041263271745
 42
0.0044672027414247
 10
0.7824321612244063
 20
1.827503071475053
 42
0.3252068830520545
 10
0.7748876416098583
 20
1.81583517421982
 10
0.7759289400745591
 20
1.796870851655988
 10
0.7507686832320442
 20
1.786116841785336
 10
0.7377809707618877
 20
1.799975021951354
 42
0.3252068830520546
 10
0.7241337388441292
 20
1.802585129911932
 10
0.7099331244240297
 20
1.795746474437738
 42
0.3252068830520547
 10
0.7034648790742022
 20
1.783449263179914
 10
0.7062019343465611
 20
1.764654626678566
 10
0.682106947315722
 20
1.751688561255651
 10
0.667929281862163
 20
1.764326742892166
 42
0.3252068830520542
 10
0.6541030214151533
 20
1.7657030148887
 42
0.0044672027414248
 10
0.6405725868439128
 20
1.757618956566663
 42
0.3252068830520545
 10
0.6352326942661222
 20
1.744791441225387
 10
0.6396434691850584
 20
1.72631781414752
 10
0.6168077506301071
 20
1.711244088305569
 10
0.6015542824245071
 20
1.722560516205838
 42
0.3252068830520543
 10
0.5876603143656212
 20
1.722691871303858
 10
0.5749089987474854
 20
1.713427498221484
 42
0.3252068830520547
 10
0.5707404526183542
 20
1.700172958403197
 10
0.5767894342190055
 20
1.682169079532886
 10
0.5553968439221358
 20
1.665109058051136
 10
0.5391903849162088
 20
1.675012618990511
 42
0.3252068830520546
 10
0.5253405753086274
 20
1.673897999597766
 42
0.0044672027414247
 10
0.5134710447387452
 20
1.663527903036442
 42
0.3252068830520547
 10
0.5105074077388299
 20
1.649953056506706
 10
0.5181458931769125
 20
1.632563882489233
 10
0.4983686716931715
 20
1.613654922627247
 10
0.4813397067708465
 20
1.622065878957869
 42
0.3252068830520547
 10
0.4676455661362447
 20
1.61971425933239
 10
0.4567533870958443
 20
1.608321933215449
 42
0.3252068830520547
 10
0.4550185206898885
 20
1.594536076652346
 10
0.4641850093730718
 20
1.577901614893605
 10
0.4461823912641912
 20
1.557295960480477
 10
0.4284680276330662
 20
1.564146592125428
 42
0.3252068830520547
 10
0.4150398131413607
 20
1.560576906127796
 42
0.0044672027414247
 10
0.4052126830516319
 20
1.548254074763214
 42
0.3252068830520547
 10
0.404720555361271
 20
1.534368203781912
 10
0.4153412441115521
 20
1.518622385185619
 10
0.3992581758702567
 20
1.496485940831906
 10
0.3810010391752883
 20
1.501721090535838
 42
0.3252068830520545
 10
0.3679468669125487
 20
1.496962079176562
 10
0.3592639080463567
 20
1.483807958760092
 42
0.3252068830520547
 10
0.3600184813973204
 20
1.469933874225134
 10
0.3720078586745483
 20
1.455203474865776
 10
0.3579738317122807
 20
1.43171447020849
 10
0.3393209176784868
 20
1.435291987621248
 42
0.3252068830520545
 10
0.326745892165194
 20
1.429381967663843
 42
0.0044672027414247
 10
0.3192770146024859
 20
1.415502467435313
 42
0.3252068830520547
 10
0.3212722136105661
 20
1.401751875321107
 10
0.3345337479978845
 20
1.38815549571138
 10
0.3226617560455072
 20
1.363503050401394
 10
0.3037632469732951
 20
1.365394131459677
 42
0.3252068830520546
 10
0.2917686149199472
 20
1.358380686907398
 10
0.285573953670287
 20
1.343887556444844
 42
0.3252068830520547
 10
0.288793714169806
 20
1.330371168430616
 10
0.3032206315904915
 20
1.318018278626261
 10
0.2936062609486392
 20
1.292400879661325
 10
0.2746143165168959
 20
1.292590298488647
 42
0.3252068830520547
 10
0.2632966516487762
 20
1.284529897475685
 42
0.0044672027414247
 10
0.2584260824833731
 20
1.269539826940643
 42
0.3252068830520547
 10
0.2628444808521184
 20
1.256366469038106
 10
0.2783206242496305
 20
1.245356527242741
 10
0.2710412841758281
 20
1.218980430852845
 10
0.2521088163577048
 20
1.217466662364277
 42
0.3252068830520545
 10
0.2415592418571553
 20
1.208424202497592
 10
0.2380519797335765
 20
1.193057883126982
 42
0.3252068830520547
 10
0.2436334416299672
 20
1.18033361946561
 10
0.260034206197707
 20
1.17075527125856
 10
0.2551485056594345
 20
1.143832842266771
 10
0.2364279475503945
 20
1.140628074431681
 42
0.3252068830520549
 10
0.2267314023885145
 20
1.130676360283828
 42
0.0044672027414247
 10
0.2246156857209058
 20
1.115057512643144
 42
0.3252068830520547
 10
0.2313152724912797
 20
1.102884791514359
 10
0.2485086089163868
 20
1.094815156121672
 10
0.2460558847005885
 20
1.067563158092163
 10
0.2276979632299039
 20
1.062693193821477
 42
0.3252068830520546
 10
0.2189325182868309
 20
1.051912350740682
 10
0.2182253815797654
 20
1.036166728610051
 42
0.3252068830520547
 10
0.2259891520952326
 20
1.024643557605145
 10
0.2438366297422227
 20
1.018147606987866
 10
0.2438366297427912
 20
0.9907854569888705
 10
0.2259891520974122
 20
0.9842895063664975
 42
0.3252068830520546
 10
0.2182253815816217
 20
0.972766335364767
 42
0.0044672027414248
 10
0.2189325182869037
 20
0.95702071323376
 42
0.3252068830520547
 10
0.2276979632293994
 20
0.9462398701520342
 10
0.2460558847003504
 20
0.9413699058818423
 10
0.2485086089169624
 20
0.9141179078524075
 10
0.2313152724948804
 20
0.906048272457955
 42
0.3252068830520545
 10
0.2246156857218349
 20
0.893875551330499
 10
0.2267314023868927
 20
0.8782567036906705
 42
0.3252068830520547
 10
0.2364279475487976
 20
0.868304989541528
 10
0.2551485056587293
 20
0.8651002217098557
 10
0.2600342061981227
 20
0.8381777927182696
 10
0.2436334416315393
 20
0.8285994445069952
 42
0.3252068830520546
 10
0.2380519797360616
 20
0.8158751808469553
 42
0.0044672027414247
 10
0.241559241857507
 20
0.800508861476878
 42
0.3252068830520547
 10
0.2521088163576408
 20
0.7914664016091884
 10
0.2710412841759453
 20
0.7899526331211426
 10
0.2783206242505365
 20
0.7635765367314669
 10
0.2628444808563088
 20
0.7525665949349083
 42
0.3252068830520546
 10
0.2584260824846947
 20
0.7393932370332159
 10
0.2632966516474369
 20
0.7244031664985613
 42
0.3252068830520547
 10
0.2746143165158088
 20
0.7163427654843311
 10
0.2936062609478291
 20
0.7165321843151631
 10
0.3032206315907473
 20
0.6909147853506319
 10
0.2887937141719483
 20
0.6785618955423196
 42
0.3252068830520546
 10
0.2855739536730866
 20
0.6650455075295838
 42
0.0044672027414247
 10
0.2917686149205565
 20
0.6505523770671609
 42
0.3252068830520547
 10
0.3037632469736788
 20
0.6435389325138204
 10
0.3226617560459708
 20
0.6454300135726499
 10
0.33453374799908
 20
0.6207775682630193
 10
0.3212722136152131
 20
0.6071811886527066
 42
0.3252068830520546
 10
0.3192770146041646
 20
0.5934305965388127
 10
0.3267458921641797
 20
0.5795510963101834
 42
0.3252068830520547
 10
0.3393209176779486
 20
0.5736410763515778
 10
0.357973831711389
 20
0.5772185937678494
 10
0.3720078586746336
 20
0.5537295891111463
 10
0.3600184813999707
 20
0.5389991897482389
 42
0.3252068830520546
 10
0.3592639080493853
 20
0.5251251052148547
 42
0.0044672027414247
 10
0.3679468669133943
 20
0.5119709847981291
 42
0.3252068830520547
 10
0.3810010391761072
 20
0.5072119734377587
 10
0.3992581758710525
 20
0.512447123142259
 10
0.4153412441130051
 20
0.4903106787890224
 10
0.4047205553662199
 20
0.4745648601927677
 42
0.3252068830520546
 10
0.4052126830536072
 20
0.4606789892112389
 10
0.4150398131407105
 20
0.4483561578460851
 42
0.3252068830520547
 10
0.4284680276330999
 20
0.4447864718473582
 10
0.4461823912632426
 20
0.451637103495699
 10
0.4641850093729829
 20
0.4310314490833172
 10
0.4550185206929545
 20
0.4143969873215454
 42
0.3252068830520546
 10
0.4567533870990009
 20
0.4006111307600549
 42
0.0044672027414247
 10
0.4676455661373052
 20
0.3892188046424749
 42
0.3252068830520547
 10
0.4813397067720669
 20
0.3868671850159266
 10
0.4983686716942746
 20
0.3952781413470845
 10
0.518145893178577
 20
0.3763691814856855
 10
0.5105074077439298
 20
0.3589800074688796
 42
0.3252068830520546
 10
0.5134710447409532
 20
0.345405160938391
 10
0.5253405753083502
 20
0.3350350643760329
 42
0.3252068830520547
 10
0.5391903849167985
 20
0.3339204449823292
 10
0.5553968439211605
 20
0.3438240059248621
 10
0.5767894342187408
 20
0.3267639844440069
 10
0.5707404526217382
 20
0.3087601055712668
 42
0.3252068830520547
 10
0.574908998750674
 20
0.2955055657545991
 42
0.0044672027414245
 10
0.5876603143668629
 20
0.2862411926712127
 42
0.3252068830520547
 10
0.6015542824261005
 20
0.2863725477681989
 10
0.6168077506314873
 20
0.2976889756689829
 10
0.639643469186888
 20
0.2826152498277139
 10
0.6352326942712132
 20
0.264141622751108
 42
0.3252068830520545
 10
0.6405725868463002
 20
0.2513141074085752
 10
0.6541030214152741
 20
0.2432300490850814
 42
0.3252068830520547
 10
0.667929281863307
 20
0.2446063210808198
 10
0.6821069473147592
 20
0.257244502720166
 10
0.7062019343461384
 20
0.2442784372982594
 10
0.7034648790778047
 20
0.2254838007951783
 42
0.3252068830520547
 10
0.7099331244271525
 20
0.2131865895388962
 42
0.0044672027414245
 10
0.7241337388455023
 20
0.2063479340633627
 42
0.3252068830520547
 10
0.737780970763799
 20
0.2089580420229922
 10
0.7507686832336536
 20
0.2228162221894863
 10
0.7759289400764811
 20
0.2120622123195837
 10
0.7748876416147681
 20
0.1930978897575741
 42
0.3252068830520545
 10
0.782432161226879
 20
0.1814299925006253
 10
0.7971886204975043
 20
0.1758918007020895
 42
0.3252068830520547
 10
0.8105469443980375
 20
0.1797147295729431
 10
0.8222401344635485
 20
0.1946813303524806
 10
0.8482630855201165
 20
0.186225961000698
 10
0.8489259277888336
 20
0.1672446419487485
 42
0.3252068830520545
 10
0.8574859776309757
 20
0.1563000017408278
 42
0.0044672027414248
 10
0.8726794714197794
 20
0.152106863886992
 42
0.3252068830520545
 10
0.8856413339342967
 20
0.157111833691836
 10
0.895945854903509
 20
0.1730663528109311
 10
0.9226219786769114
 20
0.1669777016380429
 10
0.9249836248585019
 20
0.1481322125216735
 42
0.3252068830520543
 10
0.9344902844396507
 20
0.1379989491685158
 10
0.9499984836693187
 20
0.1351846259361888
 42
0.3252068830520547
 10
0.9624595235009216
 20
0.141331339602722
 10
0.9712924094305996
 20
0.1581453206588428
 10
0.9984069254536382
 20
0.1544724099052495
 10
1.002448360963501
 20
0.1359144835166504
 42
0.3252068830520545
 10
1.012825088253279
 20
0.1266741840986452
 42
0.0044672027414248
 10
1.028523130020918
 20
0.125261334767254
 42
0.3252068830520545
 10
1.040383018205384
 20
0.132500302569678
 10
1.047673151891414
 20
0.1500383692694704
 10
1.075007750028131
 20
0.1488107710520516
 10
1.080696435601579
 20
0.1306898249076411
 42
0.3252068830520546
 10
1.091859683290724
 20
0.1224168868801225
 10
1.107621176195996
 20
0.1224168868783284
 42
0.3252068830520547
 10
1.118784423885507
 20
0.1306898249057671
 10
1.12447310945785
 20
0.1488107710527409
 10
1.151807707592483
 20
0.1500383692710372
 10
1.1590978412809
 20
0.1325003025694293
 42
0.3252068830520545
 10
1.170957729465222
 20
0.1252613347675737
 42
0.0044672027414248
 10
1.18665577123289
 20
0.1266741840986381
 42
0.3252068830520545
 10
1.197032498522711
 20
0.1359144835172348
 10
1.201073934030549
 20
0.1544724099036223
 10
1.228188450055478
 20
0.1581453206584555
 10
1.237021335985788
 20
0.1413313396050473
 42
0.3252068830520546
 10
1.249482375817049
 20
0.135184625938372
 10
1.264990575047351
 20
0.1379989491671623
 42
0.3252068830520547
 10
1.274497234628874
 20
0.1481322125203022
 10
1.276858880808923
 20
0.1669777016389879
 10
1.303535004580121
 20
0.1730663528123735
 10
1.313839525552003
 20
0.1571118336919142
 42
0.3252068830520545
 10
1.326801388066275
 20
0.1521068638876137
 42
0.0044672027414248
 10
1.341994881855168
 20
0.1563000017411298
 42
0.3252068830520545
 10
1.350554931697248
 20
0.1672446419496438
 10
1.351217773964368
 20
0.1862259609990495
 10
1.377240725022572
 20
0.1946813303523918
 10
1.38893391508822
 20
0.1797147295756325
 42
0.3252068830520545
 10
1.402292238988442
 20
0.17589180070458
 10
1.417048698260327
 20
0.1814299924997478
 42
0.3252068830520545
 10
1.424593217872812
 20
0.1930978897567499
 10
1.423551919409167
 20
0.2120622123207632
 10
1.448712176249735
 20
0.2228162221907652
 10
1.46169988872246
 20
0.2089580420234114
 42
0.3252068830520543
 10
1.475347120640421
 20
0.2063479340642651
 42
0.0044672027414248
 10
1.489547735058913
 20
0.2131865895395038
 42
0.3252068830520545
 10
1.496015980408095
 20
0.2254838007963436
 10
1.493278925138643
 20
0.2442784372966464
 10
1.517373912171358
 20
0.2572445027203827
 10
1.531551577622444
 20
0.2446063210837934
 42
0.3252068830520545
 10
1.545377838070201
 20
0.2432300490877992
 10
1.558908272641023
 20
0.2513141074082092
 42
0.3252068830520545
 10
1.564248165216461
 20
0.2641416227508593
 10
1.559837390298525
 20
0.2826152498290923
 10
1.582673108851686
 20
0.2976889756700593
 10
1.597926577060054
 20
0.2863725477689343
 42
0.3252068830520545
 10
1.61182054511887
 20
0.2862411926723602
 42
0.0044672027414248
 10
1.624571860735255
 20
0.2955055657554801
 42
0.3252068830520545
 10
1.628740406863926
 20
0.3087601055726807
 10
1.622691425266317
 20
0.3267639844424792
 10
1.644084015564885
 20
0.3438240059253736
 10
1.660290474568395
 20
0.3339204449854911
 42
0.3252068830520545
 10
1.674140284176619
 20
0.3350350643788964
 10
1.68600981474638
 20
0.3454051609385473
 42
0.3252068830520545
 10
1.688973451743734
 20
0.3589800074692029
 10
1.681334966306572
 20
0.3763691814872168
 10
1.701112187788734
 20
0.3952781413479123
 10
1.718141152713929
 20
0.3868671850169498
 42
0.3252068830520545
 10
1.731835293348208
 20
0.3892188046438285
 42
0.0044672027414248
 10
1.742727472386746
 20
0.4006111307611811
 42
0.3252068830520545
 10
1.744462338792438
 20
0.4143969873231513
 10
1.735295850112343
 20
0.4310314490819316
 10
1.753298468222684
 20
0.4516371034964877
 10
1.771012831851521
 20
0.4447864718505983
 42
0.3252068830520545
 10
1.784441046343751
 20
0.4483561578489948
 10
1.794268176433657
 20
0.4606789892119139
 42
0.3252068830520545
 10
1.794760304121336
 20
0.4745648601936736
 10
1.784139615371863
 20
0.4903106787906637
 10
1.800222683611828
 20
0.5124471231428203
 10
1.818479820309683
 20
0.5072119734390555
 42
0.3252068830520545
 10
1.831533992571849
 20
0.5119709847996639
 42
0.0044672027414248
 10
1.840216951436136
 20
0.5251251052162083
 42
0.3252068830520545
 10
1.839462378085123
 20
0.5389991897499904
 10
1.827473000810929
 20
0.5537295891099419
 10
1.841507027774376
 20
0.5772185937688903
 10
1.860159941806085
 20
0.5736410763548108
 42
0.3252068830520545
 10
1.872734967319754
 20
0.5795510963130575
 10
1.880203844882938
 20
0.5934305965399816
 42
0.3252068830520545
 10
1.878208645872128
 20
0.6071811886541561
 10
1.864947111485488
 20
0.6207775682647103
 10
1.876819103436833
 20
0.645430013572927
 10
1.895717612511848
 20
0.6435389325153338
 42
0.3252068830520545
 10
1.907712244564407
 20
0.6505523770688165
 42
0.0044672027414248
 10
1.913906905812176
 20
0.6650455075311115
 42
0.3252068830520545
 10
1.91068714531281
 20
0.6785618955441599
 10
1.896260227895005
 20
0.6909147853496478
 10
1.905874598537728
 20
0.7165321843164314
 10
1.924866542967656
 20
0.7163427654874362
 42
0.3252068830520545
 10
1.936184207835992
 20
0.7244031665013005
 10
1.94105477700215
 20
0.7393932370348466
 42
0.3252068830520545
 10
1.93663637863073
 20
0.7525665949368552
 10
1.921160235233728
 20
0.7635765367331544
 10
1.928439575306832
 20
0.7899526331211249
 10
1.947372043127604
 20
0.7914664016108759
 42
0.3252068830520545
 10
1.95792161762715
 20
0.8005088614786011
 42
0.0044672027414248
 10
1.961428879748918
 20
0.8158751808486037
 42
0.3252068830520545
 10
1.95584741785289
 20
0.8285994445088675
 10
1.939446653287781
 20
0.8381777927175342
 10
1.944332353826585
 20
0.8651002217112981
 10
1.963052911934131
 20
0.8683049895444128
 42
0.3252068830520545
 10
1.972749457096067
 20
0.8782567036931858
 10
1.974865173764683
 20
0.8938755513325311
 42
0.3252068830520545
 10
1.968165586991769
 20
0.9060482724603389
 10
1.950972250567005
 20
0.9141179078540382
 10
1.953424974782457
 20
0.9413699058815296
 10
1.971782896255529
 20
0.946239870153839
 42
0.3252068830520545
 10
1.980548341197437
 20
0.9570207132354937
 42
0.0044672027414248
 10
1.981255477902823
 20
0.972766335365204
 42
0.3252068830520545
 10
1.973491707387911
 20
0.9842895063690768
 10
1.955644229743224
 20
0.9907854569884158
 10
1.955644229742816
 20
1.018147606989451
 10
1.973491707387083
 20
1.024643557609618
 42
0.3252068830520545
 10
1.981255477902767
 20
1.036166728612265
  0
LWPOLYLINE
  5
43D
330
1B
100
AcDbEntity
  8
outline
  6
Continuous
100
AcDbPolyline
 90
      420
 70
     1
 43
0.0
 10
1.985542392637323
 20
1.052157024300499
 42
0.3256065524937995
 10
1.97306494562505
 20
1.067526034542918
 10
1.958091015653911
 20
1.071498298180999
 10
1.956265952635599
 20
1.091776409123313
 10
1.970289970330294
 20
1.098358535290826
 42
0.3252068830201915
 10
1.979825721174877
 20
1.115684385334855
 42
0.0044672027414221
 10
1.977698011803229
 20
1.131391766677921
 42
0.3252068830343267
 10
1.96389658764723
 20
1.145556381576968
 10
1.948626867350888
 20
1.148170401315641
 10
1.944991435648736
 20
1.168203281159393
 10
1.958368979528517
 20
1.176016012874605
 42
0.3256065524942587
 10
1.966308052042539
 20
1.194150628597565
 10
1.962791724456683
 20
1.209556666369713
 42
0.3256065526163069
 10
1.947770552402533
 20
1.222450756103617
 10
1.932327984587312
 20
1.223685485390642
 10
1.926911454560332
 20
1.243311841162177
 10
1.939534816510704
 20
1.252292274906973
 42
0.3252068830592973
 10
1.94582367393357
 20
1.271042365472851
 42
0.0044672027419506
 10
1.940925496488509
 20
1.286117405559626
 42
0.3252068830518521
 10
1.924816677246904
 20
1.29759004982814
 10
1.909325596387644
 20
1.297435547352016
 10
1.902171578749954
 20
1.316497359178706
 10
1.913939122881205
 20
1.326573189775999
 42
0.3256065524935095
 10
1.918512550561749
 20
1.345833950899788
 10
1.912301877541091
 20
1.360364542772019
 42
0.3256065526158018
 10
1.895219773277452
 20
1.370369285341003
 10
1.879804904452701
 20
1.368826795063615
 10
1.870970999148848
 20
1.38717058844139
 10
1.881787980115994
 20
1.398260691233117
 42
0.3252068830593088
 10
1.884627815064189
 20
1.417832378983054
 42
0.0044672027419855
 10
1.877116600998918
 20
1.431790553618985
 42
0.325206883052336
 10
1.859218137374014
 20
1.44020248703158
 10
1.844003592039589
 20
1.437284428178506
 10
1.833560924479494
 20
1.454762509672366
 10
1.843340250311405
 20
1.466777593666235
 42
0.3256065524932268
 10
1.844401039429899
 20
1.48654544348007
 10
1.835695637115456
 20
1.499733564273844
 42
0.3256065526159164
 10
1.817101633528558
 20
1.506527399019839
 10
1.802209910261709
 20
1.502257266084714
 10
1.790242558666003
 20
1.518728912456247
 10
1.798905491981398
 20
1.531572239266224
 42
0.3252068830592376
 10
1.798205029823073
 20
1.551336474052273
 42
0.0044672027419595
 10
1.788322195737914
 20
1.563729156019733
 42
0.3252068830518878
 10
1.769209359077491
 20
1.568810012115181
 10
1.75476035727352
 20
1.563222185697687
 10
1.741364675718667
 20
1.578554776938488
 10
1.748841467672545
 20
1.592122939643318
 42
0.3256065524925606
 10
1.746355523593914
 20
1.61176252318913
 10
1.735435190778888
 20
1.623184295850926
 42
0.3256065526157373
 10
1.715926914443209
 20
1.626548863335204
 10
1.702036968973011
 20
1.619688333328359
 10
1.687320811612511
 20
1.633758420426349
 10
1.693551263471511
 20
1.647942176163373
 42
0.3252068830592329
 10
1.68933301763677
 20
1.667263719217466
 42
0.0044672027419462
 10
1.677396205950834
 20
1.677692597521285
 42
0.3252068830515719
 10
1.657683298551271
 20
1.679279073404132
 10
1.644464243084411
 20
1.671201076760944
 10
1.628546095761974
 20
1.683895375650511
 10
1.63348004359249
 20
1.698580525153056
 42
0.3256065524930376
 10
1.627527266604818
 20
1.717460610056228
 10
1.614742991771219
 20
1.726748929414778
 42
0.3256065526158749
 10
1.594947454739638
 20
1.726576089670033
 10
1.582505721342184
 20
1.717345665670751
 10
1.565513747622951
 20
1.728561969318964
 10
1.569111466176923
 20
1.743630276405494
 42
0.3252068830593133
 10
1.561511014557129
 20
1.761888117433766
 42
0.0044672027419393
 10
1.547903884219642
 20
1.770017999344348
 42
0.3252068830517902
 10
1.528224495144603
 20
1.768059104374361
 10
1.516660257334235
 20
1.757750570964192
 10
1.498731266596646
 20
1.767398572291312
 10
1.500963789160863
 20
1.782728715803578
 42
0.3256065524926639
 10
1.491735506414545
 20
1.800242480600709
 10
1.477498186674402
 20
1.807098812429403
 42
0.3256065526158156
 10
1.45805163379496
 20
1.803394120667231
 10
1.447458000018731
 20
1.79209047609766
 10
1.428736345957147
 20
1.800092495068037
 10
1.429585697570606
 20
1.815561045713925
 42
0.3252068830592158
 10
1.418847324935446
 20
1.832168362685269
 42
0.0044672027419272
 10
1.404007220311444
 20
1.837737947108722
 42
0.3252068830521749
 10
1.384993861318039
 20
1.832296641782019
 10
1.375456125282475
 20
1.820088896350572
 10
1.356092543644066
 20
1.826380505414185
 10
1.355551885829848
 20
1.84186291951
 42
0.3256065524926714
 10
1.343344701925382
 20
1.857447457390144
 10
1.328111936449666
 20
1.861651433542596
 42
0.3256065526158986
 10
1.309639395932578
 20
1.854533961604468
 10
1.301234349883621
 20
1.841520404901745
 10
1.281384744845452
 20
1.846050947720497
 10
1.279458430658695
 20
1.861422569980414
 42
0.3252068830593416
 10
1.265927277140221
 20
1.875845590062838
 42
0.0044672027419548
 10
1.250331171402793
 20
1.878675865973123
 42
0.325206883051853
 10
1.23259494749332
 20
1.869927038320029
 10
1.225390263916418
 20
1.856212447850021
 10
1.205214452823459
 20
1.858945447158074
 10
1.201917991817813
 20
1.874082514309417
 42
0.3256065524936135
 10
1.187124255689927
 20
1.887236925402126
 10
1.171385638094686
 20
1.888653426625739
 42
0.3256065526161593
 10
1.154480832591403
 20
1.878351935916021
 10
1.148534519365422
 20
1.864046733500167
 10
1.128194945988901
 20
1.864960184793354
 10
1.123554879324865
 20
1.879740822080053
 42
0.3252068830592756
 10
1.107665847330637
 20
1.891515977540797
 42
0.0044672027419451
 10
1.091815012150706
 20
1.8915159775414
 42
0.3252068830517602
 10
1.075925980155028
 20
1.879740822081242
 10
1.07128591349498
 20
1.864960184794793
 10
1.050946340116708
 20
1.864046733500801
 10
1.045000026888687
 20
1.878351935914623
 42
0.3256065524932812
 10
1.028095221388943
 20
1.88865342662386
 10
1.012356603793348
 20
1.887236925403832
 42
0.325606552616054
 10
0.9975628676620935
 20
1.874082514310023
 10
0.9942664066588186
 20
1.858945447157041
 10
0.9740905955677238
 20
1.856212447848508
 10
0.9668859119868521
 20
1.869927038318048
 42
0.3252068830592835
 10
0.9491496880786939
 20
1.87867586597198
 42
0.004467202741953
 10
0.9335535823410527
 20
1.875845590062879
 42
0.3252068830517554
 10
0.9200224288210543
 20
1.861422569980774
 10
0.9180961146381784
 20
1.846050947721815
 10
0.8982465095984309
 20
1.841520404901959
 10
0.8898414635478221
 20
1.854533961602321
 42
0.3256065524930614
 10
0.8713689230342994
 20
1.861651433540604
 10
0.8561361575576766
 20
1.857447457391632
 42
0.3256065526164317
 10
0.8439289736500143
 20
1.841862919509779
 10
0.8433883158384258
 20
1.826380505412784
 10
0.8240247342019417
 20
1.820088896349035
 10
0.8144869981625502
 20
1.83229664177932
 42
0.3252068830592903
 10
0.7954736391702915
 20
1.837737947107075
 42
0.0044672027419345
 10
0.7806335345458655
 20
1.832168362684747
 42
0.3252068830515542
 10
0.7698951619091494
 20
1.81556104571344
 10
0.7707445135262604
 20
1.800092495069188
 10
0.7520228594633162
 20
1.792090476097441
 10
0.7414292256858862
 20
1.803394120664395
 42
0.3256065524932352
 10
0.7219826728099232
 20
1.807098812427351
 10
0.7077453530682483
 20
1.800242480601916
 42
0.325606552616
 10
0.6985170703191108
 20
1.78272871580254
 10
0.7007495928861279
 20
1.767398572289589
 10
0.6828206021504549
 20
1.757750570962673
 10
0.67125636433653
 20
1.76805910437101
 42
0.3252068830593233
 10
0.6515769752624239
 20
1.770017999342239
 42
0.0044672027419449
 10
0.6379698449243216
 20
1.761888117432688
 42
0.3252068830522198
 10
0.630369393302992
 20
1.743630276404176
 10
0.6339671118602621
 20
1.728561969319907
 10
0.6169751381399413
 20
1.717345665670104
 10
0.6045334047417699
 20
1.726576089666601
 42
0.3256065524931713
 10
0.5847378677134802
 20
1.726748929412747
 10
0.5719535928777794
 20
1.717460610057128
 42
0.3256065526160228
 10
0.5660008158877514
 20
1.698580525151245
 10
0.5709347637211418
 20
1.683895375648521
 10
0.5550166164005518
 20
1.671201076759496
 10
0.5417975609305208
 20
1.679279073400251
 42
0.3252068830593783
 10
0.5220846535316612
 20
1.677692597518795
 42
0.00446720274195
 10
0.5101478418449334
 20
1.667263719215881
 42
0.3252068830521369
 10
0.5059295960077695
 20
1.647942176163432
 10
0.5121600478705593
 20
1.633758420427067
 10
0.4974438905092748
 20
1.619688333327322
 10
0.4835539450388671
 20
1.626548863331301
 42
0.3256065524931552
 10
0.4640456687061592
 20
1.623184295848966
 10
0.4531253358885614
 20
1.611762523189689
 42
0.3256065526158205
 10
0.4506393918080819
 20
1.592122939640793
 10
0.4581161837648174
 20
1.578554776936294
 10
0.4447205022116846
 20
1.563222185696356
 10
0.4302715004050255
 20
1.56881001211089
 42
0.3252068830592671
 10
0.4111586637450558
 20
1.563729156016932
 42
0.0044672027419497
 10
0.4012758296589577
 20
1.551336474050229
 42
0.3252068830520969
 10
0.4005753674979541
 20
1.531572239265362
 10
0.4092383008169579
 20
1.518728912456711
 10
0.39727094922079
 20
1.50225726608331
 10
0.3823792259542472
 20
1.506527399015566
 42
0.3256065524930074
 10
0.3637852223699373
 20
1.499733564272041
 10
0.3550798200525
 20
1.486545443480262
 42
0.3256065526163191
 10
0.3561406091697312
 20
1.466777593663065
 10
0.3659199350043987
 20
1.454762509670042
 10
0.3554772674458469
 20
1.437284428177338
 10
0.340262722109309
 20
1.440202487027019
 42
0.3252068830592487
 10
0.3223642584845653
 20
1.431790553615969
 42
0.0044672027419509
 10
0.3148530444182402
 20
1.41783237898061
 42
0.3252068830517835
 10
0.3176928793635908
 20
1.39826069123137
 10
0.3285098603340563
 20
1.387170588441585
 10
0.3196759550300817
 20
1.368826795061888
 10
0.3042610862061458
 20
1.370369285336517
 42
0.3256065524928112
 10
0.2871789819446158
 20
1.360364542770424
 10
0.2809683089206274
 20
1.345833950899582
 42
0.3256065526158458
 10
0.2855417366005524
 20
1.326573189772294
 10
0.2973092807343654
 20
1.316497359176324
 10
0.2901552630979809
 20
1.297435547351046
 10
0.2746641822372495
 20
1.297590049823457
 42
0.3252068830593802
 10
0.2585553629955361
 20
1.286117405556501
 42
0.0044672027419505
 10
0.2536571855493297
 20
1.27104236547009
 42
0.3252068830518975
 10
0.2599460429692674
 20
1.252292274904383
 10
0.2725694049225553
 20
1.243311841162094
 10
0.2671528748958045
 20
1.223685485388649
 10
0.2517103070818798
 20
1.222450756099058
 42
0.3256065524927681
 10
0.2366891350292896
 20
1.209556666368401
 10
0.2331728074399271
 20
1.194150628597065
 42
0.3256065526161343
 10
0.241111879953861
 20
1.1760160128701
 10
0.2544894238359973
 20
1.168203281156955
 10
0.2508539921349613
 20
1.148170401315278
 10
0.2355842718349941
 20
1.145556381573819
 42
0.3252068830592649
 10
0.221782847681127
 20
1.131391766677421
 42
0.0044672027419442
 10
0.2196551383083915
 20
1.115684385332128
 42
0.3252068830521183
 10
0.2291908891509546
 20
1.098358535288365
 10
0.2432149068473547
 20
1.091776409123179
 10
0.2413898438296203
 20
1.071498298179162
 10
0.2264159138614171
 20
1.067526034540636
 42
0.3256065524927887
 10
0.2139384668470144
 20
1.052157024298667
 10
0.2132295023542292
 20
1.036370703356914
 42
0.3256065526160093
 10
0.2242790513792918
 20
1.019945094500965
 10
0.2388366297422952
 20
1.014646569296246
 10
0.2388366297427185
 20
0.9942864946793905
 10
0.2242790513779429
 20
0.9889879694693931
 42
0.3252068830520534
 10
0.2132286114400496
 20
0.97258664632144
 42
0.0044672027412018
 10
0.2139397564712162
 20
0.9567517718799072
 42
0.3252068830520561
 10
0.2264159138606805
 20
0.9414070294329366
 10
0.2413898438294995
 20
0.9374347657947087
 10
0.2432149068478806
 20
0.9171566548502898
 10
0.2291908891552242
 20
0.9105745286842628
 42
0.325606552493972
 10
0.2196582025924581
 20
0.8932245705662229
 10
0.2217793878985001
 20
0.8775653517974342
 42
0.3256065525033284
 10
0.2355842718363913
 20
0.8633766823988779
 10
0.2508539921345325
 20
0.8607626626606441
 10
0.2544894238364272
 20
0.8407297828189786
 10
0.2411118799544714
 20
0.8329170511019437
 42
0.3252068830520552
 10
0.2331675944641282
 20
0.814806171719155
 42
0.0044672027414203
 10
0.2366947371112409
 20
0.799352750074999
 42
0.3252068830520644
 10
0.2517103070815713
 20
0.7864823078744272
 10
0.2671528748960608
 20
0.7852475785852279
 10
0.2725694049235205
 20
0.7656212228115042
 10
0.259946042974063
 20
0.7566407890690608
 42
0.3256065524939011
 10
0.2536645052525639
 20
0.737867525004042
 10
0.258547663716408
 20
0.7228387085846264
 42
0.3256065525033204
 10
0.2746641822391957
 20
0.7113430141495514
 10
0.2901552630975679
 20
0.7114975166247993
 10
0.2973092807347956
 20
0.6924357047996909
 10
0.2855417366018481
 20
0.682359874199917
 42
0.3252068830520568
 10
0.2809589414322871
 20
0.6631215371511031
 42
0.0044672027414374
 10
0.2871887164287853
 20
0.6485462539889148
 42
0.325206883052066
 10
0.3042610862062885
 20
0.6385637786369564
 10
0.3196759550307014
 20
0.6401062689120717
 10
0.3285098603354193
 20
0.6217624755322265
 10
0.3176928793687551
 20
0.6106723727429736
 42
0.3256065524941254
 10
0.3148643842793668
 20
0.5910791908847012
 10
0.3223525671700953
 20
0.5771638153401497
 42
0.3256065525034038
 10
0.340262722111749
 20
0.5687305769463773
 10
0.3554772674454615
 20
0.5716486357984382
 10
0.3659199350048116
 20
0.5541705543060483
 10
0.3561406091716786
 20
0.542155470309444
 42
0.3252068830520452
 10
0.3550665991303836
 20
0.5224080115767061
 42
0.0044672027414188
 10
0.3637987763819985
 20
0.5091793284898875
 42
0.3252068830520483
 10
0.3823792259548356
 20
0.5024056649579649
 10
0.3972709492217555
 20
0.5066757978907975
 10
0.409238300818681
 20
0.4902041515173823
 10
0.4005753675033172
 20
0.4773608247099325
 42
0.3256065524940852
 10
0.4012908252054997
 20
0.4575774660446723
 10
0.4111433561637261
 20
0.4452227829945806
 42
0.3256065525033071
 10
0.4302715004078933
 20
0.4401230518629928
 10
0.4447205022113345
 20
0.4457108782793567
 10
0.4581161837651993
 20
0.4303782870398684
 10
0.450639391810611
 20
0.4168101243321242
 42
0.3252068830520497
 10
0.4531086864640112
 20
0.3971882434873995
 42
0.0044672027414095
 10
0.4640626066090239
 20
0.3857313412349681
 42
0.3252068830520563
 10
0.4835539450398696
 20
0.3823842006423873
 10
0.497443890510552
 20
0.3892447306469865
 10
0.5121600478725871
 20
0.3751746435473598
 10
0.5059295960131679
 20
0.3609908878128331
 42
0.3256065524940231
 10
0.5101660111076873
 20
0.3416532057658851
 10
0.5220662216817136
 20
0.3312563048889441
 42
0.3256065525034097
 10
0.5417975609336996
 20
0.3296539905741707
 10
0.5550166164002476
 20
0.3377319872161542
 10
0.5709347637214767
 20
0.3250376883277069
 10
0.5660008158907805
 20
0.310352538822162
 42
0.325206883052056
 10
0.5719340500769757
 20
0.2914868992607407
 42
0.0044672027414328
 10
0.5847576451090059
 20
0.2821700121078514
 42
0.325206883052054
 10
0.6045334047431683
 20
0.2823569743072908
 10
0.6169751381414989
 20
0.2915873983044552
 10
0.6339671118625374
 20
0.280371094654908
 10
0.6303693933082546
 20
0.2653027875730372
 42
0.3256065524940511
 10
0.6379906039282438
 20
0.2470323111564892
 10
0.6515560115587001
 20
0.23892735740149
 42
0.3256065525032941
 10
0.6712563643399393
 20
0.2408739596039952
 10
0.6828206021502156
 20
0.2511824930129206
 10
0.7007495928864135
 20
0.2415344916866886
 10
0.6985170703225526
 20
0.2262043481714497
 42
0.3252068830520516
 10
0.7077235450129117
 20
0.2087013070715189
 42
0.0044672027414172
 10
0.7220046540363452
 20
0.2018238874372307
 42
0.3252068830520565
 10
0.7414292256876325
 20
0.205538943309775
 10
0.7520228594650997
 20
0.2168425878774191
 10
0.7707445135286969
 20
0.2088405689060501
 10
0.7698951619140999
 20
0.1933720182646927
 42
0.3256065524938829
 10
0.7806562160794711
 20
0.1767559756235793
 10
0.7954508174034676
 20
0.1712034688729751
 42
0.3256065525033316
 10
0.8144869981660738
 20
0.1766364221963186
 10
0.8240247342017658
 20
0.1888441676265275
 10
0.8433883158386487
 20
0.1825525585635376
 10
0.8439289736537402
 20
0.1670701444651782
 42
0.3252068830200972
 10
0.856112785174748
 20
0.151492263969468
 42
0.0044672027414265
 10
0.8713924015968926
 20
0.1472753577790569
 42
0.3252068830343509
 10
0.8898414635498495
 20
0.1543991023721956
 10
0.8982465096003711
 20
0.1674126590732378
 10
0.9180961146406991
 20
0.1628821162538696
 10
0.9200224288255295
 20
0.1475104939982092
 42
0.3256065524940041
 10
0.9335774574011963
 20
0.1330829384147259
 10
0.9491257417591317
 20
0.1302613408041114
 42
0.3256065525032898
 10
0.9668859119903679
 20
0.1390060256582195
 10
0.9740905955676176
 20
0.1527206161270265
 10
0.9942664066589642
 20
0.1499876168193159
 10
0.9975628676659297
 20
0.1348505496656155
 42
0.3252068830200923
 10
1.012332418292216
 20
0.1216985156702362
 42
0.0044672027414221
 10
1.028119442667426
 20
0.1202776577591977
 42
0.3252068830343018
 10
1.045000026890933
 20
0.1305811280602696
 10
1.05094634011875
 20
0.1448863304747544
 10
1.071285913497508
 20
0.1439728791813446
 10
1.075925980158888
 20
0.1291922418984899
 42
0.3256065524942785
 10
1.091839313373327
 20
0.1174168868801248
 10
1.107641546112743
 20
0.1174168868783261
 42
0.3256065525033225
 10
1.123554879328268
 20
0.1291922418968374
 10
1.12819494598887
 20
0.1439728791821758
 10
1.148534519365493
 20
0.1448863304762125
 10
1.154480832595231
 20
0.1305811280603093
 42
0.3252068830202072
 10
1.171361416817248
 20
0.1202776577593984
 42
0.0044672027414219
 10
1.187148441192485
 20
0.1216985156700834
 42
0.3252068830342607
 10
1.201917991820216
 20
0.1348505496658939
 10
1.205214452825545
 20
0.1499876168178579
 10
1.225390263918876
 20
0.1527206161265698
 10
1.232594947496451
 20
0.1390060256603385
 42
0.3256065524938315
 10
1.250355117726569
 20
0.1302613408061784
 10
1.265903402085149
 20
0.1330829384132484
 42
0.3256065525032978
 10
1.279458430661875
 20
0.1475104939970667
 10
1.2813847448455
 20
0.162882116255026
 10
1.301234349883618
 20
0.167412659074634
 10
1.309639395936278
 20
0.1543991023725409
 42
0.3252068830199962
 10
1.328088457887727
 20
0.1472753577792963
 42
0.0044672027414272
 10
1.343368074309986
 20
0.151492263969367
 42
0.3252068830343511
 10
1.35555188583233
 20
0.1670701444657603
 10
1.356092543646121
 20
0.1825525585621131
 10
1.375456125284776
 20
0.1888441676264437
 10
1.384993861320327
 20
0.1766364221988241
 42
0.3256065524941806
 10
1.404030042081863
 20
0.1712034688752393
 10
1.418824643407101
 20
0.176755975622459
 42
0.325606552503345
 10
1.429585697573468
 20
0.1933720182640979
 10
1.428736345957272
 20
0.2088405689075036
 10
1.447458000018652
 20
0.2168425878787171
 10
1.458051633798414
 20
0.2055389433104207
 42
0.3252068830202325
 10
1.477476205448251
 20
0.2018238874375087
 42
0.0044672027414181
 10
1.491757314473575
 20
0.2087013070723341
 42
0.3252068830341805
 10
1.500963789163346
 20
0.2262043481726246
 10
1.498731266598609
 20
0.2415344916853473
 10
1.516660257336314
 20
0.2511824930132176
 10
1.528224495145982
 20
0.2408739596068164
 42
0.325606552494065
 10
1.547924847926204
 20
0.2389273574038718
 10
1.561490255558507
 20
0.2470323111557763
 42
0.3256065525033979
 10
1.569111466179366
 20
0.265302787573015
 10
1.565513747623143
 20
0.2803710946566136
 10
1.582505721342028
 20
0.2915873983056147
 10
1.594947454742735
 20
0.2823569743082125
 42
0.3252068830202218
 10
1.614723214375527
 20
0.2821700121081432
 42
0.0044672027414184
 10
1.627546809409332
 20
0.2914868992619021
 42
0.3252068830342391
 10
1.63348004359488
 20
0.3103525388235862
 10
1.628546095763771
 20
0.3250376883264901
 10
1.64446424308619
 20
0.3377319872168182
 10
1.657683298551692
 20
0.3296539905772114
 42
0.3256065524933902
 10
1.677414637802718
 20
0.331256304891344
 10
1.689314848379151
 20
0.3416532057656027
 42
0.3256065525031963
 10
1.693551263474404
 20
0.3609908878133663
 10
1.687320811612766
 20
0.375174643549258
 10
1.702036968972787
 20
0.3892447306479592
 10
1.71592691444585
 20
0.3823842006435472
 42
0.325206883020271
 10
1.73541825287546
 20
0.3857313412352653
 42
0.0044672027414194
 10
1.746372173022064
 20
0.3971882434888744
 42
0.3252068830343355
 10
1.748841467674776
 20
0.4168101243337394
 10
1.741364675720256
 20
0.4303782870388218
 10
1.754760357274952
 20
0.4457108782803662
 10
1.769209359076945
 20
0.4401230518661487
 42
0.3256065524942397
 10
1.788337503320325
 20
0.4452227829969836
 10
1.798190034281352
 20
0.4575774660448222
 42
0.3256065525033956
 10
1.79890549198411
 20
0.4773608247110291
 10
1.790242558666322
 20
0.4902041515194226
 10
1.802209910261426
 20
0.5066757978915617
 10
1.817101633530657
 20
0.5024056649593468
 42
0.3252068830201918
 10
1.835682083102419
 20
0.5091793284901965
 42
0.0044672027414063
 10
1.844414260355393
 20
0.5224080115784529
 42
0.3252068830342282
 10
1.84334025031341
 20
0.5421554703112022
 10
1.833560924480817
 20
0.5541705543052001
 10
1.844003592040619
 20
0.5716486357997623
 10
1.859218137372513
 20
0.5687305769495664
 42
0.3256065524936672
 10
1.877128292313505
 20
0.577163815342415
 10
1.884616475207424
 20
0.5910791908852815
 42
0.3256065525034355
 10
1.881787980118423
 20
0.61067237274459
 10
1.87097099914921
 20
0.621762475534334
 10
1.879804904452362
 20
0.640106268912601
 10
1.895219773278933
 20
0.6385637786385005
 42
0.3252068830202746
 10
1.912292143055587
 20
0.6485462539892197
 42
0.0044672027414097
 10
1.918521918053156
 20
0.6631215371530625
 42
0.3252068830344152
 10
1.913939122882899
 20
0.6823598742017662
 10
1.90217157875096
 20
0.6924357047990687
 10
1.909325596388247
 20
0.7114975166264
 10
1.924816677244502
 20
0.7113430141526541
 42
0.3256065524936293
 10
1.940933195766804
 20
0.722838708586712
 10
1.945816354234075
 20
0.7378675250050247
 42
0.3256065525033954
 10
1.939534816512788
 20
0.7566407890711414
 10
1.926911454560729
 20
0.765621222813614
 10
1.932327984586928
 20
0.7852475785855058
 10
1.947770552403359
 20
0.7864823078760895
 42
0.3252068830201221
 10
1.962786122373074
 20
0.799352750075285
 42
0.0044672027414117
 10
1.966313265020946
 20
0.8148061717212366
 42
0.3252068830343453
 10
1.958368979529948
 20
0.8329170511038213
 10
1.944991435649416
 20
0.8407297828186008
 10
1.948626867350976
 20
0.8607626626624616
 10
1.963896587646768
 20
0.8633766824018021
 42
0.3256065524938916
 10
1.977701471584365
 20
0.8775653517992811
 10
1.979822656893976
 20
0.893224570567601
 42
0.3256065525031119
 10
1.970289970331216
 20
0.9105745286867451
 10
1.956265952635997
 20
0.9171566548523333
 10
1.958091015653464
 20
0.9374347657947245
 10
1.973064945623948
 20
0.9414070294346618
 42
0.3252068830201713
 10
1.985541103013048
 20
0.9567517718802228
 42
0.0044672027414112
 10
1.986252248044381
 20
0.972586646321487
 42
0.3252068830343084
 10
1.975201808104888
 20
0.988987969472879
 10
1.960644229743173
 20
0.9942864946794939
 10
1.960644229742868
 20
1.014646569298591
 10
1.975201808103926
 20
1.019945094505766
 42
0.3256065524992071
 10
1.986251357128348
 20
1.03637070335807
  0
ENDSEC
  0
SECTION
  2
OBJECTS
  0
DICTIONARY
  5
286
330
0
100
AcDbDictionary
281
     1
  3
ACAD_GROUP
350
287
  3
ACAD_MLINESTYLE
350
288
  3
ACAD_PLOTSTYLENAME
350
28D
  3
ACAD_LAYOUT
350
28F
  3
ACAD_PLOTSETTINGS
350
290
  0
DICTIONARY
  5
287
102
{ACAD_REACTORS
330
286
102
}
330
286
100
AcDbDictionary
281
     1
  0
DICTIONARY
  5
288
102
{ACAD_REACTORS
330
286
102
}
330
286
100
AcDbDictionary
281
     1
  3
STANDARD
350
289
  0
ACDBDICTIONARYWDFLT
  5
28D
102
{ACAD_REACTORS
330
286
102
}
330
286
100
AcDbDictionary
281
     1
  3
Normal
350
28E
100
AcDbDictionaryWithDefault
340
28E
  0
DICTIONARY
  5
28F
102
{ACAD_REACTORS
330
286
102
}
330
286
100
AcDbDictionary
281
     1
  3
Model
350
291
  3
Layout1
350
292
  0
DICTIONARY
  5
290
102
{ACAD_REACTORS
330
286
102
}
330
286
100
AcDbDictionary
281
     1
  0
MLINESTYLE
  5
289
102
{ACAD_REACTORS
330
288
102
}
330
288
100
AcDbMlineStyle
  2
STANDARD
 70
     0
  3

 62
   256
 51
90.0
 52
90.0
 71
     2
 49
0.5
 62
   256
  6
BYLAYER
 49
-0.5
 62
   256
  6
BYLAYER
  0
ACDBPLACEHOLDER
  5
28E
102
{ACAD_REACTORS
330
28D
102
}
330
28D
  0
LAYOUT
  5
291
102
{ACAD_REACTORS
330
28F
102
}
330
28F
100
AcDbPlotSettings
  1

  2

  4

  6

 40
0.0
 41
0.0
 42
0.0
 43
0.0
 44
0.0
 45
0.0
 46
0.0
 47
0.0
 48
0.0
 49
0.0
140
0.0
141
0.0
142
1.0
143
1.0
 70
  1712
 72
     0
 73
     0
 74
     0
  7

 75
     0
147
1.0
148
0.0
149
0.0
100
AcDbLayout
  1
Model
 70
     1
 71
     0
 10
0.0
 20
0.0
 11
12.0
 21
9.0
 12
0.0
 22
0.0
 32
0.0
 14
0.0
 24
0.0
 34
0.0
 15
0.0
 25
0.0
 35
0.0
146
0.0
 13
0.0
 23
0.0
 33
0.0
 16
1.0
 26
0.0
 36
0.0
 17
0.0
 27
1.0
 37
0.0
 76
     0
330
1B
  0
LAYOUT
  5
292
102
{ACAD_REACTORS
330
28F
102
}
330
28F
100
AcDbPlotSettings
  1

  2

  4

  6

 40
0.0
 41
0.0
 42
0.0
 43
0.0
 44
0.0
 45
0.0
 46
0.0
 47
0.0
 48
0.0
 49
0.0
140
0.0
141
0.0
142
1.0
143
1.0
 70
   688
 72
     0
 73
     0
 74
     5
  7

 75
    16
147
1.0
148
0.0
149
0.0
100
AcDbLayout
  1
Layout1
 70
     1
 71
     1
 10
0.0
 20
0.0
 11
12.0
 21
9.0
 12
0.0
 22
0.0
 32
0.0
 14
1.000000000000000E+20
 24
1.000000000000000E+20
 34
1.000000000000000E+20
 15
-1.000000000000000E+20
 25
-1.000000000000000E+20
 35
-1.000000000000000E+20
146
0.0
 13
0.0
 23
0.0
 33
0.0
 16
1.0
 26
0.0
 36
0.0
 17
0.0
 27
1.0
 37
0.0
 76
     0
330
1C
  0
ENDSEC
  0
EOF
