  0
SECTION
  2
HEADER
  9
$ACADVER
  1
AC1015
  9
$ACADMAINTVER
 70
     6
  9
$DWGCODEPAGE
  3
ANSI_1252
  9
$INSBASE
 10
0.0
 20
0.0
 30
0.0
  9
$EXTMIN
 10
0.0228271880452837
 20
-0.0011749011478059
 30
-0.0015258207003583
  9
$EXTMAX
 10
1.305863568643517
 20
0.8120201333999998
 30
0.0000000349246037
  9
$LIMMIN
 10
0.0
 20
0.0
  9
$LIMMAX
 10
10.0
 20
10.0
  9
$ORTHOMODE
 70
     0
  9
$REGENMODE
 70
     1
  9
$FILLMODE
 70
     1
  9
$QTEXTMODE
 70
     0
  9
$MIRRTEXT
 70
     1
  9
$LTSCALE
 40
0.9350000000000001
  9
$ATTMODE
 70
     1
  9
$TEXTSIZE
 40
0.2
  9
$TRACEWID
 40
0.05
  9
$TEXTSTYLE
  7
STANDARD
  9
$CLAYER
  8
outline
  9
$CELTYPE
  6
BYLAYER
  9
$CECOLOR
 62
   256
  9
$CELTSCALE
 40
1.0
  9
$DISPSILH
 70
     0
  9
$DIMSCALE
 40
1.0
  9
$DIMASZ
 40
0.1875
  9
$DIMEXO
 40
0.10625
  9
$DIMDLI
 40
0.646
  9
$DIMRND
 40
0.0
  9
$DIMDLE
 40
0.0
  9
$DIMEXE
 40
0.306
  9
$DIMTP
 40
0.0
  9
$DIMTM
 40
0.0
  9
$DIMTXT
 40
0.25
  9
$DIMCEN
 40
0.153
  9
$DIMTSZ
 40
0.0
  9
$DIMTOL
 70
     0
  9
$DIMLIM
 70
     0
  9
$DIMTIH
 70
     1
  9
$DIMTOH
 70
     1
  9
$DIMSE1
 70
     0
  9
$DIMSE2
 70
     0
  9
$DIMTAD
 70
     0
  9
$DIMZIN
 70
     0
  9
$DIMBLK
  1

  9
$DIMASO
 70
     1
  9
$DIMSHO
 70
     1
  9
$DIMPOST
  1

  9
$DIMAPOST
  1

  9
$DIMALT
 70
     0
  9
$DIMALTD
 70
     2
  9
$DIMALTF
 40
25.4
  9
$DIMLFAC
 40
1.0
  9
$DIMTOFL
 70
     0
  9
$DIMTVP
 40
0.0
  9
$DIMTIX
 70
     0
  9
$DIMSOXD
 70
     0
  9
$DIMSAH
 70
     0
  9
$DIMBLK1
  1

  9
$DIMBLK2
  1

  9
$DIMSTYLE
  2
STANDARD
  9
$DIMCLRD
 70
     0
  9
$DIMCLRE
 70
     0
  9
$DIMCLRT
 70
     0
  9
$DIMTFAC
 40
1.0
  9
$DIMGAP
 40
0.09
  9
$DIMJUST
 70
     0
  9
$DIMSD1
 70
     0
  9
$DIMSD2
 70
     0
  9
$DIMTOLJ
 70
     1
  9
$DIMTZIN
 70
     0
  9
$DIMALTZ
 70
     0
  9
$DIMALTTZ
 70
     0
  9
$DIMUPT
 70
     0
  9
$DIMDEC
 70
     4
  9
$DIMTDEC
 70
     4
  9
$DIMALTU
 70
     2
  9
$DIMALTTD
 70
     2
  9
$DIMTXSTY
  7
STANDARD
  9
$DIMAUNIT
 70
     0
  9
$DIMADEC
 70
     0
  9
$DIMALTRND
 40
0.0
  9
$DIMAZIN
 70
     0
  9
$DIMDSEP
 70
    46
  9
$DIMATFIT
 70
     3
  9
$DIMFRAC
 70
     0
  9
$DIMLDRBLK
  1

  9
$DIMLUNIT
 70
     2
  9
$DIMLWD
 70
    -2
  9
$DIMLWE
 70
    -2
  9
$DIMTMOVE
 70
     0
  9
$LUNITS
 70
     2
  9
$LUPREC
 70
     4
  9
$SKETCHINC
 40
0.1
  9
$FILLETRAD
 40
0.0
  9
$AUNITS
 70
     0
  9
$AUPREC
 70
     0
  9
$MENU
  1
.
  9
$ELEVATION
 40
0.0
  9
$PELEVATION
 40
0.0
  9
$THICKNESS
 40
0.0
  9
$LIMCHECK
 70
     0
  9
$CHAMFERA
 40
0.0
  9
$CHAMFERB
 40
0.0
  9
$CHAMFERC
 40
0.0
  9
$CHAMFERD
 40
0.0
  9
$SKPOLY
 70
     0
  9
$TDCREATE
 40
2456711.921728946
  9
$TDUCREATE
 40
2456712.171728946
  9
$TDUPDATE
 40
2456711.936682627
  9
$TDUUPDATE
 40
2456712.186682627
  9
$TDINDWG
 40
0.0149537384
  9
$TDUSRTIMER
 40
0.0149537384
  9
$USRTIMER
 70
     1
  9
$ANGBASE
 50
0.0
  9
$ANGDIR
 70
     0
  9
$PDMODE
 70
     0
  9
$PDSIZE
 40
0.0
  9
$PLINEWID
 40
0.0
  9
$SPLFRAME
 70
     0
  9
$SPLINETYPE
 70
     6
  9
$SPLINESEGS
 70
     8
  9
$HANDSEED
  5
354
  9
$SURFTAB1
 70
     6
  9
$SURFTAB2
 70
     6
  9
$SURFTYPE
 70
     6
  9
$SURFU
 70
     6
  9
$SURFV
 70
     6
  9
$UCSBASE
  2

  9
$UCSNAME
  2

  9
$UCSORG
 10
0.0
 20
0.0
 30
0.0
  9
$UCSXDIR
 10
1.0
 20
0.0
 30
0.0
  9
$UCSYDIR
 10
0.0
 20
1.0
 30
0.0
  9
$UCSORTHOREF
  2

  9
$UCSORTHOVIEW
 70
     0
  9
$UCSORGTOP
 10
0.0
 20
0.0
 30
0.0
  9
$UCSORGBOTTOM
 10
0.0
 20
0.0
 30
0.0
  9
$UCSORGLEFT
 10
0.0
 20
0.0
 30
0.0
  9
$UCSORGRIGHT
 10
0.0
 20
0.0
 30
0.0
  9
$UCSORGFRONT
 10
0.0
 20
0.0
 30
0.0
  9
$UCSORGBACK
 10
0.0
 20
0.0
 30
0.0
  9
$PUCSBASE
  2

  9
$PUCSNAME
  2

  9
$PUCSORG
 10
0.0
 20
0.0
 30
0.0
  9
$PUCSXDIR
 10
1.0
 20
0.0
 30
0.0
  9
$PUCSYDIR
 10
0.0
 20
1.0
 30
0.0
  9
$PUCSORTHOREF
  2

  9
$PUCSORTHOVIEW
 70
     0
  9
$PUCSORGTOP
 10
0.0
 20
0.0
 30
0.0
  9
$PUCSORGBOTTOM
 10
0.0
 20
0.0
 30
0.0
  9
$PUCSORGLEFT
 10
0.0
 20
0.0
 30
0.0
  9
$PUCSORGRIGHT
 10
0.0
 20
0.0
 30
0.0
  9
$PUCSORGFRONT
 10
0.0
 20
0.0
 30
0.0
  9
$PUCSORGBACK
 10
0.0
 20
0.0
 30
0.0
  9
$USERI1
 70
     0
  9
$USERI2
 70
     0
  9
$USERI3
 70
     0
  9
$USERI4
 70
     0
  9
$USERI5
 70
     0
  9
$USERR1
 40
0.0
  9
$USERR2
 40
0.0
  9
$USERR3
 40
0.0
  9
$USERR4
 40
0.0
  9
$USERR5
 40
0.0
  9
$WORLDVIEW
 70
     1
  9
$SHADEDGE
 70
     3
  9
$SHADEDIF
 70
    70
  9
$TILEMODE
 70
     1
  9
$MAXACTVP
 70
    64
  9
$PINSBASE
 10
0.0
 20
0.0
 30
0.0
  9
$PLIMCHECK
 70
     0
  9
$PEXTMIN
 10
1.000000000000000E+20
 20
1.000000000000000E+20
 30
1.000000000000000E+20
  9
$PEXTMAX
 10
-1.000000000000000E+20
 20
-1.000000000000000E+20
 30
-1.000000000000000E+20
  9
$PLIMMIN
 10
0.0
 20
0.0
  9
$PLIMMAX
 10
12.0
 20
9.0
  9
$UNITMODE
 70
     0
  9
$VISRETAIN
 70
     1
  9
$PLINEGEN
 70
     0
  9
$PSLTSCALE
 70
     1
  9
$TREEDEPTH
 70
  3020
  9
$CMLSTYLE
  2
STANDARD
  9
$CMLJUST
 70
     0
  9
$CMLSCALE
 40
1.0
  9
$PROXYGRAPHICS
 70
     1
  9
$MEASUREMENT
 70
     0
  9
$CELWEIGHT
370
    -1
  9
$ENDCAPS
280
     0
  9
$JOINSTYLE
280
     0
  9
$LWDISPLAY
290
     0
  9
$INSUNITS
 70
     0
  9
$HYPERLINKBASE
  1

  9
$STYLESHEET
  1

  9
$XEDIT
290
     1
  9
$CEPSNTYPE
380
     0
  9
$PSTYLEMODE
290
     1
  9
$FINGERPRINTGUID
  2
{D6F826BA-8FB8-4841-8251-19EF894EC09F}
  9
$VERSIONGUID
  2
{80AF28CA-4DE2-4F04-8600-CF85441FA7FA}
  9
$EXTNAMES
290
     1
  9
$PSVPSCALE
 40
0.0
  9
$OLESTARTUP
290
     0
  0
ENDSEC
  0
SECTION
  2
CLASSES
  0
CLASS
  1
ACDBDICTIONARYWDFLT
  2
AcDbDictionaryWithDefault
  3
AutoCAD 2000
 90
        0
280
     0
281
     0
  0
CLASS
  1
ACDBPLACEHOLDER
  2
AcDbPlaceHolder
  3
AutoCAD 2000
 90
        0
280
     0
281
     0
  0
CLASS
  1
LAYOUT
  2
AcDbLayout
  3
AutoCAD 2000
 90
        0
280
     0
281
     0
  0
ENDSEC
  0
SECTION
  2
TABLES
  0
TABLE
  2
VPORT
  5
8
330
0
100
AcDbSymbolTable
 70
     2
  0
VPORT
  5
353
330
8
100
AcDbSymbolTableRecord
100
AcDbViewportTableRecord
  2
*Active
 70
     0
 10
0.0
 20
0.0
 11
1.0
 21
1.0
 12
1.177450247615681
 22
0.4062311112938683
 13
0.0
 23
0.0
 14
0.01
 24
0.01
 15
0.1
 25
0.1
 16
0.0
 26
0.0
 36
1.0
 17
0.0
 27
0.0
 37
0.0
 40
1.275637148670515
 41
2.306666666666666
 42
50.0
 43
0.0
 44
0.0
 50
0.0
 51
0.0
 71
     0
 72
   500
 73
     1
 74
     0
 75
     1
 76
     1
 77
     0
 78
     0
281
     0
 65
     1
110
0.0
120
0.0
130
0.0
111
1.0
121
0.0
131
0.0
112
0.0
122
1.0
132
0.0
 79
     0
146
0.0
  0
ENDTAB
  0
TABLE
  2
LTYPE
  5
5
330
0
100
AcDbSymbolTable
 70
     6
  0
LTYPE
  5
14
330
5
100
AcDbSymbolTableRecord
100
AcDbLinetypeTableRecord
  2
BYBLOCK
 70
     0
  3

 72
    65
 73
     0
 40
0.0
  0
LTYPE
  5
15
330
5
100
AcDbSymbolTableRecord
100
AcDbLinetypeTableRecord
  2
BYLAYER
 70
     0
  3

 72
    65
 73
     0
 40
0.0
  0
LTYPE
  5
16
330
5
100
AcDbSymbolTableRecord
100
AcDbLinetypeTableRecord
  2
CONTINUOUS
 70
     0
  3
Solid line
 72
    65
 73
     0
 40
0.0
  0
LTYPE
  5
1F6
330
5
100
AcDbSymbolTableRecord
100
AcDbLinetypeTableRecord
  2
HIDDEN
 70
     0
  3
- - - - - - - - - - - - - - - - - - - -
 72
    65
 73
     2
 40
0.2
 49
0.1
 74
     0
 49
-0.1
 74
     0
  0
ENDTAB
  0
TABLE
  2
LAYER
  5
2
330
0
100
AcDbSymbolTable
 70
    17
  0
LAYER
  5
10
330
2
100
AcDbSymbolTableRecord
100
AcDbLayerTableRecord
  2
0
 70
     0
 62
     7
  6
CONTINUOUS
370
    -3
390
2BE
  0
LAYER
  5
318
330
2
100
AcDbSymbolTableRecord
100
AcDbLayerTableRecord
  2
holes
 70
     0
 62
     1
  6
CONTINUOUS
370
    -3
390
2BE
  0
LAYER
  5
319
330
2
100
AcDbSymbolTableRecord
100
AcDbLayerTableRecord
  2
outline
 70
     0
 62
     3
  6
CONTINUOUS
370
    -3
390
2BE
  0
ENDTAB
  0
TABLE
  2
STYLE
  5
3
330
0
100
AcDbSymbolTable
 70
     1
  0
STYLE
  5
11
330
3
100
AcDbSymbolTableRecord
100
AcDbTextStyleTableRecord
  2
STANDARD
 70
     0
 40
0.0
 41
0.8
 50
0.0
 71
     0
 42
0.2
  3
txt
  4

  0
ENDTAB
  0
TABLE
  2
VIEW
  5
6
330
0
100
AcDbSymbolTable
 70
     0
  0
ENDTAB
  0
TABLE
  2
UCS
  5
7
330
0
100
AcDbSymbolTable
 70
     0
  0
ENDTAB
  0
TABLE
  2
APPID
  5
9
330
0
100
AcDbSymbolTable
 70
     1
  0
APPID
  5
208
330
9
100
AcDbSymbolTableRecord
100
AcDbRegAppTableRecord
  2
ACAD
 70
     0
  0
ENDTAB
  0
TABLE
  2
DIMSTYLE
  5
A
330
0
100
AcDbSymbolTable
 70
     1
100
AcDbDimStyleTable
 71
     0
  0
DIMSTYLE
105
209
330
A
100
AcDbSymbolTableRecord
100
AcDbDimStyleTableRecord
  2
STANDARD
 70
     0
 41
0.1875
 47
0.01
 48
0.01
 78
     4
140
0.25
271
     2
272
     2
284
     4
340
11
  0
ENDTAB
  0
TABLE
  2
BLOCK_RECORD
  5
1
330
0
100
AcDbSymbolTable
 70
     0
  0
BLOCK_RECORD
  5
1B
330
1
100
AcDbSymbolTableRecord
100
AcDbBlockTableRecord
  2
*MODEL_SPACE
340
2C1
  0
BLOCK_RECORD
  5
1C
330
1
100
AcDbSymbolTableRecord
100
AcDbBlockTableRecord
  2
*PAPER_SPACE
340
2C2
  0
ENDTAB
  0
ENDSEC
  0
SECTION
  2
BLOCKS
  0
BLOCK
  5
1E
330
1B
100
AcDbEntity
  8
0
100
AcDbBlockBegin
  2
*MODEL_SPACE
 70
     0
 10
0.0
 20
0.0
 30
0.0
  3
*MODEL_SPACE
  1

  0
ENDBLK
  5
1F
330
1B
100
AcDbEntity
  8
0
100
AcDbBlockEnd
  0
BLOCK
  5
20
330
1C
100
AcDbEntity
 67
     1
  8
0
100
AcDbBlockBegin
  2
*PAPER_SPACE
 70
     0
 10
0.0
 20
0.0
 30
0.0
  3
*PAPER_SPACE
  1

  0
ENDBLK
  5
21
330
1C
100
AcDbEntity
 67
     1
  8
0
100
AcDbBlockEnd
  0
ENDSEC
  0
SECTION
  2
ENTITIES
  0
CIRCLE
  5
298
330
1B
100
AcDbEntity
  8
0
  6
Continuous
100
AcDbCircle
 10
0.1800955813999998
 20
0.1557701333999999
 30
0.0
 40
0.15625
  0
LWPOLYLINE
  5
317
330
1B
100
AcDbEntity
  8
holes
100
AcDbPolyline
 90
        2
 70
     1
 43
0.0
 10
0.2333402994478959
 20
0.2127701334000003
 10
0.1268508633521037
 20
0.2127701334000003
 42
2.535462764185576
  0
CIRCLE
  5
31D
330
1B
100
AcDbEntity
  8
outline
  6
Continuous
100
AcDbCircle
 10
0.5000955814
 20
0.1557701333999999
 30
0.0
 40
0.15625
  0
LWPOLYLINE
  5
31E
330
1B
100
AcDbEntity
  8
holes
100
AcDbPolyline
 90
        2
 70
     1
 43
0.0
 10
0.5533402994478961
 20
0.2127701334000003
 10
0.4468508633521038
 20
0.2127701334000003
 42
2.535462764185576
  0
LWPOLYLINE
  5
31F
330
1B
100
AcDbEntity
  8
holes
100
AcDbPolyline
 90
        2
 70
     1
 43
0.0
 10
0.5533402994478959
 20
0.5327701334000004
 10
0.4468508633521036
 20
0.5327701334000004
 42
2.535462764185576
  0
CIRCLE
  5
320
330
1B
100
AcDbEntity
  8
outline
  6
Continuous
100
AcDbCircle
 10
0.5000955813999998
 20
0.4757701334
 30
0.0
 40
0.15625
  0
LWPOLYLINE
  5
339
330
1B
100
AcDbEntity
  8
outline
  6
HIDDEN
100
AcDbPolyline
 90
       84
 70
     1
 43
0.0
 10
0.1457233928045067
 20
0.0164474768709023
 10
0.1402049962550421
 20
0.0179260506093835
 42
-0.3436918490425332
 10
0.1315461763204097
 20
0.0298724336750919
 10
0.132170899012339
 20
0.0477621484320292
 10
0.1213455814499993
 20
0.054012148499999
 10
0.1105202638999986
 20
0.0602621484999997
 10
0.0953396776999997
 20
0.0507762654000001
 42
-0.3436056521476114
 10
0.0806670646280843
 20
0.0522992678208141
 10
0.0766272798973321
 20
0.0563389485144396
 42
-0.3436918490425332
 10
0.0751017133999996
 20
0.0710142296999994
 10
0.0845875964999996
 20
0.0861948158
 10
0.0783375965209645
 20
0.0970201334136861
 10
0.0720875965186307
 20
0.1078454509623397
 10
0.0541978816750923
 20
0.1072207283204101
 42
-0.3436056521476114
 10
0.042252527225321
 20
0.1158759936428178
 10
0.0407738113694818
 20
0.1213943521120512
 42
-0.3436918490425332
 10
0.0467902726204094
 20
0.1348663016750921
 10
0.0625955814123391
 20
0.1432701333320295
 10
0.0625955814636855
 20
0.1557701333790343
 10
0.0625955814623385
 20
0.1682701333813688
 10
0.0467902726204099
 20
0.1766739651249076
 42
-0.3436056521476114
 10
0.0407729248709023
 20
0.1901423219954929
 10
0.0422514986093834
 20
0.1956607185449575
 42
-0.3436918490425332
 10
0.0541978816750918
 20
0.2043195384795899
 10
0.0720875964320292
 20
0.2036948157876607
 10
0.0783375964999989
 20
0.2145201333500003
 10
0.0845875964999996
 20
0.225345450900001
 10
0.0751017134
 20
0.2405260371
 42
-0.3436056521476114
 10
0.0766247158208139
 20
0.2551986501719154
 10
0.0806643965144394
 20
0.2592384349026676
 42
-0.3436918490425332
 10
0.0953396776999993
 20
0.2607640014000001
 10
0.1105202637999998
 20
0.2512781183000001
 10
0.1213455814136859
 20
0.2575281182790352
 10
0.1321708989623396
 20
0.263778118281369
 10
0.13154617632041
 20
0.2816678331249074
 42
-0.3436056521476114
 10
0.1402014416428177
 20
0.2936131875746788
 10
0.145719800112051
 20
0.2950919034305179
 42
-0.3436918490425332
 10
0.159191749675092
 20
0.2890754421795904
 10
0.1675955813320294
 20
0.2732701333876607
 10
0.1800955813790342
 20
0.2732701333363143
 10
0.1925955813813687
 20
0.2732701333376613
 10
0.2009994131249075
 20
0.2890754421795898
 42
-0.3436056521476114
 10
0.2144677699954927
 20
0.2950927899290974
 10
0.2199861665449574
 20
0.2936142161906164
 42
-0.3436918490425332
 10
0.2286449864795898
 20
0.281667833124908
 10
0.2280202637876605
 20
0.2637781183679706
 10
0.2388455813500002
 20
0.2575281183000008
 10
0.2496708989000009
 20
0.2512781183000002
 10
0.2648514850999999
 20
0.2607640013999997
 42
-0.3436056521476114
 10
0.2795240981719153
 20
0.2592409989791858
 10
0.2835638829026675
 20
0.2552013182855603
 42
-0.3436918490425332
 10
0.2850894494
 20
0.2405260371000004
 10
0.2756035663
 20
0.2253454509999999
 10
0.2818535662790351
 20
0.2145201333863138
 10
0.2881035662813689
 20
0.2036948158376601
 10
0.3059932811249073
 20
0.2043195384795897
 42
-0.3436056521476114
 10
0.3179386355746787
 20
0.195664273157182
 10
0.3194173514305178
 20
0.1901459146879487
 42
-0.3436918490425332
 10
0.3134008901795903
 20
0.1766739651249078
 10
0.2975955813876606
 20
0.1682701334679704
 10
0.2975955813363141
 20
0.1557701334209655
 10
0.2975955813376611
 20
0.1432701334186311
 10
0.3134008901795898
 20
0.1348663016750923
 42
-0.3436056521476114
 10
0.3194182379290973
 20
0.121397944804507
 10
0.3179396641906163
 20
0.1158795482550423
 42
-0.3436918490425332
 10
0.3059932811249078
 20
0.10722072832041
 10
0.2881035663679705
 20
0.1078454510123392
 10
0.2818535663000007
 20
0.0970201334499995
 10
0.2756035663
 20
0.0861948158999989
 10
0.2850894493999996
 20
0.0710142296999998
 42
-0.3436056521476114
 10
0.2835664469791856
 20
0.0563416166280844
 10
0.2795267662855601
 20
0.0523018318973322
 42
-0.3436918490425332
 10
0.2648514851000003
 20
0.0507762653999996
 10
0.2496708989999998
 20
0.0602621484999996
 10
0.2388455813863137
 20
0.0540121485209645
 10
0.22802026383766
 20
0.0477621485186308
 10
0.2286449864795896
 20
0.0298724336750924
 42
-0.3436056521476114
 10
0.2199897211571819
 20
0.0179270792253211
 10
0.2144713626879485
 20
0.0164483633694819
 42
-0.3436918490425332
 10
0.2009994131249076
 20
0.0224648246204095
 10
0.1925955814679702
 20
0.0382701334123392
 10
0.1800955814209654
 20
0.0382701334636856
 10
0.1675955814186309
 20
0.0382701334623386
 10
0.1591917496750921
 20
0.02246482462041
 42
-0.3436056521476114
  0
LWPOLYLINE
  5
350
330
1B
100
AcDbEntity
  8
outline
  6
HIDDEN
100
AcDbPolyline
 90
       84
 70
     1
 43
0.0
 10
0.1457233928045067
 20
0.3364474768709023
 10
0.1402049962550421
 20
0.3379260506093834
 42
-0.3436918490425332
 10
0.1315461763204097
 20
0.3498724336750918
 10
0.132170899012339
 20
0.3677621484320292
 10
0.1213455814499993
 20
0.3740121484999989
 10
0.1105202638999986
 20
0.3802621484999996
 10
0.0953396776999997
 20
0.3707762654000001
 42
-0.3436056521476114
 10
0.0806670646280843
 20
0.372299267820814
 10
0.0766272798973321
 20
0.3763389485144395
 42
-0.3436918490425332
 10
0.0751017133999996
 20
0.3910142296999993
 10
0.0845875964999996
 20
0.4061948157999998
 10
0.0783375965209645
 20
0.417020133413686
 10
0.0720875965186307
 20
0.4278454509623396
 10
0.0541978816750923
 20
0.42722072832041
 42
-0.3436056521476114
 10
0.042252527225321
 20
0.4358759936428179
 10
0.0407738113694818
 20
0.4413943521120512
 42
-0.3436918490425332
 10
0.0467902726204094
 20
0.454866301675092
 10
0.0625955814123391
 20
0.4632701333320294
 10
0.0625955814636855
 20
0.4757701333790343
 10
0.0625955814623385
 20
0.4882701333813687
 10
0.0467902726204099
 20
0.4966739651249076
 42
-0.3436056521476114
 10
0.0407729248709023
 20
0.5101423219954928
 10
0.0422514986093834
 20
0.5156607185449574
 42
-0.3436918490425332
 10
0.0541978816750918
 20
0.52431953847959
 10
0.0720875964320292
 20
0.5236948157876606
 10
0.0783375964999989
 20
0.5345201333500003
 10
0.0845875964999996
 20
0.5453454509000011
 10
0.0751017134
 20
0.5605260371
 42
-0.3436056521476114
 10
0.0766247158208139
 20
0.5751986501719153
 10
0.0806643965144394
 20
0.5792384349026677
 42
-0.3436918490425332
 10
0.0953396776999993
 20
0.5807640014000003
 10
0.1105202637999998
 20
0.5712781183000003
 10
0.1213455814136859
 20
0.5775281182790354
 10
0.1321708989623396
 20
0.5837781182813691
 10
0.13154617632041
 20
0.6016678331249075
 42
-0.3436056521476114
 10
0.1402014416428177
 20
0.6136131875746789
 10
0.145719800112051
 20
0.615091903430518
 42
-0.3436918490425332
 10
0.159191749675092
 20
0.6090754421795906
 10
0.1675955813320294
 20
0.5932701333876607
 10
0.1800955813790342
 20
0.5932701333363144
 10
0.1925955813813687
 20
0.5932701333376614
 10
0.2009994131249075
 20
0.6090754421795899
 42
-0.3436056521476114
 10
0.2144677699954927
 20
0.6150927899290975
 10
0.2199861665449574
 20
0.6136142161906165
 42
-0.3436918490425332
 10
0.2286449864795898
 20
0.6016678331249082
 10
0.2280202637876605
 20
0.5837781183679707
 10
0.2388455813500002
 20
0.577528118300001
 10
0.2496708989000009
 20
0.5712781183000003
 10
0.2648514850999999
 20
0.5807640013999997
 42
-0.3436056521476114
 10
0.2795240981719153
 20
0.5792409989791859
 10
0.2835638829026675
 20
0.5752013182855605
 42
-0.3436918490425332
 10
0.2850894494
 20
0.5605260371000006
 10
0.2756035663
 20
0.5453454510000001
 10
0.2818535662790351
 20
0.534520133386314
 10
0.2881035662813689
 20
0.5236948158376603
 10
0.3059932811249073
 20
0.5243195384795899
 42
-0.3436056521476114
 10
0.3179386355746787
 20
0.515664273157182
 10
0.3194173514305178
 20
0.5101459146879487
 42
-0.3436918490425332
 10
0.3134008901795903
 20
0.4966739651249079
 10
0.2975955813876606
 20
0.4882701334679704
 10
0.2975955813363141
 20
0.4757701334209656
 10
0.2975955813376611
 20
0.463270133418631
 10
0.3134008901795898
 20
0.4548663016750922
 42
-0.3436056521476114
 10
0.3194182379290973
 20
0.4413979448045069
 10
0.3179396641906163
 20
0.4358795482550423
 42
-0.3436918490425332
 10
0.3059932811249078
 20
0.42722072832041
 10
0.2881035663679705
 20
0.4278454510123392
 10
0.2818535663000007
 20
0.4170201334499995
 10
0.2756035663
 20
0.4061948158999988
 10
0.2850894493999996
 20
0.3910142296999998
 42
-0.3436056521476114
 10
0.2835664469791856
 20
0.3763416166280843
 10
0.2795267662855601
 20
0.3723018318973321
 42
-0.3436918490425332
 10
0.2648514851000003
 20
0.3707762653999996
 10
0.2496708989999998
 20
0.3802621484999996
 10
0.2388455813863137
 20
0.3740121485209645
 10
0.22802026383766
 20
0.3677621485186307
 10
0.2286449864795896
 20
0.3498724336750923
 42
-0.3436056521476114
 10
0.2199897211571819
 20
0.337927079225321
 10
0.2144713626879485
 20
0.3364483633694818
 42
-0.3436918490425332
 10
0.2009994131249076
 20
0.3424648246204094
 10
0.1925955814679702
 20
0.3582701334123391
 10
0.1800955814209654
 20
0.3582701334636855
 10
0.1675955814186309
 20
0.3582701334623385
 10
0.1591917496750921
 20
0.3424648246204099
 42
-0.3436056521476114
  0
CIRCLE
  5
351
330
1B
100
AcDbEntity
  8
0
  6
Continuous
100
AcDbCircle
 10
0.1800955813999998
 20
0.4757701333999999
 30
0.0
 40
0.15625
  0
LWPOLYLINE
  5
352
330
1B
100
AcDbEntity
  8
holes
100
AcDbPolyline
 90
        2
 70
     1
 43
0.0
 10
0.2333402994478959
 20
0.5327701334000004
 10
0.1268508633521037
 20
0.5327701334000004
 42
2.535462764185576
  0
ENDSEC
  0
SECTION
  2
OBJECTS
  0
DICTIONARY
  5
2B6
330
0
100
AcDbDictionary
281
     1
  3
ACAD_GROUP
350
2B7
  3
ACAD_MLINESTYLE
350
2B8
  3
ACAD_PLOTSTYLENAME
350
2BD
  3
ACAD_LAYOUT
350
2BF
  3
ACAD_PLOTSETTINGS
350
2C0
  0
DICTIONARY
  5
2B7
102
{ACAD_REACTORS
330
2B6
102
}
330
2B6
100
AcDbDictionary
281
     1
  0
DICTIONARY
  5
2B8
102
{ACAD_REACTORS
330
2B6
102
}
330
2B6
100
AcDbDictionary
281
     1
  3
STANDARD
350
2B9
  0
ACDBDICTIONARYWDFLT
  5
2BD
102
{ACAD_REACTORS
330
2B6
102
}
330
2B6
100
AcDbDictionary
281
     1
  3
Normal
350
2BE
100
AcDbDictionaryWithDefault
340
2BE
  0
DICTIONARY
  5
2BF
102
{ACAD_REACTORS
330
2B6
102
}
330
2B6
100
AcDbDictionary
281
     1
  3
Model
350
2C1
  3
Layout1
350
2C2
  0
DICTIONARY
  5
2C0
102
{ACAD_REACTORS
330
2B6
102
}
330
2B6
100
AcDbDictionary
281
     1
  0
MLINESTYLE
  5
2B9
102
{ACAD_REACTORS
330
2B8
102
}
330
2B8
100
AcDbMlineStyle
  2
STANDARD
 70
     0
  3

 62
   256
 51
90.0
 52
90.0
 71
     2
 49
0.5
 62
   256
  6
BYLAYER
 49
-0.5
 62
   256
  6
BYLAYER
  0
ACDBPLACEHOLDER
  5
2BE
102
{ACAD_REACTORS
330
2BD
102
}
330
2BD
  0
LAYOUT
  5
2C1
102
{ACAD_REACTORS
330
2BF
102
}
330
2BF
100
AcDbPlotSettings
  1

  2

  4

  6

 40
0.0
 41
0.0
 42
0.0
 43
0.0
 44
0.0
 45
0.0
 46
0.0
 47
0.0
 48
0.0
 49
0.0
140
0.0
141
0.0
142
1.0
143
1.0
 70
  1712
 72
     0
 73
     0
 74
     0
  7

 75
     0
147
1.0
148
0.0
149
0.0
100
AcDbLayout
  1
Model
 70
     1
 71
     0
 10
0.0
 20
0.0
 11
12.0
 21
9.0
 12
0.0
 22
0.0
 32
0.0
 14
0.0
 24
0.0
 34
0.0
 15
0.0
 25
0.0
 35
0.0
146
0.0
 13
0.0
 23
0.0
 33
0.0
 16
1.0
 26
0.0
 36
0.0
 17
0.0
 27
1.0
 37
0.0
 76
     0
330
1B
  0
LAYOUT
  5
2C2
102
{ACAD_REACTORS
330
2BF
102
}
330
2BF
100
AcDbPlotSettings
  1

  2

  4

  6

 40
0.0
 41
0.0
 42
0.0
 43
0.0
 44
0.0
 45
0.0
 46
0.0
 47
0.0
 48
0.0
 49
0.0
140
0.0
141
0.0
142
1.0
143
1.0
 70
   688
 72
     0
 73
     0
 74
     5
  7

 75
    16
147
1.0
148
0.0
149
0.0
100
AcDbLayout
  1
Layout1
 70
     1
 71
     1
 10
0.0
 20
0.0
 11
12.0
 21
9.0
 12
0.0
 22
0.0
 32
0.0
 14
1.000000000000000E+20
 24
1.000000000000000E+20
 34
1.000000000000000E+20
 15
-1.000000000000000E+20
 25
-1.000000000000000E+20
 35
-1.000000000000000E+20
146
0.0
 13
0.0
 23
0.0
 33
0.0
 16
1.0
 26
0.0
 36
0.0
 17
0.0
 27
1.0
 37
0.0
 76
     0
330
1C
  0
ENDSEC
  0
EOF
