999
DXF file: 47635.dxf
999
Pro/ENGINEER 2005030 by Parametric Technology Corporation
0
SECTION
2
HEADER
9
$ACADVER
1
AC1014
9
$HANDSEED
5
       28A
9
$EXTMAX
10
44.0000000000
20
34.0000000000
9
$EXTMIN
10
0.0000000000
20
0.0000000000
9
$LIMMIN
10
0.0000000000
20
0.0000000000
9
$LIMMAX
10
44.0000000000
20
34.0000000000
9
$VIEWCTR
10
22.0000000000
20
17.0000000000
9
$VIEWSIZE
40
34.0000000000
9
$CLAYER
8
0
9
$LTSCALE
40
2.4200000000
9
$CELTYPE
6
BYLAYER
9
$DIMSCALE
40
1
9
$DIMASZ
40
0.1875000000
9
$DIMEXO
40
0.2750000000
9
$DIMDLI
40
1.6720000000
9
$DIMEXE
40
0.7920000000
9
$DIMCEN
40
0.3960000000
9
$DIMLFAC
40
1.0000000000
9
$DIMTXT
40
0.7000000000
9
$DIMTOL
70
0
9
$DIMLIM
70
0
9
$DIMTFAC
40
1.0000000000
9
$MEASUREMENT
70
0
0
ENDSEC
0
SECTION
2
CLASSES
0
ENDSEC
0
SECTION
2
TABLES
0
TABLE
2
VPORT
5
8
100
AcDbSymbolTable
70
2
0
VPORT
5
1F4
100
AcDbSymbolTableRecord
100
AcDbViewportTableRecord
2
*ACTIVE
70
0
10
0.0
20
0.0
11
1.0
21
1.0
12
22.0000000000
22
17.0000000000
13
0.0
23
0.0
14
1.0
24
1.0
15
0.0
25
0.0
16
0.0
26
0.0
36
1.0
17
0.0
27
0.0
37
0.0
40
34.0000000000
41
1.2941176471
42
50.0
43
0.0
44
0.0
50
0.0
51
0.0
71
0
72
100
73
1
74
1
75
0
76
0
77
0
78
0
0
ENDTAB
0
TABLE
2
LTYPE
5
5
100
AcDbSymbolTable
70
6
0
LTYPE
5
14
100
AcDbSymbolTableRecord
100
AcDbLinetypeTableRecord
2
BYBLOCK
70
0
3

72
65
73
0
40
0.0
0
LTYPE
5
15
100
AcDbSymbolTableRecord
100
AcDbLinetypeTableRecord
2
BYLAYER
70
0
3

72
65
73
0
40
0.0
0
LTYPE
5
16
100
AcDbSymbolTableRecord
100
AcDbLinetypeTableRecord
2
CONTINUOUS
70
64
3
Solid line
72
65
73
0
40
0
0
LTYPE
5
1F5
100
AcDbSymbolTableRecord
100
AcDbLinetypeTableRecord
2
CENTER
70
64
3
____ _ ____ _ ____ _ ____ _ ____ _ ____ _ ____
72
65
73
4
40
0.6
49
0.375
74
0
49
-0.075
74
0
49
0.075
74
0
49
-0.075
74
0
0
LTYPE
5
1F6
100
AcDbSymbolTableRecord
100
AcDbLinetypeTableRecord
2
HIDDEN
70
64
3
- - - - - - - - - - - - - - - - - - - -
72
65
73
2
40
0.2
49
0.1
74
0
49
-0.1
74
0
0
LTYPE
5
1F7
100
AcDbSymbolTableRecord
100
AcDbLinetypeTableRecord
2
PHANTOM
70
64
3
_____ _ _ _____ _ _ _____ _ _ _____
72
65
73
6
40
0.8
49
0.45
74
0
49
-0.05
74
0
49
0.1
74
0
49
-0.05
74
0
49
0.1
74
0
49
-0.05
74
0
0
LTYPE
5
1F8
100
AcDbSymbolTableRecord
100
AcDbLinetypeTableRecord
2
DOT
70
64
3
. . . . . . . . . . . . . . . . . . . .
72
65
73
2
40
0.2
49
0.1
74
0
49
-0.1
74
0
0
LTYPE
5
1F9
100
AcDbSymbolTableRecord
100
AcDbLinetypeTableRecord
2
DASHED
70
64
3
- - - - - - - - - - - - - - - - - - - -
72
65
73
2
40
0.2
49
0.1
74
0
49
-0.1
74
0
0
ENDTAB
0
TABLE
2
LAYER
5
2
100
AcDbSymbolTable
70
36
0
LAYER
5
10
100
AcDbSymbolTableRecord
100
AcDbLayerTableRecord
2
0
70
0
62
7
6
CONTINUOUS
0
LAYER
5
1FA
100
AcDbSymbolTableRecord
100
AcDbLayerTableRecord
2
DEFAULT_1
70
0
62
7
6
CENTER
0
LAYER
5
1FB
100
AcDbSymbolTableRecord
100
AcDbLayerTableRecord
2
DEFAULT_2
70
0
62
8
6
HIDDEN
0
LAYER
5
1FC
100
AcDbSymbolTableRecord
100
AcDbLayerTableRecord
2
DEFAULT_3
70
0
62
7
6
PHANTOM
0
LAYER
5
1FD
100
AcDbSymbolTableRecord
100
AcDbLayerTableRecord
2
LAYER_AXIS
70
0
62
7
6
CONTINUOUS
0
LAYER
5
1FE
100
AcDbSymbolTableRecord
100
AcDbLayerTableRecord
2
LAYER_CSYS
70
0
62
7
6
CONTINUOUS
0
LAYER
5
1FF
100
AcDbSymbolTableRecord
100
AcDbLayerTableRecord
2
LAYER_CUT_FEAT
70
0
62
7
6
CONTINUOUS
0
LAYER
5
200
100
AcDbSymbolTableRecord
100
AcDbLayerTableRecord
2
LAYER_DATUM
70
0
62
7
6
CONTINUOUS
0
LAYER
5
201
100
AcDbSymbolTableRecord
100
AcDbLayerTableRecord
2
LAYER_DEF_DATUM
70
0
62
7
6
CONTINUOUS
0
LAYER
5
202
100
AcDbSymbolTableRecord
100
AcDbLayerTableRecord
2
LAYER_DETAIL_ITEM
70
0
62
7
6
CONTINUOUS
0
LAYER
5
203
100
AcDbSymbolTableRecord
100
AcDbLayerTableRecord
2
LAYER_DIM
70
0
62
7
6
CONTINUOUS
0
LAYER
5
204
100
AcDbSymbolTableRecord
100
AcDbLayerTableRecord
2
LAYER_FEATURE
70
0
62
7
6
CONTINUOUS
0
LAYER
5
205
100
AcDbSymbolTableRecord
100
AcDbLayerTableRecord
2
LAYER_GEOM_FEAT
70
0
62
7
6
CONTINUOUS
0
LAYER
5
206
100
AcDbSymbolTableRecord
100
AcDbLayerTableRecord
2
LAYER_NOTE
70
0
62
7
6
CONTINUOUS
0
LAYER
5
207
100
AcDbSymbolTableRecord
100
AcDbLayerTableRecord
2
LAYER_PARAMETER_DIM
70
0
62
7
6
CONTINUOUS
0
ENDTAB
0
TABLE
2
STYLE
5
3
100
AcDbSymbolTable
70
1
0
STYLE
5
11
100
AcDbSymbolTableRecord
100
AcDbTextStyleTableRecord
2
STANDARD
70
0
40
0.0
41
0.8000000000
50
0.0
71
0
42
0.2
3
txt
4

0
ENDTAB
0
TABLE
2
VIEW
5
6
100
AcDbSymbolTable
70
0
0
ENDTAB
0
TABLE
2
UCS
5
7
100
AcDbSymbolTable
70
0
0
ENDTAB
0
TABLE
2
APPID
5
9
100
AcDbSymbolTable
70
1
0
APPID
5
208
100
AcDbSymbolTableRecord
100
AcDbRegAppTableRecord
2
ACAD
70
0
0
ENDTAB
0
TABLE
2
DIMSTYLE
5
A
100
AcDbSymbolTable
70
1
0
DIMSTYLE
105
209
100
AcDbSymbolTableRecord
100
AcDbDimStyleTableRecord
2
STANDARD
70
0
3

4

5

6

7

40
1.0
41
0.1875000000
42
0.0625
43
0.38
44
0.18
45
0.0
46
0.0
47
0.0100000000
48
0.0100000000
140
0.7000000000
141
0.09
142
0.0
143
25.4
144
1.0000000000
145
0.0
146
1.0000000000
147
0.09
71
0
72
0
73
1
74
1
75
0
76
0
77
0
78
4
170
0
171
2
172
0
173
0
174
0
175
0
176
0
177
0
178
0
270
2
271
2
272
2
273
2
274
2
340
11
275
0
280
0
281
0
282
0
283
1
284
4
285
0
286
0
287
3
288
0
0
ENDTAB
0
TABLE
2
BLOCK_RECORD
5
1
100
AcDbSymbolTable
70
0
0
BLOCK_RECORD
5
1B
100
AcDbSymbolTableRecord
100
AcDbBlockTableRecord
2
*MODEL_SPACE
0
BLOCK_RECORD
5
1C
100
AcDbSymbolTableRecord
100
AcDbBlockTableRecord
2
*PAPER_SPACE
0
ENDTAB
0
ENDSEC
0
SECTION
2
BLOCKS
0
BLOCK
5
1E
100
AcDbEntity
8
0
100
AcDbBlockBegin
2
*MODEL_SPACE
70
0
10
0.0
20
0.0
30
0.0
3
*MODEL_SPACE
1

0
ENDBLK
5
1F
100
AcDbEntity
8
0
100
AcDbBlockEnd
0
BLOCK
5
20
100
AcDbEntity
8
0
100
AcDbBlockBegin
2
*PAPER_SPACE
70
0
10
0.0
20
0.0
30
0.0
3
*PAPER_SPACE
1

0
ENDBLK
5
21
100
AcDbEntity
8
0
100
AcDbBlockEnd
0
ENDSEC
0
SECTION
2
ENTITIES
0
TEXT
5
20A
100
AcDbEntity
8
LAYER_DETAIL_ITEM
100
AcDbText
62
2
6
CONTINUOUS
10
33.8561512636
20
5.3623244114
7
STANDARD
40
0.7000000000
1
UNIT: inch
41
0.8000000000
72
0
100
AcDbText
0
TEXT
5
20B
100
AcDbEntity
8
LAYER_DETAIL_ITEM
100
AcDbText
62
2
6
CONTINUOUS
10
33.9205165702
20
3.1095386810
7
STANDARD
40
0.7000000000
1
SCALE: 1:1.00
41
0.8000000000
72
0
100
AcDbText
0
LINE
5
20C
100
AcDbEntity
8
0
100
AcDbLine
62
7
6
CONTINUOUS
10
0.0000000000
20
0.0000000000
11
0.0000000000
21
34.0000000000
0
LINE
5
20D
100
AcDbEntity
8
0
100
AcDbLine
62
7
6
CONTINUOUS
10
0.0000000000
20
0.0000000000
11
44.0000000000
21
0.0000000000
0
LINE
5
20E
100
AcDbEntity
8
0
100
AcDbLine
62
7
6
CONTINUOUS
10
0.0000000000
20
34.0000000000
11
44.0000000000
21
34.0000000000
0
LINE
5
20F
100
AcDbEntity
8
0
100
AcDbLine
62
7
6
CONTINUOUS
10
44.0000000000
20
0.0000000000
11
44.0000000000
21
34.0000000000
0
LINE
5
210
100
AcDbEntity
8
0
100
AcDbLine
62
7
6
CONTINUOUS
10
16.1139379736
20
17.0327141660
11
16.0995960447
21
17.0215090230
0
LINE
5
211
100
AcDbEntity
8
0
100
AcDbLine
62
7
6
CONTINUOUS
10
16.1349757657
20
16.9585122088
11
16.1190575392
21
16.9496885917
0
LINE
5
212
100
AcDbEntity
8
0
100
AcDbLine
62
7
6
CONTINUOUS
10
16.1080940120
20
16.9953549688
11
16.1262830941
21
16.9947197921
0
LINE
5
213
100
AcDbEntity
8
0
100
AcDbLine
62
7
6
CONTINUOUS
10
16.1233594869
20
16.9225271623
11
16.1412252677
21
16.9190544064
0
LINE
5
214
100
AcDbEntity
8
0
100
AcDbLine
62
7
6
CONTINUOUS
10
16.0995960447
20
17.0215090230
11
16.1080940120
21
16.9953549688
0
LINE
5
215
100
AcDbEntity
8
0
100
AcDbLine
62
7
6
CONTINUOUS
10
16.1190575392
20
16.9496885917
11
16.1233594869
21
16.9225271623
0
LINE
5
216
100
AcDbEntity
8
0
100
AcDbLine
62
7
6
CONTINUOUS
10
1.6499546279
20
16.3619585264
11
1.6499546279
21
17.3619470334
0
LINE
5
217
100
AcDbEntity
8
0
100
AcDbLine
62
7
6
CONTINUOUS
10
1.6499546279
20
16.3619579406
11
8.6499546279
21
16.3619579406
0
LINE
5
218
100
AcDbEntity
8
0
100
AcDbLine
62
7
6
CONTINUOUS
10
8.6499546279
20
16.6119579406
11
9.3999546279
21
16.6119579406
0
LINE
5
219
100
AcDbEntity
8
DEFAULT_2
100
AcDbLine
62
8
6
HIDDEN
10
8.6499546279
20
16.9225271623
11
1.6499546279
21
16.9225271623
0
LINE
5
21A
100
AcDbEntity
8
DEFAULT_2
100
AcDbLine
62
8
6
HIDDEN
10
8.6499546279
20
16.9496885917
11
1.6499546279
21
16.9496885917
0
LINE
5
21B
100
AcDbEntity
8
DEFAULT_2
100
AcDbLine
62
8
6
HIDDEN
10
8.6499546279
20
16.9953549688
11
1.6499546279
21
16.9953549688
0
LINE
5
21C
100
AcDbEntity
8
DEFAULT_2
100
AcDbLine
62
8
6
HIDDEN
10
8.6499546279
20
17.0215090230
11
1.6499546279
21
17.0215090230
0
LINE
5
21D
100
AcDbEntity
8
0
100
AcDbLine
62
7
6
CONTINUOUS
10
8.6499546279
20
17.1119579406
11
9.3999546279
21
17.1119579406
0
LINE
5
21E
100
AcDbEntity
8
0
100
AcDbLine
62
7
6
CONTINUOUS
10
1.6499546279
20
17.3619579406
11
8.6499546279
21
17.3619579406
0
LINE
5
21F
100
AcDbEntity
8
0
100
AcDbLine
62
7
6
CONTINUOUS
10
8.6499546279
20
17.3619470334
11
8.6499546279
21
16.3619585264
0
LINE
5
220
100
AcDbEntity
8
0
100
AcDbLine
62
7
6
CONTINUOUS
10
9.3999546279
20
17.1119579406
11
9.3999546279
21
16.6119579406
0
LINE
5
221
100
AcDbEntity
8
0
100
AcDbLine
62
7
6
CONTINUOUS
10
15.9030442396
20
23.6183708290
11
15.4030442396
21
23.6183708290
0
LINE
5
222
100
AcDbEntity
8
0
100
AcDbLine
62
7
6
CONTINUOUS
10
15.1530624746
20
24.3683708290
11
16.1530228646
21
24.3683708290
0
LINE
5
223
100
AcDbEntity
8
0
100
AcDbLine
62
7
6
CONTINUOUS
10
15.1530442396
20
31.3683708290
11
15.1530442396
21
24.3683708290
0
LINE
5
224
100
AcDbEntity
8
0
100
AcDbLine
62
7
6
CONTINUOUS
10
15.4030442396
20
24.3683708290
11
15.4030442396
21
23.6183708290
0
LINE
5
225
100
AcDbEntity
8
0
100
AcDbLine
62
7
6
CONTINUOUS
10
15.9030442396
20
24.3683708290
11
15.9030442396
21
23.6183708290
0
LINE
5
226
100
AcDbEntity
8
DEFAULT_2
100
AcDbLine
62
8
6
HIDDEN
10
16.0995960447
20
24.3683708290
11
16.0995960447
21
31.3683708290
0
LINE
5
227
100
AcDbEntity
8
DEFAULT_2
100
AcDbLine
62
8
6
HIDDEN
10
16.1080940120
20
24.3683708290
11
16.1080940120
21
31.3683708290
0
LINE
5
228
100
AcDbEntity
8
0
100
AcDbLine
62
7
6
CONTINUOUS
10
16.1185500359
20
31.3683708290
11
16.1185500359
21
24.3683708290
0
LINE
5
229
100
AcDbEntity
8
DEFAULT_2
100
AcDbLine
62
8
6
HIDDEN
10
16.1190575392
20
24.3683708290
11
16.1190575392
21
31.3683708290
0
LINE
5
22A
100
AcDbEntity
8
DEFAULT_2
100
AcDbLine
62
8
6
HIDDEN
10
16.1233594869
20
24.3683708290
11
16.1233594869
21
31.3683708290
0
LINE
5
22B
100
AcDbEntity
8
0
100
AcDbLine
62
7
6
CONTINUOUS
10
16.1411580503
20
31.3683708290
11
16.1411580503
21
24.3683708290
0
LINE
5
22C
100
AcDbEntity
8
0
100
AcDbLine
62
7
6
CONTINUOUS
10
16.1530442396
20
31.3683708290
11
16.1530442396
21
24.3683708290
0
LINE
5
22D
100
AcDbEntity
8
0
100
AcDbLine
62
7
6
CONTINUOUS
10
15.1530624746
20
31.3683708290
11
16.1530228646
21
31.3683708290
0
LINE
5
22E
100
AcDbEntity
8
0
100
AcDbLine
62
7
6
CONTINUOUS
10
22.0291894866
20
16.6119579406
11
22.0291894866
21
17.1119579406
0
LINE
5
22F
100
AcDbEntity
8
0
100
AcDbLine
62
7
6
CONTINUOUS
10
22.7791894866
20
16.3619585264
11
22.7791894866
21
17.3619470334
0
LINE
5
230
100
AcDbEntity
8
0
100
AcDbLine
62
7
6
CONTINUOUS
10
29.7791894866
20
16.3619579406
11
22.7791894866
21
16.3619579406
0
LINE
5
231
100
AcDbEntity
8
0
100
AcDbLine
62
7
6
CONTINUOUS
10
22.7791894866
20
16.6119579406
11
22.0291894866
21
16.6119579406
0
LINE
5
232
100
AcDbEntity
8
0
100
AcDbLine
62
7
6
CONTINUOUS
10
22.7791894866
20
16.9225271623
11
29.7791894866
21
16.9225271623
0
LINE
5
233
100
AcDbEntity
8
0
100
AcDbLine
62
7
6
CONTINUOUS
10
22.7791894866
20
16.9496885917
11
29.7791894866
21
16.9496885917
0
LINE
5
234
100
AcDbEntity
8
0
100
AcDbLine
62
7
6
CONTINUOUS
10
22.7791894866
20
16.9953549688
11
29.7791894866
21
16.9953549688
0
LINE
5
235
100
AcDbEntity
8
0
100
AcDbLine
62
7
6
CONTINUOUS
10
22.7791894866
20
17.0215090230
11
29.7791894866
21
17.0215090230
0
LINE
5
236
100
AcDbEntity
8
0
100
AcDbLine
62
7
6
CONTINUOUS
10
22.7791894866
20
17.1119579406
11
22.0291894866
21
17.1119579406
0
LINE
5
237
100
AcDbEntity
8
0
100
AcDbLine
62
7
6
CONTINUOUS
10
29.7791894866
20
17.3619579406
11
22.7791894866
21
17.3619579406
0
LINE
5
238
100
AcDbEntity
8
0
100
AcDbLine
62
7
6
CONTINUOUS
10
29.7791894866
20
16.3619585264
11
29.7791894866
21
17.3619470334
0
LINE
5
239
100
AcDbEntity
8
0
100
AcDbLine
62
7
6
CONTINUOUS
10
16.1530228646
20
2.4223629667
11
15.1530624746
21
2.4223629667
0
LINE
5
23A
100
AcDbEntity
8
0
100
AcDbLine
62
7
6
CONTINUOUS
10
15.1530442396
20
2.4223629667
11
15.1530442396
21
9.4223629667
0
LINE
5
23B
100
AcDbEntity
8
0
100
AcDbLine
62
7
6
CONTINUOUS
10
15.4030442396
20
9.4223629667
11
15.4030442396
21
10.1723629667
0
LINE
5
23C
100
AcDbEntity
8
0
100
AcDbLine
62
7
6
CONTINUOUS
10
15.9030442396
20
9.4223629667
11
15.9030442396
21
10.1723629667
0
LINE
5
23D
100
AcDbEntity
8
DEFAULT_2
100
AcDbLine
62
8
6
HIDDEN
10
16.0995960447
20
9.4223629667
11
16.0995960447
21
2.4223629667
0
LINE
5
23E
100
AcDbEntity
8
DEFAULT_2
100
AcDbLine
62
8
6
HIDDEN
10
16.1080940120
20
9.4223629667
11
16.1080940120
21
2.4223629667
0
LINE
5
23F
100
AcDbEntity
8
DEFAULT_2
100
AcDbLine
62
8
6
HIDDEN
10
16.1185500359
20
2.4223629667
11
16.1185500359
21
9.4223629667
0
LINE
5
240
100
AcDbEntity
8
DEFAULT_2
100
AcDbLine
62
8
6
HIDDEN
10
16.1190575392
20
9.4223629667
11
16.1190575392
21
2.4223629667
0
LINE
5
241
100
AcDbEntity
8
DEFAULT_2
100
AcDbLine
62
8
6
HIDDEN
10
16.1233594869
20
9.4223629667
11
16.1233594869
21
2.4223629667
0
LINE
5
242
100
AcDbEntity
8
DEFAULT_2
100
AcDbLine
62
8
6
HIDDEN
10
16.1411580503
20
2.4223629667
11
16.1411580503
21
9.4223629667
0
LINE
5
243
100
AcDbEntity
8
0
100
AcDbLine
62
7
6
CONTINUOUS
10
16.1530442396
20
2.4223629667
11
16.1530442396
21
9.4223629667
0
LINE
5
244
100
AcDbEntity
8
0
100
AcDbLine
62
7
6
CONTINUOUS
10
15.1530624746
20
9.4223629667
11
16.1530228646
21
9.4223629667
0
LINE
5
245
100
AcDbEntity
8
0
100
AcDbLine
62
7
6
CONTINUOUS
10
15.4030442396
20
10.1723629667
11
15.9030442396
21
10.1723629667
0
LINE
5
246
100
AcDbEntity
8
0
100
AcDbLine
62
7
6
CONTINUOUS
10
36.0206185957
20
24.2182466945
11
36.0375656053
21
24.2178518623
0
LINE
5
247
100
AcDbEntity
8
0
100
AcDbLine
62
7
6
CONTINUOUS
10
36.0568945593
20
24.1729762040
11
36.0744093690
21
24.1708175042
0
LINE
5
248
100
AcDbEntity
8
DEFAULT_2
100
AcDbLine
62
8
6
HIDDEN
10
37.7510811787
20
29.6786332349
11
37.7391110937
21
29.6731483866
0
LINE
5
249
100
AcDbEntity
8
0
100
AcDbLine
62
7
6
CONTINUOUS
10
36.0048133680
20
24.2345043153
11
36.0206185957
21
24.2182466945
0
LINE
5
24A
100
AcDbEntity
8
DEFAULT_2
100
AcDbLine
62
8
6
HIDDEN
10
37.7090693855
20
29.7247579112
11
37.6992776318
21
29.7177926826
0
LINE
5
24B
100
AcDbEntity
8
0
100
AcDbLine
62
7
6
CONTINUOUS
10
36.0446468299
20
24.1898600192
11
36.0568945593
21
24.1729762040
0
LINE
5
24C
100
AcDbEntity
8
DEFAULT_2
100
AcDbLine
62
8
6
HIDDEN
10
37.7090693855
20
29.7247579112
11
37.7108460938
21
29.7270961620
0
LINE
5
24D
100
AcDbEntity
8
0
100
AcDbLine
62
7
6
CONTINUOUS
10
36.8589355203
20
29.7662378251
11
35.1644712564
21
24.2829494577
0
LINE
5
24E
100
AcDbEntity
8
0
100
AcDbLine
62
7
6
CONTINUOUS
10
35.4033264675
20
24.2091376148
11
35.2217767249
21
23.6216424326
0
LINE
5
24F
100
AcDbEntity
8
0
100
AcDbLine
62
7
6
CONTINUOUS
10
35.8810368896
20
24.0615139291
11
35.6994871471
21
23.4740187469
0
LINE
5
250
100
AcDbEntity
8
DEFAULT_2
100
AcDbLine
62
8
6
HIDDEN
10
36.0048133680
20
24.2345043153
11
37.6992776318
21
29.7177926826
0
LINE
5
251
100
AcDbEntity
8
0
100
AcDbLine
62
7
6
CONTINUOUS
10
37.7108451791
20
29.7270929668
11
36.0179354963
21
24.2488352255
0
LINE
5
252
100
AcDbEntity
8
DEFAULT_2
100
AcDbLine
62
8
6
HIDDEN
10
36.0179354963
20
24.2488352255
11
36.0163809152
21
24.2438045994
0
LINE
5
253
100
AcDbEntity
8
0
100
AcDbLine
62
7
6
CONTINUOUS
10
36.0206185957
20
24.2182466945
11
37.7150828596
21
29.7015350618
0
LINE
5
254
100
AcDbEntity
8
DEFAULT_2
100
AcDbLine
62
8
6
HIDDEN
10
36.0446468299
20
24.1898600192
11
37.7391110937
21
29.6731483866
0
LINE
5
255
100
AcDbEntity
8
0
100
AcDbLine
62
7
6
CONTINUOUS
10
37.7539862105
20
29.6816143344
11
36.0608535388
21
24.2026350008
0
LINE
5
256
100
AcDbEntity
8
DEFAULT_2
100
AcDbLine
62
8
6
HIDDEN
10
36.0608535388
20
24.2026350008
11
36.0595219467
21
24.1983259670
0
LINE
5
257
100
AcDbEntity
8
0
100
AcDbLine
62
7
6
CONTINUOUS
10
36.0568945593
20
24.1729762040
11
37.7513588231
21
29.6562645714
0
LINE
5
258
100
AcDbEntity
8
0
100
AcDbLine
62
7
6
CONTINUOUS
10
37.8143563645
20
29.4709904536
11
36.1198921007
21
23.9877020862
0
LINE
5
259
100
AcDbEntity
8
0
100
AcDbLine
62
7
6
CONTINUOUS
10
36.0146051216
20
24.2414695438
11
36.0163818300
21
24.2438077946
0
LINE
5
25A
100
AcDbEntity
8
0
100
AcDbLine
62
7
6
CONTINUOUS
10
36.0146051216
20
24.2414695438
11
36.0048133680
21
24.2345043153
0
LINE
5
25B
100
AcDbEntity
8
0
100
AcDbLine
62
7
6
CONTINUOUS
10
36.0566169149
20
24.1953448676
11
36.0446468299
21
24.1898600192
0
LINE
5
25C
100
AcDbEntity
8
DEFAULT_2
100
AcDbLine
62
8
6
HIDDEN
10
37.7391110937
20
29.6731483866
11
37.7477078459
21
29.6612975390
0
LINE
5
25D
100
AcDbEntity
8
0
100
AcDbLine
62
7
6
CONTINUOUS
10
37.7477078459
20
29.6612975390
11
37.7513588231
21
29.6562645714
0
LINE
5
25E
100
AcDbEntity
8
0
100
AcDbLine
62
7
6
CONTINUOUS
10
37.7150828596
20
29.7015350618
11
37.7320298691
21
29.7011402297
0
LINE
5
25F
100
AcDbEntity
8
DEFAULT_2
100
AcDbLine
62
8
6
HIDDEN
10
37.6992776318
20
29.7177926826
11
37.7058743004
21
29.7110071976
0
LINE
5
260
100
AcDbEntity
8
0
100
AcDbLine
62
7
6
CONTINUOUS
10
37.7058743004
20
29.7110071976
11
37.7150828596
21
29.7015350618
0
LINE
5
261
100
AcDbEntity
8
0
100
AcDbLine
62
7
6
CONTINUOUS
10
37.7513588231
20
29.6562645714
11
37.7688736329
21
29.6541058716
0
CIRCLE
5
262
100
AcDbEntity
8
0
100
AcDbCircle
62
7
6
CONTINUOUS
10
15.6530442396
20
16.8619579406
40
0.2500000000
0
ARC
5
263
100
AcDbEntity
8
0
100
AcDbCircle
62
7
6
CONTINUOUS
10
15.6530442396
20
16.8619579406
40
0.5000000000
100
AcDbArc
50
12.6716891575
51
14.3283108425
0
ARC
5
264
100
AcDbEntity
8
0
100
AcDbCircle
62
7
6
CONTINUOUS
10
16.1065500359
20
17.0421702950
40
0.0120000000
100
AcDbArc
50
308.0000000000
51
21.6716891575
0
ARC
5
265
100
AcDbEntity
8
0
100
AcDbCircle
62
7
6
CONTINUOUS
10
16.1389355597
20
16.9072748802
40
0.0120000000
100
AcDbArc
50
5.3283108425
51
79.0000000000
0
ARC
5
266
100
AcDbEntity
8
0
100
AcDbCircle
62
7
6
CONTINUOUS
10
16.1291580503
20
16.9690076453
40
0.0120000000
100
AcDbArc
50
299.0000000000
51
12.6716891575
0
ARC
5
267
100
AcDbEntity
8
0
100
AcDbCircle
62
7
6
CONTINUOUS
10
16.1258643001
20
16.9827271022
40
0.0120000000
100
AcDbArc
50
14.3283108425
51
88.0000000000
0
ARC
5
268
100
AcDbEntity
8
0
100
AcDbCircle
62
7
6
CONTINUOUS
10
15.6530442396
20
16.8619579406
40
0.5000000000
100
AcDbArc
50
21.6716891575
51
5.3283108425
0
SPLINE
5
269
100
AcDbEntity
8
DEFAULT_2
100
AcDbSpline
62
8
6
HIDDEN
70
0
71
3
72
9
73
5
74
3
42
0.0000001000
43
0.0000001000
44
0.0000000001
12
0.0038360475
22
0.0017577268
32
0.0000000000
13
0.0012113008
23
0.0041238515
33
0.0000000000
40
0.0000000000
40
0.0000000000
40
0.0000000000
40
0.0000000000
40
0.7737611936
40
1.0000000000
40
1.0000000000
40
1.0000000000
40
1.0000000000
10
37.7510811787
20
29.6786332349
30
0.0000000000
10
37.7520705736
20
29.6790865885
30
0.0000000000
10
37.7533171753
20
29.6799811089
30
0.0000000000
10
37.7538743398
20
29.6813022863
30
0.0000000000
10
37.7539656876
20
29.6816132781
30
0.0000000000
11
37.7510811787
21
29.6786332349
31
0.0000000000
11
37.7535869472
21
29.6807263211
31
0.0000000000
11
37.7539656876
21
29.6816132781
31
0.0000000000
0
SPLINE
5
26A
100
AcDbEntity
8
DEFAULT_2
100
AcDbSpline
62
8
6
HIDDEN
70
0
71
3
72
18
73
14
74
12
42
0.0000001000
43
0.0000001000
44
0.0000000001
12
0.2430756408
22
-0.4953360765
32
0.0000000000
13
0.1642888195
23
0.5295880918
33
0.0000000000
40
0.0000000000
40
0.0000000000
40
0.0000000000
40
0.0000000000
40
0.0811566704
40
0.1733334245
40
0.2746982622
40
0.3820008832
40
0.4912243942
40
0.5981230196
40
0.6987290932
40
0.7898976246
40
0.8699744331
40
0.9396773414
40
1.0000000000
40
1.0000000000
40
1.0000000000
40
1.0000000000
10
35.4119164301
20
24.1353257720
30
0.0000000000
10
35.4184921666
20
24.1219258297
30
0.0000000000
10
35.4369233222
20
24.0954212638
30
0.0000000000
10
35.4741308040
20
24.0608569571
30
0.0000000000
10
35.5206747958
20
24.0304969156
30
0.0000000000
10
35.5739850281
20
24.0060263340
30
0.0000000000
10
35.6311083620
20
23.9887801746
30
0.0000000000
10
35.6888523037
20
23.9797274448
30
0.0000000000
10
35.7440160757
20
23.9793734641
30
0.0000000000
10
35.7936201090
20
23.9877770287
30
0.0000000000
10
35.8350816001
20
24.0046673737
30
0.0000000000
10
35.8657469603
20
24.0293944570
30
0.0000000000
10
35.8777362083
20
24.0508789038
30
0.0000000000
10
35.8810396544
20
24.0615276243
30
0.0000000000
11
35.4119164301
21
24.1353257720
31
0.0000000000
11
35.4368578439
21
24.0981355213
31
0.0000000000
11
35.4737319327
21
24.0631066329
31
0.0000000000
11
35.5203957085
21
24.0322748583
31
0.0000000000
11
35.5741372421
21
24.0074320283
31
0.0000000000
11
35.6318332711
21
23.9900219177
31
0.0000000000
11
35.6901307119
21
23.9810563390
31
0.0000000000
11
35.7456415292
21
23.9810563390
31
0.0000000000
11
35.7951396360
21
23.9900219177
31
0.0000000000
11
35.8357483823
21
24.0074320283
31
0.0000000000
11
35.8651077354
21
24.0322748583
31
0.0000000000
11
35.8810396544
21
24.0615276243
31
0.0000000000
0
SPLINE
5
26B
100
AcDbEntity
8
DEFAULT_2
100
AcDbSpline
62
8
6
HIDDEN
70
0
71
3
72
24
73
20
74
18
42
0.0000001000
43
0.0000001000
44
0.0000000001
12
-0.3709268710
22
-1.2058706286
32
0.0000000000
13
0.3727641559
23
1.2047283496
33
0.0000000000
40
0.0000000000
40
0.0000000000
40
0.0000000000
40
0.0000000000
40
0.0073608280
40
0.0553162503
40
0.1075624611
40
0.1663527703
40
0.2323599064
40
0.3050207417
40
0.3829217467
40
0.4641052264
40
0.5463127226
40
0.6271973022
40
0.7045270339
40
0.7763996616
40
0.8414920303
40
0.8993758932
40
0.9509099663
40
0.9985527953
40
1.0000000000
40
1.0000000000
40
1.0000000000
40
1.0000000000
10
37.8143355208
20
29.4709565740
30
0.0000000000
10
37.8134254111
20
29.4679978386
30
0.0000000000
10
37.8059528676
20
29.4459640096
30
0.0000000000
10
37.7821252505
20
29.4066325789
30
0.0000000000
10
37.7303504371
20
29.3633148409
30
0.0000000000
10
37.6626537772
20
29.3316430822
30
0.0000000000
10
37.5818554245
20
29.3122409422
30
0.0000000000
10
37.4911122293
20
29.3056275588
30
0.0000000000
10
37.3940455139
20
29.3119945130
30
0.0000000000
10
37.2946172365
20
29.3310647874
30
0.0000000000
10
37.1969322887
20
29.3620482809
30
0.0000000000
10
37.1050361255
20
29.4036613687
30
0.0000000000
10
37.0227202880
20
29.4541899304
30
0.0000000000
10
36.9533476049
20
29.5115928860
30
0.0000000000
10
36.8997235647
20
29.5736575800
30
0.0000000000
10
36.8640958643
20
29.6381861638
30
0.0000000000
10
36.8484331578
20
29.7030695583
30
0.0000000000
10
36.8527661515
20
29.7458970841
30
0.0000000000
10
36.8587526293
20
29.7656451740
30
0.0000000000
10
36.8589324513
20
29.7662263368
30
0.0000000000
11
37.8143355208
21
29.4709565740
31
0.0000000000
11
37.8113520337
21
29.4621658328
31
0.0000000000
11
37.7806860919
21
29.4103407870
31
0.0000000000
11
37.7310869016
21
29.3673978298
31
0.0000000000
11
37.6646705259
21
29.3351672691
31
0.0000000000
11
37.5842697836
21
29.3150225649
31
0.0000000000
11
37.4933132396
21
29.3078217904
31
0.0000000000
11
37.3956791912
21
29.3138711838
31
0.0000000000
11
37.2955300924
21
29.3329121525
31
0.0000000000
11
37.1971353554
21
29.3641323545
31
0.0000000000
11
37.1046891845
21
29.4062004145
31
0.0000000000
11
37.0221320118
21
29.4573226721
31
0.0000000000
11
36.9529825014
21
29.5153196963
31
0.0000000000
11
36.9001876846
21
29.5777191793
31
0.0000000000
11
36.8659974376
21
29.6418612785
31
0.0000000000
11
36.8518686084
21
29.7050120316
31
0.0000000000
11
36.8584030248
21
29.7644798065
31
0.0000000000
11
36.8589324513
21
29.7662263368
31
0.0000000000
0
SPLINE
5
26C
100
AcDbEntity
8
DEFAULT_2
100
AcDbSpline
62
8
6
HIDDEN
70
0
71
3
72
10
73
6
74
4
42
0.0000001000
43
0.0000001000
44
0.0000000001
12
-0.0225406775
22
-0.0726602968
32
0.0000000000
13
0.0333503500
23
-0.0679608678
33
0.0000000000
40
0.0000000000
40
0.0000000000
40
0.0000000000
40
0.0000000000
40
0.0216641366
40
0.4855515615
40
1.0000000000
40
1.0000000000
40
1.0000000000
40
1.0000000000
10
35.4033237027
20
24.2091239196
30
0.0000000000
10
35.4031609279
20
24.2085992121
30
0.0000000000
10
35.3996356199
20
24.1968020224
30
0.0000000000
10
35.3981421308
20
24.1708741645
30
0.0000000000
10
35.4061974182
20
24.1469798927
30
0.0000000000
10
35.4119164301
20
24.1353257720
30
0.0000000000
11
35.4033237027
21
24.2091239196
31
0.0000000000
11
35.4028519208
21
24.2075449110
31
0.0000000000
11
35.4003571954
21
24.1725160226
31
0.0000000000
11
35.4119164301
21
24.1353257720
31
0.0000000000
0
SPLINE
5
26D
100
AcDbEntity
8
DEFAULT_2
100
AcDbSpline
62
8
6
HIDDEN
70
0
71
3
72
13
73
9
74
7
42
0.0000001000
43
0.0000001000
44
0.0000000001
12
0.4139970203
22
-0.2949728474
32
0.0000000000
13
0.5082797200
23
0.0100142640
33
0.0000000000
40
0.0000000000
40
0.0000000000
40
0.0000000000
40
0.0000000000
40
0.1853642571
40
0.3853440792
40
0.5885946934
40
0.7893135190
40
0.9819167222
40
1.0000000000
40
1.0000000000
40
1.0000000000
40
1.0000000000
10
35.3300761362
20
23.9723102588
30
0.0000000000
10
35.3556562196
20
23.9540844512
30
0.0000000000
10
35.4114726291
20
23.9199651093
30
0.0000000000
10
35.5024680249
20
23.8787599135
30
0.0000000000
10
35.6001529726
20
23.8477764200
30
0.0000000000
10
35.6995812501
20
23.8287061456
30
0.0000000000
10
35.7692774028
20
23.8241345249
30
0.0000000000
10
35.8049771614
20
23.8245912057
30
0.0000000000
10
35.8080409492
20
23.8246515692
30
0.0000000000
11
35.3300761362
21
23.9723102588
31
0.0000000000
11
35.4102249207
21
23.9229120471
31
0.0000000000
11
35.5026710916
21
23.8808439871
31
0.0000000000
11
35.6010658286
21
23.8496237851
31
0.0000000000
11
35.7012149274
21
23.8305828164
31
0.0000000000
11
35.7988489758
21
23.8245334230
31
0.0000000000
11
35.8080409492
21
23.8246515692
31
0.0000000000
0
SPLINE
5
26E
100
AcDbEntity
8
0
100
AcDbSpline
62
7
6
CONTINUOUS
70
0
71
3
72
10
73
6
74
4
42
0.0000001000
43
0.0000001000
44
0.0000000001
12
0.0021326585
22
0.0067853001
32
0.0000000000
13
-0.0051839821
23
0.0048020527
33
0.0000000000
40
0.0000000000
40
0.0000000000
40
0.0000000000
40
0.0000000000
40
0.0149647101
40
0.4500340433
40
1.0000000000
40
1.0000000000
40
1.0000000000
40
1.0000000000
10
37.7108457272
20
29.7270962773
30
0.0000000000
10
37.7108563654
20
29.7271301239
30
0.0000000000
10
37.7111609908
20
29.7281520636
30
0.0000000000
10
37.7107891903
20
29.7306792031
30
0.0000000000
10
37.7092501600
20
29.7325102478
30
0.0000000000
10
37.7082998221
20
29.7333905696
30
0.0000000000
11
37.7108457272
21
29.7270962773
31
0.0000000000
11
37.7108761026
21
29.7271982154
31
0.0000000000
11
37.7106031200
21
29.7302604264
31
0.0000000000
11
37.7082998221
21
29.7333905696
31
0.0000000000
0
SPLINE
5
26F
100
AcDbEntity
8
0
100
AcDbSpline
62
7
6
CONTINUOUS
70
0
71
3
72
10
73
6
74
4
42
0.0000001000
43
0.0000001000
44
0.0000000001
12
-0.0075567077
22
0.0120153037
32
0.0000000000
13
-0.0140874656
23
0.0017362797
33
0.0000000000
40
0.0000000000
40
0.0000000000
40
0.0000000000
40
0.0000000000
40
0.2954764455
40
0.6413630330
40
1.0000000000
40
1.0000000000
40
1.0000000000
40
1.0000000000
10
37.7810229695
20
29.6474762924
30
0.0000000000
10
37.7802786931
20
29.6486597055
30
0.0000000000
10
37.7780391677
20
29.6508275343
30
0.0000000000
10
37.7738258298
20
29.6530557090
30
0.0000000000
10
37.7705577282
20
29.6538983069
30
0.0000000000
10
37.7688736329
20
29.6541058716
30
0.0000000000
11
37.7810229695
21
29.6474762924
31
0.0000000000
11
37.7781169737
21
29.6505003481
31
0.0000000000
11
37.7738073125
21
29.6528520189
31
0.0000000000
11
37.7688736329
21
29.6541058716
31
0.0000000000
0
SPLINE
5
270
100
AcDbEntity
8
0
100
AcDbSpline
62
7
6
CONTINUOUS
70
0
71
3
72
10
73
6
74
4
42
0.0000001000
43
0.0000001000
44
0.0000000001
12
-0.0095461671
22
0.0109827307
32
0.0000000000
13
-0.0145476735
23
0.0003389324
33
0.0000000000
40
0.0000000000
40
0.0000000000
40
0.0000000000
40
0.0000000000
40
0.3094681857
40
0.6562969594
40
1.0000000000
40
1.0000000000
40
1.0000000000
40
1.0000000000
10
37.7451054346
20
29.6955314700
30
0.0000000000
10
37.7441206896
20
29.6966644052
30
0.0000000000
10
37.7415457119
20
29.6986444188
30
0.0000000000
10
37.7370440720
20
29.7005406735
30
0.0000000000
10
37.7336965623
20
29.7011013990
30
0.0000000000
10
37.7320298691
20
29.7011402297
30
0.0000000000
11
37.7451054346
21
29.6955314700
31
0.0000000000
11
37.7416079298
21
29.6983681660
31
0.0000000000
11
37.7369697129
21
29.7003577277
31
0.0000000000
11
37.7320298691
21
29.7011402297
31
0.0000000000
0
SPLINE
5
271
100
AcDbEntity
8
0
100
AcDbSpline
62
7
6
CONTINUOUS
70
0
71
3
72
9
73
5
74
3
42
0.0000001000
43
0.0000001000
44
0.0000000001
12
0.0015880328
22
0.0054064289
32
0.0000000000
13
-0.0035175880
23
0.0042695249
33
0.0000000000
40
0.0000000000
40
0.0000000000
40
0.0000000000
40
0.0000000000
40
0.3585688250
40
1.0000000000
40
1.0000000000
40
1.0000000000
40
1.0000000000
10
37.7539656876
20
29.6816132781
30
0.0000000000
10
37.7541554939
20
29.6822594704
30
0.0000000000
10
37.7542669704
20
29.6842071874
30
0.0000000000
10
37.7532537954
20
29.6858807414
30
0.0000000000
10
37.7525016985
20
29.6867936102
30
0.0000000000
11
37.7539656876
21
29.6816132781
31
0.0000000000
11
37.7540908397
21
29.6836210020
31
0.0000000000
11
37.7525016985
21
29.6867936102
31
0.0000000000
0
SPLINE
5
272
100
AcDbEntity
8
0
100
AcDbSpline
62
7
6
CONTINUOUS
70
0
71
3
72
9
73
5
74
3
42
0.0000001000
43
0.0000001000
44
0.0000000001
12
0.0038360475
22
0.0017577268
32
0.0000000000
13
0.0012113008
23
0.0041238515
33
0.0000000000
40
0.0000000000
40
0.0000000000
40
0.0000000000
40
0.0000000000
40
0.7737611936
40
1.0000000000
40
1.0000000000
40
1.0000000000
40
1.0000000000
10
36.0566169149
20
24.1953448676
30
0.0000000000
10
36.0576063098
20
24.1957982211
30
0.0000000000
10
36.0588529115
20
24.1966927415
30
0.0000000000
10
36.0594100760
20
24.1980139190
30
0.0000000000
10
36.0595014237
20
24.1983249107
30
0.0000000000
11
36.0566169149
21
24.1953448676
31
0.0000000000
11
36.0591226834
21
24.1974379537
31
0.0000000000
11
36.0595014237
21
24.1983249107
31
0.0000000000
0
SPLINE
5
273
100
AcDbEntity
8
0
100
AcDbSpline
62
7
6
CONTINUOUS
70
0
71
3
72
9
73
5
74
3
42
0.0000001000
43
0.0000001000
44
0.0000000001
12
0.0075102391
22
-0.0086404242
32
0.0000000000
13
0.0072795457
23
-0.0088356570
33
0.0000000000
40
0.0000000000
40
0.0000000000
40
0.0000000000
40
0.0000000000
40
0.5012471354
40
1.0000000000
40
1.0000000000
40
1.0000000000
40
1.0000000000
10
37.7451054346
20
29.6955314700
30
0.0000000000
10
37.7463602633
20
29.6940878074
30
0.0000000000
10
37.7488450831
20
29.6911914493
30
0.0000000000
10
37.7512914671
20
29.6882625466
30
0.0000000000
10
37.7525016985
20
29.6867936102
30
0.0000000000
11
37.7451054346
21
29.6955314700
31
0.0000000000
11
37.7488416239
21
29.6911760482
31
0.0000000000
11
37.7525016985
21
29.6867936102
31
0.0000000000
0
SPLINE
5
274
100
AcDbEntity
8
0
100
AcDbSpline
62
7
6
CONTINUOUS
70
0
71
3
72
10
73
6
74
4
42
0.0000001000
43
0.0000001000
44
0.0000000001
12
0.0983323028
22
-0.1563501627
32
0.0000000000
13
-0.0545592333
23
-0.1773702099
33
0.0000000000
40
0.0000000000
40
0.0000000000
40
0.0000000000
40
0.0000000000
40
0.3844866169
40
0.7283386620
40
1.0000000000
40
1.0000000000
40
1.0000000000
40
1.0000000000
10
37.7810229695
20
29.6474762924
30
0.0000000000
10
37.7936254543
20
29.6274381107
30
0.0000000000
10
37.8137409164
20
29.5867742466
30
0.0000000000
10
37.8248449624
20
29.5251944730
30
0.0000000000
10
37.8192760655
20
29.4870181169
30
0.0000000000
10
37.8143355208
20
29.4709565740
30
0.0000000000
11
37.7810229695
21
29.6474762924
31
0.0000000000
11
37.8115113004
21
29.5833387541
31
0.0000000000
11
37.8217756399
21
29.5206637307
31
0.0000000000
11
37.8143355208
21
29.4709565740
31
0.0000000000
0
SPLINE
5
275
100
AcDbEntity
8
0
100
AcDbSpline
62
7
6
CONTINUOUS
70
0
71
3
72
18
73
14
74
12
42
0.0000001000
43
0.0000001000
44
0.0000000001
12
0.2429800421
22
-0.4951412669
32
0.0000000000
13
0.1626084163
23
0.5302217096
33
0.0000000000
40
0.0000000000
40
0.0000000000
40
0.0000000000
40
0.0000000000
40
0.0884256708
40
0.1896729776
40
0.3011490325
40
0.4184680478
40
0.5363804450
40
0.6495540112
40
0.7533419895
40
0.8446657354
40
0.9231777274
40
0.9926564460
40
1.0000000000
40
1.0000000000
40
1.0000000000
40
1.0000000000
10
35.2303666875
20
23.5478305897
30
0.0000000000
10
35.2375285786
20
23.5332361902
30
0.0000000000
10
35.2580997085
20
23.5044540413
30
0.0000000000
10
35.2998291021
20
23.4675935439
30
0.0000000000
10
35.3519650374
20
23.4359891150
30
0.0000000000
10
35.4111512203
20
23.4116987268
30
0.0000000000
10
35.4735620731
20
23.3962674632
30
0.0000000000
10
35.5351403855
20
23.3907068285
30
0.0000000000
10
35.5919659890
20
23.3953902110
30
0.0000000000
10
35.6405559695
20
23.4101717116
30
0.0000000000
10
35.6780677894
20
23.4347192198
30
0.0000000000
10
35.6945643302
20
23.4592248578
30
0.0000000000
10
35.6990730690
20
23.4726916546
30
0.0000000000
10
35.6994711103
20
23.4739895585
30
0.0000000000
11
35.2303666875
21
23.5478305897
31
0.0000000000
11
35.2579504467
21
23.5076094651
31
0.0000000000
11
35.2993466145
21
23.4701293437
31
0.0000000000
11
35.3517341104
21
23.4379444338
31
0.0000000000
11
35.4115428132
21
23.4132480838
31
0.0000000000
11
35.4746968585
21
23.3977233092
31
0.0000000000
11
35.5368924027
21
23.3924280977
31
0.0000000000
11
35.5938909220
21
23.3977233092
31
0.0000000000
11
35.6418080617
21
23.4132480838
31
0.0000000000
11
35.6773783478
21
23.4379444338
31
0.0000000000
11
35.6981777241
21
23.4701293437
31
0.0000000000
11
35.6994711103
21
23.4739895585
31
0.0000000000
0
SPLINE
5
276
100
AcDbEntity
8
0
100
AcDbSpline
62
7
6
CONTINUOUS
70
0
71
3
72
9
73
5
74
3
42
0.0000001000
43
0.0000001000
44
0.0000000001
12
-0.0223046621
22
-0.0727294216
32
0.0000000000
13
0.0333290727
23
-0.0679175094
33
0.0000000000
40
0.0000000000
40
0.0000000000
40
0.0000000000
40
0.0000000000
40
0.4456092271
40
1.0000000000
40
1.0000000000
40
1.0000000000
40
1.0000000000
10
35.2217927617
20
23.6216716210
30
0.0000000000
10
35.2184797073
20
23.6108686538
30
0.0000000000
10
35.2161684528
20
23.5849786168
30
0.0000000000
10
35.2242075774
20
23.5603815366
30
0.0000000000
10
35.2303666875
20
23.5478305897
30
0.0000000000
11
35.2217927617
21
23.6216716210
31
0.0000000000
11
35.2184751244
21
23.5880517143
31
0.0000000000
11
35.2303666875
21
23.5478305897
31
0.0000000000
0
SPLINE
5
277
100
AcDbEntity
8
0
100
AcDbSpline
62
7
6
CONTINUOUS
70
0
71
3
72
18
73
14
74
12
42
0.0000001000
43
0.0000001000
44
0.0000000001
12
0.2844988233
22
0.9194655452
32
0.0000000000
13
0.7030797860
23
-0.6512804526
33
0.0000000000
40
0.0000000000
40
0.0000000000
40
0.0000000000
40
0.0000000000
40
0.0603626583
40
0.1274519345
40
0.2027232048
40
0.2874231241
40
0.3810794384
40
0.4820181488
40
0.5877839585
40
0.6954712814
40
0.8020071265
40
0.9044179892
40
1.0000000000
40
1.0000000000
40
1.0000000000
40
1.0000000000
10
36.8589324513
20
29.7662263368
30
0.0000000000
10
36.8646568197
20
29.7847267984
30
0.0000000000
10
36.8838833992
20
29.8216002133
30
0.0000000000
10
36.9318608636
20
29.8666065062
30
0.0000000000
10
36.9967522785
20
29.9005199557
30
0.0000000000
10
37.0752890460
20
29.9222852138
30
0.0000000000
10
37.1644036905
20
29.9313444234
30
0.0000000000
10
37.2605591615
20
29.9274297002
30
0.0000000000
10
37.3598456371
20
29.9107218399
30
0.0000000000
10
37.4581685075
20
29.8819147705
30
0.0000000000
10
37.5514646622
20
29.8421940903
30
0.0000000000
10
37.6358210975
20
29.7932407323
30
0.0000000000
10
37.6858992288
20
29.7541408014
30
0.0000000000
10
37.7082998221
20
29.7333905696
30
0.0000000000
11
36.8589324513
21
29.7662263368
31
0.0000000000
11
36.8853218755
21
29.8177300120
31
0.0000000000
11
36.9314776197
21
29.8624930824
31
0.0000000000
11
36.9949029039
21
29.8968611833
31
0.0000000000
11
37.0728944068
21
29.9193694996
31
0.0000000000
11
37.1621280189
21
29.9290586472
31
0.0000000000
11
37.2588005009
21
29.9255155599
31
0.0000000000
11
37.3587915047
21
29.9088910986
31
0.0000000000
11
37.4578391756
21
29.8798936357
31
0.0000000000
11
37.5517217117
21
29.8397588987
31
0.0000000000
11
37.6364373096
21
29.7901973259
31
0.0000000000
11
37.7082998221
21
29.7333905696
31
0.0000000000
0
SPLINE
5
278
100
AcDbEntity
8
0
100
AcDbSpline
62
7
6
CONTINUOUS
70
0
71
3
72
14
73
10
74
8
42
0.0000001000
43
0.0000001000
44
0.0000000001
12
-0.1110201934
22
-0.3588037429
32
0.0000000000
13
0.3048495058
23
-0.2172052511
33
0.0000000000
40
0.0000000000
40
0.0000000000
40
0.0000000000
40
0.0000000000
40
0.0048591704
40
0.1648259152
40
0.3378579975
40
0.5322102917
40
0.7507660438
40
0.9920873618
40
1.0000000000
40
1.0000000000
40
1.0000000000
40
1.0000000000
10
35.1644681874
20
24.2829379694
30
0.0000000000
10
35.1642883654
20
24.2823568066
30
0.0000000000
10
35.1583018877
20
24.2626087167
30
0.0000000000
10
35.1539688939
20
24.2197811910
30
0.0000000000
10
35.1696316004
20
24.1548977964
30
0.0000000000
10
35.2052593009
20
24.0903692127
30
0.0000000000
10
35.2588833411
20
24.0283045186
30
0.0000000000
10
35.3039853100
20
23.9909845504
30
0.0000000000
10
35.3292720816
20
23.9728831476
30
0.0000000000
10
35.3300761362
20
23.9723102588
30
0.0000000000
11
35.1644681874
21
24.2829379694
31
0.0000000000
11
35.1639387610
21
24.2811914391
31
0.0000000000
11
35.1574043445
21
24.2217236642
31
0.0000000000
11
35.1715331737
21
24.1585729111
31
0.0000000000
11
35.2057234208
21
24.0944308119
31
0.0000000000
11
35.2585182375
21
24.0320313289
31
0.0000000000
11
35.3276677480
21
23.9740343047
31
0.0000000000
11
35.3300761362
21
23.9723102588
31
0.0000000000
0
SPLINE
5
279
100
AcDbEntity
8
0
100
AcDbSpline
62
7
6
CONTINUOUS
70
0
71
3
72
13
73
9
74
7
42
0.0000001000
43
0.0000001000
44
0.0000000001
12
0.3741207996
22
0.0073710288
32
0.0000000000
13
0.1104274192
23
0.3589957802
33
0.0000000000
40
0.0000000000
40
0.0000000000
40
0.0000000000
40
0.0000000000
40
0.2195006131
40
0.4412192823
40
0.6386965538
40
0.8141921294
40
0.9752749007
40
1.0000000000
40
1.0000000000
40
1.0000000000
40
1.0000000000
10
35.8080409492
20
23.8246515692
30
0.0000000000
10
35.8354141975
20
23.8251908843
30
0.0000000000
10
35.8903840032
20
23.8296712473
30
0.0000000000
10
35.9681895134
20
23.8483547148
30
0.0000000000
10
36.0358861732
20
23.8800264735
30
0.0000000000
10
36.0876609867
20
23.9233442115
30
0.0000000000
10
36.1114886038
20
23.9626756422
30
0.0000000000
10
36.1189611473
20
23.9847094712
30
0.0000000000
10
36.1198712569
20
23.9876682067
30
0.0000000000
11
35.8080409492
21
23.8246515692
31
0.0000000000
11
35.8898055198
21
23.8317341975
31
0.0000000000
11
35.9702062621
21
23.8518789017
31
0.0000000000
11
36.0366226377
21
23.8841094624
31
0.0000000000
11
36.0862218280
21
23.9270524196
31
0.0000000000
11
36.1168877698
21
23.9788774654
31
0.0000000000
11
36.1198712569
21
23.9876682067
31
0.0000000000
0
SPLINE
5
27A
100
AcDbEntity
8
0
100
AcDbSpline
62
7
6
CONTINUOUS
70
0
71
3
72
8
73
4
74
2
42
0.0000001000
43
0.0000001000
44
0.0000000001
12
-0.0036306943
22
0.0044068093
32
0.0000000000
13
-0.0036891064
23
0.0043581090
33
0.0000000000
40
0.0000000000
40
0.0000000000
40
0.0000000000
40
0.0000000000
40
1.0000000000
40
1.0000000000
40
1.0000000000
40
1.0000000000
10
36.0580374347
20
24.2035052428
30
0.0000000000
10
36.0568272033
20
24.2049741792
30
0.0000000000
10
36.0556070622
20
24.2064349778
30
0.0000000000
10
36.0543773601
20
24.2078876808
30
0.0000000000
11
36.0580374347
21
24.2035052428
31
0.0000000000
11
36.0543773601
21
24.2078876808
31
0.0000000000
0
SPLINE
5
27B
100
AcDbEntity
8
0
100
AcDbSpline
62
7
6
CONTINUOUS
70
0
71
3
72
8
73
4
74
2
42
0.0000001000
43
0.0000001000
44
0.0000000001
12
-0.0037075556
22
0.0043799039
32
0.0000000000
13
-0.0037644858
23
0.0043309879
33
0.0000000000
40
0.0000000000
40
0.0000000000
40
0.0000000000
40
0.0000000000
40
1.0000000000
40
1.0000000000
40
1.0000000000
40
1.0000000000
10
36.0543773601
20
24.2078876808
30
0.0000000000
10
36.0531415082
20
24.2093476488
30
0.0000000000
10
36.0518959994
20
24.2107994400
30
0.0000000000
10
36.0506411708
20
24.2122431026
30
0.0000000000
11
36.0543773601
21
24.2078876808
31
0.0000000000
11
36.0506411708
21
24.2122431026
31
0.0000000000
0
SPLINE
5
27C
100
AcDbEntity
8
0
100
AcDbSpline
62
7
6
CONTINUOUS
70
0
71
3
72
18
73
14
74
12
42
0.0000001000
43
0.0000001000
44
0.0000000001
12
-0.7030797860
22
0.6512804526
32
0.0000000000
13
-0.2844988233
23
-0.9194655452
33
0.0000000000
40
0.0000000000
40
0.0000000000
40
0.0000000000
40
0.0000000000
40
0.0955820108
40
0.1979928735
40
0.3045287186
40
0.4122160415
40
0.5179818512
40
0.6189205616
40
0.7125768759
40
0.7972767952
40
0.8725480655
40
0.9396373417
40
1.0000000000
40
1.0000000000
40
1.0000000000
40
1.0000000000
10
36.0138355582
20
24.2501022022
30
0.0000000000
10
35.9914349650
20
24.2708524340
30
0.0000000000
10
35.9413568337
20
24.3099523649
30
0.0000000000
10
35.8570003983
20
24.3589057229
30
0.0000000000
10
35.7637042437
20
24.3986264031
30
0.0000000000
10
35.6653813733
20
24.4274334725
30
0.0000000000
10
35.5660948976
20
24.4441413328
30
0.0000000000
10
35.4699394266
20
24.4480560560
30
0.0000000000
10
35.3808247822
20
24.4389968464
30
0.0000000000
10
35.3022880147
20
24.4172315883
30
0.0000000000
10
35.2373965997
20
24.3833181388
30
0.0000000000
10
35.1894191353
20
24.3383118459
30
0.0000000000
10
35.1701925559
20
24.3014384310
30
0.0000000000
10
35.1644681874
20
24.2829379694
30
0.0000000000
11
36.0138355582
21
24.2501022022
31
0.0000000000
11
35.9419730458
21
24.3069089585
31
0.0000000000
11
35.8572574479
21
24.3564705313
31
0.0000000000
11
35.7633749118
21
24.3966052683
31
0.0000000000
11
35.6643272409
21
24.4256027312
31
0.0000000000
11
35.5643362370
21
24.4422271926
31
0.0000000000
11
35.4676637551
21
24.4457702798
31
0.0000000000
11
35.3784301429
21
24.4360811322
31
0.0000000000
11
35.3004386401
21
24.4135728159
31
0.0000000000
11
35.2370133558
21
24.3792047150
31
0.0000000000
11
35.1908576117
21
24.3344416446
31
0.0000000000
11
35.1644681874
21
24.2829379694
31
0.0000000000
0
SPLINE
5
27D
100
AcDbEntity
8
0
100
AcDbSpline
62
7
6
CONTINUOUS
70
0
71
3
72
10
73
6
74
4
42
0.0000001000
43
0.0000001000
44
0.0000000001
12
-0.0095461671
22
0.0109827307
32
0.0000000000
13
-0.0145476735
23
0.0003389324
33
0.0000000000
40
0.0000000000
40
0.0000000000
40
0.0000000000
40
0.0000000000
40
0.3094681857
40
0.6562969594
40
1.0000000000
40
1.0000000000
40
1.0000000000
40
1.0000000000
10
36.0506411708
20
24.2122431026
30
0.0000000000
10
36.0496564258
20
24.2133760378
30
0.0000000000
10
36.0470814480
20
24.2153560514
30
0.0000000000
10
36.0425798082
20
24.2172523061
30
0.0000000000
10
36.0392322985
20
24.2178130316
30
0.0000000000
10
36.0375656053
20
24.2178518623
30
0.0000000000
11
36.0506411708
21
24.2122431026
31
0.0000000000
11
36.0471436659
21
24.2150797986
31
0.0000000000
11
36.0425054491
21
24.2170693603
31
0.0000000000
11
36.0375656053
21
24.2178518623
31
0.0000000000
0
SPLINE
5
27E
100
AcDbEntity
8
0
100
AcDbSpline
62
7
6
CONTINUOUS
70
0
71
3
72
18
73
14
74
12
42
0.0000001000
43
0.0000001000
44
0.0000000001
12
-0.2429800421
22
0.4951412669
32
0.0000000000
13
-0.1626084163
23
-0.5302217096
33
0.0000000000
40
0.0000000000
40
0.0000000000
40
0.0000000000
40
0.0000000000
40
0.0884256708
40
0.1896729776
40
0.3011490325
40
0.4184680478
40
0.5363804450
40
0.6495540112
40
0.7533419895
40
0.8446657354
40
0.9231777274
40
0.9926564460
40
1.0000000000
40
1.0000000000
40
1.0000000000
40
1.0000000000
10
35.6908971845
20
23.5478305897
30
0.0000000000
10
35.6837352934
20
23.5624249893
30
0.0000000000
10
35.6631641635
20
23.5912071382
30
0.0000000000
10
35.6214347699
20
23.6280676356
30
0.0000000000
10
35.5692988346
20
23.6596720645
30
0.0000000000
10
35.5101126517
20
23.6839624527
30
0.0000000000
10
35.4477017989
20
23.6993937163
30
0.0000000000
10
35.3861234865
20
23.7049543510
30
0.0000000000
10
35.3292978830
20
23.7002709684
30
0.0000000000
10
35.2807079025
20
23.6854894679
30
0.0000000000
10
35.2431960826
20
23.6609419597
30
0.0000000000
10
35.2266995418
20
23.6364363217
30
0.0000000000
10
35.2221908030
20
23.6229695249
30
0.0000000000
10
35.2217927617
20
23.6216716210
30
0.0000000000
11
35.6908971845
21
23.5478305897
31
0.0000000000
11
35.6633134253
21
23.5880517143
31
0.0000000000
11
35.6219172575
21
23.6255318358
31
0.0000000000
11
35.5695297616
21
23.6577167457
31
0.0000000000
11
35.5097210588
21
23.6824130957
31
0.0000000000
11
35.4465670135
21
23.6979378703
31
0.0000000000
11
35.3843714693
21
23.7032330818
31
0.0000000000
11
35.3273729500
21
23.6979378703
31
0.0000000000
11
35.2794558103
21
23.6824130957
31
0.0000000000
11
35.2438855242
21
23.6577167457
31
0.0000000000
11
35.2230861479
21
23.6255318358
31
0.0000000000
11
35.2217927617
21
23.6216716210
31
0.0000000000
0
SPLINE
5
27F
100
AcDbEntity
8
0
100
AcDbSpline
62
7
6
CONTINUOUS
70
0
71
3
72
9
73
5
74
3
42
0.0000001000
43
0.0000001000
44
0.0000000001
12
0.0015880328
22
0.0054064289
32
0.0000000000
13
-0.0035175880
23
0.0042695249
33
0.0000000000
40
0.0000000000
40
0.0000000000
40
0.0000000000
40
0.0000000000
40
0.3585688250
40
1.0000000000
40
1.0000000000
40
1.0000000000
40
1.0000000000
10
36.0595014237
20
24.1983249107
30
0.0000000000
10
36.0596912301
20
24.1989711030
30
0.0000000000
10
36.0598027066
20
24.2009188200
30
0.0000000000
10
36.0587895316
20
24.2025923740
30
0.0000000000
10
36.0580374347
20
24.2035052428
30
0.0000000000
11
36.0595014237
21
24.1983249107
31
0.0000000000
11
36.0596265758
21
24.2003326346
31
0.0000000000
11
36.0580374347
21
24.2035052428
31
0.0000000000
0
SPLINE
5
280
100
AcDbEntity
8
0
100
AcDbSpline
62
7
6
CONTINUOUS
70
0
71
3
72
18
73
14
74
12
42
0.0000001000
43
0.0000001000
44
0.0000000001
12
-0.2430756408
22
0.4953360765
32
0.0000000000
13
-0.1642888195
23
-0.5295880918
33
0.0000000000
40
0.0000000000
40
0.0000000000
40
0.0000000000
40
0.0000000000
40
0.0811566704
40
0.1733334245
40
0.2746982622
40
0.3820008832
40
0.4912243942
40
0.5981230196
40
0.6987290932
40
0.7898976246
40
0.8699744331
40
0.9396773414
40
1.0000000000
40
1.0000000000
40
1.0000000000
40
1.0000000000
10
35.8724469271
20
24.1353257720
30
0.0000000000
10
35.8658711905
20
24.1487257142
30
0.0000000000
10
35.8474400349
20
24.1752302801
30
0.0000000000
10
35.8102325531
20
24.2097945868
30
0.0000000000
10
35.7636885613
20
24.2401546284
30
0.0000000000
10
35.7103783290
20
24.2646252099
30
0.0000000000
10
35.6532549951
20
24.2818713694
30
0.0000000000
10
35.5955110534
20
24.2909240991
30
0.0000000000
10
35.5403472814
20
24.2912780798
30
0.0000000000
10
35.4907432481
20
24.2828745152
30
0.0000000000
10
35.4492817570
20
24.2659841702
30
0.0000000000
10
35.4186163968
20
24.2412570869
30
0.0000000000
10
35.4066271488
20
24.2197726402
30
0.0000000000
10
35.4033237027
20
24.2091239196
30
0.0000000000
11
35.8724469271
21
24.1353257720
31
0.0000000000
11
35.8475055132
21
24.1725160226
31
0.0000000000
11
35.8106314244
21
24.2075449110
31
0.0000000000
11
35.7639676486
21
24.2383766856
31
0.0000000000
11
35.7102261150
21
24.2632195157
31
0.0000000000
11
35.6525300860
21
24.2806296262
31
0.0000000000
11
35.5942326452
21
24.2895952049
31
0.0000000000
11
35.5387218279
21
24.2895952049
31
0.0000000000
11
35.4892237211
21
24.2806296262
31
0.0000000000
11
35.4486149748
21
24.2632195157
31
0.0000000000
11
35.4192556218
21
24.2383766856
31
0.0000000000
11
35.4033237027
21
24.2091239196
31
0.0000000000
0
SPLINE
5
281
100
AcDbEntity
8
0
100
AcDbSpline
62
7
6
CONTINUOUS
70
0
71
3
72
9
73
5
74
3
42
0.0000001000
43
0.0000001000
44
0.0000000001
12
0.0223046621
22
0.0727294216
32
0.0000000000
13
-0.0333290727
23
0.0679175094
33
0.0000000000
40
0.0000000000
40
0.0000000000
40
0.0000000000
40
0.0000000000
40
0.4456092271
40
1.0000000000
40
1.0000000000
40
1.0000000000
40
1.0000000000
10
35.6994711103
20
23.4739895585
30
0.0000000000
10
35.7027841647
20
23.4847925256
30
0.0000000000
10
35.7050954192
20
23.5106825627
30
0.0000000000
10
35.6970562946
20
23.5352796429
30
0.0000000000
10
35.6908971845
20
23.5478305897
30
0.0000000000
11
35.6994711103
21
23.4739895585
31
0.0000000000
11
35.7027887476
21
23.5076094651
31
0.0000000000
11
35.6908971845
21
23.5478305897
31
0.0000000000
0
SPLINE
5
282
100
AcDbEntity
8
0
100
AcDbSpline
62
7
6
CONTINUOUS
70
0
71
3
72
10
73
6
74
4
42
0.0000001000
43
0.0000001000
44
0.0000000001
12
0.0225406775
22
0.0726602968
32
0.0000000000
13
-0.0333503500
23
0.0679608678
33
0.0000000000
40
0.0000000000
40
0.0000000000
40
0.0000000000
40
0.0000000000
40
0.0216641366
40
0.4855515615
40
1.0000000000
40
1.0000000000
40
1.0000000000
40
1.0000000000
10
35.8810396544
20
24.0615276243
30
0.0000000000
10
35.8812024292
20
24.0620523319
30
0.0000000000
10
35.8847277373
20
24.0738495215
30
0.0000000000
10
35.8862212263
20
24.0997773794
30
0.0000000000
10
35.8781659389
20
24.1236716512
30
0.0000000000
10
35.8724469271
20
24.1353257720
30
0.0000000000
11
35.8810396544
21
24.0615276243
31
0.0000000000
11
35.8815114363
21
24.0631066329
31
0.0000000000
11
35.8840061617
21
24.0981355213
31
0.0000000000
11
35.8724469271
21
24.1353257720
31
0.0000000000
0
SPLINE
5
283
100
AcDbEntity
8
0
100
AcDbSpline
62
7
6
CONTINUOUS
70
0
71
3
72
10
73
6
74
4
42
0.0000001000
43
0.0000001000
44
0.0000000001
12
-0.0075567077
22
0.0120153037
32
0.0000000000
13
-0.0140874656
23
0.0017362797
33
0.0000000000
40
0.0000000000
40
0.0000000000
40
0.0000000000
40
0.0000000000
40
0.2954764455
40
0.6413630330
40
1.0000000000
40
1.0000000000
40
1.0000000000
40
1.0000000000
10
36.0865587057
20
24.1641879250
30
0.0000000000
10
36.0858144293
20
24.1653713381
30
0.0000000000
10
36.0835749039
20
24.1675391669
30
0.0000000000
10
36.0793615659
20
24.1697673416
30
0.0000000000
10
36.0760934644
20
24.1706099395
30
0.0000000000
10
36.0744093690
20
24.1708175042
30
0.0000000000
11
36.0865587057
21
24.1641879250
31
0.0000000000
11
36.0836527099
21
24.1672119807
31
0.0000000000
11
36.0793430486
21
24.1695636515
31
0.0000000000
11
36.0744093690
21
24.1708175042
31
0.0000000000
0
SPLINE
5
284
100
AcDbEntity
8
0
100
AcDbSpline
62
7
6
CONTINUOUS
70
0
71
3
72
10
73
6
74
4
42
0.0000001000
43
0.0000001000
44
0.0000000001
12
0.0545592333
22
0.1773702099
32
0.0000000000
13
-0.0983323028
23
0.1563501627
33
0.0000000000
40
0.0000000000
40
0.0000000000
40
0.0000000000
40
0.0000000000
40
0.2716613380
40
0.6155133831
40
1.0000000000
40
1.0000000000
40
1.0000000000
40
1.0000000000
10
36.1198712569
20
23.9876682067
30
0.0000000000
10
36.1248118017
20
24.0037297495
30
0.0000000000
10
36.1303806985
20
24.0419061056
30
0.0000000000
10
36.1192766525
20
24.1034858792
30
0.0000000000
10
36.0991611905
20
24.1441497433
30
0.0000000000
10
36.0865587057
20
24.1641879250
30
0.0000000000
11
36.1198712569
21
23.9876682067
31
0.0000000000
11
36.1273113760
21
24.0373753633
31
0.0000000000
11
36.1170470365
21
24.1000503867
31
0.0000000000
11
36.0865587057
21
24.1641879250
31
0.0000000000
0
SPLINE
5
285
100
AcDbEntity
8
0
100
AcDbSpline
62
7
6
CONTINUOUS
70
0
71
3
72
10
73
6
74
4
42
0.0000001000
43
0.0000001000
44
0.0000000001
12
0.0021326585
22
0.0067853001
32
0.0000000000
13
-0.0051839821
23
0.0048020527
33
0.0000000000
40
0.0000000000
40
0.0000000000
40
0.0000000000
40
0.0000000000
40
0.0149647101
40
0.4500340433
40
1.0000000000
40
1.0000000000
40
1.0000000000
40
1.0000000000
10
36.0163814634
20
24.2438079099
30
0.0000000000
10
36.0163921016
20
24.2438417565
30
0.0000000000
10
36.0166967270
20
24.2448636962
30
0.0000000000
10
36.0163249265
20
24.2473908357
30
0.0000000000
10
36.0147858961
20
24.2492218804
30
0.0000000000
10
36.0138355582
20
24.2501022022
30
0.0000000000
11
36.0163814634
21
24.2438079099
31
0.0000000000
11
36.0164118388
21
24.2439098480
31
0.0000000000
11
36.0161388562
21
24.2469720591
31
0.0000000000
11
36.0138355582
21
24.2501022022
31
0.0000000000
0
ENDSEC
0
SECTION
2
OBJECTS
0
DICTIONARY
5
286
100
AcDbDictionary
3
ACAD_GROUP
350
287
3
ACAD_MLINESTYLE
350
288
0
DICTIONARY
5
287
102
{ACAD_REACTORS
330
286
102
}
100
AcDbDictionary
0
DICTIONARY
5
288
102
{ACAD_REACTORS
330
286
102
}
100
AcDbDictionary
3
STANDARD
350
289
0
MLINESTYLE
5
289
102
{ACAD_REACTORS
330
288
102
}
100
AcDbMlineStyle
2
STANDARD
70
0
3

62
256
51
90.0
52
90.0
71
2
49
0.5
62
256
6
BYLAYER
49
-0.5
62
256
6
BYLAYER
0
ENDSEC
0
EOF
