  0
SECTION
  2
HEADER
  9
$ACADVER
  1
AC1015
  9
$ACADMAINTVER
 70
     6
  9
$DWGCODEPAGE
  3
ANSI_1252
  9
$INSBASE
 10
0.0
 20
0.0
 30
0.0
  9
$EXTMIN
 10
-1.775056013848987
 20
-1.775056013848986
 30
0.0
  9
$EXTMAX
 10
3.554321813877844
 20
3.55432181388342
 30
0.0
  9
$LIMMIN
 10
0.0
 20
0.0
  9
$LIMMAX
 10
5.0
 20
5.0
  9
$ORTHOMODE
 70
     0
  9
$REGENMODE
 70
     1
  9
$FILLMODE
 70
     1
  9
$QTEXTMODE
 70
     0
  9
$MIRRTEXT
 70
     1
  9
$LTSCALE
 40
2.419999999999999
  9
$ATTMODE
 70
     1
  9
$TEXTSIZE
 40
0.1
  9
$TRACEWID
 40
0.05
  9
$TEXTSTYLE
  7
STANDARD
  9
$CLAYER
  8
0
  9
$CELTYPE
  6
BYLAYER
  9
$CECOLOR
 62
   256
  9
$CELTSCALE
 40
1.0
  9
$DISPSILH
 70
     0
  9
$DIMSCALE
 40
1.0
  9
$DIMASZ
 40
0.1875
  9
$DIMEXO
 40
0.275
  9
$DIMDLI
 40
1.671999999999997
  9
$DIMRND
 40
0.0
  9
$DIMDLE
 40
0.0
  9
$DIMEXE
 40
0.792
  9
$DIMTP
 40
0.0
  9
$DIMTM
 40
0.0
  9
$DIMTXT
 40
0.7
  9
$DIMCEN
 40
0.396
  9
$DIMTSZ
 40
0.0
  9
$DIMTOL
 70
     0
  9
$DIMLIM
 70
     0
  9
$DIMTIH
 70
     1
  9
$DIMTOH
 70
     1
  9
$DIMSE1
 70
     0
  9
$DIMSE2
 70
     0
  9
$DIMTAD
 70
     0
  9
$DIMZIN
 70
     0
  9
$DIMBLK
  1

  9
$DIMASO
 70
     1
  9
$DIMSHO
 70
     1
  9
$DIMPOST
  1

  9
$DIMAPOST
  1

  9
$DIMALT
 70
     0
  9
$DIMALTD
 70
     2
  9
$DIMALTF
 40
25.4
  9
$DIMLFAC
 40
1.0
  9
$DIMTOFL
 70
     0
  9
$DIMTVP
 40
0.0
  9
$DIMTIX
 70
     0
  9
$DIMSOXD
 70
     0
  9
$DIMSAH
 70
     0
  9
$DIMBLK1
  1

  9
$DIMBLK2
  1

  9
$DIMSTYLE
  2
STANDARD
  9
$DIMCLRD
 70
     0
  9
$DIMCLRE
 70
     0
  9
$DIMCLRT
 70
     0
  9
$DIMTFAC
 40
1.0
  9
$DIMGAP
 40
0.09
  9
$DIMJUST
 70
     0
  9
$DIMSD1
 70
     0
  9
$DIMSD2
 70
     0
  9
$DIMTOLJ
 70
     1
  9
$DIMTZIN
 70
     0
  9
$DIMALTZ
 70
     0
  9
$DIMALTTZ
 70
     0
  9
$DIMUPT
 70
     0
  9
$DIMDEC
 70
     4
  9
$DIMTDEC
 70
     4
  9
$DIMALTU
 70
     2
  9
$DIMALTTD
 70
     2
  9
$DIMTXSTY
  7
STANDARD
  9
$DIMAUNIT
 70
     0
  9
$DIMADEC
 70
     0
  9
$DIMALTRND
 40
0.0
  9
$DIMAZIN
 70
     0
  9
$DIMDSEP
 70
    46
  9
$DIMATFIT
 70
     3
  9
$DIMFRAC
 70
     0
  9
$DIMLDRBLK
  1

  9
$DIMLUNIT
 70
     2
  9
$DIMLWD
 70
    -2
  9
$DIMLWE
 70
    -2
  9
$DIMTMOVE
 70
     0
  9
$LUNITS
 70
     2
  9
$LUPREC
 70
     4
  9
$SKETCHINC
 40
0.1
  9
$FILLETRAD
 40
0.0
  9
$AUNITS
 70
     0
  9
$AUPREC
 70
     0
  9
$MENU
  1
.
  9
$ELEVATION
 40
0.0
  9
$PELEVATION
 40
0.0
  9
$THICKNESS
 40
0.0
  9
$LIMCHECK
 70
     0
  9
$CHAMFERA
 40
0.0
  9
$CHAMFERB
 40
0.0
  9
$CHAMFERC
 40
0.0
  9
$CHAMFERD
 40
0.0
  9
$SKPOLY
 70
     0
  9
$TDCREATE
 40
2456720.860734085
  9
$TDUCREATE
 40
2456721.110734085
  9
$TDUPDATE
 40
2456721.489866909
  9
$TDUUPDATE
 40
2456721.739866909
  9
$TDINDWG
 40
0.6232321412
  9
$TDUSRTIMER
 40
0.6232320602
  9
$USRTIMER
 70
     1
  9
$ANGBASE
 50
0.0
  9
$ANGDIR
 70
     0
  9
$PDMODE
 70
     0
  9
$PDSIZE
 40
0.0
  9
$PLINEWID
 40
0.0
  9
$SPLFRAME
 70
     0
  9
$SPLINETYPE
 70
     6
  9
$SPLINESEGS
 70
     8
  9
$HANDSEED
  5
684
  9
$SURFTAB1
 70
     6
  9
$SURFTAB2
 70
     6
  9
$SURFTYPE
 70
     6
  9
$SURFU
 70
     6
  9
$SURFV
 70
     6
  9
$UCSBASE
  2

  9
$UCSNAME
  2

  9
$UCSORG
 10
0.0
 20
0.0
 30
0.0
  9
$UCSXDIR
 10
1.0
 20
0.0
 30
0.0
  9
$UCSYDIR
 10
0.0
 20
1.0
 30
0.0
  9
$UCSORTHOREF
  2

  9
$UCSORTHOVIEW
 70
     0
  9
$UCSORGTOP
 10
0.0
 20
0.0
 30
0.0
  9
$UCSORGBOTTOM
 10
0.0
 20
0.0
 30
0.0
  9
$UCSORGLEFT
 10
0.0
 20
0.0
 30
0.0
  9
$UCSORGRIGHT
 10
0.0
 20
0.0
 30
0.0
  9
$UCSORGFRONT
 10
0.0
 20
0.0
 30
0.0
  9
$UCSORGBACK
 10
0.0
 20
0.0
 30
0.0
  9
$PUCSBASE
  2

  9
$PUCSNAME
  2

  9
$PUCSORG
 10
0.0
 20
0.0
 30
0.0
  9
$PUCSXDIR
 10
1.0
 20
0.0
 30
0.0
  9
$PUCSYDIR
 10
0.0
 20
1.0
 30
0.0
  9
$PUCSORTHOREF
  2

  9
$PUCSORTHOVIEW
 70
     0
  9
$PUCSORGTOP
 10
0.0
 20
0.0
 30
0.0
  9
$PUCSORGBOTTOM
 10
0.0
 20
0.0
 30
0.0
  9
$PUCSORGLEFT
 10
0.0
 20
0.0
 30
0.0
  9
$PUCSORGRIGHT
 10
0.0
 20
0.0
 30
0.0
  9
$PUCSORGFRONT
 10
0.0
 20
0.0
 30
0.0
  9
$PUCSORGBACK
 10
0.0
 20
0.0
 30
0.0
  9
$USERI1
 70
     0
  9
$USERI2
 70
     0
  9
$USERI3
 70
     0
  9
$USERI4
 70
     0
  9
$USERI5
 70
     0
  9
$USERR1
 40
0.0
  9
$USERR2
 40
0.0
  9
$USERR3
 40
0.0
  9
$USERR4
 40
0.0
  9
$USERR5
 40
0.0
  9
$WORLDVIEW
 70
     1
  9
$SHADEDGE
 70
     3
  9
$SHADEDIF
 70
    70
  9
$TILEMODE
 70
     1
  9
$MAXACTVP
 70
    64
  9
$PINSBASE
 10
0.0
 20
0.0
 30
0.0
  9
$PLIMCHECK
 70
     0
  9
$PEXTMIN
 10
1.000000000000000E+20
 20
1.000000000000000E+20
 30
1.000000000000000E+20
  9
$PEXTMAX
 10
-1.000000000000000E+20
 20
-1.000000000000000E+20
 30
-1.000000000000000E+20
  9
$PLIMMIN
 10
0.0
 20
0.0
  9
$PLIMMAX
 10
12.0
 20
9.0
  9
$UNITMODE
 70
     0
  9
$VISRETAIN
 70
     1
  9
$PLINEGEN
 70
     0
  9
$PSLTSCALE
 70
     1
  9
$TREEDEPTH
 70
  3020
  9
$CMLSTYLE
  2
STANDARD
  9
$CMLJUST
 70
     0
  9
$CMLSCALE
 40
1.0
  9
$PROXYGRAPHICS
 70
     1
  9
$MEASUREMENT
 70
     0
  9
$CELWEIGHT
370
    -1
  9
$ENDCAPS
280
     0
  9
$JOINSTYLE
280
     0
  9
$LWDISPLAY
290
     0
  9
$INSUNITS
 70
     0
  9
$HYPERLINKBASE
  1

  9
$STYLESHEET
  1

  9
$XEDIT
290
     1
  9
$CEPSNTYPE
380
     0
  9
$PSTYLEMODE
290
     1
  9
$FINGERPRINTGUID
  2
{A9A21903-B313-4053-BB4A-907512A12DE5}
  9
$VERSIONGUID
  2
{8EF6A684-B87D-4C10-9B9A-1AF8CC7535F8}
  9
$EXTNAMES
290
     1
  9
$PSVPSCALE
 40
0.0
  9
$OLESTARTUP
290
     0
  0
ENDSEC
  0
SECTION
  2
CLASSES
  0
CLASS
  1
ACDBDICTIONARYWDFLT
  2
AcDbDictionaryWithDefault
  3
AutoCAD 2000
 90
        0
280
     0
281
     0
  0
CLASS
  1
ACDBPLACEHOLDER
  2
AcDbPlaceHolder
  3
AutoCAD 2000
 90
        0
280
     0
281
     0
  0
CLASS
  1
LAYOUT
  2
AcDbLayout
  3
AutoCAD 2000
 90
        0
280
     0
281
     0
  0
ENDSEC
  0
SECTION
  2
TABLES
  0
TABLE
  2
VPORT
  5
8
330
0
100
AcDbSymbolTable
 70
     2
  0
VPORT
  5
683
330
8
100
AcDbSymbolTableRecord
100
AcDbViewportTableRecord
  2
*Active
 70
     0
 10
0.0
 20
0.0
 11
1.0
 21
1.0
 12
7.537931439414997
 22
2.414304173549097
 13
0.0
 23
0.0
 14
0.1
 24
0.1
 15
0.0
 25
0.0
 16
0.0
 26
0.0
 36
1.0
 17
0.0
 27
0.0
 37
0.0
 40
8.720553132198341
 41
2.306666666666666
 42
50.0
 43
0.0
 44
0.0
 50
0.0
 51
0.0
 71
     0
 72
   500
 73
     1
 74
     0
 75
     0
 76
     1
 77
     0
 78
     0
281
     0
 65
     1
110
0.0
120
0.0
130
0.0
111
1.0
121
0.0
131
0.0
112
0.0
122
1.0
132
0.0
 79
     0
146
0.0
  0
ENDTAB
  0
TABLE
  2
LTYPE
  5
5
330
0
100
AcDbSymbolTable
 70
     4
  0
LTYPE
  5
14
330
5
100
AcDbSymbolTableRecord
100
AcDbLinetypeTableRecord
  2
BYBLOCK
 70
     0
  3

 72
    65
 73
     0
 40
0.0
  0
LTYPE
  5
15
330
5
100
AcDbSymbolTableRecord
100
AcDbLinetypeTableRecord
  2
BYLAYER
 70
     0
  3

 72
    65
 73
     0
 40
0.0
  0
LTYPE
  5
16
330
5
100
AcDbSymbolTableRecord
100
AcDbLinetypeTableRecord
  2
CONTINUOUS
 70
     0
  3
Solid line
 72
    65
 73
     0
 40
0.0
  0
LTYPE
  5
1F5
330
5
100
AcDbSymbolTableRecord
100
AcDbLinetypeTableRecord
  2
CENTER
 70
     0
  3
____ _ ____ _ ____ _ ____ _ ____ _ ____ _ ____
 72
    65
 73
     4
 40
0.6
 49
0.375
 74
     0
 49
-0.075
 74
     0
 49
0.075
 74
     0
 49
-0.075
 74
     0
  0
LTYPE
  5
1F6
330
5
100
AcDbSymbolTableRecord
100
AcDbLinetypeTableRecord
  2
HIDDEN
 70
     0
  3
- - - - - - - - - - - - - - - - - - - -
 72
    65
 73
     2
 40
0.2
 49
0.1
 74
     0
 49
-0.1
 74
     0
  0
LTYPE
  5
1F7
330
5
100
AcDbSymbolTableRecord
100
AcDbLinetypeTableRecord
  2
PHANTOM
 70
     0
  3
_____ _ _ _____ _ _ _____ _ _ _____
 72
    65
 73
     6
 40
0.8
 49
0.45
 74
     0
 49
-0.05
 74
     0
 49
0.1
 74
     0
 49
-0.05
 74
     0
 49
0.1
 74
     0
 49
-0.05
 74
     0
  0
ENDTAB
  0
TABLE
  2
LAYER
  5
2
330
0
100
AcDbSymbolTable
 70
     4
  0
LAYER
  5
10
330
2
100
AcDbSymbolTableRecord
100
AcDbLayerTableRecord
  2
0
 70
     0
 62
     7
  6
CONTINUOUS
370
    -3
390
28B
  0
LAYER
  5
296
330
2
100
AcDbSymbolTableRecord
100
AcDbLayerTableRecord
  2
outline
 70
     0
 62
     3
  6
CONTINUOUS
370
    -3
390
28B
  0
LAYER
  5
297
330
2
100
AcDbSymbolTableRecord
100
AcDbLayerTableRecord
  2
holes
 70
     0
 62
     1
  6
CONTINUOUS
370
    -3
390
28B
  0
LAYER
  5
67B
330
2
100
AcDbSymbolTableRecord
100
AcDbLayerTableRecord
  2
etch
 70
     0
 62
     4
  6
CONTINUOUS
370
    -3
390
28B
  0
ENDTAB
  0
TABLE
  2
STYLE
  5
3
330
0
100
AcDbSymbolTable
 70
     1
  0
STYLE
  5
11
330
3
100
AcDbSymbolTableRecord
100
AcDbTextStyleTableRecord
  2
STANDARD
 70
     0
 40
0.0
 41
0.8
 50
0.0
 71
     0
 42
0.1
  3
txt
  4

  0
ENDTAB
  0
TABLE
  2
VIEW
  5
6
330
0
100
AcDbSymbolTable
 70
     0
  0
ENDTAB
  0
TABLE
  2
UCS
  5
7
330
0
100
AcDbSymbolTable
 70
     0
  0
ENDTAB
  0
TABLE
  2
APPID
  5
9
330
0
100
AcDbSymbolTable
 70
     1
  0
APPID
  5
208
330
9
100
AcDbSymbolTableRecord
100
AcDbRegAppTableRecord
  2
ACAD
 70
     0
  0
ENDTAB
  0
TABLE
  2
DIMSTYLE
  5
A
330
0
100
AcDbSymbolTable
 70
     1
100
AcDbDimStyleTable
 71
     0
  0
DIMSTYLE
105
209
330
A
100
AcDbSymbolTableRecord
100
AcDbDimStyleTableRecord
  2
STANDARD
 70
     0
 41
0.1875
 47
0.01
 48
0.01
 78
     4
140
0.7
271
     2
272
     2
284
     4
340
11
  0
ENDTAB
  0
TABLE
  2
BLOCK_RECORD
  5
1
330
0
100
AcDbSymbolTable
 70
     0
  0
BLOCK_RECORD
  5
1B
330
1
100
AcDbSymbolTableRecord
100
AcDbBlockTableRecord
  2
*MODEL_SPACE
340
28E
  0
BLOCK_RECORD
  5
1C
330
1
100
AcDbSymbolTableRecord
100
AcDbBlockTableRecord
  2
*PAPER_SPACE
340
28F
  0
ENDTAB
  0
ENDSEC
  0
SECTION
  2
BLOCKS
  0
BLOCK
  5
1E
330
1B
100
AcDbEntity
  8
0
100
AcDbBlockBegin
  2
*MODEL_SPACE
 70
     0
 10
0.0
 20
0.0
 30
0.0
  3
*MODEL_SPACE
  1

  0
ENDBLK
  5
1F
330
1B
100
AcDbEntity
  8
0
100
AcDbBlockEnd
  0
BLOCK
  5
20
330
1C
100
AcDbEntity
 67
     1
  8
0
100
AcDbBlockBegin
  2
*PAPER_SPACE
 70
     0
 10
0.0
 20
0.0
 30
0.0
  3
*PAPER_SPACE
  1

  0
ENDBLK
  5
21
330
1C
100
AcDbEntity
 67
     1
  8
0
100
AcDbBlockEnd
  0
ENDSEC
  0
SECTION
  2
ENTITIES
  0
CIRCLE
  5
298
330
1B
100
AcDbEntity
  8
holes
100
AcDbCircle
 10
0.0
 20
0.0
 30
0.0
 40
0.125
  0
LWPOLYLINE
  5
66B
330
1B
100
AcDbEntity
  8
0
  6
Continuous
100
AcDbPolyline
 90
      980
 70
     1
 43
0.0
 10
-0.5781288538321117
 20
1.676624370015596
 42
-0.3202231353338198
 10
-0.5647609423631968
 20
1.672667795552311
 10
-0.5530842247499728
 20
1.657722278492447
 10
-0.5400071976490888
 20
1.661971262172468
 10
-0.5269301705919738
 20
1.666220245838194
 10
-0.5262682620611827
 20
1.685174825512863
 42
-0.3202231353338201
 10
-0.5177790106102296
 20
1.696233222812089
 42
-0.0022745356542214
 10
-0.5023252486234667
 20
1.700873773787694
 42
-0.3202231353338197
 10
-0.4891483087939428
 20
1.696321434251427
 10
-0.4781538769457648
 20
1.680867092377976
 10
-0.4648993876090478
 20
1.684525099011797
 10
-0.4516448983166967
 20
1.688183105633296
 10
-0.4501332622822816
 20
1.707088902893556
 42
-0.3202231353338202
 10
-0.4411564258238708
 20
1.717755296296396
 42
-0.0022745356542214
 10
-0.4255100272148635
 20
1.721697844136144
 42
-0.3202231353338197
 10
-0.4125505956279337
 20
1.716558907332875
 10
-0.4022605908673707
 20
1.700626863633673
 10
-0.3888553320723889
 20
1.703686526482745
 10
-0.3754500733222876
 20
1.706746189321499
 10
-0.3730917540180476
 20
1.725565130407701
 42
-0.3202231353338201
 10
-0.3636454107061529
 20
1.735818039217345
 42
-0.0022745356542214
 10
-0.3478378852394297
 20
1.739054644154577
 42
-0.3202231353338196
 10
-0.3351220604656326
 20
1.733339459219128
 10
-0.3255572054928597
 20
1.716961798709906
 10
-0.3120281736468327
 20
1.719416956020442
 10
-0.2984991418460967
 20
1.721872113322679
 10
-0.2952988886132686
 20
1.740566299391951
 42
-0.3202231353338202
 10
-0.2854020621261697
 20
1.750385075614542
 42
-0.0022745356542214
 10
-0.2694652440543215
 20
1.752909219557644
 42
-0.32022313533382
 10
-0.2570186340724909
 20
1.746629296111887
 10
-0.2481981912325035
 20
1.729839001221326
 10
-0.2345726320050785
 20
1.731684708633239
 10
-0.2209470728232787
 20
1.733530416038899
 10
-0.2169113305459618
 20
1.752062199488356
 42
-0.3202231353338202
 10
-0.2065839517751136
 20
1.761427069415301
 42
-0.0022745356542214
 10
-0.1905499357288207
 20
1.763233669074289
 42
-0.32022313533382
 10
-0.1783976063550376
 20
1.756401654048293
 10
-0.1703393388458669
 20
1.739232538195804
 10
-0.1566446923000127
 20
1.740465078700001
 10
-0.1429500458000126
 20
1.741697619199999
 10
-0.1380869419260757
 20
1.760029679484045
 42
-0.3202231353338201
 10
-0.1273498088379248
 20
1.768921783513601
 42
-0.0022745356542215
 10
-0.1112508851916507
 20
1.770007200637191
 42
-0.32022313533382
 10
-0.09941730960001
 20
1.762636852799996
 10
-0.0921374456999999
 20
1.745123492299999
 10
-0.0784012910313405
 20
1.74574038372393
 10
-0.0646651364086737
 20
1.74635727514573
 10
-0.0589844645821169
 20
1.764452693934629
 42
-0.3202231353338202
 10
-0.0478592003337799
 20
1.772854124552666
 42
-0.0022745356542215
 10
-0.0317277901772677
 20
1.773216173255225
 42
-0.32022313533382
 10
-0.0202367996141635
 20
1.765322335506511
 10
-0.0137500000003919
 20
1.747499999936324
 10
0.000000000003624
 20
1.747499999942768
 10
0.0137499999615902
 20
1.747499999949135
 10
0.0202367996237001
 20
1.765322335477631
 42
-0.3202231353338202
 10
0.0317277902306101
 20
1.773216173320975
 42
-0.0022745356542214
 10
0.0478592003841192
 20
1.772854124484591
 42
-0.3202231353338199
 10
0.0589844645929392
 20
1.764452693963055
 10
0.0646651363693351
 20
1.746357275134674
 10
0.0784012910385741
 20
1.745740383723611
 10
0.0921374456618134
 20
1.745123492314541
 10
0.0994173096082389
 20
1.762636852770721
 42
-0.3202231353338202
 10
0.1112508852478893
 20
1.770007200700484
 42
-0.0022745356542214
 10
0.1273498088851592
 20
1.768921783443336
 42
-0.3202231353338198
 10
0.1380869419381574
 20
1.760029679511956
 10
0.1429500457602182
 20
1.741697619190717
 10
0.1566446923072253
 20
1.740465078699354
 10
0.1703393388083652
 20
1.739232538212042
 10
0.1783976063619423
 20
1.756401654018678
 42
-0.3202231353338202
 10
0.1905499357878393
 20
1.763233669134994
 42
-0.0022745356542214
 10
0.2065839518191483
 20
1.761427069342981
 42
-0.3202231353338198
 10
0.2169113305592865
 20
1.752062199515699
 10
0.2209470727831082
 20
1.733530416031414
 10
0.2345726320122612
 20
1.731684708632262
 10
0.2481981911957733
 20
1.729839001239224
 10
0.257018634078062
 20
1.746629296081984
 42
-0.3202231353338202
 10
0.2694652441160064
 20
1.752909219615639
 42
-0.0022745356542214
 10
0.2854020621669151
 20
1.750385075540326
 42
-0.3202231353338198
 10
0.2952988886278072
 20
1.740566299418664
 10
0.2984991418056353
 20
1.721872113317004
 10
0.3120281736539598
 20
1.719416956019141
 10
0.3255572054569713
 20
1.716961798729436
 10
0.3351220604698639
 20
1.733339459189008
 42
-0.3202231353338202
 10
0.3478378853036621
 20
1.739054644209738
 42
-0.0022745356542214
 10
0.3636454107435303
 20
1.735818039141371
 42
-0.3202231353338197
 10
0.3730917540337733
 20
1.725565130433733
 10
0.3754500732816091
 20
1.706746189317642
 10
0.3888553320794554
 20
1.703686526481136
 10
0.4022605908323916
 20
1.700626863654801
 10
0.4125505956308016
 20
1.716558907302595
 42
-0.3202231353338202
 10
0.4255100272814976
 20
1.721697844188377
 42
-0.0022745356542214
 10
0.4411564258577987
 20
1.717755296218819
 42
-0.3202231353338201
 10
0.4501332622991514
 20
1.707088902918862
 10
0.4516448982758843
 20
1.688183105631271
 10
0.4648993876160295
 20
1.684525099009871
 10
0.478153876911772
 20
1.680867092400654
 10
0.4891483087954534
 20
1.696321434221051
 42
-0.3202231353338202
 10
0.5023252486923769
 20
1.700873773836888
 42
-0.0022745356542214
 10
0.5177790106406382
 20
1.696233222733071
 42
-0.32022313533382
 10
0.5262682620791744
 20
1.685174825537388
 10
0.5269301705511152
 20
1.666220245837997
 10
0.5400071976559784
 20
1.661971262170229
 10
0.5530842247170296
 20
1.657722278516623
 10
0.5647609423633324
 20
1.672667795521896
 42
-0.3202231353338202
 10
0.5781288539031526
 20
1.676624370061649
 42
-0.0022745356542214
 10
0.5933588574034414
 20
1.671295161275921
 42
-0.32022313533382
 10
0.6013434276165382
 20
1.659867030324776
 10
0.6011542755881126
 20
1.640901840214581
 10
0.6140275050654265
 20
1.63607043638808
 10
0.6269007344996114
 20
1.631239032577696
 10
0.6392362225531763
 20
1.645645626485595
 42
-0.3202231353338202
 10
0.6527681845410882
 20
1.648998467934686
 42
-0.0022745356542214
 10
0.6677437583932045
 20
1.642991333784312
 42
-0.32022313533382
 10
0.6752075675190464
 20
1.631216483812558
 10
0.674167735917266
 20
1.612278876660501
 10
0.6868112427960687
 20
1.606874782479607
 10
0.6994547496325048
 20
1.601470688316744
 10
0.7124241660620179
 20
1.615309346164394
 42
-0.3202231353338202
 10
0.7260929269274543
 20
1.61805170234635
 42
-0.0022745356542214
 10
0.7407839123186442
 20
1.611378740400066
 42
-0.32022313533382
 10
0.7477119292389643
 20
1.599280884388524
 10
0.7458235121462998
 20
1.580408998015145
 10
0.7582118340863642
 20
1.574443096606341
 10
0.770600155984917
 20
1.568477195217451
 10
0.7841773821117002
 20
1.581720047789634
 42
-0.3202231353338202
 10
0.7979554147893464
 20
1.583846395964069
 42
-0.0022745356542214
 10
0.812332226030147
 20
1.576521044679183
 42
-0.32022313533382
 10
0.8187104986408693
 20
1.564124546099834
 10
0.8159772990780179
 20
1.545356385972767
 10
0.8280854876476313
 20
1.538840691867534
 10
0.8401936761766641
 20
1.532324997784059
 10
0.8543513692741985
 20
1.544945375738091
 42
-0.3202231353338202
 10
0.8682109266398541
 20
1.546451433722751
 42
-0.0022745356542214
 10
0.882244610745737
 20
1.538488445381873
 42
-0.32022313533382
 10
0.8880602940546573
 20
1.525818269133107
 10
0.8844878163218012
 20
1.507191631829129
 10
0.896291487240575
 20
1.500139266768272
 10
0.9080951581197851
 20
1.493086901730969
 10
0.9228048064783109
 20
1.505059389305203
 42
-0.3202231353338202
 10
0.9367179772279152
 20
1.50594212409975
 42
-0.0022745356542214
 10
0.9503802722267241
 20
1.497357535101655
 42
-0.32022313533382
 10
0.955621654221613
 20
1.484439197232256
 10
0.9512170928134789
 20
1.465991594320016
 10
0.9626924750590429
 20
1.458416760828218
 10
0.974167857266142
 20
1.450841927361721
 10
0.989399837611462
 20
1.462142413559509
 42
-0.3202231353338202
 10
1.003338602470716
 20
1.462400047453539
 42
-0.0022745356542214
 10
1.016601994318542
 20
1.453211146018013
 42
-0.32022313533382
 10
1.021258519553616
 20
1.440070662341249
 10
1.016030744670701
 20
1.421839244837958
 10
1.027154728350386
 20
1.413757197621788
 10
1.038278711992778
 20
1.405675150432625
 10
1.054002349143588
 20
1.416280877578668
 42
-0.3202231353338202
 10
1.067938637295086
 20
1.415912891731797
 42
-0.0022745356542214
 10
1.080776415285868
 20
1.406138183083455
 42
-0.32022313533382
 10
1.084838706138999
 20
1.392802016784671
 10
1.078798245824196
 20
1.374823500338899
 10
1.089548428715286
 20
1.366250515565877
 10
1.100298611570327
 20
1.357677530821508
 10
1.116482240213948
 20
1.367567140392772
 42
-0.3202231353338202
 10
1.130387985828026
 20
1.366574275879529
 42
-0.0022745356542214
 10
1.142774296385383
 20
1.356233444980738
 42
-0.32022313533382
 10
1.146234171943416
 20
1.342728453324046
 10
1.139393190879911
 20
1.325039044275285
 10
1.14974792354472
 20
1.315992386795826
 10
1.160102656174804
 20
1.306945729346609
 10
1.176713684636909
 20
1.316099304985546
 42
-0.3202231353338202
 10
1.190560883392511
 20
1.314483561302932
 42
-0.0022745356542214
 10
1.202470782135386
 20
1.303597433210943
 42
-0.32022313533382
 10
1.205321274669391
 20
1.289950813452264
 10
1.197693549682636
 20
1.272586135916182
 10
1.20763197906761
 20
1.263084024494496
 10
1.21757040841926
 20
1.25358191310458
 10
1.234575384299159
 20
1.26198102072804
 42
-0.3202231353338202
 10
1.248336149780818
 20
1.259745651768799
 42
-0.0022745356542214
 10
1.259745651758134
 20
1.248336149696829
 42
-0.32022313533382
 10
1.261981020755503
 20
1.23457538431223
 10
1.253581913068504
 20
1.21757040843845
 10
1.263084024499502
 20
1.207631979062377
 10
1.272586135898627
 20
1.197693549719531
 10
1.289950813437975
 20
1.205321274642539
 42
-0.3202231353338202
 10
1.303597433295326
 20
1.202470782142266
 42
-0.0022745356542214
 10
1.314483561288508
 20
1.190560883309083
 42
-0.32022313533382
 10
1.316099305013569
 20
1.176713684648732
 10
1.306945729311433
 20
1.160102656195598
 10
1.315992386800591
 20
1.149747923539263
 10
1.325039044259401
 20
1.139393190917559
 10
1.342728453308574
 20
1.146234171917232
 42
-0.3202231353338201
 10
1.356233445065345
 20
1.142774296388474
 42
-0.0022745356542214
 10
1.366574275861378
 20
1.130387985745326
 42
-0.32022313533382
 10
1.36756714042129
 20
1.1164822402245
 10
1.357677530787299
 20
1.100298611592674
 10
1.366250515570393
 20
1.089548428709619
 10
1.37482350032472
 20
1.078798245862521
 10
1.392802016768034
 20
1.084838706113544
 42
-0.3202231353338202
 10
1.406138183168118
 20
1.080776415285168
 42
-0.0022745356542214
 10
1.415912891709957
 20
1.067938637213288
 42
-0.32022313533382
 10
1.416280877607636
 20
1.054002349152853
 10
1.405675150399456
 20
1.038278712016641
 10
1.413757197626044
 20
1.027154728344527
 10
1.421839244825513
 20
1.016030744709621
 10
1.440070662323478
 20
1.021258519528924
 42
-0.3202231353338201
 10
1.453211146102556
 20
1.016601994314041
 42
-0.0022745356542214
 10
1.462400047428041
 20
1.003338602389981
 42
-0.32022313533382
 10
1.462142413588861
 20
0.9893998376194129
 10
1.450841927329652
 20
0.9741678572914661
 10
1.458416760832204
 20
0.9626924750529969
 10
1.465991594309333
 20
0.9512170928529183
 10
1.484439197213401
 20
0.9556216541977491
 42
-0.3202231353338202
 10
1.497357535185913
 20
0.9503802722184286
 42
-0.0022745356542214
 10
1.505942124070656
 20
0.9367179771484014
 42
-0.32022313533382
 10
1.505059389334881
 20
0.9228048064849399
 10
1.493086901700068
 20
0.9080951581465228
 10
1.500139266771985
 20
0.8962914872343578
 10
1.507191631820224
 20
0.884487816361684
 10
1.525818269113202
 20
0.8880602940316641
 42
-0.3202231353338202
 10
1.538488445465671
 20
0.8822446107336791
 42
-0.0022745356542214
 10
1.546451433690123
 20
0.8682109265617338
 42
-0.32022313533382
 10
1.544945375768037
 20
0.8543513692794952
 10
1.532324997754389
 20
0.8401936762047661
 10
1.538840691870966
 20
0.8280854876412529
 10
1.545356385965658
 20
0.8159772991182565
 10
1.564124546078919
 20
0.8187104986187883
 42
-0.3202231353338202
 10
1.576521044762354
 20
0.8123322260143414
 42
-0.0022745356542214
 10
1.583846395927964
 20
0.7979554147127646
 42
-0.32022313533382
 10
1.58172004781979
 20
0.7841773821156468
 10
1.568477195189071
 20
0.7706001560143139
 10
1.574443096609481
 20
0.7582118340798383
 10
1.580408998009855
 20
0.745823512186814
 10
1.599280884366643
 20
0.7477119292178474
 42
-0.3202231353338202
 10
1.611378740482451
 20
0.7407839122991154
 42
-0.0022745356542214
 10
1.618051702306854
 20
0.7260929268525663
 42
-0.32022313533382
 10
1.6153093461947
 20
0.7124241660646083
 10
1.601470688289716
 20
0.699454749663147
 10
1.606874782482454
 20
0.6868112427894073
 10
1.612278876657033
 20
0.6741677359579801
 10
1.63121648378975
 20
0.6752075674989273
 42
-0.3202231353338202
 10
1.642991333865734
 20
0.6677437583699942
 42
-0.0022745356542214
 10
1.648998467891861
 20
0.6527681844680418
 42
-0.32022313533382
 10
1.645645626515981
 20
0.6392362225543953
 10
1.631239032552069
 20
0.6269007345314322
 10
1.636070436390625
 20
0.6140275050586515
 10
1.640901840212941
 20
0.6011542756289435
 10
1.659867030301083
 20
0.6013434275974672
 42
-0.3202231353338201
 10
1.67129516135622
 20
0.593358857376618
 42
-0.0022745356542214
 10
1.676624370015596
 20
0.5781288538321121
 42
-0.32022313533382
 10
1.672667795552307
 20
0.5647609423631974
 10
1.657722278492447
 20
0.5530842247499744
 10
1.661971262172468
 20
0.5400071976490888
 10
1.666220245838194
 20
0.526930170591978
 10
1.685174825512863
 20
0.526268262061187
 42
-0.3202231353338202
 10
1.696233222812089
 20
0.5177790106102269
 42
-0.0022745356542214
 10
1.700873773787694
 20
0.5023252486234684
 42
-0.32022313533382
 10
1.696321434251427
 20
0.4891483087939439
 10
1.68086709237798
 20
0.4781538769457683
 10
1.684525099011797
 20
0.4648993876090484
 10
1.688183105633296
 20
0.4516448983166939
 10
1.707088902893556
 20
0.4501332622822827
 42
-0.3202231353338202
 10
1.717755296296396
 20
0.4411564258238743
 42
-0.0022745356542214
 10
1.721697844136144
 20
0.4255100272148665
 42
-0.32022313533382
 10
1.716558907332875
 20
0.412550595627931
 10
1.700626863633673
 20
0.4022605908673716
 10
1.703686526482745
 20
0.3888553320723891
 10
1.706746189321499
 20
0.3754500733222881
 10
1.725565130407701
 20
0.3730917540180525
 42
-0.3202231353338202
 10
1.735818039217345
 20
0.3636454107061549
 42
-0.0022745356542214
 10
1.739054644154575
 20
0.3478378852394366
 42
-0.32022313533382
 10
1.733339459219128
 20
0.3351220604656331
 10
1.716961798709903
 20
0.3255572054928599
 10
1.719416956020439
 20
0.3120281736468371
 10
1.721872113322679
 20
0.2984991418461012
 10
1.740566299391947
 20
0.2952988886132717
 42
-0.3202231353338202
 10
1.750385075614542
 20
0.2854020621261739
 42
-0.0022745356542214
 10
1.75290921955764
 20
0.2694652440543241
 42
-0.32022313533382
 10
1.746629296111887
 20
0.2570186340724954
 10
1.729839001221326
 20
0.2481981912325044
 10
1.731684708633234
 20
0.2345726320050803
 10
1.733530416038899
 20
0.2209470728232792
 10
1.752062199488361
 20
0.2169113305459691
 42
-0.3202231353338202
 10
1.761427069415301
 20
0.2065839517751193
 42
-0.0022745356542214
 10
1.763233669074293
 20
0.1905499357288225
 42
-0.32022313533382
 10
1.756401654048293
 20
0.1783976063550414
 10
1.739232538195804
 20
0.1703393388458674
 10
1.740465078725205
 20
0.1566446923198301
 10
1.741697619199999
 20
0.1429500458000141
 10
1.760029679500001
 20
0.1380869419000033
 42
-0.3202231353338202
 10
1.768921783499096
 20
0.1273498088383291
 42
-0.0022745356542214
 10
1.770007200700651
 20
0.1112508852452412
 42
-0.32022313533382
 10
1.762636852721752
 20
0.0994173095543472
 10
1.745123492299999
 20
0.0921374457000013
 10
1.745740383749997
 20
0.0784012910500074
 10
1.74635727514573
 20
0.0646651364086715
 10
1.764452693949394
 20
0.0589844645553583
 42
-0.3202231353338202
 10
1.772854124538196
 20
0.0478592003348382
 42
-0.0022745356542214
 10
1.773216173321021
 20
0.0317277902279543
 42
-0.32022313533382
 10
1.765322335426291
 20
0.0202367995720572
 10
1.747499999936324
 20
0.0137500000003894
 10
1.747499999969641
 20
0.0000000000138594
 10
1.747499999949138
 20
-0.013749999961586
 10
1.765322335491184
 20
-0.0202367996510979
 42
-0.32022313533382
 10
1.773216173306565
 20
-0.0317277902289026
 42
-0.0022745356542214
 10
1.772854124552598
 20
-0.0478592003364327
 42
-0.32022313533382
 10
1.764452693881033
 20
-0.0589844646313997
 10
1.746357275134674
 20
-0.0646651363693385
 10
1.74574038375124
 20
-0.07840129102232
 10
1.745123492314537
 20
-0.0921374456618087
 10
1.762636852783029
 20
-0.0994173096362119
 42
-0.32022313533382
 10
1.770007200686162
 20
-0.1112508852455347
 42
-0.0022745356542214
 10
1.768921783513413
 20
-0.1273498088405736
 42
-0.32022313533382
 10
1.760029679428289
 20
-0.1380869419729038
 10
1.741697619190717
 20
-0.1429500457602157
 10
1.740465078727684
 20
-0.1566446922922218
 10
1.73923253821204
 20
-0.1703393388083674
 10
1.756401654029716
 20
-0.1783976063904509
 42
-0.32022313533382
 10
1.763233669120794
 20
-0.1905499357848548
 42
-0.0022745356542214
 10
1.761427069414992
 20
-0.2065839517777519
 42
-0.32022313533382
 10
1.752062199430558
 20
-0.2169113305902499
 10
1.733530416031414
 20
-0.2209470727831115
 10
1.731684708661245
 20
-0.2345726319985415
 10
1.729839001239227
 20
-0.248198191195772
 10
1.746629296091744
 20
-0.25701863410703
 42
-0.32022313533382
 10
1.752909219601588
 20
-0.2694652441123819
 42
-0.0022745356542216
 10
1.750385075614119
 20
-0.2854020621287918
 42
-0.32022313533382
 10
1.740566299332223
 20
-0.2952988886549117
 10
1.721872113317004
 20
-0.2984991418056317
 10
1.719416956048711
 20
-0.3120281736415609
 10
1.716961798729436
 20
-0.32555720545697
 10
1.733339459197452
 20
-0.3351220604992411
 42
-0.32022313533382
 10
1.739054644195868
 20
-0.3478378852994117
 42
-0.0022745356542214
 10
1.735818039216801
 20
-0.3636454107087519
 42
-0.32022313533382
 10
1.725565130346161
 20
-0.3730917540569718
 10
1.706746189317644
 20
-0.3754500732816088
 10
1.70368652651122
 20
-0.3888553320683916
 10
1.700626863654796
 20
-0.4022605908323907
 10
1.716558907309711
 20
-0.4125505956605224
 42
-0.32022313533382
 10
1.721697844174705
 20
-0.4255100272766259
 42
-0.0022745356542214
 10
1.717755296295731
 20
-0.4411564258264347
 42
-0.32022313533382
 10
1.707088902830329
 20
-0.4501332623183947
 10
1.688183105631268
 20
-0.4516448982758796
 10
1.684525099040425
 20
-0.4648993876063297
 10
1.680867092400654
 20
-0.478153876911772
 10
1.696321434226828
 20
-0.4891483088254667
 42
-0.32022313533382
 10
1.700873773823452
 20
-0.5023252486869048
 42
-0.0022745356542216
 10
1.696233222811319
 20
-0.5177790106127667
 42
-0.32022313533382
 10
1.685174825448087
 20
-0.5262682620944328
 10
1.666220245837997
 20
-0.5269301705511147
 10
1.661971262201192
 20
-0.5400071976476566
 10
1.657722278516623
 20
-0.5530842247170287
 10
1.672667795526323
 20
-0.5647609423935798
 42
-0.32022313533382
 10
1.676624370048465
 20
-0.5781288538970879
 42
-0.0022745356542214
 10
1.671295161355335
 20
-0.5933588573791118
 42
-0.32022313533382
 10
1.659867030234874
 20
-0.601343427627775
 10
1.640901840214581
 20
-0.6011542755881108
 10
1.636070436419388
 20
-0.6140275050585047
 10
1.631239032577696
 20
-0.6269007344996096
 10
1.645645626488655
 20
-0.6392362225835868
 42
-0.3202231353338202
 10
1.648998467921789
 20
-0.6527681845344297
 42
-0.0022745356542216
 10
1.642991333864735
 20
-0.6677437583724597
 42
-0.32022313533382
 10
1.631216483722248
 20
-0.675207567526236
 10
1.612278876660504
 20
-0.6741677359172647
 10
1.606874782511191
 20
-0.6868112427905578
 10
1.601470688316744
 20
-0.6994547496325048
 10
1.61530934616609
 20
-0.7124241660925428
 42
-0.3202231353338202
 10
1.618051702333769
 20
-0.7260929269202239
 42
-0.0022745356542214
 10
1.611378740481341
 20
-0.7407839123015308
 42
-0.32022313533382
 10
1.599280884297979
 20
-0.7477119292420938
 10
1.580408998015145
 20
-0.7458235121462947
 10
1.574443096638134
 20
-0.7582118340822777
 10
1.568477195217451
 20
-0.7706001559849148
 10
1.581720047789954
 20
-0.7841773821422704
 42
-0.32022313533382
 10
1.583846395951819
 20
-0.7979554147815612
 42
-0.0022745356542214
 10
1.57652104476114
 20
-0.8123322260166991
 42
-0.32022313533382
 10
1.564124546009243
 20
-0.8187104986399331
 10
1.545356385972763
 20
-0.8159772990780167
 10
1.538840691899479
 20
-0.8280854876449794
 10
1.532324997784059
 20
-0.840193676176667
 10
1.544945375737044
 20
-0.8543513693047508
 42
-0.32022313533382
 10
1.546451433710871
 20
-0.8682109266315311
 42
-0.0022745356542216
 10
1.538488445464353
 20
-0.8822446107359835
 42
-0.32022313533382
 10
1.525818269042649
 20
-0.8880602940496597
 10
1.507191631829134
 20
-0.8844878163218004
 10
1.500139266800311
 20
-0.8962914872393536
 10
1.493086901730965
 20
-0.9080951581197826
 10
1.505059389302783
 20
-0.9228048065087799
 42
-0.32022313533382
 10
1.505942124088247
 20
-0.9367179772190548
 42
-0.0022745356542216
 10
1.497357535184488
 20
-0.9503802722206675
 42
-0.32022313533382
 10
1.484439197142109
 20
-0.9556216542125595
 10
1.465991594320016
 20
-0.9512170928134766
 10
1.458416760860274
 20
-0.9626924750592575
 10
1.450841927361721
 20
-0.9741678572661392
 10
1.462142413555731
 20
-0.9893998376417902
 42
-0.32022313533382
 10
1.462400047442451
 20
-1.003338602461359
 42
-0.0022745356542216
 10
1.45321114610104
 20
-1.016601994316213
 42
-0.32022313533382
 10
1.4400706622516
 20
-1.021258519540528
 10
1.421839244837958
 20
-1.016030744670699
 10
1.413757197653808
 20
-1.02715472835204
 10
1.405675150432625
 20
-1.038278711992778
 10
1.416280877573526
 20
-1.054002349173718
 42
-0.3202231353338202
 10
1.415912891721138
 20
-1.067938637285238
 42
-0.0022745356542214
 10
1.406138183166501
 20
-1.08077641528727
 42
-0.32022313533382
 10
1.392802016695696
 20
-1.084838706121909
 10
1.374823500338894
 20
-1.078798245824196
 10
1.366250515597784
 20
-1.089548428718372
 10
1.357677530821508
 20
-1.100298611570328
 10
1.367567140386281
 20
-1.116482240243819
 42
-0.3202231353338202
 10
1.366574275869321
 20
-1.130387985817711
 42
-0.0022745356542214
 10
1.356233445063636
 20
-1.14277429639051
 42
-0.32022313533382
 10
1.342728453235935
 20
-1.146234171922341
 10
1.325039044275283
 20
-1.13939319087991
 10
1.315992386827562
 20
-1.149747923549235
 10
1.306945729346609
 20
-1.160102656174804
 10
1.316099304977726
 20
-1.176713684666458
 42
-0.32022313533382
 10
1.314483561293198
 20
-1.190560883381746
 42
-0.0022745356542216
 10
1.303597433293526
 20
-1.20247078214422
 42
-0.32022313533382
 10
1.289950813365181
 20
-1.205321274644382
 10
1.272586135916182
 20
-1.197693549682635
 10
1.263084024526002
 20
-1.207631979073549
 10
1.25358191310458
 20
-1.217570408419255
 10
1.261981020718903
 20
-1.234575384328329
 42
-0.3202231353338202
 10
1.259745651759555
 20
-1.248336149769625
 42
-0.0022745356542216
 10
1.248336149778928
 20
-1.259745651770665
 42
-0.32022313533382
 10
1.234575384226361
 20
-1.261981020726614
 10
1.21757040843845
 20
-1.253581913068502
 10
1.20763197909358
 20
-1.263084024506844
 10
1.197693549719531
 20
-1.272586135898627
 10
1.205321274632098
 20
-1.289950813466705
 42
-0.32022313533382
 10
1.202470782133541
 20
-1.303597433283731
 42
-0.0022745356542216
 10
1.190560883390543
 20
-1.314483561304714
 42
-0.32022313533382
 10
1.176713684564245
 20
-1.31609930498086
 10
1.160102656195594
 20
-1.30694572931143
 10
1.149747923570111
 20
-1.315992386809329
 10
1.139393190917559
 20
-1.325039044259404
 10
1.146234171905514
 20
-1.342728453336802
 42
-0.3202231353338202
 10
1.142774296380278
 20
-1.356233445053374
 42
-0.0022745356542214
 10
1.13038798582598
 20
-1.36657427588122
 42
-0.32022313533382
 10
1.116482240141564
 20
-1.367567140384827
 10
1.100298611592674
 20
-1.357677530787298
 10
1.089548428740042
 20
-1.366250515580506
 10
1.078798245862519
 20
-1.374823500324724
 10
1.084838706100569
 20
-1.392802016795713
 42
-0.3202231353338202
 10
1.080776415277509
 20
-1.406138183155795
 42
-0.0022745356542214
 10
1.067938637292964
 20
-1.415912891733403
 42
-0.32022313533382
 10
1.054002349071635
 20
-1.416280877567491
 10
1.038278712016641
 20
-1.405675150399457
 10
1.027154728374463
 20
-1.413757197637514
 10
1.016030744709621
 20
-1.421839244825512
 10
1.021258519514728
 20
-1.440070662350549
 42
-0.32022313533382
 10
1.016601994306946
 20
-1.453211146089897
 42
-0.0022745356542214
 10
1.003338602468528
 20
-1.462400047455033
 42
-0.32022313533382
 10
0.9893998375400808
 20
-1.462142413545111
 10
0.9741678572914661
 20
-1.45084192732965
 10
0.9626924750823881
 20
-1.458416760845001
 10
0.9512170928529183
 20
-1.46599159430933
 10
0.955621654182352
 20
-1.484439197239804
 42
-0.3202231353338205
 10
0.9503802722119058
 20
-1.49735753517294
 42
-0.0022745356542214
 10
0.9367179772256593
 20
-1.505942124101141
 42
-0.32022313533382
 10
0.9228048064076514
 20
-1.505059389287612
 10
0.9080951581465228
 20
-1.493086901700066
 10
0.8962914872631451
 20
-1.500139266786089
 10
0.8844878163616813
 20
-1.507191631820226
 10
0.8880602940150875
 20
-1.525818269138889
 42
-0.3202231353338205
 10
0.882244610727746
 20
-1.538488445452423
 42
-0.0022745356542214
 10
0.8682109266375416
 20
-1.546451433724047
 42
-0.32022313533382
 10
0.8543513692044024
 20
-1.544945375717348
 10
0.8401936762047634
 20
-1.532324997754389
 10
0.828085487669384
 20
-1.538840691886345
 10
0.8159772991182565
 20
-1.54535638596566
 10
0.8187104986010851
 20
-1.564124546103836
 42
-0.3202231353338205
 10
0.8123322260090093
 20
-1.576521044748859
 42
-0.0022745356542214
 10
0.7979554147869803
 20
-1.583846395965262
 42
-0.3202231353338201
 10
0.7841773820429095
 20
-1.581720047765785
 10
0.7706001560143139
 20
-1.568477195189072
 10
0.7582118341072471
 20
-1.574443096626111
 10
0.745823512186814
 20
-1.580408998009851
 10
0.7477119291990393
 20
-1.599280884390739
 42
-0.3202231353338205
 10
0.7407839122943934
 20
-1.611378740468729
 42
-0.0022745356542214
 10
0.7260929269250314
 20
-1.618051702347435
 42
-0.32022313533382
 10
0.71242416599436
 20
-1.615309346137483
 10
0.699454749663147
 20
-1.601470688289714
 10
0.686811242816042
 20
-1.606874782500297
 10
0.6741677359579761
 20
-1.612278876657032
 10
0.6752075674790601
 20
-1.631216483812978
 42
-0.3202231353338205
 10
0.6677437583658939
 20
-1.642991333851811
 42
-0.0022745356542214
 10
0.6527681845386164
 20
-1.648998467935659
 42
-0.32022313533382
 10
0.6392362224867832
 20
-1.645645626455672
 10
0.6269007345314322
 20
-1.631239032552069
 10
0.6140275050844513
 20
-1.636070436409645
 10
0.6011542756289435
 20
-1.640901840212943
 10
0.6013434275765773
 20
-1.659867030323399
 42
-0.3202231353338205
 10
0.5933588573731443
 20
-1.671295161342126
 42
-0.0022745356542214
 10
0.5781288539006515
 20
-1.676624370062513
 42
-0.32022313533382
 10
0.5647609422983644
 20
-1.67266779548903
 10
0.5530842247499744
 20
-1.657722278492445
 10
0.5400071976740191
 20
-1.661971262192625
 10
0.526930170591978
 20
-1.66622024583819
 10
0.5262682620393178
 20
-1.685174825534217
 42
-0.3202231353338205
 10
0.5177790106073954
 20
-1.696233222797856
 42
-0.0022745356542214
 10
0.5023252486898291
 20
-1.700873773837645
 42
-0.3202231353338198
 10
0.489148308732013
 20
-1.696321434185303
 10
0.4781538769457683
 20
-1.680867092377979
 10
0.4648993876330474
 20
-1.684525099033051
 10
0.4516448983166939
 20
-1.688183105633293
 10
0.4501332622594703
 20
-1.707088902913908
 42
-0.3202231353338205
 10
0.4411564258216783
 20
-1.717755296282047
 42
-0.0022745356542214
 10
0.4255100272789183
 20
-1.721697844189015
 42
-0.3202231353338201
 10
0.4125505955690345
 20
-1.716558907264039
 10
0.4022605908673716
 20
-1.700626863633671
 10
0.3888553320954173
 20
-1.703686526505056
 10
0.3754500733222916
 20
-1.7067461893215
 10
0.3730917539943523
 20
-1.725565130427013
 42
-0.3202231353338205
 10
0.3636454107046103
 20
-1.735818039202915
 42
-0.0022745356542214
 10
0.3478378853010513
 20
-1.739054644210267
 42
-0.32022313533382
 10
0.3351220604098803
 20
-1.73333945914772
 10
0.3255572054928599
 20
-1.716961798709905
 10
0.3120281736688293
 20
-1.719416956043759
 10
0.2984991418461012
 20
-1.721872113322681
 10
0.2952988885887322
 20
-1.740566299410175
 42
-0.3202231353338205
 10
0.2854020621252751
 20
-1.750385075600056
 42
-0.0022745356542214
 10
0.2694652441133827
 20
-1.75290921961604
 42
-0.32022313533382
 10
0.2570186340200053
 20
-1.746629296038043
 10
0.2481981912325044
 20
-1.729839001221324
 10
0.2345726320260124
 20
-1.731684708657518
 10
0.2209470728232752
 20
-1.733530416038894
 10
0.2169113305206314
 20
-1.752062199505465
 42
-0.3202231353338202
 10
0.2065839517748713
 20
-1.761427069400784
 42
-0.0022745356542214
 10
0.1905499357852001
 20
-1.763233669135273
 42
-0.3202231353338198
 10
0.1783976063059116
 20
-1.75640165397217
 10
0.170339338845864
 20
-1.739232538195802
 10
0.1566446923198264
 20
-1.740465078725196
 10
0.1429500458000141
 20
-1.741697619200002
 10
0.1380869419000033
 20
-1.760029679500003
 42
-0.3202231353338205
 10
0.1273498088383302
 20
-1.768921783499098
 42
-0.0022745356542214
 10
0.1112508852452392
 20
-1.770007200700653
 42
-0.3202231353338201
 10
0.0994173095543494
 20
-1.762636852721754
 10
0.0921374457000013
 20
-1.745123492300002
 10
0.0784012910500074
 20
-1.745740383749999
 10
0.0646651364086741
 20
-1.746357275145729
 10
0.0589844645553583
 20
-1.764452693949396
 42
-0.3202231353338205
 10
0.0478592003348342
 20
-1.772854124538196
 42
-0.0022745356542214
 10
0.0317277902279534
 20
-1.773216173321025
 42
-0.32022313533382
 10
0.0202367995720594
 20
-1.765322335426296
 10
0.0137500000003894
 20
-1.747499999936326
 10
0.0000000000138594
 20
-1.747499999969639
 10
-0.0137499999615878
 20
-1.747499999949133
 10
-0.0202367996510917
 20
-1.765322335491183
 42
-0.3202231353338205
 10
-0.0317277902289039
 20
-1.773216173306559
 42
-0.0022745356542214
 10
-0.047859200336436
 20
-1.772854124552593
 42
-0.32022313533382
 10
-0.0589844646314037
 20
-1.764452693881023
 10
-0.0646651363693349
 20
-1.746357275134672
 10
-0.0784012910223178
 20
-1.745740383751235
 10
-0.0921374456618118
 20
-1.745123492314536
 10
-0.0994173096362134
 20
-1.762636852783027
 42
-0.3202231353338205
 10
-0.1112508852455427
 20
-1.770007200686159
 42
-0.0022745356542214
 10
-0.1273498088405736
 20
-1.768921783513413
 42
-0.32022313533382
 10
-0.1380869419729038
 20
-1.760029679428286
 10
-0.1429500457602175
 20
-1.741697619190715
 10
-0.1566446922922229
 20
-1.740465078727683
 10
-0.1703393388083674
 20
-1.739232538212038
 10
-0.1783976063904467
 20
-1.756401654029715
 42
-0.3202231353338205
 10
-0.1905499357848528
 20
-1.763233669120789
 42
-0.0022745356542214
 10
-0.2065839517777546
 20
-1.761427069414987
 42
-0.3202231353338198
 10
-0.2169113305902457
 20
-1.752062199430553
 10
-0.2209470727831098
 20
-1.733530416031412
 10
-0.2345726319985437
 20
-1.73168470866124
 10
-0.2481981911957711
 20
-1.729839001239219
 10
-0.2570186341070317
 20
-1.746629296091735
 42
-0.3202231353338205
 10
-0.2694652441123837
 20
-1.752909219601574
 42
-0.0022745356542214
 10
-0.28540206212879
 20
-1.750385075614107
 42
-0.32022313533382
 10
-0.2952988886549075
 20
-1.740566299332207
 10
-0.2984991418056351
 20
-1.721872113317
 10
-0.3120281736415627
 20
-1.719416956048703
 10
-0.3255572054569735
 20
-1.716961798729438
 10
-0.3351220604992411
 20
-1.733339459197455
 42
-0.3202231353338202
 10
-0.3478378852994086
 20
-1.739054644195868
 42
-0.0022745356542214
 10
-0.3636454107087537
 20
-1.735818039216801
 42
-0.3202231353338197
 10
-0.3730917540569718
 20
-1.72556513034616
 10
-0.3754500732816117
 20
-1.706746189317647
 10
-0.3888553320683925
 20
-1.703686526511222
 10
-0.4022605908323929
 20
-1.700626863654799
 10
-0.4125505956605249
 20
-1.716558907309713
 42
-0.3202231353338202
 10
-0.4255100272766277
 20
-1.721697844174706
 42
-0.0022745356542214
 10
-0.4411564258264398
 20
-1.717755296295735
 42
-0.32022313533382
 10
-0.450133262318399
 20
-1.707088902830336
 10
-0.4516448982758819
 20
-1.68818310563127
 10
-0.4648993876063317
 20
-1.684525099040423
 10
-0.478153876911772
 20
-1.680867092400649
 10
-0.4891483088254667
 20
-1.696321434226823
 42
-0.3202231353338202
 10
-0.502325248686899
 20
-1.700873773823439
 42
-0.0022745356542214
 10
-0.5177790106127647
 20
-1.696233222811307
 42
-0.3202231353338196
 10
-0.5262682620944299
 20
-1.685174825448071
 10
-0.5269301705511147
 20
-1.666220245837997
 10
-0.5400071976476566
 20
-1.661971262201187
 10
-0.5530842247170309
 20
-1.657722278516621
 10
-0.5647609423935826
 20
-1.672667795526325
 42
-0.3202231353338205
 10
-0.5781288538970859
 20
-1.676624370048469
 42
-0.0022745356542214
 10
-0.5933588573791147
 20
-1.671295161355335
 42
-0.32022313533382
 10
-0.601343427627775
 20
-1.659867030234878
 10
-0.6011542755881108
 20
-1.640901840214584
 10
-0.6140275050585047
 20
-1.636070436419386
 10
-0.6269007344996096
 20
-1.631239032577691
 10
-0.6392362225835868
 20
-1.64564562648865
 42
-0.3202231353338202
 10
-0.6527681845344297
 20
-1.648998467921784
 42
-0.0022745356542216
 10
-0.6677437583724597
 20
-1.642991333864732
 42
-0.32022313533382
 10
-0.675207567526236
 20
-1.631216483722242
 10
-0.6741677359172647
 20
-1.612278876660499
 10
-0.6868112427905578
 20
-1.606874782511183
 10
-0.6994547496325028
 20
-1.601470688316747
 10
-0.7124241660925428
 20
-1.615309346166088
 42
-0.3202231353338202
 10
-0.726092926920231
 20
-1.618051702333771
 42
-0.0022745356542214
 10
-0.7407839123015318
 20
-1.611378740481346
 42
-0.32022313533382
 10
-0.7477119292421009
 20
-1.599280884297983
 10
-0.7458235121462959
 20
-1.580408998015147
 10
-0.7582118340822757
 20
-1.574443096638137
 10
-0.7706001559849148
 20
-1.568477195217446
 10
-0.7841773821422704
 20
-1.581720047789953
 42
-0.3202231353338202
 10
-0.7979554147815647
 20
-1.583846395951817
 42
-0.0022745356542214
 10
-0.8123322260167025
 20
-1.576521044761139
 42
-0.32022313533382
 10
-0.8187104986399384
 20
-1.564124546009241
 10
-0.8159772990780185
 20
-1.545356385972762
 10
-0.8280854876449776
 20
-1.538840691899475
 10
-0.8401936761766652
 20
-1.532324997784061
 10
-0.8543513693047508
 20
-1.544945375737042
 42
-0.3202231353338202
 10
-0.8682109266315311
 20
-1.546451433710871
 42
-0.0022745356542214
 10
-0.8822446107359784
 20
-1.538488445464358
 42
-0.32022313533382
 10
-0.8880602940496578
 20
-1.525818269042653
 10
-0.8844878163218004
 20
-1.507191631829132
 10
-0.8962914872393536
 20
-1.500139266800309
 10
-0.9080951581197826
 20
-1.493086901730971
 10
-0.9228048065087799
 20
-1.505059389302789
 42
-0.3202231353338202
 10
-0.9367179772190567
 20
-1.505942124088247
 42
-0.0022745356542214
 10
-0.9503802722206691
 20
-1.49735753518449
 42
-0.32022313533382
 10
-0.9556216542125612
 20
-1.484439197142111
 10
-0.9512170928134766
 20
-1.465991594320018
 10
-0.9626924750592575
 20
-1.458416760860276
 10
-0.9741678572661392
 20
-1.450841927361724
 10
-0.9893998376417902
 20
-1.462142413555734
 42
-0.3202231353338202
 10
-1.003338602461357
 20
-1.462400047442447
 42
-0.0022745356542214
 10
-1.01660199431621
 20
-1.453211146101042
 42
-0.32022313533382
 10
-1.021258519540526
 20
-1.4400706622516
 10
-1.016030744670699
 20
-1.42183924483796
 10
-1.02715472835204
 20
-1.413757197653811
 10
-1.038278711992778
 20
-1.405675150432627
 10
-1.054002349173718
 20
-1.416280877573529
 42
-0.3202231353338202
 10
-1.067938637285238
 20
-1.41591289172114
 42
-0.0022745356542214
 10
-1.080776415287272
 20
-1.406138183166503
 42
-0.32022313533382
 10
-1.084838706121906
 20
-1.392802016695699
 10
-1.078798245824196
 20
-1.374823500338901
 10
-1.089548428718372
 20
-1.366250515597786
 10
-1.100298611570328
 20
-1.357677530821507
 10
-1.116482240243818
 20
-1.36756714038628
 42
-0.3202231353338202
 10
-1.130387985817709
 20
-1.366574275869324
 42
-0.0022745356542214
 10
-1.142774296390505
 20
-1.356233445063643
 42
-0.32022313533382
 10
-1.146234171922341
 20
-1.342728453235937
 10
-1.13939319087991
 20
-1.325039044275281
 10
-1.149747923549235
 20
-1.315992386827562
 10
-1.160102656174804
 20
-1.306945729346604
 10
-1.176713684666458
 20
-1.316099304977721
 42
-0.3202231353338202
 10
-1.190560883381745
 20
-1.314483561293187
 42
-0.0022745356542214
 10
-1.202470782144216
 20
-1.303597433293513
 42
-0.32022313533382
 10
-1.205321274644382
 20
-1.289950813365172
 10
-1.197693549682635
 20
-1.272586135916177
 10
-1.207631979073549
 20
-1.263084024525997
 10
-1.217570408419255
 20
-1.253581913104578
 10
-1.234575384328329
 20
-1.261981020718901
 42
-0.3202231353338202
 10
-1.248336149769623
 20
-1.259745651759552
 42
-0.0022745356542214
 10
-1.259745651770662
 20
-1.248336149778929
 42
-0.32022313533382
 10
-1.261981020726611
 20
-1.234575384226356
 10
-1.253581913068502
 20
-1.21757040843845
 10
-1.263084024506844
 20
-1.207631979093579
 10
-1.272586135898627
 20
-1.197693549719526
 10
-1.289950813466705
 20
-1.205321274632093
 42
-0.3202231353338202
 10
-1.303597433283731
 20
-1.202470782133533
 42
-0.0022745356542214
 10
-1.314483561304712
 20
-1.190560883390541
 42
-0.32022313533382
 10
-1.31609930498086
 20
-1.176713684564238
 10
-1.30694572931143
 20
-1.160102656195589
 10
-1.315992386809329
 20
-1.149747923570106
 10
-1.325039044259406
 20
-1.139393190917561
 10
-1.342728453336804
 20
-1.146234171905514
 42
-0.3202231353338202
 10
-1.356233445053372
 20
-1.142774296380271
 42
-0.0022745356542214
 10
-1.366574275881217
 20
-1.130387985825977
 42
-0.32022313533382
 10
-1.367567140384823
 20
-1.116482240141562
 10
-1.3576775307873
 20
-1.100298611592676
 10
-1.366250515580508
 20
-1.089548428740044
 10
-1.374823500324722
 20
-1.078798245862524
 10
-1.392802016795712
 20
-1.084838706100575
 42
-0.3202231353338202
 10
-1.406138183155786
 20
-1.080776415277511
 42
-0.0022745356542214
 10
-1.41591289173339
 20
-1.067938637292967
 42
-0.32022313533382
 10
-1.416280877567484
 20
-1.054002349071635
 10
-1.405675150399454
 20
-1.038278712016643
 10
-1.413757197637511
 20
-1.027154728374465
 10
-1.421839244825512
 20
-1.016030744709619
 10
-1.440070662350549
 20
-1.021258519514726
 42
-0.3202231353338202
 10
-1.453211146089899
 20
-1.016601994306939
 42
-0.0022745356542214
 10
-1.462400047455033
 20
-1.003338602468525
 42
-0.32022313533382
 10
-1.462142413545108
 20
-0.9893998375400759
 10
-1.45084192732965
 20
-0.9741678572914649
 10
-1.458416760845001
 20
-0.9626924750823873
 10
-1.46599159430933
 20
-0.9512170928529208
 10
-1.484439197239804
 20
-0.9556216541823543
 42
-0.3202231353338202
 10
-1.497357535172937
 20
-0.9503802722119065
 42
-0.0022745356542214
 10
-1.505942124101141
 20
-0.9367179772256541
 42
-0.32022313533382
 10
-1.50505938928761
 20
-0.9228048064076448
 10
-1.493086901700064
 20
-0.9080951581465255
 10
-1.500139266786089
 20
-0.8962914872631479
 10
-1.507191631820224
 20
-0.8844878163616833
 10
-1.52581826913889
 20
-0.8880602940150899
 42
-0.3202231353338202
 10
-1.538488445452427
 20
-0.8822446107277484
 42
-0.0022745356542214
 10
-1.54645143372405
 20
-0.8682109266375475
 42
-0.32022313533382
 10
-1.544945375717349
 20
-0.8543513692044079
 10
-1.532324997754387
 20
-0.8401936762047654
 10
-1.538840691886346
 20
-0.8280854876693826
 10
-1.54535638596566
 20
-0.8159772991182583
 10
-1.564124546103834
 20
-0.8187104986010844
 42
-0.3202231353338202
 10
-1.576521044748855
 20
-0.8123322260090075
 42
-0.0022745356542214
 10
-1.583846395965257
 20
-0.7979554147869792
 42
-0.32022313533382
 10
-1.581720047765782
 20
-0.7841773820429048
 10
-1.56847719518907
 20
-0.7706001560143139
 10
-1.574443096626109
 20
-0.7582118341072459
 10
-1.58040899800985
 20
-0.7458235121868058
 10
-1.599280884390734
 20
-0.7477119291990347
 42
-0.3202231353338202
 10
-1.611378740468734
 20
-0.7407839122943858
 42
-0.0022745356542214
 10
-1.618051702347442
 20
-0.7260929269250227
 42
-0.32022313533382
 10
-1.615309346137487
 20
-0.7124241659943527
 10
-1.601470688289713
 20
-0.6994547496631427
 10
-1.606874782500297
 20
-0.6868112428160379
 10
-1.612278876657032
 20
-0.6741677359579825
 10
-1.631216483812976
 20
-0.6752075674790668
 42
-0.3202231353338202
 10
-1.642991333851811
 20
-0.6677437583659007
 42
-0.0022745356542214
 10
-1.648998467935656
 20
-0.6527681845386218
 42
-0.32022313533382
 10
-1.645645626455668
 20
-0.6392362224867938
 10
-1.631239032552067
 20
-0.6269007345314388
 10
-1.636070436409645
 20
-0.6140275050844537
 10
-1.640901840212939
 20
-0.601154275628939
 10
-1.659867030323399
 20
-0.6013434275765728
 42
-0.3202231353338202
 10
-1.671295161342128
 20
-0.5933588573731359
 42
-0.0022745356542214
 10
-1.676624370062513
 20
-0.5781288539006438
 42
-0.32022313533382
 10
-1.67266779548903
 20
-0.5647609422983557
 10
-1.657722278492442
 20
-0.5530842247499728
 10
-1.661971262192621
 20
-0.5400071976740149
 10
-1.66622024583819
 20
-0.5269301705919738
 10
-1.685174825534217
 20
-0.5262682620393127
 42
-0.3202231353338202
 10
-1.696233222797856
 20
-0.5177790106073907
 42
-0.0022745356542214
 10
-1.700873773837639
 20
-0.5023252486898287
 42
-0.32022313533382
 10
-1.696321434185301
 20
-0.4891483087320119
 10
-1.680867092377977
 20
-0.4781538769457648
 10
-1.684525099033051
 20
-0.4648993876330425
 10
-1.688183105633291
 20
-0.4516448983166868
 10
-1.707088902913906
 20
-0.4501332622594667
 42
-0.3202231353338202
 10
-1.717755296282041
 20
-0.4411564258216736
 42
-0.0022745356542214
 10
-1.721697844189004
 20
-0.4255100272789139
 42
-0.32022313533382
 10
-1.716558907264031
 20
-0.4125505955690297
 10
-1.700626863633671
 20
-0.4022605908673638
 10
-1.703686526505054
 20
-0.3888553320954098
 10
-1.706746189321498
 20
-0.375450073322295
 10
-1.725565130427011
 20
-0.3730917539943588
 42
-0.3202231353338202
 10
-1.735818039202915
 20
-0.3636454107046096
 42
-0.0022745356542214
 10
-1.739054644210265
 20
-0.3478378853010566
 42
-0.32022313533382
 10
-1.733339459147718
 20
-0.3351220604098868
 10
-1.716961798709903
 20
-0.3255572054928626
 10
-1.719416956043759
 20
-0.3120281736688348
 10
-1.721872113322679
 20
-0.2984991418460967
 10
-1.740566299410175
 20
-0.2952988885887284
 42
-0.3202231353338202
 10
-1.750385075600058
 20
-0.2854020621252675
 42
-0.0022745356542214
 10
-1.752909219616038
 20
-0.2694652441133769
 42
-0.32022313533382
 10
-1.746629296038045
 20
-0.2570186340199916
 10
-1.729839001221322
 20
-0.2481981912325
 10
-1.731684708657518
 20
-0.2345726320260077
 10
-1.733530416038898
 20
-0.2209470728232787
 10
-1.752062199505469
 20
-0.2169113305206307
 42
-0.3202231353338202
 10
-1.761427069400792
 20
-0.2065839517748669
 42
-0.0022745356542214
 10
-1.763233669135281
 20
-0.1905499357852029
 42
-0.32022313533382
 10
-1.756401653972175
 20
-0.1783976063059109
 10
-1.739232538195806
 20
-0.1703393388458627
 10
-1.7404650787252
 20
-0.1566446923198299
 10
-1.741697619200002
 20
-0.1429500458000168
 10
-1.760029679500003
 20
-0.1380869419000059
 42
-0.3202231353338202
 10
-1.768921783499096
 20
-0.1273498088383278
 42
-0.0022745356542214
 10
-1.770007200700651
 20
-0.1112508852452436
 42
-0.32022313533382
 10
-1.762636852721752
 20
-0.0994173095543467
 10
-1.745123492300002
 20
-0.0921374457000035
 10
-1.745740383749999
 20
-0.07840129105001
 10
-1.746357275145729
 20
-0.0646651364086737
 10
-1.764452693949393
 20
-0.0589844645553579
 42
-0.3202231353338202
 10
-1.772854124538198
 20
-0.0478592003348368
 42
-0.0022745356542214
 10
-1.773216173321025
 20
-0.0317277902279576
 42
-0.32022313533382
 10
-1.765322335426298
 20
-0.0202367995720609
 10
-1.747499999936326
 20
-0.0137500000003885
 10
-1.747499999969639
 20
-0.0000000000138587
 10
-1.74749999994914
 20
0.0137499999615864
 10
-1.765322335491187
 20
0.0202367996510915
 42
-0.3202231353338202
 10
-1.773216173306564
 20
0.0317277902289031
 42
-0.0022745356542214
 10
-1.772854124552599
 20
0.0478592003364293
 42
-0.32022313533382
 10
-1.764452693881028
 20
0.0589844646314013
 10
-1.74635727513468
 20
0.0646651363693325
 10
-1.745740383751242
 20
0.0784012910223133
 10
-1.745123492314543
 20
0.0921374456618134
 10
-1.762636852783034
 20
0.0994173096362166
 42
-0.3202231353338202
 10
-1.770007200686168
 20
0.11125088524555
 42
-0.0022745356542214
 10
-1.76892178351342
 20
0.1273498088405816
 42
-0.3202231353338199
 10
-1.760029679428295
 20
0.1380869419729154
 10
-1.741697619190722
 20
0.14295004576022
 10
-1.74046507872769
 20
0.1566446922922251
 10
-1.739232538212038
 20
0.1703393388083652
 10
-1.756401654029715
 20
0.1783976063904482
 42
-0.3202231353338202
 10
-1.763233669120787
 20
0.1905499357848581
 42
-0.0022745356542214
 10
-1.761427069414987
 20
0.2065839517777566
 42
-0.3202231353338198
 10
-1.752062199430553
 20
0.2169113305902499
 10
-1.733530416031409
 20
0.2209470727831082
 10
-1.73168470866124
 20
0.2345726319985433
 10
-1.729839001239226
 20
0.2481981911957733
 10
-1.746629296091739
 20
0.2570186341070344
 42
-0.3202231353338202
 10
-1.752909219601581
 20
0.2694652441123866
 42
-0.0022745356542214
 10
-1.750385075614114
 20
0.2854020621288002
 42
-0.3202231353338198
 10
-1.740566299332216
 20
0.2952988886549193
 10
-1.721872113317007
 20
0.2984991418056393
 10
-1.71941695604871
 20
0.3120281736415649
 10
-1.716961798729431
 20
0.3255572054569713
 10
-1.733339459197444
 20
0.3351220604992382
 42
-0.3202231353338202
 10
-1.739054644195861
 20
0.3478378852994095
 42
-0.0022745356542214
 10
-1.735818039216797
 20
0.3636454107087523
 42
-0.3202231353338198
 10
-1.725565130346155
 20
0.3730917540569725
 10
-1.70674618931764
 20
0.3754500732816131
 10
-1.703686526511215
 20
0.3888553320683923
 10
-1.700626863654796
 20
0.4022605908323951
 10
-1.716558907309713
 20
0.4125505956605271
 42
-0.3202231353338202
 10
-1.721697844174706
 20
0.4255100272766233
 42
-0.0022745356542214
 10
-1.717755296295735
 20
0.4411564258264354
 42
-0.3202231353338201
 10
-1.707088902830332
 20
0.4501332623183965
 10
-1.68818310563127
 20
0.4516448982758843
 10
-1.684525099040423
 20
0.4648993876063341
 10
-1.680867092400649
 20
0.478153876911772
 10
-1.69632143422682
 20
0.4891483088254703
 42
-0.3202231353338202
 10
-1.700873773823443
 20
0.5023252486869012
 42
-0.0022745356542214
 10
-1.696233222811307
 20
0.5177790106127702
 42
-0.3202231353338201
 10
-1.685174825448075
 20
0.5262682620944333
 10
-1.666220245837997
 20
0.5269301705511152
 10
-1.661971262201187
 20
0.5400071976476615
 10
-1.657722278516614
 20
0.5530842247170296
 10
-1.672667795526318
 20
0.5647609423935834
 42
-0.3202231353338202
 10
-1.676624370048462
 20
0.5781288538970811
 42
-0.0022745356542214
 10
-1.67129516135533
 20
0.5933588573791054
 42
-0.32022313533382
 10
-1.659867030234871
 20
0.6013434276277683
 10
-1.640901840214577
 20
0.6011542755881126
 10
-1.636070436419379
 20
0.6140275050585049
 10
-1.631239032577698
 20
0.6269007344996114
 10
-1.645645626488657
 20
0.6392362225835884
 42
-0.3202231353338202
 10
-1.648998467921784
 20
0.652768184534438
 42
-0.0022745356542214
 10
-1.642991333864732
 20
0.6677437583724677
 42
-0.32022313533382
 10
-1.631216483722245
 20
0.6752075675262433
 10
-1.612278876660503
 20
0.674167735917266
 10
-1.60687478251119
 20
0.686811242790558
 10
-1.60147068831674
 20
0.6994547496325017
 10
-1.615309346166085
 20
0.7124241660925393
 42
-0.3202231353338202
 10
-1.618051702333757
 20
0.7260929269202241
 42
-0.0022745356542214
 10
-1.611378740481334
 20
0.7407839123015272
 42
-0.32022313533382
 10
-1.599280884297971
 20
0.7477119292420942
 10
-1.58040899801514
 20
0.7458235121462918
 10
-1.574443096638133
 20
0.758211834082275
 10
-1.568477195217449
 20
0.7706001559849125
 10
-1.581720047789953
 20
0.7841773821422713
 42
-0.3202231353338203
 10
-1.583846395951812
 20
0.797955414781562
 42
-0.0022745356542214
 10
-1.576521044761132
 20
0.8123322260167039
 42
-0.3202231353338199
 10
-1.564124546009234
 20
0.8187104986399379
 10
-1.545356385972762
 20
0.8159772990780179
 10
-1.538840691899479
 20
0.8280854876449769
 10
-1.532324997784054
 20
0.8401936761766641
 10
-1.544945375737039
 20
0.8543513693047483
 42
-0.3202231353338201
 10
-1.546451433710859
 20
0.86821092663153
 42
-0.0022745356542214
 10
-1.538488445464344
 20
0.8822446107359782
 42
-0.3202231353338198
 10
-1.52581826904264
 20
0.8880602940496595
 10
-1.507191631829129
 20
0.884487816321798
 10
-1.500139266800306
 20
0.8962914872393529
 10
-1.493086901730964
 20
0.9080951581197824
 10
-1.505059389302782
 20
0.9228048065087794
 42
-0.3202231353338202
 10
-1.50594212408824
 20
0.9367179772190542
 42
-0.0022745356542214
 10
-1.497357535184485
 20
0.9503802722206673
 42
-0.3202231353338198
 10
-1.484439197142104
 20
0.9556216542125572
 10
-1.465991594320011
 20
0.9512170928134761
 10
-1.458416760860269
 20
0.9626924750592573
 10
-1.450841927361717
 20
0.974167857266142
 10
-1.462142413555727
 20
0.9893998376417915
 42
-0.3202231353338202
 10
-1.462400047442437
 20
1.003338602461359
 42
-0.0022745356542214
 10
-1.453211146101032
 20
1.016601994316214
 42
-0.3202231353338201
 10
-1.440070662251589
 20
1.021258519540531
 10
-1.421839244837953
 20
1.016030744670701
 10
-1.413757197653803
 20
1.027154728352041
 10
-1.40567515043262
 20
1.038278711992778
 10
-1.416280877573522
 20
1.054002349173718
 42
-0.3202231353338203
 10
-1.415912891721139
 20
1.067938637285238
 42
-0.0022745356542214
 10
-1.406138183166501
 20
1.080776415287272
 42
-0.3202231353338201
 10
-1.392802016695699
 20
1.084838706121907
 10
-1.374823500338894
 20
1.078798245824199
 10
-1.366250515597779
 20
1.089548428718374
 10
-1.357677530821507
 20
1.100298611570327
 10
-1.36756714038628
 20
1.116482240243819
 42
-0.3202231353338201
 10
-1.366574275869322
 20
1.130387985817709
 42
-0.0022745356542214
 10
-1.356233445063637
 20
1.142774296390502
 42
-0.3202231353338201
 10
-1.342728453235936
 20
1.146234171922341
 10
-1.325039044275281
 20
1.139393190879911
 10
-1.315992386827562
 20
1.149747923549239
 10
-1.306945729346611
 20
1.160102656174804
 10
-1.316099304977728
 20
1.176713684666459
 42
-0.3202231353338202
 10
-1.3144835612932
 20
1.19056088338175
 42
-0.0022745356542214
 10
-1.303597433293526
 20
1.202470782144221
 42
-0.32022313533382
 10
-1.289950813365183
 20
1.205321274644386
 10
-1.272586135916184
 20
1.197693549682636
 10
-1.263084024526004
 20
1.207631979073549
 10
-1.253581913104578
 20
1.21757040841926
 10
-1.261981020718901
 20
1.234575384328334
 42
-0.3202231353338202
 10
-1.259745651759559
 20
1.248336149769631
 42
-0.0022745356542214
 10
-1.248336149778933
 20
1.259745651770667
 42
-0.32022313533382
 10
-1.234575384226363
 20
1.261981020726619
 10
-1.21757040843845
 20
1.253581913068504
 10
-1.207631979093579
 20
1.263084024506849
 10
-1.197693549719534
 20
1.272586135898627
 10
-1.205321274632104
 20
1.289950813466707
 42
-0.3202231353338202
 10
-1.202470782133537
 20
1.303597433283738
 42
-0.0022745356542214
 10
-1.190560883390545
 20
1.314483561304719
 42
-0.32022313533382
 10
-1.17671368456424
 20
1.316099304980866
 10
-1.1601026561956
 20
1.306945729311433
 10
-1.149747923570113
 20
1.31599238680933
 10
-1.139393190917558
 20
1.325039044259401
 10
-1.146234171905514
 20
1.342728453336804
 42
-0.3202231353338203
 10
-1.142774296380269
 20
1.356233445053381
 42
-0.0022745356542214
 10
-1.130387985825973
 20
1.366574275881224
 42
-0.3202231353338199
 10
-1.116482240141558
 20
1.367567140384832
 10
-1.100298611592672
 20
1.357677530787299
 10
-1.08954842874004
 20
1.366250515580506
 10
-1.078798245862514
 20
1.37482350032472
 10
-1.084838706100565
 20
1.392802016795713
 42
-0.3202231353338202
 10
-1.080776415277502
 20
1.406138183155797
 42
-0.0022745356542214
 10
-1.067938637292958
 20
1.415912891733401
 42
-0.3202231353338198
 10
-1.054002349071628
 20
1.416280877567491
 10
-1.038278712016636
 20
1.405675150399456
 10
-1.027154728374457
 20
1.413757197637512
 10
-1.016030744709619
 20
1.421839244825513
 10
-1.021258519514726
 20
1.440070662350549
 42
-0.3202231353338202
 10
-1.016601994306943
 20
1.453211146089899
 42
-0.0022745356542214
 10
-1.00333860246853
 20
1.462400047455033
 42
-0.3202231353338198
 10
-0.9893998375400796
 20
1.462142413545109
 10
-0.9741678572914649
 20
1.450841927329652
 10
-0.9626924750823873
 20
1.458416760845001
 10
-0.9512170928529137
 20
1.465991594309333
 10
-0.9556216541823472
 20
1.484439197239805
 42
-0.3202231353338202
 10
-0.9503802722118994
 20
1.497357535172945
 42
-0.0022745356542214
 10
-0.9367179772256488
 20
1.505942124101149
 42
-0.3202231353338201
 10
-0.9228048064076361
 20
1.505059389287616
 10
-0.9080951581465184
 20
1.493086901700068
 10
-0.8962914872631408
 20
1.500139266786089
 10
-0.8844878163616762
 20
1.507191631820224
 10
-0.8880602940150865
 20
1.525818269138892
 42
-0.3202231353338203
 10
-0.8822446107277412
 20
1.538488445452426
 42
-0.0022745356542214
 10
-0.868210926637537
 20
1.546451433724052
 42
-0.3202231353338201
 10
-0.8543513692043955
 20
1.544945375717354
 10
-0.8401936762047583
 20
1.532324997754387
 10
-0.8280854876693794
 20
1.538840691886345
 10
-0.815977299118251
 20
1.545356385965658
 10
-0.8187104986010771
 20
1.564124546103834
 42
-0.3202231353338202
 10
-0.8123322260089988
 20
1.576521044748859
 42
-0.0022745356542214
 10
-0.7979554147869683
 20
1.58384639596526
 42
-0.32022313533382
 10
-0.7841773820428976
 20
1.581720047765785
 10
-0.7706001560143108
 20
1.568477195189071
 10
-0.7582118341072388
 20
1.574443096626109
 10
-0.7458235121868167
 20
1.580408998009855
 10
-0.7477119291990418
 20
1.599280884390732
 42
-0.3202231353338202
 10
-0.7407839122943967
 20
1.61137874046873
 42
-0.0022745356542214
 10
-0.7260929269250296
 20
1.61805170234744
 42
-0.3202231353338199
 10
-0.7124241659943578
 20
1.615309346137487
 10
-0.6994547496631496
 20
1.601470688289711
 10
-0.6868112428160447
 20
1.606874782500299
 10
-0.6741677359579759
 20
1.612278876657033
 10
-0.6752075674790597
 20
1.631216483812981
 42
-0.3202231353338203
 10
-0.6677437583658939
 20
1.642991333851814
 42
-0.0022745356542214
 10
-0.6527681845386147
 20
1.648998467935663
 42
-0.3202231353338198
 10
-0.6392362224867849
 20
1.645645626455674
 10
-0.6269007345314317
 20
1.631239032552069
 10
-0.6140275050844508
 20
1.636070436409646
 10
-0.6011542756289428
 20
1.640901840212944
 10
-0.6013434275765768
 20
1.659867030323401
 42
-0.3202231353338202
 10
-0.5933588573731428
 20
1.67129516134213
 42
-0.0022745356542214
  0
CIRCLE
  5
670
330
1B
100
AcDbEntity
  8
holes
100
AcDbCircle
 10
0.5
 20
0.0
 30
0.0
 40
0.06
  0
CIRCLE
  5
671
330
1B
100
AcDbEntity
  8
holes
100
AcDbCircle
 10
1.0
 20
0.0
 30
0.0
 40
0.06
  0
CIRCLE
  5
673
330
1B
100
AcDbEntity
  8
holes
100
AcDbCircle
 10
0.0000000000000024
 20
1.0
 30
0.0
 40
0.06
  0
CIRCLE
  5
674
330
1B
100
AcDbEntity
  8
holes
100
AcDbCircle
 10
0.0000000000000024
 20
0.5
 30
0.0
 40
0.06
  0
CIRCLE
  5
675
330
1B
100
AcDbEntity
  8
holes
100
AcDbCircle
 10
-1.0
 20
-0.0000000000000027
 30
0.0
 40
0.06
  0
CIRCLE
  5
676
330
1B
100
AcDbEntity
  8
holes
100
AcDbCircle
 10
-0.5000000000000018
 20
-0.0000000000000027
 30
0.0
 40
0.06
  0
CIRCLE
  5
677
330
1B
100
AcDbEntity
  8
holes
100
AcDbCircle
 10
0.0000000000000024
 20
-1.000000000000002
 30
0.0
 40
0.06
  0
CIRCLE
  5
678
330
1B
100
AcDbEntity
  8
holes
100
AcDbCircle
 10
0.0000000000000024
 20
-0.5000000000000027
 30
0.0
 40
0.06
  0
ENDSEC
  0
SECTION
  2
OBJECTS
  0
DICTIONARY
  5
283
330
0
100
AcDbDictionary
281
     1
  3
ACAD_GROUP
350
284
  3
ACAD_MLINESTYLE
350
285
  3
ACAD_PLOTSTYLENAME
350
28A
  3
ACAD_LAYOUT
350
28C
  3
ACAD_PLOTSETTINGS
350
28D
  0
DICTIONARY
  5
284
102
{ACAD_REACTORS
330
283
102
}
330
283
100
AcDbDictionary
281
     1
  0
DICTIONARY
  5
285
102
{ACAD_REACTORS
330
283
102
}
330
283
100
AcDbDictionary
281
     1
  3
STANDARD
350
286
  0
ACDBDICTIONARYWDFLT
  5
28A
102
{ACAD_REACTORS
330
283
102
}
330
283
100
AcDbDictionary
281
     1
  3
Normal
350
28B
100
AcDbDictionaryWithDefault
340
28B
  0
DICTIONARY
  5
28C
102
{ACAD_REACTORS
330
283
102
}
330
283
100
AcDbDictionary
281
     1
  3
Model
350
28E
  3
Layout1
350
28F
  0
DICTIONARY
  5
28D
102
{ACAD_REACTORS
330
283
102
}
330
283
100
AcDbDictionary
281
     1
  0
MLINESTYLE
  5
286
102
{ACAD_REACTORS
330
285
102
}
330
285
100
AcDbMlineStyle
  2
STANDARD
 70
     0
  3

 62
   256
 51
90.0
 52
90.0
 71
     2
 49
0.5
 62
   256
  6
BYLAYER
 49
-0.5
 62
   256
  6
BYLAYER
  0
ACDBPLACEHOLDER
  5
28B
102
{ACAD_REACTORS
330
28A
102
}
330
28A
  0
LAYOUT
  5
28E
102
{ACAD_REACTORS
330
28C
102
}
330
28C
100
AcDbPlotSettings
  1

  2

  4

  6

 40
0.0
 41
0.0
 42
0.0
 43
0.0
 44
0.0
 45
0.0
 46
0.0
 47
0.0
 48
0.0
 49
0.0
140
0.0
141
0.0
142
1.0
143
1.0
 70
  1712
 72
     0
 73
     0
 74
     0
  7

 75
     0
147
1.0
148
0.0
149
0.0
100
AcDbLayout
  1
Model
 70
     1
 71
     0
 10
0.0
 20
0.0
 11
12.0
 21
9.0
 12
0.0
 22
0.0
 32
0.0
 14
0.0
 24
0.0
 34
0.0
 15
0.0
 25
0.0
 35
0.0
146
0.0
 13
0.0
 23
0.0
 33
0.0
 16
1.0
 26
0.0
 36
0.0
 17
0.0
 27
1.0
 37
0.0
 76
     0
330
1B
  0
LAYOUT
  5
28F
102
{ACAD_REACTORS
330
28C
102
}
330
28C
100
AcDbPlotSettings
  1

  2

  4

  6

 40
0.0
 41
0.0
 42
0.0
 43
0.0
 44
0.0
 45
0.0
 46
0.0
 47
0.0
 48
0.0
 49
0.0
140
0.0
141
0.0
142
1.0
143
1.0
 70
   688
 72
     0
 73
     0
 74
     5
  7

 75
    16
147
1.0
148
0.0
149
0.0
100
AcDbLayout
  1
Layout1
 70
     1
 71
     1
 10
0.0
 20
0.0
 11
12.0
 21
9.0
 12
0.0
 22
0.0
 32
0.0
 14
1.000000000000000E+20
 24
1.000000000000000E+20
 34
1.000000000000000E+20
 15
-1.000000000000000E+20
 25
-1.000000000000000E+20
 35
-1.000000000000000E+20
146
0.0
 13
0.0
 23
0.0
 33
0.0
 16
1.0
 26
0.0
 36
0.0
 17
0.0
 27
1.0
 37
0.0
 76
     0
330
1C
  0
ENDSEC
  0
EOF
