  0
SECTION
  2
HEADER
  9
$ACADVER
  1
AC1015
  9
$ACADMAINTVER
 70
     6
  9
$DWGCODEPAGE
  3
ANSI_1252
  9
$INSBASE
 10
0.0
 20
0.0
 30
0.0
  9
$EXTMIN
 10
-0.1415326093448641
 20
-0.0873434590989177
 30
-0.0015258207003583
  9
$EXTMAX
 10
17.47485358719116
 20
17.37094122191301
 30
0.0000000349246037
  9
$LIMMIN
 10
0.0
 20
0.0
  9
$LIMMAX
 10
2.0
 20
2.0
  9
$ORTHOMODE
 70
     0
  9
$REGENMODE
 70
     1
  9
$FILLMODE
 70
     1
  9
$QTEXTMODE
 70
     0
  9
$MIRRTEXT
 70
     1
  9
$LTSCALE
 40
2.419999999999999
  9
$ATTMODE
 70
     1
  9
$TEXTSIZE
 40
0.08
  9
$TRACEWID
 40
0.05
  9
$TEXTSTYLE
  7
STANDARD
  9
$CLAYER
  8
outline
  9
$CELTYPE
  6
BYLAYER
  9
$CECOLOR
 62
   256
  9
$CELTSCALE
 40
1.0
  9
$DISPSILH
 70
     0
  9
$DIMSCALE
 40
1.0
  9
$DIMASZ
 40
0.1875
  9
$DIMEXO
 40
0.275
  9
$DIMDLI
 40
1.671999999999999
  9
$DIMRND
 40
0.0
  9
$DIMDLE
 40
0.0
  9
$DIMEXE
 40
0.792
  9
$DIMTP
 40
0.0
  9
$DIMTM
 40
0.0
  9
$DIMTXT
 40
0.7
  9
$DIMCEN
 40
0.396
  9
$DIMTSZ
 40
0.0
  9
$DIMTOL
 70
     0
  9
$DIMLIM
 70
     0
  9
$DIMTIH
 70
     1
  9
$DIMTOH
 70
     1
  9
$DIMSE1
 70
     0
  9
$DIMSE2
 70
     0
  9
$DIMTAD
 70
     0
  9
$DIMZIN
 70
     0
  9
$DIMBLK
  1

  9
$DIMASO
 70
     1
  9
$DIMSHO
 70
     1
  9
$DIMPOST
  1

  9
$DIMAPOST
  1

  9
$DIMALT
 70
     0
  9
$DIMALTD
 70
     2
  9
$DIMALTF
 40
25.4
  9
$DIMLFAC
 40
1.0
  9
$DIMTOFL
 70
     0
  9
$DIMTVP
 40
0.0
  9
$DIMTIX
 70
     0
  9
$DIMSOXD
 70
     0
  9
$DIMSAH
 70
     0
  9
$DIMBLK1
  1

  9
$DIMBLK2
  1

  9
$DIMSTYLE
  2
STANDARD
  9
$DIMCLRD
 70
     0
  9
$DIMCLRE
 70
     0
  9
$DIMCLRT
 70
     0
  9
$DIMTFAC
 40
1.0
  9
$DIMGAP
 40
0.09
  9
$DIMJUST
 70
     0
  9
$DIMSD1
 70
     0
  9
$DIMSD2
 70
     0
  9
$DIMTOLJ
 70
     1
  9
$DIMTZIN
 70
     0
  9
$DIMALTZ
 70
     0
  9
$DIMALTTZ
 70
     0
  9
$DIMUPT
 70
     0
  9
$DIMDEC
 70
     4
  9
$DIMTDEC
 70
     4
  9
$DIMALTU
 70
     2
  9
$DIMALTTD
 70
     2
  9
$DIMTXSTY
  7
STANDARD
  9
$DIMAUNIT
 70
     0
  9
$DIMADEC
 70
     0
  9
$DIMALTRND
 40
0.0
  9
$DIMAZIN
 70
     0
  9
$DIMDSEP
 70
    46
  9
$DIMATFIT
 70
     3
  9
$DIMFRAC
 70
     0
  9
$DIMLDRBLK
  1

  9
$DIMLUNIT
 70
     2
  9
$DIMLWD
 70
    -2
  9
$DIMLWE
 70
    -2
  9
$DIMTMOVE
 70
     0
  9
$LUNITS
 70
     2
  9
$LUPREC
 70
     4
  9
$SKETCHINC
 40
0.1
  9
$FILLETRAD
 40
0.0
  9
$AUNITS
 70
     0
  9
$AUPREC
 70
     0
  9
$MENU
  1
.
  9
$ELEVATION
 40
0.0
  9
$PELEVATION
 40
0.0
  9
$THICKNESS
 40
0.0
  9
$LIMCHECK
 70
     0
  9
$CHAMFERA
 40
0.0
  9
$CHAMFERB
 40
0.0
  9
$CHAMFERC
 40
0.0
  9
$CHAMFERD
 40
0.0
  9
$SKPOLY
 70
     0
  9
$TDCREATE
 40
2456737.679682129
  9
$TDUCREATE
 40
2456737.888015463
  9
$TDUPDATE
 40
2456737.688650579
  9
$TDUUPDATE
 40
2456737.896983912
  9
$TDINDWG
 40
0.0089684838
  9
$TDUSRTIMER
 40
0.0089684838
  9
$USRTIMER
 70
     1
  9
$ANGBASE
 50
0.0
  9
$ANGDIR
 70
     0
  9
$PDMODE
 70
     0
  9
$PDSIZE
 40
0.0
  9
$PLINEWID
 40
0.0
  9
$SPLFRAME
 70
     0
  9
$SPLINETYPE
 70
     6
  9
$SPLINESEGS
 70
     8
  9
$HANDSEED
  5
3B8
  9
$SURFTAB1
 70
     6
  9
$SURFTAB2
 70
     6
  9
$SURFTYPE
 70
     6
  9
$SURFU
 70
     6
  9
$SURFV
 70
     6
  9
$UCSBASE
  2

  9
$UCSNAME
  2

  9
$UCSORG
 10
0.0
 20
0.0
 30
0.0
  9
$UCSXDIR
 10
1.0
 20
0.0
 30
0.0
  9
$UCSYDIR
 10
0.0
 20
1.0
 30
0.0
  9
$UCSORTHOREF
  2

  9
$UCSORTHOVIEW
 70
     0
  9
$UCSORGTOP
 10
0.0
 20
0.0
 30
0.0
  9
$UCSORGBOTTOM
 10
0.0
 20
0.0
 30
0.0
  9
$UCSORGLEFT
 10
0.0
 20
0.0
 30
0.0
  9
$UCSORGRIGHT
 10
0.0
 20
0.0
 30
0.0
  9
$UCSORGFRONT
 10
0.0
 20
0.0
 30
0.0
  9
$UCSORGBACK
 10
0.0
 20
0.0
 30
0.0
  9
$PUCSBASE
  2

  9
$PUCSNAME
  2

  9
$PUCSORG
 10
0.0
 20
0.0
 30
0.0
  9
$PUCSXDIR
 10
1.0
 20
0.0
 30
0.0
  9
$PUCSYDIR
 10
0.0
 20
1.0
 30
0.0
  9
$PUCSORTHOREF
  2

  9
$PUCSORTHOVIEW
 70
     0
  9
$PUCSORGTOP
 10
0.0
 20
0.0
 30
0.0
  9
$PUCSORGBOTTOM
 10
0.0
 20
0.0
 30
0.0
  9
$PUCSORGLEFT
 10
0.0
 20
0.0
 30
0.0
  9
$PUCSORGRIGHT
 10
0.0
 20
0.0
 30
0.0
  9
$PUCSORGFRONT
 10
0.0
 20
0.0
 30
0.0
  9
$PUCSORGBACK
 10
0.0
 20
0.0
 30
0.0
  9
$USERI1
 70
     0
  9
$USERI2
 70
     0
  9
$USERI3
 70
     0
  9
$USERI4
 70
     0
  9
$USERI5
 70
     0
  9
$USERR1
 40
0.0
  9
$USERR2
 40
0.0
  9
$USERR3
 40
0.0
  9
$USERR4
 40
0.0
  9
$USERR5
 40
0.0
  9
$WORLDVIEW
 70
     1
  9
$SHADEDGE
 70
     3
  9
$SHADEDIF
 70
    70
  9
$TILEMODE
 70
     1
  9
$MAXACTVP
 70
    64
  9
$PINSBASE
 10
0.0
 20
0.0
 30
0.0
  9
$PLIMCHECK
 70
     0
  9
$PEXTMIN
 10
1.000000000000000E+20
 20
1.000000000000000E+20
 30
1.000000000000000E+20
  9
$PEXTMAX
 10
-1.000000000000000E+20
 20
-1.000000000000000E+20
 30
-1.000000000000000E+20
  9
$PLIMMIN
 10
0.0
 20
0.0
  9
$PLIMMAX
 10
12.0
 20
9.0
  9
$UNITMODE
 70
     0
  9
$VISRETAIN
 70
     1
  9
$PLINEGEN
 70
     0
  9
$PSLTSCALE
 70
     1
  9
$TREEDEPTH
 70
  3020
  9
$CMLSTYLE
  2
STANDARD
  9
$CMLJUST
 70
     0
  9
$CMLSCALE
 40
1.0
  9
$PROXYGRAPHICS
 70
     1
  9
$MEASUREMENT
 70
     0
  9
$CELWEIGHT
370
    -1
  9
$ENDCAPS
280
     0
  9
$JOINSTYLE
280
     0
  9
$LWDISPLAY
290
     0
  9
$INSUNITS
 70
     0
  9
$HYPERLINKBASE
  1

  9
$STYLESHEET
  1

  9
$XEDIT
290
     1
  9
$CEPSNTYPE
380
     0
  9
$PSTYLEMODE
290
     1
  9
$FINGERPRINTGUID
  2
{B32C0B05-B539-4B11-B69F-DF449E655BE2}
  9
$VERSIONGUID
  2
{D91572FE-92DB-4BA0-AD76-D17588ECC39F}
  9
$EXTNAMES
290
     1
  9
$PSVPSCALE
 40
0.0
  9
$OLESTARTUP
290
     0
  0
ENDSEC
  0
SECTION
  2
CLASSES
  0
CLASS
  1
ACDBDICTIONARYWDFLT
  2
AcDbDictionaryWithDefault
  3
AutoCAD 2000
 90
        0
280
     0
281
     0
  0
CLASS
  1
ACDBPLACEHOLDER
  2
AcDbPlaceHolder
  3
AutoCAD 2000
 90
        0
280
     0
281
     0
  0
CLASS
  1
LAYOUT
  2
AcDbLayout
  3
AutoCAD 2000
 90
        0
280
     0
281
     0
  0
ENDSEC
  0
SECTION
  2
TABLES
  0
TABLE
  2
VPORT
  5
8
330
0
100
AcDbSymbolTable
 70
     2
  0
VPORT
  5
3B7
330
8
100
AcDbSymbolTableRecord
100
AcDbViewportTableRecord
  2
*Active
 70
     0
 10
0.0
 20
0.0
 11
1.0
 21
1.0
 12
2.316536845220141
 22
0.6621727432703377
 13
0.0
 23
0.0
 14
1.0
 24
1.0
 15
0.1
 25
0.1
 16
0.0
 26
0.0
 36
1.0
 17
0.0
 27
0.0
 37
0.0
 40
2.656043230235621
 41
2.306666666666666
 42
50.0
 43
0.0
 44
0.0
 50
0.0
 51
0.0
 71
     0
 72
   500
 73
     1
 74
     0
 75
     0
 76
     1
 77
     0
 78
     0
281
     0
 65
     1
110
0.0
120
0.0
130
0.0
111
1.0
121
0.0
131
0.0
112
0.0
122
1.0
132
0.0
 79
     0
146
0.0
  0
ENDTAB
  0
TABLE
  2
LTYPE
  5
5
330
0
100
AcDbSymbolTable
 70
     6
  0
LTYPE
  5
14
330
5
100
AcDbSymbolTableRecord
100
AcDbLinetypeTableRecord
  2
BYBLOCK
 70
     0
  3

 72
    65
 73
     0
 40
0.0
  0
LTYPE
  5
15
330
5
100
AcDbSymbolTableRecord
100
AcDbLinetypeTableRecord
  2
BYLAYER
 70
     0
  3

 72
    65
 73
     0
 40
0.0
  0
LTYPE
  5
16
330
5
100
AcDbSymbolTableRecord
100
AcDbLinetypeTableRecord
  2
CONTINUOUS
 70
     0
  3
Solid line
 72
    65
 73
     0
 40
0.0
  0
LTYPE
  5
1F5
330
5
100
AcDbSymbolTableRecord
100
AcDbLinetypeTableRecord
  2
CENTER
 70
     0
  3
____ _ ____ _ ____ _ ____ _ ____ _ ____ _ ____
 72
    65
 73
     4
 40
0.6
 49
0.375
 74
     0
 49
-0.075
 74
     0
 49
0.075
 74
     0
 49
-0.075
 74
     0
  0
LTYPE
  5
1F6
330
5
100
AcDbSymbolTableRecord
100
AcDbLinetypeTableRecord
  2
HIDDEN
 70
     0
  3
- - - - - - - - - - - - - - - - - - - -
 72
    65
 73
     2
 40
0.2
 49
0.1
 74
     0
 49
-0.1
 74
     0
  0
LTYPE
  5
1F7
330
5
100
AcDbSymbolTableRecord
100
AcDbLinetypeTableRecord
  2
PHANTOM
 70
     0
  3
_____ _ _ _____ _ _ _____ _ _ _____
 72
    65
 73
     6
 40
0.8
 49
0.45
 74
     0
 49
-0.05
 74
     0
 49
0.1
 74
     0
 49
-0.05
 74
     0
 49
0.1
 74
     0
 49
-0.05
 74
     0
  0
ENDTAB
  0
TABLE
  2
LAYER
  5
2
330
0
100
AcDbSymbolTable
 70
    18
  0
LAYER
  5
10
330
2
100
AcDbSymbolTableRecord
100
AcDbLayerTableRecord
  2
0
 70
     0
 62
     7
  6
CONTINUOUS
370
    -3
390
28E
  0
LAYER
  5
3A8
330
2
100
AcDbSymbolTableRecord
100
AcDbLayerTableRecord
  2
outline
 70
     0
 62
     3
  6
CONTINUOUS
370
    -3
390
28E
  0
LAYER
  5
3A9
330
2
100
AcDbSymbolTableRecord
100
AcDbLayerTableRecord
  2
holes
 70
     0
 62
     1
  6
CONTINUOUS
370
    -3
390
28E
  0
LAYER
  5
3AA
330
2
100
AcDbSymbolTableRecord
100
AcDbLayerTableRecord
  2
etch
 70
     0
 62
     4
  6
CONTINUOUS
370
    -3
390
28E
  0
ENDTAB
  0
TABLE
  2
STYLE
  5
3
330
0
100
AcDbSymbolTable
 70
     1
  0
STYLE
  5
11
330
3
100
AcDbSymbolTableRecord
100
AcDbTextStyleTableRecord
  2
STANDARD
 70
     0
 40
0.0
 41
0.8
 50
0.0
 71
     0
 42
0.08
  3
txt
  4

  0
ENDTAB
  0
TABLE
  2
VIEW
  5
6
330
0
100
AcDbSymbolTable
 70
     0
  0
ENDTAB
  0
TABLE
  2
UCS
  5
7
330
0
100
AcDbSymbolTable
 70
     0
  0
ENDTAB
  0
TABLE
  2
APPID
  5
9
330
0
100
AcDbSymbolTable
 70
     1
  0
APPID
  5
208
330
9
100
AcDbSymbolTableRecord
100
AcDbRegAppTableRecord
  2
ACAD
 70
     0
  0
ENDTAB
  0
TABLE
  2
DIMSTYLE
  5
A
330
0
100
AcDbSymbolTable
 70
     1
100
AcDbDimStyleTable
 71
     0
  0
DIMSTYLE
105
209
330
A
100
AcDbSymbolTableRecord
100
AcDbDimStyleTableRecord
  2
STANDARD
 70
     0
 41
0.1875
 47
0.01
 48
0.01
 78
     4
140
0.7
271
     2
272
     2
284
     4
340
11
  0
ENDTAB
  0
TABLE
  2
BLOCK_RECORD
  5
1
330
0
100
AcDbSymbolTable
 70
     0
  0
BLOCK_RECORD
  5
1B
330
1
100
AcDbSymbolTableRecord
100
AcDbBlockTableRecord
  2
*MODEL_SPACE
340
291
  0
BLOCK_RECORD
  5
1C
330
1
100
AcDbSymbolTableRecord
100
AcDbBlockTableRecord
  2
*PAPER_SPACE
340
292
  0
ENDTAB
  0
ENDSEC
  0
SECTION
  2
BLOCKS
  0
BLOCK
  5
1E
330
1B
100
AcDbEntity
  8
0
100
AcDbBlockBegin
  2
*MODEL_SPACE
 70
     0
 10
0.0
 20
0.0
 30
0.0
  3
*MODEL_SPACE
  1

  0
ENDBLK
  5
1F
330
1B
100
AcDbEntity
  8
0
100
AcDbBlockEnd
  0
BLOCK
  5
20
330
1C
100
AcDbEntity
 67
     1
  8
0
100
AcDbBlockBegin
  2
*PAPER_SPACE
 70
     0
 10
0.0
 20
0.0
 30
0.0
  3
*PAPER_SPACE
  1

  0
ENDBLK
  5
21
330
1C
100
AcDbEntity
 67
     1
  8
0
100
AcDbBlockEnd
  0
ENDSEC
  0
SECTION
  2
ENTITIES
  0
TEXT
  5
294
330
1B
100
AcDbEntity
  8
0
100
AcDbText
 10
1.100238672018349
 20
0.3463450822479501
 30
0.0
 40
0.1
  1
MXL80 - 40 Teeth
 41
0.8
100
AcDbText
  0
LWPOLYLINE
  5
3AB
330
1B
100
AcDbEntity
  8
0
  6
Continuous
100
AcDbPolyline
 90
      280
 70
     1
 43
0.0
 10
0.7046762268930263
 20
0.9658020012781385
 42
-0.3330031781713637
 10
0.7118347894037385
 20
0.9533205592343989
 10
0.7096167468101485
 20
0.9352560514723329
 10
0.7218680865194429
 20
0.9290136820604892
 10
0.7341194262116808
 20
0.9227713126723848
 10
0.747430187214853
 20
0.9351837982061788
 42
-0.3330031781713638
 10
0.7617355834113848
 20
0.9367288069838188
 42
-0.0072285016112298
 10
0.7740615609585504
 20
0.9291754382474479
 42
-0.3330031781713637
 10
0.7791794619767601
 20
0.915727817570211
 10
0.774162815560155
 20
0.8982326921815939
 10
0.7852867992281638
 20
0.8901506449223752
 10
0.7964107828830454
 20
0.8820685976892761
 10
0.8114994068646286
 20
0.8922460031520031
 42
-0.3330031781713638
 10
0.8258703725171514
 20
0.8915341333065995
 42
-0.0072285016112298
 10
0.836862989629397
 20
0.8821455513697884
 42
-0.3330031781713637
 10
0.8398142094466933
 20
0.8680628771102156
 10
0.8321224856911424
 20
0.8515679221451044
 10
0.8418452039215829
 20
0.8418452038648176
 10
0.8515679221431362
 20
0.8321224856123805
 10
0.8680628771044283
 20
0.8398142095046736
 42
-0.3330031781713638
 10
0.8821455513440774
 20
0.8368629896343797
 42
-0.0072285016112298
 10
0.8915341333057007
 20
0.8258703725433242
 42
-0.3330031781713637
 10
0.8922460030956429
 20
0.8114994068794096
 10
0.882068597767379
 20
0.7964107828726661
 10
0.8901506449695624
 20
0.7852867991632238
 10
0.8982326921673298
 20
0.7741628154826721
 10
0.9157278175735683
 20
0.7791794620349322
 42
-0.3330031781713638
 10
0.9291754382228383
 20
0.7740615609674962
 42
-0.0072285016112298
 10
0.9367288069870234
 20
0.7617355834373818
 42
-0.3330031781713637
 10
0.9351837981528312
 20
0.7474301872382725
 10
0.9227713127479049
 20
0.7341194261892135
 10
0.929013682096933
 20
0.7218680864479126
 10
0.9352560514461245
 20
0.7096167467358506
 10
0.9533205592468156
 20
0.7118347894606672
 42
-0.3330031781713638
 10
0.9658020012552306
 20
0.7046762269057112
 42
-0.0072285016112298
 10
0.9713341678148097
 20
0.691320395410898
 42
-0.3330031781713637
 10
0.9675703236015635
 20
0.6774328150079079
 10
0.9532283947053201
 20
0.6662276720294429
 10
0.957477378350596
 20
0.6531506449005953
 10
0.9617263620005971
 20
0.6400736178005957
 10
0.9799154440610244
 20
0.6394384411248275
 42
-0.3330031781713638
 10
0.991123372902809
 20
0.6304154846503565
 42
-0.0072285016112298
 10
0.9944981169568798
 20
0.6163586640877164
 42
-0.3330031781713637
 10
0.9886081157005932
 20
0.6032308578005967
 10
0.9726898892005948
 20
0.5944072407005941
 10
0.9748408630631892
 20
0.5808265259922721
 10
0.976991836934971
 20
0.5672458113117039
 10
0.9948576176887016
 20
0.5637730553931313
 42
-0.3330031781713638
 10
1.004516056958788
 20
0.5531078801330267
 42
-0.0072285016112298
 10
1.005650281108604
 20
0.5386961960767245
 42
-0.3330031781713635
 10
0.9977791541879987
 20
0.5266514140649577
 10
0.9806765896502405
 20
0.5204265895803247
 10
0.980676589614994
 20
0.5066765895604562
 10
0.980676589593159
 20
0.4929265895665651
 10
0.9977791542249079
 20
0.4867017651813193
 42
-0.3330031781713637
 10
1.005650281093945
 20
0.4746569831461685
 42
-0.0072285016112299
 10
1.004516056976662
 20
0.4602452990873083
 42
-0.3330031781713635
 10
0.9948576176593029
 20
0.449580123858361
 10
0.9769918369828616
 20
0.4461073678269259
 10
0.9748408630506339
 20
0.4325266531296279
 10
0.9726898891357151
 20
0.4189459384558916
 10
0.9886081157440962
 20
0.4101223214393528
 42
-0.3330031781713637
 10
0.9944981169457989
 20
0.3969945151372052
 42
-0.0072285016112297
 10
0.9911233729234574
 20
0.382937694566948
 42
-0.3330031781713637
 10
0.9799154440398538
 20
0.3739147381306509
 10
0.9617263620381066
 20
0.3732795613313087
 10
0.9574773783257874
 20
0.3602025342242427
 10
0.9532283946342516
 20
0.3471255071377399
 10
0.9675703236505945
 20
0.3359203642247586
 42
-0.3330031781713637
 10
0.9713341678075764
 20
0.3220327838154624
 42
-0.0072285016112299
 10
0.965802001278142
 20
0.3086769523081649
 42
-0.3330031781713635
 10
0.9533205592343989
 20
0.3015183897974509
 10
0.9352560514723364
 20
0.303736432391041
 10
0.9290136820604892
 20
0.2914850926817465
 10
0.9227713126723848
 20
0.2792337529895121
 10
0.9351837982061788
 20
0.2659229919863399
 42
-0.3330031781713637
 10
0.9367288069838153
 20
0.2516175957898064
 42
-0.0072285016112297
 10
0.9291754382474479
 20
0.239291618242639
 42
-0.3330031781713637
 10
0.915727817570211
 20
0.2341737172244294
 10
0.8982326921815939
 20
0.2391903636410362
 10
0.8901506449223752
 20
0.2280663799730256
 10
0.8820685976892796
 20
0.2169423963181458
 10
0.8922460031520067
 20
0.201853772336559
 42
-0.3330031781713637
 10
0.8915341333065995
 20
0.1874828066840415
 42
-0.0072285016112299
 10
0.8821455513697884
 20
0.1764901895717941
 42
-0.3330031781713635
 10
0.8680628771102156
 20
0.173538969754496
 10
0.8515679221451044
 20
0.1812306935100452
 10
0.8418452038648176
 20
0.1715079752796065
 10
0.832122485612377
 20
0.1617852570580496
 10
0.8398142095046736
 20
0.1452903020967575
 42
-0.3330031781713637
 10
0.8368629896343815
 20
0.1312076278571084
 42
-0.0072285016112297
 10
0.8258703725433225
 20
0.1218190458954851
 42
-0.3330031781713637
 10
0.8114994068794096
 20
0.1211071761055429
 10
0.7964107828726661
 20
0.1312845814338104
 10
0.7852867991632167
 20
0.1232025342316234
 10
0.774162815482665
 20
0.115120487033856
 10
0.7791794620349269
 20
0.0976253616276211
 42
-0.3330031781713637
 10
0.7740615609674944
 20
0.0841777409783511
 42
-0.0072285016112299
 10
0.7617355834373747
 20
0.076624372214166
 42
-0.3330031781713635
 10
0.747430187238269
 20
0.0781693810483581
 10
0.7341194261892064
 20
0.0905818664532845
 10
0.7218680864479126
 20
0.0843394971042564
 10
0.7096167467358506
 20
0.0780971277550648
 10
0.711834789460669
 20
0.0600326199543737
 42
-0.3330031781713637
 10
0.7046762269057112
 20
0.0475511779459552
 42
-0.0072285016112297
 10
0.6913203954109033
 20
0.0420190113863797
 42
-0.3330031781713637
 10
0.6774328150079079
 20
0.0457828555996258
 10
0.6662276720294429
 20
0.0601247844958692
 10
0.6531506449005953
 20
0.0558758008505898
 10
0.6400736178005957
 20
0.0516268172005887
 10
0.6394384411248275
 20
0.0334377351401614
 42
-0.3330031781713637
 10
0.6304154846503565
 20
0.0222298062983768
 42
-0.0072285016112299
 10
0.6163586640877181
 20
0.018855062244306
 42
-0.3330031781713635
 10
0.6032308578005967
 20
0.0247450635005926
 10
0.5944072407005941
 20
0.040663290000591
 10
0.5808265259922721
 20
0.0385123161380001
 10
0.5672458113117039
 20
0.0363613422662184
 10
0.5637730553931313
 20
0.0184955615124807
 42
-0.3330031781713637
 10
0.5531078801330267
 20
0.0088371222423937
 42
-0.0072285016112297
 10
0.5386961960767245
 20
0.0077028980925817
 42
-0.3330031781713639
 10
0.5266514140649594
 20
0.0155740250131906
 10
0.5204265895803247
 20
0.0326765895509489
 10
0.5066765895706454
 20
0.0326765895973367
 10
0.4929265895665616
 20
0.0326765896080303
 10
0.4867017651460479
 20
0.0155740249461331
 42
-0.333003178171364
 10
0.4746569831769829
 20
0.007702898100348
 42
-0.0072285016112297
 10
0.4602452990681627
 20
0.0088371222423973
 42
-0.3330031781713637
 10
0.4495801238587145
 20
0.0184955614966072
 10
0.4461073678269223
 20
0.0363613422183313
 10
0.4325266531414336
 20
0.0385123161599665
 10
0.4189459384558916
 20
0.0406632900654742
 10
0.4101223213997969
 20
0.0247450634328317
 42
-0.3330031781713637
 10
0.3969945151665577
 20
0.0188550622437624
 42
-0.0072285016112297
 10
0.3829376945508382
 20
0.0222298062983804
 42
-0.3330031781713637
 10
0.3739147381239132
 20
0.0334377351165536
 10
0.3732795613313087
 20
0.0516268171630827
 10
0.3602025342373789
 20
0.0558758008828484
 10
0.3471255071377417
 20
0.0601247845669413
 10
0.3359203641818933
 20
0.0457828555328206
 42
-0.333003178171364
 10
0.3220327838426318
 20
0.0420190113775334
 42
-0.0072285016112299
 10
0.3086769522954764
 20
0.0475511779459588
 42
-0.3330031781713635
 10
0.3015183897837872
 20
0.0600326199236179
 10
0.3037364323910392
 20
0.0780971277288565
 10
0.2914850926958827
 20
0.0843394971460043
 10
0.2792337529895104
 20
0.090581866528801
 10
0.2659229919412223
 20
0.0781693809841571
 42
-0.3330031781713637
 10
0.2516175958141282
 20
0.0766243721972444
 42
-0.0072285016112297
 10
0.2392916182336933
 20
0.0841777409783582
 42
-0.3330031781713637
 10
0.2341737172041824
 20
0.0976253615904774
 10
0.2391903636410362
 20
0.1151204870195954
 10
0.2280663799878155
 20
0.1232025342818339
 10
0.2169423963181458
 20
0.1312845815119132
 10
0.2018537722903062
 20
0.1211071760455304
 42
-0.333003178171364
 10
0.1874828067049172
 20
0.1218190458709039
 42
-0.0072285016112297
 10
0.1764901895668114
 20
0.1312076278571155
 42
-0.3330031781713637
 10
0.1735389697281668
 20
0.1452903020541427
 10
0.1812306935100469
 20
0.1617852570560849
 10
0.1715079752946895
 20
0.1715079753370468
 10
0.1617852570580496
 20
0.1812306935888124
 10
0.1452903020504976
 20
0.1735389697001466
 42
-0.3330031781713637
 10
0.1312076278740282
 20
0.1764901895401536
 42
-0.0072285016112297
 10
0.1218190458945934
 20
0.187482806684045
 42
-0.3330031781713637
 10
0.1211071760737727
 20
0.2018537722895175
 10
0.1312845814338104
 20
0.2169423963285268
 10
0.1232025342466283
 20
0.2280663800362817
 10
0.1151204870338578
 20
0.239190363718528
 10
0.097625361582498
 20
0.2341737171770823
 42
-0.333003178171364
 10
0.0841777409908851
 20
0.2392916182047209
 42
-0.0072285016112297
 10
0.0766243722173741
 20
0.2516175957898099
 42
-0.3330031781713637
 10
0.0781693810119357
 20
0.26592299193603
 10
0.0905818664532845
 20
0.279233753011983
 10
0.0843394971188048
 20
0.2914850927492623
 10
0.0780971277550631
 20
0.3037364324653424
 10
0.0600326199114996
 20
0.3015183897582645
 42
-0.3330031781713637
 10
0.0475511779538014
 20
0.3086769522648964
 42
-0.0072285016112297
 10
0.0420190113936094
 20
0.3220327838154624
 42
-0.3330031781713637
 10
0.0457828555594357
 20
0.3359203641724129
 10
0.0601247844958657
 20
0.3471255071717465
 10
0.0558758008643352
 20
0.360202534294352
 10
0.0516268172005887
 20
0.3732795614005973
 10
0.0334377351005912
 20
0.3739147381005985
 42
-0.333003178171364
 10
0.0222298063013415
 20
0.3829376945194021
 42
-0.0072285016112297
 10
0.0188550622553905
 20
0.3969945151372052
 42
-0.3330031781713636
 10
0.0247450634576367
 20
0.4101223213862717
 10
0.040663290000591
 20
0.418945938500599
 10
0.0385123161505909
 20
0.4325266532006005
 10
0.0363613422662219
 20
0.4461073678894821
 10
0.0184955614771987
 20
0.4495801238381781
 42
-0.3330031781713637
 10
0.0088371222404096
 20
0.4602452990366573
 42
-0.0072285016112297
 10
0.007702898107242
 20
0.474656983146172
 42
-0.3330031781713634
 10
0.0155740249685188
 20
0.4867017651288102
 10
0.0326765895509524
 20
0.4929265896208648
 10
0.0326765895973367
 20
0.5066765896305441
 10
0.0326765896080339
 20
0.5204265896346243
 10
0.0155740249461331
 20
0.5266514140551415
 42
-0.333003178171364
 10
0.0077028981003533
 20
0.5386961960242083
 42
-0.0072285016112297
 10
0.0088371222424009
 20
0.5531078801330267
 42
-0.3330031781713636
 10
0.0184955614966089
 20
0.5637730553424803
 10
0.0363613422183313
 20
0.5672458113742671
 10
0.0385123161599665
 20
0.5808265260597523
 10
0.0406632900654742
 20
0.5944072407452979
 10
0.0247450634328352
 20
0.6032308578013926
 42
-0.3330031781713637
 10
0.0188550622437642
 20
0.6163586640346317
 42
-0.0072285016112297
 10
0.0222298062983804
 20
0.6304154846503565
 42
-0.333003178171364
 10
0.0334377351165571
 20
0.6394384410772816
 10
0.0516268171630827
 20
0.6400736178698807
 10
0.0558758008828484
 20
0.6531506449638123
 10
0.0601247845669413
 20
0.6662276720634495
 10
0.0457828555328206
 20
0.6774328150192979
 42
-0.333003178171364
 10
0.0420190113775334
 20
0.6913203953585559
 42
-0.0072285016112297
 10
0.047551177945957
 20
0.7046762269057148
 42
-0.3330031781713637
 10
0.0600326199236179
 20
0.7118347894174022
 10
0.0780971277288565
 20
0.709616746810152
 10
0.0843394971460043
 20
0.7218680865053102
 10
0.0905818665288045
 20
0.7341194262116808
 10
0.0781693809841606
 20
0.7474301872599689
 42
-0.3330031781713639
 10
0.0766243721972373
 20
0.7617355833870612
 42
-0.0072285016112297
 10
0.0841777409783458
 20
0.7740615609674962
 42
-0.3330031781713636
 10
0.0976253615904721
 20
0.779179461997007
 10
0.1151204870195954
 20
0.7741628155601532
 10
0.1232025342818375
 20
0.7852867992133739
 10
0.1312845815119061
 20
0.7964107828830436
 10
0.1211071760455269
 20
0.8114994069108831
 42
-0.3330031781713639
 10
0.1218190458709021
 20
0.8258703724962792
 42
-0.0072285016112297
 10
0.1312076278571155
 20
0.8368629896343833
 42
-0.3330031781713639
 10
0.1452903020541374
 20
0.8398142094730296
 10
0.1617852570560814
 20
0.8321224856911442
 10
0.1715079753370432
 20
0.8418452039065016
 10
0.1812306935888124
 20
0.8515679221431398
 10
0.1735389697001466
 20
0.8680628771506917
 42
-0.3330031781713639
 10
0.1764901895401483
 20
0.8821455513271629
 42
-0.0072285016112297
 10
0.187482806684045
 20
0.8915341333065995
 42
-0.3330031781713636
 10
0.2018537722895175
 20
0.8922460031274148
 10
0.2169423963285268
 20
0.882068597767379
 10
0.2280663800362817
 20
0.8901506449545593
 10
0.2391903637185244
 20
0.8982326921673298
 10
0.2341737171770823
 20
0.9157278176186913
 42
-0.3330031781713637
 10
0.2392916182047191
 20
0.9291754382103043
 42
-0.0072285016112298
 10
0.2516175957898117
 20
0.9367288069838188
 42
-0.3330031781713638
 10
0.2659229919360246
 20
0.9351837981892572
 10
0.279233753011983
 20
0.9227713127479049
 10
0.2914850927492587
 20
0.9290136820823846
 10
0.3037364324653389
 20
0.9352560514461245
 10
0.3015183897582645
 20
0.9533205592896898
 42
-0.3330031781713637
 10
0.3086769522648929
 20
0.9658020012473897
 42
-0.0072285016112298
 10
0.3220327838154571
 20
0.9713341678075799
 42
-0.3330031781713636
 10
0.3359203641724147
 20
0.9675703236417518
 10
0.3471255071717465
 20
0.9532283947053237
 10
0.3602025342943484
 20
0.9574773783368542
 10
0.3732795614005937
 20
0.9617263620005971
 10
0.3739147381005949
 20
0.979915444100591
 42
-0.3330031781713638
 10
0.3829376945194003
 20
0.991123372899846
 42
-0.0072285016112298
 10
0.3969945151372034
 20
0.9944981169457989
 42
-0.3330031781713636
 10
0.41012232138627
 20
0.9886081157435491
 10
0.4189459385005954
 20
0.9726898892005948
 10
0.4325266532005969
 20
0.9748408630505949
 10
0.4461073678894874
 20
0.9769918369349746
 10
0.4495801238381834
 20
0.9948576177239978
 42
-0.3330031781713639
 10
0.4602452990366555
 20
1.004516056960781
 42
-0.0072285016112298
 10
0.4746569831461738
 20
1.005650281093949
 42
-0.3330031781713637
 10
0.4867017651288066
 20
0.9977791542326706
 10
0.4929265896208666
 20
0.980676589650244
 10
0.5066765896305494
 20
0.9806765896038562
 10
0.5204265896346243
 20
0.980676589593159
 10
0.5266514140551415
 20
0.9977791542550562
 42
-0.3330031781713638
 10
0.5386961960242083
 20
1.005650281100837
 42
-0.0072285016112298
 10
0.5531078801330267
 20
1.004516056958788
 42
-0.3330031781713636
 10
0.5637730553424767
 20
0.9948576177045822
 10
0.5672458113742654
 20
0.976991836982858
 10
0.5808265260597523
 20
0.9748408630412264
 10
0.5944072407452979
 20
0.9726898891357187
 10
0.6032308578013926
 20
0.9886081157683577
 42
-0.3330031781713638
 10
0.6163586640346353
 20
0.9944981169574269
 42
-0.0072285016112298
 10
0.6304154846503601
 20
0.991123372902809
 42
-0.3330031781713639
 10
0.6394384410772816
 20
0.9799154440846322
 10
0.6400736178698807
 20
0.9617263620381066
 10
0.6531506449638105
 20
0.957477378318341
 10
0.6662276720634459
 20
0.9532283946342481
 10
0.6774328150192943
 20
0.9675703236683688
 42
-0.3330031781713638
 10
0.6913203953585541
 20
0.971334167823656
 42
-0.0072285016112298
  0
CIRCLE
  5
3AD
330
1B
100
AcDbEntity
  8
holes
100
AcDbCircle
 10
0.5066765896005947
 20
0.5066765896005947
 30
0.0
 40
0.188
  0
CIRCLE
  5
3AE
330
1B
100
AcDbEntity
  8
holes
100
AcDbCircle
 10
0.5066765896005947
 20
0.8191765896005946
 30
0.0
 40
0.06
  0
CIRCLE
  5
3AF
330
1B
100
AcDbEntity
  8
holes
100
AcDbCircle
 10
0.1941765896005965
 20
0.5066765896005947
 30
0.0
 40
0.06
  0
CIRCLE
  5
3B0
330
1B
100
AcDbEntity
  8
holes
100
AcDbCircle
 10
0.506676589600593
 20
0.1941765896005982
 30
0.0
 40
0.06
  0
CIRCLE
  5
3B1
330
1B
100
AcDbEntity
  8
holes
100
AcDbCircle
 10
0.8191765896005964
 20
0.5066765896005912
 30
0.0
 40
0.06
  0
LWPOLYLINE
  5
3B2
330
1B
100
AcDbEntity
  8
outline
  6
Continuous
100
AcDbPolyline
 90
      280
 70
     1
 43
0.0
 10
0.7066562232264833
 20
0.9703932554117606
 42
-0.3330031790651413
 10
0.7167975201605313
 20
0.9527112125058749
 10
0.7150061467209916
 20
0.9381216462383541
 10
0.72413803902956
 20
0.9334687146756124
 10
0.7332699312784979
 20
0.9288157831544694
 10
0.7440201953555956
 20
0.9388405666593051
 42
-0.333003177405063
 10
0.7642861733159112
 20
0.9410293291775673
 42
-0.0072285015916881
 10
0.7767354106313853
 20
0.9334004267593911
 42
-0.33300317825366
 10
0.7839857704532296
 20
0.9143496307798884
 10
0.7799341407991421
 20
0.9002199188289239
 10
0.7882257254999967
 20
0.8941957298867144
 10
0.7965173101484631
 20
0.8881715409949286
 10
0.8087034422804535
 20
0.8963911909697053
 42
-0.3330031774011884
 10
0.8290623103160879
 20
0.8953827087687322
 42
-0.0072285015887643
 10
0.8401648535933361
 20
0.8859002410193319
 42
-0.3330031781096986
 10
0.8443457483770178
 20
0.8659497857910878
 10
0.8381336270769619
 20
0.8526278485584555
 10
0.845380737836578
 20
0.8453807377616868
 10
0.8526278485523359
 20
0.8381336270229091
 10
0.8659497857226732
 20
0.8443457484057894
 42
-0.3330031774046545
 10
0.8859002409357117
 20
0.8401648536640529
 42
-0.0072285015914955
 10
0.8953827087118604
 20
0.8290623104095971
 42
-0.3330031782471427
 10
0.8963911909518849
 20
0.8087034423523675
 10
0.888171541049278
 20
0.7965173101460508
 10
0.8941957299489686
 20
0.7882257254143177
 10
0.9002199188144217
 20
0.7799341407467147
 10
0.9143496307170018
 20
0.7839857704924072
 42
-0.3330031774013451
 10
0.9334004266880562
 20
0.7767354107143483
 42
-0.0072285015892747
 10
0.9410293291361639
 20
0.7642861734172329
 42
-0.3330031781244008
 10
0.9388405666530665
 20
0.7440201954295312
 10
0.9288157832077708
 20
0.7332699312676141
 10
0.9334687147236948
 20
0.7241380389351875
 10
0.9381216462158299
 20
0.7150061466714775
 10
0.9527112124497882
 20
0.7167975202090524
 42
-0.3330031774021345
 10
0.9703932553562459
 20
0.7066562233147771
 42
-0.0072285015891603
 10
0.9759807435790115
 20
0.6931668335138248
 42
-0.3330031781410412
 10
0.9706486309690944
 20
0.6734927612327688
 10
0.95906555741999
 20
0.6644430722971429
 10
0.9622326609360314
 20
0.6546957298602827
 10
0.9653997644393221
 20
0.6449483874949991
 10
0.9800899414639872
 20
0.644435395262736
 42
-0.3330031774015003
 10
0.9959678407261129
 20
0.6316528736389096
 42
-0.0072285015886155
 10
0.9993763322197537
 20
0.617455484879713
 42
-0.3330031781167179
 10
0.9910321637917576
 20
0.598857759259321
 10
0.9781760138515949
 20
0.5917314789257518
 10
0.9797793047681686
 20
0.5816086983048124
 10
0.9813825956833532
 20
0.5714859177565686
 10
0.9958116625864619
 20
0.5686811913257479
 42
-0.3330031774030926
 10
1.009494451628736
 20
0.553572193077347
 42
-0.0072285015903684
 10
1.010640018020424
 20
0.5390163921895735
 42
-0.3330031781850369
 10
0.9994892548937315
 20
0.5219529509570613
 10
0.9856765896412653
 20
0.5169255518981793
 10
0.985676589614993
 20
0.506676589547638
 10
0.985676589598718
 20
0.4964276272691173
 10
0.9994892548657965
 20
0.4914002283128163
 42
-0.3330031774028871
 10
1.01064001801139
 20
0.4743367871207198
 42
-0.0072285015902038
 10
1.009494451654724
 20
0.4597809862301788
 42
-0.3330031781792111
 10
0.9958116626248063
 20
0.4446719879389108
 10
0.9813825957200812
 20
0.4418672614044894
 10
0.9797793047516059
 20
0.4317444807917675
 10
0.9781760138042656
 20
0.4216217002486147
 10
0.9910321637748324
 20
0.4144954200141271
 42
-0.3330031774022995
 10
0.9993763322278539
 20
0.3958976944308325
 42
-0.0072285015898066
 10
0.9959678407684933
 20
0.3817003056633901
 42
-0.3330031781520595
 10
0.9800899415118173
 20
0.3689177839951512
 10
0.9653997644693177
 20
0.368404791660808
 10
0.9622326609033038
 20
0.3586574492401766
 10
0.9590655573690511
 20
0.3489101068849543
 10
0.970648630963705
 20
0.3398604180424165
 42
-0.3330031774007209
 10
0.9759807436041576
 20
0.3201863457941307
 42
-0.0072285015887008
 10
0.9703932554139917
 20
0.3066969559796462
 42
-0.3330031780983185
 10
0.9527112125059709
 20
0.2965556590406422
 10
0.9381216462383576
 20
0.2983470324801978
 10
0.9334687146756124
 20
0.2892151401716276
 10
0.9288157831544694
 20
0.2800832479226933
 10
0.9388405666593087
 20
0.2693329838455938
 42
-0.3330031774019066
 10
0.9410293291776703
 20
0.249067005885454
 42
-0.0072285015890746
 10
0.9334004267596469
 20
0.2366177685699178
 42
-0.3330031781304047
 10
0.9143496307800447
 20
0.2293674087479154
 10
0.9002199188289203
 20
0.2334190384020474
 10
0.8941957298867144
 20
0.2251274537011945
 10
0.8881715409949322
 20
0.2168358690527299
 10
0.8963911909697124
 20
0.2046497369207287
 42
-0.3330031774032424
 10
0.8953827087686576
 20
0.1842908688850215
 42
-0.0072285015907428
 10
0.8859002410191436
 20
0.1731883256078035
 42
-0.3330031781948648
 10
0.8659497857909883
 20
0.1690074308242195
 10
0.8526278485584573
 20
0.1752195521242257
 10
0.8453807377616868
 20
0.1679724413646113
 10
0.8381336270229073
 20
0.1607253306488516
 10
0.8443457484057912
 20
0.1474033934785126
 42
-0.333003177402871
 10
0.8401648536641399
 20
0.1274529382655452
 42
-0.0072285015900192
 10
0.829062310409764
 20
0.1179704704893432
 42
-0.3330031781735729
 10
0.8087034423524546
 20
0.1169619882492476
 10
0.7965173101460526
 20
0.1251816381519113
 10
0.7882257254143106
 20
0.1191574492522136
 10
0.7799341407467093
 20
0.1131332603867641
 10
0.7839857704924036
 20
0.0990035484841769
 42
-0.3330031774040905
 10
0.7767354107142186
 20
0.0799527525130479
 42
-0.0072285015913712
 10
0.7642861734170019
 20
0.0723238500650325
 42
-0.3330031782211873
 10
0.7440201954294388
 20
0.0745126125482045
 10
0.7332699312676106
 20
0.0845373959934151
 10
0.7241380389351893
 20
0.0798844644774945
 10
0.7150061466714757
 20
0.0752315329853595
 10
0.7167975202090524
 20
0.0606419667513976
 42
-0.3330031774016553
 10
0.7066562233148055
 20
0.0429599238449541
 42
-0.0072285015891571
 10
0.6931668335138408
 20
0.0373724356221708
 42
-0.3330031781282077
 10
0.6734927612327759
 20
0.0427045482320772
 10
0.6644430722971446
 20
0.0542876217811994
 10
0.6546957298602827
 20
0.0511205182651544
 10
0.6449483874949973
 20
0.0479534147618637
 10
0.644435395262736
 20
0.0332632377372093
 42
-0.3330031774020406
 10
0.6316528736388598
 20
0.0173853384750658
 42
-0.0072285015891649
 10
0.6174554848796721
 20
0.0139768469814605
 42
-0.3330031781423639
 10
0.5988577592593068
 20
0.0223210154094531
 10
0.5917314789257518
 20
0.0351771653495874
 10
0.5816086983048106
 20
0.0335738744330172
 10
0.5714859177565704
 20
0.0319705835178361
 10
0.5686811913257497
 20
0.0175415166147204
 42
-0.3330031774021831
 10
0.5535721930774003
 20
0.0038587275724531
 42
-0.0072285015892043
 10
0.5390163921896623
 20
0.0027131611807185
 42
-0.3330031781437976
 10
0.5219529509570826
 20
0.0138639243074152
 10
0.5169255518971472
 20
0.0276765895627627
 10
0.5066765895537771
 20
0.0276765895973377
 10
0.496427627265474
 20
0.02767658960531
 10
0.4914002282654888
 20
0.013863924272119
 42
-0.333003178171516
 10
0.4743367871103779
 20
0.0027131611855467
 42
-0.0072285016137225
 10
0.4597809861571705
 20
0.0038587275693445
 42
-0.3330031781711535
 10
0.4446719879415042
 20
0.0175415165195858
 10
0.4418672614022335
 20
0.0319705834843411
 10
0.431744480799571
 20
0.0335738744596306
 10
0.4216217002454635
 20
0.0351771654002917
 10
0.4144954199574862
 20
0.0223210153712756
 42
-0.3330031781712451
 10
0.3958976944199115
 20
0.0139768469707633
 42
-0.0072285016136853
 10
0.381700305594812
 20
0.0173853384667702
 42
-0.3330031781712753
 10
0.368917783988822
 20
0.0332632376329016
 10
0.3684047916590902
 20
0.0479534147354137
 10
0.3586574492494616
 20
0.0511205183065862
 10
0.3489101068823697
 20
0.0542876218359645
 10
0.339860417977853
 20
0.0427045481919386
 42
-0.3330031781712234
 10
0.3201863457828598
 20
0.0373724355962288
 42
-0.0072285016140671
 10
0.3066969559171753
 20
0.042959923831674
 42
-0.3330031781715456
 10
0.2965556590255645
 20
0.0606419666405067
 10
0.2983470324790502
 20
0.0752315329666011
 10
0.2892151401821543
 20
0.0798844645327215
 10
0.2800832479207358
 20
0.084537396050898
 10
0.26933298377471
 20
0.0745126125070002
 42
-0.3330031781713927
 10
0.2490670058742435
 20
0.0723238500244676
 42
-0.007228501613866
 10
0.23661776851519
 20
0.0799527524951955
 42
-0.3330031781717133
 10
0.2293674087244533
 20
0.0990035483694314
 10
0.2334190384015038
 20
0.1131332603761663
 10
0.225127453712707
 20
0.119157449319875
 10
0.2168358690514509
 20
0.1251816382106945
 10
0.2046497368452638
 20
0.1169619882081179
 42
-0.3330031781712435
 10
0.1842908688741644
 20
0.1179704704351607
 42
-0.0072285016141793
 10
0.173188325562176
 20
0.1274529382434615
 42
-0.3330031781715841
 10
0.1690074307929255
 20
0.1474033933627226
 10
0.1752195521243021
 20
0.1607253306466667
 10
0.1679724413768291
 20
0.167972441443041
 10
0.1607253306482832
 20
0.1752195521828632
 10
0.1474033934003014
 20
0.1690074307841272
 42
-0.3330031781716862
 10
0.1274529382552263
 20
0.1731883255413678
 42
-0.0072285016139882
 10
0.1179704704538853
 20
0.1842908688592786
 42
-0.3330031781714137
 10
0.116961988210921
 20
0.2046497368067577
 10
0.1251816381526023
 20
0.2168358690590182
 10
0.1191574492648382
 20
0.2251274537884669
 10
0.1131332603869186
 20
0.2334190384591004
 10
0.0990035484051806
 20
0.2293674087098942
 42
-0.3330031781714823
 10
0.0799527525035568
 20
0.236617768492799
 42
-0.0072285016139016
 10
0.0723238500406307
 20
0.2490670058566096
 42
-0.3330031781710489
 10
0.0745126125037441
 20
0.2693329837362413
 10
0.0845373959947047
 20
0.2800832479373021
 10
0.0798844644902044
 20
0.2892151402655969
 10
0.0752315329862299
 20
0.2983470325342488
 10
0.0606419666735434
 20
0.296555659005584
 42
-0.333003178171384
 10
0.0429599238364364
 20
0.3066969558937416
 42
-0.0072285016139463
 10
0.0373724356094325
 20
0.3201863457629166
 42
-0.333003178171335
 10
0.042704548182698
 20
0.3398604179403613
 10
0.0542876217830504
 20
0.3489101069075176
 10
0.0511205182776475
 20
0.3586574493385193
 10
0.0479534147634357
 20
0.3684047917105353
 10
0.0332632376624016
 20
0.3689177839639193
 42
-0.3330031781715235
 10
0.0173853384678076
 20
0.3817003055709094
 42
-0.0072285016139998
 10
0.0139768469806843
 20
0.3958976943981476
 42
-0.3330031781715327
 10
0.0223210153562867
 20
0.4144954199218987
 10
0.0351771653519624
 20
0.4216217002785819
 10
0.0335738744449756
 20
0.4317444808920606
 10
0.031970583520069
 20
0.4418672614486532
 10
0.0175415165448385
 20
0.4446719879122832
 42
-0.3330031781713091
 10
0.0038587275666355
 20
0.4597809861333922
 42
-0.0072285016138886
 10
0.0027131611919433
 20
0.4743367870873243
 42
-0.3330031781716562
 10
0.013863924251762
 20
0.491400228232692
 10
0.0276765895627627
 20
0.4964276273057422
 10
0.0276765895973359
 20
0.5066765896474124
 10
0.02767658960531
 20
0.5169255519357137
 10
0.0138639242721332
 20
0.5219529509356989
 42
-0.3330031781711009
 10
0.0027131611855538
 20
0.5390163920908116
 42
-0.0072285016138631
 10
0.003858727569348
 20
0.5535721930440332
 42
-0.3330031781714534
 10
0.0175415165195911
 20
0.5686811912596923
 10
0.0319705834843429
 20
0.5714859177989596
 10
0.0335738744596306
 20
0.5816086984016131
 10
0.0351771654002953
 20
0.591731478955726
 10
0.0223210153712721
 20
0.5988577592437068
 42
-0.3330031781713765
 10
0.0139768469707669
 20
0.6174554847812815
 42
-0.0072285016137745
 10
0.0173853384667702
 20
0.6316528736063809
 42
-0.3330031781713391
 10
0.0332632376329052
 20
0.6444353952123727
 10
0.0479534147354155
 20
0.644948387542101
 10
0.0511205183065862
 20
0.6546957299517296
 10
0.0542876218359645
 20
0.6644430723188215
 10
0.0427045481919315
 20
0.6734927612233435
 42
-0.3330031781714747
 10
0.0373724355962253
 20
0.6931668334183243
 42
-0.00722850161395
 10
0.0429599238316687
 20
0.7066562232840035
 42
-0.3330031781711628
 10
0.0606419666405067
 20
0.716797520175625
 10
0.0752315329666029
 20
0.7150061467221427
 10
0.0798844645327215
 20
0.7241380390190387
 10
0.084537396050898
 20
0.7332699312804536
 10
0.0745126125069966
 20
0.7440201954264829
 42
-0.3330031781713788
 10
0.072323850024457
 20
0.7642861733269406
 42
-0.0072285016139648
 10
0.079952752495176
 20
0.7767354106859905
 42
-0.3330031781714249
 10
0.0990035483694278
 20
0.7839857704767362
 10
0.1131332603761663
 20
0.7799341407996856
 10
0.1191574493198786
 20
0.7882257254884842
 10
0.1251816382106874
 20
0.7965173101497385
 10
0.1169619882081108
 20
0.8087034423559309
 42
-0.3330031781714157
 10
0.1179704704351607
 20
0.8290623103270355
 42
-0.0072285016140031
 10
0.1274529382434562
 20
0.8401648536390133
 42
-0.3330031781712525
 10
0.1474033933627155
 20
0.8443457484082692
 10
0.1607253306466649
 20
0.838133627076889
 10
0.1679724414430392
 20
0.8453807378243638
 10
0.1752195521828614
 20
0.8526278485529097
 10
0.1690074307841307
 20
0.8659497858008862
 42
-0.3330031781713959
 10
0.1731883255413606
 20
0.8859002409459613
 42
-0.0072285016139929
 10
0.1842908688592786
 20
0.8953827087473094
 42
-0.3330031781714546
 10
0.2046497368067612
 20
0.8963911909902648
 10
0.2168358690590182
 20
0.8881715410485888
 10
0.2251274537884669
 20
0.8941957299363494
 10
0.2334190384590951
 20
0.9002199188142654
 10
0.2293674087098889
 20
0.9143496307960177
 42
-0.3330031781715868
 10
0.2366177684927937
 20
0.9334004266976307
 42
-0.0072285016136844
 10
0.2490670058566007
 20
0.9410293291605569
 42
-0.3330031781713237
 10
0.2693329837362324
 20
0.9388405666974435
 10
0.2800832479373021
 20
0.9288157832064847
 10
0.2892151402655916
 20
0.9334687147109832
 10
0.2983470325342452
 20
0.9381216462149559
 10
0.296555659005584
 20
0.9527112125276566
 42
-0.3330031781716513
 10
0.306696955893738
 20
0.9703932553647547
 42
-0.0072285016138795
 10
0.3201863457629113
 20
0.9759807435917551
 42
-0.3330031781711763
 10
0.339860417940363
 20
0.9706486310184878
 10
0.3489101069075158
 20
0.9590655574181425
 10
0.3586574493385157
 20
0.9622326609235436
 10
0.3684047917105317
 20
0.9653997644377518
 10
0.3689177839639157
 20
0.9800899415387682
 42
-0.3330031781711005
 10
0.3817003055709005
 20
0.9959678407333782
 42
-0.007228501613876
 10
0.3958976943981369
 20
0.9993763322205033
 42
-0.333003178171487
 10
0.4144954199219005
 20
0.9910321638448991
 10
0.4216217002785783
 20
0.9781760138492252
 10
0.431744480892057
 20
0.9797793047562102
 10
0.4418672614486621
 20
0.9813825956811257
 10
0.444671987912292
 20
0.9958116626563651
 42
-0.3330031781716609
 10
0.4597809861333886
 20
1.009494451634559
 42
-0.0072285016138868
 10
0.4743367870873243
 20
1.010640018009247
 42
-0.3330031781714156
 10
0.4914002282326902
 20
0.9994892549494274
 10
0.4964276273057422
 20
0.9856765896384303
 10
0.5066765896474177
 20
0.9856765896038552
 10
0.5169255519357119
 20
0.985676589595883
 10
0.5219529509356989
 20
0.9994892549290668
 42
-0.3330031781713475
 10
0.5390163920908134
 20
1.010640018015642
 42
-0.0072285016137417
 10
0.5535721930440314
 20
1.009494451631841
 42
-0.3330031781715709
 10
0.5686811912596888
 20
0.9958116626816
 10
0.5714859177989542
 20
0.9813825957168482
 10
0.5816086984016131
 20
0.9797793047415623
 10
0.5917314789557278
 20
0.9781760138009012
 10
0.5988577592437086
 20
0.9910321638299208
 42
-0.333003178171613
 10
0.6174554847812868
 20
0.9993763322304261
 42
-0.0072285016137167
 10
0.6316528736063827
 20
0.9959678407344227
 42
-0.333003178171325
 10
0.644435395212371
 20
0.9800899415682842
 10
0.644948387542101
 20
0.9653997644657756
 10
0.6546957299517278
 20
0.9622326608946032
 10
0.664443072318818
 20
0.9590655573652249
 10
0.6734927612233364
 20
0.9706486310092543
 42
-0.3330031778190832
 10
0.6931668333982906
 20
0.9759807436129221
 42
-0.0072285016113682
  0
TEXT
  5
3B3
330
1B
100
AcDbEntity
  8
etch
100
AcDbText
 10
0.6456026706289038
 20
0.2731515888805944
 30
0.0
 40
0.08
  1
40T
 41
0.8
100
AcDbText
  0
LWPOLYLINE
  5
3B5
330
1B
100
AcDbEntity
  8
0
100
AcDbPolyline
 90
        2
 70
     0
 43
0.0
 10
0.5066765896005947
 20
0.0
 10
-0.1415326093448641
 20
0.0
  0
LWPOLYLINE
  5
3B6
330
1B
100
AcDbEntity
  8
0
100
AcDbPolyline
 90
        2
 70
     0
 43
0.0
 10
0.0
 20
0.5066765896005947
 10
0.0
 20
-0.0873434590989177
  0
ENDSEC
  0
SECTION
  2
OBJECTS
  0
DICTIONARY
  5
286
330
0
100
AcDbDictionary
281
     1
  3
ACAD_GROUP
350
287
  3
ACAD_MLINESTYLE
350
288
  3
ACAD_PLOTSTYLENAME
350
28D
  3
ACAD_LAYOUT
350
28F
  3
ACAD_PLOTSETTINGS
350
290
  0
DICTIONARY
  5
287
102
{ACAD_REACTORS
330
286
102
}
330
286
100
AcDbDictionary
281
     1
  0
DICTIONARY
  5
288
102
{ACAD_REACTORS
330
286
102
}
330
286
100
AcDbDictionary
281
     1
  3
STANDARD
350
289
  0
ACDBDICTIONARYWDFLT
  5
28D
102
{ACAD_REACTORS
330
286
102
}
330
286
100
AcDbDictionary
281
     1
  3
Normal
350
28E
100
AcDbDictionaryWithDefault
340
28E
  0
DICTIONARY
  5
28F
102
{ACAD_REACTORS
330
286
102
}
330
286
100
AcDbDictionary
281
     1
  3
Model
350
291
  3
Layout1
350
292
  0
DICTIONARY
  5
290
102
{ACAD_REACTORS
330
286
102
}
330
286
100
AcDbDictionary
281
     1
  0
MLINESTYLE
  5
289
102
{ACAD_REACTORS
330
288
102
}
330
288
100
AcDbMlineStyle
  2
STANDARD
 70
     0
  3

 62
   256
 51
90.0
 52
90.0
 71
     2
 49
0.5
 62
   256
  6
BYLAYER
 49
-0.5
 62
   256
  6
BYLAYER
  0
ACDBPLACEHOLDER
  5
28E
102
{ACAD_REACTORS
330
28D
102
}
330
28D
  0
LAYOUT
  5
291
102
{ACAD_REACTORS
330
28F
102
}
330
28F
100
AcDbPlotSettings
  1

  2

  4

  6

 40
0.0
 41
0.0
 42
0.0
 43
0.0
 44
0.0
 45
0.0
 46
0.0
 47
0.0
 48
0.0
 49
0.0
140
0.0
141
0.0
142
1.0
143
1.0
 70
  1712
 72
     0
 73
     0
 74
     0
  7

 75
     0
147
1.0
148
0.0
149
0.0
100
AcDbLayout
  1
Model
 70
     1
 71
     0
 10
0.0
 20
0.0
 11
12.0
 21
9.0
 12
0.0
 22
0.0
 32
0.0
 14
0.0
 24
0.0
 34
0.0
 15
0.0
 25
0.0
 35
0.0
146
0.0
 13
0.0
 23
0.0
 33
0.0
 16
1.0
 26
0.0
 36
0.0
 17
0.0
 27
1.0
 37
0.0
 76
     0
330
1B
  0
LAYOUT
  5
292
102
{ACAD_REACTORS
330
28F
102
}
330
28F
100
AcDbPlotSettings
  1

  2

  4

  6

 40
0.0
 41
0.0
 42
0.0
 43
0.0
 44
0.0
 45
0.0
 46
0.0
 47
0.0
 48
0.0
 49
0.0
140
0.0
141
0.0
142
1.0
143
1.0
 70
   688
 72
     0
 73
     0
 74
     5
  7

 75
    16
147
1.0
148
0.0
149
0.0
100
AcDbLayout
  1
Layout1
 70
     1
 71
     1
 10
0.0
 20
0.0
 11
12.0
 21
9.0
 12
0.0
 22
0.0
 32
0.0
 14
1.000000000000000E+20
 24
1.000000000000000E+20
 34
1.000000000000000E+20
 15
-1.000000000000000E+20
 25
-1.000000000000000E+20
 35
-1.000000000000000E+20
146
0.0
 13
0.0
 23
0.0
 33
0.0
 16
1.0
 26
0.0
 36
0.0
 17
0.0
 27
1.0
 37
0.0
 76
     0
330
1C
  0
ENDSEC
  0
EOF
