  0
SECTION
  2
HEADER
  9
$ACADVER
  1
AC1015
  9
$ACADMAINTVER
 70
     6
  9
$DWGCODEPAGE
  3
ANSI_1252
  9
$INSBASE
 10
0.0
 20
0.0
 30
0.0
  9
$EXTMIN
 10
-2.705330085889909
 20
-0.8403932188134534
 30
0.0
  9
$EXTMAX
 10
9.199999999999999
 20
9.955330085889912
 30
0.0
  9
$LIMMIN
 10
0.0
 20
0.0
  9
$LIMMAX
 10
8.5
 20
8.5
  9
$ORTHOMODE
 70
     0
  9
$REGENMODE
 70
     1
  9
$FILLMODE
 70
     1
  9
$QTEXTMODE
 70
     0
  9
$MIRRTEXT
 70
     1
  9
$LTSCALE
 40
1.0
  9
$ATTMODE
 70
     1
  9
$TEXTSIZE
 40
0.2
  9
$TRACEWID
 40
0.05
  9
$TEXTSTYLE
  7
Standard
  9
$CLAYER
  8
holes
  9
$CELTYPE
  6
Continuous
  9
$CECOLOR
 62
   256
  9
$CELTSCALE
 40
1.0
  9
$DISPSILH
 70
     0
  9
$DIMSCALE
 40
1.0
  9
$DIMASZ
 40
0.2362204724
  9
$DIMEXO
 40
0.0393700787
  9
$DIMDLI
 40
0.38
  9
$DIMRND
 40
0.0
  9
$DIMDLE
 40
0.0393700787
  9
$DIMEXE
 40
0.18
  9
$DIMTP
 40
0.0
  9
$DIMTM
 40
0.0
  9
$DIMTXT
 40
0.1377952756
  9
$DIMCEN
 40
0.09
  9
$DIMTSZ
 40
0.0
  9
$DIMTOL
 70
     0
  9
$DIMLIM
 70
     0
  9
$DIMTIH
 70
     1
  9
$DIMTOH
 70
     1
  9
$DIMSE1
 70
     0
  9
$DIMSE2
 70
     0
  9
$DIMTAD
 70
     1
  9
$DIMZIN
 70
     0
  9
$DIMBLK
  1

  9
$DIMASO
 70
     1
  9
$DIMSHO
 70
     1
  9
$DIMPOST
  1

  9
$DIMAPOST
  1

  9
$DIMALT
 70
     0
  9
$DIMALTD
 70
     2
  9
$DIMALTF
 40
25.4
  9
$DIMLFAC
 40
2.0
  9
$DIMTOFL
 70
     0
  9
$DIMTVP
 40
0.0
  9
$DIMTIX
 70
     0
  9
$DIMSOXD
 70
     0
  9
$DIMSAH
 70
     0
  9
$DIMBLK1
  1

  9
$DIMBLK2
  1

  9
$DIMSTYLE
  2
Standard
  9
$DIMCLRD
 70
     0
  9
$DIMCLRE
 70
     0
  9
$DIMCLRT
 70
     0
  9
$DIMTFAC
 40
1.0
  9
$DIMGAP
 40
0.0393700787
  9
$DIMJUST
 70
     0
  9
$DIMSD1
 70
     0
  9
$DIMSD2
 70
     0
  9
$DIMTOLJ
 70
     1
  9
$DIMTZIN
 70
     0
  9
$DIMALTZ
 70
     0
  9
$DIMALTTZ
 70
     0
  9
$DIMUPT
 70
     0
  9
$DIMDEC
 70
     4
  9
$DIMTDEC
 70
     4
  9
$DIMALTU
 70
     2
  9
$DIMALTTD
 70
     2
  9
$DIMTXSTY
  7
Standard
  9
$DIMAUNIT
 70
     0
  9
$DIMADEC
 70
     0
  9
$DIMALTRND
 40
0.0
  9
$DIMAZIN
 70
     0
  9
$DIMDSEP
 70
     0
  9
$DIMATFIT
 70
     3
  9
$DIMFRAC
 70
     0
  9
$DIMLDRBLK
  1

  9
$DIMLUNIT
 70
     2
  9
$DIMLWD
 70
     0
  9
$DIMLWE
 70
     0
  9
$DIMTMOVE
 70
     0
  9
$LUNITS
 70
     2
  9
$LUPREC
 70
     2
  9
$SKETCHINC
 40
0.1
  9
$FILLETRAD
 40
0.1
  9
$AUNITS
 70
     0
  9
$AUPREC
 70
     2
  9
$MENU
  1
acad
  9
$ELEVATION
 40
0.0
  9
$PELEVATION
 40
0.0
  9
$THICKNESS
 40
0.0
  9
$LIMCHECK
 70
     0
  9
$CHAMFERA
 40
0.0
  9
$CHAMFERB
 40
0.0
  9
$CHAMFERC
 40
0.0
  9
$CHAMFERD
 40
0.0
  9
$SKPOLY
 70
     0
  9
$TDCREATE
 40
2456694.446298067
  9
$TDUCREATE
 40
2456694.696298067
  9
$TDUPDATE
 40
2456699.928253565
  9
$TDUUPDATE
 40
2456700.178253565
  9
$TDINDWG
 40
0.0986973958
  9
$TDUSRTIMER
 40
0.0986971644
  9
$USRTIMER
 70
     1
  9
$ANGBASE
 50
0.0
  9
$ANGDIR
 70
     0
  9
$PDMODE
 70
     0
  9
$PDSIZE
 40
-1.0
  9
$PLINEWID
 40
0.0
  9
$SPLFRAME
 70
     0
  9
$SPLINETYPE
 70
     6
  9
$SPLINESEGS
 70
     8
  9
$HANDSEED
  5
2FE
  9
$SURFTAB1
 70
     6
  9
$SURFTAB2
 70
     6
  9
$SURFTYPE
 70
     6
  9
$SURFU
 70
     6
  9
$SURFV
 70
     6
  9
$UCSBASE
  2

  9
$UCSNAME
  2

  9
$UCSORG
 10
0.0
 20
0.0
 30
0.0
  9
$UCSXDIR
 10
1.0
 20
0.0
 30
0.0
  9
$UCSYDIR
 10
0.0
 20
1.0
 30
0.0
  9
$UCSORTHOREF
  2

  9
$UCSORTHOVIEW
 70
     0
  9
$UCSORGTOP
 10
0.0
 20
0.0
 30
0.0
  9
$UCSORGBOTTOM
 10
0.0
 20
0.0
 30
0.0
  9
$UCSORGLEFT
 10
0.0
 20
0.0
 30
0.0
  9
$UCSORGRIGHT
 10
0.0
 20
0.0
 30
0.0
  9
$UCSORGFRONT
 10
0.0
 20
0.0
 30
0.0
  9
$UCSORGBACK
 10
0.0
 20
0.0
 30
0.0
  9
$PUCSBASE
  2

  9
$PUCSNAME
  2

  9
$PUCSORG
 10
0.0
 20
0.0
 30
0.0
  9
$PUCSXDIR
 10
1.0
 20
0.0
 30
0.0
  9
$PUCSYDIR
 10
0.0
 20
1.0
 30
0.0
  9
$PUCSORTHOREF
  2

  9
$PUCSORTHOVIEW
 70
     0
  9
$PUCSORGTOP
 10
0.0
 20
0.0
 30
0.0
  9
$PUCSORGBOTTOM
 10
0.0
 20
0.0
 30
0.0
  9
$PUCSORGLEFT
 10
0.0
 20
0.0
 30
0.0
  9
$PUCSORGRIGHT
 10
0.0
 20
0.0
 30
0.0
  9
$PUCSORGFRONT
 10
0.0
 20
0.0
 30
0.0
  9
$PUCSORGBACK
 10
0.0
 20
0.0
 30
0.0
  9
$USERI1
 70
     0
  9
$USERI2
 70
     0
  9
$USERI3
 70
     0
  9
$USERI4
 70
     0
  9
$USERI5
 70
     0
  9
$USERR1
 40
0.0
  9
$USERR2
 40
0.0
  9
$USERR3
 40
0.0
  9
$USERR4
 40
0.0
  9
$USERR5
 40
0.0
  9
$WORLDVIEW
 70
     1
  9
$SHADEDGE
 70
     3
  9
$SHADEDIF
 70
    70
  9
$TILEMODE
 70
     1
  9
$MAXACTVP
 70
    16
  9
$PINSBASE
 10
0.0
 20
0.0
 30
0.0
  9
$PLIMCHECK
 70
     0
  9
$PEXTMIN
 10
1.000000000000000E+20
 20
1.000000000000000E+20
 30
1.000000000000000E+20
  9
$PEXTMAX
 10
-1.000000000000000E+20
 20
-1.000000000000000E+20
 30
-1.000000000000000E+20
  9
$PLIMMIN
 10
0.0
 20
0.0
  9
$PLIMMAX
 10
12.0
 20
9.0
  9
$UNITMODE
 70
     0
  9
$VISRETAIN
 70
     0
  9
$PLINEGEN
 70
     1
  9
$PSLTSCALE
 70
     1
  9
$TREEDEPTH
 70
  3020
  9
$CMLSTYLE
  2
Standard
  9
$CMLJUST
 70
     0
  9
$CMLSCALE
 40
1.0
  9
$PROXYGRAPHICS
 70
     0
  9
$MEASUREMENT
 70
     0
  9
$CELWEIGHT
370
     0
  9
$ENDCAPS
280
     0
  9
$JOINSTYLE
280
     0
  9
$LWDISPLAY
290
     0
  9
$INSUNITS
 70
     0
  9
$HYPERLINKBASE
  1

  9
$STYLESHEET
  1

  9
$XEDIT
290
     1
  9
$CEPSNTYPE
380
     0
  9
$PSTYLEMODE
290
     1
  9
$FINGERPRINTGUID
  2

  9
$VERSIONGUID
  2
{0B258578-00BD-47CB-9639-92776D9DD8E0}
  9
$EXTNAMES
290
     1
  9
$PSVPSCALE
 40
0.0
  9
$OLESTARTUP
290
     0
  0
ENDSEC
  0
SECTION
  2
CLASSES
  0
CLASS
  1
LWPOLYLINE
  2
AcDbPolyline
  3
AutoCAD 2000
 90
    32768
280
     0
281
     1
  0
CLASS
  1
IMAGE
  2
AcDbRasterImage
  3
ISM
 90
    32895
280
     0
281
     1
  0
CLASS
  1
OLE2FRAME
  2
AcDbOle2Frame
  3
AutoCAD 2000
 90
    32768
280
     0
281
     1
  0
CLASS
  1
HATCH
  2
AcDbHatch
  3
AutoCAD 2000
 90
    32768
280
     0
281
     1
  0
CLASS
  1
DICTIONARYVAR
  2
AcDbDictionaryVar
  3
AutoCAD 2000
 90
    32768
280
     0
281
     0
  0
CLASS
  1
RASTERVARIABLES
  2
AcDbRasterVariables
  3
ISM
 90
    32768
280
     0
281
     0
  0
CLASS
  1
IMAGEDEF
  2
AcDbRasterImageDef
  3
ISM
 90
    32768
280
     0
281
     0
  0
CLASS
  1
IMAGEDEF_REACTOR
  2
AcDbRasterImageDefReactor
  3
ISM
 90
    32769
280
     0
281
     0
  0
CLASS
  1
IDBUFFER
  2
AcDbIdBuffer
  3
AutoCAD 2000
 90
    32768
280
     0
281
     0
  0
CLASS
  1
SPATIAL_FILTER
  2
AcDbSpatialFilter
  3
AutoCAD 2000
 90
    32768
280
     0
281
     0
  0
CLASS
  1
XRECORD
  2
AcDbXrecord
  3
AutoCAD 2000
 90
    32768
280
     0
281
     0
  0
CLASS
  1
SORTENTSTABLE
  2
AcDbSortentsTable
  3
AutoCAD 2000
 90
    32768
280
     0
281
     0
  0
CLASS
  1
LAYER_INDEX
  2
AcDbLayerIndex
  3
AutoCAD 2000
 90
    32768
280
     0
281
     0
  0
CLASS
  1
SPATIAL_INDEX
  2
AcDbSpatialIndex
  3
AutoCAD 2000
 90
    32768
280
     0
281
     0
  0
CLASS
  1
OBJECT_PTR
  2
CAseDLPNTableRecord
  3
"ASE-LPNTableRecord"
 90
    32769
280
     0
281
     0
  0
CLASS
  1
LAYOUT
  2
AcDbLayout
  3
AutoCAD 2000
 90
        0
280
     0
281
     0
  0
CLASS
  1
PLOTSETTINGS
  2
AcDbPlotSettings
  3
AutoCAD 2000
 90
    32768
280
     0
281
     0
  0
CLASS
  1
ACDBDICTIONARYWDFLT
  2
AcDbDictionaryWithDefault
  3
AutoCAD 2000
 90
        0
280
     0
281
     0
  0
CLASS
  1
ACDBPLACEHOLDER
  2
AcDbPlaceHolder
  3
AutoCAD 2000
 90
        0
280
     0
281
     0
  0
CLASS
  1
VBA_PROJECT
  2
AcDbVbaProject
  3
acadvba
 90
    32768
280
     0
281
     0
  0
CLASS
  1
WIPEOUT
  2
AcDbWipeout
  3
WipeOut|AutoCAD Express Tool|expresstools@autodesk.com
 90
    32895
280
     0
281
     1
  0
CLASS
  1
WIPEOUTVARIABLES
  2
AcDbWipeoutVariables
  3
WipeOut|AutoCAD Express Tool|expresstools@autodesk.com
 90
        0
280
     0
281
     0
  0
CLASS
  1
RTEXT
  2
RText
  3
RText|AutoCAD Express Tool|expresstools@autodesk.com
 90
    32768
280
     0
281
     1
  0
CLASS
  1
ARCALIGNEDTEXT
  2
AcDbArcAlignedText
  3
ATEXT|AutoCAD Express Tool|expresstools@autodesk.com
 90
    32768
280
     0
281
     1
  0
ENDSEC
  0
SECTION
  2
TABLES
  0
TABLE
  2
VPORT
  5
7
330
0
100
AcDbSymbolTable
 70
     3
  0
VPORT
  5
2FD
330
7
100
AcDbSymbolTableRecord
100
AcDbViewportTableRecord
  2
*Active
 70
     0
 10
0.0
 20
0.0
 11
1.0
 21
1.0
 12
6.072593334084704
 22
2.551991845684236
 13
0.0
 23
0.0
 14
0.05
 24
0.05
 15
0.1
 25
0.1
 16
0.0
 26
0.0
 36
1.0
 17
0.0
 27
0.0
 37
0.0
 40
9.557045416822031
 41
2.347354138398914
 42
50.0
 43
0.0
 44
0.0
 50
0.0
 51
0.0
 71
     0
 72
  2000
 73
     1
 74
     0
 75
     1
 76
     0
 77
     0
 78
     0
281
     0
 65
     0
110
0.0
120
0.0
130
0.0
111
1.0
121
0.0
131
0.0
112
0.0
122
1.0
132
0.0
 79
     0
146
0.0
  0
ENDTAB
  0
TABLE
  2
LTYPE
  5
4
330
0
100
AcDbSymbolTable
 70
    18
  0
LTYPE
  5
11
330
4
100
AcDbSymbolTableRecord
100
AcDbLinetypeTableRecord
  2
ByBlock
 70
     0
  3

 72
    65
 73
     0
 40
0.0
  0
LTYPE
  5
12
330
4
100
AcDbSymbolTableRecord
100
AcDbLinetypeTableRecord
  2
ByLayer
 70
     0
  3

 72
    65
 73
     0
 40
0.0
  0
LTYPE
  5
13
330
4
100
AcDbSymbolTableRecord
100
AcDbLinetypeTableRecord
  2
Continuous
 70
     0
  3
Solid line
 72
    65
 73
     0
 40
0.0
  0
LTYPE
  5
25
330
4
100
AcDbSymbolTableRecord
100
AcDbLinetypeTableRecord
  2
SLDVISIBLE1
 70
     0
  3

 72
    65
 73
     1
 40
2.399999999999999
 49
2.399999999999999
 74
     0
  0
LTYPE
  5
26
330
4
100
AcDbSymbolTableRecord
100
AcDbLinetypeTableRecord
  2
SLDHIDDEN0
 70
     0
  3

 72
    65
 73
     2
 40
0.075
 49
0.05
 74
     0
 49
-0.025
 74
     0
  0
LTYPE
  5
27
330
4
100
AcDbSymbolTableRecord
100
AcDbLinetypeTableRecord
  2
SLDSKETCH0
 70
     0
  3

 72
    65
 73
     1
 40
2.399999999999999
 49
2.399999999999999
 74
     0
  0
LTYPE
  5
28
330
4
100
AcDbSymbolTableRecord
100
AcDbLinetypeTableRecord
  2
SLDDETAIL0
 70
     0
  3

 72
    65
 73
     1
 40
2.399999999999999
 49
2.399999999999999
 74
     0
  0
LTYPE
  5
29
330
4
100
AcDbSymbolTableRecord
100
AcDbLinetypeTableRecord
  2
SLDSECTION0
 70
     0
  3

 72
    65
 73
     4
 40
0.4
 49
0.25
 74
     0
 49
-0.05
 74
     0
 49
0.05
 74
     0
 49
-0.05
 74
     0
  0
LTYPE
  5
2A
330
4
100
AcDbSymbolTableRecord
100
AcDbLinetypeTableRecord
  2
SLDDIMENSIONS0
 70
     0
  3

 72
    65
 73
     1
 40
2.399999999999999
 49
2.399999999999999
 74
     0
  0
LTYPE
  5
2B
330
4
100
AcDbSymbolTableRecord
100
AcDbLinetypeTableRecord
  2
SLDCENTERLINES0
 70
     0
  3

 72
    65
 73
     4
 40
0.75
 49
0.6
 74
     0
 49
-0.05
 74
     0
 49
0.05
 74
     0
 49
-0.05
 74
     0
  0
LTYPE
  5
2C
330
4
100
AcDbSymbolTableRecord
100
AcDbLinetypeTableRecord
  2
SLDCROSSHATCH0
 70
     0
  3

 72
    65
 73
     1
 40
2.399999999999999
 49
2.399999999999999
 74
     0
  0
LTYPE
  5
2D
330
4
100
AcDbSymbolTableRecord
100
AcDbLinetypeTableRecord
  2
SLDTANVISIBLE0
 70
     0
  3

 72
    65
 73
     6
 40
0.5
 49
0.25
 74
     0
 49
-0.05
 74
     0
 49
0.05
 74
     0
 49
-0.05
 74
     0
 49
0.05
 74
     0
 49
-0.05
 74
     0
  0
LTYPE
  5
2E
330
4
100
AcDbSymbolTableRecord
100
AcDbLinetypeTableRecord
  2
SLDDETAILBORDER0
 70
     0
  3

 72
    65
 73
     1
 40
2.399999999999999
 49
2.399999999999999
 74
     0
  0
LTYPE
  5
2F
330
4
100
AcDbSymbolTableRecord
100
AcDbLinetypeTableRecord
  2
SLDDUMMY1
 70
     0
  3

 72
    65
 73
     0
 40
0.0
  0
LTYPE
  5
30
330
4
100
AcDbSymbolTableRecord
100
AcDbLinetypeTableRecord
  2
SLDTANHIDDEN0
 70
     0
  3

 72
    65
 73
     2
 40
0.075
 49
0.05
 74
     0
 49
-0.025
 74
     0
  0
LTYPE
  5
31
330
4
100
AcDbSymbolTableRecord
100
AcDbLinetypeTableRecord
  2
SLDVIEWARROW2
 70
     0
  3

 72
    65
 73
     6
 40
0.5
 49
0.25
 74
     0
 49
-0.05
 74
     0
 49
0.05
 74
     0
 49
-0.05
 74
     0
 49
0.05
 74
     0
 49
-0.05
 74
     0
  0
LTYPE
  5
32
330
4
100
AcDbSymbolTableRecord
100
AcDbLinetypeTableRecord
  2
SLD--SPACER--0
 70
     0
  3

 72
    65
 73
     1
 40
2.399999999999999
 49
2.399999999999999
 74
     0
  0
LTYPE
  5
33
330
4
100
AcDbSymbolTableRecord
100
AcDbLinetypeTableRecord
  2
SLDUSER-DASHED0
 70
     0
  3

 72
    65
 73
     2
 40
0.075
 49
0.05
 74
     0
 49
-0.025
 74
     0
  0
LTYPE
  5
34
330
4
100
AcDbSymbolTableRecord
100
AcDbLinetypeTableRecord
  2
SLDUSER-PHANTOM0
 70
     0
  3

 72
    65
 73
     6
 40
0.5
 49
0.25
 74
     0
 49
-0.05
 74
     0
 49
0.05
 74
     0
 49
-0.05
 74
     0
 49
0.05
 74
     0
 49
-0.05
 74
     0
  0
LTYPE
  5
35
330
4
100
AcDbSymbolTableRecord
100
AcDbLinetypeTableRecord
  2
SLDUSER-CENTER0
 70
     0
  3

 72
    65
 73
     4
 40
0.75
 49
0.6
 74
     0
 49
-0.05
 74
     0
 49
0.05
 74
     0
 49
-0.05
 74
     0
  0
ENDTAB
  0
TABLE
  2
LAYER
  5
2
330
0
100
AcDbSymbolTable
 70
     4
  0
LAYER
  5
14
330
2
100
AcDbSymbolTableRecord
100
AcDbLayerTableRecord
  2
0
 70
     0
 62
   251
  6
Continuous
370
    -3
390
1D
  0
LAYER
  5
17A
330
2
100
AcDbSymbolTableRecord
100
AcDbLayerTableRecord
  2
holes
 70
     0
 62
     1
  6
Continuous
370
    -3
390
1D
  0
LAYER
  5
17B
330
2
100
AcDbSymbolTableRecord
100
AcDbLayerTableRecord
  2
outline
 70
     0
 62
     3
  6
Continuous
370
    -3
390
1D
  0
LAYER
  5
2AA
330
2
100
AcDbSymbolTableRecord
100
AcDbLayerTableRecord
  2
etch
 70
     0
 62
     4
  6
Continuous
370
    -3
390
1D
  0
ENDTAB
  0
TABLE
  2
STYLE
  5
3
330
0
100
AcDbSymbolTable
 70
     1
  0
STYLE
  5
17
330
3
100
AcDbSymbolTableRecord
100
AcDbTextStyleTableRecord
  2
Standard
 70
     0
 40
0.0
 41
1.0
 50
0.0
 71
     0
 42
0.2
  3
txt
  4

  0
ENDTAB
  0
TABLE
  2
VIEW
  5
5
330
0
100
AcDbSymbolTable
 70
     0
  0
ENDTAB
  0
TABLE
  2
UCS
  5
6
330
0
100
AcDbSymbolTable
 70
     0
  0
ENDTAB
  0
TABLE
  2
APPID
  5
8
330
0
100
AcDbSymbolTable
 70
     1
  0
APPID
  5
16
330
8
100
AcDbSymbolTableRecord
100
AcDbRegAppTableRecord
  2
ACAD
 70
     0
  0
ENDTAB
  0
TABLE
  2
DIMSTYLE
  5
9
330
0
100
AcDbSymbolTable
 70
     1
100
AcDbDimStyleTable
 71
     0
  0
DIMSTYLE
105
18
330
9
100
AcDbSymbolTableRecord
100
AcDbDimStyleTableRecord
  2
Standard
 70
     0
340
17
  0
ENDTAB
  0
TABLE
  2
BLOCK_RECORD
  5
1
330
0
100
AcDbSymbolTable
 70
     0
  0
BLOCK_RECORD
  5
A
330
1
100
AcDbSymbolTableRecord
100
AcDbBlockTableRecord
  2
*MODEL_SPACE
340
20
  0
BLOCK_RECORD
  5
B
330
1
100
AcDbSymbolTableRecord
100
AcDbBlockTableRecord
  2
*PAPER_SPACE
340
21
  0
ENDTAB
  0
ENDSEC
  0
SECTION
  2
BLOCKS
  0
BLOCK
  5
D
330
A
100
AcDbEntity
  8
0
100
AcDbBlockBegin
  2
*MODEL_SPACE
 70
     0
 10
0.0
 20
0.0
 30
0.0
  3
*MODEL_SPACE
  1

  0
ENDBLK
  5
E
330
A
100
AcDbEntity
  8
0
100
AcDbBlockEnd
  0
BLOCK
  5
F
330
B
100
AcDbEntity
 67
     1
  8
0
100
AcDbBlockBegin
  2
*PAPER_SPACE
 70
     0
 10
0.0
 20
0.0
 30
0.0
  3
*PAPER_SPACE
  1

  0
ENDBLK
  5
10
330
B
100
AcDbEntity
 67
     1
  8
0
100
AcDbBlockEnd
  0
ENDSEC
  0
SECTION
  2
ENTITIES
  0
CIRCLE
  5
272
330
A
100
AcDbEntity
  8
etch
  6
Continuous
370
     0
100
AcDbCircle
 10
1.207106781186547
 20
1.207106781186546
 30
0.0
 40
0.125
  0
LWPOLYLINE
  5
28B
330
A
100
AcDbEntity
  8
0
  6
Continuous
370
     0
100
AcDbPolyline
 90
        5
 70
   128
 43
0.0
 10
-0.7928932188134526
 20
3.207106781186546
 10
3.207106781186547
 20
3.207106781186546
 10
3.207106781186547
 20
-0.7928932188134535
 10
-0.7928932188134526
 20
-0.7928932188134535
 10
-0.7928932188134526
 20
3.207106781186546
  0
CIRCLE
  5
291
330
A
100
AcDbEntity
  8
0
  6
Continuous
370
     0
100
AcDbCircle
 10
-0.7928932188134526
 20
-0.7928932188134535
 30
0.0
 40
0.0475
  0
CIRCLE
  5
292
330
A
100
AcDbEntity
  8
0
  6
Continuous
370
     0
100
AcDbCircle
 10
3.207106781186547
 20
-0.7928932188134535
 30
0.0
 40
0.0475
  0
CIRCLE
  5
293
330
A
100
AcDbEntity
  8
0
  6
Continuous
370
     0
100
AcDbCircle
 10
-0.7928932188134526
 20
3.207106781186546
 30
0.0
 40
0.0475
  0
CIRCLE
  5
294
330
A
100
AcDbEntity
  8
0
  6
Continuous
370
     0
100
AcDbCircle
 10
3.207106781186547
 20
3.207106781186546
 30
0.0
 40
0.0475
  0
LWPOLYLINE
  5
297
330
A
100
AcDbEntity
  8
0
  6
Continuous
370
     0
100
AcDbPolyline
 90
        8
 70
   129
 43
0.0
 10
-0.2928932188134517
 20
0.9571067811865464
 10
0.7071067811865475
 20
0.9571067811865464
 42
-0.4142135623730951
 10
0.9571067811865477
 20
0.7071067811865466
 10
0.9571067811865495
 20
-0.2928932188134534
 42
-0.4142135623730953
 10
0.7071067811865497
 20
-0.5428932188134535
 10
-0.2928932188134521
 20
-0.5428932188134535
 42
-0.4142135623730951
 10
-0.5428932188134521
 20
-0.2928932188134534
 10
-0.5428932188134516
 20
0.7071067811865466
 42
-0.4142135623730951
  0
LWPOLYLINE
  5
298
330
A
100
AcDbEntity
  8
0
  6
Continuous
370
     0
100
AcDbPolyline
 90
        8
 70
   129
 43
0.0
 10
2.707106781186546
 20
0.9571067811865464
 10
1.707106781186547
 20
0.9571067811865464
 42
0.4142135623730951
 10
1.457106781186547
 20
0.7071067811865466
 10
1.457106781186544
 20
-0.2928932188134534
 42
0.4142135623730953
 10
1.707106781186544
 20
-0.5428932188134535
 10
2.707106781186547
 20
-0.5428932188134535
 42
0.4142135623730951
 10
2.957106781186547
 20
-0.2928932188134534
 10
2.957106781186546
 20
0.7071067811865466
 42
0.4142135623730951
  0
LWPOLYLINE
  5
299
330
A
100
AcDbEntity
  8
0
  6
Continuous
370
     0
100
AcDbPolyline
 90
        8
 70
   129
 43
0.0
 10
-0.2928932188134517
 20
1.457106781186546
 10
0.7071067811865475
 20
1.457106781186546
 42
0.4142135623730951
 10
0.9571067811865477
 20
1.707106781186546
 10
0.9571067811865495
 20
2.707106781186546
 42
0.4142135623730953
 10
0.7071067811865497
 20
2.957106781186546
 10
-0.2928932188134521
 20
2.957106781186546
 42
0.4142135623730951
 10
-0.5428932188134521
 20
2.707106781186546
 10
-0.5428932188134516
 20
1.707106781186546
 42
0.4142135623730951
  0
LWPOLYLINE
  5
29A
330
A
100
AcDbEntity
  8
0
  6
Continuous
370
     0
100
AcDbPolyline
 90
        8
 70
   129
 43
0.0
 10
2.707106781186546
 20
1.457106781186546
 10
1.707106781186547
 20
1.457106781186546
 42
-0.4142135623730951
 10
1.457106781186547
 20
1.707106781186546
 10
1.457106781186544
 20
2.707106781186546
 42
-0.4142135623730953
 10
1.707106781186544
 20
2.957106781186546
 10
2.707106781186547
 20
2.957106781186546
 42
-0.4142135623730951
 10
2.957106781186547
 20
2.707106781186546
 10
2.957106781186546
 20
1.707106781186546
 42
-0.4142135623730951
  0
LWPOLYLINE
  5
2A8
330
A
100
AcDbEntity
  8
holes
  6
Continuous
370
     0
100
AcDbPolyline
 90
        8
 70
   129
 43
0.0
 10
0.5000000000000002
 20
1.814213562373094
 10
0.5
 20
0.5999999999999995
 42
0.4142135623730948
 10
0.5999999999999999
 20
0.4999999999999995
 10
1.814213562373095
 20
0.4999999999999987
 42
0.4142135623730951
 10
1.914213562373095
 20
0.5999999999999987
 10
1.914213562373095
 20
1.814213562373093
 42
0.414213562373095
 10
1.814213562373095
 20
1.914213562373093
 10
0.6000000000000002
 20
1.914213562373094
 42
0.4142135623730951
  0
LWPOLYLINE
  5
2A9
330
A
100
AcDbEntity
  8
outline
  6
Continuous
370
     0
100
AcDbPolyline
 90
        8
 70
   129
 43
0.0
 10
0.0000000000000002
 20
2.314213562373094
 10
0.0
 20
0.1
 42
0.4142135623730948
 10
0.1
 20
-0.0000000000000001
 10
2.314213562373094
 20
-0.0000000000000017
 42
0.4142135623730953
 10
2.414213562373094
 20
0.0999999999999983
 10
2.414213562373096
 20
2.314213562373093
 42
0.414213562373095
 10
2.314213562373096
 20
2.414213562373093
 10
0.1000000000000003
 20
2.414213562373094
 42
0.4142135623730951
  0
CIRCLE
  5
2AD
330
A
100
AcDbEntity
  8
holes
  6
Continuous
370
     0
100
AcDbCircle
 10
0.15
 20
0.1499999999999999
 30
0.0
 40
0.0475
  0
CIRCLE
  5
2AE
330
A
100
AcDbEntity
  8
holes
  6
Continuous
370
     0
100
AcDbCircle
 10
0.1500000000000002
 20
2.264213562373094
 30
0.0
 40
0.0475
  0
CIRCLE
  5
2AF
330
A
100
AcDbEntity
  8
holes
  6
Continuous
370
     0
100
AcDbCircle
 10
2.264213562373096
 20
2.264213562373093
 30
0.0
 40
0.0475
  0
CIRCLE
  5
2B0
330
A
100
AcDbEntity
  8
holes
  6
Continuous
370
     0
100
AcDbCircle
 10
2.264213562373095
 20
0.1499999999999983
 30
0.0
 40
0.0475
  0
CIRCLE
  5
2B1
330
A
100
AcDbEntity
  8
holes
  6
Continuous
370
     0
100
AcDbCircle
 10
0.7000000000000001
 20
1.2
 30
0.0
 40
0.0475
  0
LWPOLYLINE
  5
2B2
330
A
100
AcDbEntity
  8
0
  6
Continuous
370
     0
100
AcDbPolyline
 90
        2
 70
   128
 43
0.0
 10
1.207106781186547
 20
1.207106781186546
 10
1.207106781186547
 20
0.75
  0
CIRCLE
  5
2B3
330
A
100
AcDbEntity
  8
holes
  6
Continuous
370
     0
100
AcDbCircle
 10
1.714213562373095
 20
1.2
 30
0.0
 40
0.0475
  0
LWPOLYLINE
  5
2B4
330
A
100
AcDbEntity
  8
0
  6
Continuous
370
     0
100
AcDbPolyline
 90
        2
 70
   128
 43
0.0
 10
3.707106781186547
 20
1.207106781186546
 10
3.707106781186547
 20
0.75
  0
LWPOLYLINE
  5
2B5
330
A
100
AcDbEntity
  8
outline
  6
Continuous
370
     0
100
AcDbPolyline
 90
        8
 70
   129
 43
0.0
 10
2.5
 20
2.314213562373094
 10
2.5
 20
0.1
 42
0.4142135623730948
 10
2.6
 20
-0.0000000000000001
 10
4.814213562373094
 20
-0.0000000000000017
 42
0.4142135623730953
 10
4.914213562373094
 20
0.0999999999999983
 10
4.914213562373095
 20
2.314213562373093
 42
0.414213562373095
 10
4.814213562373096
 20
2.414213562373093
 10
2.6
 20
2.414213562373094
 42
0.4142135623730951
  0
LWPOLYLINE
  5
2B6
330
A
100
AcDbEntity
  8
holes
  6
Continuous
370
     0
100
AcDbPolyline
 90
        8
 70
   129
 43
0.0
 10
3.0
 20
1.814213562373094
 10
3.0
 20
0.5999999999999995
 42
0.4142135623730948
 10
3.099999999999999
 20
0.4999999999999995
 10
4.314213562373096
 20
0.4999999999999987
 42
0.4142135623730951
 10
4.414213562373095
 20
0.5999999999999987
 10
4.414213562373095
 20
1.814213562373093
 42
0.414213562373095
 10
4.314213562373096
 20
1.914213562373093
 10
3.1
 20
1.914213562373094
 42
0.4142135623730951
  0
CIRCLE
  5
2B7
330
A
100
AcDbEntity
  8
etch
  6
Continuous
370
     0
100
AcDbCircle
 10
3.707106781186547
 20
1.207106781186546
 30
0.0
 40
0.125
  0
CIRCLE
  5
2B8
330
A
100
AcDbEntity
  8
0
  6
Continuous
370
     0
100
AcDbCircle
 10
2.649999999999999
 20
0.1499999999999999
 30
0.0
 40
0.0475
  0
CIRCLE
  5
2B9
330
A
100
AcDbEntity
  8
0
  6
Continuous
370
     0
100
AcDbCircle
 10
4.764213562373095
 20
0.1499999999999983
 30
0.0
 40
0.0475
  0
CIRCLE
  5
2BA
330
A
100
AcDbEntity
  8
0
  6
Continuous
370
     0
100
AcDbCircle
 10
2.65
 20
2.264213562373094
 30
0.0
 40
0.0475
  0
CIRCLE
  5
2BB
330
A
100
AcDbEntity
  8
0
  6
Continuous
370
     0
100
AcDbCircle
 10
3.2
 20
1.2
 30
0.0
 40
0.0475
  0
CIRCLE
  5
2BC
330
A
100
AcDbEntity
  8
0
  6
Continuous
370
     0
100
AcDbCircle
 10
4.214213562373094
 20
1.2
 30
0.0
 40
0.0475
  0
CIRCLE
  5
2BD
330
A
100
AcDbEntity
  8
0
  6
Continuous
370
     0
100
AcDbCircle
 10
4.764213562373096
 20
2.264213562373093
 30
0.0
 40
0.0475
  0
LWPOLYLINE
  5
2BF
330
A
100
AcDbEntity
  8
outline
  6
Continuous
370
     0
100
AcDbPolyline
 90
        4
 70
   129
 43
0.0
 10
0.7999999999999999
 20
4.549999999999999
 10
0.7999999999999994
 20
3.25
 10
0.399999999999999
 20
3.25
 10
0.3999999999999995
 20
4.549999999999999
  0
CIRCLE
  5
2C0
330
A
100
AcDbEntity
  8
holes
  6
Continuous
370
     0
100
AcDbCircle
 10
0.5999999999999996
 20
4.4
 30
0.0
 40
0.0475
  0
CIRCLE
  5
2C1
330
A
100
AcDbEntity
  8
0
  6
Continuous
370
     0
100
AcDbCircle
 10
0.6071067811865458
 20
3.892893218813452
 30
0.0
 40
0.125
  0
CIRCLE
  5
2C2
330
A
100
AcDbEntity
  8
holes
  6
Continuous
370
     0
100
AcDbCircle
 10
0.5999999999999995
 20
3.385786437626905
 30
0.0
 40
0.0475
  0
LWPOLYLINE
  5
2C4
330
A
100
AcDbEntity
  8
0
  6
Continuous
370
     0
100
AcDbPolyline
 90
        6
 70
   129
 43
0.0
 10
0.7673214808866673
 20
3.985393218813452
 10
0.6071067811865461
 20
4.077893218813452
 10
0.4468920814864248
 20
3.985393218813452
 10
0.4468920814864248
 20
3.800393218813452
 10
0.6071067811865461
 20
3.707893218813452
 10
0.7673214808866669
 20
3.800393218813452
  0
LWPOLYLINE
  5
2C5
330
A
100
AcDbEntity
  8
holes
  6
Continuous
370
     0
100
AcDbPolyline
 90
        6
 70
   129
 43
0.0
 10
0.7723214808866672
 20
3.9882799701594
 10
0.6071067811865461
 20
4.083666721505348
 10
0.4418920814864249
 20
3.9882799701594
 10
0.4418920814864249
 20
3.797506467467504
 10
0.6071067811865461
 20
3.702119716121555
 10
0.7723214808866668
 20
3.797506467467504
  0
LWPOLYLINE
  5
2C7
330
A
100
AcDbEntity
  8
outline
  6
Continuous
370
     0
100
AcDbPolyline
 90
        8
 70
   129
 43
0.0
 10
1.0
 20
4.914213562373094
 10
1.0
 20
2.7
 42
0.4142135623730948
 10
1.1
 20
2.6
 10
6.314213562373094
 20
2.599999999999998
 42
0.4142135623730953
 10
6.414213562373094
 20
2.699999999999998
 10
6.414213562373095
 20
4.914213562373094
 42
0.414213562373095
 10
6.314213562373096
 20
5.014213562373093
 10
1.1
 20
5.014213562373095
 42
0.4142135623730951
  0
LWPOLYLINE
  5
2D9
330
A
100
AcDbEntity
  8
holes
  6
Continuous
370
     0
100
AcDbPolyline
 90
        8
 70
   129
 43
0.0
 10
1.5
 20
4.414213562373094
 10
1.5
 20
3.2
 42
0.4142135623730948
 10
1.599999999999999
 20
3.1
 10
2.814213562373096
 20
3.099999999999999
 42
0.4142135623730951
 10
2.914213562373095
 20
3.199999999999999
 10
2.914213562373095
 20
4.414213562373094
 42
0.414213562373095
 10
2.814213562373096
 20
4.514213562373094
 10
1.6
 20
4.514213562373095
 42
0.4142135623730951
  0
LWPOLYLINE
  5
2DC
330
A
100
AcDbEntity
  8
holes
  6
Continuous
370
     0
100
AcDbPolyline
 90
        2
 70
   128
 43
0.0
 10
1.564213562373096
 20
4.014213562373093
 10
5.864213562373095
 20
4.014213562373092
  0
LWPOLYLINE
  5
2DD
330
A
100
AcDbEntity
  8
holes
  6
Continuous
370
     0
100
AcDbPolyline
 90
        2
 70
   128
 43
0.0
 10
1.564213562373095
 20
3.614213562373093
 10
5.864213562373095
 20
3.614213562373092
  0
LWPOLYLINE
  5
2DE
330
A
100
AcDbEntity
  8
holes
  6
Continuous
370
     0
100
AcDbPolyline
 90
        2
 70
   128
 43
0.0
 10
1.564213562373096
 20
4.014213562373093
 10
1.564213562373095
 20
3.614213562373093
  0
LWPOLYLINE
  5
2DF
330
A
100
AcDbEntity
  8
holes
  6
Continuous
370
     0
100
AcDbPolyline
 90
        2
 70
   128
 43
0.0
 10
5.864213562373095
 20
4.014213562373092
 10
5.864213562373095
 20
3.614213562373092
  0
LWPOLYLINE
  5
2E0
330
A
100
AcDbEntity
  8
holes
  6
Continuous
370
     0
100
AcDbPolyline
 90
        4
 70
   129
 43
0.0
 10
2.649999999999999
 20
2.7025
 10
1.149999999999999
 20
2.7025
 42
-0.9999999999999998
 10
1.149999999999999
 20
2.7975
 10
2.649999999999999
 20
2.7975
 42
-0.9999999999999998
  0
LWPOLYLINE
  5
2E2
330
A
100
AcDbEntity
  8
0
  6
Continuous
370
     0
100
AcDbPolyline
 90
        2
 70
   128
 43
0.0
 10
3.707106781186547
 20
2.599999999999999
 10
3.707106781186547
 20
5.014213562373094
  0
LWPOLYLINE
  5
2E3
330
A
100
AcDbEntity
  8
0
  6
Continuous
370
     0
100
AcDbPolyline
 90
        2
 70
   128
 43
0.0
 10
1.0
 20
3.807106781186547
 10
6.414213562373095
 20
3.807106781186546
  0
LWPOLYLINE
  5
2E4
330
A
100
AcDbEntity
  8
holes
  6
Continuous
370
     0
100
AcDbPolyline
 90
        4
 70
   129
 43
0.0
 10
4.764213562373093
 20
2.702499999999999
 10
6.264213562373094
 20
2.702499999999998
 42
0.9999999999999998
 10
6.264213562373094
 20
2.797499999999998
 10
4.764213562373094
 20
2.797499999999999
 42
0.9999999999999998
  0
LWPOLYLINE
  5
2E5
330
A
100
AcDbEntity
  8
holes
  6
Continuous
370
     0
100
AcDbPolyline
 90
        4
 70
   129
 43
0.0
 10
2.649999999999999
 20
4.911713562373094
 10
1.149999999999999
 20
4.911713562373094
 42
0.9999999999999998
 10
1.149999999999999
 20
4.816713562373094
 10
2.649999999999999
 20
4.816713562373094
 42
0.9999999999999998
  0
LWPOLYLINE
  5
2E6
330
A
100
AcDbEntity
  8
holes
  6
Continuous
370
     0
100
AcDbPolyline
 90
        4
 70
   129
 43
0.0
 10
4.764213562373093
 20
4.911713562373095
 10
6.264213562373094
 20
4.911713562373096
 42
-0.9999999999999998
 10
6.264213562373094
 20
4.816713562373096
 10
4.764213562373094
 20
4.816713562373095
 42
-0.9999999999999998
  0
LWPOLYLINE
  5
2EA
330
A
100
AcDbEntity
  8
0
  6
Continuous
370
     0
100
AcDbPolyline
 90
        4
 70
   129
 43
0.0
 10
3.828106781186547
 20
4.15
 10
3.586106781186547
 20
4.15
 10
3.586106781186547
 20
4.9
 10
3.828106781186547
 20
4.9
  0
LWPOLYLINE
  5
2EE
330
A
100
AcDbEntity
  8
holes
  6
Continuous
370
     0
100
AcDbPolyline
 90
        4
 70
   129
 43
0.0
 10
3.825106781186547
 20
4.153
 10
3.589106781186547
 20
4.153
 10
3.589106781186548
 20
4.897
 10
3.825106781186547
 20
4.897
  0
LWPOLYLINE
  5
2EF
330
A
100
AcDbEntity
  8
0
  6
Continuous
370
     0
100
AcDbPolyline
 90
        4
 70
   129
 43
0.0
 10
3.828106781186547
 20
3.464213562373094
 10
3.586106781186547
 20
3.464213562373094
 10
3.586106781186547
 20
2.714213562373094
 10
3.828106781186547
 20
2.714213562373094
  0
LWPOLYLINE
  5
2F0
330
A
100
AcDbEntity
  8
holes
  6
Continuous
370
     0
100
AcDbPolyline
 90
        4
 70
   129
 43
0.0
 10
3.825106781186547
 20
3.461213562373094
 10
3.589106781186547
 20
3.461213562373094
 10
3.589106781186548
 20
2.717213562373094
 10
3.825106781186547
 20
2.717213562373094
  0
LWPOLYLINE
  5
2F1
330
A
100
AcDbEntity
  8
holes
  6
Continuous
370
     0
100
AcDbPolyline
 90
        4
 70
   128
 43
0.0
 10
5.1
 20
2.3
 10
5.1
 20
1.149999999999999
 10
6.15
 20
1.149999999999999
 10
5.1
 20
2.3
  0
LWPOLYLINE
  5
2F3
330
A
100
AcDbEntity
  8
holes
  6
Continuous
370
     0
100
AcDbPolyline
 90
        4
 70
   128
 43
0.0
 10
5.150000000000002
 20
2.450000000000001
 10
6.295257731958765
 20
2.345670103092784
 10
6.200000000000001
 20
1.3
 10
5.150000000000002
 20
2.450000000000001
  0
CIRCLE
  5
2F4
330
A
100
AcDbEntity
  8
holes
  6
Continuous
370
     0
100
AcDbCircle
 10
2.65
 20
2.264213562373094
 30
0.0
 40
0.0525
  0
CIRCLE
  5
2F5
330
A
100
AcDbEntity
  8
holes
  6
Continuous
370
     0
100
AcDbCircle
 10
4.764213562373096
 20
2.264213562373093
 30
0.0
 40
0.0525
  0
CIRCLE
  5
2F6
330
A
100
AcDbEntity
  8
holes
  6
Continuous
370
     0
100
AcDbCircle
 10
2.649999999999999
 20
0.1499999999999999
 30
0.0
 40
0.0525
  0
CIRCLE
  5
2F7
330
A
100
AcDbEntity
  8
holes
  6
Continuous
370
     0
100
AcDbCircle
 10
4.764213562373095
 20
0.1499999999999983
 30
0.0
 40
0.0525
  0
CIRCLE
  5
2F8
330
A
100
AcDbEntity
  8
holes
  6
Continuous
370
     0
100
AcDbCircle
 10
3.2
 20
1.2
 30
0.0
 40
0.0525
  0
CIRCLE
  5
2F9
330
A
100
AcDbEntity
  8
holes
  6
Continuous
370
     0
100
AcDbCircle
 10
4.214213562373094
 20
1.2
 30
0.0
 40
0.0525
  0
LWPOLYLINE
  5
2FB
330
A
100
AcDbEntity
  8
holes
  6
Continuous
370
     0
100
AcDbPolyline
 90
       12
 70
   129
 43
0.0
 10
6.65
 20
4.95
 10
6.65
 20
4.2
 10
6.85
 20
4.2
 10
6.85
 20
4.099999999999999
 10
7.049999999999999
 20
4.099999999999999
 10
7.049999999999999
 20
3.6
 10
6.85
 20
3.6
 10
6.85
 20
3.5
 10
6.65
 20
3.5
 10
6.65
 20
2.75
 10
9.199999999999999
 20
2.75
 10
9.199999999999999
 20
4.95
  0
TEXT
  5
2FC
330
A
100
AcDbEntity
  8
0
  6
Continuous
370
     0
100
AcDbText
 10
0.65
 20
5.85
 30
0.0
 40
0.2
  1
TOO COMPLEX - NOT USING FOR NOW
100
AcDbText
  0
ENDSEC
  0
SECTION
  2
OBJECTS
  0
DICTIONARY
  5
19
330
0
100
AcDbDictionary
281
     1
  3
ACAD_GROUP
350
1A
  3
ACAD_LAYOUT
350
1E
  3
ACAD_MLINESTYLE
350
1B
  3
ACAD_PLOTSETTINGS
350
22
  3
ACAD_PLOTSTYLENAME
350
1F
  3
ACAD_WIPEOUT_VARS
350
23
  0
DICTIONARY
  5
1A
102
{ACAD_REACTORS
330
19
102
}
330
19
100
AcDbDictionary
281
     1
  0
DICTIONARY
  5
1E
102
{ACAD_REACTORS
330
19
102
}
330
19
100
AcDbDictionary
281
     1
  3
Layout1
350
21
  3
Model
350
20
  0
DICTIONARY
  5
1B
102
{ACAD_REACTORS
330
19
102
}
330
19
100
AcDbDictionary
281
     1
  3
Standard
350
1C
  0
DICTIONARY
  5
22
102
{ACAD_REACTORS
330
19
102
}
330
19
100
AcDbDictionary
281
     1
  0
ACDBDICTIONARYWDFLT
  5
1F
102
{ACAD_REACTORS
330
19
102
}
330
19
100
AcDbDictionary
281
     1
  3
Normal
350
1D
100
AcDbDictionaryWithDefault
340
1D
  0
WIPEOUTVARIABLES
  5
23
330
19
100
AcDbWipeoutVariables
 70
     1
  0
LAYOUT
  5
21
102
{ACAD_REACTORS
330
1E
102
}
330
1E
100
AcDbPlotSettings
  1

  2

  4

  6

 40
0.0
 41
0.0
 42
0.0
 43
0.0
 44
0.0
 45
0.0
 46
0.0
 47
0.0
 48
0.0
 49
0.0
140
0.0
141
0.0
142
1.0
143
1.0
 70
     0
 72
     0
 73
     0
 74
     0
  7

 75
     0
147
1.0
148
0.0
149
0.0
100
AcDbLayout
  1
Layout1
 70
     1
 71
     1
 10
0.0
 20
0.0
 11
12.0
 21
9.0
 12
0.0
 22
0.0
 32
0.0
 14
1.000000000000000E+20
 24
1.000000000000000E+20
 34
1.000000000000000E+20
 15
-1.000000000000000E+20
 25
-1.000000000000000E+20
 35
-1.000000000000000E+20
146
0.0
 13
0.0
 23
0.0
 33
0.0
 16
1.0
 26
0.0
 36
0.0
 17
0.0
 27
1.0
 37
0.0
 76
     0
330
B
  0
LAYOUT
  5
20
102
{ACAD_REACTORS
330
1E
102
}
330
1E
100
AcDbPlotSettings
  1

  2

  4

  6

 40
0.0
 41
0.0
 42
0.0
 43
0.0
 44
0.0
 45
0.0
 46
0.0
 47
0.0
 48
0.0
 49
0.0
140
0.0
141
0.0
142
1.0
143
1.0
 70
  1024
 72
     0
 73
     0
 74
     0
  7

 75
     0
147
1.0
148
0.0
149
0.0
100
AcDbLayout
  1
Model
 70
     0
 71
     0
 10
0.0
 20
0.0
 11
0.0
 21
0.0
 12
0.0
 22
0.0
 32
0.0
 14
0.0
 24
0.0
 34
0.0
 15
0.0
 25
0.0
 35
0.0
146
0.0
 13
0.0
 23
0.0
 33
0.0
 16
0.0
 26
0.0
 36
0.0
 17
0.0
 27
0.0
 37
0.0
 76
     0
330
A
  0
MLINESTYLE
  5
1C
102
{ACAD_REACTORS
330
1B
102
}
330
1B
100
AcDbMlineStyle
  2
STANDARD
 70
     0
  3

 62
     0
 51
90.0
 52
90.0
 71
     2
 49
0.5
 62
   256
  6
BYLAYER
 49
-0.5
 62
   256
  6
BYLAYER
  0
ACDBPLACEHOLDER
  5
1D
102
{ACAD_REACTORS
330
1F
102
}
330
1F
  0
ENDSEC
  0
EOF
