  0
SECTION
  2
HEADER
  9
$ACADVER
  1
AC1015
  9
$ACADMAINTVER
 70
     6
  9
$DWGCODEPAGE
  3
ANSI_1252
  9
$INSBASE
 10
0.0
 20
0.0
 30
0.0
  9
$EXTMIN
 10
-11.05
 20
-4.183333333333337
 30
0.0
  9
$EXTMAX
 10
16.24999999999997
 20
11.95
 30
0.0
  9
$LIMMIN
 10
0.0
 20
0.0
  9
$LIMMAX
 10
8.5
 20
8.5
  9
$ORTHOMODE
 70
     0
  9
$REGENMODE
 70
     1
  9
$FILLMODE
 70
     1
  9
$QTEXTMODE
 70
     0
  9
$MIRRTEXT
 70
     1
  9
$LTSCALE
 40
1.0
  9
$ATTMODE
 70
     1
  9
$TEXTSIZE
 40
0.2
  9
$TRACEWID
 40
0.05
  9
$TEXTSTYLE
  7
Standard
  9
$CLAYER
  8
holes
  9
$CELTYPE
  6
Continuous
  9
$CECOLOR
 62
   256
  9
$CELTSCALE
 40
1.0
  9
$DISPSILH
 70
     0
  9
$DIMSCALE
 40
1.0
  9
$DIMASZ
 40
0.2362204724
  9
$DIMEXO
 40
0.0393700787
  9
$DIMDLI
 40
0.38
  9
$DIMRND
 40
0.0
  9
$DIMDLE
 40
0.0393700787
  9
$DIMEXE
 40
0.18
  9
$DIMTP
 40
0.0
  9
$DIMTM
 40
0.0
  9
$DIMTXT
 40
0.1377952756
  9
$DIMCEN
 40
0.09
  9
$DIMTSZ
 40
0.0
  9
$DIMTOL
 70
     0
  9
$DIMLIM
 70
     0
  9
$DIMTIH
 70
     1
  9
$DIMTOH
 70
     1
  9
$DIMSE1
 70
     0
  9
$DIMSE2
 70
     0
  9
$DIMTAD
 70
     1
  9
$DIMZIN
 70
     0
  9
$DIMBLK
  1

  9
$DIMASO
 70
     1
  9
$DIMSHO
 70
     1
  9
$DIMPOST
  1

  9
$DIMAPOST
  1

  9
$DIMALT
 70
     0
  9
$DIMALTD
 70
     2
  9
$DIMALTF
 40
25.4
  9
$DIMLFAC
 40
2.0
  9
$DIMTOFL
 70
     0
  9
$DIMTVP
 40
0.0
  9
$DIMTIX
 70
     0
  9
$DIMSOXD
 70
     0
  9
$DIMSAH
 70
     0
  9
$DIMBLK1
  1

  9
$DIMBLK2
  1

  9
$DIMSTYLE
  2
Standard
  9
$DIMCLRD
 70
     0
  9
$DIMCLRE
 70
     0
  9
$DIMCLRT
 70
     0
  9
$DIMTFAC
 40
1.0
  9
$DIMGAP
 40
0.0393700787
  9
$DIMJUST
 70
     0
  9
$DIMSD1
 70
     0
  9
$DIMSD2
 70
     0
  9
$DIMTOLJ
 70
     1
  9
$DIMTZIN
 70
     0
  9
$DIMALTZ
 70
     0
  9
$DIMALTTZ
 70
     0
  9
$DIMUPT
 70
     0
  9
$DIMDEC
 70
     4
  9
$DIMTDEC
 70
     4
  9
$DIMALTU
 70
     2
  9
$DIMALTTD
 70
     2
  9
$DIMTXSTY
  7
Standard
  9
$DIMAUNIT
 70
     0
  9
$DIMADEC
 70
     0
  9
$DIMALTRND
 40
0.0
  9
$DIMAZIN
 70
     0
  9
$DIMDSEP
 70
     0
  9
$DIMATFIT
 70
     3
  9
$DIMFRAC
 70
     0
  9
$DIMLDRBLK
  1

  9
$DIMLUNIT
 70
     2
  9
$DIMLWD
 70
     0
  9
$DIMLWE
 70
     0
  9
$DIMTMOVE
 70
     0
  9
$LUNITS
 70
     2
  9
$LUPREC
 70
     2
  9
$SKETCHINC
 40
0.1
  9
$FILLETRAD
 40
0.1
  9
$AUNITS
 70
     0
  9
$AUPREC
 70
     2
  9
$MENU
  1
acad
  9
$ELEVATION
 40
0.0
  9
$PELEVATION
 40
0.0
  9
$THICKNESS
 40
0.0
  9
$LIMCHECK
 70
     0
  9
$CHAMFERA
 40
0.0
  9
$CHAMFERB
 40
0.0
  9
$CHAMFERC
 40
0.0
  9
$CHAMFERD
 40
0.0
  9
$SKPOLY
 70
     0
  9
$TDCREATE
 40
2456694.446298067
  9
$TDUCREATE
 40
2456694.696298067
  9
$TDUPDATE
 40
2456700.250232604
  9
$TDUUPDATE
 40
2456700.500232604
  9
$TDINDWG
 40
0.0893576042
  9
$TDUSRTIMER
 40
0.0893573843
  9
$USRTIMER
 70
     1
  9
$ANGBASE
 50
0.0
  9
$ANGDIR
 70
     0
  9
$PDMODE
 70
     0
  9
$PDSIZE
 40
-1.0
  9
$PLINEWID
 40
0.0
  9
$SPLFRAME
 70
     0
  9
$SPLINETYPE
 70
     6
  9
$SPLINESEGS
 70
     8
  9
$HANDSEED
  5
369
  9
$SURFTAB1
 70
     6
  9
$SURFTAB2
 70
     6
  9
$SURFTYPE
 70
     6
  9
$SURFU
 70
     6
  9
$SURFV
 70
     6
  9
$UCSBASE
  2

  9
$UCSNAME
  2

  9
$UCSORG
 10
0.0
 20
0.0
 30
0.0
  9
$UCSXDIR
 10
1.0
 20
0.0
 30
0.0
  9
$UCSYDIR
 10
0.0
 20
1.0
 30
0.0
  9
$UCSORTHOREF
  2

  9
$UCSORTHOVIEW
 70
     0
  9
$UCSORGTOP
 10
0.0
 20
0.0
 30
0.0
  9
$UCSORGBOTTOM
 10
0.0
 20
0.0
 30
0.0
  9
$UCSORGLEFT
 10
0.0
 20
0.0
 30
0.0
  9
$UCSORGRIGHT
 10
0.0
 20
0.0
 30
0.0
  9
$UCSORGFRONT
 10
0.0
 20
0.0
 30
0.0
  9
$UCSORGBACK
 10
0.0
 20
0.0
 30
0.0
  9
$PUCSBASE
  2

  9
$PUCSNAME
  2

  9
$PUCSORG
 10
0.0
 20
0.0
 30
0.0
  9
$PUCSXDIR
 10
1.0
 20
0.0
 30
0.0
  9
$PUCSYDIR
 10
0.0
 20
1.0
 30
0.0
  9
$PUCSORTHOREF
  2

  9
$PUCSORTHOVIEW
 70
     0
  9
$PUCSORGTOP
 10
0.0
 20
0.0
 30
0.0
  9
$PUCSORGBOTTOM
 10
0.0
 20
0.0
 30
0.0
  9
$PUCSORGLEFT
 10
0.0
 20
0.0
 30
0.0
  9
$PUCSORGRIGHT
 10
0.0
 20
0.0
 30
0.0
  9
$PUCSORGFRONT
 10
0.0
 20
0.0
 30
0.0
  9
$PUCSORGBACK
 10
0.0
 20
0.0
 30
0.0
  9
$USERI1
 70
     0
  9
$USERI2
 70
     0
  9
$USERI3
 70
     0
  9
$USERI4
 70
     0
  9
$USERI5
 70
     0
  9
$USERR1
 40
0.0
  9
$USERR2
 40
0.0
  9
$USERR3
 40
0.0
  9
$USERR4
 40
0.0
  9
$USERR5
 40
0.0
  9
$WORLDVIEW
 70
     1
  9
$SHADEDGE
 70
     3
  9
$SHADEDIF
 70
    70
  9
$TILEMODE
 70
     1
  9
$MAXACTVP
 70
    16
  9
$PINSBASE
 10
0.0
 20
0.0
 30
0.0
  9
$PLIMCHECK
 70
     0
  9
$PEXTMIN
 10
1.000000000000000E+20
 20
1.000000000000000E+20
 30
1.000000000000000E+20
  9
$PEXTMAX
 10
-1.000000000000000E+20
 20
-1.000000000000000E+20
 30
-1.000000000000000E+20
  9
$PLIMMIN
 10
0.0
 20
0.0
  9
$PLIMMAX
 10
12.0
 20
9.0
  9
$UNITMODE
 70
     0
  9
$VISRETAIN
 70
     0
  9
$PLINEGEN
 70
     1
  9
$PSLTSCALE
 70
     1
  9
$TREEDEPTH
 70
  3020
  9
$CMLSTYLE
  2
Standard
  9
$CMLJUST
 70
     0
  9
$CMLSCALE
 40
1.0
  9
$PROXYGRAPHICS
 70
     0
  9
$MEASUREMENT
 70
     0
  9
$CELWEIGHT
370
     0
  9
$ENDCAPS
280
     0
  9
$JOINSTYLE
280
     0
  9
$LWDISPLAY
290
     0
  9
$INSUNITS
 70
     0
  9
$HYPERLINKBASE
  1

  9
$STYLESHEET
  1

  9
$XEDIT
290
     1
  9
$CEPSNTYPE
380
     0
  9
$PSTYLEMODE
290
     1
  9
$FINGERPRINTGUID
  2

  9
$VERSIONGUID
  2
{89E303BE-0F44-4A26-84C0-AC8506EC79CC}
  9
$EXTNAMES
290
     1
  9
$PSVPSCALE
 40
0.0
  9
$OLESTARTUP
290
     0
  0
ENDSEC
  0
SECTION
  2
CLASSES
  0
CLASS
  1
LWPOLYLINE
  2
AcDbPolyline
  3
AutoCAD 2000
 90
    32768
280
     0
281
     1
  0
CLASS
  1
IMAGE
  2
AcDbRasterImage
  3
ISM
 90
    32895
280
     0
281
     1
  0
CLASS
  1
OLE2FRAME
  2
AcDbOle2Frame
  3
AutoCAD 2000
 90
    32768
280
     0
281
     1
  0
CLASS
  1
HATCH
  2
AcDbHatch
  3
AutoCAD 2000
 90
    32768
280
     0
281
     1
  0
CLASS
  1
DICTIONARYVAR
  2
AcDbDictionaryVar
  3
AutoCAD 2000
 90
    32768
280
     0
281
     0
  0
CLASS
  1
RASTERVARIABLES
  2
AcDbRasterVariables
  3
ISM
 90
    32768
280
     0
281
     0
  0
CLASS
  1
IMAGEDEF
  2
AcDbRasterImageDef
  3
ISM
 90
    32768
280
     0
281
     0
  0
CLASS
  1
IMAGEDEF_REACTOR
  2
AcDbRasterImageDefReactor
  3
ISM
 90
    32769
280
     0
281
     0
  0
CLASS
  1
IDBUFFER
  2
AcDbIdBuffer
  3
AutoCAD 2000
 90
    32768
280
     0
281
     0
  0
CLASS
  1
SPATIAL_FILTER
  2
AcDbSpatialFilter
  3
AutoCAD 2000
 90
    32768
280
     0
281
     0
  0
CLASS
  1
XRECORD
  2
AcDbXrecord
  3
AutoCAD 2000
 90
    32768
280
     0
281
     0
  0
CLASS
  1
SORTENTSTABLE
  2
AcDbSortentsTable
  3
AutoCAD 2000
 90
    32768
280
     0
281
     0
  0
CLASS
  1
LAYER_INDEX
  2
AcDbLayerIndex
  3
AutoCAD 2000
 90
    32768
280
     0
281
     0
  0
CLASS
  1
SPATIAL_INDEX
  2
AcDbSpatialIndex
  3
AutoCAD 2000
 90
    32768
280
     0
281
     0
  0
CLASS
  1
OBJECT_PTR
  2
CAseDLPNTableRecord
  3
"ASE-LPNTableRecord"
 90
    32769
280
     0
281
     0
  0
CLASS
  1
LAYOUT
  2
AcDbLayout
  3
AutoCAD 2000
 90
        0
280
     0
281
     0
  0
CLASS
  1
PLOTSETTINGS
  2
AcDbPlotSettings
  3
AutoCAD 2000
 90
    32768
280
     0
281
     0
  0
CLASS
  1
ACDBDICTIONARYWDFLT
  2
AcDbDictionaryWithDefault
  3
AutoCAD 2000
 90
        0
280
     0
281
     0
  0
CLASS
  1
ACDBPLACEHOLDER
  2
AcDbPlaceHolder
  3
AutoCAD 2000
 90
        0
280
     0
281
     0
  0
CLASS
  1
VBA_PROJECT
  2
AcDbVbaProject
  3
acadvba
 90
    32768
280
     0
281
     0
  0
CLASS
  1
WIPEOUT
  2
AcDbWipeout
  3
WipeOut|AutoCAD Express Tool|expresstools@autodesk.com
 90
    32895
280
     0
281
     1
  0
CLASS
  1
WIPEOUTVARIABLES
  2
AcDbWipeoutVariables
  3
WipeOut|AutoCAD Express Tool|expresstools@autodesk.com
 90
        0
280
     0
281
     0
  0
CLASS
  1
RTEXT
  2
RText
  3
RText|AutoCAD Express Tool|expresstools@autodesk.com
 90
    32768
280
     0
281
     1
  0
CLASS
  1
ARCALIGNEDTEXT
  2
AcDbArcAlignedText
  3
ATEXT|AutoCAD Express Tool|expresstools@autodesk.com
 90
    32768
280
     0
281
     1
  0
ENDSEC
  0
SECTION
  2
TABLES
  0
TABLE
  2
VPORT
  5
7
330
0
100
AcDbSymbolTable
 70
     6
  0
VPORT
  5
368
330
7
100
AcDbSymbolTableRecord
100
AcDbViewportTableRecord
  2
*Active
 70
     0
 10
0.0
 20
0.0
 11
1.0
 21
1.0
 12
5.632212037394143
 22
4.088766279231837
 13
0.0
 23
0.0
 14
0.05
 24
0.05
 15
0.1
 25
0.1
 16
0.0
 26
0.0
 36
1.0
 17
0.0
 27
0.0
 37
0.0
 40
15.68824996732372
 41
2.347354138398914
 42
50.0
 43
0.0
 44
0.0
 50
0.0
 51
0.0
 71
     0
 72
  2000
 73
     1
 74
     0
 75
     1
 76
     0
 77
     0
 78
     0
281
     0
 65
     0
110
0.0
120
0.0
130
0.0
111
1.0
121
0.0
131
0.0
112
0.0
122
1.0
132
0.0
 79
     0
146
0.0
  0
ENDTAB
  0
TABLE
  2
LTYPE
  5
4
330
0
100
AcDbSymbolTable
 70
    18
  0
LTYPE
  5
11
330
4
100
AcDbSymbolTableRecord
100
AcDbLinetypeTableRecord
  2
ByBlock
 70
     0
  3

 72
    65
 73
     0
 40
0.0
  0
LTYPE
  5
12
330
4
100
AcDbSymbolTableRecord
100
AcDbLinetypeTableRecord
  2
ByLayer
 70
     0
  3

 72
    65
 73
     0
 40
0.0
  0
LTYPE
  5
13
330
4
100
AcDbSymbolTableRecord
100
AcDbLinetypeTableRecord
  2
Continuous
 70
     0
  3
Solid line
 72
    65
 73
     0
 40
0.0
  0
LTYPE
  5
25
330
4
100
AcDbSymbolTableRecord
100
AcDbLinetypeTableRecord
  2
SLDVISIBLE1
 70
     0
  3

 72
    65
 73
     1
 40
2.399999999999999
 49
2.399999999999999
 74
     0
  0
LTYPE
  5
26
330
4
100
AcDbSymbolTableRecord
100
AcDbLinetypeTableRecord
  2
SLDHIDDEN0
 70
     0
  3

 72
    65
 73
     2
 40
0.075
 49
0.05
 74
     0
 49
-0.025
 74
     0
  0
LTYPE
  5
27
330
4
100
AcDbSymbolTableRecord
100
AcDbLinetypeTableRecord
  2
SLDSKETCH0
 70
     0
  3

 72
    65
 73
     1
 40
2.399999999999999
 49
2.399999999999999
 74
     0
  0
LTYPE
  5
28
330
4
100
AcDbSymbolTableRecord
100
AcDbLinetypeTableRecord
  2
SLDDETAIL0
 70
     0
  3

 72
    65
 73
     1
 40
2.399999999999999
 49
2.399999999999999
 74
     0
  0
LTYPE
  5
29
330
4
100
AcDbSymbolTableRecord
100
AcDbLinetypeTableRecord
  2
SLDSECTION0
 70
     0
  3

 72
    65
 73
     4
 40
0.4
 49
0.25
 74
     0
 49
-0.05
 74
     0
 49
0.05
 74
     0
 49
-0.05
 74
     0
  0
LTYPE
  5
2A
330
4
100
AcDbSymbolTableRecord
100
AcDbLinetypeTableRecord
  2
SLDDIMENSIONS0
 70
     0
  3

 72
    65
 73
     1
 40
2.399999999999999
 49
2.399999999999999
 74
     0
  0
LTYPE
  5
2B
330
4
100
AcDbSymbolTableRecord
100
AcDbLinetypeTableRecord
  2
SLDCENTERLINES0
 70
     0
  3

 72
    65
 73
     4
 40
0.75
 49
0.6
 74
     0
 49
-0.05
 74
     0
 49
0.05
 74
     0
 49
-0.05
 74
     0
  0
LTYPE
  5
2C
330
4
100
AcDbSymbolTableRecord
100
AcDbLinetypeTableRecord
  2
SLDCROSSHATCH0
 70
     0
  3

 72
    65
 73
     1
 40
2.399999999999999
 49
2.399999999999999
 74
     0
  0
LTYPE
  5
2D
330
4
100
AcDbSymbolTableRecord
100
AcDbLinetypeTableRecord
  2
SLDTANVISIBLE0
 70
     0
  3

 72
    65
 73
     6
 40
0.5
 49
0.25
 74
     0
 49
-0.05
 74
     0
 49
0.05
 74
     0
 49
-0.05
 74
     0
 49
0.05
 74
     0
 49
-0.05
 74
     0
  0
LTYPE
  5
2E
330
4
100
AcDbSymbolTableRecord
100
AcDbLinetypeTableRecord
  2
SLDDETAILBORDER0
 70
     0
  3

 72
    65
 73
     1
 40
2.399999999999999
 49
2.399999999999999
 74
     0
  0
LTYPE
  5
2F
330
4
100
AcDbSymbolTableRecord
100
AcDbLinetypeTableRecord
  2
SLDDUMMY1
 70
     0
  3

 72
    65
 73
     0
 40
0.0
  0
LTYPE
  5
30
330
4
100
AcDbSymbolTableRecord
100
AcDbLinetypeTableRecord
  2
SLDTANHIDDEN0
 70
     0
  3

 72
    65
 73
     2
 40
0.075
 49
0.05
 74
     0
 49
-0.025
 74
     0
  0
LTYPE
  5
31
330
4
100
AcDbSymbolTableRecord
100
AcDbLinetypeTableRecord
  2
SLDVIEWARROW2
 70
     0
  3

 72
    65
 73
     6
 40
0.5
 49
0.25
 74
     0
 49
-0.05
 74
     0
 49
0.05
 74
     0
 49
-0.05
 74
     0
 49
0.05
 74
     0
 49
-0.05
 74
     0
  0
LTYPE
  5
32
330
4
100
AcDbSymbolTableRecord
100
AcDbLinetypeTableRecord
  2
SLD--SPACER--0
 70
     0
  3

 72
    65
 73
     1
 40
2.399999999999999
 49
2.399999999999999
 74
     0
  0
LTYPE
  5
33
330
4
100
AcDbSymbolTableRecord
100
AcDbLinetypeTableRecord
  2
SLDUSER-DASHED0
 70
     0
  3

 72
    65
 73
     2
 40
0.075
 49
0.05
 74
     0
 49
-0.025
 74
     0
  0
LTYPE
  5
34
330
4
100
AcDbSymbolTableRecord
100
AcDbLinetypeTableRecord
  2
SLDUSER-PHANTOM0
 70
     0
  3

 72
    65
 73
     6
 40
0.5
 49
0.25
 74
     0
 49
-0.05
 74
     0
 49
0.05
 74
     0
 49
-0.05
 74
     0
 49
0.05
 74
     0
 49
-0.05
 74
     0
  0
LTYPE
  5
35
330
4
100
AcDbSymbolTableRecord
100
AcDbLinetypeTableRecord
  2
SLDUSER-CENTER0
 70
     0
  3

 72
    65
 73
     4
 40
0.75
 49
0.6
 74
     0
 49
-0.05
 74
     0
 49
0.05
 74
     0
 49
-0.05
 74
     0
  0
ENDTAB
  0
TABLE
  2
LAYER
  5
2
330
0
100
AcDbSymbolTable
 70
     4
  0
LAYER
  5
14
330
2
100
AcDbSymbolTableRecord
100
AcDbLayerTableRecord
  2
0
 70
     0
 62
     7
  6
Continuous
370
    -3
390
1D
  0
LAYER
  5
17A
330
2
100
AcDbSymbolTableRecord
100
AcDbLayerTableRecord
  2
holes
 70
     0
 62
     1
  6
Continuous
370
    -3
390
1D
  0
LAYER
  5
17B
330
2
100
AcDbSymbolTableRecord
100
AcDbLayerTableRecord
  2
outline
 70
     0
 62
     3
  6
Continuous
370
    -3
390
1D
  0
LAYER
  5
2A8
330
2
100
AcDbSymbolTableRecord
100
AcDbLayerTableRecord
  2
etch
 70
     0
 62
     4
  6
Continuous
370
    -3
390
1D
  0
ENDTAB
  0
TABLE
  2
STYLE
  5
3
330
0
100
AcDbSymbolTable
 70
     1
  0
STYLE
  5
17
330
3
100
AcDbSymbolTableRecord
100
AcDbTextStyleTableRecord
  2
Standard
 70
     0
 40
0.0
 41
1.0
 50
0.0
 71
     0
 42
0.2
  3
txt
  4

  0
ENDTAB
  0
TABLE
  2
VIEW
  5
5
330
0
100
AcDbSymbolTable
 70
     0
  0
ENDTAB
  0
TABLE
  2
UCS
  5
6
330
0
100
AcDbSymbolTable
 70
     0
  0
ENDTAB
  0
TABLE
  2
APPID
  5
8
330
0
100
AcDbSymbolTable
 70
     1
  0
APPID
  5
16
330
8
100
AcDbSymbolTableRecord
100
AcDbRegAppTableRecord
  2
ACAD
 70
     0
  0
ENDTAB
  0
TABLE
  2
DIMSTYLE
  5
9
330
0
100
AcDbSymbolTable
 70
     1
100
AcDbDimStyleTable
 71
     0
  0
DIMSTYLE
105
18
330
9
100
AcDbSymbolTableRecord
100
AcDbDimStyleTableRecord
  2
Standard
 70
     0
340
17
  0
ENDTAB
  0
TABLE
  2
BLOCK_RECORD
  5
1
330
0
100
AcDbSymbolTable
 70
     1
  0
BLOCK_RECORD
  5
A
330
1
100
AcDbSymbolTableRecord
100
AcDbBlockTableRecord
  2
*MODEL_SPACE
340
20
  0
BLOCK_RECORD
  5
B
330
1
100
AcDbSymbolTableRecord
100
AcDbBlockTableRecord
  2
*PAPER_SPACE
340
21
  0
BLOCK_RECORD
  5
2A9
330
1
100
AcDbSymbolTableRecord
100
AcDbBlockTableRecord
  2
HeadToTiltBracketCoupler
340
0
102
{BLKREFS
331
2DB
331
328
102
}
  0
ENDTAB
  0
ENDSEC
  0
SECTION
  2
BLOCKS
  0
BLOCK
  5
D
330
A
100
AcDbEntity
  8
0
100
AcDbBlockBegin
  2
*MODEL_SPACE
 70
     0
 10
0.0
 20
0.0
 30
0.0
  3
*MODEL_SPACE
  1

  0
ENDBLK
  5
E
330
A
100
AcDbEntity
  8
0
100
AcDbBlockEnd
  0
BLOCK
  5
F
330
B
100
AcDbEntity
 67
     1
  8
0
100
AcDbBlockBegin
  2
*PAPER_SPACE
 70
     0
 10
0.0
 20
0.0
 30
0.0
  3
*PAPER_SPACE
  1

  0
ENDBLK
  5
10
330
B
100
AcDbEntity
 67
     1
  8
0
100
AcDbBlockEnd
  0
BLOCK
  5
2D9
330
2A9
100
AcDbEntity
  8
0
370
     0
100
AcDbBlockBegin
  2
HeadToTiltBracketCoupler
 70
     0
 10
0.0
 20
0.0
 30
0.0
  3
HeadToTiltBracketCoupler
  1

  0
LINE
  5
2AA
330
2A9
100
AcDbEntity
  8
0
  6
Continuous
 62
     7
100
AcDbLine
 10
0.42
 20
0.9800000000000004
 30
0.0
 11
0.42
 21
0.9199999999999999
 31
0.0
  0
LINE
  5
2AB
330
2A9
100
AcDbEntity
  8
0
  6
Continuous
 62
     7
100
AcDbLine
 10
0.42
 20
0.9199999999999999
 30
0.0
 11
0.2699999999999999
 21
0.7700000000000005
 31
0.0
  0
LINE
  5
2AC
330
2A9
100
AcDbEntity
  8
0
  6
Continuous
 62
     7
100
AcDbLine
 10
0.2699999999999999
 20
1.129999999999999
 30
0.0
 11
0.42
 21
0.9800000000000004
 31
0.0
  0
LINE
  5
2AD
330
2A9
100
AcDbEntity
  8
0
  6
Continuous
 62
     7
100
AcDbLine
 10
0.42
 20
0.9199999999999999
 30
0.0
 11
3.98
 21
0.9199999999999999
 31
0.0
  0
LINE
  5
2AE
330
2A9
100
AcDbEntity
  8
0
  6
Continuous
 62
     7
100
AcDbLine
 10
3.98
 20
0.9199999999999999
 30
0.0
 11
4.129999999999999
 21
0.7700000000000005
 31
0.0
  0
LINE
  5
2AF
330
2A9
100
AcDbEntity
  8
0
  6
Continuous
 62
     7
100
AcDbLine
 10
3.98
 20
0.9199999999999999
 30
0.0
 11
3.98
 21
0.9800000000000004
 31
0.0
  0
LINE
  5
2B0
330
2A9
100
AcDbEntity
  8
0
  6
Continuous
 62
     7
100
AcDbLine
 10
4.129999999999999
 20
1.129999999999999
 30
0.0
 11
3.98
 21
0.9800000000000004
 31
0.0
  0
LINE
  5
2B1
330
2A9
100
AcDbEntity
  8
0
  6
Continuous
 62
     7
100
AcDbLine
 10
4.199999999999999
 20
0.6749999999999999
 30
0.0
 11
4.199999999999999
 21
1.225
 31
0.0
  0
LINE
  5
2B2
330
2A9
100
AcDbEntity
  8
0
  6
Continuous
 62
     7
100
AcDbLine
 10
0.2
 20
1.225
 30
0.0
 11
0.2
 21
0.6749999999999999
 31
0.0
  0
LINE
  5
2B3
330
2A9
100
AcDbEntity
  8
0
  6
Continuous
 62
     7
100
AcDbLine
 10
4.199999999999999
 20
1.225
 30
0.0
 11
0.2
 21
1.225
 31
0.0
  0
LINE
  5
2B4
330
2A9
100
AcDbEntity
  8
0
  6
Continuous
 62
     7
100
AcDbLine
 10
0.2
 20
0.6749999999999999
 30
0.0
 11
4.199999999999999
 21
0.6749999999999999
 31
0.0
  0
LINE
  5
2B5
330
2A9
100
AcDbEntity
  8
0
  6
Continuous
 62
     7
100
AcDbLine
 10
3.98
 20
0.9800000000000004
 30
0.0
 11
0.42
 21
0.9800000000000004
 31
0.0
  0
LINE
  5
2B6
330
2A9
100
AcDbEntity
  8
0
  6
Continuous
 62
     7
100
AcDbLine
 10
0.8499999999999998
 20
0.1052509530999997
 30
0.0
 11
0.75
 21
0.1052509530999997
 31
0.0
  0
LINE
  5
2B7
330
2A9
100
AcDbEntity
  8
0
  6
Continuous
 62
     7
100
AcDbLine
 10
0.75
 20
0.6749999999999999
 30
0.0
 11
0.75
 21
0.1052509530999997
 31
0.0
  0
LINE
  5
2B8
330
2A9
100
AcDbEntity
  8
0
  6
Continuous
 62
     7
100
AcDbLine
 10
0.8499999999999998
 20
0.6749999999999999
 30
0.0
 11
0.8499999999999998
 21
0.1052509530999997
 31
0.0
  0
LINE
  5
2B9
330
2A9
100
AcDbEntity
  8
0
  6
Continuous
 62
     7
100
AcDbLine
 10
2.25
 20
0.6749999999999999
 30
0.0
 11
2.25
 21
0.1052509530999997
 31
0.0
  0
LINE
  5
2BA
330
2A9
100
AcDbEntity
  8
0
  6
Continuous
 62
     7
100
AcDbLine
 10
2.25
 20
0.1052509530999997
 30
0.0
 11
2.15
 21
0.1052509530999997
 31
0.0
  0
LINE
  5
2BB
330
2A9
100
AcDbEntity
  8
0
  6
Continuous
 62
     7
100
AcDbLine
 10
2.15
 20
0.6749999999999999
 30
0.0
 11
2.15
 21
0.1052509530999997
 31
0.0
  0
LINE
  5
2BC
330
2A9
100
AcDbEntity
  8
0
  6
Continuous
 62
     7
100
AcDbLine
 10
3.549999999999999
 20
0.1052509530999997
 30
0.0
 11
3.65
 21
0.1052509530999997
 31
0.0
  0
LINE
  5
2BD
330
2A9
100
AcDbEntity
  8
0
  6
Continuous
 62
     7
100
AcDbLine
 10
3.549999999999999
 20
0.6749999999999999
 30
0.0
 11
3.549999999999999
 21
0.1052509530999997
 31
0.0
  0
LINE
  5
2BE
330
2A9
100
AcDbEntity
  8
0
  6
Continuous
 62
     7
100
AcDbLine
 10
3.65
 20
0.6749999999999999
 30
0.0
 11
3.65
 21
0.1052509530999997
 31
0.0
  0
LINE
  5
2BF
330
2A9
100
AcDbEntity
  8
0
  6
Continuous
 62
     7
100
AcDbLine
 10
3.549999999999999
 20
1.7947490469
 30
0.0
 11
3.65
 21
1.7947490469
 31
0.0
  0
LINE
  5
2C0
330
2A9
100
AcDbEntity
  8
0
  6
Continuous
 62
     7
100
AcDbLine
 10
3.65
 20
1.7947490469
 30
0.0
 11
3.65
 21
1.225
 31
0.0
  0
LINE
  5
2C1
330
2A9
100
AcDbEntity
  8
0
  6
Continuous
 62
     7
100
AcDbLine
 10
3.549999999999999
 20
1.7947490469
 30
0.0
 11
3.549999999999999
 21
1.225
 31
0.0
  0
LINE
  5
2C2
330
2A9
100
AcDbEntity
  8
0
  6
Continuous
 62
     7
100
AcDbLine
 10
0.8499999999999998
 20
1.7947490469
 30
0.0
 11
0.75
 21
1.7947490469
 31
0.0
  0
LINE
  5
2C3
330
2A9
100
AcDbEntity
  8
0
  6
Continuous
 62
     7
100
AcDbLine
 10
0.75
 20
1.7947490469
 30
0.0
 11
0.75
 21
1.225
 31
0.0
  0
LINE
  5
2C4
330
2A9
100
AcDbEntity
  8
0
  6
Continuous
 62
     7
100
AcDbLine
 10
0.8499999999999998
 20
1.7947490469
 30
0.0
 11
0.8499999999999998
 21
1.225
 31
0.0
  0
LINE
  5
2C5
330
2A9
100
AcDbEntity
  8
0
  6
Continuous
 62
     7
100
AcDbLine
 10
2.25
 20
1.7947490469
 30
0.0
 11
2.15
 21
1.7947490469
 31
0.0
  0
LINE
  5
2C6
330
2A9
100
AcDbEntity
  8
0
  6
Continuous
 62
     7
100
AcDbLine
 10
2.25
 20
1.7947490469
 30
0.0
 11
2.25
 21
1.225
 31
0.0
  0
LINE
  5
2C7
330
2A9
100
AcDbEntity
  8
0
  6
Continuous
 62
     7
100
AcDbLine
 10
2.15
 20
1.7947490469
 30
0.0
 11
2.15
 21
1.225
 31
0.0
  0
LINE
  5
2C8
330
2A9
100
AcDbEntity
  8
0
  6
Continuous
 62
     7
100
AcDbLine
 10
4.199999999999999
 20
1.225
 30
0.0
 11
4.349999999999999
 21
1.375
 31
0.0
  0
LINE
  5
2C9
330
2A9
100
AcDbEntity
  8
0
  6
Continuous
 62
     7
100
AcDbLine
 10
4.199999999999999
 20
0.6749999999999999
 30
0.0
 11
4.349999999999999
 21
0.5250000000000004
 31
0.0
  0
LINE
  5
2CA
330
2A9
100
AcDbEntity
  8
0
  6
Continuous
 62
     7
100
AcDbLine
 10
0.05
 20
1.375
 30
0.0
 11
0.2
 21
1.225
 31
0.0
  0
LINE
  5
2CB
330
2A9
100
AcDbEntity
  8
0
  6
Continuous
 62
     7
100
AcDbLine
 10
0.05
 20
0.5250000000000004
 30
0.0
 11
0.2
 21
0.6749999999999999
 31
0.0
  0
CIRCLE
  5
2CC
330
2A9
100
AcDbEntity
  8
0
  6
Continuous
 62
     7
100
AcDbCircle
 10
0.2
 20
1.7
 30
0.0
 40
0.065
  0
LINE
  5
2CD
330
2A9
100
AcDbEntity
  8
0
  6
Continuous
 62
     7
100
AcDbLine
 10
0.1
 20
1.9
 30
0.0
 11
4.299999999999998
 21
1.9
 31
0.0
  0
LINE
  5
2CE
330
2A9
100
AcDbEntity
  8
0
  6
Continuous
 62
     7
100
AcDbLine
 10
4.399999999999999
 20
1.799999999999999
 30
0.0
 11
4.399999999999999
 21
0.1000000000000005
 31
0.0
  0
LINE
  5
2CF
330
2A9
100
AcDbEntity
  8
0
  6
Continuous
 62
     7
100
AcDbLine
 10
4.299999999999998
 20
0.0
 30
0.0
 11
0.1
 21
0.0
 31
0.0
  0
LINE
  5
2D0
330
2A9
100
AcDbEntity
  8
0
  6
Continuous
 62
     7
100
AcDbLine
 10
0.0
 20
0.1000000000000005
 30
0.0
 11
0.0
 21
1.799999999999999
 31
0.0
  0
CIRCLE
  5
2D1
330
2A9
100
AcDbEntity
  8
0
  6
Continuous
 62
     7
100
AcDbCircle
 10
4.199999999999999
 20
0.2000000000000002
 30
0.0
 40
0.065
  0
CIRCLE
  5
2D2
330
2A9
100
AcDbEntity
  8
0
  6
Continuous
 62
     7
100
AcDbCircle
 10
4.199999999999999
 20
1.7
 30
0.0
 40
0.065
  0
CIRCLE
  5
2D3
330
2A9
100
AcDbEntity
  8
0
  6
Continuous
 62
     7
100
AcDbCircle
 10
0.2
 20
0.2000000000000002
 30
0.0
 40
0.065
  0
ARC
  5
2D4
330
2A9
100
AcDbEntity
  8
0
  6
Continuous
 62
     7
100
AcDbCircle
 10
0.1
 20
0.1000000000000005
 30
0.0
 40
0.1
100
AcDbArc
 50
180.0
 51
270.0
  0
ARC
  5
2D5
330
2A9
100
AcDbEntity
  8
0
  6
Continuous
 62
     7
100
AcDbCircle
 10
4.299999999999998
 20
0.1000000000000005
 30
0.0
 40
0.1
100
AcDbArc
 50
270.0
 51
0.0
  0
ARC
  5
2D6
330
2A9
100
AcDbEntity
  8
0
  6
Continuous
 62
     7
100
AcDbCircle
 10
4.299999999999998
 20
1.799999999999999
 30
0.0
 40
0.1
100
AcDbArc
 50
0.0
 51
90.0
  0
ARC
  5
2D7
330
2A9
100
AcDbEntity
  8
0
  6
Continuous
 62
     7
100
AcDbCircle
 10
0.1
 20
1.799999999999999
 30
0.0
 40
0.1
100
AcDbArc
 50
90.0
 51
180.0
  0
LWPOLYLINE
  5
2D8
330
2A9
100
AcDbEntity
  8
0
  6
Continuous
370
     0
100
AcDbPolyline
 90
        2
 70
   128
 43
0.0
 10
0.0
 20
0.9500000000000001
 10
4.399999999999999
 20
0.9500000000000001
  0
ENDBLK
  5
2DA
330
2A9
100
AcDbEntity
  8
0
370
     0
100
AcDbBlockEnd
  0
ENDSEC
  0
SECTION
  2
ENTITIES
  0
LWPOLYLINE
  5
25F
330
A
100
AcDbEntity
  8
0
  6
Continuous
370
     0
100
AcDbPolyline
 90
        2
 70
   128
 43
0.0
 10
2.2
 20
2.574999999999999
 10
2.2
 20
2.812179399330696
  0
CIRCLE
  5
272
330
A
100
AcDbEntity
  8
0
  6
Continuous
370
     0
100
AcDbCircle
 10
2.2
 20
3.199999999999999
 30
0.0
 40
0.125
  0
LWPOLYLINE
  5
279
330
A
100
AcDbEntity
  8
0
  6
Continuous
370
     0
100
AcDbPolyline
 90
        8
 70
   129
 43
0.0
 10
-2.049999999999999
 20
-1.799999999999999
 10
6.45
 20
-1.799999999999999
 42
0.4142135623730951
 10
7.2
 20
-1.049999999999999
 10
7.2
 20
7.45
 42
0.4142135623730951
 10
6.45
 20
8.200000000000001
 10
-2.049999999999999
 20
8.200000000000001
 42
0.4142135623730951
 10
-2.799999999999998
 20
7.45
 10
-2.799999999999998
 20
-1.049999999999999
 42
0.4142135623730951
  0
LWPOLYLINE
  5
284
330
A
100
AcDbEntity
  8
0
  6
Continuous
370
     0
100
AcDbPolyline
 90
        2
 70
   128
 43
0.0
 10
4.7
 20
7.45
 10
4.7
 20
8.200000000000001
  0
LWPOLYLINE
  5
285
330
A
100
AcDbEntity
  8
0
  6
Continuous
370
     0
100
AcDbPolyline
 90
        6
 70
   129
 43
0.0
 10
-0.2499999999999997
 20
3.199999999999999
 10
-0.2499999999999997
 20
-1.6
 10
4.65
 20
-1.6
 10
4.65
 20
3.199999999999998
 10
4.65
 20
7.999999999999999
 10
-0.2499999999999997
 20
7.999999999999999
  0
LWPOLYLINE
  5
28C
330
A
100
AcDbEntity
  8
0
  6
Continuous
370
     0
100
AcDbPolyline
 90
        4
 70
   129
 43
0.0
 10
-0.1499999999999996
 20
7.400000000000001
 10
0.0000000000000001
 20
7.400000000000001
 10
0.0000000000000001
 20
6.399999999999999
 10
-0.1499999999999996
 20
6.399999999999999
  0
LWPOLYLINE
  5
28D
330
A
100
AcDbEntity
  8
0
  6
Continuous
370
     0
100
AcDbPolyline
 90
        4
 70
   129
 43
0.0
 10
4.549999999999998
 20
7.400000000000001
 10
4.4
 20
7.400000000000001
 10
4.4
 20
6.399999999999999
 10
4.549999999999998
 20
6.399999999999999
  0
LWPOLYLINE
  5
28E
330
A
100
AcDbEntity
  8
0
  6
Continuous
370
     0
100
AcDbPolyline
 90
        4
 70
   129
 43
0.0
 10
-0.1499999999999996
 20
-1.0
 10
0.0000000000000001
 20
-1.0
 10
0.0000000000000001
 20
-0.0000000000000002
 10
-0.1499999999999996
 20
-0.0000000000000002
  0
LWPOLYLINE
  5
28F
330
A
100
AcDbEntity
  8
0
  6
Continuous
370
     0
100
AcDbPolyline
 90
        4
 70
   129
 43
0.0
 10
4.549999999999998
 20
-1.0
 10
4.4
 20
-1.0
 10
4.4
 20
-0.0000000000000002
 10
4.549999999999998
 20
-0.0000000000000002
  0
CIRCLE
  5
292
330
A
100
AcDbEntity
  8
0
  6
Continuous
370
     0
100
AcDbCircle
 10
4.2
 20
1.199999999999999
 30
0.0
 40
0.0475
  0
CIRCLE
  5
293
330
A
100
AcDbEntity
  8
0
  6
Continuous
370
     0
100
AcDbCircle
 10
0.2000000000000003
 20
5.199999999999999
 30
0.0
 40
0.0475
  0
CIRCLE
  5
294
330
A
100
AcDbEntity
  8
0
  6
Continuous
370
     0
100
AcDbCircle
 10
4.2
 20
5.199999999999999
 30
0.0
 40
0.0475
  0
LWPOLYLINE
  5
295
330
A
100
AcDbEntity
  8
0
  6
Continuous
370
     0
100
AcDbPolyline
 90
        8
 70
   129
 43
0.0
 10
0.7000000000000011
 20
-0.5500000000000003
 10
1.7
 20
-0.5500000000000003
 42
0.4142135623730951
 10
1.95
 20
-0.3000000000000003
 10
1.950000000000002
 20
0.6999999999999995
 42
0.4142135623730953
 10
1.700000000000002
 20
0.9499999999999994
 10
0.7000000000000007
 20
0.9500000000000003
 42
0.4142135623730951
 10
0.4500000000000007
 20
0.7000000000000004
 10
0.4500000000000012
 20
-0.3000000000000003
 42
0.4142135623730951
  0
LWPOLYLINE
  5
296
330
A
100
AcDbEntity
  8
0
  6
Continuous
370
     0
100
AcDbPolyline
 90
        8
 70
   129
 43
0.0
 10
3.699999999999999
 20
-0.5500000000000003
 10
2.7
 20
-0.5500000000000003
 42
-0.4142135623730951
 10
2.45
 20
-0.3000000000000003
 10
2.449999999999997
 20
0.6999999999999995
 42
-0.4142135623730953
 10
2.699999999999997
 20
0.9499999999999994
 10
3.7
 20
0.9500000000000003
 42
-0.4142135623730951
 10
3.95
 20
0.7000000000000004
 10
3.949999999999998
 20
-0.3000000000000003
 42
-0.4142135623730951
  0
LWPOLYLINE
  5
297
330
A
100
AcDbEntity
  8
0
  6
Continuous
370
     0
100
AcDbPolyline
 90
        8
 70
   129
 43
0.0
 10
0.7000000000000011
 20
2.949999999999999
 10
1.7
 20
2.949999999999999
 42
-0.4142135623730951
 10
1.95
 20
2.699999999999999
 10
1.950000000000002
 20
1.699999999999999
 42
-0.4142135623730953
 10
1.700000000000002
 20
1.449999999999999
 10
0.7000000000000007
 20
1.449999999999999
 42
-0.4142135623730951
 10
0.4500000000000007
 20
1.699999999999999
 10
0.4500000000000012
 20
2.699999999999999
 42
-0.4142135623730951
  0
LWPOLYLINE
  5
298
330
A
100
AcDbEntity
  8
0
  6
Continuous
370
     0
100
AcDbPolyline
 90
        8
 70
   129
 43
0.0
 10
3.699999999999999
 20
2.949999999999999
 10
2.7
 20
2.949999999999999
 42
0.4142135623730951
 10
2.45
 20
2.699999999999999
 10
2.449999999999997
 20
1.699999999999999
 42
0.4142135623730953
 10
2.699999999999997
 20
1.449999999999999
 10
3.7
 20
1.449999999999999
 42
0.4142135623730951
 10
3.95
 20
1.699999999999999
 10
3.949999999999998
 20
2.699999999999999
 42
0.4142135623730951
  0
LWPOLYLINE
  5
299
330
A
100
AcDbEntity
  8
0
  6
Continuous
370
     0
100
AcDbPolyline
 90
        8
 70
   129
 43
0.0
 10
0.7000000000000011
 20
3.449999999999999
 10
1.7
 20
3.449999999999999
 42
0.4142135623730951
 10
1.95
 20
3.699999999999999
 10
1.950000000000002
 20
4.699999999999999
 42
0.4142135623730953
 10
1.700000000000002
 20
4.949999999999999
 10
0.7000000000000007
 20
4.949999999999999
 42
0.4142135623730951
 10
0.4500000000000007
 20
4.699999999999999
 10
0.4500000000000012
 20
3.699999999999999
 42
0.4142135623730951
  0
LWPOLYLINE
  5
29A
330
A
100
AcDbEntity
  8
0
  6
Continuous
370
     0
100
AcDbPolyline
 90
        8
 70
   129
 43
0.0
 10
3.699999999999999
 20
3.449999999999999
 10
2.7
 20
3.449999999999999
 42
-0.4142135623730951
 10
2.45
 20
3.699999999999999
 10
2.449999999999997
 20
4.699999999999999
 42
-0.4142135623730953
 10
2.699999999999997
 20
4.949999999999999
 10
3.7
 20
4.949999999999999
 42
-0.4142135623730951
 10
3.95
 20
4.699999999999999
 10
3.949999999999998
 20
3.699999999999999
 42
-0.4142135623730951
  0
LWPOLYLINE
  5
29B
330
A
100
AcDbEntity
  8
0
  6
Continuous
370
     0
100
AcDbPolyline
 90
        8
 70
   129
 43
0.0
 10
0.7000000000000011
 20
6.95
 10
1.7
 20
6.95
 42
-0.4142135623730951
 10
1.95
 20
6.7
 10
1.950000000000002
 20
5.699999999999999
 42
-0.4142135623730953
 10
1.700000000000002
 20
5.449999999999999
 10
0.7000000000000007
 20
5.449999999999999
 42
-0.4142135623730951
 10
0.4500000000000007
 20
5.699999999999999
 10
0.4500000000000012
 20
6.7
 42
-0.4142135623730951
  0
LWPOLYLINE
  5
29C
330
A
100
AcDbEntity
  8
0
  6
Continuous
370
     0
100
AcDbPolyline
 90
        8
 70
   129
 43
0.0
 10
3.699999999999999
 20
6.95
 10
2.7
 20
6.95
 42
0.4142135623730951
 10
2.45
 20
6.7
 10
2.449999999999997
 20
5.699999999999999
 42
0.4142135623730953
 10
2.699999999999997
 20
5.449999999999999
 10
3.7
 20
5.449999999999999
 42
0.4142135623730951
 10
3.95
 20
5.699999999999999
 10
3.949999999999998
 20
6.7
 42
0.4142135623730951
  0
LWPOLYLINE
  5
29E
330
A
100
AcDbEntity
  8
0
  6
Continuous
370
     0
100
AcDbPolyline
 90
       14
 70
   129
 43
0.0
 10
5.349999999999999
 20
-1.599999999999999
 10
5.049999999999999
 20
-1.599999999999999
 10
5.049999999999999
 20
-0.9999999999999996
 10
4.849999999999999
 20
-0.9999999999999996
 10
4.849999999999999
 20
-0.0000000000000002
 10
5.049999999999999
 20
-0.0000000000000002
 10
5.049999999999999
 20
6.399999999999999
 10
4.849999999999999
 20
6.399999999999999
 10
4.849999999999999
 20
7.400000000000001
 10
5.049999999999999
 20
7.400000000000001
 10
5.049999999999999
 20
7.999999999999999
 10
5.349999999999999
 20
7.999999999999999
 10
5.5
 20
7.999999999999999
 10
5.5
 20
-1.6
  0
LWPOLYLINE
  5
2A2
330
A
100
AcDbEntity
  8
0
  6
Continuous
370
     0
100
AcDbPolyline
 90
       14
 70
   129
 43
0.0
 10
6.049999999999999
 20
-1.599999999999999
 10
5.75
 20
-1.599999999999999
 10
5.75
 20
-0.9999999999999996
 10
5.549999999999999
 20
-0.9999999999999996
 10
5.549999999999999
 20
-0.0000000000000002
 10
5.75
 20
-0.0000000000000002
 10
5.75
 20
6.399999999999999
 10
5.549999999999999
 20
6.399999999999999
 10
5.549999999999999
 20
7.400000000000001
 10
5.75
 20
7.400000000000001
 10
5.75
 20
7.999999999999999
 10
6.049999999999999
 20
7.999999999999999
 10
6.2
 20
7.999999999999999
 10
6.2
 20
-1.6
  0
LINE
  5
2DD
330
A
100
AcDbEntity
  8
0
  6
Continuous
100
AcDbLine
 10
0.420000000000001
 20
3.229999999999999
 30
0.0
 11
0.420000000000001
 21
3.169999999999999
 31
0.0
  0
LINE
  5
2DE
330
A
100
AcDbEntity
  8
0
  6
Continuous
100
AcDbLine
 10
0.420000000000001
 20
3.169999999999999
 30
0.0
 11
0.270000000000001
 21
3.019999999999999
 31
0.0
  0
LINE
  5
2DF
330
A
100
AcDbEntity
  8
0
  6
Continuous
100
AcDbLine
 10
0.270000000000001
 20
3.379999999999999
 30
0.0
 11
0.420000000000001
 21
3.229999999999999
 31
0.0
  0
LINE
  5
2E0
330
A
100
AcDbEntity
  8
0
  6
Continuous
100
AcDbLine
 10
0.420000000000001
 20
3.169999999999999
 30
0.0
 11
3.980000000000001
 21
3.169999999999999
 31
0.0
  0
LINE
  5
2E1
330
A
100
AcDbEntity
  8
0
  6
Continuous
100
AcDbLine
 10
3.980000000000001
 20
3.169999999999999
 30
0.0
 11
4.129999999999999
 21
3.019999999999999
 31
0.0
  0
LINE
  5
2E2
330
A
100
AcDbEntity
  8
0
  6
Continuous
100
AcDbLine
 10
3.980000000000001
 20
3.169999999999999
 30
0.0
 11
3.980000000000001
 21
3.229999999999999
 31
0.0
  0
LINE
  5
2E3
330
A
100
AcDbEntity
  8
0
  6
Continuous
100
AcDbLine
 10
4.129999999999999
 20
3.379999999999999
 30
0.0
 11
3.980000000000001
 21
3.229999999999999
 31
0.0
  0
LINE
  5
2E4
330
A
100
AcDbEntity
  8
0
  6
Continuous
100
AcDbLine
 10
4.2
 20
2.924999999999998
 30
0.0
 11
4.2
 21
3.474999999999999
 31
0.0
  0
LINE
  5
2E5
330
A
100
AcDbEntity
  8
0
  6
Continuous
100
AcDbLine
 10
0.2000000000000011
 20
3.474999999999999
 30
0.0
 11
0.2000000000000011
 21
2.924999999999998
 31
0.0
  0
LINE
  5
2E6
330
A
100
AcDbEntity
  8
0
  6
Continuous
100
AcDbLine
 10
4.2
 20
3.474999999999999
 30
0.0
 11
0.2000000000000011
 21
3.474999999999999
 31
0.0
  0
LINE
  5
2E7
330
A
100
AcDbEntity
  8
0
  6
Continuous
100
AcDbLine
 10
0.2000000000000011
 20
2.924999999999998
 30
0.0
 11
4.2
 21
2.924999999999998
 31
0.0
  0
LINE
  5
2E8
330
A
100
AcDbEntity
  8
0
  6
Continuous
100
AcDbLine
 10
3.980000000000001
 20
3.229999999999999
 30
0.0
 11
0.420000000000001
 21
3.229999999999999
 31
0.0
  0
LINE
  5
2E9
330
A
100
AcDbEntity
  8
0
  6
Continuous
100
AcDbLine
 10
0.850000000000001
 20
2.355250953099998
 30
0.0
 11
0.7500000000000011
 21
2.355250953099998
 31
0.0
  0
LINE
  5
2EA
330
A
100
AcDbEntity
  8
0
  6
Continuous
100
AcDbLine
 10
0.7500000000000011
 20
2.924999999999998
 30
0.0
 11
0.7500000000000011
 21
2.355250953099998
 31
0.0
  0
LINE
  5
2EB
330
A
100
AcDbEntity
  8
0
  6
Continuous
100
AcDbLine
 10
0.850000000000001
 20
2.924999999999998
 30
0.0
 11
0.850000000000001
 21
2.355250953099998
 31
0.0
  0
LINE
  5
2EC
330
A
100
AcDbEntity
  8
0
  6
Continuous
100
AcDbLine
 10
2.250000000000001
 20
2.924999999999998
 30
0.0
 11
2.250000000000001
 21
2.355250953099998
 31
0.0
  0
LINE
  5
2ED
330
A
100
AcDbEntity
  8
0
  6
Continuous
100
AcDbLine
 10
2.250000000000001
 20
2.355250953099998
 30
0.0
 11
2.150000000000001
 21
2.355250953099998
 31
0.0
  0
LINE
  5
2EE
330
A
100
AcDbEntity
  8
0
  6
Continuous
100
AcDbLine
 10
2.150000000000001
 20
2.924999999999998
 30
0.0
 11
2.150000000000001
 21
2.355250953099998
 31
0.0
  0
LINE
  5
2EF
330
A
100
AcDbEntity
  8
0
  6
Continuous
100
AcDbLine
 10
3.550000000000001
 20
2.355250953099998
 30
0.0
 11
3.650000000000001
 21
2.355250953099998
 31
0.0
  0
LINE
  5
2F0
330
A
100
AcDbEntity
  8
0
  6
Continuous
100
AcDbLine
 10
3.550000000000001
 20
2.924999999999998
 30
0.0
 11
3.550000000000001
 21
2.355250953099998
 31
0.0
  0
LINE
  5
2F1
330
A
100
AcDbEntity
  8
0
  6
Continuous
100
AcDbLine
 10
3.650000000000001
 20
2.924999999999998
 30
0.0
 11
3.650000000000001
 21
2.355250953099998
 31
0.0
  0
LINE
  5
2F2
330
A
100
AcDbEntity
  8
0
  6
Continuous
100
AcDbLine
 10
3.550000000000001
 20
4.044749046899999
 30
0.0
 11
3.650000000000001
 21
4.044749046899999
 31
0.0
  0
LINE
  5
2F3
330
A
100
AcDbEntity
  8
0
  6
Continuous
100
AcDbLine
 10
3.650000000000001
 20
4.044749046899999
 30
0.0
 11
3.650000000000001
 21
3.474999999999999
 31
0.0
  0
LINE
  5
2F4
330
A
100
AcDbEntity
  8
0
  6
Continuous
100
AcDbLine
 10
3.550000000000001
 20
4.044749046899999
 30
0.0
 11
3.550000000000001
 21
3.474999999999999
 31
0.0
  0
LINE
  5
2F5
330
A
100
AcDbEntity
  8
0
  6
Continuous
100
AcDbLine
 10
0.850000000000001
 20
4.044749046899999
 30
0.0
 11
0.7500000000000011
 21
4.044749046899999
 31
0.0
  0
LINE
  5
2F6
330
A
100
AcDbEntity
  8
0
  6
Continuous
100
AcDbLine
 10
0.7500000000000011
 20
4.044749046899999
 30
0.0
 11
0.7500000000000011
 21
3.474999999999999
 31
0.0
  0
LINE
  5
2F7
330
A
100
AcDbEntity
  8
0
  6
Continuous
100
AcDbLine
 10
0.850000000000001
 20
4.044749046899999
 30
0.0
 11
0.850000000000001
 21
3.474999999999999
 31
0.0
  0
LINE
  5
2F8
330
A
100
AcDbEntity
  8
0
  6
Continuous
100
AcDbLine
 10
2.250000000000001
 20
4.044749046899999
 30
0.0
 11
2.150000000000001
 21
4.044749046899999
 31
0.0
  0
LINE
  5
2F9
330
A
100
AcDbEntity
  8
0
  6
Continuous
100
AcDbLine
 10
2.250000000000001
 20
4.044749046899999
 30
0.0
 11
2.250000000000001
 21
3.474999999999999
 31
0.0
  0
LINE
  5
2FA
330
A
100
AcDbEntity
  8
0
  6
Continuous
100
AcDbLine
 10
2.150000000000001
 20
4.044749046899999
 30
0.0
 11
2.150000000000001
 21
3.474999999999999
 31
0.0
  0
LINE
  5
2FB
330
A
100
AcDbEntity
  8
0
  6
Continuous
100
AcDbLine
 10
4.2
 20
3.474999999999999
 30
0.0
 11
4.35
 21
3.624999999999999
 31
0.0
  0
LINE
  5
2FC
330
A
100
AcDbEntity
  8
0
  6
Continuous
100
AcDbLine
 10
4.2
 20
2.924999999999998
 30
0.0
 11
4.35
 21
2.774999999999999
 31
0.0
  0
LINE
  5
2FD
330
A
100
AcDbEntity
  8
0
  6
Continuous
100
AcDbLine
 10
0.0500000000000011
 20
3.624999999999999
 30
0.0
 11
0.2000000000000011
 21
3.474999999999999
 31
0.0
  0
LINE
  5
2FE
330
A
100
AcDbEntity
  8
0
  6
Continuous
100
AcDbLine
 10
0.0500000000000011
 20
2.774999999999999
 30
0.0
 11
0.2000000000000011
 21
2.924999999999998
 31
0.0
  0
CIRCLE
  5
2FF
330
A
100
AcDbEntity
  8
holes
  6
Continuous
100
AcDbCircle
 10
0.2000000000000011
 20
3.949999999999999
 30
0.0
 40
0.065
  0
LINE
  5
300
330
A
100
AcDbEntity
  8
0
  6
Continuous
100
AcDbLine
 10
0.1000000000000011
 20
4.149999999999999
 30
0.0
 11
4.299999999999999
 21
4.149999999999999
 31
0.0
  0
LINE
  5
301
330
A
100
AcDbEntity
  8
0
  6
Continuous
100
AcDbLine
 10
4.4
 20
4.049999999999998
 30
0.0
 11
4.4
 21
2.349999999999999
 31
0.0
  0
LINE
  5
302
330
A
100
AcDbEntity
  8
0
  6
Continuous
100
AcDbLine
 10
4.299999999999999
 20
2.249999999999999
 30
0.0
 11
0.1000000000000011
 21
2.249999999999999
 31
0.0
  0
LINE
  5
303
330
A
100
AcDbEntity
  8
0
  6
Continuous
100
AcDbLine
 10
0.0000000000000011
 20
2.349999999999999
 30
0.0
 11
0.0000000000000011
 21
4.049999999999998
 31
0.0
  0
CIRCLE
  5
304
330
A
100
AcDbEntity
  8
holes
  6
Continuous
100
AcDbCircle
 10
4.2
 20
2.449999999999999
 30
0.0
 40
0.065
  0
CIRCLE
  5
305
330
A
100
AcDbEntity
  8
holes
  6
Continuous
100
AcDbCircle
 10
4.2
 20
3.949999999999999
 30
0.0
 40
0.065
  0
CIRCLE
  5
306
330
A
100
AcDbEntity
  8
holes
  6
Continuous
100
AcDbCircle
 10
0.2000000000000011
 20
2.449999999999999
 30
0.0
 40
0.065
  0
ARC
  5
307
330
A
100
AcDbEntity
  8
0
  6
Continuous
100
AcDbCircle
 10
0.1000000000000011
 20
2.349999999999999
 30
0.0
 40
0.1
100
AcDbArc
 50
180.0
 51
270.0
  0
ARC
  5
308
330
A
100
AcDbEntity
  8
0
  6
Continuous
100
AcDbCircle
 10
4.299999999999999
 20
2.349999999999999
 30
0.0
 40
0.1
100
AcDbArc
 50
270.0
 51
0.0
  0
ARC
  5
309
330
A
100
AcDbEntity
  8
0
  6
Continuous
100
AcDbCircle
 10
4.299999999999999
 20
4.049999999999998
 30
0.0
 40
0.1
100
AcDbArc
 50
0.0
 51
90.0
  0
ARC
  5
30A
330
A
100
AcDbEntity
  8
0
  6
Continuous
100
AcDbCircle
 10
0.1000000000000011
 20
4.049999999999998
 30
0.0
 40
0.1
100
AcDbArc
 50
90.0
 51
180.0
  0
LWPOLYLINE
  5
30B
330
A
100
AcDbEntity
  8
0
  6
Continuous
370
     0
100
AcDbPolyline
 90
        2
 70
   128
 43
0.0
 10
0.0000000000000011
 20
3.199999999999999
 10
4.4
 20
3.199999999999999
  0
CIRCLE
  5
30D
330
A
100
AcDbEntity
  8
0
  6
Continuous
370
     0
100
AcDbCircle
 10
0.2000000000000003
 20
1.199999999999999
 30
0.0
 40
0.06
  0
LWPOLYLINE
  5
313
330
A
100
AcDbEntity
  8
holes
  6
Continuous
370
     0
100
AcDbPolyline
 90
        4
 70
   129
 43
0.0
 10
0.2600000000000002
 20
0.1999999999999995
 10
0.2600000000000002
 20
2.099999999999999
 42
0.9999999999999998
 10
0.1400000000000003
 20
2.099999999999999
 10
0.1400000000000003
 20
0.1999999999999995
 42
0.9999999999999998
  0
LWPOLYLINE
  5
314
330
A
100
AcDbEntity
  8
holes
  6
Continuous
370
     0
100
AcDbPolyline
 90
        4
 70
   129
 43
0.0
 10
4.14
 20
0.1999999999999995
 10
4.14
 20
2.099999999999999
 42
-0.9999999999999998
 10
4.26
 20
2.099999999999999
 10
4.26
 20
0.1999999999999995
 42
-0.9999999999999998
  0
LWPOLYLINE
  5
315
330
A
100
AcDbEntity
  8
holes
  6
Continuous
370
     0
100
AcDbPolyline
 90
        4
 70
   129
 43
0.0
 10
0.2600000000000002
 20
6.199999999999999
 10
0.2600000000000002
 20
4.299999999999998
 42
-0.9999999999999998
 10
0.1400000000000003
 20
4.299999999999998
 10
0.1400000000000003
 20
6.199999999999999
 42
-0.9999999999999998
  0
LWPOLYLINE
  5
316
330
A
100
AcDbEntity
  8
holes
  6
Continuous
370
     0
100
AcDbPolyline
 90
        4
 70
   129
 43
0.0
 10
4.14
 20
6.199999999999999
 10
4.14
 20
4.299999999999999
 42
0.9999999999999998
 10
4.26
 20
4.299999999999999
 10
4.26
 20
6.199999999999999
 42
0.9999999999999998
  0
LWPOLYLINE
  5
318
330
A
100
AcDbEntity
  8
outline
  6
Continuous
370
     0
100
AcDbPolyline
 90
        8
 70
   129
 43
0.0
 10
4.3
 20
-0.0000000000000002
 10
0.1
 20
0.0
 42
-0.4142135623730951
 10
0.0
 20
0.1000000000000001
 10
0.0000000000000001
 20
6.299999999999999
 42
-0.4142135623730951
 10
0.1000000000000001
 20
6.399999999999999
 10
4.3
 20
6.399999999999999
 42
-0.4142135623730951
 10
4.4
 20
6.299999999999999
 10
4.4
 20
0.0999999999999999
 42
-0.4142135623730951
  0
LWPOLYLINE
  5
31C
330
A
100
AcDbEntity
  8
holes
  6
Continuous
370
     0
100
AcDbPolyline
 90
        8
 70
   129
 43
0.0
 10
0.7500000000000005
 20
1.95
 10
3.65
 20
1.95
 42
-0.4142135623730951
 10
3.75
 20
1.849999999999999
 10
3.75
 20
0.7499999999999999
 42
-0.4142135623730951
 10
3.65
 20
0.6499999999999997
 10
0.7500000000000002
 20
0.6499999999999997
 42
-0.4142135623730951
 10
0.6500000000000003
 20
0.7499999999999999
 10
0.6500000000000005
 20
1.849999999999999
 42
-0.4142135623730951
  0
LWPOLYLINE
  5
31D
330
A
100
AcDbEntity
  8
holes
  6
Continuous
370
     0
100
AcDbPolyline
 90
        8
 70
   129
 43
0.0
 10
0.7500000000000005
 20
4.449999999999998
 10
3.65
 20
4.449999999999998
 42
0.4142135623730951
 10
3.75
 20
4.549999999999998
 10
3.75
 20
5.649999999999999
 42
0.4142135623730951
 10
3.65
 20
5.749999999999999
 10
0.7500000000000002
 20
5.749999999999999
 42
0.4142135623730951
 10
0.6500000000000003
 20
5.649999999999999
 10
0.6500000000000005
 20
4.549999999999998
 42
0.4142135623730951
  0
TEXT
  5
31E
330
A
100
AcDbEntity
  8
0
  6
Continuous
370
     0
100
AcDbText
 10
-9.75
 20
3.5
 30
0.0
 40
0.2
  1
Head To Tilt Bracket
100
AcDbText
  0
TEXT
  5
31F
330
A
100
AcDbEntity
  8
0
  6
Continuous
370
     0
100
AcDbText
 10
-9.75
 20
3.166666666666666
 30
0.0
 40
0.2
  1
Coupler (3D Printed part)
100
AcDbText
  0
TEXT
  5
320
330
A
100
AcDbEntity
  8
0
  6
Continuous
370
     0
100
AcDbText
 10
-9.75
 20
2.833333333333334
 30
0.0
 40
0.2
  1
Mounts Here using counter
100
AcDbText
  0
TEXT
  5
321
330
A
100
AcDbEntity
  8
0
  6
Continuous
370
     0
100
AcDbText
 10
-9.75
 20
2.5
 30
0.0
 40
0.2
  1
sunk screws from reverse
100
AcDbText
  0
TEXT
  5
322
330
A
100
AcDbEntity
  8
0
  6
Continuous
370
     0
100
AcDbText
 10
-9.75
 20
2.166666666666667
 30
0.0
 40
0.2
  1
side 
100
AcDbText
  0
TEXT
  5
323
330
A
100
AcDbEntity
  8
0
  6
Continuous
370
     0
100
AcDbText
 10
-9.75
 20
1.833333333333334
 30
0.0
 40
0.2
  1
--
100
AcDbText
  0
TEXT
  5
324
330
A
100
AcDbEntity
  8
0
  6
Continuous
370
     0
100
AcDbText
 10
-9.75
 20
1.500000000000001
 30
0.0
 40
0.2
  1
Optional: This plate may be
100
AcDbText
  0
TEXT
  5
325
330
A
100
AcDbEntity
  8
0
  6
Continuous
370
     0
100
AcDbText
 10
-9.75
 20
1.166666666666667
 30
0.0
 40
0.2
  1
omittted and Head to Tilt
100
AcDbText
  0
TEXT
  5
326
330
A
100
AcDbEntity
  8
0
  6
Continuous
370
     0
100
AcDbText
 10
-9.75
 20
0.8333333333333341
 30
0.0
 40
0.2
  1
Bracket can be mounted directly to
100
AcDbText
  0
TEXT
  5
327
330
A
100
AcDbEntity
  8
0
  6
Continuous
370
     0
100
AcDbText
 10
-9.75
 20
0.5000000000000007
 30
0.0
 40
0.2
  1
head support (tray with 8 cutouts)
100
AcDbText
  0
LINE
  5
329
330
A
100
AcDbEntity
  8
0
  6
Continuous
 62
     7
100
AcDbLine
 10
-9.280000000000001
 20
5.93
 30
0.0
 11
-9.280000000000001
 21
5.87
 31
0.0
  0
LINE
  5
32A
330
A
100
AcDbEntity
  8
0
  6
Continuous
 62
     7
100
AcDbLine
 10
-9.280000000000001
 20
5.87
 30
0.0
 11
-9.430000000000001
 21
5.72
 31
0.0
  0
LINE
  5
32B
330
A
100
AcDbEntity
  8
0
  6
Continuous
 62
     7
100
AcDbLine
 10
-9.430000000000001
 20
6.08
 30
0.0
 11
-9.280000000000001
 21
5.93
 31
0.0
  0
LINE
  5
32C
330
A
100
AcDbEntity
  8
0
  6
Continuous
 62
     7
100
AcDbLine
 10
-9.280000000000001
 20
5.87
 30
0.0
 11
-5.72
 21
5.87
 31
0.0
  0
LINE
  5
32D
330
A
100
AcDbEntity
  8
0
  6
Continuous
 62
     7
100
AcDbLine
 10
-5.72
 20
5.87
 30
0.0
 11
-5.570000000000002
 21
5.72
 31
0.0
  0
LINE
  5
32E
330
A
100
AcDbEntity
  8
0
  6
Continuous
 62
     7
100
AcDbLine
 10
-5.72
 20
5.87
 30
0.0
 11
-5.72
 21
5.93
 31
0.0
  0
LINE
  5
32F
330
A
100
AcDbEntity
  8
0
  6
Continuous
 62
     7
100
AcDbLine
 10
-5.570000000000002
 20
6.08
 30
0.0
 11
-5.72
 21
5.93
 31
0.0
  0
LINE
  5
330
330
A
100
AcDbEntity
  8
0
  6
Continuous
 62
     7
100
AcDbLine
 10
-5.500000000000001
 20
5.625
 30
0.0
 11
-5.500000000000001
 21
6.175
 31
0.0
  0
LINE
  5
331
330
A
100
AcDbEntity
  8
0
  6
Continuous
 62
     7
100
AcDbLine
 10
-9.500000000000001
 20
6.175
 30
0.0
 11
-9.500000000000001
 21
5.625
 31
0.0
  0
LINE
  5
332
330
A
100
AcDbEntity
  8
0
  6
Continuous
 62
     7
100
AcDbLine
 10
-5.500000000000001
 20
6.175
 30
0.0
 11
-9.500000000000001
 21
6.175
 31
0.0
  0
LINE
  5
333
330
A
100
AcDbEntity
  8
0
  6
Continuous
 62
     7
100
AcDbLine
 10
-9.500000000000001
 20
5.625
 30
0.0
 11
-5.500000000000001
 21
5.625
 31
0.0
  0
LINE
  5
334
330
A
100
AcDbEntity
  8
0
  6
Continuous
 62
     7
100
AcDbLine
 10
-5.72
 20
5.93
 30
0.0
 11
-9.280000000000001
 21
5.93
 31
0.0
  0
LINE
  5
335
330
A
100
AcDbEntity
  8
0
  6
Continuous
 62
     7
100
AcDbLine
 10
-8.850000000000001
 20
5.055250953099999
 30
0.0
 11
-8.950000000000001
 21
5.055250953099999
 31
0.0
  0
LINE
  5
336
330
A
100
AcDbEntity
  8
0
  6
Continuous
 62
     7
100
AcDbLine
 10
-8.950000000000001
 20
5.625
 30
0.0
 11
-8.950000000000001
 21
5.055250953099999
 31
0.0
  0
LINE
  5
337
330
A
100
AcDbEntity
  8
0
  6
Continuous
 62
     7
100
AcDbLine
 10
-8.850000000000001
 20
5.625
 30
0.0
 11
-8.850000000000001
 21
5.055250953099999
 31
0.0
  0
LINE
  5
338
330
A
100
AcDbEntity
  8
0
  6
Continuous
 62
     7
100
AcDbLine
 10
-7.450000000000001
 20
5.625
 30
0.0
 11
-7.450000000000001
 21
5.055250953099999
 31
0.0
  0
LINE
  5
339
330
A
100
AcDbEntity
  8
0
  6
Continuous
 62
     7
100
AcDbLine
 10
-7.450000000000001
 20
5.055250953099999
 30
0.0
 11
-7.55
 21
5.055250953099999
 31
0.0
  0
LINE
  5
33A
330
A
100
AcDbEntity
  8
0
  6
Continuous
 62
     7
100
AcDbLine
 10
-7.55
 20
5.625
 30
0.0
 11
-7.55
 21
5.055250953099999
 31
0.0
  0
LINE
  5
33B
330
A
100
AcDbEntity
  8
0
  6
Continuous
 62
     7
100
AcDbLine
 10
-6.150000000000001
 20
5.055250953099999
 30
0.0
 11
-6.05
 21
5.055250953099999
 31
0.0
  0
LINE
  5
33C
330
A
100
AcDbEntity
  8
0
  6
Continuous
 62
     7
100
AcDbLine
 10
-6.150000000000001
 20
5.625
 30
0.0
 11
-6.150000000000001
 21
5.055250953099999
 31
0.0
  0
LINE
  5
33D
330
A
100
AcDbEntity
  8
0
  6
Continuous
 62
     7
100
AcDbLine
 10
-6.05
 20
5.625
 30
0.0
 11
-6.05
 21
5.055250953099999
 31
0.0
  0
LINE
  5
33E
330
A
100
AcDbEntity
  8
0
  6
Continuous
 62
     7
100
AcDbLine
 10
-6.150000000000001
 20
6.744749046900001
 30
0.0
 11
-6.05
 21
6.744749046900001
 31
0.0
  0
LINE
  5
33F
330
A
100
AcDbEntity
  8
0
  6
Continuous
 62
     7
100
AcDbLine
 10
-6.05
 20
6.744749046900001
 30
0.0
 11
-6.05
 21
6.175
 31
0.0
  0
LINE
  5
340
330
A
100
AcDbEntity
  8
0
  6
Continuous
 62
     7
100
AcDbLine
 10
-6.150000000000001
 20
6.744749046900001
 30
0.0
 11
-6.150000000000001
 21
6.175
 31
0.0
  0
LINE
  5
341
330
A
100
AcDbEntity
  8
0
  6
Continuous
 62
     7
100
AcDbLine
 10
-8.850000000000001
 20
6.744749046900001
 30
0.0
 11
-8.950000000000001
 21
6.744749046900001
 31
0.0
  0
LINE
  5
342
330
A
100
AcDbEntity
  8
0
  6
Continuous
 62
     7
100
AcDbLine
 10
-8.950000000000001
 20
6.744749046900001
 30
0.0
 11
-8.950000000000001
 21
6.175
 31
0.0
  0
LINE
  5
343
330
A
100
AcDbEntity
  8
0
  6
Continuous
 62
     7
100
AcDbLine
 10
-8.850000000000001
 20
6.744749046900001
 30
0.0
 11
-8.850000000000001
 21
6.175
 31
0.0
  0
LINE
  5
344
330
A
100
AcDbEntity
  8
0
  6
Continuous
 62
     7
100
AcDbLine
 10
-7.450000000000001
 20
6.744749046900001
 30
0.0
 11
-7.55
 21
6.744749046900001
 31
0.0
  0
LINE
  5
345
330
A
100
AcDbEntity
  8
0
  6
Continuous
 62
     7
100
AcDbLine
 10
-7.450000000000001
 20
6.744749046900001
 30
0.0
 11
-7.450000000000001
 21
6.175
 31
0.0
  0
LINE
  5
346
330
A
100
AcDbEntity
  8
0
  6
Continuous
 62
     7
100
AcDbLine
 10
-7.55
 20
6.744749046900001
 30
0.0
 11
-7.55
 21
6.175
 31
0.0
  0
LINE
  5
347
330
A
100
AcDbEntity
  8
0
  6
Continuous
 62
     7
100
AcDbLine
 10
-5.500000000000001
 20
6.175
 30
0.0
 11
-5.350000000000001
 21
6.325
 31
0.0
  0
LINE
  5
348
330
A
100
AcDbEntity
  8
0
  6
Continuous
 62
     7
100
AcDbLine
 10
-5.500000000000001
 20
5.625
 30
0.0
 11
-5.350000000000001
 21
5.475
 31
0.0
  0
LINE
  5
349
330
A
100
AcDbEntity
  8
0
  6
Continuous
 62
     7
100
AcDbLine
 10
-9.65
 20
6.325
 30
0.0
 11
-9.500000000000001
 21
6.175
 31
0.0
  0
LINE
  5
34A
330
A
100
AcDbEntity
  8
0
  6
Continuous
 62
     7
100
AcDbLine
 10
-9.65
 20
5.475
 30
0.0
 11
-9.500000000000001
 21
5.625
 31
0.0
  0
CIRCLE
  5
34B
330
A
100
AcDbEntity
  8
0
  6
Continuous
 62
     7
100
AcDbCircle
 10
-9.500000000000001
 20
6.649999999999999
 30
0.0
 40
0.065
  0
LINE
  5
34C
330
A
100
AcDbEntity
  8
0
  6
Continuous
 62
     7
100
AcDbLine
 10
-9.600000000000001
 20
6.85
 30
0.0
 11
-5.400000000000002
 21
6.85
 31
0.0
  0
LINE
  5
34D
330
A
100
AcDbEntity
  8
0
  6
Continuous
 62
     7
100
AcDbLine
 10
-5.300000000000001
 20
6.75
 30
0.0
 11
-5.300000000000001
 21
5.05
 31
0.0
  0
LINE
  5
34E
330
A
100
AcDbEntity
  8
0
  6
Continuous
 62
     7
100
AcDbLine
 10
-5.400000000000002
 20
4.95
 30
0.0
 11
-9.600000000000001
 21
4.95
 31
0.0
  0
LINE
  5
34F
330
A
100
AcDbEntity
  8
0
  6
Continuous
 62
     7
100
AcDbLine
 10
-9.700000000000001
 20
5.05
 30
0.0
 11
-9.700000000000001
 21
6.75
 31
0.0
  0
CIRCLE
  5
350
330
A
100
AcDbEntity
  8
0
  6
Continuous
 62
     7
100
AcDbCircle
 10
-5.500000000000001
 20
5.15
 30
0.0
 40
0.065
  0
CIRCLE
  5
351
330
A
100
AcDbEntity
  8
0
  6
Continuous
 62
     7
100
AcDbCircle
 10
-5.500000000000001
 20
6.649999999999999
 30
0.0
 40
0.065
  0
CIRCLE
  5
352
330
A
100
AcDbEntity
  8
0
  6
Continuous
 62
     7
100
AcDbCircle
 10
-9.500000000000001
 20
5.15
 30
0.0
 40
0.065
  0
ARC
  5
353
330
A
100
AcDbEntity
  8
0
  6
Continuous
 62
     7
100
AcDbCircle
 10
-9.600000000000001
 20
5.05
 30
0.0
 40
0.1
100
AcDbArc
 50
180.0
 51
270.0
  0
ARC
  5
354
330
A
100
AcDbEntity
  8
0
  6
Continuous
 62
     7
100
AcDbCircle
 10
-5.400000000000002
 20
5.05
 30
0.0
 40
0.1
100
AcDbArc
 50
270.0
 51
0.0
  0
ARC
  5
355
330
A
100
AcDbEntity
  8
0
  6
Continuous
 62
     7
100
AcDbCircle
 10
-5.400000000000002
 20
6.75
 30
0.0
 40
0.1
100
AcDbArc
 50
0.0
 51
90.0
  0
ARC
  5
356
330
A
100
AcDbEntity
  8
0
  6
Continuous
 62
     7
100
AcDbCircle
 10
-9.600000000000001
 20
6.75
 30
0.0
 40
0.1
100
AcDbArc
 50
90.0
 51
180.0
  0
LWPOLYLINE
  5
357
330
A
100
AcDbEntity
  8
0
  6
Continuous
370
     0
100
AcDbPolyline
 90
        2
 70
   128
 43
0.0
 10
-9.700000000000001
 20
5.9
 10
-5.300000000000001
 20
5.9
  0
LWPOLYLINE
  5
359
330
A
100
AcDbEntity
  8
0
  6
Continuous
370
     0
100
AcDbPolyline
 90
        2
 70
   128
 43
0.0
 10
-4.2
 20
2.299999999999999
 10
-0.0999999999999998
 20
3.349999999999999
  0
TEXT
  5
35A
330
A
100
AcDbEntity
  8
0
  6
Continuous
370
     0
100
AcDbText
 10
-0.5999999999999997
 20
11.55
 30
0.0
 40
0.4
  1
HeadToTiltBracketSlider
100
AcDbText
  0
TEXT
  5
35B
330
A
100
AcDbEntity
  8
0
  6
Continuous
370
     0
100
AcDbText
 10
-2.550000000000001
 20
9.099999999999999
 30
0.0
 40
0.2
  1
LaserCut Pattern    Red=Holes Layer,  Green = Outline Layer (Cut Last)
100
AcDbText
  0
TEXT
  5
35C
330
A
100
AcDbEntity
  8
0
  6
Continuous
370
     0
100
AcDbText
 10
7.6
 20
-2.65
 30
0.0
 40
0.2
  1
Ron Grant  Feb 11, 2014
100
AcDbText
  0
TEXT
  5
35E
330
A
100
AcDbEntity
  8
0
  6
Continuous
370
     0
100
AcDbText
 10
-9.8
 20
-3.45
 30
0.0
 40
0.2
  1
Note: Head_TopSupport is shown in this drawing, but not laser cut.
100
AcDbText
  0
TEXT
  5
35F
330
A
100
AcDbEntity
  8
0
  6
Continuous
370
     0
100
AcDbText
 10
-9.8
 20
-3.783333333333334
 30
0.0
 40
0.2
  1
Head_TopSupport is mounted to head along with its two support bars shown at right.
100
AcDbText
  0
TEXT
  5
360
330
A
100
AcDbEntity
  8
0
  6
Continuous
370
     0
100
AcDbText
 10
-9.8
 20
-4.116666666666667
 30
0.0
 40
0.2
  1
Outline of head as defined by 3/4" quarter round and 3D printed round corners is also shown in this drawing.
100
AcDbText
  0
TEXT
  5
361
330
A
100
AcDbEntity
  8
0
  6
Continuous
370
     0
100
AcDbText
 10
-11.05
 20
7.25
 30
0.0
 40
0.2
  1
top view of HeadToTiltBracketCoupler
100
AcDbText
  0
TEXT
  5
362
330
A
100
AcDbEntity
  8
0
  6
Continuous
370
     0
100
AcDbText
 10
-2.350000000000001
 20
10.55
 30
0.0
 40
0.2
  1
(provides ~ +/- 1 inch of adjustable head shell position with respect 
100
AcDbText
  0
TEXT
  5
363
330
A
100
AcDbEntity
  8
0
  6
Continuous
370
     0
100
AcDbText
 10
-2.350000000000001
 20
10.21666666666666
 30
0.0
 40
0.2
  1
to tilt bracket part of head pan tilt assembly
100
AcDbText
  0
LWPOLYLINE
  5
366
330
A
100
AcDbEntity
  8
holes
  6
Continuous
370
     0
100
AcDbPolyline
 90
        8
 70
   129
 43
0.0
 10
0.7500000000000005
 20
2.549999999999998
 10
3.65
 20
2.549999999999998
 42
0.4142135623730951
 10
3.75
 20
2.649999999999999
 10
3.75
 20
3.749999999999999
 42
0.4142135623730951
 10
3.65
 20
3.849999999999999
 10
0.7500000000000002
 20
3.849999999999999
 42
0.4142135623730951
 10
0.6500000000000003
 20
3.749999999999999
 10
0.6500000000000005
 20
2.649999999999999
 42
0.4142135623730951
  0
ENDSEC
  0
SECTION
  2
OBJECTS
  0
DICTIONARY
  5
19
330
0
100
AcDbDictionary
281
     1
  3
ACAD_GROUP
350
1A
  3
ACAD_LAYOUT
350
1E
  3
ACAD_MLINESTYLE
350
1B
  3
ACAD_PLOTSETTINGS
350
22
  3
ACAD_PLOTSTYLENAME
350
1F
  3
ACAD_WIPEOUT_VARS
350
23
  0
DICTIONARY
  5
1A
102
{ACAD_REACTORS
330
19
102
}
330
19
100
AcDbDictionary
281
     1
  0
DICTIONARY
  5
1E
102
{ACAD_REACTORS
330
19
102
}
330
19
100
AcDbDictionary
281
     1
  3
Layout1
350
21
  3
Model
350
20
  0
DICTIONARY
  5
1B
102
{ACAD_REACTORS
330
19
102
}
330
19
100
AcDbDictionary
281
     1
  3
Standard
350
1C
  0
DICTIONARY
  5
22
102
{ACAD_REACTORS
330
19
102
}
330
19
100
AcDbDictionary
281
     1
  0
ACDBDICTIONARYWDFLT
  5
1F
102
{ACAD_REACTORS
330
19
102
}
330
19
100
AcDbDictionary
281
     1
  3
Normal
350
1D
100
AcDbDictionaryWithDefault
340
1D
  0
WIPEOUTVARIABLES
  5
23
330
19
100
AcDbWipeoutVariables
 70
     1
  0
LAYOUT
  5
21
102
{ACAD_REACTORS
330
1E
102
}
330
1E
100
AcDbPlotSettings
  1

  2

  4

  6

 40
0.0
 41
0.0
 42
0.0
 43
0.0
 44
0.0
 45
0.0
 46
0.0
 47
0.0
 48
0.0
 49
0.0
140
0.0
141
0.0
142
1.0
143
1.0
 70
     0
 72
     0
 73
     0
 74
     0
  7

 75
     0
147
1.0
148
0.0
149
0.0
100
AcDbLayout
  1
Layout1
 70
     1
 71
     1
 10
0.0
 20
0.0
 11
12.0
 21
9.0
 12
0.0
 22
0.0
 32
0.0
 14
1.000000000000000E+20
 24
1.000000000000000E+20
 34
1.000000000000000E+20
 15
-1.000000000000000E+20
 25
-1.000000000000000E+20
 35
-1.000000000000000E+20
146
0.0
 13
0.0
 23
0.0
 33
0.0
 16
1.0
 26
0.0
 36
0.0
 17
0.0
 27
1.0
 37
0.0
 76
     0
330
B
  0
LAYOUT
  5
20
102
{ACAD_REACTORS
330
1E
102
}
330
1E
100
AcDbPlotSettings
  1

  2

  4

  6

 40
0.0
 41
0.0
 42
0.0
 43
0.0
 44
0.0
 45
0.0
 46
0.0
 47
0.0
 48
0.0
 49
0.0
140
0.0
141
0.0
142
1.0
143
1.0
 70
  1024
 72
     0
 73
     0
 74
     0
  7

 75
     0
147
1.0
148
0.0
149
0.0
100
AcDbLayout
  1
Model
 70
     0
 71
     0
 10
0.0
 20
0.0
 11
0.0
 21
0.0
 12
0.0
 22
0.0
 32
0.0
 14
0.0
 24
0.0
 34
0.0
 15
0.0
 25
0.0
 35
0.0
146
0.0
 13
0.0
 23
0.0
 33
0.0
 16
0.0
 26
0.0
 36
0.0
 17
0.0
 27
0.0
 37
0.0
 76
     0
330
A
  0
MLINESTYLE
  5
1C
102
{ACAD_REACTORS
330
1B
102
}
330
1B
100
AcDbMlineStyle
  2
STANDARD
 70
     0
  3

 62
     0
 51
90.0
 52
90.0
 71
     2
 49
0.5
 62
   256
  6
BYLAYER
 49
-0.5
 62
   256
  6
BYLAYER
  0
ACDBPLACEHOLDER
  5
1D
102
{ACAD_REACTORS
330
1F
102
}
330
1F
  0
ENDSEC
  0
EOF
