  0
SECTION
  2
HEADER
  9
$ACADVER
  1
AC1015
  9
$ACADMAINTVER
 70
     6
  9
$DWGCODEPAGE
  3
ANSI_1252
  9
$INSBASE
 10
0.0
 20
0.0
 30
0.0
  9
$EXTMIN
 10
-0.274961387652064
 20
-0.4733434671086473
 30
0.0
  9
$EXTMAX
 10
6.204999999999996
 20
6.204999999999996
 30
0.0
  9
$LIMMIN
 10
0.0
 20
0.0
  9
$LIMMAX
 10
5.0
 20
5.0
  9
$ORTHOMODE
 70
     1
  9
$REGENMODE
 70
     1
  9
$FILLMODE
 70
     1
  9
$QTEXTMODE
 70
     0
  9
$MIRRTEXT
 70
     1
  9
$LTSCALE
 40
1.0
  9
$ATTMODE
 70
     1
  9
$TEXTSIZE
 40
0.1
  9
$TRACEWID
 40
0.05
  9
$TEXTSTYLE
  7
Standard
  9
$CLAYER
  8
holes
  9
$CELTYPE
  6
Continuous
  9
$CECOLOR
 62
   256
  9
$CELTSCALE
 40
1.0
  9
$DISPSILH
 70
     0
  9
$DIMSCALE
 40
1.0
  9
$DIMASZ
 40
0.2362204724
  9
$DIMEXO
 40
0.0393700787
  9
$DIMDLI
 40
0.38
  9
$DIMRND
 40
0.0
  9
$DIMDLE
 40
0.0393700787
  9
$DIMEXE
 40
0.18
  9
$DIMTP
 40
0.0
  9
$DIMTM
 40
0.0
  9
$DIMTXT
 40
0.1377952756
  9
$DIMCEN
 40
0.09
  9
$DIMTSZ
 40
0.0
  9
$DIMTOL
 70
     0
  9
$DIMLIM
 70
     0
  9
$DIMTIH
 70
     1
  9
$DIMTOH
 70
     1
  9
$DIMSE1
 70
     0
  9
$DIMSE2
 70
     0
  9
$DIMTAD
 70
     1
  9
$DIMZIN
 70
     0
  9
$DIMBLK
  1

  9
$DIMASO
 70
     1
  9
$DIMSHO
 70
     1
  9
$DIMPOST
  1

  9
$DIMAPOST
  1

  9
$DIMALT
 70
     0
  9
$DIMALTD
 70
     2
  9
$DIMALTF
 40
25.4
  9
$DIMLFAC
 40
2.0
  9
$DIMTOFL
 70
     0
  9
$DIMTVP
 40
0.0
  9
$DIMTIX
 70
     0
  9
$DIMSOXD
 70
     0
  9
$DIMSAH
 70
     0
  9
$DIMBLK1
  1

  9
$DIMBLK2
  1

  9
$DIMSTYLE
  2
Standard
  9
$DIMCLRD
 70
     0
  9
$DIMCLRE
 70
     0
  9
$DIMCLRT
 70
     0
  9
$DIMTFAC
 40
1.0
  9
$DIMGAP
 40
0.0393700787
  9
$DIMJUST
 70
     0
  9
$DIMSD1
 70
     0
  9
$DIMSD2
 70
     0
  9
$DIMTOLJ
 70
     1
  9
$DIMTZIN
 70
     0
  9
$DIMALTZ
 70
     0
  9
$DIMALTTZ
 70
     0
  9
$DIMUPT
 70
     0
  9
$DIMDEC
 70
     4
  9
$DIMTDEC
 70
     4
  9
$DIMALTU
 70
     2
  9
$DIMALTTD
 70
     2
  9
$DIMTXSTY
  7
Standard
  9
$DIMAUNIT
 70
     0
  9
$DIMADEC
 70
     0
  9
$DIMALTRND
 40
0.0
  9
$DIMAZIN
 70
     0
  9
$DIMDSEP
 70
     0
  9
$DIMATFIT
 70
     3
  9
$DIMFRAC
 70
     0
  9
$DIMLDRBLK
  1

  9
$DIMLUNIT
 70
     2
  9
$DIMLWD
 70
     0
  9
$DIMLWE
 70
     0
  9
$DIMTMOVE
 70
     0
  9
$LUNITS
 70
     2
  9
$LUPREC
 70
     2
  9
$SKETCHINC
 40
0.1
  9
$FILLETRAD
 40
0.1
  9
$AUNITS
 70
     0
  9
$AUPREC
 70
     2
  9
$MENU
  1
acad
  9
$ELEVATION
 40
0.0
  9
$PELEVATION
 40
0.0
  9
$THICKNESS
 40
0.0
  9
$LIMCHECK
 70
     0
  9
$CHAMFERA
 40
0.0
  9
$CHAMFERB
 40
0.0
  9
$CHAMFERC
 40
0.0
  9
$CHAMFERD
 40
0.0
  9
$SKPOLY
 70
     0
  9
$TDCREATE
 40
2456680.259351411
  9
$TDUCREATE
 40
2456680.509351412
  9
$TDUPDATE
 40
2456719.925084293
  9
$TDUUPDATE
 40
2456720.175084293
  9
$TDINDWG
 40
0.4590165856
  9
$TDUSRTIMER
 40
0.4590160185
  9
$USRTIMER
 70
     1
  9
$ANGBASE
 50
0.0
  9
$ANGDIR
 70
     0
  9
$PDMODE
 70
     0
  9
$PDSIZE
 40
-1.0
  9
$PLINEWID
 40
0.0
  9
$SPLFRAME
 70
     0
  9
$SPLINETYPE
 70
     6
  9
$SPLINESEGS
 70
     8
  9
$HANDSEED
  5
154
  9
$SURFTAB1
 70
     6
  9
$SURFTAB2
 70
     6
  9
$SURFTYPE
 70
     6
  9
$SURFU
 70
     6
  9
$SURFV
 70
     6
  9
$UCSBASE
  2

  9
$UCSNAME
  2

  9
$UCSORG
 10
0.0
 20
0.0
 30
0.0
  9
$UCSXDIR
 10
1.0
 20
0.0
 30
0.0
  9
$UCSYDIR
 10
0.0
 20
1.0
 30
0.0
  9
$UCSORTHOREF
  2

  9
$UCSORTHOVIEW
 70
     0
  9
$UCSORGTOP
 10
0.0
 20
0.0
 30
0.0
  9
$UCSORGBOTTOM
 10
0.0
 20
0.0
 30
0.0
  9
$UCSORGLEFT
 10
0.0
 20
0.0
 30
0.0
  9
$UCSORGRIGHT
 10
0.0
 20
0.0
 30
0.0
  9
$UCSORGFRONT
 10
0.0
 20
0.0
 30
0.0
  9
$UCSORGBACK
 10
0.0
 20
0.0
 30
0.0
  9
$PUCSBASE
  2

  9
$PUCSNAME
  2

  9
$PUCSORG
 10
0.0
 20
0.0
 30
0.0
  9
$PUCSXDIR
 10
1.0
 20
0.0
 30
0.0
  9
$PUCSYDIR
 10
0.0
 20
1.0
 30
0.0
  9
$PUCSORTHOREF
  2

  9
$PUCSORTHOVIEW
 70
     0
  9
$PUCSORGTOP
 10
0.0
 20
0.0
 30
0.0
  9
$PUCSORGBOTTOM
 10
0.0
 20
0.0
 30
0.0
  9
$PUCSORGLEFT
 10
0.0
 20
0.0
 30
0.0
  9
$PUCSORGRIGHT
 10
0.0
 20
0.0
 30
0.0
  9
$PUCSORGFRONT
 10
0.0
 20
0.0
 30
0.0
  9
$PUCSORGBACK
 10
0.0
 20
0.0
 30
0.0
  9
$USERI1
 70
     0
  9
$USERI2
 70
     0
  9
$USERI3
 70
     0
  9
$USERI4
 70
     0
  9
$USERI5
 70
     0
  9
$USERR1
 40
0.0
  9
$USERR2
 40
0.0
  9
$USERR3
 40
0.0
  9
$USERR4
 40
0.0
  9
$USERR5
 40
0.0
  9
$WORLDVIEW
 70
     1
  9
$SHADEDGE
 70
     3
  9
$SHADEDIF
 70
    70
  9
$TILEMODE
 70
     1
  9
$MAXACTVP
 70
    16
  9
$PINSBASE
 10
0.0
 20
0.0
 30
0.0
  9
$PLIMCHECK
 70
     0
  9
$PEXTMIN
 10
1.000000000000000E+20
 20
1.000000000000000E+20
 30
1.000000000000000E+20
  9
$PEXTMAX
 10
-1.000000000000000E+20
 20
-1.000000000000000E+20
 30
-1.000000000000000E+20
  9
$PLIMMIN
 10
0.0
 20
0.0
  9
$PLIMMAX
 10
12.0
 20
9.0
  9
$UNITMODE
 70
     0
  9
$VISRETAIN
 70
     0
  9
$PLINEGEN
 70
     1
  9
$PSLTSCALE
 70
     1
  9
$TREEDEPTH
 70
  3020
  9
$CMLSTYLE
  2
Standard
  9
$CMLJUST
 70
     0
  9
$CMLSCALE
 40
1.0
  9
$PROXYGRAPHICS
 70
     0
  9
$MEASUREMENT
 70
     0
  9
$CELWEIGHT
370
     0
  9
$ENDCAPS
280
     0
  9
$JOINSTYLE
280
     0
  9
$LWDISPLAY
290
     0
  9
$INSUNITS
 70
     0
  9
$HYPERLINKBASE
  1

  9
$STYLESHEET
  1

  9
$XEDIT
290
     1
  9
$CEPSNTYPE
380
     0
  9
$PSTYLEMODE
290
     1
  9
$FINGERPRINTGUID
  2

  9
$VERSIONGUID
  2
{7171642D-671F-48EE-842F-98663DB1374A}
  9
$EXTNAMES
290
     1
  9
$PSVPSCALE
 40
0.0
  9
$OLESTARTUP
290
     0
  0
ENDSEC
  0
SECTION
  2
CLASSES
  0
CLASS
  1
LWPOLYLINE
  2
AcDbPolyline
  3
AutoCAD 2000
 90
    32768
280
     0
281
     1
  0
CLASS
  1
IMAGE
  2
AcDbRasterImage
  3
ISM
 90
    32895
280
     0
281
     1
  0
CLASS
  1
OLE2FRAME
  2
AcDbOle2Frame
  3
AutoCAD 2000
 90
    32768
280
     0
281
     1
  0
CLASS
  1
HATCH
  2
AcDbHatch
  3
AutoCAD 2000
 90
    32768
280
     0
281
     1
  0
CLASS
  1
DICTIONARYVAR
  2
AcDbDictionaryVar
  3
AutoCAD 2000
 90
    32768
280
     0
281
     0
  0
CLASS
  1
RASTERVARIABLES
  2
AcDbRasterVariables
  3
ISM
 90
    32768
280
     0
281
     0
  0
CLASS
  1
IMAGEDEF
  2
AcDbRasterImageDef
  3
ISM
 90
    32768
280
     0
281
     0
  0
CLASS
  1
IMAGEDEF_REACTOR
  2
AcDbRasterImageDefReactor
  3
ISM
 90
    32769
280
     0
281
     0
  0
CLASS
  1
IDBUFFER
  2
AcDbIdBuffer
  3
AutoCAD 2000
 90
    32768
280
     0
281
     0
  0
CLASS
  1
SPATIAL_FILTER
  2
AcDbSpatialFilter
  3
AutoCAD 2000
 90
    32768
280
     0
281
     0
  0
CLASS
  1
XRECORD
  2
AcDbXrecord
  3
AutoCAD 2000
 90
    32768
280
     0
281
     0
  0
CLASS
  1
SORTENTSTABLE
  2
AcDbSortentsTable
  3
AutoCAD 2000
 90
    32768
280
     0
281
     0
  0
CLASS
  1
LAYER_INDEX
  2
AcDbLayerIndex
  3
AutoCAD 2000
 90
    32768
280
     0
281
     0
  0
CLASS
  1
SPATIAL_INDEX
  2
AcDbSpatialIndex
  3
AutoCAD 2000
 90
    32768
280
     0
281
     0
  0
CLASS
  1
OBJECT_PTR
  2
CAseDLPNTableRecord
  3
"ASE-LPNTableRecord"
 90
    32769
280
     0
281
     0
  0
CLASS
  1
LAYOUT
  2
AcDbLayout
  3
AutoCAD 2000
 90
        0
280
     0
281
     0
  0
CLASS
  1
PLOTSETTINGS
  2
AcDbPlotSettings
  3
AutoCAD 2000
 90
    32768
280
     0
281
     0
  0
CLASS
  1
ACDBDICTIONARYWDFLT
  2
AcDbDictionaryWithDefault
  3
AutoCAD 2000
 90
        0
280
     0
281
     0
  0
CLASS
  1
ACDBPLACEHOLDER
  2
AcDbPlaceHolder
  3
AutoCAD 2000
 90
        0
280
     0
281
     0
  0
CLASS
  1
VBA_PROJECT
  2
AcDbVbaProject
  3
acadvba
 90
    32768
280
     0
281
     0
  0
CLASS
  1
WIPEOUT
  2
AcDbWipeout
  3
WipeOut|AutoCAD Express Tool|expresstools@autodesk.com
 90
    32895
280
     0
281
     1
  0
CLASS
  1
WIPEOUTVARIABLES
  2
AcDbWipeoutVariables
  3
WipeOut|AutoCAD Express Tool|expresstools@autodesk.com
 90
        0
280
     0
281
     0
  0
CLASS
  1
RTEXT
  2
RText
  3
RText|AutoCAD Express Tool|expresstools@autodesk.com
 90
    32768
280
     0
281
     1
  0
CLASS
  1
ARCALIGNEDTEXT
  2
AcDbArcAlignedText
  3
ATEXT|AutoCAD Express Tool|expresstools@autodesk.com
 90
    32768
280
     0
281
     1
  0
ENDSEC
  0
SECTION
  2
TABLES
  0
TABLE
  2
VPORT
  5
7
330
0
100
AcDbSymbolTable
 70
     2
  0
VPORT
  5
153
330
7
100
AcDbSymbolTableRecord
100
AcDbViewportTableRecord
  2
*Active
 70
     0
 10
0.0
 20
0.0
 11
1.0
 21
1.0
 12
4.679645731257354
 22
3.386187138861174
 13
0.0
 23
0.0
 14
0.1
 24
0.1
 15
0.0
 25
0.0
 16
0.0
 26
0.0
 36
1.0
 17
0.0
 27
0.0
 37
0.0
 40
8.316714153401381
 41
2.306666666666666
 42
50.0
 43
0.0
 44
0.0
 50
0.0
 51
0.0
 71
     0
 72
  2000
 73
     1
 74
     0
 75
     0
 76
     1
 77
     0
 78
     0
281
     0
 65
     0
110
0.0
120
0.0
130
0.0
111
1.0
121
0.0
131
0.0
112
0.0
122
1.0
132
0.0
 79
     0
146
0.0
  0
ENDTAB
  0
TABLE
  2
LTYPE
  5
4
330
0
100
AcDbSymbolTable
 70
    18
  0
LTYPE
  5
11
330
4
100
AcDbSymbolTableRecord
100
AcDbLinetypeTableRecord
  2
ByBlock
 70
     0
  3

 72
    65
 73
     0
 40
0.0
  0
LTYPE
  5
12
330
4
100
AcDbSymbolTableRecord
100
AcDbLinetypeTableRecord
  2
ByLayer
 70
     0
  3

 72
    65
 73
     0
 40
0.0
  0
LTYPE
  5
13
330
4
100
AcDbSymbolTableRecord
100
AcDbLinetypeTableRecord
  2
Continuous
 70
     0
  3
Solid line
 72
    65
 73
     0
 40
0.0
  0
LTYPE
  5
25
330
4
100
AcDbSymbolTableRecord
100
AcDbLinetypeTableRecord
  2
SLDVISIBLE1
 70
     0
  3

 72
    65
 73
     1
 40
2.399999999999999
 49
2.399999999999999
 74
     0
  0
LTYPE
  5
26
330
4
100
AcDbSymbolTableRecord
100
AcDbLinetypeTableRecord
  2
SLDHIDDEN0
 70
     0
  3

 72
    65
 73
     2
 40
0.075
 49
0.05
 74
     0
 49
-0.025
 74
     0
  0
LTYPE
  5
27
330
4
100
AcDbSymbolTableRecord
100
AcDbLinetypeTableRecord
  2
SLDSKETCH0
 70
     0
  3

 72
    65
 73
     1
 40
2.399999999999999
 49
2.399999999999999
 74
     0
  0
LTYPE
  5
28
330
4
100
AcDbSymbolTableRecord
100
AcDbLinetypeTableRecord
  2
SLDDETAIL0
 70
     0
  3

 72
    65
 73
     1
 40
2.399999999999999
 49
2.399999999999999
 74
     0
  0
LTYPE
  5
29
330
4
100
AcDbSymbolTableRecord
100
AcDbLinetypeTableRecord
  2
SLDSECTION0
 70
     0
  3

 72
    65
 73
     4
 40
0.4
 49
0.25
 74
     0
 49
-0.05
 74
     0
 49
0.05
 74
     0
 49
-0.05
 74
     0
  0
LTYPE
  5
2A
330
4
100
AcDbSymbolTableRecord
100
AcDbLinetypeTableRecord
  2
SLDDIMENSIONS0
 70
     0
  3

 72
    65
 73
     1
 40
2.399999999999999
 49
2.399999999999999
 74
     0
  0
LTYPE
  5
2B
330
4
100
AcDbSymbolTableRecord
100
AcDbLinetypeTableRecord
  2
SLDCENTERLINES0
 70
     0
  3

 72
    65
 73
     4
 40
0.75
 49
0.6
 74
     0
 49
-0.05
 74
     0
 49
0.05
 74
     0
 49
-0.05
 74
     0
  0
LTYPE
  5
2C
330
4
100
AcDbSymbolTableRecord
100
AcDbLinetypeTableRecord
  2
SLDCROSSHATCH0
 70
     0
  3

 72
    65
 73
     1
 40
2.399999999999999
 49
2.399999999999999
 74
     0
  0
LTYPE
  5
2D
330
4
100
AcDbSymbolTableRecord
100
AcDbLinetypeTableRecord
  2
SLDTANVISIBLE0
 70
     0
  3

 72
    65
 73
     6
 40
0.5
 49
0.25
 74
     0
 49
-0.05
 74
     0
 49
0.05
 74
     0
 49
-0.05
 74
     0
 49
0.05
 74
     0
 49
-0.05
 74
     0
  0
LTYPE
  5
2E
330
4
100
AcDbSymbolTableRecord
100
AcDbLinetypeTableRecord
  2
SLDDETAILBORDER0
 70
     0
  3

 72
    65
 73
     1
 40
2.399999999999999
 49
2.399999999999999
 74
     0
  0
LTYPE
  5
2F
330
4
100
AcDbSymbolTableRecord
100
AcDbLinetypeTableRecord
  2
SLDDUMMY1
 70
     0
  3

 72
    65
 73
     0
 40
0.0
  0
LTYPE
  5
30
330
4
100
AcDbSymbolTableRecord
100
AcDbLinetypeTableRecord
  2
SLDTANHIDDEN0
 70
     0
  3

 72
    65
 73
     2
 40
0.075
 49
0.05
 74
     0
 49
-0.025
 74
     0
  0
LTYPE
  5
31
330
4
100
AcDbSymbolTableRecord
100
AcDbLinetypeTableRecord
  2
SLDVIEWARROW2
 70
     0
  3

 72
    65
 73
     6
 40
0.5
 49
0.25
 74
     0
 49
-0.05
 74
     0
 49
0.05
 74
     0
 49
-0.05
 74
     0
 49
0.05
 74
     0
 49
-0.05
 74
     0
  0
LTYPE
  5
32
330
4
100
AcDbSymbolTableRecord
100
AcDbLinetypeTableRecord
  2
SLD--SPACER--0
 70
     0
  3

 72
    65
 73
     1
 40
2.399999999999999
 49
2.399999999999999
 74
     0
  0
LTYPE
  5
33
330
4
100
AcDbSymbolTableRecord
100
AcDbLinetypeTableRecord
  2
SLDUSER-DASHED0
 70
     0
  3

 72
    65
 73
     2
 40
0.075
 49
0.05
 74
     0
 49
-0.025
 74
     0
  0
LTYPE
  5
34
330
4
100
AcDbSymbolTableRecord
100
AcDbLinetypeTableRecord
  2
SLDUSER-PHANTOM0
 70
     0
  3

 72
    65
 73
     6
 40
0.5
 49
0.25
 74
     0
 49
-0.05
 74
     0
 49
0.05
 74
     0
 49
-0.05
 74
     0
 49
0.05
 74
     0
 49
-0.05
 74
     0
  0
LTYPE
  5
35
330
4
100
AcDbSymbolTableRecord
100
AcDbLinetypeTableRecord
  2
SLDUSER-CENTER0
 70
     0
  3

 72
    65
 73
     4
 40
0.75
 49
0.6
 74
     0
 49
-0.05
 74
     0
 49
0.05
 74
     0
 49
-0.05
 74
     0
  0
ENDTAB
  0
TABLE
  2
LAYER
  5
2
330
0
100
AcDbSymbolTable
 70
     4
  0
LAYER
  5
14
330
2
100
AcDbSymbolTableRecord
100
AcDbLayerTableRecord
  2
0
 70
     0
 62
     7
  6
Continuous
370
    -3
390
1D
  0
LAYER
  5
47
330
2
100
AcDbSymbolTableRecord
100
AcDbLayerTableRecord
  2
outline
 70
     0
 62
     3
  6
Continuous
370
    -3
390
1D
  0
LAYER
  5
48
330
2
100
AcDbSymbolTableRecord
100
AcDbLayerTableRecord
  2
holes
 70
     0
 62
     1
  6
Continuous
370
    -3
390
1D
  0
LAYER
  5
87
330
2
100
AcDbSymbolTableRecord
100
AcDbLayerTableRecord
  2
etch
 70
     0
 62
     4
  6
Continuous
370
    -3
390
1D
  0
ENDTAB
  0
TABLE
  2
STYLE
  5
3
330
0
100
AcDbSymbolTable
 70
     1
  0
STYLE
  5
17
330
3
100
AcDbSymbolTableRecord
100
AcDbTextStyleTableRecord
  2
Standard
 70
     0
 40
0.0
 41
1.0
 50
0.0
 71
     0
 42
0.1
  3
txt
  4

  0
ENDTAB
  0
TABLE
  2
VIEW
  5
5
330
0
100
AcDbSymbolTable
 70
     0
  0
ENDTAB
  0
TABLE
  2
UCS
  5
6
330
0
100
AcDbSymbolTable
 70
     0
  0
ENDTAB
  0
TABLE
  2
APPID
  5
8
330
0
100
AcDbSymbolTable
 70
     1
  0
APPID
  5
16
330
8
100
AcDbSymbolTableRecord
100
AcDbRegAppTableRecord
  2
ACAD
 70
     0
  0
ENDTAB
  0
TABLE
  2
DIMSTYLE
  5
9
330
0
100
AcDbSymbolTable
 70
     1
100
AcDbDimStyleTable
 71
     0
  0
DIMSTYLE
105
18
330
9
100
AcDbSymbolTableRecord
100
AcDbDimStyleTableRecord
  2
Standard
 70
     0
340
17
  0
ENDTAB
  0
TABLE
  2
BLOCK_RECORD
  5
1
330
0
100
AcDbSymbolTable
 70
     1
  0
BLOCK_RECORD
  5
A
330
1
100
AcDbSymbolTableRecord
100
AcDbBlockTableRecord
  2
*MODEL_SPACE
340
20
  0
BLOCK_RECORD
  5
B
330
1
100
AcDbSymbolTableRecord
100
AcDbBlockTableRecord
  2
*PAPER_SPACE
340
21
  0
BLOCK_RECORD
  5
D7
330
1
100
AcDbSymbolTableRecord
100
AcDbBlockTableRecord
  2
HipInside_InnerPlate
340
0
102
{BLKREFS
331
EF
102
}
  0
ENDTAB
  0
ENDSEC
  0
SECTION
  2
BLOCKS
  0
BLOCK
  5
D
330
A
100
AcDbEntity
  8
0
100
AcDbBlockBegin
  2
*MODEL_SPACE
 70
     0
 10
0.0
 20
0.0
 30
0.0
  3
*MODEL_SPACE
  1

  0
ENDBLK
  5
E
330
A
100
AcDbEntity
  8
0
100
AcDbBlockEnd
  0
BLOCK
  5
F
330
B
100
AcDbEntity
 67
     1
  8
0
100
AcDbBlockBegin
  2
*PAPER_SPACE
 70
     0
 10
0.0
 20
0.0
 30
0.0
  3
*PAPER_SPACE
  1

  0
ENDBLK
  5
10
330
B
100
AcDbEntity
 67
     1
  8
0
100
AcDbBlockEnd
  0
BLOCK
  5
ED
330
D7
100
AcDbEntity
  8
0
370
     0
100
AcDbBlockBegin
  2
HipInside_InnerPlate
 70
     0
 10
0.0
 20
0.0
 30
0.0
  3
HipInside_InnerPlate
  1

  0
CIRCLE
  5
D8
330
D7
100
AcDbEntity
  8
0
  6
Continuous
370
     0
100
AcDbCircle
 10
5.377641290737884
 20
3.772542485937369
 30
0.0
 40
0.085
  0
CIRCLE
  5
D9
330
D7
100
AcDbEntity
  8
0
  6
Continuous
370
     0
100
AcDbCircle
 10
3.0
 20
3.0
 30
0.0
 40
3.184999999999998
  0
CIRCLE
  5
DA
330
D7
100
AcDbEntity
  8
holes
  6
Continuous
370
     0
100
AcDbCircle
 10
3.0
 20
3.0
 30
0.0
 40
0.1925
  0
LWPOLYLINE
  5
DB
330
D7
100
AcDbEntity
  8
0
  6
Continuous
370
     0
100
AcDbPolyline
 90
        2
 70
   128
 43
0.0
 10
3.0
 20
5.5
 10
3.0
 20
3.964999999999998
  0
LWPOLYLINE
  5
DC
330
D7
100
AcDbEntity
  8
0
  6
Continuous
370
     0
100
AcDbPolyline
 90
        2
 70
   128
 43
0.0
 10
1.530536869268813
 20
0.9774575140626318
 10
4.469463130731181
 20
0.9774575140626319
  0
LWPOLYLINE
  5
DD
330
D7
100
AcDbEntity
  8
0
  6
Continuous
370
     0
100
AcDbPolyline
 90
        2
 70
   128
 43
0.0
 10
3.0
 20
3.0
 10
3.0
 20
3.0
  0
CIRCLE
  5
DE
330
D7
100
AcDbEntity
  8
0
  6
Continuous
370
     0
100
AcDbCircle
 10
3.0
 20
3.0
 30
0.0
 40
0.75
  0
CIRCLE
  5
DF
330
D7
100
AcDbEntity
  8
holes
  6
Continuous
370
     0
100
AcDbCircle
 10
3.749999999999998
 20
3.0
 30
0.0
 40
0.06
  0
CIRCLE
  5
E0
330
D7
100
AcDbEntity
  8
holes
  6
Continuous
370
     0
100
AcDbCircle
 10
2.25
 20
3.0
 30
0.0
 40
0.06
  0
CIRCLE
  5
E1
330
D7
100
AcDbEntity
  8
0
  6
Continuous
370
     0
100
AcDbCircle
 10
5.377641290737884
 20
3.772542485937369
 30
0.0
 40
0.095
  0
CIRCLE
  5
E2
330
D7
100
AcDbEntity
  8
outline
  6
Continuous
370
     0
100
AcDbCircle
 10
3.0
 20
3.0
 30
0.0
 40
3.019999999999998
  0
TEXT
  5
E3
330
D7
100
AcDbEntity
  8
0
  6
Continuous
370
     0
100
AcDbText
 10
4.501042760400566
 20
3.937934553207742
 30
0.0
 40
0.1
  1
tap 10-32 holes for inner plate
 50
18.0
100
AcDbText
  0
CIRCLE
  5
E4
330
D7
100
AcDbEntity
  8
holes
  6
Continuous
370
     0
100
AcDbCircle
 10
5.377641290737884
 20
3.772542485937369
 30
0.0
 40
0.08
  0
CIRCLE
  5
E5
330
D7
100
AcDbEntity
  8
holes
  6
Continuous
370
     0
100
AcDbCircle
 10
3.0
 20
5.5
 30
0.0
 40
0.08
  0
CIRCLE
  5
E6
330
D7
100
AcDbEntity
  8
holes
  6
Continuous
370
     0
100
AcDbCircle
 10
0.6223587092621159
 20
3.772542485937369
 30
0.0
 40
0.08
  0
CIRCLE
  5
E7
330
D7
100
AcDbEntity
  8
holes
  6
Continuous
370
     0
100
AcDbCircle
 10
1.530536869268813
 20
0.9774575140626318
 30
0.0
 40
0.08
  0
CIRCLE
  5
E8
330
D7
100
AcDbEntity
  8
holes
  6
Continuous
370
     0
100
AcDbCircle
 10
4.469463130731181
 20
0.9774575140626318
 30
0.0
 40
0.08
  0
LWPOLYLINE
  5
E9
330
D7
100
AcDbEntity
  8
0
  6
Continuous
370
     0
100
AcDbPolyline
 90
        2
 70
   128
 43
0.0
 10
3.506710599720332
 20
3.001153074957603
 10
3.497788258074417
 20
3.010069111423211
  0
LWPOLYLINE
  5
EA
330
D7
100
AcDbEntity
  8
0
  6
Continuous
370
     0
100
AcDbPolyline
 90
        2
 70
   128
 43
0.0
 10
3.0
 20
3.0
 10
5.110374735548936
 20
3.0
  0
LWPOLYLINE
  5
EB
330
D7
100
AcDbEntity
  8
holes
  6
Continuous
370
     0
100
AcDbPolyline
 90
        4
 70
   129
 43
0.0
 10
4.414213562373094
 20
2.5
 10
3.825363556258693
 20
2.5
 42
-0.5633880930093485
 10
2.174636443741305
 20
2.5
 10
1.585786437626904
 20
2.5
 42
0.707106781186548
  0
LWPOLYLINE
  5
EC
330
D7
100
AcDbEntity
  8
holes
  6
Continuous
370
     0
100
AcDbPolyline
 90
        4
 70
   129
 43
0.0
 10
1.585786437626905
 20
3.5
 10
2.174636443741304
 20
3.5
 42
-0.563388093009348
 10
3.825363556258693
 20
3.5
 10
4.414213562373094
 20
3.5
 42
0.7071067811865476
  0
ENDBLK
  5
EE
330
D7
100
AcDbEntity
  8
0
370
     0
100
AcDbBlockEnd
  0
ENDSEC
  0
SECTION
  2
ENTITIES
  0
CIRCLE
  5
F0
330
A
100
AcDbEntity
  8
0
  6
Continuous
370
     0
100
AcDbCircle
 10
5.39764129073788
 20
3.792542485937366
 30
0.0
 40
0.085
  0
CIRCLE
  5
F1
330
A
100
AcDbEntity
  8
0
  6
Continuous
370
     0
100
AcDbCircle
 10
3.019999999999998
 20
3.019999999999998
 30
0.0
 40
3.184999999999998
  0
CIRCLE
  5
F2
330
A
100
AcDbEntity
  8
holes
  6
Continuous
370
     0
100
AcDbCircle
 10
3.019999999999998
 20
3.019999999999998
 30
0.0
 40
0.1925
  0
LWPOLYLINE
  5
F3
330
A
100
AcDbEntity
  8
0
  6
Continuous
370
     0
100
AcDbPolyline
 90
        2
 70
   128
 43
0.0
 10
3.019999999999998
 20
5.519999999999997
 10
3.019999999999998
 20
3.984999999999995
  0
LWPOLYLINE
  5
F4
330
A
100
AcDbEntity
  8
0
  6
Continuous
370
     0
100
AcDbPolyline
 90
        2
 70
   128
 43
0.0
 10
1.550536869268813
 20
0.9974575140626303
 10
4.489463130731177
 20
0.9974575140626303
  0
LWPOLYLINE
  5
F5
330
A
100
AcDbEntity
  8
0
  6
Continuous
370
     0
100
AcDbPolyline
 90
        2
 70
   128
 43
0.0
 10
3.019999999999998
 20
3.019999999999998
 10
3.019999999999998
 20
3.019999999999998
  0
CIRCLE
  5
F7
330
A
100
AcDbEntity
  8
holes
  6
Continuous
370
     0
100
AcDbCircle
 10
3.769999999999996
 20
3.019999999999998
 30
0.0
 40
0.06
  0
CIRCLE
  5
F8
330
A
100
AcDbEntity
  8
holes
  6
Continuous
370
     0
100
AcDbCircle
 10
2.269999999999996
 20
3.019999999999998
 30
0.0
 40
0.06
  0
CIRCLE
  5
F9
330
A
100
AcDbEntity
  8
0
  6
Continuous
370
     0
100
AcDbCircle
 10
5.39764129073788
 20
3.792542485937366
 30
0.0
 40
0.095
  0
CIRCLE
  5
FA
330
A
100
AcDbEntity
  8
outline
  6
Continuous
370
     0
100
AcDbCircle
 10
3.019999999999998
 20
3.019999999999998
 30
0.0
 40
3.019999999999998
  0
CIRCLE
  5
FC
330
A
100
AcDbEntity
  8
holes
  6
Continuous
370
     0
100
AcDbCircle
 10
5.39764129073788
 20
3.792542485937366
 30
0.0
 40
0.08
  0
CIRCLE
  5
FD
330
A
100
AcDbEntity
  8
holes
  6
Continuous
370
     0
100
AcDbCircle
 10
3.019999999999998
 20
5.519999999999997
 30
0.0
 40
0.08
  0
CIRCLE
  5
FE
330
A
100
AcDbEntity
  8
holes
  6
Continuous
370
     0
100
AcDbCircle
 10
0.6423587092621143
 20
3.792542485937366
 30
0.0
 40
0.08
  0
CIRCLE
  5
FF
330
A
100
AcDbEntity
  8
holes
  6
Continuous
370
     0
100
AcDbCircle
 10
1.550536869268813
 20
0.9974575140626303
 30
0.0
 40
0.08
  0
CIRCLE
  5
100
330
A
100
AcDbEntity
  8
holes
  6
Continuous
370
     0
100
AcDbCircle
 10
4.489463130731177
 20
0.9974575140626303
 30
0.0
 40
0.08
  0
LWPOLYLINE
  5
101
330
A
100
AcDbEntity
  8
0
  6
Continuous
370
     0
100
AcDbPolyline
 90
        2
 70
   128
 43
0.0
 10
3.52671059972033
 20
3.0211530749576
 10
3.517788258074415
 20
3.030069111423208
  0
LWPOLYLINE
  5
102
330
A
100
AcDbEntity
  8
0
  6
Continuous
370
     0
100
AcDbPolyline
 90
        2
 70
   128
 43
0.0
 10
3.019999999999998
 20
3.019999999999998
 10
5.130374735548933
 20
3.019999999999998
  0
LWPOLYLINE
  5
103
330
A
100
AcDbEntity
  8
0
  6
Continuous
370
     0
100
AcDbPolyline
 90
        4
 70
   129
 43
0.0
 10
4.43421356237309
 20
2.519999999999996
 10
3.845363556258691
 20
2.519999999999996
 42
-0.5633880930093485
 10
2.194636443741301
 20
2.519999999999996
 10
1.6057864376269
 20
2.519999999999999
 42
0.707106781186548
  0
LWPOLYLINE
  5
10A
330
A
100
AcDbEntity
  8
0
  6
Continuous
370
     0
100
AcDbPolyline
 90
        4
 70
   129
 43
0.0
 10
2.019999999999996
 20
3.769999999999998
 10
4.019999999999996
 20
3.769999999999998
 10
4.019999999999996
 20
2.269999999999996
 10
2.019999999999996
 20
2.269999999999996
  0
LWPOLYLINE
  5
10B
330
A
100
AcDbEntity
  8
0
  6
Continuous
370
     0
100
AcDbPolyline
 90
        2
 70
   128
 43
0.0
 10
3.019999999999998
 20
3.987499999999995
 10
3.019999999999998
 20
3.019999999999998
  0
LWPOLYLINE
  5
10E
330
A
100
AcDbEntity
  8
0
  6
Continuous
370
     0
100
AcDbPolyline
 90
        2
 70
   128
 43
0.0
 10
3.019999999999998
 20
3.019999999999998
 10
3.019999999999998
 20
5.130374735548933
  0
LWPOLYLINE
  5
112
330
A
100
AcDbEntity
  8
0
  6
Continuous
370
     0
100
AcDbPolyline
 90
        2
 70
   128
 43
0.0
 10
3.019999999999998
 20
3.019999999999998
 10
3.019999999999996
 20
0.9096252644510617
  0
ARC
  5
126
330
A
100
AcDbEntity
  8
0
  6
Continuous
370
     0
100
AcDbCircle
 10
3.019999999999998
 20
3.019999999999998
 30
0.0
 40
0.9674999999999975
100
AcDbArc
 50
0.0
 51
180.0
  0
ARC
  5
127
330
A
100
AcDbEntity
  8
0
  6
Continuous
370
     0
100
AcDbCircle
 10
2.2425
 20
3.019999999999998
 30
0.0
 40
0.1900000000000004
100
AcDbArc
 50
180.0
 51
0.0
  0
ARC
  5
128
330
A
100
AcDbEntity
  8
0
  6
Continuous
370
     0
100
AcDbCircle
 10
3.019999999999998
 20
3.019999999999998
 30
0.0
 40
0.5874999999999986
100
AcDbArc
 50
0.0000000000000433
 51
180.0
  0
ARC
  5
129
330
A
100
AcDbEntity
  8
0
  6
Continuous
370
     0
100
AcDbCircle
 10
3.797499999999995
 20
3.019999999999998
 30
0.0
 40
0.1900000000000004
100
AcDbArc
 50
179.9999999999998
 51
359.9999999999998
  0
ARC
  5
12C
330
A
100
AcDbEntity
  8
0
  6
Continuous
370
     0
100
AcDbCircle
 10
3.019999999999998
 20
3.019999999999998
 30
0.0
 40
0.7774999999999978
100
AcDbArc
 50
0.0
 51
180.0
  0
LWPOLYLINE
  5
12E
330
A
100
AcDbEntity
  8
0
  6
Continuous
370
     0
100
AcDbPolyline
 90
        4
 70
   129
 43
0.0
 10
4.75205080756887
 20
2.769999999999998
 10
3.689869390254545
 20
2.769999999999998
 42
-0.6941651712482361
 10
2.35013060974545
 20
2.769999999999996
 10
1.28794919243112
 20
2.769999999999998
 42
0.8660254037844381
  0
LWPOLYLINE
  5
12F
330
A
100
AcDbEntity
  8
holes
  6
Continuous
370
     0
100
AcDbPolyline
 90
       11
 70
   129
 43
0.0
 10
5.119999999999997
 20
3.019999999999998
 10
5.119999999999997
 20
2.638046042171634
 42
-0.4634545778523498
 10
5.003560101269462
 20
2.53940664978842
 10
4.570229604312196
 20
2.611628399281298
 42
-0.2399524395792306
 10
4.497226783942737
 20
2.665546432114517
 10
4.342360679774992
 20
2.975278640450001
 42
-0.2360679774997898
 10
4.342360679774992
 20
3.064721359549991
 10
4.497226783942737
 20
3.374453567885478
 42
-0.2399524395792301
 10
4.570229604312193
 20
3.428371600718698
 10
5.003560101269462
 20
3.500593350211575
 42
-0.4634545778523498
 10
5.119999999999997
 20
3.401953957828361
  0
LWPOLYLINE
  5
13D
330
A
100
AcDbEntity
  8
holes
  6
Continuous
370
     0
100
AcDbPolyline
 90
       11
 70
   129
 43
0.0
 10
4.504924240491748
 20
4.504924240491748
 10
4.775006474173221
 20
4.234842006810271
 42
-0.4634545778523498
 10
4.762419615426478
 20
4.082757981570943
 10
4.404940193717488
 20
3.827415537493095
 42
-0.2399524395792306
 10
4.315193597743893
 20
3.813920554808716
 10
3.986672980445036
 20
3.923427427241665
 42
-0.2360679774997898
 10
3.923427427241668
 20
3.986672980445034
 10
3.813920554808712
 20
4.315193597743893
 42
-0.2399524395792301
 10
3.827415537493091
 20
4.404940193717488
 10
4.082757981570943
 20
4.762419615426478
 42
-0.4634545778523498
 10
4.234842006810271
 20
4.775006474173222
  0
LWPOLYLINE
  5
13E
330
A
100
AcDbEntity
  8
holes
  6
Continuous
370
     0
100
AcDbPolyline
 90
       11
 70
   129
 43
0.0
 10
3.019999999999996
 20
5.119999999999997
 10
3.401953957828359
 20
5.119999999999997
 42
-0.4634545778523498
 10
3.500593350211573
 20
5.003560101269462
 10
3.428371600718695
 20
4.570229604312196
 42
-0.2399524395792306
 10
3.374453567885476
 20
4.497226783942737
 10
3.064721359549993
 20
4.342360679774992
 42
-0.2360679774997898
 10
2.975278640450003
 20
4.342360679774992
 10
2.665546432114516
 20
4.497226783942737
 42
-0.2399524395792301
 10
2.611628399281295
 20
4.570229604312193
 10
2.53940664978842
 20
5.003560101269462
 42
-0.4634545778523498
 10
2.638046042171634
 20
5.119999999999997
  0
LWPOLYLINE
  5
13F
330
A
100
AcDbEntity
  8
holes
  6
Continuous
370
     0
100
AcDbPolyline
 90
       11
 70
   129
 43
0.0
 10
1.535075759508245
 20
4.504924240491748
 10
1.805157993189724
 20
4.775006474173222
 42
-0.4634545778523498
 10
1.957242018429051
 20
4.762419615426478
 10
2.212584462506899
 20
4.404940193717488
 42
-0.2399524395792306
 10
2.226079445191278
 20
4.315193597743895
 10
2.116572572758326
 20
3.986672980445036
 42
-0.2360679774997898
 10
2.053327019554961
 20
3.923427427241668
 10
1.7248064022561
 20
3.813920554808712
 42
-0.2399524395792301
 10
1.635059806282504
 20
3.827415537493091
 10
1.277580384573514
 20
4.082757981570943
 42
-0.4634545778523498
 10
1.264993525826771
 20
4.234842006810271
  0
LWPOLYLINE
  5
140
330
A
100
AcDbEntity
  8
holes
  6
Continuous
370
     0
100
AcDbPolyline
 90
       11
 70
   129
 43
0.0
 10
0.9199999999999983
 20
3.019999999999998
 10
0.9199999999999983
 20
3.401953957828361
 42
-0.4634545778523498
 10
1.036439898730531
 20
3.500593350211575
 10
1.469770395687799
 20
3.428371600718695
 42
-0.2399524395792306
 10
1.542773216057254
 20
3.374453567885478
 10
1.697639320225001
 20
3.064721359549995
 42
-0.2360679774997898
 10
1.697639320225001
 20
2.975278640450003
 10
1.542773216057256
 20
2.665546432114516
 42
-0.2399524395792301
 10
1.469770395687801
 20
2.611628399281298
 10
1.036439898730531
 20
2.53940664978842
 42
-0.4634545778523498
 10
0.9199999999999983
 20
2.638046042171634
  0
LWPOLYLINE
  5
141
330
A
100
AcDbEntity
  8
holes
  6
Continuous
370
     0
100
AcDbPolyline
 90
       11
 70
   129
 43
0.0
 10
1.535075759508245
 20
1.535075759508248
 10
1.264993525826771
 20
1.805157993189725
 42
-0.4634545778523498
 10
1.277580384573514
 20
1.957242018429051
 10
1.635059806282505
 20
2.212584462506899
 42
-0.2399524395792306
 10
1.7248064022561
 20
2.226079445191279
 10
2.053327019554958
 20
2.116572572758329
 42
-0.2360679774997898
 10
2.116572572758325
 20
2.053327019554961
 10
2.226079445191279
 20
1.7248064022561
 42
-0.2399524395792301
 10
2.212584462506903
 20
1.635059806282505
 10
1.957242018429051
 20
1.277580384573514
 42
-0.4634545778523498
 10
1.805157993189724
 20
1.264993525826771
  0
LWPOLYLINE
  5
142
330
A
100
AcDbEntity
  8
holes
  6
Continuous
370
     0
100
AcDbPolyline
 90
       11
 70
   129
 43
0.0
 10
3.019999999999998
 20
0.9199999999999995
 10
2.638046042171634
 20
0.9199999999999995
 42
-0.4634545778523498
 10
2.53940664978842
 20
1.036439898730534
 10
2.611628399281298
 20
1.4697703956878
 42
-0.2399524395792306
 10
2.665546432114517
 20
1.542773216057255
 10
2.97527864045
 20
1.697639320225001
 42
-0.2360679774997898
 10
3.064721359549991
 20
1.697639320225001
 10
3.374453567885478
 20
1.542773216057259
 42
-0.2399524395792301
 10
3.428371600718695
 20
1.469770395687801
 10
3.500593350211573
 20
1.036439898730534
 42
-0.4634545778523498
 10
3.401953957828359
 20
0.9199999999999995
  0
LWPOLYLINE
  5
143
330
A
100
AcDbEntity
  8
holes
  6
Continuous
370
     0
100
AcDbPolyline
 90
       11
 70
   129
 43
0.0
 10
4.504924240491744
 20
1.535075759508245
 10
4.23484200681027
 20
1.264993525826771
 42
-0.4634545778523498
 10
4.082757981570943
 20
1.277580384573514
 10
3.827415537493092
 20
1.635059806282505
 42
-0.2399524395792306
 10
3.813920554808716
 20
1.7248064022561
 10
3.923427427241663
 20
2.053327019554958
 42
-0.2360679774997898
 10
3.986672980445033
 20
2.116572572758325
 10
4.315193597743893
 20
2.226079445191279
 42
-0.2399524395792301
 10
4.404940193717488
 20
2.2125844625069
 10
4.762419615426478
 20
1.957242018429051
 42
-0.4634545778523498
 10
4.775006474173221
 20
1.805157993189724
  0
LWPOLYLINE
  5
144
330
A
100
AcDbEntity
  8
0
  6
Continuous
370
     0
100
AcDbPolyline
 90
        2
 70
   128
 43
0.0
 10
0.0
 20
3.019999999999998
 10
0.0
 20
-0.4733434671086473
  0
LWPOLYLINE
  5
145
330
A
100
AcDbEntity
  8
0
  6
Continuous
370
     0
100
AcDbPolyline
 90
        2
 70
   128
 43
0.0
 10
3.019999999999996
 20
0.0
 10
-0.274961387652064
 20
0.0
  0
LWPOLYLINE
  5
14D
330
A
100
AcDbEntity
  8
holes
  6
Continuous
370
     0
100
AcDbPolyline
 90
        4
 70
   129
 43
0.0
 10
3.269999999999998
 20
3.797499999999995
 10
3.269999999999998
 20
4.047499999999994
 42
0.9999999999999998
 10
2.769999999999998
 20
4.047499999999994
 10
2.769999999999998
 20
3.797499999999995
 42
0.9999999999999998
  0
ENDSEC
  0
SECTION
  2
OBJECTS
  0
DICTIONARY
  5
19
330
0
100
AcDbDictionary
281
     1
  3
ACAD_GROUP
350
1A
  3
ACAD_MLINESTYLE
350
1B
  3
ACAD_LAYOUT
350
1E
  3
ACAD_PLOTSETTINGS
350
22
  3
ACAD_PLOTSTYLENAME
350
1F
  3
ACAD_WIPEOUT_VARS
350
23
  0
DICTIONARY
  5
1A
102
{ACAD_REACTORS
330
19
102
}
330
19
100
AcDbDictionary
281
     1
  0
DICTIONARY
  5
1B
102
{ACAD_REACTORS
330
19
102
}
330
19
100
AcDbDictionary
281
     1
  3
Standard
350
1C
  0
DICTIONARY
  5
1E
102
{ACAD_REACTORS
330
19
102
}
330
19
100
AcDbDictionary
281
     1
  3
Layout1
350
21
  3
Model
350
20
  0
DICTIONARY
  5
22
102
{ACAD_REACTORS
330
19
102
}
330
19
100
AcDbDictionary
281
     1
  0
ACDBDICTIONARYWDFLT
  5
1F
102
{ACAD_REACTORS
330
19
102
}
330
19
100
AcDbDictionary
281
     1
  3
Normal
350
1D
100
AcDbDictionaryWithDefault
340
1D
  0
WIPEOUTVARIABLES
  5
23
330
19
100
AcDbWipeoutVariables
 70
     1
  0
MLINESTYLE
  5
1C
102
{ACAD_REACTORS
330
1B
102
}
330
1B
100
AcDbMlineStyle
  2
STANDARD
 70
     0
  3

 62
     0
 51
90.0
 52
90.0
 71
     2
 49
0.5
 62
   256
  6
BYLAYER
 49
-0.5
 62
   256
  6
BYLAYER
  0
LAYOUT
  5
21
102
{ACAD_REACTORS
330
1E
102
}
330
1E
100
AcDbPlotSettings
  1

  2

  4

  6

 40
0.0
 41
0.0
 42
0.0
 43
0.0
 44
0.0
 45
0.0
 46
0.0
 47
0.0
 48
0.0
 49
0.0
140
0.0
141
0.0
142
1.0
143
1.0
 70
     0
 72
     0
 73
     0
 74
     0
  7

 75
     0
147
1.0
148
0.0
149
0.0
100
AcDbLayout
  1
Layout1
 70
     1
 71
     1
 10
0.0
 20
0.0
 11
12.0
 21
9.0
 12
0.0
 22
0.0
 32
0.0
 14
1.000000000000000E+20
 24
1.000000000000000E+20
 34
1.000000000000000E+20
 15
-1.000000000000000E+20
 25
-1.000000000000000E+20
 35
-1.000000000000000E+20
146
0.0
 13
0.0
 23
0.0
 33
0.0
 16
1.0
 26
0.0
 36
0.0
 17
0.0
 27
1.0
 37
0.0
 76
     0
330
B
  0
LAYOUT
  5
20
102
{ACAD_REACTORS
330
1E
102
}
330
1E
100
AcDbPlotSettings
  1

  2

  4

  6

 40
0.0
 41
0.0
 42
0.0
 43
0.0
 44
0.0
 45
0.0
 46
0.0
 47
0.0
 48
0.0
 49
0.0
140
0.0
141
0.0
142
1.0
143
1.0
 70
  1024
 72
     0
 73
     0
 74
     0
  7

 75
     0
147
1.0
148
0.0
149
0.0
100
AcDbLayout
  1
Model
 70
     0
 71
     0
 10
0.0
 20
0.0
 11
0.0
 21
0.0
 12
0.0
 22
0.0
 32
0.0
 14
0.0
 24
0.0
 34
0.0
 15
0.0
 25
0.0
 35
0.0
146
0.0
 13
0.0
 23
0.0
 33
0.0
 16
0.0
 26
0.0
 36
0.0
 17
0.0
 27
0.0
 37
0.0
 76
     0
330
A
  0
ACDBPLACEHOLDER
  5
1D
102
{ACAD_REACTORS
330
1F
102
}
330
1F
  0
ENDSEC
  0
EOF
