  0
SECTION
  2
HEADER
  9
$ACADVER
  1
AC1015
  9
$ACADMAINTVER
 70
     6
  9
$DWGCODEPAGE
  3
ANSI_1252
  9
$INSBASE
 10
0.0
 20
0.0
 30
0.0
  9
$EXTMIN
 10
0.3776788566
 20
0.8076397278666666
 30
0.0
  9
$EXTMAX
 10
10.78669349349999
 20
10.18687406057973
 30
0.0
  9
$LIMMIN
 10
0.0
 20
0.0
  9
$LIMMAX
 10
0.0
 20
0.0
  9
$ORTHOMODE
 70
     0
  9
$REGENMODE
 70
     1
  9
$FILLMODE
 70
     1
  9
$QTEXTMODE
 70
     0
  9
$MIRRTEXT
 70
     1
  9
$LTSCALE
 40
1.0
  9
$ATTMODE
 70
     1
  9
$TEXTSIZE
 40
0.0
  9
$TRACEWID
 40
0.05
  9
$TEXTSTYLE
  7
Standard
  9
$CLAYER
  8
0
  9
$CELTYPE
  6
Continuous
  9
$CECOLOR
 62
   256
  9
$CELTSCALE
 40
1.0
  9
$DISPSILH
 70
     0
  9
$DIMSCALE
 40
1.0
  9
$DIMASZ
 40
0.2362204724
  9
$DIMEXO
 40
0.0393700787
  9
$DIMDLI
 40
0.38
  9
$DIMRND
 40
0.0
  9
$DIMDLE
 40
0.0393700787
  9
$DIMEXE
 40
0.18
  9
$DIMTP
 40
0.0
  9
$DIMTM
 40
0.0
  9
$DIMTXT
 40
0.1377952756
  9
$DIMCEN
 40
0.09
  9
$DIMTSZ
 40
0.0
  9
$DIMTOL
 70
     0
  9
$DIMLIM
 70
     0
  9
$DIMTIH
 70
     1
  9
$DIMTOH
 70
     1
  9
$DIMSE1
 70
     0
  9
$DIMSE2
 70
     0
  9
$DIMTAD
 70
     1
  9
$DIMZIN
 70
     0
  9
$DIMBLK
  1

  9
$DIMASO
 70
     1
  9
$DIMSHO
 70
     1
  9
$DIMPOST
  1

  9
$DIMAPOST
  1

  9
$DIMALT
 70
     0
  9
$DIMALTD
 70
     2
  9
$DIMALTF
 40
25.4
  9
$DIMLFAC
 40
5.0
  9
$DIMTOFL
 70
     0
  9
$DIMTVP
 40
0.0
  9
$DIMTIX
 70
     0
  9
$DIMSOXD
 70
     0
  9
$DIMSAH
 70
     0
  9
$DIMBLK1
  1

  9
$DIMBLK2
  1

  9
$DIMSTYLE
  2
Standard
  9
$DIMCLRD
 70
     0
  9
$DIMCLRE
 70
     0
  9
$DIMCLRT
 70
     0
  9
$DIMTFAC
 40
1.0
  9
$DIMGAP
 40
0.0393700787
  9
$DIMJUST
 70
     0
  9
$DIMSD1
 70
     0
  9
$DIMSD2
 70
     0
  9
$DIMTOLJ
 70
     1
  9
$DIMTZIN
 70
     0
  9
$DIMALTZ
 70
     0
  9
$DIMALTTZ
 70
     0
  9
$DIMUPT
 70
     0
  9
$DIMDEC
 70
     4
  9
$DIMTDEC
 70
     4
  9
$DIMALTU
 70
     2
  9
$DIMALTTD
 70
     2
  9
$DIMTXSTY
  7
Standard
  9
$DIMAUNIT
 70
     0
  9
$DIMADEC
 70
     0
  9
$DIMALTRND
 40
0.0
  9
$DIMAZIN
 70
     0
  9
$DIMDSEP
 70
     0
  9
$DIMATFIT
 70
     3
  9
$DIMFRAC
 70
     0
  9
$DIMLDRBLK
  1

  9
$DIMLUNIT
 70
     2
  9
$DIMLWD
 70
     0
  9
$DIMLWE
 70
     0
  9
$DIMTMOVE
 70
     0
  9
$LUNITS
 70
     2
  9
$LUPREC
 70
     2
  9
$SKETCHINC
 40
0.1
  9
$FILLETRAD
 40
0.0
  9
$AUNITS
 70
     0
  9
$AUPREC
 70
     2
  9
$MENU
  1
acad
  9
$ELEVATION
 40
0.0
  9
$PELEVATION
 40
0.0
  9
$THICKNESS
 40
0.0
  9
$LIMCHECK
 70
     0
  9
$CHAMFERA
 40
0.0
  9
$CHAMFERB
 40
0.0
  9
$CHAMFERC
 40
0.0
  9
$CHAMFERD
 40
0.0
  9
$SKPOLY
 70
     0
  9
$TDCREATE
 40
2456673.753901377
  9
$TDUCREATE
 40
2456674.003901377
  9
$TDUPDATE
 40
2456673.754201458
  9
$TDUUPDATE
 40
2456674.004201458
  9
$TDINDWG
 40
0.0003002894
  9
$TDUSRTIMER
 40
0.0003002431
  9
$USRTIMER
 70
     1
  9
$ANGBASE
 50
0.0
  9
$ANGDIR
 70
     0
  9
$PDMODE
 70
     0
  9
$PDSIZE
 40
-1.0
  9
$PLINEWID
 40
0.0
  9
$SPLFRAME
 70
     0
  9
$SPLINETYPE
 70
     6
  9
$SPLINESEGS
 70
     8
  9
$HANDSEED
  5
1A0
  9
$SURFTAB1
 70
     6
  9
$SURFTAB2
 70
     6
  9
$SURFTYPE
 70
     6
  9
$SURFU
 70
     6
  9
$SURFV
 70
     6
  9
$UCSBASE
  2

  9
$UCSNAME
  2

  9
$UCSORG
 10
0.0
 20
0.0
 30
0.0
  9
$UCSXDIR
 10
1.0
 20
0.0
 30
0.0
  9
$UCSYDIR
 10
0.0
 20
1.0
 30
0.0
  9
$UCSORTHOREF
  2

  9
$UCSORTHOVIEW
 70
     0
  9
$UCSORGTOP
 10
0.0
 20
0.0
 30
0.0
  9
$UCSORGBOTTOM
 10
0.0
 20
0.0
 30
0.0
  9
$UCSORGLEFT
 10
0.0
 20
0.0
 30
0.0
  9
$UCSORGRIGHT
 10
0.0
 20
0.0
 30
0.0
  9
$UCSORGFRONT
 10
0.0
 20
0.0
 30
0.0
  9
$UCSORGBACK
 10
0.0
 20
0.0
 30
0.0
  9
$PUCSBASE
  2

  9
$PUCSNAME
  2

  9
$PUCSORG
 10
0.0
 20
0.0
 30
0.0
  9
$PUCSXDIR
 10
1.0
 20
0.0
 30
0.0
  9
$PUCSYDIR
 10
0.0
 20
1.0
 30
0.0
  9
$PUCSORTHOREF
  2

  9
$PUCSORTHOVIEW
 70
     0
  9
$PUCSORGTOP
 10
0.0
 20
0.0
 30
0.0
  9
$PUCSORGBOTTOM
 10
0.0
 20
0.0
 30
0.0
  9
$PUCSORGLEFT
 10
0.0
 20
0.0
 30
0.0
  9
$PUCSORGRIGHT
 10
0.0
 20
0.0
 30
0.0
  9
$PUCSORGFRONT
 10
0.0
 20
0.0
 30
0.0
  9
$PUCSORGBACK
 10
0.0
 20
0.0
 30
0.0
  9
$USERI1
 70
     0
  9
$USERI2
 70
     0
  9
$USERI3
 70
     0
  9
$USERI4
 70
     0
  9
$USERI5
 70
     0
  9
$USERR1
 40
0.0
  9
$USERR2
 40
0.0
  9
$USERR3
 40
0.0
  9
$USERR4
 40
0.0
  9
$USERR5
 40
0.0
  9
$WORLDVIEW
 70
     1
  9
$SHADEDGE
 70
     3
  9
$SHADEDIF
 70
    70
  9
$TILEMODE
 70
     1
  9
$MAXACTVP
 70
    16
  9
$PINSBASE
 10
0.0
 20
0.0
 30
0.0
  9
$PLIMCHECK
 70
     0
  9
$PEXTMIN
 10
1.000000000000000E+20
 20
1.000000000000000E+20
 30
1.000000000000000E+20
  9
$PEXTMAX
 10
-1.000000000000000E+20
 20
-1.000000000000000E+20
 30
-1.000000000000000E+20
  9
$PLIMMIN
 10
0.0
 20
0.0
  9
$PLIMMAX
 10
12.0
 20
9.0
  9
$UNITMODE
 70
     0
  9
$VISRETAIN
 70
     0
  9
$PLINEGEN
 70
     1
  9
$PSLTSCALE
 70
     1
  9
$TREEDEPTH
 70
  3020
  9
$CMLSTYLE
  2
Standard
  9
$CMLJUST
 70
     0
  9
$CMLSCALE
 40
1.0
  9
$PROXYGRAPHICS
 70
     0
  9
$MEASUREMENT
 70
     0
  9
$CELWEIGHT
370
     0
  9
$ENDCAPS
280
     0
  9
$JOINSTYLE
280
     0
  9
$LWDISPLAY
290
     0
  9
$INSUNITS
 70
     0
  9
$HYPERLINKBASE
  1

  9
$STYLESHEET
  1

  9
$XEDIT
290
     1
  9
$CEPSNTYPE
380
     0
  9
$PSTYLEMODE
290
     1
  9
$FINGERPRINTGUID
  2

  9
$VERSIONGUID
  2
{49A3E4CF-19D1-4299-987B-6E6959AA866F}
  9
$EXTNAMES
290
     1
  9
$PSVPSCALE
 40
0.0
  9
$OLESTARTUP
290
     0
  0
ENDSEC
  0
SECTION
  2
CLASSES
  0
CLASS
  1
LWPOLYLINE
  2
AcDbPolyline
  3
AutoCAD 2000
 90
    32768
280
     0
281
     1
  0
CLASS
  1
IMAGE
  2
AcDbRasterImage
  3
ISM
 90
    32895
280
     0
281
     1
  0
CLASS
  1
OLE2FRAME
  2
AcDbOle2Frame
  3
AutoCAD 2000
 90
    32768
280
     0
281
     1
  0
CLASS
  1
HATCH
  2
AcDbHatch
  3
AutoCAD 2000
 90
    32768
280
     0
281
     1
  0
CLASS
  1
DICTIONARYVAR
  2
AcDbDictionaryVar
  3
AutoCAD 2000
 90
    32768
280
     0
281
     0
  0
CLASS
  1
RASTERVARIABLES
  2
AcDbRasterVariables
  3
ISM
 90
    32768
280
     0
281
     0
  0
CLASS
  1
IMAGEDEF
  2
AcDbRasterImageDef
  3
ISM
 90
    32768
280
     0
281
     0
  0
CLASS
  1
IMAGEDEF_REACTOR
  2
AcDbRasterImageDefReactor
  3
ISM
 90
    32769
280
     0
281
     0
  0
CLASS
  1
IDBUFFER
  2
AcDbIdBuffer
  3
AutoCAD 2000
 90
    32768
280
     0
281
     0
  0
CLASS
  1
SPATIAL_FILTER
  2
AcDbSpatialFilter
  3
AutoCAD 2000
 90
    32768
280
     0
281
     0
  0
CLASS
  1
XRECORD
  2
AcDbXrecord
  3
AutoCAD 2000
 90
    32768
280
     0
281
     0
  0
CLASS
  1
SORTENTSTABLE
  2
AcDbSortentsTable
  3
AutoCAD 2000
 90
    32768
280
     0
281
     0
  0
CLASS
  1
LAYER_INDEX
  2
AcDbLayerIndex
  3
AutoCAD 2000
 90
    32768
280
     0
281
     0
  0
CLASS
  1
SPATIAL_INDEX
  2
AcDbSpatialIndex
  3
AutoCAD 2000
 90
    32768
280
     0
281
     0
  0
CLASS
  1
OBJECT_PTR
  2
CAseDLPNTableRecord
  3
"ASE-LPNTableRecord"
 90
    32769
280
     0
281
     0
  0
CLASS
  1
LAYOUT
  2
AcDbLayout
  3
AutoCAD 2000
 90
        0
280
     0
281
     0
  0
CLASS
  1
PLOTSETTINGS
  2
AcDbPlotSettings
  3
AutoCAD 2000
 90
    32768
280
     0
281
     0
  0
CLASS
  1
ACDBDICTIONARYWDFLT
  2
AcDbDictionaryWithDefault
  3
AutoCAD 2000
 90
        0
280
     0
281
     0
  0
CLASS
  1
ACDBPLACEHOLDER
  2
AcDbPlaceHolder
  3
AutoCAD 2000
 90
        0
280
     0
281
     0
  0
CLASS
  1
VBA_PROJECT
  2
AcDbVbaProject
  3
acadvba
 90
    32768
280
     0
281
     0
  0
CLASS
  1
WIPEOUT
  2
AcDbWipeout
  3
WipeOut|AutoCAD Express Tool|expresstools@autodesk.com
 90
    32895
280
     0
281
     1
  0
CLASS
  1
WIPEOUTVARIABLES
  2
AcDbWipeoutVariables
  3
WipeOut|AutoCAD Express Tool|expresstools@autodesk.com
 90
        0
280
     0
281
     0
  0
CLASS
  1
RTEXT
  2
RText
  3
RText|AutoCAD Express Tool|expresstools@autodesk.com
 90
    32768
280
     0
281
     1
  0
CLASS
  1
ARCALIGNEDTEXT
  2
AcDbArcAlignedText
  3
ATEXT|AutoCAD Express Tool|expresstools@autodesk.com
 90
    32768
280
     0
281
     1
  0
ENDSEC
  0
SECTION
  2
TABLES
  0
TABLE
  2
VPORT
  5
7
330
0
100
AcDbSymbolTable
 70
     2
  0
VPORT
  5
19F
330
7
100
AcDbSymbolTableRecord
100
AcDbViewportTableRecord
  2
*Active
 70
     0
 10
0.0
 20
0.0
 11
1.0
 21
1.0
 12
8.45814629133857
 22
6.660613373152404
 13
0.0
 23
0.0
 14
1.0
 24
1.0
 15
0.0
 25
0.0
 16
0.0
 26
0.0
 36
1.0
 17
0.0
 27
0.0
 37
0.0
 40
13.53188740018067
 41
1.350069735006973
 42
50.0
 43
0.0
 44
0.0
 50
0.0
 51
0.0
 71
     0
 72
  2000
 73
     1
 74
     1
 75
     0
 76
     0
 77
     0
 78
     0
281
     0
 65
     0
110
0.0
120
0.0
130
0.0
111
1.0
121
0.0
131
0.0
112
0.0
122
1.0
132
0.0
 79
     0
146
0.0
  0
ENDTAB
  0
TABLE
  2
LTYPE
  5
4
330
0
100
AcDbSymbolTable
 70
    18
  0
LTYPE
  5
11
330
4
100
AcDbSymbolTableRecord
100
AcDbLinetypeTableRecord
  2
ByBlock
 70
     0
  3

 72
    65
 73
     0
 40
0.0
  0
LTYPE
  5
12
330
4
100
AcDbSymbolTableRecord
100
AcDbLinetypeTableRecord
  2
ByLayer
 70
     0
  3

 72
    65
 73
     0
 40
0.0
  0
LTYPE
  5
13
330
4
100
AcDbSymbolTableRecord
100
AcDbLinetypeTableRecord
  2
Continuous
 70
     0
  3
Solid line
 72
    65
 73
     0
 40
0.0
  0
LTYPE
  5
25
330
4
100
AcDbSymbolTableRecord
100
AcDbLinetypeTableRecord
  2
SLDVISIBLE1
 70
     0
  3

 72
    65
 73
     1
 40
2.399999999999999
 49
2.399999999999999
 74
     0
  0
LTYPE
  5
26
330
4
100
AcDbSymbolTableRecord
100
AcDbLinetypeTableRecord
  2
SLDHIDDEN0
 70
     0
  3

 72
    65
 73
     2
 40
0.075
 49
0.05
 74
     0
 49
-0.025
 74
     0
  0
LTYPE
  5
27
330
4
100
AcDbSymbolTableRecord
100
AcDbLinetypeTableRecord
  2
SLDSKETCH0
 70
     0
  3

 72
    65
 73
     1
 40
2.399999999999999
 49
2.399999999999999
 74
     0
  0
LTYPE
  5
28
330
4
100
AcDbSymbolTableRecord
100
AcDbLinetypeTableRecord
  2
SLDDETAIL0
 70
     0
  3

 72
    65
 73
     1
 40
2.399999999999999
 49
2.399999999999999
 74
     0
  0
LTYPE
  5
29
330
4
100
AcDbSymbolTableRecord
100
AcDbLinetypeTableRecord
  2
SLDSECTION0
 70
     0
  3

 72
    65
 73
     4
 40
0.4
 49
0.25
 74
     0
 49
-0.05
 74
     0
 49
0.05
 74
     0
 49
-0.05
 74
     0
  0
LTYPE
  5
2A
330
4
100
AcDbSymbolTableRecord
100
AcDbLinetypeTableRecord
  2
SLDDIMENSIONS0
 70
     0
  3

 72
    65
 73
     1
 40
2.399999999999999
 49
2.399999999999999
 74
     0
  0
LTYPE
  5
2B
330
4
100
AcDbSymbolTableRecord
100
AcDbLinetypeTableRecord
  2
SLDCENTERLINES0
 70
     0
  3

 72
    65
 73
     4
 40
0.75
 49
0.6
 74
     0
 49
-0.05
 74
     0
 49
0.05
 74
     0
 49
-0.05
 74
     0
  0
LTYPE
  5
2C
330
4
100
AcDbSymbolTableRecord
100
AcDbLinetypeTableRecord
  2
SLDCROSSHATCH0
 70
     0
  3

 72
    65
 73
     1
 40
2.399999999999999
 49
2.399999999999999
 74
     0
  0
LTYPE
  5
2D
330
4
100
AcDbSymbolTableRecord
100
AcDbLinetypeTableRecord
  2
SLDTANVISIBLE0
 70
     0
  3

 72
    65
 73
     6
 40
0.5
 49
0.25
 74
     0
 49
-0.05
 74
     0
 49
0.05
 74
     0
 49
-0.05
 74
     0
 49
0.05
 74
     0
 49
-0.05
 74
     0
  0
LTYPE
  5
2E
330
4
100
AcDbSymbolTableRecord
100
AcDbLinetypeTableRecord
  2
SLDDETAILBORDER0
 70
     0
  3

 72
    65
 73
     1
 40
2.399999999999999
 49
2.399999999999999
 74
     0
  0
LTYPE
  5
2F
330
4
100
AcDbSymbolTableRecord
100
AcDbLinetypeTableRecord
  2
SLDDUMMY1
 70
     0
  3

 72
    65
 73
     0
 40
0.0
  0
LTYPE
  5
30
330
4
100
AcDbSymbolTableRecord
100
AcDbLinetypeTableRecord
  2
SLDTANHIDDEN0
 70
     0
  3

 72
    65
 73
     2
 40
0.075
 49
0.05
 74
     0
 49
-0.025
 74
     0
  0
LTYPE
  5
31
330
4
100
AcDbSymbolTableRecord
100
AcDbLinetypeTableRecord
  2
SLDVIEWARROW2
 70
     0
  3

 72
    65
 73
     6
 40
0.5
 49
0.25
 74
     0
 49
-0.05
 74
     0
 49
0.05
 74
     0
 49
-0.05
 74
     0
 49
0.05
 74
     0
 49
-0.05
 74
     0
  0
LTYPE
  5
32
330
4
100
AcDbSymbolTableRecord
100
AcDbLinetypeTableRecord
  2
SLD--SPACER--0
 70
     0
  3

 72
    65
 73
     1
 40
2.399999999999999
 49
2.399999999999999
 74
     0
  0
LTYPE
  5
33
330
4
100
AcDbSymbolTableRecord
100
AcDbLinetypeTableRecord
  2
SLDUSER-DASHED0
 70
     0
  3

 72
    65
 73
     2
 40
0.075
 49
0.05
 74
     0
 49
-0.025
 74
     0
  0
LTYPE
  5
34
330
4
100
AcDbSymbolTableRecord
100
AcDbLinetypeTableRecord
  2
SLDUSER-PHANTOM0
 70
     0
  3

 72
    65
 73
     6
 40
0.5
 49
0.25
 74
     0
 49
-0.05
 74
     0
 49
0.05
 74
     0
 49
-0.05
 74
     0
 49
0.05
 74
     0
 49
-0.05
 74
     0
  0
LTYPE
  5
35
330
4
100
AcDbSymbolTableRecord
100
AcDbLinetypeTableRecord
  2
SLDUSER-CENTER0
 70
     0
  3

 72
    65
 73
     4
 40
0.75
 49
0.6
 74
     0
 49
-0.05
 74
     0
 49
0.05
 74
     0
 49
-0.05
 74
     0
  0
ENDTAB
  0
TABLE
  2
LAYER
  5
2
330
0
100
AcDbSymbolTable
 70
     1
  0
LAYER
  5
14
330
2
100
AcDbSymbolTableRecord
100
AcDbLayerTableRecord
  2
0
 70
     0
 62
     7
  6
Continuous
370
    -3
390
1D
  0
ENDTAB
  0
TABLE
  2
STYLE
  5
3
330
0
100
AcDbSymbolTable
 70
     2
  0
STYLE
  5
17
330
3
100
AcDbSymbolTableRecord
100
AcDbTextStyleTableRecord
  2
Standard
 70
     0
 40
0.0
 41
1.0
 50
0.0
 71
     0
 42
0.0
  3
txt
  4

  0
STYLE
  5
CA
330
3
100
AcDbSymbolTableRecord
100
AcDbTextStyleTableRecord
  2
SLDTEXTSTYLE0
 70
     0
 40
0.0
 41
0.75
 50
0.0
 71
     0
 42
0.0
  3

  4

  0
ENDTAB
  0
TABLE
  2
VIEW
  5
5
330
0
100
AcDbSymbolTable
 70
     0
  0
ENDTAB
  0
TABLE
  2
UCS
  5
6
330
0
100
AcDbSymbolTable
 70
     0
  0
ENDTAB
  0
TABLE
  2
APPID
  5
8
330
0
100
AcDbSymbolTable
 70
     1
  0
APPID
  5
16
330
8
100
AcDbSymbolTableRecord
100
AcDbRegAppTableRecord
  2
ACAD
 70
     0
  0
ENDTAB
  0
TABLE
  2
DIMSTYLE
  5
9
330
0
100
AcDbSymbolTable
 70
     7
100
AcDbDimStyleTable
 71
     0
  0
DIMSTYLE
105
18
330
9
100
AcDbSymbolTableRecord
100
AcDbDimStyleTableRecord
  2
Standard
 70
     0
340
17
  0
DIMSTYLE
105
DA
102
{ACAD_REACTORS
330
DE
102
}
330
9
100
AcDbSymbolTableRecord
100
AcDbDimStyleTableRecord
  2
SLDDIMSTYLE0
 70
     0
 41
0.2362204724
 44
0.0393700787
140
0.1377952756
144
5.0
147
0.0344488189
173
     1
176
   255
177
   255
178
   255
271
     2
284
    12
340
17
341
D1
343
D1
344
D1
  0
DIMSTYLE
105
E6
102
{ACAD_REACTORS
330
EA
102
}
330
9
100
AcDbSymbolTableRecord
100
AcDbDimStyleTableRecord
  2
SLDDIMSTYLE1
 70
     0
 41
0.2362204724
 44
0.0393700787
 78
     4
140
0.1377952756
144
5.0
147
0.0344488189
172
     1
173
     1
176
   255
177
   255
178
   255
271
     2
284
    12
340
17
341
D1
343
D1
344
D1
  0
DIMSTYLE
105
F7
102
{ACAD_REACTORS
330
FB
330
10B
330
12C
330
14A
330
18C
102
}
330
9
100
AcDbSymbolTableRecord
100
AcDbDimStyleTableRecord
  2
SLDDIMSTYLE2
 70
     0
 41
0.2362204724
 44
0.0393700787
 78
     4
140
0.1377952756
144
5.0
147
0.0344488189
173
     1
176
   255
177
   255
178
   255
271
     2
284
    12
340
17
341
D1
343
D1
344
D1
  0
DIMSTYLE
105
118
102
{ACAD_REACTORS
330
11C
102
}
330
9
100
AcDbSymbolTableRecord
100
AcDbDimStyleTableRecord
  2
SLDDIMSTYLE3
 70
     0
 41
0.2362204724
 44
0.0393700787
 78
    12
140
0.1377952756
144
5.0
147
0.0344488189
173
     1
176
   255
177
   255
178
   255
271
     2
284
    12
340
17
341
D1
343
D1
344
D1
  0
DIMSTYLE
105
136
102
{ACAD_REACTORS
330
13A
102
}
330
9
100
AcDbSymbolTableRecord
100
AcDbDimStyleTableRecord
  2
SLDDIMSTYLE4
 70
     0
 41
0.2362204724
 44
0.0393700787
 78
     4
140
0.1377952756
144
5.0
147
0.0344488189
173
     1
176
   255
177
   255
178
   255
271
     2
284
    12
340
17
341
D1
343
D1
344
D1
  0
DIMSTYLE
105
196
102
{ACAD_REACTORS
330
19A
102
}
330
9
100
AcDbSymbolTableRecord
100
AcDbDimStyleTableRecord
  2
SLDDIMSTYLE5
 70
     0
 41
0.2362204724
 44
0.0393700787
 78
    12
140
0.1377952756
144
5.0
147
0.0344488189
172
     1
173
     1
176
   255
177
   255
178
   255
271
     2
284
    12
340
17
341
D1
343
D1
344
D1
  0
ENDTAB
  0
TABLE
  2
BLOCK_RECORD
  5
1
330
0
100
AcDbSymbolTable
 70
    11
  0
BLOCK_RECORD
  5
A
330
1
100
AcDbSymbolTableRecord
100
AcDbBlockTableRecord
  2
*MODEL_SPACE
340
20
  0
BLOCK_RECORD
  5
B
330
1
100
AcDbSymbolTableRecord
100
AcDbBlockTableRecord
  2
*PAPER_SPACE
340
21
  0
BLOCK_RECORD
  5
C8
330
1
100
AcDbSymbolTableRecord
100
AcDbBlockTableRecord
  2
*D0
340
0
  0
BLOCK_RECORD
  5
D1
330
1
100
AcDbSymbolTableRecord
100
AcDbBlockTableRecord
  2
_CLOSED
340
0
102
{BLKREFS
331
D8
331
D9
331
E5
331
F5
331
F6
331
106
331
107
331
116
331
117
331
127
331
128
331
135
331
145
331
146
331
187
331
188
331
195
102
}
  0
BLOCK_RECORD
  5
DF
330
1
100
AcDbSymbolTableRecord
100
AcDbBlockTableRecord
  2
*D2
340
0
  0
BLOCK_RECORD
  5
EB
330
1
100
AcDbSymbolTableRecord
100
AcDbBlockTableRecord
  2
*D3
340
0
  0
BLOCK_RECORD
  5
FC
330
1
100
AcDbSymbolTableRecord
100
AcDbBlockTableRecord
  2
*D4
340
0
  0
BLOCK_RECORD
  5
10C
330
1
100
AcDbSymbolTableRecord
100
AcDbBlockTableRecord
  2
*D5
340
0
  0
BLOCK_RECORD
  5
11D
330
1
100
AcDbSymbolTableRecord
100
AcDbBlockTableRecord
  2
*D6
340
0
  0
BLOCK_RECORD
  5
12D
330
1
100
AcDbSymbolTableRecord
100
AcDbBlockTableRecord
  2
*D7
340
0
  0
BLOCK_RECORD
  5
13B
330
1
100
AcDbSymbolTableRecord
100
AcDbBlockTableRecord
  2
*D8
340
0
  0
BLOCK_RECORD
  5
17D
330
1
100
AcDbSymbolTableRecord
100
AcDbBlockTableRecord
  2
*D9
340
0
  0
BLOCK_RECORD
  5
18D
330
1
100
AcDbSymbolTableRecord
100
AcDbBlockTableRecord
  2
*D10
340
0
  0
ENDTAB
  0
ENDSEC
  0
SECTION
  2
BLOCKS
  0
BLOCK
  5
D
330
A
100
AcDbEntity
  8
0
100
AcDbBlockBegin
  2
*MODEL_SPACE
 70
     0
 10
0.0
 20
0.0
 30
0.0
  3
*MODEL_SPACE
  1

  0
ENDBLK
  5
E
330
A
100
AcDbEntity
  8
0
100
AcDbBlockEnd
  0
BLOCK
  5
F
330
B
100
AcDbEntity
 67
     1
  8
0
100
AcDbBlockBegin
  2
*PAPER_SPACE
 70
     0
 10
0.0
 20
0.0
 30
0.0
  3
*PAPER_SPACE
  1

  0
ENDBLK
  5
10
330
B
100
AcDbEntity
 67
     1
  8
0
100
AcDbBlockEnd
  0
BLOCK
  5
C9
330
C8
100
AcDbEntity
  8
0
 62
   255
100
AcDbBlockBegin
  2
*D0
 70
     1
 10
0.0
 20
0.0
 30
0.0
  3
*D0
  1

  0
MTEXT
  5
CB
330
C8
100
AcDbEntity
  8
0
 62
   255
100
AcDbMText
 10
2.013596463399999
 20
6.6874870597
 30
0.0
 40
0.1377952756
 41
0.0
 71
     7
 72
     1
  1
0.50
  7
SLDTEXTSTYLE0
 73
     1
 44
1.0
  0
LINE
  5
CC
330
C8
100
AcDbEntity
  8
0
  6
Continuous
 62
     7
100
AcDbLine
 10
1.682397026899999
 20
7.463902548099999
 30
0.0
 11
1.682397026899999
 21
6.429480816799999
 31
0.0
  0
LINE
  5
CD
330
C8
100
AcDbEntity
  8
0
  6
Continuous
 62
     7
100
AcDbLine
 10
1.7823970269
 20
7.463902548099999
 30
0.0
 11
1.7823970269
 21
6.429480816799999
 31
0.0
  0
LINE
  5
CE
330
C8
100
AcDbEntity
  8
0
  6
Continuous
 62
     7
100
AcDbLine
 10
1.682397026899999
 20
6.468850895599999
 30
0.0
 11
1.209956081999999
 21
6.468850895599999
 31
0.0
  0
LINE
  5
CF
330
C8
100
AcDbEntity
  8
0
  6
Continuous
 62
     7
100
AcDbLine
 10
1.682397026899999
 20
6.468850895599999
 30
0.0
 11
1.7823970269
 21
6.468850895599999
 31
0.0
  0
LINE
  5
D0
330
C8
100
AcDbEntity
  8
0
  6
Continuous
 62
     7
100
AcDbLine
 10
1.7823970269
 20
6.468850895599999
 30
0.0
 11
2.4319555885
 21
6.468850895599999
 31
0.0
  0
INSERT
  5
D8
330
C8
100
AcDbEntity
  8
0
100
AcDbBlockReference
  2
_CLOSED
 10
1.682397026899999
 20
6.468850895599999
 30
0.0
 41
0.2362204724
 42
0.2362204724
 50
360.0
  0
INSERT
  5
D9
330
C8
100
AcDbEntity
  8
0
100
AcDbBlockReference
  2
_CLOSED
 10
1.7823970269
 20
6.468850895599999
 30
0.0
 41
0.2362204724
 42
0.2362204724
 50
180.0
  0
POINT
  5
DB
330
C8
100
AcDbEntity
  8
0
 62
     7
100
AcDbPoint
 10
1.682397026899999
 20
7.5032726269
 30
0.0
  0
POINT
  5
DC
330
C8
100
AcDbEntity
  8
0
 62
     7
100
AcDbPoint
 10
1.7823970269
 20
7.5032726269
 30
0.0
  0
ENDBLK
  5
DD
330
C8
100
AcDbEntity
  8
0
 62
   255
100
AcDbBlockEnd
  0
BLOCK
  5
D2
330
D1
100
AcDbEntity
  8
0
100
AcDbBlockBegin
  2
_CLOSED
 70
     0
 10
0.0
 20
0.0
 30
0.0
  3
_CLOSED
  1

  0
LINE
  5
D3
330
D1
100
AcDbEntity
  8
0
100
AcDbLine
 10
-1.0
 20
0.166667
 30
0.0
 11
0.0
 21
0.0
 31
0.0
  0
LINE
  5
D4
330
D1
100
AcDbEntity
  8
0
100
AcDbLine
 10
0.0
 20
0.0
 30
0.0
 11
-1.0
 21
-0.166667
 31
0.0
  0
LINE
  5
D5
330
D1
100
AcDbEntity
  8
0
100
AcDbLine
 10
-1.0
 20
0.166667
 30
0.0
 11
-1.0
 21
-0.166667
 31
0.0
  0
LINE
  5
D6
330
D1
100
AcDbEntity
  8
0
100
AcDbLine
 10
0.0
 20
0.0
 30
0.0
 11
-1.0
 21
0.0
 31
0.0
  0
ENDBLK
  5
D7
330
D1
100
AcDbEntity
  8
0
100
AcDbBlockEnd
  0
BLOCK
  5
E0
330
DF
100
AcDbEntity
  8
0
 62
   255
100
AcDbBlockBegin
  2
*D2
 70
     1
 10
0.0
 20
0.0
 30
0.0
  3
*D2
  1

  0
MTEXT
  5
E1
330
DF
100
AcDbEntity
  8
0
 62
   255
100
AcDbMText
 10
0.535967195
 20
9.175271435499999
 30
0.0
 40
0.1377952756
 41
0.0
 71
     7
 72
     1
  1
%%c
  7
SLDTEXTSTYLE0
 11
0.8768067645973152
 21
-0.4808429031985277
 31
0.0
 73
     1
 44
1.0
  0
MTEXT
  5
E2
330
DF
100
AcDbEntity
  8
0
 62
   255
100
AcDbMText
 10
0.7129128791000001
 20
9.0782340039
 30
0.0
 40
0.1377952756
 41
0.0
 71
     7
 72
     1
  1
1.00
  7
SLDTEXTSTYLE0
 11
0.8768067645973152
 21
-0.4808429031985277
 31
0.0
 73
     1
 44
1.0
  0
LINE
  5
E3
330
DF
100
AcDbEntity
  8
0
  6
Continuous
 62
     7
100
AcDbLine
 10
1.642319323499999
 20
8.323084290299998
 30
0.0
 11
0.3776788566
 21
9.016616113099999
 31
0.0
  0
LINE
  5
E4
330
DF
100
AcDbEntity
  8
0
  6
Continuous
 62
     7
100
AcDbLine
 10
1.642319323499999
 20
8.323084290299998
 30
0.0
 11
1.8176806765
 21
8.2269157097
 31
0.0
  0
INSERT
  5
E5
330
DF
100
AcDbEntity
  8
0
100
AcDbBlockReference
  2
_CLOSED
 10
1.642319323499999
 20
8.323084290299998
 30
0.0
 41
0.2362204724
 42
0.2362204724
 50
331.2595321704
  0
POINT
  5
E7
330
DF
100
AcDbEntity
  8
0
 62
     7
100
AcDbPoint
 10
1.642319323499999
 20
8.323084290299998
 30
0.0
  0
POINT
  5
E8
330
DF
100
AcDbEntity
  8
0
 62
     7
100
AcDbPoint
 10
1.8176806765
 20
8.2269157097
 30
0.0
  0
ENDBLK
  5
E9
330
DF
100
AcDbEntity
  8
0
100
AcDbBlockEnd
  0
BLOCK
  5
EC
330
EB
100
AcDbEntity
  8
0
 62
   255
100
AcDbBlockBegin
  2
*D3
 70
     1
 10
0.0
 20
0.0
 30
0.0
  3
*D3
  1

  0
MTEXT
  5
ED
330
EB
100
AcDbEntity
  8
0
 62
   255
100
AcDbMText
 10
2.7220704375
 20
9.3534848852
 30
0.0
 40
0.1377952756
 41
0.0
 71
     7
 72
     1
  1
8.00
  7
SLDTEXTSTYLE0
 73
     1
 44
1.0
  0
LINE
  5
EE
330
EB
100
AcDbEntity
  8
0
  6
Continuous
 62
     7
100
AcDbLine
 10
2.1
 20
8.1143700787
 30
0.0
 11
2.1
 21
9.1742187998
 31
0.0
  0
LINE
  5
EF
330
EB
100
AcDbEntity
  8
0
  6
Continuous
 62
     7
100
AcDbLine
 10
3.7
 20
8.1143700787
 30
0.0
 11
3.7
 21
9.1742187998
 31
0.0
  0
LINE
  5
F0
330
EB
100
AcDbEntity
  8
0
  6
Continuous
 62
     7
100
AcDbLine
 10
2.1
 20
9.1348487211
 30
0.0
 11
1.627559055099999
 21
9.1348487211
 31
0.0
  0
LINE
  5
F1
330
EB
100
AcDbEntity
  8
0
  6
Continuous
 62
     7
100
AcDbLine
 10
2.1
 20
9.1348487211
 30
0.0
 11
3.7
 21
9.1348487211
 31
0.0
  0
LINE
  5
F2
330
EB
100
AcDbEntity
  8
0
  6
Continuous
 62
     7
100
AcDbLine
 10
3.7
 20
9.1348487211
 30
0.0
 11
4.172440944899999
 21
9.1348487211
 31
0.0
  0
ARC
  5
F3
330
EB
100
AcDbEntity
  8
0
  6
Continuous
 62
     7
100
AcDbCircle
 10
2.8782066016
 20
9.4628029673
 30
0.0
 40
0.2444426627
100
AcDbArc
 50
153.4349488229
 51
206.5650511771
  0
ARC
  5
F4
330
EB
100
AcDbEntity
  8
0
  6
Continuous
 62
     7
100
AcDbCircle
 10
2.921793398399999
 20
9.4628029673
 30
0.0
 40
0.2444426627
100
AcDbArc
 50
333.4349488229
 51
26.5650511771
  0
INSERT
  5
F5
330
EB
100
AcDbEntity
  8
0
100
AcDbBlockReference
  2
_CLOSED
 10
2.1
 20
9.1348487211
 30
0.0
 41
0.2362204724
 42
0.2362204724
 50
360.0
  0
INSERT
  5
F6
330
EB
100
AcDbEntity
  8
0
100
AcDbBlockReference
  2
_CLOSED
 10
3.7
 20
9.1348487211
 30
0.0
 41
0.2362204724
 42
0.2362204724
 50
180.0
  0
POINT
  5
F8
330
EB
100
AcDbEntity
  8
0
 62
     7
100
AcDbPoint
 10
2.1
 20
8.074999999999999
 30
0.0
  0
POINT
  5
F9
330
EB
100
AcDbEntity
  8
0
 62
     7
100
AcDbPoint
 10
3.7
 20
8.074999999999999
 30
0.0
  0
ENDBLK
  5
FA
330
EB
100
AcDbEntity
  8
0
 62
   255
100
AcDbBlockEnd
  0
BLOCK
  5
FD
330
FC
100
AcDbEntity
  8
0
 62
   255
100
AcDbBlockBegin
  2
*D4
 70
     1
 10
0.0
 20
0.0
 30
0.0
  3
*D4
  1

  0
MTEXT
  5
FE
330
FC
100
AcDbEntity
  8
0
 62
   255
100
AcDbMText
 10
2.671223145299999
 20
9.968237896399999
 30
0.0
 40
0.1377952756
 41
0.0
 71
     7
 72
     1
  1
10.00
  7
SLDTEXTSTYLE0
 73
     1
 44
1.0
  0
LINE
  5
FF
330
FC
100
AcDbEntity
  8
0
  6
Continuous
 62
     7
100
AcDbLine
 10
1.9
 20
7.9143700787
 30
0.0
 11
1.9
 21
9.788971810999999
 31
0.0
  0
LINE
  5
100
330
FC
100
AcDbEntity
  8
0
  6
Continuous
 62
     7
100
AcDbLine
 10
3.9
 20
7.9143700787
 30
0.0
 11
3.9
 21
9.788971810999999
 31
0.0
  0
LINE
  5
101
330
FC
100
AcDbEntity
  8
0
  6
Continuous
 62
     7
100
AcDbLine
 10
1.9
 20
9.7496017323
 30
0.0
 11
1.427559055099999
 21
9.7496017323
 31
0.0
  0
LINE
  5
102
330
FC
100
AcDbEntity
  8
0
  6
Continuous
 62
     7
100
AcDbLine
 10
1.9
 20
9.7496017323
 30
0.0
 11
3.9
 21
9.7496017323
 31
0.0
  0
LINE
  5
103
330
FC
100
AcDbEntity
  8
0
  6
Continuous
 62
     7
100
AcDbLine
 10
3.9
 20
9.7496017323
 30
0.0
 11
4.3724409449
 21
9.7496017323
 31
0.0
  0
ARC
  5
104
330
FC
100
AcDbEntity
  8
0
  6
Continuous
 62
     7
100
AcDbCircle
 10
2.827359309499999
 20
10.07755597849999
 30
0.0
 40
0.2444426627
100
AcDbArc
 50
153.4349488229
 51
206.5650511771
  0
ARC
  5
105
330
FC
100
AcDbEntity
  8
0
  6
Continuous
 62
     7
100
AcDbCircle
 10
2.9726406905
 20
10.07755597849999
 30
0.0
 40
0.2444426627
100
AcDbArc
 50
333.4349488229
 51
26.5650511771
  0
INSERT
  5
106
330
FC
100
AcDbEntity
  8
0
100
AcDbBlockReference
  2
_CLOSED
 10
1.9
 20
9.7496017323
 30
0.0
 41
0.2362204724
 42
0.2362204724
  0
INSERT
  5
107
330
FC
100
AcDbEntity
  8
0
100
AcDbBlockReference
  2
_CLOSED
 10
3.9
 20
9.7496017323
 30
0.0
 41
0.2362204724
 42
0.2362204724
 50
180.0
  0
POINT
  5
108
330
FC
100
AcDbEntity
  8
0
 62
     7
100
AcDbPoint
 10
1.9
 20
7.875
 30
0.0
  0
POINT
  5
109
330
FC
100
AcDbEntity
  8
0
 62
     7
100
AcDbPoint
 10
3.9
 20
7.875
 30
0.0
  0
ENDBLK
  5
10A
330
FC
100
AcDbEntity
  8
0
 62
   255
100
AcDbBlockEnd
  0
BLOCK
  5
10D
330
10C
100
AcDbEntity
  8
0
 62
   255
100
AcDbBlockBegin
  2
*D5
 70
     1
 10
0.0
 20
0.0
 30
0.0
  3
*D5
  1

  0
MTEXT
  5
10E
330
10C
100
AcDbEntity
  8
0
 62
   255
100
AcDbMText
 10
2.7122382737
 20
8.703265354099999
 30
0.0
 40
0.1377952756
 41
0.0
 71
     7
 72
     1
  1
7.66
  7
SLDTEXTSTYLE0
 73
     1
 44
1.0
  0
LINE
  5
10F
330
10C
100
AcDbEntity
  8
0
  6
Continuous
 62
     7
100
AcDbLine
 10
2.1237292655
 20
7.6048877757
 30
0.0
 11
2.1237292655
 21
8.5239992687
 31
0.0
  0
LINE
  5
110
330
10C
100
AcDbEntity
  8
0
  6
Continuous
 62
     7
100
AcDbLine
 10
3.656606406999999
 20
7.6026726332
 30
0.0
 11
3.656606406999999
 21
8.5239992687
 31
0.0
  0
LINE
  5
111
330
10C
100
AcDbEntity
  8
0
  6
Continuous
 62
     7
100
AcDbLine
 10
2.1237292655
 20
8.484629189999999
 30
0.0
 11
1.651288320599999
 21
8.484629189999999
 31
0.0
  0
LINE
  5
112
330
10C
100
AcDbEntity
  8
0
  6
Continuous
 62
     7
100
AcDbLine
 10
2.1237292655
 20
8.484629189999999
 30
0.0
 11
3.656606406999999
 21
8.484629189999999
 31
0.0
  0
LINE
  5
113
330
10C
100
AcDbEntity
  8
0
  6
Continuous
 62
     7
100
AcDbLine
 10
3.656606406999999
 20
8.484629189999999
 30
0.0
 11
4.129047351799999
 21
8.484629189999999
 31
0.0
  0
ARC
  5
114
330
10C
100
AcDbEntity
  8
0
  6
Continuous
 62
     7
100
AcDbCircle
 10
2.868374437799999
 20
8.8125834362
 30
0.0
 40
0.2444426627
100
AcDbArc
 50
153.4349488229
 51
206.5650511771
  0
ARC
  5
115
330
10C
100
AcDbEntity
  8
0
  6
Continuous
 62
     7
100
AcDbCircle
 10
2.911961234599999
 20
8.8125834362
 30
0.0
 40
0.2444426627
100
AcDbArc
 50
333.4349488229
 51
26.5650511771
  0
INSERT
  5
116
330
10C
100
AcDbEntity
  8
0
100
AcDbBlockReference
  2
_CLOSED
 10
2.1237292655
 20
8.484629189999999
 30
0.0
 41
0.2362204724
 42
0.2362204724
 50
360.0
  0
INSERT
  5
117
330
10C
100
AcDbEntity
  8
0
100
AcDbBlockReference
  2
_CLOSED
 10
3.656606406999999
 20
8.484629189999999
 30
0.0
 41
0.2362204724
 42
0.2362204724
 50
180.0
  0
POINT
  5
119
330
10C
100
AcDbEntity
  8
0
 62
     7
100
AcDbPoint
 10
2.1237292655
 20
7.5655176969
 30
0.0
  0
POINT
  5
11A
330
10C
100
AcDbEntity
  8
0
 62
     7
100
AcDbPoint
 10
3.656606406999999
 20
7.5633025544
 30
0.0
  0
ENDBLK
  5
11B
330
10C
100
AcDbEntity
  8
0
 62
   255
100
AcDbBlockEnd
  0
BLOCK
  5
11E
330
11D
100
AcDbEntity
  8
0
 62
   255
100
AcDbBlockBegin
  2
*D6
 70
     1
 10
0.0
 20
0.0
 30
0.0
  3
*D6
  1

  0
MTEXT
  5
11F
330
11D
100
AcDbEntity
  8
0
 62
   255
100
AcDbMText
 10
0.8850944981999999
 20
6.4742627671
 30
0.0
 40
0.1377952756
 41
0.0
 71
     7
 72
     1
  1
4.50
  7
SLDTEXTSTYLE0
 11
0.0
 21
1.0
 31
0.0
 73
     1
 44
1.0
  0
LINE
  5
120
330
11D
100
AcDbEntity
  8
0
  6
Continuous
 62
     7
100
AcDbLine
 10
2.060629921299999
 20
6.075
 30
0.0
 11
1.0643605836
 21
6.075
 31
0.0
  0
LINE
  5
121
330
11D
100
AcDbEntity
  8
0
  6
Continuous
 62
     7
100
AcDbLine
 10
2.886239984899999
 20
6.9740752264
 30
0.0
 11
1.0643605836
 21
6.9740752264
 31
0.0
  0
LINE
  5
122
330
11D
100
AcDbEntity
  8
0
  6
Continuous
 62
     7
100
AcDbLine
 10
1.1037306623
 20
6.075
 30
0.0
 11
1.1037306623
 21
5.602559055099999
 31
0.0
  0
LINE
  5
123
330
11D
100
AcDbEntity
  8
0
  6
Continuous
 62
     7
100
AcDbLine
 10
1.1037306623
 20
6.075
 30
0.0
 11
1.1037306623
 21
6.9740752264
 31
0.0
  0
LINE
  5
124
330
11D
100
AcDbEntity
  8
0
  6
Continuous
 62
     7
100
AcDbLine
 10
1.1037306623
 20
6.9740752264
 30
0.0
 11
1.1037306623
 21
7.446516171299999
 31
0.0
  0
ARC
  5
125
330
11D
100
AcDbEntity
  8
0
  6
Continuous
 62
     7
100
AcDbCircle
 10
0.7757764161000001
 20
6.6303989313
 30
0.0
 40
0.2444426627
100
AcDbArc
 50
243.4349488229
 51
296.5650511770999
  0
ARC
  5
126
330
11D
100
AcDbEntity
  8
0
  6
Continuous
 62
     7
100
AcDbCircle
 10
0.7757764161000001
 20
6.673985727999999
 30
0.0
 40
0.2444426627
100
AcDbArc
 50
63.43494882289999
 51
116.5650511771
  0
INSERT
  5
127
330
11D
100
AcDbEntity
  8
0
100
AcDbBlockReference
  2
_CLOSED
 10
1.1037306623
 20
6.075
 30
0.0
 41
0.2362204724
 42
0.2362204724
 50
90.0
  0
INSERT
  5
128
330
11D
100
AcDbEntity
  8
0
100
AcDbBlockReference
  2
_CLOSED
 10
1.1037306623
 20
6.9740752264
 30
0.0
 41
0.2362204724
 42
0.2362204724
 50
270.0
  0
POINT
  5
129
330
11D
100
AcDbEntity
  8
0
 62
     7
100
AcDbPoint
 10
2.1
 20
6.075
 30
0.0
  0
POINT
  5
12A
330
11D
100
AcDbEntity
  8
0
 62
     7
100
AcDbPoint
 10
2.9256100637
 20
6.9740752264
 30
0.0
  0
ENDBLK
  5
12B
330
11D
100
AcDbEntity
  8
0
 62
   255
100
AcDbBlockEnd
  0
BLOCK
  5
12E
330
12D
100
AcDbEntity
  8
0
 62
   255
100
AcDbBlockBegin
  2
*D7
 70
     1
 10
0.0
 20
0.0
 30
0.0
  3
*D7
  1

  0
MTEXT
  5
12F
330
12D
100
AcDbEntity
  8
0
 62
   255
100
AcDbMText
 10
4.5572391011
 20
5.883462361499999
 30
0.0
 40
0.1377952756
 41
0.0
 71
     7
 72
     1
  1
R
  7
SLDTEXTSTYLE0
 11
0.7908958769175295
 21
-0.6119507430135633
 31
0.0
 73
     1
 44
1.0
  0
MTEXT
  5
130
330
12D
100
AcDbEntity
  8
0
 62
   255
100
AcDbMText
 10
4.645290991399999
 20
5.815332761599999
 30
0.0
 40
0.1377952756
 41
0.0
 71
     7
 72
     1
  1
1.00
  7
SLDTEXTSTYLE0
 11
0.7908958769175295
 21
-0.6119507430135633
 31
0.0
 73
     1
 44
1.0
  0
LINE
  5
131
330
12D
100
AcDbEntity
  8
0
  6
Continuous
 62
     7
100
AcDbLine
 10
3.8581791754
 20
6.1526098514
 30
0.0
 11
4.894078445399999
 21
5.3510892637
 31
0.0
  0
LINE
  5
132
330
12D
100
AcDbEntity
  8
0
  6
Continuous
 62
     7
100
AcDbLine
 10
3.8581791754
 20
6.1526098514
 30
0.0
 11
3.7
 21
6.275
 31
0.0
  0
ARC
  5
133
330
12D
100
AcDbEntity
  8
0
  6
Continuous
 62
     7
100
AcDbCircle
 10
4.7476238312
 20
5.874373940199999
 30
0.0
 40
0.2444426627
100
AcDbArc
 50
115.7042603867
 51
168.8343627409
  0
ARC
  5
134
330
12D
100
AcDbEntity
  8
0
  6
Continuous
 62
     7
100
AcDbCircle
 10
4.8701483393
 20
5.7795713677
 30
0.0
 40
0.2444426627
100
AcDbArc
 50
295.7042603866999
 51
348.8343627408999
  0
INSERT
  5
135
330
12D
100
AcDbEntity
  8
0
100
AcDbBlockReference
  2
_CLOSED
 10
3.8581791754
 20
6.1526098514
 30
0.0
 41
0.2362204724
 42
0.2362204724
 50
142.2693115637999
  0
POINT
  5
137
330
12D
100
AcDbEntity
  8
0
 62
     7
100
AcDbPoint
 10
3.8581791754
 20
6.1526098514
 30
0.0
  0
POINT
  5
138
330
12D
100
AcDbEntity
  8
0
 62
     7
100
AcDbPoint
 10
3.7
 20
6.275
 30
0.0
  0
ENDBLK
  5
139
330
12D
100
AcDbEntity
  8
0
100
AcDbBlockEnd
  0
BLOCK
  5
13C
330
13B
100
AcDbEntity
  8
0
 62
   255
100
AcDbBlockBegin
  2
*D8
 70
     1
 10
0.0
 20
0.0
 30
0.0
  3
*D8
  1

  0
MTEXT
  5
13D
330
13B
100
AcDbEntity
  8
0
 62
   255
100
AcDbMText
 10
0.7020130724
 20
7.915231479199999
 30
0.0
 40
0.1377952756
 41
0.0
 71
     7
 72
     1
  1
1.50
  7
SLDTEXTSTYLE0
 73
     1
 44
1.0
  0
LINE
  5
13E
330
13B
100
AcDbEntity
  8
0
  6
Continuous
 62
     7
100
AcDbLine
 10
1.6
 20
6.7137822249
 30
0.0
 11
1.6
 21
7.735965393799999
 31
0.0
  0
LINE
  5
13F
330
13B
100
AcDbEntity
  8
0
  6
Continuous
 62
     7
100
AcDbLine
 10
1.9
 20
6.7137822249
 30
0.0
 11
1.9
 21
7.735965393799999
 31
0.0
  0
LINE
  5
140
330
13B
100
AcDbEntity
  8
0
  6
Continuous
 62
     7
100
AcDbLine
 10
1.6
 20
7.696595314999999
 30
0.0
 11
0.5770130724
 21
7.696595314999999
 31
0.0
  0
LINE
  5
141
330
13B
100
AcDbEntity
  8
0
  6
Continuous
 62
     7
100
AcDbLine
 10
1.6
 20
7.696595314999999
 30
0.0
 11
1.9
 21
7.696595314999999
 31
0.0
  0
LINE
  5
142
330
13B
100
AcDbEntity
  8
0
  6
Continuous
 62
     7
100
AcDbLine
 10
1.9
 20
7.696595314999999
 30
0.0
 11
2.3724409449
 21
7.696595314999999
 31
0.0
  0
ARC
  5
143
330
13B
100
AcDbEntity
  8
0
  6
Continuous
 62
     7
100
AcDbCircle
 10
0.8581492365999999
 20
8.0245495613
 30
0.0
 40
0.2444426627
100
AcDbArc
 50
153.4349488229
 51
206.5650511771
  0
ARC
  5
144
330
13B
100
AcDbEntity
  8
0
  6
Continuous
 62
     7
100
AcDbCircle
 10
0.9017360332999999
 20
8.0245495613
 30
0.0
 40
0.2444426627
100
AcDbArc
 50
333.4349488229
 51
26.5650511771
  0
INSERT
  5
145
330
13B
100
AcDbEntity
  8
0
100
AcDbBlockReference
  2
_CLOSED
 10
1.6
 20
7.696595314999999
 30
0.0
 41
0.2362204724
 42
0.2362204724
 50
360.0
  0
INSERT
  5
146
330
13B
100
AcDbEntity
  8
0
100
AcDbBlockReference
  2
_CLOSED
 10
1.9
 20
7.696595314999999
 30
0.0
 41
0.2362204724
 42
0.2362204724
 50
180.0
  0
POINT
  5
147
330
13B
100
AcDbEntity
  8
0
 62
     7
100
AcDbPoint
 10
1.6
 20
6.674412146199999
 30
0.0
  0
POINT
  5
148
330
13B
100
AcDbEntity
  8
0
 62
     7
100
AcDbPoint
 10
1.9
 20
6.674412146199999
 30
0.0
  0
ENDBLK
  5
149
330
13B
100
AcDbEntity
  8
0
 62
   255
100
AcDbBlockEnd
  0
BLOCK
  5
17E
330
17D
100
AcDbEntity
  8
0
 62
   255
100
AcDbBlockBegin
  2
*D9
 70
     1
 10
0.0
 20
0.0
 30
0.0
  3
*D9
  1

  0
MTEXT
  5
17F
330
17D
100
AcDbEntity
  8
0
 62
   255
100
AcDbMText
 10
6.346938559299999
 20
6.8970704375
 30
0.0
 40
0.1377952756
 41
0.0
 71
     7
 72
     1
  1
8.00
  7
SLDTEXTSTYLE0
 11
0.0
 21
1.0
 31
0.0
 73
     1
 44
1.0
  0
LINE
  5
180
330
17D
100
AcDbEntity
  8
0
  6
Continuous
 62
     7
100
AcDbLine
 10
7.210629921299999
 20
6.275
 30
0.0
 11
6.526204644699999
 21
6.275
 31
0.0
  0
LINE
  5
181
330
17D
100
AcDbEntity
  8
0
  6
Continuous
 62
     7
100
AcDbLine
 10
7.210629921299999
 20
7.875
 30
0.0
 11
6.526204644699999
 21
7.875
 31
0.0
  0
LINE
  5
182
330
17D
100
AcDbEntity
  8
0
  6
Continuous
 62
     7
100
AcDbLine
 10
6.5655747235
 20
6.275
 30
0.0
 11
6.5655747235
 21
5.802559055099999
 31
0.0
  0
LINE
  5
183
330
17D
100
AcDbEntity
  8
0
  6
Continuous
 62
     7
100
AcDbLine
 10
6.5655747235
 20
6.275
 30
0.0
 11
6.5655747235
 21
7.875
 31
0.0
  0
LINE
  5
184
330
17D
100
AcDbEntity
  8
0
  6
Continuous
 62
     7
100
AcDbLine
 10
6.5655747235
 20
7.875
 30
0.0
 11
6.5655747235
 21
8.3474409449
 31
0.0
  0
ARC
  5
185
330
17D
100
AcDbEntity
  8
0
  6
Continuous
 62
     7
100
AcDbCircle
 10
6.2376204772
 20
7.053206601599999
 30
0.0
 40
0.2444426627
100
AcDbArc
 50
243.4349488229
 51
296.5650511770999
  0
ARC
  5
186
330
17D
100
AcDbEntity
  8
0
  6
Continuous
 62
     7
100
AcDbCircle
 10
6.2376204772
 20
7.0967933984
 30
0.0
 40
0.2444426627
100
AcDbArc
 50
63.43494882289999
 51
116.5650511771
  0
INSERT
  5
187
330
17D
100
AcDbEntity
  8
0
100
AcDbBlockReference
  2
_CLOSED
 10
6.5655747235
 20
6.275
 30
0.0
 41
0.2362204724
 42
0.2362204724
 50
90.0
  0
INSERT
  5
188
330
17D
100
AcDbEntity
  8
0
100
AcDbBlockReference
  2
_CLOSED
 10
6.5655747235
 20
7.875
 30
0.0
 41
0.2362204724
 42
0.2362204724
 50
270.0
  0
POINT
  5
189
330
17D
100
AcDbEntity
  8
0
 62
     7
100
AcDbPoint
 10
7.25
 20
6.275
 30
0.0
  0
POINT
  5
18A
330
17D
100
AcDbEntity
  8
0
 62
     7
100
AcDbPoint
 10
7.25
 20
7.875
 30
0.0
  0
ENDBLK
  5
18B
330
17D
100
AcDbEntity
  8
0
 62
   255
100
AcDbBlockEnd
  0
BLOCK
  5
18E
330
18D
100
AcDbEntity
  8
0
 62
   255
100
AcDbBlockBegin
  2
*D10
 70
     1
 10
0.0
 20
0.0
 30
0.0
  3
*D10
  1

  0
MTEXT
  5
18F
330
18D
100
AcDbEntity
  8
0
 62
   255
100
AcDbMText
 10
10.0783689813
 20
8.104735747999999
 30
0.0
 40
0.1377952756
 41
0.0
 71
     7
 72
     1
  1
%%c
  7
SLDTEXTSTYLE0
 11
0.9175265953228176
 21
0.3976744232098897
 31
0.0
 73
     1
 44
1.0
  0
MTEXT
  5
190
330
18D
100
AcDbEntity
  8
0
 62
   255
100
AcDbMText
 10
10.2635322096
 20
8.1849892037
 30
0.0
 40
0.1377952756
 41
0.0
 71
     7
 72
     1
  1
4.01
  7
SLDTEXTSTYLE0
 11
0.9175265953228176
 21
0.3976744232098897
 31
0.0
 73
     1
 44
1.0
  0
LINE
  5
191
330
18D
100
AcDbEntity
  8
0
  6
Continuous
 62
     7
100
AcDbLine
 10
8.6175500097
 20
7.2343035437
 30
0.0
 11
10.78669349349999
 21
8.1744538217
 31
0.0
  0
LINE
  5
192
330
18D
100
AcDbEntity
  8
0
  6
Continuous
 62
     7
100
AcDbLine
 10
8.6175500097
 20
7.2343035437
 30
0.0
 11
7.882449990299999
 21
6.9156964563
 31
0.0
  0
ARC
  5
193
330
18D
100
AcDbEntity
  8
0
  6
Continuous
 62
     7
100
AcDbCircle
 10
10.1781550592
 20
8.267129354699999
 30
0.0
 40
0.2444426627
100
AcDbArc
 50
176.8678245377999
 51
229.997926892
  0
ARC
  5
194
330
18D
100
AcDbEntity
  8
0
  6
Continuous
 62
     7
100
AcDbCircle
 10
10.39869115019999
 20
8.362714118399999
 30
0.0
 40
0.2444426627
100
AcDbArc
 50
356.8678245377999
 51
49.99792689199999
  0
INSERT
  5
195
330
18D
100
AcDbEntity
  8
0
100
AcDbBlockReference
  2
_CLOSED
 10
8.6175500097
 20
7.2343035437
 30
0.0
 41
0.2362204724
 42
0.2362204724
 50
203.4328757149
  0
POINT
  5
197
330
18D
100
AcDbEntity
  8
0
 62
     7
100
AcDbPoint
 10
8.6175500097
 20
7.2343035437
 30
0.0
  0
POINT
  5
198
330
18D
100
AcDbEntity
  8
0
 62
     7
100
AcDbPoint
 10
7.882449990299999
 20
6.9156964563
 30
0.0
  0
ENDBLK
  5
199
330
18D
100
AcDbEntity
  8
0
100
AcDbBlockEnd
  0
ENDSEC
  0
SECTION
  2
ENTITIES
  0
LINE
  5
42
330
A
100
AcDbEntity
  8
0
  6
Continuous
 62
     5
100
AcDbLine
 10
1.682397026899999
 20
7.5032726269
 30
0.0
 11
1.7823970269
 21
7.5032726269
 31
0.0
  0
LINE
  5
43
330
A
100
AcDbEntity
  8
0
  6
Continuous
 62
     5
100
AcDbLine
 10
1.682397026899999
 20
7.5032726269
 30
0.0
 11
1.682397026899999
 21
8.196736855700001
 31
0.0
  0
LINE
  5
44
330
A
100
AcDbEntity
  8
0
  6
Continuous
 62
     5
100
AcDbLine
 10
1.682397026899999
 20
8.196736855700001
 30
0.0
 11
1.7823970269
 21
8.196736855700001
 31
0.0
  0
LINE
  5
45
330
A
100
AcDbEntity
  8
0
  6
Continuous
 62
     5
100
AcDbLine
 10
1.7823970269
 20
7.5032726269
 30
0.0
 11
1.7823970269
 21
8.196736855700001
 31
0.0
  0
CIRCLE
  5
46
330
A
100
AcDbEntity
  8
0
  6
Continuous
 62
     5
100
AcDbCircle
 10
1.729999999999999
 20
8.275
 30
0.0
 40
0.1
  0
LINE
  5
47
330
A
100
AcDbEntity
  8
0
  6
Continuous
 62
     7
100
AcDbLine
 10
2.503172531399999
 20
6.075000007299999
 30
0.0
 11
2.503172531399999
 21
4.6749999985
 31
0.0
  0
LINE
  5
48
330
A
100
AcDbEntity
  8
0
  6
Continuous
 62
     7
100
AcDbLine
 10
3.323172542
 20
4.6749999985
 30
0.0
 11
3.323172542
 21
6.075000007299999
 31
0.0
  0
LINE
  5
49
330
A
100
AcDbEntity
  8
0
  6
Continuous
 62
     7
100
AcDbLine
 10
1.694999987499999
 20
7.4755878859
 30
0.0
 11
1.6000000249
 21
7.4755878859
 31
0.0
  0
LINE
  5
4A
330
A
100
AcDbEntity
  8
0
  6
Continuous
 62
     7
100
AcDbLine
 10
1.8999999993
 20
7.4755878859
 30
0.0
 11
1.804304478099999
 21
7.4755878859
 31
0.0
  0
LINE
  5
4B
330
A
100
AcDbEntity
  8
0
  6
Continuous
 62
     7
100
AcDbLine
 10
1.6000000249
 20
6.6744121412
 30
0.0
 11
1.8999999993
 21
6.6744121412
 31
0.0
  0
LINE
  5
4C
330
A
100
AcDbEntity
  8
0
  6
Continuous
 62
     7
100
AcDbLine
 10
3.8999999751
 20
7.8750000185
 30
0.0
 11
3.8999999751
 21
6.2749999994
 31
0.0
  0
LINE
  5
4D
330
A
100
AcDbEntity
  8
0
  6
Continuous
 62
     7
100
AcDbLine
 10
2.099999982199999
 20
8.075000001499999
 30
0.0
 11
3.6999999922
 21
8.075000001499999
 31
0.0
  0
LINE
  5
4E
330
A
100
AcDbEntity
  8
0
  6
Continuous
 62
     7
100
AcDbLine
 10
1.8999999993
 20
6.2749999994
 30
0.0
 11
1.8999999993
 21
7.8750000185
 31
0.0
  0
POLYLINE
  5
4F
330
A
100
AcDbEntity
  8
0
  6
Continuous
 62
     7
100
AcDb2dPolyline
 66
     1
 10
0.0
 20
0.0
 30
0.0
 70
   128
  0
VERTEX
  5
50
330
4F
100
AcDbEntity
  8
0
100
AcDbVertex
100
AcDb2dVertex
 10
3.6566063735
 20
7.563302559299999
 30
0.0
  0
VERTEX
  5
51
330
4F
100
AcDbEntity
  8
0
100
AcDbVertex
100
AcDb2dVertex
 10
3.654600289999999
 20
7.566052160899999
 30
0.0
  0
VERTEX
  5
52
330
4F
100
AcDbEntity
  8
0
100
AcDbVertex
100
AcDb2dVertex
 10
3.6513796005
 20
7.5682241224
 30
0.0
  0
VERTEX
  5
53
330
4F
100
AcDbEntity
  8
0
100
AcDbVertex
100
AcDb2dVertex
 10
3.6469870579
 20
7.569840883799999
 30
0.0
  0
VERTEX
  5
54
330
4F
100
AcDbEntity
  8
0
100
AcDbVertex
100
AcDb2dVertex
 10
3.638295178299999
 20
7.5712738739
 30
0.0
  0
VERTEX
  5
55
330
4F
100
AcDbEntity
  8
0
100
AcDbVertex
100
AcDb2dVertex
 10
3.627208186399999
 20
7.571583337
 30
0.0
  0
VERTEX
  5
56
330
4F
100
AcDbEntity
  8
0
100
AcDbVertex
100
AcDb2dVertex
 10
3.598428118899999
 20
7.5691335186
 30
0.0
  0
VERTEX
  5
57
330
4F
100
AcDbEntity
  8
0
100
AcDbVertex
100
AcDb2dVertex
 10
3.5618052886
 20
7.563094881699999
 30
0.0
  0
VERTEX
  5
58
330
4F
100
AcDbEntity
  8
0
100
AcDbVertex
100
AcDb2dVertex
 10
3.518498128899999
 20
7.554071025899999
 30
0.0
  0
VERTEX
  5
59
330
4F
100
AcDbEntity
  8
0
100
AcDbVertex
100
AcDb2dVertex
 10
3.4696649997
 20
7.5426654044
 30
0.0
  0
VERTEX
  5
5A
330
4F
100
AcDbEntity
  8
0
100
AcDbVertex
100
AcDb2dVertex
 10
3.4164643343
 20
7.529481689999999
 30
0.0
  0
VERTEX
  5
5B
330
4F
100
AcDbEntity
  8
0
100
AcDbVertex
100
AcDb2dVertex
 10
3.360054492599999
 20
7.5151232625
 30
0.0
  0
VERTEX
  5
5C
330
4F
100
AcDbEntity
  8
0
100
AcDbVertex
100
AcDb2dVertex
 10
3.2931425589
 20
7.498049553099999
 30
0.0
  0
VERTEX
  5
5D
330
4F
100
AcDbEntity
  8
0
100
AcDbVertex
100
AcDb2dVertex
 10
3.225281262799999
 20
7.4811308685
 30
0.0
  0
VERTEX
  5
5E
330
4F
100
AcDbEntity
  8
0
100
AcDbVertex
100
AcDb2dVertex
 10
3.1581998211
 20
7.4652680985
 30
0.0
  0
VERTEX
  5
5F
330
4F
100
AcDbEntity
  8
0
100
AcDbVertex
100
AcDb2dVertex
 10
3.0936273404
 20
7.451362132399999
 30
0.0
  0
VERTEX
  5
60
330
4F
100
AcDbEntity
  8
0
100
AcDbVertex
100
AcDb2dVertex
 10
3.033293018999999
 20
7.440313860099999
 30
0.0
  0
VERTEX
  5
61
330
4F
100
AcDbEntity
  8
0
100
AcDbVertex
100
AcDb2dVertex
 10
2.978926018799999
 20
7.433024244299999
 30
0.0
  0
VERTEX
  5
62
330
4F
100
AcDbEntity
  8
0
100
AcDbVertex
100
AcDb2dVertex
 10
2.9322554829
 20
7.430394174699999
 30
0.0
  0
SEQEND
  5
63
330
4F
100
AcDbEntity
  8
0
  0
POLYLINE
  5
64
330
A
100
AcDbEntity
  8
0
  6
Continuous
 62
     7
100
AcDb2dPolyline
 66
     1
 10
0.0
 20
0.0
 30
0.0
 70
   128
  0
VERTEX
  5
65
330
64
100
AcDbEntity
  8
0
100
AcDbVertex
100
AcDb2dVertex
 10
2.9256100563
 20
6.9740752261
 30
0.0
  0
VERTEX
  5
66
330
64
100
AcDbEntity
  8
0
100
AcDbVertex
100
AcDb2dVertex
 10
2.9455730841
 20
6.9762642008
 30
0.0
  0
VERTEX
  5
67
330
64
100
AcDbEntity
  8
0
100
AcDbVertex
100
AcDb2dVertex
 10
2.969256892099999
 20
6.983101831799999
 30
0.0
  0
VERTEX
  5
68
330
64
100
AcDbEntity
  8
0
100
AcDbVertex
100
AcDb2dVertex
 10
2.996277218299999
 20
6.994212620099999
 30
0.0
  0
VERTEX
  5
69
330
64
100
AcDbEntity
  8
0
100
AcDbVertex
100
AcDb2dVertex
 10
3.0262497454
 20
7.009221066799999
 30
0.0
  0
VERTEX
  5
6A
330
64
100
AcDbEntity
  8
0
100
AcDbVertex
100
AcDb2dVertex
 10
3.0783898397
 20
7.0397776138
 30
0.0
  0
VERTEX
  5
6B
330
64
100
AcDbEntity
  8
0
100
AcDbVertex
100
AcDb2dVertex
 10
3.135379961399999
 20
7.077574790499999
 30
0.0
  0
VERTEX
  5
6C
330
64
100
AcDbEntity
  8
0
100
AcDbVertex
100
AcDb2dVertex
 10
3.207481305099999
 20
7.1299918983
 30
0.0
  0
VERTEX
  5
6D
330
64
100
AcDbEntity
  8
0
100
AcDbVertex
100
AcDb2dVertex
 10
3.281826989599999
 20
7.188147493099999
 30
0.0
  0
VERTEX
  5
6E
330
64
100
AcDbEntity
  8
0
100
AcDbVertex
100
AcDb2dVertex
 10
3.3559010872
 20
7.2495833234
 30
0.0
  0
VERTEX
  5
6F
330
64
100
AcDbEntity
  8
0
100
AcDbVertex
100
AcDb2dVertex
 10
3.4169299222
 20
7.3026877033
 30
0.0
  0
VERTEX
  5
70
330
64
100
AcDbEntity
  8
0
100
AcDbVertex
100
AcDb2dVertex
 10
3.474376465299999
 20
7.354867360499999
 30
0.0
  0
VERTEX
  5
71
330
64
100
AcDbEntity
  8
0
100
AcDbVertex
100
AcDb2dVertex
 10
3.526683207699999
 20
7.404600426
 30
0.0
  0
VERTEX
  5
72
330
64
100
AcDbEntity
  8
0
100
AcDbVertex
100
AcDb2dVertex
 10
3.572292640799999
 20
7.450365030599999
 30
0.0
  0
VERTEX
  5
73
330
64
100
AcDbEntity
  8
0
100
AcDbVertex
100
AcDb2dVertex
 10
3.598209001399999
 20
7.477918539
 30
0.0
  0
VERTEX
  5
74
330
64
100
AcDbEntity
  8
0
100
AcDbVertex
100
AcDb2dVertex
 10
3.6199950564
 20
7.5025810608
 30
0.0
  0
VERTEX
  5
75
330
64
100
AcDbEntity
  8
0
100
AcDbVertex
100
AcDb2dVertex
 10
3.637189324399999
 20
7.5239016011
 30
0.0
  0
VERTEX
  5
76
330
64
100
AcDbEntity
  8
0
100
AcDbVertex
100
AcDb2dVertex
 10
3.6467940468
 20
7.537427631499999
 30
0.0
  0
VERTEX
  5
77
330
64
100
AcDbEntity
  8
0
100
AcDbVertex
100
AcDb2dVertex
 10
3.653361557599999
 20
7.548629975499999
 30
0.0
  0
VERTEX
  5
78
330
64
100
AcDbEntity
  8
0
100
AcDbVertex
100
AcDb2dVertex
 10
3.656871103699999
 20
7.5581829984
 30
0.0
  0
VERTEX
  5
79
330
64
100
AcDbEntity
  8
0
100
AcDbVertex
100
AcDb2dVertex
 10
3.6570809813
 20
7.5610148057
 30
0.0
  0
VERTEX
  5
7A
330
64
100
AcDbEntity
  8
0
100
AcDbVertex
100
AcDb2dVertex
 10
3.6566063735
 20
7.563302559299999
 30
0.0
  0
SEQEND
  5
7B
330
64
100
AcDbEntity
  8
0
  0
POLYLINE
  5
7C
330
A
100
AcDbEntity
  8
0
  6
Continuous
 62
     7
100
AcDb2dPolyline
 66
     1
 10
0.0
 20
0.0
 30
0.0
 70
   128
  0
VERTEX
  5
7D
330
7C
100
AcDbEntity
  8
0
100
AcDbVertex
100
AcDb2dVertex
 10
2.9322554829
 20
7.430394174699999
 30
0.0
  0
VERTEX
  5
7E
330
7C
100
AcDbEntity
  8
0
100
AcDbVertex
100
AcDb2dVertex
 10
2.895771855999999
 20
7.431738799099999
 30
0.0
  0
VERTEX
  5
7F
330
7C
100
AcDbEntity
  8
0
100
AcDbVertex
100
AcDb2dVertex
 10
2.853198928699999
 20
7.436215087399999
 30
0.0
  0
VERTEX
  5
80
330
7C
100
AcDbEntity
  8
0
100
AcDbVertex
100
AcDb2dVertex
 10
2.805491343099999
 20
7.4433702848
 30
0.0
  0
VERTEX
  5
81
330
7C
100
AcDbEntity
  8
0
100
AcDbVertex
100
AcDb2dVertex
 10
2.7536037469
 20
7.4527514897
 30
0.0
  0
VERTEX
  5
82
330
7C
100
AcDbEntity
  8
0
100
AcDbVertex
100
AcDb2dVertex
 10
2.6984907805
 20
7.463905947499999
 30
0.0
  0
VERTEX
  5
83
330
7C
100
AcDbEntity
  8
0
100
AcDbVertex
100
AcDb2dVertex
 10
2.584515619999999
 20
7.4892369682
 30
0.0
  0
VERTEX
  5
84
330
7C
100
AcDbEntity
  8
0
100
AcDbVertex
100
AcDb2dVertex
 10
2.4690142593
 20
7.516230803099999
 30
0.0
  0
VERTEX
  5
85
330
7C
100
AcDbEntity
  8
0
100
AcDbVertex
100
AcDb2dVertex
 10
2.405467956699999
 20
7.531000259099999
 30
0.0
  0
VERTEX
  5
86
330
7C
100
AcDbEntity
  8
0
100
AcDbVertex
100
AcDb2dVertex
 10
2.3450918909
 20
7.5445690424
 30
0.0
  0
VERTEX
  5
87
330
7C
100
AcDbEntity
  8
0
100
AcDbVertex
100
AcDb2dVertex
 10
2.289213123
 20
7.5563078134
 30
0.0
  0
VERTEX
  5
88
330
7C
100
AcDbEntity
  8
0
100
AcDbVertex
100
AcDb2dVertex
 10
2.2391588246
 20
7.5655869396
 30
0.0
  0
VERTEX
  5
89
330
7C
100
AcDbEntity
  8
0
100
AcDbVertex
100
AcDb2dVertex
 10
2.1962561669
 20
7.571777008099999
 30
0.0
  0
VERTEX
  5
8A
330
7C
100
AcDbEntity
  8
0
100
AcDbVertex
100
AcDb2dVertex
 10
2.161832284599999
 20
7.5742484595
 30
0.0
  0
VERTEX
  5
8B
330
7C
100
AcDbEntity
  8
0
100
AcDbVertex
100
AcDb2dVertex
 10
2.1467530721
 20
7.5737735583
 30
0.0
  0
VERTEX
  5
8C
330
7C
100
AcDbEntity
  8
0
100
AcDbVertex
100
AcDb2dVertex
 10
2.1349820714
 20
7.5718246008
 30
0.0
  0
VERTEX
  5
8D
330
7C
100
AcDbEntity
  8
0
100
AcDbVertex
100
AcDb2dVertex
 10
2.1282060763
 20
7.569187124599999
 30
0.0
  0
VERTEX
  5
8E
330
7C
100
AcDbEntity
  8
0
100
AcDbVertex
100
AcDb2dVertex
 10
2.1237292747
 20
7.5655177137
 30
0.0
  0
SEQEND
  5
8F
330
7C
100
AcDbEntity
  8
0
  0
POLYLINE
  5
90
330
A
100
AcDbEntity
  8
0
  6
Continuous
 62
     7
100
AcDb2dPolyline
 66
     1
 10
0.0
 20
0.0
 30
0.0
 70
   128
  0
VERTEX
  5
91
330
90
100
AcDbEntity
  8
0
100
AcDbVertex
100
AcDb2dVertex
 10
2.1237292747
 20
7.5655177137
 30
0.0
  0
VERTEX
  5
92
330
90
100
AcDbEntity
  8
0
100
AcDbVertex
100
AcDb2dVertex
 10
2.1223875836
 20
7.562674246599999
 30
0.0
  0
VERTEX
  5
93
330
90
100
AcDbEntity
  8
0
100
AcDbVertex
100
AcDb2dVertex
 10
2.122081420399999
 20
7.559143653999999
 30
0.0
  0
VERTEX
  5
94
330
90
100
AcDbEntity
  8
0
100
AcDbVertex
100
AcDb2dVertex
 10
2.124460473
 20
7.550114445
 30
0.0
  0
VERTEX
  5
95
330
90
100
AcDbEntity
  8
0
100
AcDbVertex
100
AcDb2dVertex
 10
2.1306358749
 20
7.5386175978
 30
0.0
  0
VERTEX
  5
96
330
90
100
AcDbEntity
  8
0
100
AcDbVertex
100
AcDb2dVertex
 10
2.1403774357
 20
7.5248404769
 30
0.0
  0
VERTEX
  5
97
330
90
100
AcDbEntity
  8
0
100
AcDbVertex
100
AcDb2dVertex
 10
2.1585151629
 20
7.503247653099999
 30
0.0
  0
VERTEX
  5
98
330
90
100
AcDbEntity
  8
0
100
AcDbVertex
100
AcDb2dVertex
 10
2.1820369612
 20
7.478378260299999
 30
0.0
  0
VERTEX
  5
99
330
90
100
AcDbEntity
  8
0
100
AcDbVertex
100
AcDb2dVertex
 10
2.2103966502
 20
7.450676547
 30
0.0
  0
VERTEX
  5
9A
330
90
100
AcDbEntity
  8
0
100
AcDbVertex
100
AcDb2dVertex
 10
2.2500454355
 20
7.414321087
 30
0.0
  0
VERTEX
  5
9B
330
90
100
AcDbEntity
  8
0
100
AcDbVertex
100
AcDb2dVertex
 10
2.294930820299999
 20
7.375294197799999
 30
0.0
  0
VERTEX
  5
9C
330
90
100
AcDbEntity
  8
0
100
AcDbVertex
100
AcDb2dVertex
 10
2.3441091622
 20
7.334363377399999
 30
0.0
  0
VERTEX
  5
9D
330
90
100
AcDbEntity
  8
0
100
AcDbVertex
100
AcDb2dVertex
 10
2.396636782099999
 20
7.292296196599999
 30
0.0
  0
VERTEX
  5
9E
330
90
100
AcDbEntity
  8
0
100
AcDbVertex
100
AcDb2dVertex
 10
2.451570037499999
 20
7.2498602269
 30
0.0
  0
VERTEX
  5
9F
330
90
100
AcDbEntity
  8
0
100
AcDbVertex
100
AcDb2dVertex
 10
2.514786160499999
 20
7.20284171
 30
0.0
  0
VERTEX
  5
A0
330
90
100
AcDbEntity
  8
0
100
AcDbVertex
100
AcDb2dVertex
 10
2.5785104411
 20
7.157401675
 30
0.0
  0
VERTEX
  5
A1
330
90
100
AcDbEntity
  8
0
100
AcDbVertex
100
AcDb2dVertex
 10
2.641417137699999
 20
7.114618549199999
 30
0.0
  0
VERTEX
  5
A2
330
90
100
AcDbEntity
  8
0
100
AcDbVertex
100
AcDb2dVertex
 10
2.702180467799999
 20
7.0755706136
 30
0.0
  0
VERTEX
  5
A3
330
90
100
AcDbEntity
  8
0
100
AcDbVertex
100
AcDb2dVertex
 10
2.759474684399999
 20
7.0413362224
 30
0.0
  0
VERTEX
  5
A4
330
90
100
AcDbEntity
  8
0
100
AcDbVertex
100
AcDb2dVertex
 10
2.7985179279
 20
7.0199147032
 30
0.0
  0
VERTEX
  5
A5
330
90
100
AcDbEntity
  8
0
100
AcDbVertex
100
AcDb2dVertex
 10
2.834459756
 20
7.002086989199999
 30
0.0
  0
VERTEX
  5
A6
330
90
100
AcDbEntity
  8
0
100
AcDbVertex
100
AcDb2dVertex
 10
2.866777327599999
 20
6.988278372
 30
0.0
  0
VERTEX
  5
A7
330
90
100
AcDbEntity
  8
0
100
AcDbVertex
100
AcDb2dVertex
 10
2.8995018854
 20
6.9777420337
 30
0.0
  0
VERTEX
  5
A8
330
90
100
AcDbEntity
  8
0
100
AcDbVertex
100
AcDb2dVertex
 10
2.9256100563
 20
6.9740752261
 30
0.0
  0
SEQEND
  5
A9
330
90
100
AcDbEntity
  8
0
  0
ARC
  5
AA
330
A
100
AcDbEntity
  8
0
  6
Continuous
 62
     7
100
AcDbCircle
 10
3.7
 20
7.875
 30
0.0
 40
0.2
100
AcDbArc
 50
0.0
 51
90.0
  0
ARC
  5
AB
330
A
100
AcDbEntity
  8
0
  6
Continuous
 62
     7
100
AcDbCircle
 10
3.7
 20
6.275
 30
0.0
 40
0.2
100
AcDbArc
 50
270.0
 51
0.0
  0
ARC
  5
AC
330
A
100
AcDbEntity
  8
0
  6
Continuous
 62
     7
100
AcDbCircle
 10
2.1
 20
6.275
 30
0.0
 40
0.2
100
AcDbArc
 50
180.0
 51
270.0
  0
LINE
  5
AD
330
A
100
AcDbEntity
  8
0
  6
Continuous
 62
     7
100
AcDbLine
 10
3.6999999922
 20
6.075000007299999
 30
0.0
 11
2.099999982199999
 21
6.075000007299999
 31
0.0
  0
ARC
  5
AE
330
A
100
AcDbEntity
  8
0
  6
Continuous
 62
     7
100
AcDbCircle
 10
2.1
 20
7.875
 30
0.0
 40
0.2
100
AcDbArc
 50
90.0
 51
180.0
  0
LINE
  5
AF
330
A
100
AcDbEntity
  8
0
  6
Continuous
 62
     7
100
AcDbLine
 10
2.618507711499999
 20
4.6749999985
 30
0.0
 11
2.618507711499999
 21
5.074999964399999
 31
0.0
  0
LINE
  5
B0
330
A
100
AcDbEntity
  8
0
  6
Continuous
 62
     7
100
AcDbLine
 10
2.618507711499999
 20
4.6749999985
 30
0.0
 11
2.503172531399999
 21
4.6749999985
 31
0.0
  0
LINE
  5
B1
330
A
100
AcDbEntity
  8
0
  6
Continuous
 62
     7
100
AcDbLine
 10
3.323172542
 20
4.6749999985
 30
0.0
 11
3.207837371
 21
4.6749999985
 31
0.0
  0
LINE
  5
B2
330
A
100
AcDbEntity
  8
0
  6
Continuous
 62
     7
100
AcDbLine
 10
3.207837371
 20
5.074999964399999
 30
0.0
 11
3.207837371
 21
4.6749999985
 31
0.0
  0
LINE
  5
B3
330
A
100
AcDbEntity
  8
0
  6
Continuous
 62
     7
100
AcDbLine
 10
2.618507711499999
 20
5.074999964399999
 30
0.0
 11
3.207837371
 21
5.074999964399999
 31
0.0
  0
POLYLINE
  5
B4
330
A
100
AcDbEntity
  8
0
  6
Continuous
 62
     7
100
AcDb2dPolyline
 66
     1
 10
0.0
 20
0.0
 30
0.0
 70
   128
  0
VERTEX
  5
B5
330
B4
100
AcDbEntity
  8
0
100
AcDbVertex
100
AcDb2dVertex
 10
1.804304478099999
 20
7.4754932137
 30
0.0
  0
VERTEX
  5
B6
330
B4
100
AcDbEntity
  8
0
100
AcDbVertex
100
AcDb2dVertex
 10
1.8036594455
 20
7.475406021299999
 30
0.0
  0
VERTEX
  5
B7
330
B4
100
AcDbEntity
  8
0
100
AcDbVertex
100
AcDb2dVertex
 10
1.796737738799999
 20
7.4745372514
 30
0.0
  0
VERTEX
  5
B8
330
B4
100
AcDbEntity
  8
0
100
AcDbVertex
100
AcDb2dVertex
 10
1.7845776726
 20
7.4732979324
 30
0.0
  0
VERTEX
  5
B9
330
B4
100
AcDbEntity
  8
0
100
AcDbVertex
100
AcDb2dVertex
 10
1.768426779199999
 20
7.472221851499999
 30
0.0
  0
VERTEX
  5
BA
330
B4
100
AcDbEntity
  8
0
100
AcDbVertex
100
AcDb2dVertex
 10
1.750220669499999
 20
7.4717942497
 30
0.0
  0
VERTEX
  5
BB
330
B4
100
AcDbEntity
  8
0
100
AcDbVertex
100
AcDb2dVertex
 10
1.732137465099999
 20
7.472196038399999
 30
0.0
  0
VERTEX
  5
BC
330
B4
100
AcDbEntity
  8
0
100
AcDbVertex
100
AcDb2dVertex
 10
1.7160645974
 20
7.473242712999999
 30
0.0
  0
VERTEX
  5
BD
330
B4
100
AcDbEntity
  8
0
100
AcDbVertex
100
AcDb2dVertex
 10
1.7036708206
 20
7.4744897319
 30
0.0
  0
VERTEX
  5
BE
330
B4
100
AcDbEntity
  8
0
100
AcDbVertex
100
AcDb2dVertex
 10
1.696457250599999
 20
7.475390401499999
 30
0.0
  0
VERTEX
  5
BF
330
B4
100
AcDbEntity
  8
0
100
AcDbVertex
100
AcDb2dVertex
 10
1.694999987499999
 20
7.4755878859
 30
0.0
  0
VERTEX
  5
C0
330
B4
100
AcDbEntity
  8
0
100
AcDbVertex
100
AcDb2dVertex
 10
1.694999987499999
 20
7.4755878859
 30
0.0
  0
SEQEND
  5
C1
330
B4
100
AcDbEntity
  8
0
  0
LINE
  5
C2
330
A
100
AcDbEntity
  8
0
  6
Continuous
 62
     7
100
AcDbLine
 10
1.6000000249
 20
6.6744121412
 30
0.0
 11
1.6000000249
 21
7.4755878859
 31
0.0
  0
LINE
  5
C3
330
A
100
AcDbEntity
  8
0
  6
Continuous
 62
     7
100
AcDbLine
 10
3.0712853518
 20
4.6749999985
 30
0.0
 11
3.207837371
 21
4.6749999985
 31
0.0
  0
LINE
  5
C4
330
A
100
AcDbEntity
  8
0
  6
Continuous
 62
     7
100
AcDbLine
 10
3.0712853518
 20
4.6749999985
 30
0.0
 11
3.0712853518
 21
5.074999964399999
 31
0.0
  0
LINE
  5
C5
330
A
100
AcDbEntity
  8
0
  6
Continuous
 62
     7
100
AcDbLine
 10
2.7550596992
 20
5.074999964399999
 30
0.0
 11
2.7550596992
 21
4.6749999985
 31
0.0
  0
LINE
  5
C6
330
A
100
AcDbEntity
  8
0
  6
Continuous
 62
     7
100
AcDbLine
 10
2.618507711499999
 20
4.6749999985
 30
0.0
 11
2.7550596992
 21
4.6749999985
 31
0.0
  0
LINE
  5
C7
330
A
100
AcDbEntity
  8
0
  6
Continuous
 62
     7
100
AcDbLine
 10
3.0712853518
 20
4.874999981499999
 30
0.0
 11
2.7550596992
 21
4.874999981499999
 31
0.0
  0
DIMENSION
  5
DE
330
A
100
AcDbEntity
  8
0
 62
   255
100
AcDbDimension
  2
*D0
 10
1.682397026899999
 20
6.468850895599999
 30
0.0
 11
2.1915260259
 21
6.468850895599999
 31
0.0
 70
   160
 71
     5
 42
0.0
  3
SLDDIMSTYLE0
100
AcDbAlignedDimension
 13
1.682397026899999
 23
7.5032726269
 33
0.0
 14
1.7823970269
 24
7.5032726269
 34
0.0
100
AcDbRotatedDimension
  0
DIMENSION
  5
EA
330
A
100
AcDbEntity
  8
0
100
AcDbDimension
  2
*D2
 10
1.8176806765
 20
8.2269157097
 30
0.0
 11
0.6580144652000001
 21
8.8628794024
 31
0.0
 70
   163
  1
<>
 71
     5
 42
0.0
  3
SLDDIMSTYLE1
100
AcDbDiametricDimension
 15
1.642319323499999
 25
8.323084290299998
 35
0.0
 40
0.0
  0
DIMENSION
  5
FB
330
A
100
AcDbEntity
  8
0
 62
   255
100
AcDbDimension
  2
*D3
 10
2.1
 20
9.1348487211
 30
0.0
 11
2.9
 21
9.1348487211
 31
0.0
 70
   160
 71
     5
 42
0.0
  3
SLDDIMSTYLE2
100
AcDbAlignedDimension
 13
2.1
 23
8.074999999999999
 33
0.0
 14
3.7
 24
8.074999999999999
 34
0.0
100
AcDbRotatedDimension
  0
DIMENSION
  5
10B
330
A
100
AcDbEntity
  8
0
 62
   255
100
AcDbDimension
  2
*D4
 10
1.9
 20
9.7496017323
 30
0.0
 11
2.9
 21
9.7496017323
 31
0.0
 70
   160
 71
     5
 42
0.0
  3
SLDDIMSTYLE2
100
AcDbAlignedDimension
 13
1.9
 23
7.875
 33
0.0
 14
3.9
 24
7.875
 34
0.0
100
AcDbRotatedDimension
  0
DIMENSION
  5
11C
330
A
100
AcDbEntity
  8
0
 62
   255
100
AcDbDimension
  2
*D5
 10
2.1237292655
 20
8.484629189999999
 30
0.0
 11
2.890167836199999
 21
8.484629189999999
 31
0.0
 70
   160
 71
     5
 42
0.0
  3
SLDDIMSTYLE3
100
AcDbAlignedDimension
 13
2.1237292655
 23
7.5655176969
 33
0.0
 14
3.656606406999999
 24
7.5633025544
 34
0.0
100
AcDbRotatedDimension
  0
DIMENSION
  5
12C
330
A
100
AcDbEntity
  8
0
 62
   255
100
AcDbDimension
  2
*D6
 10
1.1037306623
 20
6.075
 30
0.0
 11
1.1037306623
 21
6.6521923296
 31
0.0
 70
   160
 71
     5
 42
0.0
  3
SLDDIMSTYLE2
100
AcDbAlignedDimension
 13
2.1
 23
6.075
 33
0.0
 14
2.9256100637
 24
6.9740752264
 34
0.0
 50
90.0
100
AcDbRotatedDimension
  0
DIMENSION
  5
13A
330
A
100
AcDbEntity
  8
0
100
AcDbDimension
  2
*D7
 10
3.7
 20
6.275
 30
0.0
 11
4.626198355599999
 21
5.5583598095
 31
0.0
 70
   164
  1
<>
 71
     5
 42
0.0
  3
SLDDIMSTYLE4
100
AcDbRadialDimension
 15
3.8581791754
 25
6.1526098514
 35
0.0
 40
0.0
  0
DIMENSION
  5
14A
330
A
100
AcDbEntity
  8
0
 62
   255
100
AcDbDimension
  2
*D8
 10
1.6
 20
7.696595314999999
 30
0.0
 11
0.879942635
 21
7.696595314999999
 31
0.0
 70
   160
 71
     5
 42
0.0
  3
SLDDIMSTYLE2
100
AcDbAlignedDimension
 13
1.6
 23
6.674412146199999
 33
0.0
 14
1.9
 24
6.674412146199999
 34
0.0
100
AcDbRotatedDimension
  0
LINE
  5
14B
330
A
100
AcDbEntity
  8
0
  6
Continuous
 62
     7
100
AcDbLine
 10
1.8999999993
 20
2.5255878357
 30
0.0
 11
1.6000000249
 21
2.5255878357
 31
0.0
  0
LINE
  5
14C
330
A
100
AcDbEntity
  8
0
  6
Continuous
 62
     7
100
AcDbLine
 10
1.6000000249
 20
1.7244121643
 30
0.0
 11
1.8999999993
 21
1.7244121643
 31
0.0
  0
ARC
  5
14D
330
A
100
AcDbEntity
  8
0
  6
Continuous
 62
     7
100
AcDbCircle
 10
3.7
 20
2.924999999999999
 30
0.0
 40
0.2
100
AcDbArc
 50
0.0
 51
90.0
  0
LINE
  5
14E
330
A
100
AcDbEntity
  8
0
  6
Continuous
 62
     7
100
AcDbLine
 10
3.8999999751
 20
2.925000004999999
 30
0.0
 11
3.8999999751
 21
1.324999994999999
 31
0.0
  0
ARC
  5
14F
330
A
100
AcDbEntity
  8
0
  6
Continuous
 62
     7
100
AcDbCircle
 10
2.1
 20
2.924999999999999
 30
0.0
 40
0.2
100
AcDbArc
 50
90.0
 51
180.0
  0
LINE
  5
150
330
A
100
AcDbEntity
  8
0
  6
Continuous
 62
     7
100
AcDbLine
 10
1.8999999993
 20
1.324999994999999
 30
0.0
 11
1.8999999993
 21
2.925000004999999
 31
0.0
  0
LINE
  5
151
330
A
100
AcDbEntity
  8
0
  6
Continuous
 62
     7
100
AcDbLine
 10
2.099999982199999
 20
3.1249999879
 30
0.0
 11
3.6999999922
 21
3.1249999879
 31
0.0
  0
ARC
  5
152
330
A
100
AcDbEntity
  8
0
  6
Continuous
 62
     7
100
AcDbCircle
 10
2.1
 20
1.324999999999999
 30
0.0
 40
0.2
100
AcDbArc
 50
180.0
 51
270.0
  0
ARC
  5
153
330
A
100
AcDbEntity
  8
0
  6
Continuous
 62
     7
100
AcDbCircle
 10
3.7
 20
1.324999999999999
 30
0.0
 40
0.2
100
AcDbArc
 50
270.0
 51
0.0
  0
LINE
  5
154
330
A
100
AcDbEntity
  8
0
  6
Continuous
 62
     7
100
AcDbLine
 10
3.6999999922
 20
1.125000012099999
 30
0.0
 11
2.099999982199999
 21
1.125000012099999
 31
0.0
  0
POLYLINE
  5
155
330
A
100
AcDbEntity
  8
0
  6
Continuous
 62
     7
100
AcDb2dPolyline
 66
     1
 10
0.0
 20
0.0
 30
0.0
 70
   128
  0
VERTEX
  5
156
330
155
100
AcDbEntity
  8
0
100
AcDbVertex
100
AcDb2dVertex
 10
1.694999987499999
 20
2.125
 30
0.0
  0
VERTEX
  5
157
330
155
100
AcDbEntity
  8
0
100
AcDbVertex
100
AcDb2dVertex
 10
1.6980666787
 20
2.143108808899999
 30
0.0
  0
VERTEX
  5
158
330
155
100
AcDbEntity
  8
0
100
AcDbVertex
100
AcDb2dVertex
 10
1.7069060299
 20
2.159174668799999
 30
0.0
  0
VERTEX
  5
159
330
155
100
AcDbEntity
  8
0
100
AcDbVertex
100
AcDb2dVertex
 10
1.720616858199999
 20
2.171493332499999
 30
0.0
  0
VERTEX
  5
15A
330
155
100
AcDbEntity
  8
0
100
AcDbVertex
100
AcDb2dVertex
 10
1.737721293899999
 20
2.1786118865
 30
0.0
  0
VERTEX
  5
15B
330
155
100
AcDbEntity
  8
0
100
AcDbVertex
100
AcDb2dVertex
 10
1.756121734699999
 20
2.1796582494
 30
0.0
  0
VERTEX
  5
15C
330
155
100
AcDbEntity
  8
0
100
AcDbVertex
100
AcDb2dVertex
 10
1.773708844899999
 20
2.1746275171
 30
0.0
  0
VERTEX
  5
15D
330
155
100
AcDbEntity
  8
0
100
AcDbVertex
100
AcDb2dVertex
 10
1.7886996184
 20
2.164081214799999
 30
0.0
  0
VERTEX
  5
15E
330
155
100
AcDbEntity
  8
0
100
AcDbVertex
100
AcDb2dVertex
 10
1.799460353999999
 20
2.1490557023
 30
0.0
  0
VERTEX
  5
15F
330
155
100
AcDbEntity
  8
0
100
AcDbVertex
100
AcDb2dVertex
 10
1.8046401209
 20
2.1312812156
 30
0.0
  0
VERTEX
  5
160
330
155
100
AcDbEntity
  8
0
100
AcDbVertex
100
AcDb2dVertex
 10
1.8036594455
 20
2.1129307893
 30
0.0
  0
VERTEX
  5
161
330
155
100
AcDbEntity
  8
0
100
AcDbVertex
100
AcDb2dVertex
 10
1.796737738799999
 20
2.096007146799999
 30
0.0
  0
VERTEX
  5
162
330
155
100
AcDbEntity
  8
0
100
AcDbVertex
100
AcDb2dVertex
 10
1.7845776726
 20
2.0822286808
 30
0.0
  0
VERTEX
  5
163
330
155
100
AcDbEntity
  8
0
100
AcDbVertex
100
AcDb2dVertex
 10
1.768426779199999
 20
2.073178626999999
 30
0.0
  0
VERTEX
  5
164
330
155
100
AcDbEntity
  8
0
100
AcDbVertex
100
AcDb2dVertex
 10
1.750220669499999
 20
2.0700004429
 30
0.0
  0
VERTEX
  5
165
330
155
100
AcDbEntity
  8
0
100
AcDbVertex
100
AcDb2dVertex
 10
1.732137465099999
 20
2.072981458799999
 30
0.0
  0
VERTEX
  5
166
330
155
100
AcDbEntity
  8
0
100
AcDbVertex
100
AcDb2dVertex
 10
1.7160645974
 20
2.0817173517
 30
0.0
  0
VERTEX
  5
167
330
155
100
AcDbEntity
  8
0
100
AcDbVertex
100
AcDb2dVertex
 10
1.7036708206
 20
2.095358722599999
 30
0.0
  0
VERTEX
  5
168
330
155
100
AcDbEntity
  8
0
100
AcDbVertex
100
AcDb2dVertex
 10
1.696457250599999
 20
2.112423227699999
 30
0.0
  0
VERTEX
  5
169
330
155
100
AcDbEntity
  8
0
100
AcDbVertex
100
AcDb2dVertex
 10
1.694999987499999
 20
2.125
 30
0.0
  0
SEQEND
  5
16A
330
155
100
AcDbEntity
  8
0
  0
LINE
  5
16B
330
A
100
AcDbEntity
  8
0
  6
Continuous
 62
     7
100
AcDbLine
 10
1.6000000249
 20
1.7244121643
 30
0.0
 11
1.6000000249
 21
2.5255878357
 31
0.0
  0
MTEXT
  5
16C
330
A
100
AcDbEntity
  8
0
 62
   255
100
AcDbMText
 10
6.4283036434
 20
1.1980596754
 30
0.0
 40
0.1377952756
 41
0.0
 71
     1
 72
     1
  1
DPRG Logo Robot - HeadNeck\PRon Grant Jan 15, 2014\P
  7
SLDTEXTSTYLE0
 73
     1
 44
1.0
  0
LINE
  5
16D
330
A
100
AcDbEntity
  8
0
  6
Continuous
 62
     7
100
AcDbLine
 10
7.840000012999999
 20
6.075000007299999
 30
0.0
 11
7.840000012999999
 21
4.874999981499999
 31
0.0
  0
LINE
  5
16E
330
A
100
AcDbEntity
  8
0
  6
Continuous
 62
     7
100
AcDbLine
 10
8.659999987
 20
5.074999964399999
 30
0.0
 11
8.659999987
 21
6.075000007299999
 31
0.0
  0
CIRCLE
  5
16F
330
A
100
AcDbEntity
  8
0
  6
Continuous
 62
     7
100
AcDbCircle
 10
8.25
 20
7.075
 30
0.0
 40
0.4005878538000001
  0
LINE
  5
170
330
A
100
AcDbEntity
  8
0
  6
Continuous
 62
     7
100
AcDbLine
 10
7.2500000121
 20
6.2749999994
 30
0.0
 11
7.2500000121
 21
7.8750000185
 31
0.0
  0
ARC
  5
171
330
A
100
AcDbEntity
  8
0
  6
Continuous
 62
     7
100
AcDbCircle
 10
7.45
 20
7.875
 30
0.0
 40
0.2
100
AcDbArc
 50
90.0
 51
180.0
  0
ARC
  5
172
330
A
100
AcDbEntity
  8
0
  6
Continuous
 62
     7
100
AcDbCircle
 10
7.45
 20
6.275
 30
0.0
 40
0.2
100
AcDbArc
 50
180.0
 51
270.0
  0
LINE
  5
173
330
A
100
AcDbEntity
  8
0
  6
Continuous
 62
     7
100
AcDbLine
 10
7.449999994999999
 20
8.075000001499999
 30
0.0
 11
9.050000004999999
 21
8.075000001499999
 31
0.0
  0
LINE
  5
174
330
A
100
AcDbEntity
  8
0
  6
Continuous
 62
     7
100
AcDbLine
 10
9.050000004999999
 20
6.075000007299999
 30
0.0
 11
7.449999994999999
 21
6.075000007299999
 31
0.0
  0
LINE
  5
175
330
A
100
AcDbEntity
  8
0
  6
Continuous
 62
     7
100
AcDbLine
 10
9.249999987899998
 20
7.8750000185
 30
0.0
 11
9.249999987899998
 21
6.2749999994
 31
0.0
  0
ARC
  5
176
330
A
100
AcDbEntity
  8
0
  6
Continuous
 62
     7
100
AcDbCircle
 10
9.05
 20
7.875
 30
0.0
 40
0.2
100
AcDbArc
 50
0.0
 51
90.0
  0
ARC
  5
177
330
A
100
AcDbEntity
  8
0
  6
Continuous
 62
     7
100
AcDbCircle
 10
9.05
 20
6.275
 30
0.0
 40
0.2
100
AcDbArc
 50
270.0
 51
0.0
  0
LINE
  5
178
330
A
100
AcDbEntity
  8
0
  6
Continuous
 62
     7
100
AcDbLine
 10
8.5350835784
 20
4.6749999985
 30
0.0
 11
8.5350835784
 21
5.074999964399999
 31
0.0
  0
LINE
  5
179
330
A
100
AcDbEntity
  8
0
  6
Continuous
 62
     7
100
AcDbLine
 10
7.874054482999999
 20
4.874999981499999
 30
0.0
 11
7.874054482999999
 21
4.6749999985
 31
0.0
  0
LINE
  5
17A
330
A
100
AcDbEntity
  8
0
  6
Continuous
 62
     7
100
AcDbLine
 10
7.874054482999999
 20
4.874999981499999
 30
0.0
 11
7.840000012999999
 21
4.874999981499999
 31
0.0
  0
LINE
  5
17B
330
A
100
AcDbEntity
  8
0
  6
Continuous
 62
     7
100
AcDbLine
 10
8.5350835784
 20
5.074999964399999
 30
0.0
 11
8.659999987
 21
5.074999964399999
 31
0.0
  0
LINE
  5
17C
330
A
100
AcDbEntity
  8
0
  6
Continuous
 62
     7
100
AcDbLine
 10
8.5350835784
 20
4.6749999985
 30
0.0
 11
7.874054482999999
 21
4.6749999985
 31
0.0
  0
DIMENSION
  5
18C
330
A
100
AcDbEntity
  8
0
 62
   255
100
AcDbDimension
  2
*D9
 10
6.5655747235
 20
6.275
 30
0.0
 11
6.5655747235
 21
7.075
 31
0.0
 70
   160
 71
     5
 42
0.0
  3
SLDDIMSTYLE2
100
AcDbAlignedDimension
 13
7.25
 23
6.275
 33
0.0
 14
7.25
 24
7.875
 34
0.0
 50
90.0
100
AcDbRotatedDimension
  0
DIMENSION
  5
19A
330
A
100
AcDbEntity
  8
0
100
AcDbDimension
  2
*D10
 10
7.882449990299999
 20
6.9156964563
 30
0.0
 11
10.4276569317
 21
8.018840177000001
 31
0.0
 70
   163
  1
<>
 71
     5
 42
0.0
  3
SLDDIMSTYLE5
100
AcDbDiametricDimension
 15
8.6175500097
 25
7.2343035437
 35
0.0
 40
0.0
  0
ENDSEC
  0
SECTION
  2
OBJECTS
  0
DICTIONARY
  5
19
330
0
100
AcDbDictionary
281
     1
  3
ACAD_GROUP
350
1A
  3
ACAD_MLINESTYLE
350
1B
  3
ACAD_LAYOUT
350
1E
  3
ACAD_PLOTSETTINGS
350
22
  3
ACAD_PLOTSTYLENAME
350
1F
  3
ACAD_WIPEOUT_VARS
350
23
  0
DICTIONARY
  5
1A
102
{ACAD_REACTORS
330
19
102
}
330
19
100
AcDbDictionary
281
     1
  0
DICTIONARY
  5
1B
102
{ACAD_REACTORS
330
19
102
}
330
19
100
AcDbDictionary
281
     1
  3
Standard
350
1C
  0
DICTIONARY
  5
1E
102
{ACAD_REACTORS
330
19
102
}
330
19
100
AcDbDictionary
281
     1
  3
Layout1
350
21
  3
Model
350
20
  0
DICTIONARY
  5
22
102
{ACAD_REACTORS
330
19
102
}
330
19
100
AcDbDictionary
281
     1
  0
ACDBDICTIONARYWDFLT
  5
1F
102
{ACAD_REACTORS
330
19
102
}
330
19
100
AcDbDictionary
281
     1
  3
Normal
350
1D
100
AcDbDictionaryWithDefault
340
1D
  0
WIPEOUTVARIABLES
  5
23
330
19
100
AcDbWipeoutVariables
 70
     1
  0
MLINESTYLE
  5
1C
102
{ACAD_REACTORS
330
1B
102
}
330
1B
100
AcDbMlineStyle
  2
STANDARD
 70
     0
  3

 62
     0
 51
90.0
 52
90.0
 71
     2
 49
0.5
 62
   256
  6
BYLAYER
 49
-0.5
 62
   256
  6
BYLAYER
  0
LAYOUT
  5
21
102
{ACAD_REACTORS
330
1E
102
}
330
1E
100
AcDbPlotSettings
  1

  2

  4

  6

 40
0.0
 41
0.0
 42
0.0
 43
0.0
 44
0.0
 45
0.0
 46
0.0
 47
0.0
 48
0.0
 49
0.0
140
0.0
141
0.0
142
1.0
143
1.0
 70
     0
 72
     0
 73
     0
 74
     0
  7

 75
     0
147
1.0
148
0.0
149
0.0
100
AcDbLayout
  1
Layout1
 70
     1
 71
     1
 10
0.0
 20
0.0
 11
12.0
 21
9.0
 12
0.0
 22
0.0
 32
0.0
 14
1.000000000000000E+20
 24
1.000000000000000E+20
 34
1.000000000000000E+20
 15
-1.000000000000000E+20
 25
-1.000000000000000E+20
 35
-1.000000000000000E+20
146
0.0
 13
0.0
 23
0.0
 33
0.0
 16
1.0
 26
0.0
 36
0.0
 17
0.0
 27
1.0
 37
0.0
 76
     0
330
B
  0
LAYOUT
  5
20
102
{ACAD_REACTORS
330
1E
102
}
330
1E
100
AcDbPlotSettings
  1

  2

  4

  6

 40
0.0
 41
0.0
 42
0.0
 43
0.0
 44
0.0
 45
0.0
 46
0.0
 47
0.0
 48
0.0
 49
0.0
140
0.0
141
0.0
142
1.0
143
1.0
 70
  1024
 72
     0
 73
     0
 74
     0
  7

 75
     0
147
1.0
148
0.0
149
0.0
100
AcDbLayout
  1
Model
 70
     0
 71
     0
 10
0.0
 20
0.0
 11
0.0
 21
0.0
 12
0.0
 22
0.0
 32
0.0
 14
0.0
 24
0.0
 34
0.0
 15
0.0
 25
0.0
 35
0.0
146
0.0
 13
0.0
 23
0.0
 33
0.0
 16
0.0
 26
0.0
 36
0.0
 17
0.0
 27
0.0
 37
0.0
 76
     0
330
A
  0
ACDBPLACEHOLDER
  5
1D
102
{ACAD_REACTORS
330
1F
102
}
330
1F
  0
ENDSEC
  0
EOF
