  0
SECTION
  2
HEADER
  9
$ACADVER
  1
AC1015
  9
$ACADMAINTVER
 70
         6
  9
$DWGCODEPAGE
  3
ANSI_1252
  9
$INSBASE
 10
0.0
 20
0.0
 30
0.0
  9
$EXTMIN
 10
0.0
 20
0.0
 30
0.0
  9
$EXTMAX
 10
11.0
 20
8.5
 30
0.0
  9
$LIMMIN
 10
0.0
 20
0.0
  9
$LIMMAX
 10
0.0
 20
0.0
  9
$ORTHOMODE
 70
         0
  9
$REGENMODE
 70
         1
  9
$FILLMODE
 70
         1
  9
$QTEXTMODE
 70
         0
  9
$MIRRTEXT
 70
         1
  9
$LTSCALE
 40
1.0
  9
$ATTMODE
 70
         1
  9
$TEXTSIZE
 40
0.1377952756
  9
$TRACEWID
 40
0.05
  9
$TEXTSTYLE
  7
Standard
  9
$CLAYER
  8
0
  9
$CELTYPE
  6
Continuous
  9
$CECOLOR
 62
       256
  9
$CELTSCALE
 40
1.0
  9
$DISPSILH
 70
         0
  9
$DIMSCALE
 40
1.0
  9
$DIMASZ
 40
0.2362204724
  9
$DIMEXO
 40
0.0393700787
  9
$DIMDLI
 40
0.38
  9
$DIMRND
 40
0.0
  9
$DIMDLE
 40
0.0393700787
  9
$DIMEXE
 40
0.18
  9
$DIMTP
 40
0.0
  9
$DIMTM
 40
0.0
  9
$DIMTXT
 40
0.1377952756
  9
$DIMCEN
 40
0.09
  9
$DIMTSZ
 40
0.0
  9
$DIMTOL
 70
         0
  9
$DIMLIM
 70
         0
  9
$DIMTIH
 70
         1
  9
$DIMTOH
 70
         1
  9
$DIMSE1
 70
         0
  9
$DIMSE2
 70
         0
  9
$DIMTAD
 70
         1
  9
$DIMZIN
 70
         0
  9
$DIMBLK
  1

  9
$DIMASO
 70
         1
  9
$DIMSHO
 70
         1
  9
$DIMPOST
  1

  9
$DIMAPOST
  1

  9
$DIMALT
 70
         0
  9
$DIMALTD
 70
         2
  9
$DIMALTF
 40
25.4
  9
$DIMLFAC
 40
5.0
  9
$DIMTOFL
 70
         0
  9
$DIMTVP
 40
0.0
  9
$DIMTIX
 70
         0
  9
$DIMSOXD
 70
         0
  9
$DIMSAH
 70
         0
  9
$DIMBLK1
  1

  9
$DIMBLK2
  1

  9
$DIMSTYLE
  2
Standard
  9
$DIMCLRD
 70
         0
  9
$DIMCLRE
 70
         0
  9
$DIMCLRT
 70
         0
  9
$DIMTFAC
 40
1.0
  9
$DIMGAP
 40
0.0393700787
  9
$DIMJUST
 70
         0
  9
$DIMSD1
 70
         0
  9
$DIMSD2
 70
         0
  9
$DIMTOLJ
 70
         1
  9
$DIMTZIN
 70
         0
  9
$DIMALTZ
 70
         0
  9
$DIMALTTZ
 70
         0
  9
$DIMUPT
 70
         0
  9
$DIMDEC
 70
         4
  9
$DIMTDEC
 70
         4
  9
$DIMALTU
 70
         2
  9
$DIMALTTD
 70
         2
  9
$DIMTXSTY
  7
Standard
  9
$DIMAUNIT
 70
         0
  9
$DIMADEC
 70
         0
  9
$DIMALTRND
 40
0.0
  9
$DIMAZIN
 70
         0
  9
$DIMDSEP
 70
         0
  9
$DIMATFIT
 70
         3
  9
$DIMFRAC
 70
         0
  9
$DIMLDRBLK
  1

  9
$DIMLUNIT
 70
         2
  9
$DIMLWD
 70
         0
  9
$DIMLWE
 70
         0
  9
$DIMTMOVE
 70
         0
  9
$LUNITS
 70
         2
  9
$LUPREC
 70
         2
  9
$SKETCHINC
 40
0.1
  9
$FILLETRAD
 40
0.0
  9
$AUNITS
 70
         0
  9
$AUPREC
 70
         2
  9
$MENU
  1
acad
  9
$ELEVATION
 40
0.0
  9
$PELEVATION
 40
0.0
  9
$THICKNESS
 40
0.0
  9
$LIMCHECK
 70
         0
  9
$CHAMFERA
 40
0.0
  9
$CHAMFERB
 40
0.0
  9
$CHAMFERC
 40
0.0
  9
$CHAMFERD
 40
0.0
  9
$SKPOLY
 70
         0
  9
$TDCREATE
 40
0.000000000
  9
$TDUCREATE
 40
0.000000000
  9
$TDUPDATE
 40
0.000000000
  9
$TDUUPDATE
 40
0.000000000
  9
$TDINDWG
 40
0.0000000000
  9
$TDUSRTIMER
 40
0.0000000000
  9
$USRTIMER
 70
         1
  9
$ANGBASE
 50
0.0
  9
$ANGDIR
 70
         0
  9
$PDMODE
 70
         0
  9
$PDSIZE
 40
-1.0
  9
$PLINEWID
 40
0.0
  9
$SPLFRAME
 70
         0
  9
$SPLINETYPE
 70
         6
  9
$SPLINESEGS
 70
         8
  9
$HANDSEED
  5
175
  9
$SURFTAB1
 70
         6
  9
$SURFTAB2
 70
         6
  9
$SURFTYPE
 70
         6
  9
$SURFU
 70
         6
  9
$SURFV
 70
         6
  9
$UCSBASE
  2

  9
$UCSNAME
  2

  9
$UCSORG
 10
0.0
 20
0.0
 30
0.0
  9
$UCSXDIR
 10
1.0
 20
0.0
 30
0.0
  9
$UCSYDIR
 10
0.0
 20
1.0
 30
0.0
  9
$UCSORTHOREF
  2

  9
$UCSORTHOVIEW
 70
         0
  9
$UCSORGTOP
 10
0.0
 20
0.0
 30
0.0
  9
$UCSORGBOTTOM
 10
0.0
 20
0.0
 30
0.0
  9
$UCSORGLEFT
 10
0.0
 20
0.0
 30
0.0
  9
$UCSORGRIGHT
 10
0.0
 20
0.0
 30
0.0
  9
$UCSORGFRONT
 10
0.0
 20
0.0
 30
0.0
  9
$UCSORGBACK
 10
0.0
 20
0.0
 30
0.0
  9
$PUCSBASE
  2

  9
$PUCSNAME
  2

  9
$PUCSORG
 10
0.0
 20
0.0
 30
0.0
  9
$PUCSXDIR
 10
1.0
 20
0.0
 30
0.0
  9
$PUCSYDIR
 10
0.0
 20
1.0
 30
0.0
  9
$PUCSORTHOREF
  2

  9
$PUCSORTHOVIEW
 70
         0
  9
$PUCSORGTOP
 10
0.0
 20
0.0
 30
0.0
  9
$PUCSORGBOTTOM
 10
0.0
 20
0.0
 30
0.0
  9
$PUCSORGLEFT
 10
0.0
 20
0.0
 30
0.0
  9
$PUCSORGRIGHT
 10
0.0
 20
0.0
 30
0.0
  9
$PUCSORGFRONT
 10
0.0
 20
0.0
 30
0.0
  9
$PUCSORGBACK
 10
0.0
 20
0.0
 30
0.0
  9
$USERI1
 70
         0
  9
$USERI2
 70
         0
  9
$USERI3
 70
         0
  9
$USERI4
 70
         0
  9
$USERI5
 70
         0
  9
$USERR1
 40
0.0
  9
$USERR2
 40
0.0
  9
$USERR3
 40
0.0
  9
$USERR4
 40
0.0
  9
$USERR5
 40
0.0
  9
$WORLDVIEW
 70
         1
  9
$SHADEDGE
 70
         3
  9
$SHADEDIF
 70
        70
  9
$TILEMODE
 70
         1
  9
$MAXACTVP
 70
        16
  9
$PINSBASE
 10
0.0
 20
0.0
 30
0.0
  9
$PLIMCHECK
 70
         0
  9
$PEXTMIN
 10
1.0000000000E+20
 20
1.0000000000E+20
 30
1.0000000000E+20
  9
$PEXTMAX
 10
-1.0000000000E+20
 20
-1.0000000000E+20
 30
-1.0000000000E+20
  9
$PLIMMIN
 10
0.0
 20
0.0
  9
$PLIMMAX
 10
12.0
 20
9.0
  9
$UNITMODE
 70
         0
  9
$VISRETAIN
 70
         0
  9
$PLINEGEN
 70
         1
  9
$PSLTSCALE
 70
         1
  9
$TREEDEPTH
 70
      3020
  9
$CMLSTYLE
  2
Standard
  9
$CMLJUST
 70
         0
  9
$CMLSCALE
 40
1.0
  9
$PROXYGRAPHICS
 70
         0
  9
$MEASUREMENT
 70
         0
  9
$CELWEIGHT
370
         0
  9
$ENDCAPS
280
         0
  9
$JOINSTYLE
280
         0
  9
$LWDISPLAY
290
         0
  9
$INSUNITS
 70
         0
  9
$HYPERLINKBASE
  1

  9
$XEDIT
290
         1
  9
$CEPSNTYPE
380
         0
  9
$PSTYLEMODE
290
         1
  9
$FINGERPRINTGUID
  2

  9
$VERSIONGUID
  2

  9
$EXTNAMES
290
         1
  9
$PSVPSCALE
 40
0.0
  0
ENDSEC
  0
SECTION
  2
CLASSES
  0
CLASS
  1
LWPOLYLINE
  2
AcDbPolyline
  3
AutoCAD 2000
 90
    32768
280
         0
281
         1
  0
CLASS
  1
IMAGE
  2
AcDbRasterImage
  3
ISM
 90
    32895
280
         0
281
         1
  0
CLASS
  1
OLE2FRAME
  2
AcDbOle2Frame
  3
AutoCAD 2000
 90
    32768
280
         0
281
         1
  0
CLASS
  1
HATCH
  2
AcDbHatch
  3
AutoCAD 2000
 90
    32768
280
         0
281
         1
  0
CLASS
  1
DICTIONARYVAR
  2
AcDbDictionaryVar
  3
AutoCAD 2000
 90
    32768
280
         0
281
         0
  0
CLASS
  1
RASTERVARIABLES
  2
AcDbRasterVariables
  3
ISM
 90
    32768
280
         0
281
         0
  0
CLASS
  1
IMAGEDEF
  2
AcDbRasterImageDef
  3
ISM
 90
    32768
280
         0
281
         0
  0
CLASS
  1
IMAGEDEF_REACTOR
  2
AcDbRasterImageDefReactor
  3
ISM
 90
    32769
280
         0
281
         0
  0
CLASS
  1
IDBUFFER
  2
AcDbIdBuffer
  3
AutoCAD 2000
 90
    32768
280
         0
281
         0
  0
CLASS
  1
SPATIAL_FILTER
  2
AcDbSpatialFilter
  3
AutoCAD 2000
 90
    32768
280
         0
281
         0
  0
CLASS
  1
XRECORD
  2
AcDbXrecord
  3
AutoCAD 2000
 90
    32768
280
         0
281
         0
  0
CLASS
  1
SORTENTSTABLE
  2
AcDbSortentsTable
  3
AutoCAD 2000
 90
    32768
280
         0
281
         0
  0
CLASS
  1
LAYER_INDEX
  2
AcDbLayerIndex
  3
AutoCAD 2000
 90
    32768
280
         0
281
         0
  0
CLASS
  1
SPATIAL_INDEX
  2
AcDbSpatialIndex
  3
AutoCAD 2000
 90
    32768
280
         0
281
         0
  0
CLASS
  1
OBJECT_PTR
  2
CAseDLPNTableRecord
  3
"ASE-LPNTableRecord"
 90
    32769
280
         0
281
         0
  0
CLASS
  1
LAYOUT
  2
AcDbLayout
  3
AutoCAD 2000
 90
        0
280
         0
281
         0
  0
CLASS
  1
PLOTSETTINGS
  2
AcDbPlotSettings
  3
AutoCAD 2000
 90
    32768
280
         0
281
         0
  0
CLASS
  1
ACDBDICTIONARYWDFLT
  2
AcDbDictionaryWithDefault
  3
AutoCAD 2000
 90
        0
280
         0
281
         0
  0
CLASS
  1
ACDBPLACEHOLDER
  2
AcDbPlaceHolder
  3
AutoCAD 2000
 90
        0
280
         0
281
         0
  0
CLASS
  1
VBA_PROJECT
  2
AcDbVbaProject
  3
acadvba
 90
    32768
280
         0
281
         0
  0
CLASS
  1
WIPEOUT
  2
AcDbWipeout
  3
WipeOut|AutoCAD Express Tool|expresstools@autodesk.com
 90
    32895
280
         0
281
         1
  0
CLASS
  1
WIPEOUTVARIABLES
  2
AcDbWipeoutVariables
  3
WipeOut|AutoCAD Express Tool|expresstools@autodesk.com
 90
        0
280
         0
281
         0
  0
CLASS
  1
RTEXT
  2
RText
  3
RText|AutoCAD Express Tool|expresstools@autodesk.com
 90
    32768
280
         0
281
         1
  0
CLASS
  1
ARCALIGNEDTEXT
  2
AcDbArcAlignedText
  3
ATEXT|AutoCAD Express Tool|expresstools@autodesk.com
 90
    32768
280
         0
281
         1
  0
ENDSEC
  0
SECTION
  2
TABLES
  0
TABLE
  2
VPORT
  5
7
100
AcDbSymbolTable
 70
         1
  0
VPORT
  5
15
100
AcDbSymbolTableRecord
100
AcDbViewportTableRecord
  2
*ACTIVE
 70
         0
 10
0.0
 20
0.0
 11
1.0
 21
1.0
 12
5.5
 22
4.25
 13
0.0
 23
0.0
 14
1.0
 24
1.0
 15
0.0
 25
0.0
 16
0.0
 26
0.0
 36
1.0
 17
0.0
 27
0.0
 37
0.0
 40
8.5
 41
0.7727272727
 42
50.0
 43
0.0
 44
0.0
 50
0.0
 51
0.0
 71
         0
 72
      2000
 73
         1
 74
         1
 75
         0
 76
         0
 77
         0
 78
         0
281
         0
 65
         0
110
0.0
120
0.0
130
0.0
111
1.0
121
0.0
131
0.0
112
0.0
122
1.0
132
0.0
345
0
346
0
 79
         0
146
0.0
  0
ENDTAB
  0
TABLE
  2
LTYPE
  5
4
100
AcDbSymbolTable
 70
        20
  0
LTYPE
  5
11
100
AcDbSymbolTableRecord
100
AcDbLinetypeTableRecord
  2
ByBlock
 70
        64
  3

 72
        65
 73
         0
 40
0.0
  0
LTYPE
  5
12
100
AcDbSymbolTableRecord
100
AcDbLinetypeTableRecord
  2
ByLayer
 70
        64
  3

 72
        65
 73
         0
 40
0.0
  0
LTYPE
  5
13
100
AcDbSymbolTableRecord
100
AcDbLinetypeTableRecord
  2
Continuous
 70
        64
  3
Solid line
 72
        65
 73
         0
 40
0.0
  0
LTYPE
  5
25
100
AcDbSymbolTableRecord
100
AcDbLinetypeTableRecord
  2
SLDVISIBLE1
 70
        64
  3

 72
        65
 73
         1
 40
2.4
 49
2.4
 74
         0
  0
LTYPE
  5
26
100
AcDbSymbolTableRecord
100
AcDbLinetypeTableRecord
  2
SLDHIDDEN0
 70
        64
  3

 72
        65
 73
         2
 40
0.075
 49
0.05
 74
         0
 49
-0.025
 74
         0
  0
LTYPE
  5
27
100
AcDbSymbolTableRecord
100
AcDbLinetypeTableRecord
  2
SLDSKETCH0
 70
        64
  3

 72
        65
 73
         1
 40
2.4
 49
2.4
 74
         0
  0
LTYPE
  5
28
100
AcDbSymbolTableRecord
100
AcDbLinetypeTableRecord
  2
SLDDETAIL0
 70
        64
  3

 72
        65
 73
         1
 40
2.4
 49
2.4
 74
         0
  0
LTYPE
  5
29
100
AcDbSymbolTableRecord
100
AcDbLinetypeTableRecord
  2
SLDSECTION0
 70
        64
  3

 72
        65
 73
         4
 40
0.4
 49
0.25
 74
         0
 49
-0.05
 74
         0
 49
0.05
 74
         0
 49
-0.05
 74
         0
  0
LTYPE
  5
2A
100
AcDbSymbolTableRecord
100
AcDbLinetypeTableRecord
  2
SLDDIMENSIONS0
 70
        64
  3

 72
        65
 73
         1
 40
2.4
 49
2.4
 74
         0
  0
LTYPE
  5
2B
100
AcDbSymbolTableRecord
100
AcDbLinetypeTableRecord
  2
SLDCENTERLINES0
 70
        64
  3

 72
        65
 73
         4
 40
0.75
 49
0.6
 74
         0
 49
-0.05
 74
         0
 49
0.05
 74
         0
 49
-0.05
 74
         0
  0
LTYPE
  5
2C
100
AcDbSymbolTableRecord
100
AcDbLinetypeTableRecord
  2
SLDCROSSHATCH0
 70
        64
  3

 72
        65
 73
         1
 40
2.4
 49
2.4
 74
         0
  0
LTYPE
  5
2D
100
AcDbSymbolTableRecord
100
AcDbLinetypeTableRecord
  2
SLDTANVISIBLE0
 70
        64
  3

 72
        65
 73
         6
 40
0.5
 49
0.25
 74
         0
 49
-0.05
 74
         0
 49
0.05
 74
         0
 49
-0.05
 74
         0
 49
0.05
 74
         0
 49
-0.05
 74
         0
  0
LTYPE
  5
2E
100
AcDbSymbolTableRecord
100
AcDbLinetypeTableRecord
  2
SLDDETAILBORDER0
 70
        64
  3

 72
        65
 73
         1
 40
2.4
 49
2.4
 74
         0
  0
LTYPE
  5
2F
100
AcDbSymbolTableRecord
100
AcDbLinetypeTableRecord
  2
SLDDUMMY1
 70
        64
  3

 72
        65
 73
         0
 40
0.0
  0
LTYPE
  5
30
100
AcDbSymbolTableRecord
100
AcDbLinetypeTableRecord
  2
SLDTANHIDDEN0
 70
        64
  3

 72
        65
 73
         2
 40
0.075
 49
0.05
 74
         0
 49
-0.025
 74
         0
  0
LTYPE
  5
31
100
AcDbSymbolTableRecord
100
AcDbLinetypeTableRecord
  2
SLDVIEWARROW2
 70
        64
  3

 72
        65
 73
         6
 40
0.5
 49
0.25
 74
         0
 49
-0.05
 74
         0
 49
0.05
 74
         0
 49
-0.05
 74
         0
 49
0.05
 74
         0
 49
-0.05
 74
         0
  0
LTYPE
  5
32
100
AcDbSymbolTableRecord
100
AcDbLinetypeTableRecord
  2
SLD--SPACER--0
 70
        64
  3

 72
        65
 73
         1
 40
2.4
 49
2.4
 74
         0
  0
LTYPE
  5
33
100
AcDbSymbolTableRecord
100
AcDbLinetypeTableRecord
  2
SLDUSER-DASHED0
 70
        64
  3

 72
        65
 73
         2
 40
0.075
 49
0.05
 74
         0
 49
-0.025
 74
         0
  0
LTYPE
  5
34
100
AcDbSymbolTableRecord
100
AcDbLinetypeTableRecord
  2
SLDUSER-PHANTOM0
 70
        64
  3

 72
        65
 73
         6
 40
0.5
 49
0.25
 74
         0
 49
-0.05
 74
         0
 49
0.05
 74
         0
 49
-0.05
 74
         0
 49
0.05
 74
         0
 49
-0.05
 74
         0
  0
LTYPE
  5
35
100
AcDbSymbolTableRecord
100
AcDbLinetypeTableRecord
  2
SLDUSER-CENTER0
 70
        64
  3

 72
        65
 73
         4
 40
0.75
 49
0.6
 74
         0
 49
-0.05
 74
         0
 49
0.05
 74
         0
 49
-0.05
 74
         0
  0
ENDTAB
  0
TABLE
  2
LAYER
  5
2
100
AcDbSymbolTable
 70
         1
  0
LAYER
  5
14
100
AcDbSymbolTableRecord
100
AcDbLayerTableRecord
  2
0
 70
         0
 62
         7
  6
Continuous
290
         1
370
        -3
390
1D
  0
ENDTAB
  0
TABLE
  2
STYLE
  5
3
100
AcDbSymbolTable
 70
         2
  0
STYLE
  5
17
100
AcDbSymbolTableRecord
100
AcDbTextStyleTableRecord
  2
Standard
 70
         0
 40
0.0
 41
1.0
 50
0.0
 71
         0
 42
0.0
  3
txt
  4

  0
STYLE
  5
CA
100
AcDbSymbolTableRecord
100
AcDbTextStyleTableRecord
  2
SLDTEXTSTYLE0
 70
         0
 40
0.0
 41
0.75
 50
0.0
 71
         0
 42
0.0
  3

  4

  0
ENDTAB
  0
TABLE
  2
VIEW
  5
5
100
AcDbSymbolTable
 70
         0
  0
ENDTAB
  0
TABLE
  2
UCS
  5
6
100
AcDbSymbolTable
 70
         0
  0
ENDTAB
  0
TABLE
  2
APPID
  5
8
100
AcDbSymbolTable
 70
         1
  0
APPID
  5
16
100
AcDbSymbolTableRecord
100
AcDbRegAppTableRecord
  2
ACAD
 70
         0
  0
ENDTAB
  0
TABLE
  2
DIMSTYLE
  5
9
100
AcDbSymbolTable
 70
         4
100
AcDbDimStyleTable
 71
         0
  0
DIMSTYLE
105
18
100
AcDbSymbolTableRecord
100
AcDbDimStyleTableRecord
  2
Standard
 70
         0
  3

  4

 40
1.0
 41
0.18
 42
0.0625
 43
0.38
 44
0.18
 45
0.0
 46
0.0
 47
0.0
 48
0.0
 71
         0
 72
         0
 73
         1
 74
         1
 75
         0
 76
         0
 77
         0
 78
         0
 79
         0
140
0.18
141
0.09
142
0.0
143
25.4
144
1.0
145
0.0
146
1.0
147
0.09
148
0.0
170
         0
171
         2
172
         0
173
         0
174
         0
175
         0
176
         0
177
         0
178
         0
179
         0
271
         4
272
         4
273
         2
274
         2
275
         0
276
         0
277
         2
278
        46
279
         0
280
         0
281
         0
282
         0
283
         1
284
         0
285
         0
286
         0
288
         0
340
17
341
0
342
0
343
0
344
0
371
        -2
372
        -2
  0
DIMSTYLE
105
DC
100
AcDbSymbolTableRecord
100
AcDbDimStyleTableRecord
  2
SLDDIMSTYLE0
 70
         0
  3

  4

 40
1.0
 41
0.2362204724
 42
0.0625
 43
0.38
 44
0.0393700787
 45
0.0
 46
0.0
 47
0.0
 48
0.0
 71
         0
 72
         0
 73
         1
 74
         1
 75
         0
 76
         0
 77
         0
 78
        12
 79
         0
140
0.1377952756
141
0.09
142
0.0
143
25.4
144
5.0
145
0.0
146
1.0
147
0.0344488189
148
0.0
170
         0
171
         2
172
         0
173
         1
174
         0
175
         0
176
       255
177
       255
178
       255
179
         0
271
         2
272
         4
273
         2
274
         2
275
         0
276
         0
277
         2
278
        46
279
         0
280
         0
281
         0
282
         0
283
         1
284
        12
285
         0
286
         0
288
         0
340
17
341
0
342
0
343
D3
344
D3
371
        -2
372
        -2
  0
DIMSTYLE
105
12F
100
AcDbSymbolTableRecord
100
AcDbDimStyleTableRecord
  2
SLDDIMSTYLE1
 70
         0
  3

  4

 40
1.0
 41
0.2362204724
 42
0.0625
 43
0.38
 44
0.0393700787
 45
0.0
 46
0.0
 47
0.0
 48
0.0
 71
         0
 72
         0
 73
         1
 74
         1
 75
         0
 76
         0
 77
         0
 78
         4
 79
         0
140
0.1377952756
141
0.09
142
0.0
143
25.4
144
5.0
145
0.0
146
1.0
147
0.0344488189
148
0.0
170
         0
171
         2
172
         0
173
         1
174
         0
175
         0
176
       255
177
       255
178
       255
179
         0
271
         2
272
         4
273
         2
274
         2
275
         0
276
         0
277
         2
278
        46
279
         0
280
         0
281
         0
282
         0
283
         1
284
        12
285
         0
286
         0
288
         0
340
17
341
0
342
0
343
D3
344
D3
371
        -2
372
        -2
  0
DIMSTYLE
105
140
100
AcDbSymbolTableRecord
100
AcDbDimStyleTableRecord
  2
SLDDIMSTYLE2
 70
         0
  3

  4

 40
1.0
 41
0.2362204724
 42
0.0625
 43
0.38
 44
0.0393700787
 45
0.0
 46
0.0
 47
0.0
 48
0.0
 71
         0
 72
         0
 73
         1
 74
         1
 75
         0
 76
         0
 77
         0
 78
         4
 79
         0
140
0.1377952756
141
0.09
142
0.0
143
25.4
144
5.0
145
0.0
146
1.0
147
0.0344488189
148
0.0
170
         0
171
         2
172
         0
173
         1
174
         0
175
         0
176
       255
177
       255
178
       255
179
         0
271
         2
272
         4
273
         2
274
         2
275
         0
276
         0
277
         2
278
        46
279
         0
280
         0
281
         0
282
         0
283
         1
284
        12
285
         0
286
         0
288
         0
340
17
341
0
342
0
343
D3
344
D3
371
        -2
372
        -2
  0
ENDTAB
  0
TABLE
  2
BLOCK_RECORD
  5
1
100
AcDbSymbolTable
 70
         7
  0
BLOCK_RECORD
  5
A
100
AcDbSymbolTableRecord
100
AcDbBlockTableRecord
  2
*MODEL_SPACE
340
20
  0
BLOCK_RECORD
  5
B
100
AcDbSymbolTableRecord
100
AcDbBlockTableRecord
  2
*PAPER_SPACE
340
21
  0
BLOCK_RECORD
  5
C8
100
AcDbSymbolTableRecord
100
AcDbBlockTableRecord
  2
*D0
340
0
  0
BLOCK_RECORD
  5
D3
100
AcDbSymbolTableRecord
100
AcDbBlockTableRecord
  2
_CLOSED
340
0
  0
BLOCK_RECORD
  5
126
100
AcDbSymbolTableRecord
100
AcDbBlockTableRecord
  2
*D2
340
0
  0
BLOCK_RECORD
  5
134
100
AcDbSymbolTableRecord
100
AcDbBlockTableRecord
  2
*D3
340
0
  0
BLOCK_RECORD
  5
145
100
AcDbSymbolTableRecord
100
AcDbBlockTableRecord
  2
*D4
340
0
  0
BLOCK_RECORD
  5
155
100
AcDbSymbolTableRecord
100
AcDbBlockTableRecord
  2
*D5
340
0
  0
BLOCK_RECORD
  5
165
100
AcDbSymbolTableRecord
100
AcDbBlockTableRecord
  2
*D6
340
0
  0
ENDTAB
  0
ENDSEC
  0
SECTION
  2
BLOCKS
  0
BLOCK
  5
D
100
AcDbEntity
  8
0
100
AcDbBlockBegin
  2
*MODEL_SPACE
 70
         0
 10
0.0
 20
0.0
 30
0.0
  3
*MODEL_SPACE
  1

  0
ENDBLK
  5
E
100
AcDbEntity
  8
0
100
AcDbBlockEnd
  0
BLOCK
  5
F
100
AcDbEntity
 67
         1
  8
0
100
AcDbBlockBegin
  2
*PAPER_SPACE
 70
         0
 10
0.0
 20
0.0
 30
0.0
  3
*PAPER_SPACE
  1

  0
ENDBLK
  5
10
100
AcDbEntity
 67
         1
  8
0
100
AcDbBlockEnd
  0
BLOCK
  5
C9
100
AcDbEntity
  8
0
 62
       255
100
AcDbBlockBegin
  2
*D0
 70
         1
 10
0.0
 20
0.0
 30
0.0
  3
*D0
  1

  0
MTEXT
  5
CB
100
AcDbEntity
  8
0
 62
       255
100
AcDbMText
 10
2.5580773227
 20
1.0656800672
 30
0.0
 40
0.1377952756
 41
0.0
 71
         7
 72
         1
  1
1.86
  7
SLDTEXTSTYLE0
 73
         1
 44
1.0
  0
LINE
  5
CC
100
AcDbEntity
  8
0
  6
Continuous
 62
         7
100
AcDbLine
 10
2.564
 20
1.3356299213
 30
0.0
 11
2.564
 21
0.8074237374
 31
0.0
  0
LINE
  5
CD
100
AcDbEntity
  8
0
  6
Continuous
 62
         7
100
AcDbLine
 10
2.936
 20
1.4293817023
 30
0.0
 11
2.936
 21
0.8074237374
 31
0.0
  0
LINE
  5
CE
100
AcDbEntity
  8
0
  6
Continuous
 62
         7
100
AcDbLine
 10
2.564
 20
0.8467938161
 30
0.0
 11
2.0915590551
 21
0.8467938161
 31
0.0
  0
LINE
  5
CF
100
AcDbEntity
  8
0
  6
Continuous
 62
         7
100
AcDbLine
 10
2.564
 20
0.8467938161
 30
0.0
 11
2.936
 21
0.8467938161
 31
0.0
  0
LINE
  5
D0
100
AcDbEntity
  8
0
  6
Continuous
 62
         7
100
AcDbLine
 10
2.936
 20
0.8467938161
 30
0.0
 11
3.4084409449
 21
0.8467938161
 31
0.0
  0
ARC
  5
D1
100
AcDbEntity
  8
0
  6
Continuous
 62
         7
100
AcDbCircle
 10
2.7144635738
 20
1.1751231928
 30
0.0
 40
0.2447222684
100
AcDbArc
 50
153.4349488229
 51
206.5650511771
  0
ARC
  5
D2
100
AcDbEntity
  8
0
  6
Continuous
 62
         7
100
AcDbCircle
 10
2.7580129001
 20
1.1751231928
 30
0.0
 40
0.2447222684
100
AcDbArc
 50
333.4349488229
 51
26.5650511771
  0
INSERT
  5
DA
100
AcDbEntity
  8
0
100
AcDbBlockReference
  2
_CLOSED
 10
2.564
 20
0.8467938161
 30
0.0
 41
0.2362204724
 42
0.2362204724
 50
360.0
  0
INSERT
  5
DB
100
AcDbEntity
  8
0
100
AcDbBlockReference
  2
_CLOSED
 10
2.936
 20
0.8467938161
 30
0.0
 41
0.2362204724
 42
0.2362204724
 50
180.0
  0
POINT
  5
DD
100
AcDbEntity
  8
0
 62
         7
100
AcDbPoint
 10
2.564
 20
1.375
 30
0.0
  0
POINT
  5
DE
100
AcDbEntity
  8
0
 62
         7
100
AcDbPoint
 10
2.936
 20
1.468751781
 30
0.0
  0
ENDBLK
  5
DF
100
AcDbEntity
  8
0
 62
       255
100
AcDbBlockEnd
  0
BLOCK
  5
D4
100
AcDbEntity
  8
0
100
AcDbBlockBegin
  2
_CLOSED
 70
         0
 10
0.0
 20
0.0
 30
0.0
  3
_CLOSED
  1

  0
LINE
  5
D5
100
AcDbEntity
  8
0
100
AcDbLine
 10
-1.0
 20
0.166667
 30
0.0
 11
0.0
 21
0.0
 31
0.0
  0
LINE
  5
D6
100
AcDbEntity
  8
0
100
AcDbLine
 10
0.0
 20
0.0
 30
0.0
 11
-1.0
 21
-0.166667
 31
0.0
  0
LINE
  5
D7
100
AcDbEntity
  8
0
100
AcDbLine
 10
-1.0
 20
0.166667
 30
0.0
 11
-1.0
 21
-0.166667
 31
0.0
  0
LINE
  5
D8
100
AcDbEntity
  8
0
100
AcDbLine
 10
0.0
 20
0.0
 30
0.0
 11
-1.0
 21
0.0
 31
0.0
  0
ENDBLK
  5
D9
100
AcDbEntity
  8
0
100
AcDbBlockEnd
  0
BLOCK
  5
127
100
AcDbEntity
  8
0
 62
       255
100
AcDbBlockBegin
  2
*D2
 70
         1
 10
0.0
 20
0.0
 30
0.0
  3
*D2
  1

  0
MTEXT
  5
128
100
AcDbEntity
  8
0
 62
       255
100
AcDbMText
 10
9.8792198816
 20
7.3539426946
 30
0.0
 40
0.1377952756
 41
0.0
 71
         7
 72
         1
  1
R
  7
SLDTEXTSTYLE0
 11
0.8761752706
 21
0.4819926298
 31
0.0
 73
         1
 44
1.0
  0
MTEXT
  5
129
100
AcDbEntity
  8
0
 62
       255
100
AcDbMText
 10
9.9769066989
 20
7.4076811732
 30
0.0
 40
0.1377952756
 41
0.0
 71
         7
 72
         1
  1
2.50
  7
SLDTEXTSTYLE0
 11
0.8761752706
 21
0.4819926298
 31
0.0
 73
         1
 44
1.0
  0
LINE
  5
12A
100
AcDbEntity
  8
0
  6
Continuous
 62
         7
100
AcDbLine
 10
8.9880876353
 20
6.6155725432
 30
0.0
 11
10.5034250212
 21
7.449174536
 31
0.0
  0
LINE
  5
12B
100
AcDbEntity
  8
0
  6
Continuous
 62
         7
100
AcDbLine
 10
8.9880876353
 20
6.6155725432
 30
0.0
 11
8.55
 21
6.3745762283
 31
0.0
  0
ARC
  5
12C
100
AcDbEntity
  8
0
  6
Continuous
 62
         7
100
AcDbCircle
 10
9.9634908676
 20
7.5252110752
 30
0.0
 40
0.2447222684
100
AcDbArc
 50
182.2505736929
 51
235.380676047
  0
ARC
  5
12D
100
AcDbEntity
  8
0
  6
Continuous
 62
         7
100
AcDbCircle
 10
10.0993345277
 20
7.5999400081
 30
0.0
 40
0.2447222684
100
AcDbArc
 50
2.2505736929
 51
55.380676047
  0
INSERT
  5
12E
100
AcDbEntity
  8
0
100
AcDbBlockReference
  2
_CLOSED
 10
8.9880876353
 20
6.6155725432
 30
0.0
 41
0.2362204724
 42
0.2362204724
 50
208.8156248699
  0
POINT
  5
130
100
AcDbEntity
  8
0
 62
         7
100
AcDbPoint
 10
8.9880876353
 20
6.6155725432
 30
0.0
  0
POINT
  5
131
100
AcDbEntity
  8
0
 62
         7
100
AcDbPoint
 10
8.55
 20
6.3745762283
 30
0.0
  0
ENDBLK
  5
132
100
AcDbEntity
  8
0
100
AcDbBlockEnd
  0
BLOCK
  5
135
100
AcDbEntity
  8
0
 62
       255
100
AcDbBlockBegin
  2
*D3
 70
         1
 10
0.0
 20
0.0
 30
0.0
  3
*D3
  1

  0
MTEXT
  5
136
100
AcDbEntity
  8
0
 62
       255
100
AcDbMText
 10
6.2666249168
 20
6.1972628574
 30
0.0
 40
0.1377952756
 41
0.0
 71
         7
 72
         1
  1
4.50
  7
SLDTEXTSTYLE0
 11
0.0
 21
1.0
 31
0.0
 73
         1
 44
1.0
  0
LINE
  5
137
100
AcDbEntity
  8
0
  6
Continuous
 62
         7
100
AcDbLine
 10
8.2944436762
 20
6.8254237717
 30
0.0
 11
6.4461410892
 21
6.8254237717
 31
0.0
  0
LINE
  5
138
100
AcDbEntity
  8
0
  6
Continuous
 62
         7
100
AcDbLine
 10
8.2909436204
 20
5.9254237717
 30
0.0
 11
6.4461410892
 21
5.9254237717
 31
0.0
  0
LINE
  5
139
100
AcDbEntity
  8
0
  6
Continuous
 62
         7
100
AcDbLine
 10
6.4855111679
 20
6.8254237717
 30
0.0
 11
6.4855111679
 21
7.2978647166
 31
0.0
  0
LINE
  5
13A
100
AcDbEntity
  8
0
  6
Continuous
 62
         7
100
AcDbLine
 10
6.4855111679
 20
6.8254237717
 30
0.0
 11
6.4855111679
 21
5.9254237717
 31
0.0
  0
LINE
  5
13B
100
AcDbEntity
  8
0
  6
Continuous
 62
         7
100
AcDbLine
 10
6.4855111679
 20
5.9254237717
 30
0.0
 11
6.4855111679
 21
5.4529828269
 31
0.0
  0
ARC
  5
13C
100
AcDbEntity
  8
0
  6
Continuous
 62
         7
100
AcDbCircle
 10
6.1571817912
 20
6.3536491086
 30
0.0
 40
0.2447222684
100
AcDbArc
 50
243.4349488229
 51
296.5650511771
  0
ARC
  5
13D
100
AcDbEntity
  8
0
  6
Continuous
 62
         7
100
AcDbCircle
 10
6.1571817912
 20
6.3971984349
 30
0.0
 40
0.2447222684
100
AcDbArc
 50
63.4349488229
 51
116.5650511771
  0
INSERT
  5
13E
100
AcDbEntity
  8
0
100
AcDbBlockReference
  2
_CLOSED
 10
6.4855111679
 20
6.8254237717
 30
0.0
 41
0.2362204724
 42
0.2362204724
 50
270.0
  0
INSERT
  5
13F
100
AcDbEntity
  8
0
100
AcDbBlockReference
  2
_CLOSED
 10
6.4855111679
 20
5.9254237717
 30
0.0
 41
0.2362204724
 42
0.2362204724
 50
90.0
  0
POINT
  5
141
100
AcDbEntity
  8
0
 62
         7
100
AcDbPoint
 10
8.3338137549
 20
6.8254237717
 30
0.0
  0
POINT
  5
142
100
AcDbEntity
  8
0
 62
         7
100
AcDbPoint
 10
8.3303136991
 20
5.9254237717
 30
0.0
  0
ENDBLK
  5
143
100
AcDbEntity
  8
0
 62
       255
100
AcDbBlockEnd
  0
BLOCK
  5
146
100
AcDbEntity
  8
0
 62
       255
100
AcDbBlockBegin
  2
*D4
 70
         1
 10
0.0
 20
0.0
 30
0.0
  3
*D4
  1

  0
MTEXT
  5
147
100
AcDbEntity
  8
0
 62
       255
100
AcDbMText
 10
5.6044082932
 20
6.1972628574
 30
0.0
 40
0.1377952756
 41
0.0
 71
         7
 72
         1
  1
5.00
  7
SLDTEXTSTYLE0
 11
0.0
 21
1.0
 31
0.0
 73
         1
 44
1.0
  0
LINE
  5
148
100
AcDbEntity
  8
0
  6
Continuous
 62
         7
100
AcDbLine
 10
7.8106299213
 20
6.8754237717
 30
0.0
 11
5.7839244656
 21
6.8754237717
 31
0.0
  0
LINE
  5
149
100
AcDbEntity
  8
0
  6
Continuous
 62
         7
100
AcDbLine
 10
7.8106299213
 20
5.8754237717
 30
0.0
 11
5.7839244656
 21
5.8754237717
 31
0.0
  0
LINE
  5
14A
100
AcDbEntity
  8
0
  6
Continuous
 62
         7
100
AcDbLine
 10
5.8232945443
 20
6.8754237717
 30
0.0
 11
5.8232945443
 21
7.3478647166
 31
0.0
  0
LINE
  5
14B
100
AcDbEntity
  8
0
  6
Continuous
 62
         7
100
AcDbLine
 10
5.8232945443
 20
6.8754237717
 30
0.0
 11
5.8232945443
 21
5.8754237717
 31
0.0
  0
LINE
  5
14C
100
AcDbEntity
  8
0
  6
Continuous
 62
         7
100
AcDbLine
 10
5.8232945443
 20
5.8754237717
 30
0.0
 11
5.8232945443
 21
5.4029828269
 31
0.0
  0
ARC
  5
14D
100
AcDbEntity
  8
0
  6
Continuous
 62
         7
100
AcDbCircle
 10
5.4949651676
 20
6.3536491086
 30
0.0
 40
0.2447222684
100
AcDbArc
 50
243.4349488229
 51
296.5650511771
  0
ARC
  5
14E
100
AcDbEntity
  8
0
  6
Continuous
 62
         7
100
AcDbCircle
 10
5.4949651676
 20
6.3971984349
 30
0.0
 40
0.2447222684
100
AcDbArc
 50
63.4349488229
 51
116.5650511771
  0
INSERT
  5
14F
100
AcDbEntity
  8
0
100
AcDbBlockReference
  2
_CLOSED
 10
5.8232945443
 20
6.8754237717
 30
0.0
 41
0.2362204724
 42
0.2362204724
 50
270.0
  0
INSERT
  5
150
100
AcDbEntity
  8
0
100
AcDbBlockReference
  2
_CLOSED
 10
5.8232945443
 20
5.8754237717
 30
0.0
 41
0.2362204724
 42
0.2362204724
 50
90.0
  0
POINT
  5
151
100
AcDbEntity
  8
0
 62
         7
100
AcDbPoint
 10
7.85
 20
6.8754237717
 30
0.0
  0
POINT
  5
152
100
AcDbEntity
  8
0
 62
         7
100
AcDbPoint
 10
7.85
 20
5.8754237717
 30
0.0
  0
ENDBLK
  5
153
100
AcDbEntity
  8
0
 62
       255
100
AcDbBlockEnd
  0
BLOCK
  5
156
100
AcDbEntity
  8
0
 62
       255
100
AcDbBlockBegin
  2
*D5
 70
         1
 10
0.0
 20
0.0
 30
0.0
  3
*D5
  1

  0
MTEXT
  5
157
100
AcDbEntity
  8
0
 62
       255
100
AcDbMText
 10
7.4065991912
 20
5.7208242119
 30
0.0
 40
0.1377952756
 41
0.0
 71
         7
 72
         1
  1
1.50
  7
SLDTEXTSTYLE0
 11
1.0
 21
0.0
 31
0.0
 73
         1
 44
1.0
  0
LINE
  5
158
100
AcDbEntity
  8
0
  6
Continuous
 62
         7
100
AcDbLine
 10
7.45
 20
5.946053693
 30
0.0
 11
7.45
 21
5.4625678821
 31
0.0
  0
LINE
  5
159
100
AcDbEntity
  8
0
  6
Continuous
 62
         7
100
AcDbLine
 10
7.75
 20
5.846053693
 30
0.0
 11
7.75
 21
5.4625678821
 31
0.0
  0
LINE
  5
15A
100
AcDbEntity
  8
0
  6
Continuous
 62
         7
100
AcDbLine
 10
7.45
 20
5.5019379608
 30
0.0
 11
6.9775590551
 21
5.5019379608
 31
0.0
  0
LINE
  5
15B
100
AcDbEntity
  8
0
  6
Continuous
 62
         7
100
AcDbLine
 10
7.45
 20
5.5019379608
 30
0.0
 11
7.75
 21
5.5019379608
 31
0.0
  0
LINE
  5
15C
100
AcDbEntity
  8
0
  6
Continuous
 62
         7
100
AcDbLine
 10
7.75
 20
5.5019379608
 30
0.0
 11
8.2224409449
 21
5.5019379608
 31
0.0
  0
ARC
  5
15D
100
AcDbEntity
  8
0
  6
Continuous
 62
         7
100
AcDbCircle
 10
7.5629854424
 20
5.8302673375
 30
0.0
 40
0.2447222684
100
AcDbArc
 50
153.4349488229
 51
206.5650511771
  0
ARC
  5
15E
100
AcDbEntity
  8
0
  6
Continuous
 62
         7
100
AcDbCircle
 10
7.6065347687
 20
5.8302673375
 30
0.0
 40
0.2447222684
100
AcDbArc
 50
333.4349488229
 51
26.5650511771
  0
INSERT
  5
15F
100
AcDbEntity
  8
0
100
AcDbBlockReference
  2
_CLOSED
 10
7.45
 20
5.5019379608
 30
0.0
 41
0.2362204724
 42
0.2362204724
 50
360.0
  0
INSERT
  5
160
100
AcDbEntity
  8
0
100
AcDbBlockReference
  2
_CLOSED
 10
7.75
 20
5.5019379608
 30
0.0
 41
0.2362204724
 42
0.2362204724
 50
180.0
  0
POINT
  5
161
100
AcDbEntity
  8
0
 62
         7
100
AcDbPoint
 10
7.45
 20
5.9854237717
 30
0.0
  0
POINT
  5
162
100
AcDbEntity
  8
0
 62
         7
100
AcDbPoint
 10
7.75
 20
5.8854237717
 30
0.0
  0
ENDBLK
  5
163
100
AcDbEntity
  8
0
 62
       255
100
AcDbBlockEnd
  0
BLOCK
  5
166
100
AcDbEntity
  8
0
 62
       255
100
AcDbBlockBegin
  2
*D6
 70
         1
 10
0.0
 20
0.0
 30
0.0
  3
*D6
  1

  0
MTEXT
  5
167
100
AcDbEntity
  8
0
 62
       255
100
AcDbMText
 10
7.5921220036
 20
7.2036934861
 30
0.0
 40
0.1377952756
 41
0.0
 71
         7
 72
         1
  1
3.90
  7
SLDTEXTSTYLE0
 11
0.0
 21
1.0
 31
0.0
 73
         1
 44
1.0
  0
LINE
  5
168
100
AcDbEntity
  8
0
  6
Continuous
 62
         7
100
AcDbLine
 10
7.4893700787
 20
6.7654237717
 30
0.0
 11
7.8503783335
 21
6.7654237717
 31
0.0
  0
LINE
  5
169
100
AcDbEntity
  8
0
  6
Continuous
 62
         7
100
AcDbLine
 10
7.4893700787
 20
5.9854237717
 30
0.0
 11
7.8503783335
 21
5.9854237717
 31
0.0
  0
LINE
  5
16A
100
AcDbEntity
  8
0
  6
Continuous
 62
         7
100
AcDbLine
 10
7.8110082547
 20
6.7654237717
 30
0.0
 11
7.8110082547
 21
7.6850153147
 31
0.0
  0
LINE
  5
16B
100
AcDbEntity
  8
0
  6
Continuous
 62
         7
100
AcDbLine
 10
7.8110082547
 20
6.7654237717
 30
0.0
 11
7.8110082547
 21
5.9854237717
 31
0.0
  0
LINE
  5
16C
100
AcDbEntity
  8
0
  6
Continuous
 62
         7
100
AcDbLine
 10
7.8110082547
 20
5.9854237717
 30
0.0
 11
7.8110082547
 21
5.5129828269
 31
0.0
  0
ARC
  5
16D
100
AcDbEntity
  8
0
  6
Continuous
 62
         7
100
AcDbCircle
 10
7.482678878
 20
7.3600797373
 30
0.0
 40
0.2447222684
100
AcDbArc
 50
243.4349488229
 51
296.5650511771
  0
ARC
  5
16E
100
AcDbEntity
  8
0
  6
Continuous
 62
         7
100
AcDbCircle
 10
7.482678878
 20
7.4036290636
 30
0.0
 40
0.2447222684
100
AcDbArc
 50
63.4349488229
 51
116.5650511771
  0
INSERT
  5
16F
100
AcDbEntity
  8
0
100
AcDbBlockReference
  2
_CLOSED
 10
7.8110082547
 20
6.7654237717
 30
0.0
 41
0.2362204724
 42
0.2362204724
 50
270.0
  0
INSERT
  5
170
100
AcDbEntity
  8
0
100
AcDbBlockReference
  2
_CLOSED
 10
7.8110082547
 20
5.9854237717
 30
0.0
 41
0.2362204724
 42
0.2362204724
 50
90.0
  0
POINT
  5
171
100
AcDbEntity
  8
0
 62
         7
100
AcDbPoint
 10
7.45
 20
6.7654237717
 30
0.0
  0
POINT
  5
172
100
AcDbEntity
  8
0
 62
         7
100
AcDbPoint
 10
7.45
 20
5.9854237717
 30
0.0
  0
ENDBLK
  5
173
100
AcDbEntity
  8
0
 62
       255
100
AcDbBlockEnd
  0
ENDSEC
  0
SECTION
  2
ENTITIES
  0
LINE
  5
3E
100
AcDbEntity
  8
0
  6
Continuous
 62
         7
100
AcDbLine
 10
2.614
 20
5.8745762283
 30
0.0
 11
2.886
 21
5.8745762283
 31
0.0
  0
LINE
  5
3F
100
AcDbEntity
  8
0
  6
Continuous
 62
         7
100
AcDbLine
 10
2.886
 20
6.8745762283
 30
0.0
 11
2.614
 21
6.8745762283
 31
0.0
  0
ARC
  5
40
100
AcDbEntity
  8
0
  6
Continuous
 62
         7
100
AcDbCircle
 10
2.614
 20
6.8245762283
 30
0.0
 40
0.05
100
AcDbArc
 50
90.0
 51
180.0
  0
ARC
  5
41
100
AcDbEntity
  8
0
  6
Continuous
 62
         7
100
AcDbCircle
 10
2.614
 20
5.9245762283
 30
0.0
 40
0.05
100
AcDbArc
 50
180.0
 51
270.0
  0
ARC
  5
42
100
AcDbEntity
  8
0
  6
Continuous
 62
         7
100
AcDbCircle
 10
2.886
 20
6.8245762283
 30
0.0
 40
0.05
100
AcDbArc
 50
0.0
 51
90.0
  0
ARC
  5
43
100
AcDbEntity
  8
0
  6
Continuous
 62
         7
100
AcDbCircle
 10
2.886
 20
5.9245762283
 30
0.0
 40
0.05
100
AcDbArc
 50
270.0
 51
0.0
  0
LINE
  5
44
100
AcDbEntity
  8
0
  6
Continuous
 62
         7
100
AcDbLine
 10
2.564
 20
5.9245762283
 30
0.0
 11
2.564
 21
6.8245762283
 31
0.0
  0
LINE
  5
45
100
AcDbEntity
  8
0
  6
Continuous
 62
         7
100
AcDbLine
 10
2.936
 20
6.8245762283
 30
0.0
 11
2.936
 21
5.9245762283
 31
0.0
  0
POLYLINE
  5
46
100
AcDbEntity
  8
0
  6
Continuous
 62
         7
100
AcDb2dPolyline
 66
         1
 10
0.0
 20
0.0
 30
0.0
 70
       128
  0
VERTEX
  5
47
100
AcDbEntity
  8
0
100
AcDbVertex
100
AcDb2dVertex
 10
2.490559553
 20
5.9480004986
 30
0.0
  0
VERTEX
  5
48
100
AcDbEntity
  8
0
100
AcDbVertex
100
AcDb2dVertex
 10
2.4701028737
 20
5.9611079518
 30
0.0
  0
VERTEX
  5
49
100
AcDbEntity
  8
0
100
AcDbVertex
100
AcDb2dVertex
 10
2.464
 20
5.9652969621
 30
0.0
  0
SEQEND
  5
4A
100
AcDbEntity
  8
0
  0
LINE
  5
4B
100
AcDbEntity
  8
0
  6
Continuous
 62
         7
100
AcDbLine
 10
2.464
 20
6.7855505814
 30
0.0
 11
2.490559553
 21
6.8028470449
 31
0.0
  0
POLYLINE
  5
4C
100
AcDbEntity
  8
0
  6
Continuous
 62
         7
100
AcDb2dPolyline
 66
         1
 10
0.0
 20
0.0
 30
0.0
 70
       128
  0
VERTEX
  5
4D
100
AcDbEntity
  8
0
100
AcDbVertex
100
AcDb2dVertex
 10
3.009440447
 20
6.8028470449
 30
0.0
  0
VERTEX
  5
4E
100
AcDbEntity
  8
0
100
AcDbVertex
100
AcDb2dVertex
 10
3.0298971263
 20
6.7897395917
 30
0.0
  0
VERTEX
  5
4F
100
AcDbEntity
  8
0
100
AcDbVertex
100
AcDb2dVertex
 10
3.036
 20
6.7855505814
 30
0.0
  0
SEQEND
  5
50
100
AcDbEntity
  8
0
  0
LINE
  5
51
100
AcDbEntity
  8
0
  6
Continuous
 62
         7
100
AcDbLine
 10
3.036
 20
5.9652969621
 30
0.0
 11
3.009440447
 21
5.9480004986
 31
0.0
  0
LINE
  5
52
100
AcDbEntity
  8
0
  6
Continuous
 62
         7
100
AcDbLine
 10
2.9679449472
 20
6.8254237717
 30
0.0
 11
2.9359928162
 21
6.8254237717
 31
0.0
  0
POLYLINE
  5
53
100
AcDbEntity
  8
0
  6
Continuous
 62
         7
100
AcDb2dPolyline
 66
         1
 10
0.0
 20
0.0
 30
0.0
 70
       128
  0
VERTEX
  5
54
100
AcDbEntity
  8
0
100
AcDbVertex
100
AcDb2dVertex
 10
2.9679449472
 20
6.8254237717
 30
0.0
  0
VERTEX
  5
55
100
AcDbEntity
  8
0
100
AcDbVertex
100
AcDb2dVertex
 10
2.9767587687
 20
6.821047448
 30
0.0
  0
VERTEX
  5
56
100
AcDbEntity
  8
0
100
AcDbVertex
100
AcDb2dVertex
 10
2.9861968292
 20
6.8161176086
 30
0.0
  0
VERTEX
  5
57
100
AcDbEntity
  8
0
100
AcDbVertex
100
AcDb2dVertex
 10
2.9978083451
 20
6.8096944524
 30
0.0
  0
VERTEX
  5
58
100
AcDbEntity
  8
0
100
AcDbVertex
100
AcDb2dVertex
 10
3.009440447
 20
6.8028470449
 30
0.0
  0
SEQEND
  5
59
100
AcDbEntity
  8
0
  0
LINE
  5
5A
100
AcDbEntity
  8
0
  6
Continuous
 62
         7
100
AcDbLine
 10
2.564
 20
5.9254237717
 30
0.0
 11
2.5320550528
 21
5.9254237717
 31
0.0
  0
POLYLINE
  5
5B
100
AcDbEntity
  8
0
  6
Continuous
 62
         7
100
AcDb2dPolyline
 66
         1
 10
0.0
 20
0.0
 30
0.0
 70
       128
  0
VERTEX
  5
5C
100
AcDbEntity
  8
0
100
AcDbVertex
100
AcDb2dVertex
 10
2.5320550528
 20
5.9254237717
 30
0.0
  0
VERTEX
  5
5D
100
AcDbEntity
  8
0
100
AcDbVertex
100
AcDb2dVertex
 10
2.5232412313
 20
5.9298000955
 30
0.0
  0
VERTEX
  5
5E
100
AcDbEntity
  8
0
100
AcDbVertex
100
AcDb2dVertex
 10
2.5138031708
 20
5.9347299349
 30
0.0
  0
VERTEX
  5
5F
100
AcDbEntity
  8
0
100
AcDbVertex
100
AcDb2dVertex
 10
2.5021916549
 20
5.941153091
 30
0.0
  0
VERTEX
  5
60
100
AcDbEntity
  8
0
100
AcDbVertex
100
AcDb2dVertex
 10
2.490559553
 20
5.9480004986
 30
0.0
  0
SEQEND
  5
61
100
AcDbEntity
  8
0
  0
LINE
  5
62
100
AcDbEntity
  8
0
  6
Continuous
 62
         7
100
AcDbLine
 10
2.5640071838
 20
6.8254237717
 30
0.0
 11
2.5320550528
 21
6.8254237717
 31
0.0
  0
POLYLINE
  5
63
100
AcDbEntity
  8
0
  6
Continuous
 62
         7
100
AcDb2dPolyline
 66
         1
 10
0.0
 20
0.0
 30
0.0
 70
       128
  0
VERTEX
  5
64
100
AcDbEntity
  8
0
100
AcDbVertex
100
AcDb2dVertex
 10
2.490559553
 20
6.8028470449
 30
0.0
  0
VERTEX
  5
65
100
AcDbEntity
  8
0
100
AcDbVertex
100
AcDb2dVertex
 10
2.5124491161
 20
6.8153891994
 30
0.0
  0
VERTEX
  5
66
100
AcDbEntity
  8
0
100
AcDbVertex
100
AcDb2dVertex
 10
2.5222673847
 20
6.8205505581
 30
0.0
  0
VERTEX
  5
67
100
AcDbEntity
  8
0
100
AcDbVertex
100
AcDb2dVertex
 10
2.5320550528
 20
6.8254237717
 30
0.0
  0
SEQEND
  5
68
100
AcDbEntity
  8
0
  0
LINE
  5
69
100
AcDbEntity
  8
0
  6
Continuous
 62
         7
100
AcDbLine
 10
2.9679449472
 20
5.9254237717
 30
0.0
 11
2.936
 21
5.9254237717
 31
0.0
  0
POLYLINE
  5
6A
100
AcDbEntity
  8
0
  6
Continuous
 62
         7
100
AcDb2dPolyline
 66
         1
 10
0.0
 20
0.0
 30
0.0
 70
       128
  0
VERTEX
  5
6B
100
AcDbEntity
  8
0
100
AcDbVertex
100
AcDb2dVertex
 10
3.009440447
 20
5.9480004986
 30
0.0
  0
VERTEX
  5
6C
100
AcDbEntity
  8
0
100
AcDbVertex
100
AcDb2dVertex
 10
2.9875508839
 20
5.935458344
 30
0.0
  0
VERTEX
  5
6D
100
AcDbEntity
  8
0
100
AcDbVertex
100
AcDb2dVertex
 10
2.9777326153
 20
5.9302969854
 30
0.0
  0
VERTEX
  5
6E
100
AcDbEntity
  8
0
100
AcDbVertex
100
AcDb2dVertex
 10
2.9679449472
 20
5.9254237717
 30
0.0
  0
SEQEND
  5
6F
100
AcDbEntity
  8
0
  0
ARC
  5
70
100
AcDbEntity
  8
0
  6
Continuous
 62
         7
100
AcDbCircle
 10
2.75
 20
6.3754237717
 30
0.0
 40
0.5
100
AcDbArc
 50
111.5143835494
 51
115.8419327632
  0
ARC
  5
71
100
AcDbEntity
  8
0
  6
Continuous
 62
         7
100
AcDbCircle
 10
2.75
 20
6.3754237717
 30
0.0
 40
0.5
100
AcDbArc
 50
86.6634703831
 51
93.3365296169
  0
ARC
  5
72
100
AcDbEntity
  8
0
  6
Continuous
 62
         7
100
AcDbCircle
 10
2.75
 20
6.3754237717
 30
0.0
 40
0.5
100
AcDbArc
 50
64.1580672368
 51
68.4856164506
  0
ARC
  5
73
100
AcDbEntity
  8
0
  6
Continuous
 62
         7
100
AcDbCircle
 10
2.75
 20
6.3754237717
 30
0.0
 40
0.5
100
AcDbArc
 50
124.8898099186
 51
235.1101900814
  0
ARC
  5
74
100
AcDbEntity
  8
0
  6
Continuous
 62
         7
100
AcDbCircle
 10
2.75
 20
6.3754237717
 30
0.0
 40
0.5
100
AcDbArc
 50
304.8898099186
 51
55.1101900814
  0
ARC
  5
75
100
AcDbEntity
  8
0
  6
Continuous
 62
         7
100
AcDbCircle
 10
2.75
 20
6.3754237717
 30
0.0
 40
0.5
100
AcDbArc
 50
291.5896607077
 51
295.8419327632
  0
ARC
  5
76
100
AcDbEntity
  8
0
  6
Continuous
 62
         7
100
AcDbCircle
 10
2.75
 20
6.3754237717
 30
0.0
 40
0.5
100
AcDbArc
 50
244.1580672368
 51
248.4103392923
  0
LINE
  5
77
100
AcDbEntity
  8
0
  6
Continuous
 62
         7
100
AcDbLine
 10
3.25
 20
2.425
 30
0.0
 11
3.25
 21
2.525
 31
0.0
  0
LINE
  5
78
100
AcDbEntity
  8
0
  6
Continuous
 62
         7
100
AcDbLine
 10
2.25
 20
2.525
 30
0.0
 11
2.25
 21
2.425
 31
0.0
  0
ARC
  5
79
100
AcDbEntity
  8
0
  6
Continuous
 62
         7
100
AcDbCircle
 10
2.614
 20
1.375
 30
0.0
 40
0.05
100
AcDbArc
 50
180.0
 51
270.0
  0
ARC
  5
7A
100
AcDbEntity
  8
0
  6
Continuous
 62
         7
100
AcDbCircle
 10
2.886
 20
1.375
 30
0.0
 40
0.05
100
AcDbArc
 50
270.0
 51
0.0
  0
LINE
  5
7B
100
AcDbEntity
  8
0
  6
Continuous
 62
         7
100
AcDbLine
 10
2.614
 20
1.325
 30
0.0
 11
2.886
 21
1.325
 31
0.0
  0
ARC
  5
7C
100
AcDbEntity
  8
0
  6
Continuous
 62
         7
100
AcDbCircle
 10
2.26
 20
2.625
 30
0.0
 40
0.1
100
AcDbArc
 50
270.0
 51
0.0
  0
ARC
  5
7D
100
AcDbEntity
  8
0
  6
Continuous
 62
         7
100
AcDbCircle
 10
3.24
 20
2.625
 30
0.0
 40
0.1
100
AcDbArc
 50
180.0
 51
270.0
  0
LINE
  5
7E
100
AcDbEntity
  8
0
  6
Continuous
 62
         7
100
AcDbLine
 10
3.14
 20
2.847
 30
0.0
 11
3.14
 21
2.925
 31
0.0
  0
LINE
  5
7F
100
AcDbEntity
  8
0
  6
Continuous
 62
         7
100
AcDbLine
 10
2.36
 20
2.925
 30
0.0
 11
2.36
 21
2.847
 31
0.0
  0
ARC
  5
80
100
AcDbEntity
  8
0
  6
Continuous
 62
         7
100
AcDbCircle
 10
2.36
 20
2.825
 30
0.0
 40
0.022
100
AcDbArc
 50
270.0
 51
90.0
  0
ARC
  5
81
100
AcDbEntity
  8
0
  6
Continuous
 62
         7
100
AcDbCircle
 10
3.14
 20
2.825
 30
0.0
 40
0.022
100
AcDbArc
 50
90.0
 51
270.0
  0
LINE
  5
82
100
AcDbEntity
  8
0
  6
Continuous
 62
         7
100
AcDbLine
 10
3.14
 20
2.625
 30
0.0
 11
3.14
 21
2.803
 31
0.0
  0
LINE
  5
83
100
AcDbEntity
  8
0
  6
Continuous
 62
         7
100
AcDbLine
 10
2.36
 20
2.803
 30
0.0
 11
2.36
 21
2.625
 31
0.0
  0
LINE
  5
84
100
AcDbEntity
  8
0
  6
Continuous
 62
         7
100
AcDbLine
 10
3.036
 20
2.425
 30
0.0
 11
3.25
 21
2.425
 31
0.0
  0
POLYLINE
  5
85
100
AcDbEntity
  8
0
  6
Continuous
 62
         7
100
AcDb2dPolyline
 66
         1
 10
0.0
 20
0.0
 30
0.0
 70
       128
  0
VERTEX
  5
86
100
AcDbEntity
  8
0
100
AcDbVertex
100
AcDb2dVertex
 10
3.009440447
 20
2.4214084547
 30
0.0
  0
VERTEX
  5
87
100
AcDbEntity
  8
0
100
AcDbVertex
100
AcDb2dVertex
 10
3.0298971263
 20
2.4248136009
 30
0.0
  0
VERTEX
  5
88
100
AcDbEntity
  8
0
100
AcDbVertex
100
AcDb2dVertex
 10
3.036
 20
2.425
 30
0.0
  0
SEQEND
  5
89
100
AcDbEntity
  8
0
  0
POLYLINE
  5
8A
100
AcDbEntity
  8
0
  6
Continuous
 62
         7
100
AcDb2dPolyline
 66
         1
 10
0.0
 20
0.0
 30
0.0
 70
       128
  0
VERTEX
  5
8B
100
AcDbEntity
  8
0
100
AcDbVertex
100
AcDb2dVertex
 10
2.9679449472
 20
2.425
 30
0.0
  0
VERTEX
  5
8C
100
AcDbEntity
  8
0
100
AcDbVertex
100
AcDb2dVertex
 10
2.9767587687
 20
2.4214482736
 30
0.0
  0
VERTEX
  5
8D
100
AcDbEntity
  8
0
100
AcDbVertex
100
AcDb2dVertex
 10
2.9861968292
 20
2.419575062
 30
0.0
  0
VERTEX
  5
8E
100
AcDbEntity
  8
0
100
AcDbVertex
100
AcDb2dVertex
 10
2.9978083451
 20
2.419384738
 30
0.0
  0
VERTEX
  5
8F
100
AcDbEntity
  8
0
100
AcDbVertex
100
AcDb2dVertex
 10
3.009440447
 20
2.4214084547
 30
0.0
  0
SEQEND
  5
90
100
AcDbEntity
  8
0
  0
LINE
  5
91
100
AcDbEntity
  8
0
  6
Continuous
 62
         7
100
AcDbLine
 10
2.5320550528
 20
2.425
 30
0.0
 11
2.9679449472
 21
2.425
 31
0.0
  0
POLYLINE
  5
92
100
AcDbEntity
  8
0
  6
Continuous
 62
         7
100
AcDb2dPolyline
 66
         1
 10
0.0
 20
0.0
 30
0.0
 70
       128
  0
VERTEX
  5
93
100
AcDbEntity
  8
0
100
AcDbVertex
100
AcDb2dVertex
 10
2.490559553
 20
2.4214084547
 30
0.0
  0
VERTEX
  5
94
100
AcDbEntity
  8
0
100
AcDbVertex
100
AcDb2dVertex
 10
2.5124491161
 20
2.419439016
 30
0.0
  0
VERTEX
  5
95
100
AcDbEntity
  8
0
100
AcDbVertex
100
AcDb2dVertex
 10
2.5222673847
 20
2.4211738219
 30
0.0
  0
VERTEX
  5
96
100
AcDbEntity
  8
0
100
AcDbVertex
100
AcDb2dVertex
 10
2.5320550528
 20
2.425
 30
0.0
  0
SEQEND
  5
97
100
AcDbEntity
  8
0
  0
LINE
  5
98
100
AcDbEntity
  8
0
  6
Continuous
 62
         7
100
AcDbLine
 10
2.464
 20
2.425
 30
0.0
 11
2.490559553
 21
2.4214084547
 31
0.0
  0
LINE
  5
99
100
AcDbEntity
  8
0
  6
Continuous
 62
         7
100
AcDbLine
 10
2.25
 20
2.425
 30
0.0
 11
2.464
 21
2.425
 31
0.0
  0
LINE
  5
9A
100
AcDbEntity
  8
0
  6
Continuous
 62
         7
100
AcDbLine
 10
2.75
 20
2.525
 30
0.0
 11
3.25
 21
2.525
 31
0.0
  0
LINE
  5
9B
100
AcDbEntity
  8
0
  6
Continuous
 62
         7
100
AcDbLine
 10
2.25
 20
2.525
 30
0.0
 11
2.75
 21
2.525
 31
0.0
  0
LINE
  5
9C
100
AcDbEntity
  8
0
  6
Continuous
 62
         7
100
AcDbLine
 10
2.564
 20
1.375
 30
0.0
 11
2.564
 21
2.0295024374
 31
0.0
  0
POLYLINE
  5
9D
100
AcDbEntity
  8
0
  6
Continuous
 62
         7
100
AcDb2dPolyline
 66
         1
 10
0.0
 20
0.0
 30
0.0
 70
       128
  0
VERTEX
  5
9E
100
AcDbEntity
  8
0
100
AcDbVertex
100
AcDb2dVertex
 10
2.564
 20
2.0295024374
 30
0.0
  0
VERTEX
  5
9F
100
AcDbEntity
  8
0
100
AcDbVertex
100
AcDb2dVertex
 10
2.5640003276
 20
2.0295459362
 30
0.0
  0
VERTEX
  5
A0
100
AcDbEntity
  8
0
100
AcDbVertex
100
AcDb2dVertex
 10
2.5655142861
 20
2.0324168676
 30
0.0
  0
VERTEX
  5
A1
100
AcDbEntity
  8
0
100
AcDbVertex
100
AcDb2dVertex
 10
2.5722172112
 20
2.035999912
 30
0.0
  0
VERTEX
  5
A2
100
AcDbEntity
  8
0
100
AcDbVertex
100
AcDb2dVertex
 10
2.58335708
 20
2.038787835
 30
0.0
  0
VERTEX
  5
A3
100
AcDbEntity
  8
0
100
AcDbVertex
100
AcDb2dVertex
 10
2.5977618683
 20
2.0405691638
 30
0.0
  0
VERTEX
  5
A4
100
AcDbEntity
  8
0
100
AcDbVertex
100
AcDb2dVertex
 10
2.614
 20
2.0411862451
 30
0.0
  0
SEQEND
  5
A5
100
AcDbEntity
  8
0
  0
LINE
  5
A6
100
AcDbEntity
  8
0
  6
Continuous
 62
         7
100
AcDbLine
 10
2.936
 20
2.0295024374
 30
0.0
 11
2.936
 21
1.375
 31
0.0
  0
POLYLINE
  5
A7
100
AcDbEntity
  8
0
  6
Continuous
 62
         7
100
AcDb2dPolyline
 66
         1
 10
0.0
 20
0.0
 30
0.0
 70
       128
  0
VERTEX
  5
A8
100
AcDbEntity
  8
0
100
AcDbVertex
100
AcDb2dVertex
 10
2.936
 20
2.0295024374
 30
0.0
  0
VERTEX
  5
A9
100
AcDbEntity
  8
0
100
AcDbVertex
100
AcDb2dVertex
 10
2.9359996724
 20
2.0295459362
 30
0.0
  0
VERTEX
  5
AA
100
AcDbEntity
  8
0
100
AcDbVertex
100
AcDb2dVertex
 10
2.9344857139
 20
2.0324168676
 30
0.0
  0
VERTEX
  5
AB
100
AcDbEntity
  8
0
100
AcDbVertex
100
AcDb2dVertex
 10
2.9277827888
 20
2.035999912
 30
0.0
  0
VERTEX
  5
AC
100
AcDbEntity
  8
0
100
AcDbVertex
100
AcDb2dVertex
 10
2.91664292
 20
2.038787835
 30
0.0
  0
VERTEX
  5
AD
100
AcDbEntity
  8
0
100
AcDbVertex
100
AcDb2dVertex
 10
2.9022381317
 20
2.0405691638
 30
0.0
  0
VERTEX
  5
AE
100
AcDbEntity
  8
0
100
AcDbVertex
100
AcDb2dVertex
 10
2.886
 20
2.0411862451
 30
0.0
  0
SEQEND
  5
AF
100
AcDbEntity
  8
0
  0
LINE
  5
B0
100
AcDbEntity
  8
0
  6
Continuous
 62
         7
100
AcDbLine
 10
2.886
 20
2.0411862451
 30
0.0
 11
2.614
 21
2.0411862451
 31
0.0
  0
POLYLINE
  5
B1
100
AcDbEntity
  8
0
  6
Continuous
 62
         7
100
AcDb2dPolyline
 66
         1
 10
0.0
 20
0.0
 30
0.0
 70
       128
  0
VERTEX
  5
B2
100
AcDbEntity
  8
0
100
AcDbVertex
100
AcDb2dVertex
 10
2.5385355992
 20
2.3916666667
 30
0.0
  0
VERTEX
  5
B3
100
AcDbEntity
  8
0
100
AcDbVertex
100
AcDb2dVertex
 10
2.5278838118
 20
2.4019341185
 30
0.0
  0
VERTEX
  5
B4
100
AcDbEntity
  8
0
100
AcDbVertex
100
AcDb2dVertex
 10
2.5194298319
 20
2.4082318072
 30
0.0
  0
VERTEX
  5
B5
100
AcDbEntity
  8
0
100
AcDbVertex
100
AcDb2dVertex
 10
2.5106393517
 20
2.4134577349
 30
0.0
  0
VERTEX
  5
B6
100
AcDbEntity
  8
0
100
AcDbVertex
100
AcDb2dVertex
 10
2.490559553
 20
2.4214084547
 30
0.0
  0
SEQEND
  5
B7
100
AcDbEntity
  8
0
  0
POLYLINE
  5
B8
100
AcDbEntity
  8
0
  6
Continuous
 62
         7
100
AcDb2dPolyline
 66
         1
 10
0.0
 20
0.0
 30
0.0
 70
       128
  0
VERTEX
  5
B9
100
AcDbEntity
  8
0
100
AcDbVertex
100
AcDb2dVertex
 10
3.009440447
 20
2.4214084547
 30
0.0
  0
VERTEX
  5
BA
100
AcDbEntity
  8
0
100
AcDbVertex
100
AcDb2dVertex
 10
2.9962722058
 20
2.4167698337
 30
0.0
  0
VERTEX
  5
BB
100
AcDbEntity
  8
0
100
AcDbVertex
100
AcDb2dVertex
 10
2.9828305711
 20
2.4096936351
 30
0.0
  0
VERTEX
  5
BC
100
AcDbEntity
  8
0
100
AcDbVertex
100
AcDb2dVertex
 10
2.9692838698
 20
2.3994913281
 30
0.0
  0
VERTEX
  5
BD
100
AcDbEntity
  8
0
100
AcDbVertex
100
AcDb2dVertex
 10
2.9614644008
 20
2.3916666667
 30
0.0
  0
SEQEND
  5
BE
100
AcDbEntity
  8
0
  0
ARC
  5
BF
100
AcDbEntity
  8
0
  6
Continuous
 62
         7
100
AcDbCircle
 10
2.464
 20
2.325
 30
0.0
 40
0.1
100
AcDbArc
 50
0.0
 51
41.8103148958
  0
ARC
  5
C0
100
AcDbEntity
  8
0
  6
Continuous
 62
         7
100
AcDbCircle
 10
3.036
 20
2.325
 30
0.0
 40
0.1
100
AcDbArc
 50
138.1896851042
 51
180.0
  0
LINE
  5
C1
100
AcDbEntity
  8
0
  6
Continuous
 62
         7
100
AcDbLine
 10
2.936
 20
2.325
 30
0.0
 11
2.936
 21
2.0295024374
 31
0.0
  0
LINE
  5
C2
100
AcDbEntity
  8
0
  6
Continuous
 62
         7
100
AcDbLine
 10
2.564
 20
2.0295024374
 30
0.0
 11
2.564
 21
2.325
 31
0.0
  0
LINE
  5
C3
100
AcDbEntity
  8
0
  6
Continuous
 62
         7
100
AcDbLine
 10
2.36
 20
2.847
 30
0.0
 11
3.14
 21
2.847
 31
0.0
  0
LINE
  5
C4
100
AcDbEntity
  8
0
  6
Continuous
 62
         7
100
AcDbLine
 10
2.75
 20
2.925
 30
0.0
 11
3.14
 21
2.925
 31
0.0
  0
LINE
  5
C5
100
AcDbEntity
  8
0
  6
Continuous
 62
         7
100
AcDbLine
 10
2.36
 20
2.925
 30
0.0
 11
2.75
 21
2.925
 31
0.0
  0
LINE
  5
C6
100
AcDbEntity
  8
0
  6
Continuous
 62
         7
100
AcDbLine
 10
2.75
 20
2.803
 30
0.0
 11
2.36
 21
2.803
 31
0.0
  0
LINE
  5
C7
100
AcDbEntity
  8
0
  6
Continuous
 62
         7
100
AcDbLine
 10
3.14
 20
2.803
 30
0.0
 11
2.75
 21
2.803
 31
0.0
  0
DIMENSION
  5
E0
100
AcDbEntity
  8
0
 62
       255
100
AcDbDimension
  2
*D0
 10
2.564
 20
0.8467938161
 30
0.0
 11
2.736238237
 21
0.8467938161
 31
0.0
 70
       160
 71
         5
 72
         1
 41
1.0
 42
0.0
  3
SLDDIMSTYLE0
100
AcDbAlignedDimension
 13
2.564
 23
1.375
 33
0.0
 14
2.936
 24
1.468751781
 34
0.0
100
AcDbRotatedDimension
  0
MTEXT
  5
E1
100
AcDbEntity
  8
0
 62
       255
100
AcDbMText
 10
6.3059981833
 20
1.6654145039
 30
0.0
 40
0.1377952756
 41
0.0
 71
         1
 72
         1
  1
DPRG Logo Robot - HingeCenterPin_Inner\PRon Grant Jan 15, 2014\P
  7
SLDTEXTSTYLE0
 73
         1
 44
1.0
  0
LINE
  5
E2
100
AcDbEntity
  8
0
  6
Continuous
 62
         7
100
AcDbLine
 10
7.95
 20
6.8754237717
 30
0.0
 11
7.85
 21
6.8754237717
 31
0.0
  0
LINE
  5
E3
100
AcDbEntity
  8
0
  6
Continuous
 62
         7
100
AcDbLine
 10
7.85
 20
5.8754237717
 30
0.0
 11
7.95
 21
5.8754237717
 31
0.0
  0
ARC
  5
E4
100
AcDbEntity
  8
0
  6
Continuous
 62
         7
100
AcDbCircle
 10
7.75
 20
5.8854237717
 30
0.0
 40
0.1
100
AcDbArc
 50
0.0
 51
90.0
  0
ARC
  5
E5
100
AcDbEntity
  8
0
  6
Continuous
 62
         7
100
AcDbCircle
 10
7.75
 20
6.8654237717
 30
0.0
 40
0.1
100
AcDbArc
 50
270.0
 51
0.0
  0
LINE
  5
E6
100
AcDbEntity
  8
0
  6
Continuous
 62
         7
100
AcDbLine
 10
7.528
 20
6.7654237717
 30
0.0
 11
7.45
 21
6.7654237717
 31
0.0
  0
LINE
  5
E7
100
AcDbEntity
  8
0
  6
Continuous
 62
         7
100
AcDbLine
 10
7.45
 20
5.9854237717
 30
0.0
 11
7.528
 21
5.9854237717
 31
0.0
  0
ARC
  5
E8
100
AcDbEntity
  8
0
  6
Continuous
 62
         7
100
AcDbCircle
 10
7.55
 20
5.9854237717
 30
0.0
 40
0.022
100
AcDbArc
 50
0.0
 51
180.0
  0
ARC
  5
E9
100
AcDbEntity
  8
0
  6
Continuous
 62
         7
100
AcDbCircle
 10
7.55
 20
6.7654237717
 30
0.0
 40
0.022
100
AcDbArc
 50
180.0
 51
0.0
  0
LINE
  5
EA
100
AcDbEntity
  8
0
  6
Continuous
 62
         7
100
AcDbLine
 10
7.75
 20
6.7654237717
 30
0.0
 11
7.572
 21
6.7654237717
 31
0.0
  0
LINE
  5
EB
100
AcDbEntity
  8
0
  6
Continuous
 62
         7
100
AcDbLine
 10
7.572
 20
5.9854237717
 30
0.0
 11
7.75
 21
5.9854237717
 31
0.0
  0
LINE
  5
EC
100
AcDbEntity
  8
0
  6
Continuous
 62
         7
100
AcDbLine
 10
7.95
 20
6.8254237717
 30
0.0
 11
7.95
 21
6.8754237717
 31
0.0
  0
POLYLINE
  5
ED
100
AcDbEntity
  8
0
  6
Continuous
 62
         7
100
AcDb2dPolyline
 66
         1
 10
0.0
 20
0.0
 30
0.0
 70
       128
  0
VERTEX
  5
EE
100
AcDbEntity
  8
0
100
AcDbVertex
100
AcDb2dVertex
 10
7.9535915453
 20
6.8028470449
 30
0.0
  0
VERTEX
  5
EF
100
AcDbEntity
  8
0
100
AcDbVertex
100
AcDb2dVertex
 10
7.955560984
 20
6.8153891994
 30
0.0
  0
VERTEX
  5
F0
100
AcDbEntity
  8
0
100
AcDbVertex
100
AcDb2dVertex
 10
7.9538261781
 20
6.8205505581
 30
0.0
  0
VERTEX
  5
F1
100
AcDbEntity
  8
0
100
AcDbVertex
100
AcDb2dVertex
 10
7.95
 20
6.8254237717
 30
0.0
  0
SEQEND
  5
F2
100
AcDbEntity
  8
0
  0
LINE
  5
F3
100
AcDbEntity
  8
0
  6
Continuous
 62
         7
100
AcDbLine
 10
7.95
 20
6.7855505814
 30
0.0
 11
7.9535915453
 21
6.8028470449
 31
0.0
  0
LINE
  5
F4
100
AcDbEntity
  8
0
  6
Continuous
 62
         7
100
AcDbLine
 10
7.95
 20
5.9652969621
 30
0.0
 11
7.95
 21
6.7855505814
 31
0.0
  0
POLYLINE
  5
F5
100
AcDbEntity
  8
0
  6
Continuous
 62
         7
100
AcDb2dPolyline
 66
         1
 10
0.0
 20
0.0
 30
0.0
 70
       128
  0
VERTEX
  5
F6
100
AcDbEntity
  8
0
100
AcDbVertex
100
AcDb2dVertex
 10
7.9535915453
 20
5.9480004986
 30
0.0
  0
VERTEX
  5
F7
100
AcDbEntity
  8
0
100
AcDbVertex
100
AcDb2dVertex
 10
7.9501863991
 20
5.9611079518
 30
0.0
  0
VERTEX
  5
F8
100
AcDbEntity
  8
0
100
AcDbVertex
100
AcDb2dVertex
 10
7.95
 20
5.9652969621
 30
0.0
  0
SEQEND
  5
F9
100
AcDbEntity
  8
0
  0
POLYLINE
  5
FA
100
AcDbEntity
  8
0
  6
Continuous
 62
         7
100
AcDb2dPolyline
 66
         1
 10
0.0
 20
0.0
 30
0.0
 70
       128
  0
VERTEX
  5
FB
100
AcDbEntity
  8
0
100
AcDbVertex
100
AcDb2dVertex
 10
7.95
 20
5.9254237717
 30
0.0
  0
VERTEX
  5
FC
100
AcDbEntity
  8
0
100
AcDbVertex
100
AcDb2dVertex
 10
7.9535517264
 20
5.9298000955
 30
0.0
  0
VERTEX
  5
FD
100
AcDbEntity
  8
0
100
AcDbVertex
100
AcDb2dVertex
 10
7.955424938
 20
5.9347299349
 30
0.0
  0
VERTEX
  5
FE
100
AcDbEntity
  8
0
100
AcDbVertex
100
AcDb2dVertex
 10
7.955615262
 20
5.941153091
 30
0.0
  0
VERTEX
  5
FF
100
AcDbEntity
  8
0
100
AcDbVertex
100
AcDb2dVertex
 10
7.9535915453
 20
5.9480004986
 30
0.0
  0
SEQEND
  5
100
100
AcDbEntity
  8
0
  0
LINE
  5
101
100
AcDbEntity
  8
0
  6
Continuous
 62
         7
100
AcDbLine
 10
7.95
 20
5.8754237717
 30
0.0
 11
7.95
 21
5.9254237717
 31
0.0
  0
LINE
  5
102
100
AcDbEntity
  8
0
  6
Continuous
 62
         7
100
AcDbLine
 10
7.85
 20
5.8754237717
 30
0.0
 11
7.85
 21
6.8754237717
 31
0.0
  0
LINE
  5
103
100
AcDbEntity
  8
0
  6
Continuous
 62
         7
100
AcDbLine
 10
7.528
 20
5.9854237717
 30
0.0
 11
7.528
 21
6.7654237717
 31
0.0
  0
LINE
  5
104
100
AcDbEntity
  8
0
  6
Continuous
 62
         7
100
AcDbLine
 10
7.45
 20
5.9854237717
 30
0.0
 11
7.45
 21
6.7654237717
 31
0.0
  0
LINE
  5
105
100
AcDbEntity
  8
0
  6
Continuous
 62
         7
100
AcDbLine
 10
7.572
 20
6.7654237717
 30
0.0
 11
7.572
 21
5.9854237719
 31
0.0
  0
LINE
  5
106
100
AcDbEntity
  8
0
  6
Continuous
 62
         7
100
AcDbLine
 10
8.05
 20
5.9254237717
 30
0.0
 11
7.95
 21
5.9254237717
 31
0.0
  0
LINE
  5
107
100
AcDbEntity
  8
0
  6
Continuous
 62
         7
100
AcDbLine
 10
7.95
 20
6.8254237717
 30
0.0
 11
8.05
 21
6.8254237717
 31
0.0
  0
POLYLINE
  5
108
100
AcDbEntity
  8
0
  6
Continuous
 62
         7
100
AcDb2dPolyline
 66
         1
 10
0.0
 20
0.0
 30
0.0
 70
       128
  0
VERTEX
  5
109
100
AcDbEntity
  8
0
100
AcDbVertex
100
AcDb2dVertex
 10
8.3422084784
 20
5.9754237717
 30
0.0
  0
VERTEX
  5
10A
100
AcDbEntity
  8
0
100
AcDbVertex
100
AcDb2dVertex
 10
8.3421645874
 20
5.9752443894
 30
0.0
  0
VERTEX
  5
10B
100
AcDbEntity
  8
0
100
AcDbVertex
100
AcDb2dVertex
 10
8.3392308727
 20
5.9631684249
 30
0.0
  0
VERTEX
  5
10C
100
AcDbEntity
  8
0
100
AcDbVertex
100
AcDb2dVertex
 10
8.3355856795
 20
5.9479280048
 30
0.0
  0
VERTEX
  5
10D
100
AcDbEntity
  8
0
100
AcDbVertex
100
AcDb2dVertex
 10
8.3327515719
 20
5.9358981349
 30
0.0
  0
VERTEX
  5
10E
100
AcDbEntity
  8
0
100
AcDbVertex
100
AcDb2dVertex
 10
8.3309410262
 20
5.9281302622
 30
0.0
  0
VERTEX
  5
10F
100
AcDbEntity
  8
0
100
AcDbVertex
100
AcDb2dVertex
 10
8.3303136991
 20
5.9254237717
 30
0.0
  0
SEQEND
  5
110
100
AcDbEntity
  8
0
  0
LINE
  5
111
100
AcDbEntity
  8
0
  6
Continuous
 62
         7
100
AcDbLine
 10
8.3303136991
 20
5.9254237717
 30
0.0
 11
8.05
 21
5.9254237717
 31
0.0
  0
LINE
  5
112
100
AcDbEntity
  8
0
  6
Continuous
 62
         7
100
AcDbLine
 10
8.05
 20
6.8254237717
 30
0.0
 11
8.3338137549
 21
6.8254237717
 31
0.0
  0
POLYLINE
  5
113
100
AcDbEntity
  8
0
  6
Continuous
 62
         7
100
AcDb2dPolyline
 66
         1
 10
0.0
 20
0.0
 30
0.0
 70
       128
  0
VERTEX
  5
114
100
AcDbEntity
  8
0
100
AcDbVertex
100
AcDb2dVertex
 10
8.3454975626
 20
6.7754237717
 30
0.0
  0
VERTEX
  5
115
100
AcDbEntity
  8
0
100
AcDbVertex
100
AcDb2dVertex
 10
8.3454540638
 20
6.7756047712
 30
0.0
  0
VERTEX
  5
116
100
AcDbEntity
  8
0
100
AcDbVertex
100
AcDb2dVertex
 10
8.3425831324
 20
6.7876358784
 30
0.0
  0
VERTEX
  5
117
100
AcDbEntity
  8
0
100
AcDbVertex
100
AcDb2dVertex
 10
8.339000088
 20
6.8028864476
 30
0.0
  0
VERTEX
  5
118
100
AcDbEntity
  8
0
100
AcDbVertex
100
AcDb2dVertex
 10
8.336212165
 20
6.8149334092
 30
0.0
  0
VERTEX
  5
119
100
AcDbEntity
  8
0
100
AcDbVertex
100
AcDb2dVertex
 10
8.3344308362
 20
6.8227135495
 30
0.0
  0
VERTEX
  5
11A
100
AcDbEntity
  8
0
100
AcDbVertex
100
AcDb2dVertex
 10
8.3338137549
 20
6.8254237717
 30
0.0
  0
SEQEND
  5
11B
100
AcDbEntity
  8
0
  0
CIRCLE
  5
11C
100
AcDbEntity
  8
0
  6
Continuous
 62
         7
100
AcDbCircle
 10
8.55
 20
6.3745762283
 30
0.0
 40
0.11
  0
LINE
  5
11D
100
AcDbEntity
  8
0
  6
Continuous
 62
         7
100
AcDbLine
 10
8.811629509
 20
6.6362057373
 30
0.0
 11
8.7267766953
 21
6.5513529236
 31
0.0
  0
ARC
  5
11E
100
AcDbEntity
  8
0
  6
Continuous
 62
         7
100
AcDbCircle
 10
8.55
 20
6.3745762283
 30
0.0
 40
0.37
100
AcDbArc
 50
45.0
 51
164.3299413876
  0
LINE
  5
11F
100
AcDbEntity
  8
0
  6
Continuous
 62
         7
100
AcDbLine
 10
8.3208432992
 20
6.4745122402
 30
0.0
 11
8.193751781
 21
6.4745122402
 31
0.0
  0
ARC
  5
120
100
AcDbEntity
  8
0
  6
Continuous
 62
         7
100
AcDbCircle
 10
8.55
 20
6.3745762283
 30
0.0
 40
0.25
100
AcDbArc
 50
45.0
 51
156.4378213483
  0
LINE
  5
121
100
AcDbEntity
  8
0
  6
Continuous
 62
         7
100
AcDbLine
 10
8.193751781
 20
6.2746402163
 30
0.0
 11
8.3208432992
 21
6.2746402163
 31
0.0
  0
ARC
  5
122
100
AcDbEntity
  8
0
  6
Continuous
 62
         7
100
AcDbCircle
 10
8.55
 20
6.3745762283
 30
0.0
 40
0.37
100
AcDbArc
 50
195.6700586124
 51
344.3299413876
  0
LINE
  5
123
100
AcDbEntity
  8
0
  6
Continuous
 62
         7
100
AcDbLine
 10
8.7791567008
 20
6.2746402163
 30
0.0
 11
8.906248219
 21
6.2746402163
 31
0.0
  0
ARC
  5
124
100
AcDbEntity
  8
0
  6
Continuous
 62
         7
100
AcDbCircle
 10
8.55
 20
6.3745762283
 30
0.0
 40
0.25
100
AcDbArc
 50
203.5621786517
 51
336.4378213483
  0
ARC
  5
125
100
AcDbEntity
  8
0
  6
Continuous
 62
         7
100
AcDbCircle
 10
8.55
 20
6.3745762283
 30
0.0
 40
0.5
100
AcDbArc
 50
243.9361424862
 51
115.6182188136
  0
DIMENSION
  5
133
100
AcDbEntity
  8
0
100
AcDbDimension
  2
*D2
 10
8.55
 20
6.3745762283
 30
0.0
 11
10.1999935233
 21
7.282253886
 31
0.0
 70
       164
 71
         5
 72
         1
 41
1.0
 42
0.0
  1
<>
  3
SLDDIMSTYLE1
100
AcDbRadialDimension
 15
8.9880876353
 25
6.6155725432
 35
0.0
 40
0.0
  0
DIMENSION
  5
144
100
AcDbEntity
  8
0
 62
       255
100
AcDbDimension
  2
*D3
 10
6.4855111679
 20
6.8254237717
 30
0.0
 11
6.4855111679
 21
6.3754237717
 31
0.0
 70
       160
 71
         5
 72
         1
 41
1.0
 42
0.0
  3
SLDDIMSTYLE2
100
AcDbAlignedDimension
 13
8.3338137549
 23
6.8254237717
 33
0.0
 14
8.3303136991
 24
5.9254237717
 34
0.0
 50
90.0
100
AcDbRotatedDimension
  0
DIMENSION
  5
154
100
AcDbEntity
  8
0
 62
       255
100
AcDbDimension
  2
*D4
 10
5.8232945443
 20
6.8754237717
 30
0.0
 11
5.8232945443
 21
6.3754237717
 31
0.0
 70
       160
 71
         5
 72
         1
 41
1.0
 42
0.0
  3
SLDDIMSTYLE2
100
AcDbAlignedDimension
 13
7.85
 23
6.8754237717
 33
0.0
 14
7.85
 24
5.8754237717
 34
0.0
 50
90.0
100
AcDbRotatedDimension
  0
DIMENSION
  5
164
100
AcDbEntity
  8
0
 62
       255
100
AcDbDimension
  2
*D5
 10
7.45
 20
5.5019379608
 30
0.0
 11
7.5847601055
 21
5.5019379608
 31
0.0
 70
       160
 71
         5
 72
         1
 41
1.0
 42
0.0
  3
SLDDIMSTYLE2
100
AcDbAlignedDimension
 13
7.45
 23
5.9854237717
 33
0.0
 14
7.75
 24
5.8854237717
 34
0.0
100
AcDbRotatedDimension
  0
DIMENSION
  5
174
100
AcDbEntity
  8
0
 62
       255
100
AcDbDimension
  2
*D6
 10
7.8110082547
 20
6.7654237717
 30
0.0
 11
7.8110082547
 21
7.3818544004
 31
0.0
 70
       160
 71
         5
 72
         1
 41
1.0
 42
0.0
  3
SLDDIMSTYLE2
100
AcDbAlignedDimension
 13
7.45
 23
6.7654237717
 33
0.0
 14
7.45
 24
5.9854237717
 34
0.0
 50
90.0
100
AcDbRotatedDimension
  0
ENDSEC
  0
SECTION
  2
OBJECTS
  0
DICTIONARY
  5
19
100
AcDbDictionary
280
         0
281
         1
  3
ACAD_GROUP
350
1A
  3
ACAD_MLINESTYLE
350
1B
  3
ACAD_LAYOUT
350
1E
  3
ACAD_PLOTSETTINGS
350
22
  3
ACAD_PLOTSTYLENAME
350
1F
  3
ACAD_WIPEOUT_VARS
350
23
  0
DICTIONARY
  5
1A
102
{ACAD_REACTORS
330
19
102
}
100
AcDbDictionary
280
         0
281
         1
  0
DICTIONARY
  5
1B
102
{ACAD_REACTORS
330
19
102
}
100
AcDbDictionary
280
         0
281
         1
  3
Standard
350
1C
  0
MLINESTYLE
  5
1C
102
{ACAD_REACTORS
330
1B
102
}
100
AcDbMlineStyle
  2
Standard
 70
         0
  3

 62
         0
 51
90.0
 52
90.0
 71
         2
 49
0.5
 62
       256
  6
BYLAYER
 49
-0.5
 62
       256
  6
BYLAYER
  0
ACDBDICTIONARYWDFLT
  5
1F
102
{ACAD_REACTORS
330
19
102
}
100
AcDbDictionary
281
         1
  3
Normal
350
1D
100
AcDbDictionaryWithDefault
340
1D
  0
ACDBPLACEHOLDER
  5
1D
102
{ACAD_REACTORS
330
1F
102
}
  0
LAYOUT
  5
20
102
{ACAD_REACTORS
330
1E
102
}
100
AcDbPlotSettings
  1

  2

  4

  6

 40
0.0
 41
0.0
 42
0.0
 43
0.0
 44
0.0
 45
0.0
 46
0.0
 47
0.0
 48
0.0
 49
0.0
140
0.0
141
0.0
142
1.0
143
1.0
 70
      1024
 72
         0
 73
         0
 74
         0
  7

 75
         0
147
1.0
148
0.0
149
0.0
100
AcDbLayout
  1
Model
 70
         0
 71
         0
 10
0.0
 20
0.0
 11
0.0
 21
0.0
 12
0.0
 22
0.0
 32
0.0
 14
0.0
 24
0.0
 34
0.0
 15
0.0
 25
0.0
 35
0.0
146
0.0
 13
0.0
 23
0.0
 33
0.0
 16
0.0
 26
0.0
 36
0.0
 17
0.0
 27
0.0
 37
0.0
 76
         0
330
A
331
0
345
0
346
0
  0
LAYOUT
  5
21
102
{ACAD_REACTORS
330
1E
102
}
100
AcDbPlotSettings
  1

  2

  4

  6

 40
0.0
 41
0.0
 42
0.0
 43
0.0
 44
0.0
 45
0.0
 46
0.0
 47
0.0
 48
0.0
 49
0.0
140
0.0
141
0.0
142
1.0
143
1.0
 70
         0
 72
         0
 73
         0
 74
         0
  7

 75
         0
147
1.0
148
0.0
149
0.0
100
AcDbLayout
  1
Layout1
 70
         0
 71
         0
 10
0.0
 20
0.0
 11
0.0
 21
0.0
 12
0.0
 22
0.0
 32
0.0
 14
0.0
 24
0.0
 34
0.0
 15
0.0
 25
0.0
 35
0.0
146
0.0
 13
0.0
 23
0.0
 33
0.0
 16
0.0
 26
0.0
 36
0.0
 17
0.0
 27
0.0
 37
0.0
 76
         0
330
B
331
0
345
0
346
0
  0
DICTIONARY
  5
1E
102
{ACAD_REACTORS
330
19
102
}
100
AcDbDictionary
280
         0
281
         1
  3
Layout1
350
21
  3
Model
350
20
  0
DICTIONARY
  5
22
102
{ACAD_REACTORS
330
19
102
}
100
AcDbDictionary
280
         0
281
         1
  0
WIPEOUTVARIABLES
  5
23
100
AcDbWipeoutVariables
 70
         1
  0
ENDSEC
  0
EOF
