  0
SECTION
  2
HEADER
  9
$ACADVER
  1
AC1015
  9
$ACADMAINTVER
 70
     6
  9
$DWGCODEPAGE
  3
ANSI_1252
  9
$INSBASE
 10
0.0
 20
0.0
 30
0.0
  9
$EXTMIN
 10
-0.2848357901499057
 20
-0.117637614623689
 30
-0.0015258207003583
  9
$EXTMAX
 10
1.665002452369731
 20
1.665002452381366
 30
0.0000000349246037
  9
$LIMMIN
 10
0.0
 20
0.0
  9
$LIMMAX
 10
10.0
 20
10.0
  9
$ORTHOMODE
 70
     0
  9
$REGENMODE
 70
     1
  9
$FILLMODE
 70
     1
  9
$QTEXTMODE
 70
     0
  9
$MIRRTEXT
 70
     1
  9
$LTSCALE
 40
1.0
  9
$ATTMODE
 70
     1
  9
$TEXTSIZE
 40
0.0
  9
$TRACEWID
 40
0.05
  9
$TEXTSTYLE
  7
Standard
  9
$CLAYER
  8
outline
  9
$CELTYPE
  6
Continuous
  9
$CECOLOR
 62
   256
  9
$CELTSCALE
 40
1.0
  9
$DISPSILH
 70
     0
  9
$DIMSCALE
 40
1.0
  9
$DIMASZ
 40
0.2362204724
  9
$DIMEXO
 40
0.0393700787
  9
$DIMDLI
 40
0.38
  9
$DIMRND
 40
0.0
  9
$DIMDLE
 40
0.0393700787
  9
$DIMEXE
 40
0.18
  9
$DIMTP
 40
0.0
  9
$DIMTM
 40
0.0
  9
$DIMTXT
 40
0.1377952756
  9
$DIMCEN
 40
0.09
  9
$DIMTSZ
 40
0.0
  9
$DIMTOL
 70
     0
  9
$DIMLIM
 70
     0
  9
$DIMTIH
 70
     1
  9
$DIMTOH
 70
     1
  9
$DIMSE1
 70
     0
  9
$DIMSE2
 70
     0
  9
$DIMTAD
 70
     1
  9
$DIMZIN
 70
     0
  9
$DIMBLK
  1

  9
$DIMASO
 70
     1
  9
$DIMSHO
 70
     1
  9
$DIMPOST
  1

  9
$DIMAPOST
  1

  9
$DIMALT
 70
     0
  9
$DIMALTD
 70
     2
  9
$DIMALTF
 40
25.4
  9
$DIMLFAC
 40
0.5
  9
$DIMTOFL
 70
     0
  9
$DIMTVP
 40
0.0
  9
$DIMTIX
 70
     0
  9
$DIMSOXD
 70
     0
  9
$DIMSAH
 70
     0
  9
$DIMBLK1
  1

  9
$DIMBLK2
  1

  9
$DIMSTYLE
  2
Standard
  9
$DIMCLRD
 70
     0
  9
$DIMCLRE
 70
     0
  9
$DIMCLRT
 70
     0
  9
$DIMTFAC
 40
1.0
  9
$DIMGAP
 40
0.0393700787
  9
$DIMJUST
 70
     0
  9
$DIMSD1
 70
     0
  9
$DIMSD2
 70
     0
  9
$DIMTOLJ
 70
     1
  9
$DIMTZIN
 70
     0
  9
$DIMALTZ
 70
     0
  9
$DIMALTTZ
 70
     0
  9
$DIMUPT
 70
     0
  9
$DIMDEC
 70
     4
  9
$DIMTDEC
 70
     4
  9
$DIMALTU
 70
     2
  9
$DIMALTTD
 70
     2
  9
$DIMTXSTY
  7
Standard
  9
$DIMAUNIT
 70
     0
  9
$DIMADEC
 70
     0
  9
$DIMALTRND
 40
0.0
  9
$DIMAZIN
 70
     0
  9
$DIMDSEP
 70
     0
  9
$DIMATFIT
 70
     3
  9
$DIMFRAC
 70
     0
  9
$DIMLDRBLK
  1

  9
$DIMLUNIT
 70
     2
  9
$DIMLWD
 70
     0
  9
$DIMLWE
 70
     0
  9
$DIMTMOVE
 70
     0
  9
$LUNITS
 70
     2
  9
$LUPREC
 70
     2
  9
$SKETCHINC
 40
0.1
  9
$FILLETRAD
 40
0.0
  9
$AUNITS
 70
     0
  9
$AUPREC
 70
     2
  9
$MENU
  1
acad
  9
$ELEVATION
 40
0.0
  9
$PELEVATION
 40
0.0
  9
$THICKNESS
 40
0.0
  9
$LIMCHECK
 70
     0
  9
$CHAMFERA
 40
0.0
  9
$CHAMFERB
 40
0.0
  9
$CHAMFERC
 40
0.0
  9
$CHAMFERD
 40
0.0
  9
$SKPOLY
 70
     0
  9
$TDCREATE
 40
2456711.602686608
  9
$TDUCREATE
 40
2456711.852686608
  9
$TDUPDATE
 40
2456711.632642789
  9
$TDUUPDATE
 40
2456711.882642789
  9
$TDINDWG
 40
0.0299563542
  9
$TDUSRTIMER
 40
0.0299563079
  9
$USRTIMER
 70
     1
  9
$ANGBASE
 50
0.0
  9
$ANGDIR
 70
     0
  9
$PDMODE
 70
     0
  9
$PDSIZE
 40
-1.0
  9
$PLINEWID
 40
0.0
  9
$SPLFRAME
 70
     0
  9
$SPLINETYPE
 70
     6
  9
$SPLINESEGS
 70
     8
  9
$HANDSEED
  5
161
  9
$SURFTAB1
 70
     6
  9
$SURFTAB2
 70
     6
  9
$SURFTYPE
 70
     6
  9
$SURFU
 70
     6
  9
$SURFV
 70
     6
  9
$UCSBASE
  2

  9
$UCSNAME
  2

  9
$UCSORG
 10
0.0
 20
0.0
 30
0.0
  9
$UCSXDIR
 10
1.0
 20
0.0
 30
0.0
  9
$UCSYDIR
 10
0.0
 20
1.0
 30
0.0
  9
$UCSORTHOREF
  2

  9
$UCSORTHOVIEW
 70
     0
  9
$UCSORGTOP
 10
0.0
 20
0.0
 30
0.0
  9
$UCSORGBOTTOM
 10
0.0
 20
0.0
 30
0.0
  9
$UCSORGLEFT
 10
0.0
 20
0.0
 30
0.0
  9
$UCSORGRIGHT
 10
0.0
 20
0.0
 30
0.0
  9
$UCSORGFRONT
 10
0.0
 20
0.0
 30
0.0
  9
$UCSORGBACK
 10
0.0
 20
0.0
 30
0.0
  9
$PUCSBASE
  2

  9
$PUCSNAME
  2

  9
$PUCSORG
 10
0.0
 20
0.0
 30
0.0
  9
$PUCSXDIR
 10
1.0
 20
0.0
 30
0.0
  9
$PUCSYDIR
 10
0.0
 20
1.0
 30
0.0
  9
$PUCSORTHOREF
  2

  9
$PUCSORTHOVIEW
 70
     0
  9
$PUCSORGTOP
 10
0.0
 20
0.0
 30
0.0
  9
$PUCSORGBOTTOM
 10
0.0
 20
0.0
 30
0.0
  9
$PUCSORGLEFT
 10
0.0
 20
0.0
 30
0.0
  9
$PUCSORGRIGHT
 10
0.0
 20
0.0
 30
0.0
  9
$PUCSORGFRONT
 10
0.0
 20
0.0
 30
0.0
  9
$PUCSORGBACK
 10
0.0
 20
0.0
 30
0.0
  9
$USERI1
 70
     0
  9
$USERI2
 70
     0
  9
$USERI3
 70
     0
  9
$USERI4
 70
     0
  9
$USERI5
 70
     0
  9
$USERR1
 40
0.0
  9
$USERR2
 40
0.0
  9
$USERR3
 40
0.0
  9
$USERR4
 40
0.0
  9
$USERR5
 40
0.0
  9
$WORLDVIEW
 70
     1
  9
$SHADEDGE
 70
     3
  9
$SHADEDIF
 70
    70
  9
$TILEMODE
 70
     1
  9
$MAXACTVP
 70
    16
  9
$PINSBASE
 10
0.0
 20
0.0
 30
0.0
  9
$PLIMCHECK
 70
     0
  9
$PEXTMIN
 10
1.000000000000000E+20
 20
1.000000000000000E+20
 30
1.000000000000000E+20
  9
$PEXTMAX
 10
-1.000000000000000E+20
 20
-1.000000000000000E+20
 30
-1.000000000000000E+20
  9
$PLIMMIN
 10
0.0
 20
0.0
  9
$PLIMMAX
 10
12.0
 20
9.0
  9
$UNITMODE
 70
     0
  9
$VISRETAIN
 70
     0
  9
$PLINEGEN
 70
     1
  9
$PSLTSCALE
 70
     1
  9
$TREEDEPTH
 70
  3020
  9
$CMLSTYLE
  2
Standard
  9
$CMLJUST
 70
     0
  9
$CMLSCALE
 40
1.0
  9
$PROXYGRAPHICS
 70
     0
  9
$MEASUREMENT
 70
     0
  9
$CELWEIGHT
370
     0
  9
$ENDCAPS
280
     0
  9
$JOINSTYLE
280
     0
  9
$LWDISPLAY
290
     0
  9
$INSUNITS
 70
     0
  9
$HYPERLINKBASE
  1

  9
$STYLESHEET
  1

  9
$XEDIT
290
     1
  9
$CEPSNTYPE
380
     0
  9
$PSTYLEMODE
290
     1
  9
$FINGERPRINTGUID
  2

  9
$VERSIONGUID
  2
{77D31304-D1BE-4402-BE6B-9D35894CE3B2}
  9
$EXTNAMES
290
     1
  9
$PSVPSCALE
 40
0.0
  9
$OLESTARTUP
290
     0
  0
ENDSEC
  0
SECTION
  2
CLASSES
  0
CLASS
  1
LWPOLYLINE
  2
AcDbPolyline
  3
AutoCAD 2000
 90
    32768
280
     0
281
     1
  0
CLASS
  1
IMAGE
  2
AcDbRasterImage
  3
ISM
 90
    32895
280
     0
281
     1
  0
CLASS
  1
OLE2FRAME
  2
AcDbOle2Frame
  3
AutoCAD 2000
 90
    32768
280
     0
281
     1
  0
CLASS
  1
HATCH
  2
AcDbHatch
  3
AutoCAD 2000
 90
    32768
280
     0
281
     1
  0
CLASS
  1
DICTIONARYVAR
  2
AcDbDictionaryVar
  3
AutoCAD 2000
 90
    32768
280
     0
281
     0
  0
CLASS
  1
RASTERVARIABLES
  2
AcDbRasterVariables
  3
ISM
 90
    32768
280
     0
281
     0
  0
CLASS
  1
IMAGEDEF
  2
AcDbRasterImageDef
  3
ISM
 90
    32768
280
     0
281
     0
  0
CLASS
  1
IMAGEDEF_REACTOR
  2
AcDbRasterImageDefReactor
  3
ISM
 90
    32769
280
     0
281
     0
  0
CLASS
  1
IDBUFFER
  2
AcDbIdBuffer
  3
AutoCAD 2000
 90
    32768
280
     0
281
     0
  0
CLASS
  1
SPATIAL_FILTER
  2
AcDbSpatialFilter
  3
AutoCAD 2000
 90
    32768
280
     0
281
     0
  0
CLASS
  1
XRECORD
  2
AcDbXrecord
  3
AutoCAD 2000
 90
    32768
280
     0
281
     0
  0
CLASS
  1
SORTENTSTABLE
  2
AcDbSortentsTable
  3
AutoCAD 2000
 90
    32768
280
     0
281
     0
  0
CLASS
  1
LAYER_INDEX
  2
AcDbLayerIndex
  3
AutoCAD 2000
 90
    32768
280
     0
281
     0
  0
CLASS
  1
SPATIAL_INDEX
  2
AcDbSpatialIndex
  3
AutoCAD 2000
 90
    32768
280
     0
281
     0
  0
CLASS
  1
OBJECT_PTR
  2
CAseDLPNTableRecord
  3
"ASE-LPNTableRecord"
 90
    32769
280
     0
281
     0
  0
CLASS
  1
LAYOUT
  2
AcDbLayout
  3
AutoCAD 2000
 90
        0
280
     0
281
     0
  0
CLASS
  1
PLOTSETTINGS
  2
AcDbPlotSettings
  3
AutoCAD 2000
 90
    32768
280
     0
281
     0
  0
CLASS
  1
ACDBDICTIONARYWDFLT
  2
AcDbDictionaryWithDefault
  3
AutoCAD 2000
 90
        0
280
     0
281
     0
  0
CLASS
  1
ACDBPLACEHOLDER
  2
AcDbPlaceHolder
  3
AutoCAD 2000
 90
        0
280
     0
281
     0
  0
CLASS
  1
VBA_PROJECT
  2
AcDbVbaProject
  3
acadvba
 90
    32768
280
     0
281
     0
  0
CLASS
  1
WIPEOUT
  2
AcDbWipeout
  3
WipeOut|AutoCAD Express Tool|expresstools@autodesk.com
 90
    32895
280
     0
281
     1
  0
CLASS
  1
WIPEOUTVARIABLES
  2
AcDbWipeoutVariables
  3
WipeOut|AutoCAD Express Tool|expresstools@autodesk.com
 90
        0
280
     0
281
     0
  0
CLASS
  1
RTEXT
  2
RText
  3
RText|AutoCAD Express Tool|expresstools@autodesk.com
 90
    32768
280
     0
281
     1
  0
CLASS
  1
ARCALIGNEDTEXT
  2
AcDbArcAlignedText
  3
ATEXT|AutoCAD Express Tool|expresstools@autodesk.com
 90
    32768
280
     0
281
     1
  0
ENDSEC
  0
SECTION
  2
TABLES
  0
TABLE
  2
VPORT
  5
7
330
0
100
AcDbSymbolTable
 70
     3
  0
VPORT
  5
160
330
7
100
AcDbSymbolTableRecord
100
AcDbViewportTableRecord
  2
*Active
 70
     0
 10
0.0
 20
0.0
 11
1.0
 21
1.0
 12
1.700607238557182
 22
1.109561018348742
 13
0.0
 23
0.0
 14
1.0
 24
1.0
 15
0.1
 25
0.1
 16
0.0
 26
0.0
 36
1.0
 17
0.0
 27
0.0
 37
0.0
 40
3.832258090067988
 41
2.350543478260869
 42
50.0
 43
0.0
 44
0.0
 50
0.0
 51
0.0
 71
     0
 72
  2000
 73
     1
 74
     0
 75
     0
 76
     1
 77
     0
 78
     0
281
     0
 65
     0
110
0.0
120
0.0
130
0.0
111
1.0
121
0.0
131
0.0
112
0.0
122
1.0
132
0.0
 79
     0
146
0.0
  0
ENDTAB
  0
TABLE
  2
LTYPE
  5
4
330
0
100
AcDbSymbolTable
 70
    18
  0
LTYPE
  5
11
330
4
100
AcDbSymbolTableRecord
100
AcDbLinetypeTableRecord
  2
ByBlock
 70
     0
  3

 72
    65
 73
     0
 40
0.0
  0
LTYPE
  5
12
330
4
100
AcDbSymbolTableRecord
100
AcDbLinetypeTableRecord
  2
ByLayer
 70
     0
  3

 72
    65
 73
     0
 40
0.0
  0
LTYPE
  5
13
330
4
100
AcDbSymbolTableRecord
100
AcDbLinetypeTableRecord
  2
Continuous
 70
     0
  3
Solid line
 72
    65
 73
     0
 40
0.0
  0
LTYPE
  5
25
330
4
100
AcDbSymbolTableRecord
100
AcDbLinetypeTableRecord
  2
SLDVISIBLE1
 70
     0
  3

 72
    65
 73
     1
 40
2.399999999999999
 49
2.399999999999999
 74
     0
  0
LTYPE
  5
26
330
4
100
AcDbSymbolTableRecord
100
AcDbLinetypeTableRecord
  2
SLDHIDDEN0
 70
     0
  3

 72
    65
 73
     2
 40
0.075
 49
0.05
 74
     0
 49
-0.025
 74
     0
  0
LTYPE
  5
27
330
4
100
AcDbSymbolTableRecord
100
AcDbLinetypeTableRecord
  2
SLDSKETCH0
 70
     0
  3

 72
    65
 73
     1
 40
2.399999999999999
 49
2.399999999999999
 74
     0
  0
LTYPE
  5
28
330
4
100
AcDbSymbolTableRecord
100
AcDbLinetypeTableRecord
  2
SLDDETAIL0
 70
     0
  3

 72
    65
 73
     1
 40
2.399999999999999
 49
2.399999999999999
 74
     0
  0
LTYPE
  5
29
330
4
100
AcDbSymbolTableRecord
100
AcDbLinetypeTableRecord
  2
SLDSECTION0
 70
     0
  3

 72
    65
 73
     4
 40
0.4
 49
0.25
 74
     0
 49
-0.05
 74
     0
 49
0.05
 74
     0
 49
-0.05
 74
     0
  0
LTYPE
  5
2A
330
4
100
AcDbSymbolTableRecord
100
AcDbLinetypeTableRecord
  2
SLDDIMENSIONS0
 70
     0
  3

 72
    65
 73
     1
 40
2.399999999999999
 49
2.399999999999999
 74
     0
  0
LTYPE
  5
2B
330
4
100
AcDbSymbolTableRecord
100
AcDbLinetypeTableRecord
  2
SLDCENTERLINES0
 70
     0
  3

 72
    65
 73
     4
 40
0.75
 49
0.6
 74
     0
 49
-0.05
 74
     0
 49
0.05
 74
     0
 49
-0.05
 74
     0
  0
LTYPE
  5
2C
330
4
100
AcDbSymbolTableRecord
100
AcDbLinetypeTableRecord
  2
SLDCROSSHATCH0
 70
     0
  3

 72
    65
 73
     1
 40
2.399999999999999
 49
2.399999999999999
 74
     0
  0
LTYPE
  5
2D
330
4
100
AcDbSymbolTableRecord
100
AcDbLinetypeTableRecord
  2
SLDTANVISIBLE0
 70
     0
  3

 72
    65
 73
     6
 40
0.5
 49
0.25
 74
     0
 49
-0.05
 74
     0
 49
0.05
 74
     0
 49
-0.05
 74
     0
 49
0.05
 74
     0
 49
-0.05
 74
     0
  0
LTYPE
  5
2E
330
4
100
AcDbSymbolTableRecord
100
AcDbLinetypeTableRecord
  2
SLDDETAILBORDER0
 70
     0
  3

 72
    65
 73
     1
 40
2.399999999999999
 49
2.399999999999999
 74
     0
  0
LTYPE
  5
2F
330
4
100
AcDbSymbolTableRecord
100
AcDbLinetypeTableRecord
  2
SLDDUMMY1
 70
     0
  3

 72
    65
 73
     0
 40
0.0
  0
LTYPE
  5
30
330
4
100
AcDbSymbolTableRecord
100
AcDbLinetypeTableRecord
  2
SLDTANHIDDEN0
 70
     0
  3

 72
    65
 73
     2
 40
0.075
 49
0.05
 74
     0
 49
-0.025
 74
     0
  0
LTYPE
  5
31
330
4
100
AcDbSymbolTableRecord
100
AcDbLinetypeTableRecord
  2
SLDVIEWARROW2
 70
     0
  3

 72
    65
 73
     6
 40
0.5
 49
0.25
 74
     0
 49
-0.05
 74
     0
 49
0.05
 74
     0
 49
-0.05
 74
     0
 49
0.05
 74
     0
 49
-0.05
 74
     0
  0
LTYPE
  5
32
330
4
100
AcDbSymbolTableRecord
100
AcDbLinetypeTableRecord
  2
SLD--SPACER--0
 70
     0
  3

 72
    65
 73
     1
 40
2.399999999999999
 49
2.399999999999999
 74
     0
  0
LTYPE
  5
33
330
4
100
AcDbSymbolTableRecord
100
AcDbLinetypeTableRecord
  2
SLDUSER-DASHED0
 70
     0
  3

 72
    65
 73
     2
 40
0.075
 49
0.05
 74
     0
 49
-0.025
 74
     0
  0
LTYPE
  5
34
330
4
100
AcDbSymbolTableRecord
100
AcDbLinetypeTableRecord
  2
SLDUSER-PHANTOM0
 70
     0
  3

 72
    65
 73
     6
 40
0.5
 49
0.25
 74
     0
 49
-0.05
 74
     0
 49
0.05
 74
     0
 49
-0.05
 74
     0
 49
0.05
 74
     0
 49
-0.05
 74
     0
  0
LTYPE
  5
35
330
4
100
AcDbSymbolTableRecord
100
AcDbLinetypeTableRecord
  2
SLDUSER-CENTER0
 70
     0
  3

 72
    65
 73
     4
 40
0.75
 49
0.6
 74
     0
 49
-0.05
 74
     0
 49
0.05
 74
     0
 49
-0.05
 74
     0
  0
ENDTAB
  0
TABLE
  2
LAYER
  5
2
330
0
100
AcDbSymbolTable
 70
     4
  0
LAYER
  5
14
330
2
100
AcDbSymbolTableRecord
100
AcDbLayerTableRecord
  2
0
 70
     0
 62
     7
  6
Continuous
370
    -3
390
1D
  0
LAYER
  5
154
330
2
100
AcDbSymbolTableRecord
100
AcDbLayerTableRecord
  2
holes
 70
     0
 62
     1
  6
Continuous
370
    -3
390
1D
  0
LAYER
  5
155
330
2
100
AcDbSymbolTableRecord
100
AcDbLayerTableRecord
  2
outline
 70
     0
 62
     3
  6
Continuous
370
    -3
390
1D
  0
LAYER
  5
156
330
2
100
AcDbSymbolTableRecord
100
AcDbLayerTableRecord
  2
etch
 70
     0
 62
     4
  6
Continuous
370
    -3
390
1D
  0
ENDTAB
  0
TABLE
  2
STYLE
  5
3
330
0
100
AcDbSymbolTable
 70
     1
  0
STYLE
  5
17
330
3
100
AcDbSymbolTableRecord
100
AcDbTextStyleTableRecord
  2
Standard
 70
     0
 40
0.0
 41
1.0
 50
0.0
 71
     0
 42
0.0
  3
txt
  4

  0
ENDTAB
  0
TABLE
  2
VIEW
  5
5
330
0
100
AcDbSymbolTable
 70
     0
  0
ENDTAB
  0
TABLE
  2
UCS
  5
6
330
0
100
AcDbSymbolTable
 70
     0
  0
ENDTAB
  0
TABLE
  2
APPID
  5
8
330
0
100
AcDbSymbolTable
 70
     1
  0
APPID
  5
16
330
8
100
AcDbSymbolTableRecord
100
AcDbRegAppTableRecord
  2
ACAD
 70
     0
  0
ENDTAB
  0
TABLE
  2
DIMSTYLE
  5
9
330
0
100
AcDbSymbolTable
 70
     1
100
AcDbDimStyleTable
 71
     0
  0
DIMSTYLE
105
18
330
9
100
AcDbSymbolTableRecord
100
AcDbDimStyleTableRecord
  2
Standard
 70
     0
340
17
  0
ENDTAB
  0
TABLE
  2
BLOCK_RECORD
  5
1
330
0
100
AcDbSymbolTable
 70
     0
  0
BLOCK_RECORD
  5
A
330
1
100
AcDbSymbolTableRecord
100
AcDbBlockTableRecord
  2
*MODEL_SPACE
340
20
  0
BLOCK_RECORD
  5
B
330
1
100
AcDbSymbolTableRecord
100
AcDbBlockTableRecord
  2
*PAPER_SPACE
340
21
  0
ENDTAB
  0
ENDSEC
  0
SECTION
  2
BLOCKS
  0
BLOCK
  5
D
330
A
100
AcDbEntity
  8
0
100
AcDbBlockBegin
  2
*MODEL_SPACE
 70
     0
 10
0.0
 20
0.0
 30
0.0
  3
*MODEL_SPACE
  1

  0
ENDBLK
  5
E
330
A
100
AcDbEntity
  8
0
100
AcDbBlockEnd
  0
BLOCK
  5
F
330
B
100
AcDbEntity
 67
     1
  8
0
100
AcDbBlockBegin
  2
*PAPER_SPACE
 70
     0
 10
0.0
 20
0.0
 30
0.0
  3
*PAPER_SPACE
  1

  0
ENDBLK
  5
10
330
B
100
AcDbEntity
 67
     1
  8
0
100
AcDbBlockEnd
  0
ENDSEC
  0
SECTION
  2
ENTITIES
  0
LINE
  5
3E
330
A
100
AcDbEntity
  8
0
  6
Continuous
100
AcDbLine
 10
0.8297504911
 20
0.8297504911116352
 30
0.0
 11
1.6597504911
 21
0.8297504911116352
 31
0.0
  0
LINE
  5
3F
330
A
100
AcDbEntity
  8
0
  6
Continuous
100
AcDbLine
 10
0.8297504911
 20
0.8297504911116352
 30
0.0
 11
0.8297504911
 21
1.659750491111635
 31
0.0
  0
CIRCLE
  5
46
330
A
100
AcDbEntity
  8
holes
  6
Continuous
100
AcDbCircle
 10
0.8297504911
 20
0.8297504911116352
 30
0.0
 40
0.125
  0
CIRCLE
  5
47
330
A
100
AcDbEntity
  8
holes
  6
Continuous
100
AcDbCircle
 10
1.204750491099999
 20
0.8297504911116352
 30
0.0
 40
0.06
  0
CIRCLE
  5
48
330
A
100
AcDbEntity
  8
holes
  6
Continuous
100
AcDbCircle
 10
0.8297504911
 20
1.204750491111635
 30
0.0
 40
0.06
  0
CIRCLE
  5
49
330
A
100
AcDbEntity
  8
holes
  6
Continuous
100
AcDbCircle
 10
0.8297504911
 20
0.4547504911116354
 30
0.0
 40
0.06
  0
CIRCLE
  5
4A
330
A
100
AcDbEntity
  8
holes
  6
Continuous
100
AcDbCircle
 10
0.4547504911
 20
0.8297504911116352
 30
0.0
 40
0.06
  0
CIRCLE
  5
4B
330
A
100
AcDbEntity
  8
holes
  6
Continuous
100
AcDbCircle
 10
0.4547504911
 20
0.8297504911116352
 30
0.0
 40
0.06
  0
CIRCLE
  5
4C
330
A
100
AcDbEntity
  8
holes
  6
Continuous
100
AcDbCircle
 10
0.8297504911
 20
1.204750491111635
 30
0.0
 40
0.06
  0
CIRCLE
  5
4D
330
A
100
AcDbEntity
  8
holes
  6
Continuous
100
AcDbCircle
 10
0.8297504911
 20
0.8297504911116352
 30
0.0
 40
0.125
  0
CIRCLE
  5
4E
330
A
100
AcDbEntity
  8
holes
  6
Continuous
100
AcDbCircle
 10
1.204750491099999
 20
0.8297504911116352
 30
0.0
 40
0.06
  0
CIRCLE
  5
4F
330
A
100
AcDbEntity
  8
holes
  6
Continuous
100
AcDbCircle
 10
0.8297504911
 20
0.4547504911116354
 30
0.0
 40
0.06
  0
LWPOLYLINE
  5
157
330
A
100
AcDbEntity
  8
0
  6
Continuous
100
AcDbPolyline
 90
      260
 70
   128
 43
0.0
 10
1.659500982211635
 20
0.809400491111635
 10
1.6393504911
 20
0.809400491111635
 10
1.6393504911
 20
0.8501004911116352
 10
1.659500982199999
 20
0.8501004911116352
 10
1.6393504911
 20
0.8501004911116352
 10
1.6393504911
 20
0.809400491111635
 10
1.659500982211635
 20
0.8094004911116288
 42
-0.012284045727302
 10
1.6575001556
 20
0.7686727299116352
 10
1.637446694599999
 20
0.7706478235116352
 10
1.633457396999999
 20
0.7301438051116353
 10
1.653510857997346
 20
0.7281687115980383
 42
-0.0122840457273018
 10
1.6475276472
 20
0.6878331810116354
 10
1.627764342199999
 20
0.6917643468116353
 10
1.619824165999999
 20
0.6518463859116355
 10
1.639587471136613
 20
0.6479152201514134
 42
-0.012284045727302
 10
1.629679497799999
 20
0.6083603734116354
 10
1.6103966801
 20
0.6142097522116355
 10
1.5985820937
 20
0.5752622805116352
 10
1.617864911456203
 20
0.569412901765406
 42
-0.012284045727302
 10
1.604127594799999
 20
0.5310196736116354
 10
1.585510968499999
 20
0.5387309327116352
 10
1.569935752799999
 20
0.5011290357116354
 10
1.588552379080595
 20
0.4934177766798048
 42
-0.0122840457273018
 10
1.5711180169
 20
0.4565559149116352
 10
1.553346870299999
 20
0.4660547907116353
 10
1.5341610231
 20
0.4301605952116353
 10
1.551932169720429
 20
0.4206617194923466
 42
-0.012284045727302
 10
1.5309686645
 20
0.3856862240116352
 10
1.514214143399999
 20
0.3968812370116352
 10
1.491602435
 20
0.3630404238116354
 10
1.508356956010485
 20
0.3518454108062525
 42
-0.012284045727302
 10
1.484066197699999
 20
0.3190931147116354
 10
1.4684896575
 20
0.3318764509116354
 10
1.442669850799999
 20
0.3004149255116353
 10
1.458246391079424
 20
0.2876315892929904
 42
-0.012284045727302
 10
1.430862313
 20
0.2574179151116354
 10
1.4166137641
 20
0.2716664640116351
 10
1.3878345181
 20
0.2428872180116353
 10
1.402083067060754
 20
0.2286386691565791
 42
-0.012284045727302
 10
1.371869392899999
 20
0.2012545911116352
 10
1.359086056699999
 20
0.2168311314116353
 10
1.327624531199999
 20
0.1910113247116354
 10
1.34040786746677
 20
0.1754347844667419
 42
-0.0122840457273018
 10
1.307655571399999
 20
0.1511440262116352
 10
1.2964605583
 20
0.1678985472116354
 10
1.262619745099999
 20
0.1452868387116351
 10
1.273814758184658
 20
0.1285323177172448
 42
-0.012284045727302
 10
1.238839262699999
 20
0.1075688125116354
 10
1.2293403869
 20
0.1253399591116353
 10
1.1934461915
 20
0.1061541119116354
 10
1.202945067260299
 20
0.0883829653023813
 42
-0.012284045727302
 10
1.1660832055
 20
0.0709486031116353
 10
1.158371946399999
 20
0.0895652294116354
 10
1.120770049399999
 20
0.0739900137116354
 10
1.128481308558608
 20
0.055373387433775
 42
-0.0122840457273018
 10
1.0900880804
 20
0.0416360707116352
 10
1.084238701599999
 20
0.0609188884116354
 10
1.04529123
 20
0.0491043021116353
 10
1.051140608781916
 20
0.0298214843911717
 42
-0.012284045727302
 10
1.011585762
 20
0.0199135110116353
 10
1.0076545962
 20
0.0396768161116352
 10
0.9677366352999996
 20
0.0317366400116352
 10
0.9716678011477974
 20
0.0119733349689626
 42
-0.012284045727302
 10
0.9313322706000001
 20
0.0059901242116354
 10
0.9293571770999999
 20
0.0260435852116354
 10
0.8888531586999999
 20
0.0220542876116354
 10
0.890828252238025
 20
0.0020008266028742
 42
-0.012284045727302
 10
0.8501004911
 20
0.0000000000116354
 10
0.8501004911
 20
0.0201504911116353
 10
0.8094004910999998
 20
0.0201504911116353
 10
0.8094004910999936
 20
0.0
 42
-0.012284045727302
 10
0.7686727299000001
 20
0.0020008266116354
 10
0.7706478235000001
 20
0.0220542876116354
 10
0.7301438051
 20
0.0260435852116354
 10
0.7281687115864031
 20
0.0059901242142888
 42
-0.0122840457273018
 10
0.6878331810000001
 20
0.0119733349116353
 10
0.6917643467999999
 20
0.0317366400116352
 10
0.6518463858999999
 20
0.0396768161116352
 10
0.6479152201397785
 20
0.0199135110750213
 42
-0.012284045727302
 10
0.6083603733999999
 20
0.0298214844116351
 10
0.6142097522000001
 20
0.0491043021116353
 10
0.5752622804999998
 20
0.0609188884116354
 10
0.5694129017537711
 20
0.041636070755432
 42
-0.0122840457273022
 10
0.5310196735999999
 20
0.0553733874116353
 10
0.5387309326999999
 20
0.0739900137116354
 10
0.5011290358
 20
0.0895652294116354
 10
0.4934177766681703
 20
0.0709486031310389
 42
-0.0122840457273022
 10
0.4565559149000001
 20
0.0883829653116355
 10
0.4660547907000002
 20
0.1061541119116354
 10
0.4301605951999999
 20
0.1253399591116353
 10
0.4206617194807114
 20
0.1075688124912055
 42
-0.012284045727302
 10
0.3856862239999998
 20
0.1285323177116353
 10
0.3968812370000001
 20
0.1452868387116351
 10
0.3630404238
 20
0.1678985472116354
 10
0.3518454107946176
 20
0.1511440262011496
 42
-0.0122840457273022
 10
0.3190931147
 20
0.1754347844116353
 10
0.3318764510000001
 20
0.1910113247116354
 10
0.3004149254999999
 20
0.2168311314116353
 10
0.2876315892813559
 20
0.2012545911322103
 42
-0.0122840457273022
 10
0.2574179151
 20
0.2286386691116353
 10
0.2716664639999999
 20
0.2428872180116353
 10
0.2428872179999999
 20
0.2716664640116351
 10
0.2286386691449442
 20
0.2574179151508802
 42
-0.0122840457273022
 10
0.2012545910999999
 20
0.2876315893116352
 10
0.2168311314
 20
0.3004149255116353
 10
0.1910113247
 20
0.3318764509116354
 10
0.1754347844551072
 20
0.3190931147448635
 42
-0.0122840457273022
 10
0.1511440261999999
 20
0.3518454108116353
 10
0.1678985472000001
 20
0.3630404238116354
 10
0.1452868386999999
 20
0.3968812370116352
 10
0.1285323177056099
 20
0.3856862240269765
 42
-0.0122840457273022
 10
0.1075688125
 20
0.4206617195116353
 10
0.1253399591000002
 20
0.4301605952116353
 10
0.1061541119
 20
0.4660547907116353
 10
0.0883829652907462
 20
0.4565559149513359
 42
-0.0122840457273021
 10
0.0709486031
 20
0.4934177766116355
 10
0.0895652294
 20
0.5011290357116354
 10
0.0739900137
 20
0.5387309327116352
 10
0.0553733874221401
 20
0.531019673653026
 42
-0.0122840457273022
 10
0.0416360707000001
 20
0.5694129017116352
 10
0.0609188884999998
 20
0.5752622805116352
 10
0.0491043021
 20
0.6142097522116355
 10
0.0298214843795366
 20
0.6083603734297187
 42
-0.0122840457273022
 10
0.019913511
 20
0.6479152201116354
 10
0.0396768161000001
 20
0.6518463859116355
 10
0.0317366399999999
 20
0.6917643468116353
 10
0.0119733349573275
 20
0.6878331810638374
 42
-0.0122840457273022
 10
0.0059901242
 20
0.7281687116116354
 10
0.0260435851999998
 20
0.7301438051116353
 10
0.0220542876000001
 20
0.7706478235116352
 10
0.0020008265912392
 20
0.7686727299736096
 42
-0.0122840457273021
 10
0.0
 20
0.809400491111635
 10
0.0201504910999999
 20
0.809400491111635
 10
0.0201504910999999
 20
0.8501004911116352
 10
0.0
 20
0.8501004911116352
 42
-0.0122840457273022
 10
0.0020008265912392
 20
0.8908282522496605
 10
0.0220542876000001
 20
0.888853158711635
 10
0.0260435851999998
 20
0.9293571771116351
 10
0.0059901242
 20
0.9313322706116355
 42
-0.0122840457273021
 10
0.0119733349573275
 20
0.9716678011594325
 10
0.0317366399999999
 20
0.9677366353116351
 10
0.0396768161000001
 20
1.007654596211635
 10
0.019913511
 20
1.011585762011635
 42
-0.012284045727302
 10
0.0298214843795366
 20
1.051140608793551
 10
0.0491043021
 20
1.045291229911635
 10
0.0609188884999998
 20
1.084238701611635
 10
0.0416360707000001
 20
1.090088080411635
 42
-0.0122840457273019
 10
0.0553733874221401
 20
1.128481308570243
 10
0.0739900137
 20
1.120770049411635
 10
0.0895652294
 20
1.158371946411635
 10
0.0709486031
 20
1.166083205511635
 42
-0.012284045727302
 10
0.0883829652907462
 20
1.202945067271934
 10
0.1061541119
 20
1.193446191511635
 10
0.1253399591000002
 20
1.229340386911635
 10
0.1075688125
 20
1.238839262711635
 42
-0.012284045727302
 10
0.1285323177056097
 20
1.273814758196293
 10
0.1452868386999999
 20
1.262619745111635
 10
0.1678985472000001
 20
1.296460558311635
 10
0.1511440261999999
 20
1.307655571411635
 42
-0.012284045727302
 10
0.1754347844551072
 20
1.340407867478406
 10
0.1910113247
 20
1.327624531211635
 10
0.2168311314
 20
1.359086056711635
 10
0.2012545910999999
 20
1.371869392911635
 42
-0.0122840457273019
 10
0.2286386691449438
 20
1.402083067072389
 10
0.2428872179999999
 20
1.387834518111635
 10
0.2716664639999999
 20
1.416613764111635
 10
0.2574179151
 20
1.430862313011635
 42
-0.012284045727302
 10
0.2876315892813554
 20
1.458246391091059
 10
0.3004149254999999
 20
1.442669850811635
 10
0.3318764510000001
 20
1.468489657511635
 10
0.3190931147
 20
1.484066197711635
 42
-0.012284045727302
 10
0.3518454107946174
 20
1.50835695602212
 10
0.3630404238
 20
1.491602435011635
 10
0.3968812370000001
 20
1.514214143411635
 10
0.3856862239999998
 20
1.530968664511635
 42
-0.012284045727302
 10
0.4206617194807116
 20
1.551932169732065
 10
0.4301605951999999
 20
1.534161023111634
 10
0.4660547907000002
 20
1.553346870311635
 10
0.4565559149000001
 20
1.571118016911634
 42
-0.0122840457273019
 10
0.49341777666817
 20
1.58855237909223
 10
0.5011290358
 20
1.569935752711635
 10
0.5387309326999999
 20
1.585510968411635
 10
0.5310196735999999
 20
1.604127594811635
 42
-0.0122840457273019
 10
0.5694129017537709
 20
1.617864911467838
 10
0.5752622804999998
 20
1.598582093711635
 10
0.6142097522000001
 20
1.610396680111635
 10
0.6083603733999999
 20
1.629679497811635
 42
-0.0122840457273019
 10
0.6479152201397787
 20
1.639587471148248
 10
0.6518463858999999
 20
1.619824166011635
 10
0.6917643467999999
 20
1.627764342111635
 10
0.6878331810000001
 20
1.647527647211635
 42
-0.0122840457273019
 10
0.7281687115864035
 20
1.653510858008981
 10
0.7301438051
 20
1.633457397011635
 10
0.7706478235000001
 20
1.637446694611635
 10
0.7686727299000001
 20
1.657500155611635
 42
-0.0122840457273019
 10
0.8094004910999936
 20
1.65950098222327
 10
0.8094004910999998
 20
1.639350491111635
 10
0.8501004911
 20
1.639350491111635
 10
0.8501004911
 20
1.659500982211635
 42
-0.012284045727302
 10
0.8908282522380254
 20
1.657500155620395
 10
0.8888531586999999
 20
1.637446694611635
 10
0.9293571770999999
 20
1.633457397011635
 10
0.9313322706000001
 20
1.653510858011635
 42
-0.0122840457273021
 10
0.9716678011477974
 20
1.647527647254307
 10
0.9677366352999996
 20
1.627764342111635
 10
1.0076545962
 20
1.619824166011635
 10
1.011585762
 20
1.639587471111635
 42
-0.012284045727302
 10
1.051140608781916
 20
1.629679497832098
 10
1.04529123
 20
1.610396680111635
 10
1.084238701599999
 20
1.598582093711635
 10
1.0900880804
 20
1.617864911411635
 42
-0.0122840457273021
 10
1.128481308558609
 20
1.604127594789495
 10
1.120770049399999
 20
1.585510968411635
 10
1.158371946399999
 20
1.569935752711635
 10
1.1660832055
 20
1.588552379111635
 42
-0.012284045727302
 10
1.202945067260299
 20
1.571118016920888
 10
1.1934461915
 20
1.553346870311635
 10
1.2293403869
 20
1.534161023111634
 10
1.238839262699999
 20
1.551932169711635
 42
-0.012284045727302
 10
1.273814758184658
 20
1.530968664506025
 10
1.262619745099999
 20
1.514214143411635
 10
1.2964605583
 20
1.491602435011635
 10
1.307655571399999
 20
1.508356956011635
 42
-0.012284045727302
 10
1.340407867466771
 20
1.484066197756527
 10
1.327624531199999
 20
1.468489657511635
 10
1.359086056699999
 20
1.442669850811635
 10
1.371869392899999
 20
1.458246391111635
 42
-0.012284045727302
 10
1.402083067060754
 20
1.430862313066691
 10
1.3878345181
 20
1.416613764111635
 10
1.4166137641
 20
1.387834518111635
 10
1.430862313
 20
1.402083067011635
 42
-0.012284045727302
 10
1.458246391079424
 20
1.371869392930279
 10
1.442669850799999
 20
1.359086056711635
 10
1.4684896575
 20
1.327624531211635
 10
1.484066197699999
 20
1.340407867411635
 42
-0.012284045727302
 10
1.508356956010485
 20
1.307655571417017
 10
1.491602435
 20
1.296460558311635
 10
1.514214143399999
 20
1.262619745111635
 10
1.5309686645
 20
1.273814758211635
 42
-0.012284045727302
 10
1.551932169720429
 20
1.238839262730923
 10
1.5341610231
 20
1.229340386911635
 10
1.553346870299999
 20
1.193446191511635
 10
1.5711180169
 20
1.202945067211635
 42
-0.012284045727302
 10
1.588552379080596
 20
1.166083205543464
 10
1.569935752799999
 20
1.158371946411635
 10
1.585510968499999
 20
1.120770049411635
 10
1.604127594799999
 20
1.128481308511635
 42
-0.012284045727302
 10
1.617864911456203
 20
1.090088080457864
 10
1.5985820937
 20
1.084238701611635
 10
1.6103966801
 20
1.045291229911635
 10
1.629679497799999
 20
1.051140608811635
 42
-0.012284045727302
 10
1.639587471136613
 20
1.011585762071856
 10
1.619824165999999
 20
1.007654596211635
 10
1.627764342199999
 20
0.9677366353116351
 10
1.6475276472
 20
0.9716678011116353
 42
-0.012284045727302
 10
1.653510857997346
 20
0.9313322706252314
 10
1.633457396999999
 20
0.9293571771116351
 10
1.637446694599999
 20
0.888853158711635
 10
1.6575001556
 20
0.8908282522116355
 42
-0.012284045727302
 10
1.659500982211635
 20
0.8501004911116414
  0
LWPOLYLINE
  5
159
330
A
100
AcDbEntity
  8
0
  6
Continuous
370
     0
100
AcDbPolyline
 90
        2
 70
   128
 43
0.0
 10
0.0
 20
0.8501004911116352
 10
0.0
 20
-0.1175678001395197
  0
LWPOLYLINE
  5
15A
330
A
100
AcDbEntity
  8
0
  6
Continuous
370
     0
100
AcDbPolyline
 90
        2
 70
   128
 43
0.0
 10
0.8094004910999936
 20
0.0
 10
-0.2845429720533645
 20
0.0
  0
LWPOLYLINE
  5
15C
330
A
100
AcDbEntity
  8
outline
  6
Continuous
100
AcDbPolyline
 90
      255
 70
   128
 43
0.0
 10
1.659500982211637
 20
0.8144004911116288
 10
1.664609387861141
 20
0.8144004911116272
 42
-0.0153527641377504
 10
1.662093877175279
 20
0.7631960949438922
 10
1.641932532531363
 20
0.7651818141558321
 10
1.63892340633338
 20
0.7346296430440562
 10
1.659084750982677
 20
0.7326439239181895
 42
-0.0153527641330444
 10
1.65156244465168
 20
0.6819326541037287
 10
1.631692816979819
 20
0.6858849687981758
 10
1.625703544025947
 20
0.6557748607136577
 10
1.64557317181798
 20
0.6518225460626171
 42
-0.0153527641382637
 10
1.63311651382847
 20
0.6020927798484709
 10
1.613729958389578
 20
0.6079736271475296
 10
1.604818218772611
 20
0.578595558819244
 10
1.6242047742602
 20
0.5727147115766131
 42
-0.0153527641389131
 10
1.606933729064785
 20
0.5244453737396283
 10
1.588216949001527
 20
0.5321981178866979
 10
1.576468567628701
 20
0.5038350162252733
 10
1.595185347669648
 20
0.4960822721479003
 42
-0.0153527641401771
 10
1.573266244780953
 20
0.4497382228274671
 10
1.55539949293413
 20
0.4592882006967843
 10
1.54092761310979
 20
0.432213217859048
 10
1.558794364976957
 20
0.4226632400709819
 42
-0.0153527641329975
 10
1.532438297410465
 20
0.3786907978481333
 10
1.515593640312402
 20
0.3899460377960749
 10
1.498537634223227
 20
0.3644199207158667
 10
1.515382291244251
 20
0.353164680753856
 42
-0.0153527641348669
 10
1.484843082241303
 20
0.3119873242061413
 10
1.469182743337492
 20
0.3248394322251827
 10
1.44970686949611
 20
0.30110801135642
 10
1.465367208471117
 20
0.2882559033257373
 42
-0.0153527641325019
 10
1.430938967368106
 20
0.2502701929316637
 10
1.416613764099999
 20
0.2645953961997708
 10
1.394905585924978
 20
0.2428872180247487
 10
1.409230789255394
 20
0.2285620148006002
 42
-0.0153527641431347
 10
1.371245078861013
 20
0.1941337737165687
 10
1.358392970845001
 20
0.2097941127172254
 10
1.334661549895834
 20
0.1903182388717617
 10
1.347513657979064
 20
0.1746578999263994
 42
-0.0153527641343481
 10
1.30633630146804
 20
0.144118690993013
 10
1.295081061418875
 20
0.1609633479915637
 10
1.269554944336512
 20
0.1439073418255153
 10
1.280810184376722
 20
0.1270626848229272
 42
-0.0153527641369671
 10
1.236837742138386
 20
0.100706617266722
 10
1.227287764273
 20
0.1185733691061901
 10
1.200212781503505
 20
0.104101489278005
 10
1.209762759334838
 20
0.0862347374182671
 42
-0.0153527641331756
 10
1.163418710045416
 20
0.064315634526765
 10
1.155665965899098
 20
0.0830324145882092
 10
1.12730286423929
 20
0.0712840332160533
 10
1.135055608442506
 20
0.0525672531817617
 42
-0.0153527641365287
 10
1.086786270607337
 20
0.0352962079056916
 10
1.080905423306106
 20
0.0546827633517446
 10
1.051527355060964
 20
0.0457710238125449
 10
1.057408202338276
 20
0.0263844683648278
 42
-0.0153527641291455
 10
1.007678436101
 20
0.0139278103288962
 10
1.003726121406861
 20
0.0337974380997397
 10
0.9736160133251914
 20
0.0278081652218637
 10
0.9775683280661493
 20
0.0079385375148732
 42
-0.0153527641403161
 10
0.9268570582759585
 20
0.0004162312301314
 10
0.924871339164175
 20
0.0205775758779184
 10
0.8943191680403611
 20
0.0175684496787516
 10
0.8963048871901724
 20
-0.0025928949757995
 42
-0.0153527641377142
 10
0.8451004911
 20
-0.005108405635682
 10
0.8451004911
 20
0.0151504911116336
 10
0.8144004910999967
 20
0.0151504911116353
 10
0.8144004910999921
 20
-0.0051084056495064
 42
-0.0153527641377564
 10
0.7631960949322569
 20
-0.0025928949636438
 10
0.7651818141441971
 20
0.0175684496802731
 10
0.7346296430324197
 20
0.0205775758782549
 10
0.7326439239077663
 20
0.0004162312412608
 42
-0.0153527641326635
 10
0.6819326540945517
 20
0.0079385374469655
 10
0.6858849687889376
 20
0.0278081652190526
 10
0.6557748606996251
 20
0.0337974380984496
 10
0.6518225460461493
 20
0.0139278103947086
 42
-0.0153527641367738
 10
0.6020927798368357
 20
0.0263844683831639
 10
0.6079736271324816
 20
0.0457710238108068
 10
0.5785955588041275
 20
0.0546827633523654
 10
0.5727147115579755
 20
0.035296207953701
 42
-0.015352764136721
 10
0.5244453737279934
 20
0.0525672531468492
 10
0.5321981178768622
 20
0.0712840332144523
 10
0.503835016290658
 20
0.0830324145873638
 10
0.4960822721147921
 20
0.0643156345513469
 42
-0.0153527641331679
 10
0.4497382228158319
 20
0.0862347374306828
 10
0.4592882006851484
 20
0.1041014892775034
 10
0.4322132178474141
 20
0.1185733691018441
 10
0.4226632400593468
 20
0.1007066172346771
 42
-0.015352764137205
 10
0.3786907978246433
 20
0.1270626848087792
 10
0.3899460377786508
 20
0.1439073418153815
 10
0.3644199206985566
 20
0.160963347979915
 10
0.3531646807478086
 20
0.144118690975746
 42
-0.0153527641403792
 10
0.3119873241853974
 20
0.1746578998647734
 10
0.3248394323059451
 20
0.1903182388703012
 10
0.3011080113497296
 20
0.2097941127215488
 10
0.2882559033199914
 20
0.1941337737476924
 42
-0.0153527641375214
 10
0.2502701929135012
 20
0.2285620147370025
 10
0.2645953961881351
 20
0.242887218011636
 10
0.2428872180007064
 20
0.2645953961990632
 10
0.2285620147765229
 20
0.2502701929691485
 42
-0.0153527641377682
 10
0.1941337737049337
 20
0.2882559033506209
 10
0.2097941126995658
 20
0.3011080113616891
 10
0.190318238853982
 20
0.3248394322355728
 10
0.1746578999026113
 20
0.3119873242479469
 42
-0.0153527641347976
 10
0.1441186909693447
 20
0.3531646807609055
 10
0.1609633479684651
 20
0.3644199207099136
 10
0.1439073418024178
 20
0.3899460377922768
 10
0.1270626847999039
 20
0.3786907978526544
 42
-0.015352764137354
 10
0.100706617244185
 20
0.4226632400927729
 10
0.1185733690893462
 20
0.4322132178606643
 10
0.1041014892612628
 20
0.4592882007053995
 10
0.086234737411373
 20
0.449738222879331
 42
-0.0153527641399403
 10
0.0643156345102272
 20
0.4960822720641883
 10
0.083032414576574
 20
0.5038350162125369
 10
0.0712840331956459
 20
0.5321981178935222
 10
0.0525672531654832
 20
0.5244453737925549
 42
-0.0153527641387596
 10
0.0352962078877979
 20
0.5727147115100902
 10
0.0546827634301786
 20
0.5785955588100435
 10
0.0457710238087463
 20
0.60797362715305
 10
0.0263844683561332
 20
0.6020927798742499
 42
-0.0153527641364047
 10
0.0139278103143204
 20
0.6518225460100508
 10
0.0337974380881046
 20
0.6557748607047741
 10
0.0278081652054806
 20
0.6858849688103124
 10
0.0079385374988358
 20
0.6819326541699612
 42
-0.0153527641328705
 10
0.0004162312184962
 20
0.7326439239356765
 10
0.020577575866285
 20
0.7346296430474605
 10
0.0175684496671161
 20
0.7651818141712745
 10
-0.0025928949874343
 20
0.7631960950214621
 42
-0.0153527641377127
 10
-0.0051084056473173
 20
0.8144004911116354
 10
0.0151504911
 20
0.8144004911116351
 10
0.0151504910999999
 20
0.8451004911116362
 10
-0.0051084056473176
 20
0.8451004911116351
 42
-0.0153527641377142
 10
-0.0025928949874343
 20
0.8963048872018081
 10
0.0175684496671162
 20
0.8943191680519959
 10
0.020577575866284
 20
0.9248713391758103
 10
0.0004162312184962
 20
0.9268570582875941
 42
-0.0153527641403123
 10
0.0079385375032381
 20
0.9775683280777839
 10
0.0278081652102291
 20
0.9736160133368279
 10
0.0337974380881048
 20
1.003726121418497
 10
0.0139278103172608
 20
1.007678436112634
 42
-0.015352764136415
 10
0.0263844683598083
 20
1.057408202373256
 10
0.0457710238156404
 20
1.051527354992943
 10
0.0546827634301796
 20
1.080905423313226
 10
0.0352962078917909
 20
1.086786270611969
 42
-0.0153527641387289
 10
0.0525672531701269
 20
1.135055608454142
 10
0.0712840332044176
 20
1.127302864250928
 10
0.0830324145765743
 20
1.155665965910734
 10
0.0643156345151296
 20
1.163418710057051
 42
-0.0153527641331806
 10
0.0862347374066322
 20
1.209762759346473
 10
0.1041014892663704
 20
1.200212781515139
 10
0.1185733690945548
 20
1.227287764284636
 10
0.1007066172550868
 20
1.236837742150021
 42
-0.0153527641369729
 10
0.1270626848112918
 20
1.280810184388357
 10
0.1439073418138807
 20
1.269554944348149
 10
0.160963347979928
 20
1.295081061430511
 10
0.1441186909813775
 20
1.306336301479676
 42
-0.0153527641343423
 10
0.1746578999147649
 20
1.3475136579907
 10
0.1903182388601259
 20
1.334661549907468
 10
0.2097941127055898
 20
1.358392970856637
 10
0.1941337737049335
 20
1.371245078872649
 42
-0.0153527641431227
 10
0.2285620147889648
 20
1.409230789267029
 10
0.2428872180131143
 20
1.394905585936613
 10
0.2645953961881339
 20
1.416613764111634
 10
0.2502701929200283
 20
1.430938967379741
 42
-0.015352764132497
 10
0.2882559033141023
 20
1.465367208482752
 10
0.3011080113497297
 20
1.449706869501721
 10
0.3248394322937767
 20
1.469182743342983
 10
0.3119873241791287
 20
1.484843082240784
 42
-0.0153527641407347
 10
0.3531646807422213
 20
1.515382291255886
 10
0.3644199207042314
 20
1.498537634234863
 10
0.3899460377844384
 20
1.515593640324039
 10
0.3786907978364977
 20
1.532438297422101
 42
-0.0153527641329851
 10
0.4226632400593468
 20
1.558794364988593
 10
0.4322132178474135
 20
1.540927613121426
 10
0.4592882006851488
 20
1.555399492945767
 10
0.4497382228158322
 20
1.573266244792587
 42
-0.0153527641360747
 10
0.4960822721236867
 20
1.5951853476758
 10
0.5038350162994316
 20
1.576468567539541
 10
0.5321981178856356
 20
1.588216948912453
 10
0.5244453737370246
 20
1.606933729079969
 42
-0.0153527641360198
 10
0.572714711564978
 20
1.624204774271835
 10
0.5785955588076078
 20
1.604818218784245
 10
0.6079736271358936
 20
1.613729958401214
 10
0.6020927798368355
 20
1.633116513840106
 42
-0.015352764138255
 10
0.6518225460509828
 20
1.645573171829615
 10
0.6557748607043719
 20
1.625703544025764
 10
0.6858849687889372
 20
1.631692816904217
 10
0.6819326540969616
 20
1.651562444664191
 42
-0.0153527641315724
 10
0.7326439239065553
 20
1.659084750994312
 10
0.7346296430324194
 20
1.638923406345017
 10
0.7651818141441959
 20
1.641932532542998
 10
0.7631960949322567
 20
1.662093877186914
 42
-0.015352764137749
 10
0.8144004910999917
 20
1.664609387872777
 10
0.8144004910999983
 20
1.644350491111634
 10
0.8451004910999992
 20
1.644350491111635
 10
0.8451004911
 20
1.664609387858953
 42
-0.0153527641377071
 10
0.896304887190173
 20
1.662093877199069
 10
0.8943191680403607
 20
1.641932532544519
 10
0.9248713391641743
 20
1.638923406345351
 10
0.9268570582759585
 20
1.659084750993139
 42
-0.015352764138828
 10
0.9775683280612808
 20
1.651562444709272
 10
0.9736160133204446
 20
1.63169281690235
 10
1.003726121406862
 20
1.62570354402353
 10
1.007678436098633
 20
1.64557317178248
 42
-0.0153527641309636
 10
1.057408202341791
 20
1.633116513870029
 10
1.05152735505755
 20
1.613729958399475
 10
1.08090542330952
 20
1.604818218782776
 10
1.086786270603919
 20
1.624204774206311
 42
-0.0153527641361431
 10
1.135055608437973
 20
1.60693372905591
 10
1.127302864230519
 20
1.588216948910849
 10
1.155665965890325
 20
1.576468567538695
 10
1.163418710036521
 20
1.595185347700383
 42
-0.0153527641360802
 10
1.209762759334838
 20
1.573266244805002
 10
1.200212781503504
 20
1.555399492945265
 10
1.227287764273
 20
1.540927613117081
 10
1.236837742138386
 20
1.558794364956548
 42
-0.0153527641327484
 10
1.280810184364867
 20
1.532438297407952
 10
1.269554944330726
 20
1.515593640313905
 10
1.2950810614132
 20
1.498537634223214
 10
1.30633630146804
 20
1.515382291230257
 42
-0.0153527641343477
 10
1.347513657979065
 20
1.48484308229687
 10
1.334661549895833
 20
1.469182743351509
 10
1.358392970845002
 20
1.449706869506045
 10
1.371245078861013
 20
1.465367208506701
 42
-0.0153527641377733
 10
1.409230789242485
 20
1.430938967435112
 10
1.394905585912573
 20
1.416613764110929
 10
1.4166137641
 20
1.3949055859235
 10
1.430938967362154
 20
1.409230789185654
 42
-0.0153527641380458
 10
1.46536720847758
 20
1.371245078902836
 10
1.449706869490086
 20
1.358392970861906
 10
1.469182743343515
 20
1.334661549903032
 10
1.484843082235526
 20
1.347513657912389
 42
-0.0153527641345609
 10
1.515382291238379
 20
1.306336301490842
 10
1.498537634211766
 20
1.295081061424558
 10
1.515593640300941
 20
1.269554944344351
 10
1.532438297399077
 20
1.280810184392879
 42
-0.0153527641326056
 10
1.558794364966055
 20
1.236837742171811
 10
1.540927613104583
 20
1.227287764286251
 10
1.55539949293934
 20
1.200212781504457
 10
1.573266244786388
 20
1.209762759273357
 42
-0.0153527641332412
 10
1.59518534766519
 20
1.163418710098873
 10
1.576468567619927
 20
1.155665965919177
 10
1.588216949001527
 20
1.127302864236573
 10
1.606933729060864
 20
1.135055608382017
 42
-0.0153527641387019
 10
1.624204774256723
 20
1.086786270670953
 10
1.604818218765718
 20
1.08090542332675
 10
1.613729958382686
 20
1.051527354998462
 10
1.633116513821855
 20
1.057408202398144
 42
-0.0153527641380672
 10
1.645573171812681
 20
1.00767843618495
 10
1.6257035440212
 20
1.003726121433483
 10
1.63169281697982
 20
0.9736160133250949
 10
1.651562444649845
 20
0.9775683280191774
 42
-0.015352764140442
 10
1.659084750984463
 20
0.9268570583052561
 10
1.638923406333379
 20
0.9248713391792154
 10
1.641932532533783
 20
0.894319168042864
 10
1.662093877176642
 20
0.8963048871541619
 42
-0.0138183724056817
 10
1.66449947914601
 20
0.8502230814743906
 42
-0.0138183724056817
  0
LWPOLYLINE
  5
15D
330
A
100
AcDbEntity
  8
outline
  6
Continuous
100
AcDbPolyline
 90
        2
 70
   128
 43
0.0
 10
1.6343504911
 20
0.8551004911116352
 10
1.654360930942815
 20
0.8551004911116352
  0
LWPOLYLINE
  5
15E
330
A
100
AcDbEntity
  8
outline
  6
Continuous
100
AcDbPolyline
 90
        2
 70
   128
 43
0.0
 10
1.6343504911
 20
0.8044004911116349
 10
1.6343504911
 20
0.8551004911116352
  0
LWPOLYLINE
  5
15F
330
A
100
AcDbEntity
  8
outline
  6
Continuous
100
AcDbPolyline
 90
        2
 70
   128
 43
0.0
 10
1.654360930943474
 20
0.8044004911116349
 10
1.6343504911
 20
0.8044004911116349
  0
ENDSEC
  0
SECTION
  2
OBJECTS
  0
DICTIONARY
  5
19
330
0
100
AcDbDictionary
281
     1
  3
ACAD_GROUP
350
1A
  3
ACAD_MLINESTYLE
350
1B
  3
ACAD_LAYOUT
350
1E
  3
ACAD_PLOTSETTINGS
350
22
  3
ACAD_PLOTSTYLENAME
350
1F
  3
ACAD_WIPEOUT_VARS
350
23
  0
DICTIONARY
  5
1A
102
{ACAD_REACTORS
330
19
102
}
330
19
100
AcDbDictionary
281
     1
  0
DICTIONARY
  5
1B
102
{ACAD_REACTORS
330
19
102
}
330
19
100
AcDbDictionary
281
     1
  3
Standard
350
1C
  0
DICTIONARY
  5
1E
102
{ACAD_REACTORS
330
19
102
}
330
19
100
AcDbDictionary
281
     1
  3
Layout1
350
21
  3
Model
350
20
  0
DICTIONARY
  5
22
102
{ACAD_REACTORS
330
19
102
}
330
19
100
AcDbDictionary
281
     1
  0
ACDBDICTIONARYWDFLT
  5
1F
102
{ACAD_REACTORS
330
19
102
}
330
19
100
AcDbDictionary
281
     1
  3
Normal
350
1D
100
AcDbDictionaryWithDefault
340
1D
  0
WIPEOUTVARIABLES
  5
23
330
19
100
AcDbWipeoutVariables
 70
     1
  0
MLINESTYLE
  5
1C
102
{ACAD_REACTORS
330
1B
102
}
330
1B
100
AcDbMlineStyle
  2
STANDARD
 70
     0
  3

 62
     0
 51
90.0
 52
90.0
 71
     2
 49
0.5
 62
   256
  6
BYLAYER
 49
-0.5
 62
   256
  6
BYLAYER
  0
LAYOUT
  5
21
102
{ACAD_REACTORS
330
1E
102
}
330
1E
100
AcDbPlotSettings
  1

  2

  4

  6

 40
0.0
 41
0.0
 42
0.0
 43
0.0
 44
0.0
 45
0.0
 46
0.0
 47
0.0
 48
0.0
 49
0.0
140
0.0
141
0.0
142
1.0
143
1.0
 70
     0
 72
     0
 73
     0
 74
     0
  7

 75
     0
147
1.0
148
0.0
149
0.0
100
AcDbLayout
  1
Layout1
 70
     1
 71
     1
 10
0.0
 20
0.0
 11
12.0
 21
9.0
 12
0.0
 22
0.0
 32
0.0
 14
1.000000000000000E+20
 24
1.000000000000000E+20
 34
1.000000000000000E+20
 15
-1.000000000000000E+20
 25
-1.000000000000000E+20
 35
-1.000000000000000E+20
146
0.0
 13
0.0
 23
0.0
 33
0.0
 16
1.0
 26
0.0
 36
0.0
 17
0.0
 27
1.0
 37
0.0
 76
     0
330
B
  0
LAYOUT
  5
20
102
{ACAD_REACTORS
330
1E
102
}
330
1E
100
AcDbPlotSettings
  1

  2

  4

  6

 40
0.0
 41
0.0
 42
0.0
 43
0.0
 44
0.0
 45
0.0
 46
0.0
 47
0.0
 48
0.0
 49
0.0
140
0.0
141
0.0
142
1.0
143
1.0
 70
  1024
 72
     0
 73
     0
 74
     0
  7

 75
     0
147
1.0
148
0.0
149
0.0
100
AcDbLayout
  1
Model
 70
     0
 71
     0
 10
0.0
 20
0.0
 11
0.0
 21
0.0
 12
0.0
 22
0.0
 32
0.0
 14
0.0
 24
0.0
 34
0.0
 15
0.0
 25
0.0
 35
0.0
146
0.0
 13
0.0
 23
0.0
 33
0.0
 16
0.0
 26
0.0
 36
0.0
 17
0.0
 27
0.0
 37
0.0
 76
     0
330
A
  0
ACDBPLACEHOLDER
  5
1D
102
{ACAD_REACTORS
330
1F
102
}
330
1F
  0
ENDSEC
  0
EOF
